<?xml version="1.0" encoding="UTF-8" standalone="no"?>
<!DOCTYPE svg PUBLIC "-//W3C//DTD SVG 1.1//EN"
 "http://www.w3.org/Graphics/SVG/1.1/DTD/svg11.dtd">
<!-- Generated by graphviz version 12.2.1 (0)
 -->
<!-- Title: NixOS Pages: 1 -->
<svg width="871pt" height="4066pt"
 viewBox="0.00 0.00 870.50 4066.00" xmlns="http://www.w3.org/2000/svg" xmlns:xlink="http://www.w3.org/1999/xlink">
<g id="graph0" class="graph" transform="scale(1 1) rotate(0) translate(4 4062)">
<title>NixOS</title>
<polygon fill="white" stroke="none" points="-4,4 -4,-4062 866.5,-4062 866.5,4 -4,4"/>
<g id="clust1" class="cluster">
<title>cluster_hosts_devcontainer</title>
<path fill="#e9ecef" stroke="#adb5bd" d="M150.75,-3962C150.75,-3962 292,-3962 292,-3962 298,-3962 304,-3968 304,-3974 304,-3974 304,-4038 304,-4038 304,-4044 298,-4050 292,-4050 292,-4050 150.75,-4050 150.75,-4050 144.75,-4050 138.75,-4044 138.75,-4038 138.75,-4038 138.75,-3974 138.75,-3974 138.75,-3968 144.75,-3962 150.75,-3962"/>
<text text-anchor="middle" x="221.38" y="-4034.6" font-family="Helvetica,sans-Serif" font-weight="bold" font-size="12.00" fill="#495057">📁 hosts/devcontainer</text>
</g>
<g id="clust2" class="cluster">
<title>cluster_hosts_homelab</title>
<path fill="#e9ecef" stroke="#adb5bd" d="M166.38,-3808C166.38,-3808 589.62,-3808 589.62,-3808 595.62,-3808 601.62,-3814 601.62,-3820 601.62,-3820 601.62,-3942 601.62,-3942 601.62,-3948 595.62,-3954 589.62,-3954 589.62,-3954 166.38,-3954 166.38,-3954 160.38,-3954 154.38,-3948 154.38,-3942 154.38,-3942 154.38,-3820 154.38,-3820 154.38,-3814 160.38,-3808 166.38,-3808"/>
<text text-anchor="middle" x="378" y="-3938.6" font-family="Helvetica,sans-Serif" font-weight="bold" font-size="12.00" fill="#495057">📁 hosts/homelab</text>
</g>
<g id="clust3" class="cluster">
<title>cluster_hosts_homelab_services_media</title>
<path fill="#e9ecef" stroke="#adb5bd" d="M406.12,-2900C406.12,-2900 623.12,-2900 623.12,-2900 629.12,-2900 635.12,-2906 635.12,-2912 635.12,-2912 635.12,-3788 635.12,-3788 635.12,-3794 629.12,-3800 623.12,-3800 623.12,-3800 406.12,-3800 406.12,-3800 400.12,-3800 394.12,-3794 394.12,-3788 394.12,-3788 394.12,-2912 394.12,-2912 394.12,-2906 400.12,-2900 406.12,-2900"/>
<text text-anchor="middle" x="514.62" y="-3784.6" font-family="Helvetica,sans-Serif" font-weight="bold" font-size="12.00" fill="#495057">📁 hosts/homelab/services/media</text>
</g>
<g id="clust4" class="cluster">
<title>cluster_hosts_homelab_services_monitoring</title>
<path fill="#e9ecef" stroke="#adb5bd" d="M390,-2282C390,-2282 639.25,-2282 639.25,-2282 645.25,-2282 651.25,-2288 651.25,-2294 651.25,-2294 651.25,-2880 651.25,-2880 651.25,-2886 645.25,-2892 639.25,-2892 639.25,-2892 390,-2892 390,-2892 384,-2892 378,-2886 378,-2880 378,-2880 378,-2294 378,-2294 378,-2288 384,-2282 390,-2282"/>
<text text-anchor="middle" x="514.62" y="-2876.6" font-family="Helvetica,sans-Serif" font-weight="bold" font-size="12.00" fill="#495057">📁 hosts/homelab/services/monitoring</text>
</g>
<g id="clust5" class="cluster">
<title>cluster_hosts_homelab_services_random</title>
<path fill="#e9ecef" stroke="#adb5bd" d="M400.88,-1432C400.88,-1432 628.38,-1432 628.38,-1432 634.38,-1432 640.38,-1438 640.38,-1444 640.38,-1444 640.38,-2262 640.38,-2262 640.38,-2268 634.38,-2274 628.38,-2274 628.38,-2274 400.88,-2274 400.88,-2274 394.88,-2274 388.88,-2268 388.88,-2262 388.88,-2262 388.88,-1444 388.88,-1444 388.88,-1438 394.88,-1432 400.88,-1432"/>
<text text-anchor="middle" x="514.62" y="-2258.6" font-family="Helvetica,sans-Serif" font-weight="bold" font-size="12.00" fill="#495057">📁 hosts/homelab/services/random</text>
</g>
<g id="clust6" class="cluster">
<title>cluster_hosts_homelab_services_security</title>
<path fill="#e9ecef" stroke="#adb5bd" d="M399.75,-1046C399.75,-1046 629.5,-1046 629.5,-1046 635.5,-1046 641.5,-1052 641.5,-1058 641.5,-1058 641.5,-1412 641.5,-1412 641.5,-1418 635.5,-1424 629.5,-1424 629.5,-1424 399.75,-1424 399.75,-1424 393.75,-1424 387.75,-1418 387.75,-1412 387.75,-1412 387.75,-1058 387.75,-1058 387.75,-1052 393.75,-1046 399.75,-1046"/>
<text text-anchor="middle" x="514.62" y="-1408.6" font-family="Helvetica,sans-Serif" font-weight="bold" font-size="12.00" fill="#495057">📁 hosts/homelab/services/security</text>
</g>
<g id="clust7" class="cluster">
<title>cluster_hosts_perso</title>
<path fill="#e9ecef" stroke="#adb5bd" d="M166.38,-296C166.38,-296 589.62,-296 589.62,-296 595.62,-296 601.62,-302 601.62,-308 601.62,-308 601.62,-372 601.62,-372 601.62,-378 595.62,-384 589.62,-384 589.62,-384 166.38,-384 166.38,-384 160.38,-384 154.38,-378 154.38,-372 154.38,-372 154.38,-308 154.38,-308 154.38,-302 160.38,-296 166.38,-296"/>
<text text-anchor="middle" x="378" y="-368.6" font-family="Helvetica,sans-Serif" font-weight="bold" font-size="12.00" fill="#495057">📁 hosts/perso</text>
</g>
<g id="clust8" class="cluster">
<title>cluster_hosts_portable</title>
<path fill="#e9ecef" stroke="#adb5bd" d="M166.38,-8C166.38,-8 589.62,-8 589.62,-8 595.62,-8 601.62,-14 601.62,-20 601.62,-20 601.62,-84 601.62,-84 601.62,-90 595.62,-96 589.62,-96 589.62,-96 166.38,-96 166.38,-96 160.38,-96 154.38,-90 154.38,-84 154.38,-84 154.38,-20 154.38,-20 154.38,-14 160.38,-8 166.38,-8"/>
<text text-anchor="middle" x="378" y="-80.6" font-family="Helvetica,sans-Serif" font-weight="bold" font-size="12.00" fill="#495057">📁 hosts/portable</text>
</g>
<g id="clust9" class="cluster">
<title>cluster_modules_dev</title>
<path fill="#e9ecef" stroke="#adb5bd" d="M466.12,-546C466.12,-546 563.12,-546 563.12,-546 569.12,-546 575.12,-552 575.12,-558 575.12,-558 575.12,-622 575.12,-622 575.12,-628 569.12,-634 563.12,-634 563.12,-634 466.12,-634 466.12,-634 460.12,-634 454.12,-628 454.12,-622 454.12,-622 454.12,-558 454.12,-558 454.12,-552 460.12,-546 466.12,-546"/>
<text text-anchor="middle" x="514.62" y="-618.6" font-family="Helvetica,sans-Serif" font-weight="bold" font-size="12.00" fill="#495057">📁 modules/dev</text>
</g>
<g id="clust10" class="cluster">
<title>cluster_modules_gaming</title>
<path fill="#e9ecef" stroke="#adb5bd" d="M453.38,-392C453.38,-392 575.88,-392 575.88,-392 581.88,-392 587.88,-398 587.88,-404 587.88,-404 587.88,-526 587.88,-526 587.88,-532 581.88,-538 575.88,-538 575.88,-538 453.38,-538 453.38,-538 447.38,-538 441.38,-532 441.38,-526 441.38,-526 441.38,-404 441.38,-404 441.38,-398 447.38,-392 453.38,-392"/>
<text text-anchor="middle" x="514.62" y="-522.6" font-family="Helvetica,sans-Serif" font-weight="bold" font-size="12.00" fill="#495057">📁 modules/gaming</text>
</g>
<g id="clust11" class="cluster">
<title>cluster_modules_hyprland</title>
<path fill="#e9ecef" stroke="#adb5bd" d="M448.88,-104C448.88,-104 580.38,-104 580.38,-104 586.38,-104 592.38,-110 592.38,-116 592.38,-116 592.38,-180 592.38,-180 592.38,-186 586.38,-192 580.38,-192 580.38,-192 448.88,-192 448.88,-192 442.88,-192 436.88,-186 436.88,-180 436.88,-180 436.88,-116 436.88,-116 436.88,-110 442.88,-104 448.88,-104"/>
<text text-anchor="middle" x="514.62" y="-176.6" font-family="Helvetica,sans-Serif" font-weight="bold" font-size="12.00" fill="#495057">📁 modules/hyprland</text>
</g>
<g id="clust12" class="cluster">
<title>cluster_modules_nixos</title>
<path fill="#e9ecef" stroke="#adb5bd" d="M473.88,-738C473.88,-738 842.5,-738 842.5,-738 848.5,-738 854.5,-744 854.5,-750 854.5,-750 854.5,-930 854.5,-930 854.5,-936 848.5,-942 842.5,-942 842.5,-942 473.88,-942 473.88,-942 467.88,-942 461.88,-936 461.88,-930 461.88,-930 461.88,-750 461.88,-750 461.88,-744 467.88,-738 473.88,-738"/>
<text text-anchor="middle" x="658.19" y="-926.6" font-family="Helvetica,sans-Serif" font-weight="bold" font-size="12.00" fill="#495057">📁 modules/nixos</text>
</g>
<g id="clust13" class="cluster">
<title>cluster_modules_terminal</title>
<path fill="#e9ecef" stroke="#adb5bd" d="M449.62,-642C449.62,-642 579.62,-642 579.62,-642 585.62,-642 591.62,-648 591.62,-654 591.62,-654 591.62,-718 591.62,-718 591.62,-724 585.62,-730 579.62,-730 579.62,-730 449.62,-730 449.62,-730 443.62,-730 437.62,-724 437.62,-718 437.62,-718 437.62,-654 437.62,-654 437.62,-648 443.62,-642 449.62,-642"/>
<text text-anchor="middle" x="514.62" y="-714.6" font-family="Helvetica,sans-Serif" font-weight="bold" font-size="12.00" fill="#495057">📁 modules/terminal</text>
</g>
<g id="clust14" class="cluster">
<title>cluster_users_arthur_homelab</title>
<path fill="#e9ecef" stroke="#adb5bd" d="M472.75,-950C472.75,-950 819.62,-950 819.62,-950 825.62,-950 831.62,-956 831.62,-962 831.62,-962 831.62,-1026 831.62,-1026 831.62,-1032 825.62,-1038 819.62,-1038 819.62,-1038 472.75,-1038 472.75,-1038 466.75,-1038 460.75,-1032 460.75,-1026 460.75,-1026 460.75,-962 460.75,-962 460.75,-956 466.75,-950 472.75,-950"/>
<text text-anchor="middle" x="646.19" y="-1022.6" font-family="Helvetica,sans-Serif" font-weight="bold" font-size="12.00" fill="#495057">📁 users/arthur&#45;homelab</text>
</g>
<g id="clust15" class="cluster">
<title>cluster_users_arthur_perso</title>
<path fill="#e9ecef" stroke="#adb5bd" d="M472.75,-200C472.75,-200 819.62,-200 819.62,-200 825.62,-200 831.62,-206 831.62,-212 831.62,-212 831.62,-276 831.62,-276 831.62,-282 825.62,-288 819.62,-288 819.62,-288 472.75,-288 472.75,-288 466.75,-288 460.75,-282 460.75,-276 460.75,-276 460.75,-212 460.75,-212 460.75,-206 466.75,-200 472.75,-200"/>
<text text-anchor="middle" x="646.19" y="-272.6" font-family="Helvetica,sans-Serif" font-weight="bold" font-size="12.00" fill="#495057">📁 users/arthur&#45;perso</text>
</g>
<!-- N0 -->
<g id="node1" class="node">
<title>N0</title>
<path fill="#f8f9fa" stroke="#ced4da" d="M55.75,-3859C55.75,-3859 12,-3859 12,-3859 6,-3859 0,-3853 0,-3847 0,-3847 0,-3835 0,-3835 0,-3829 6,-3823 12,-3823 12,-3823 55.75,-3823 55.75,-3823 61.75,-3823 67.75,-3829 67.75,-3835 67.75,-3835 67.75,-3847 67.75,-3847 67.75,-3853 61.75,-3859 55.75,-3859"/>
<text text-anchor="middle" x="33.88" y="-3839" font-family="Helvetica,Arial,sans-serif" font-size="10.00" fill="#212529">📄 flake.nix</text>
</g>
<!-- N1 -->
<g id="node2" class="node">
<title>N1</title>
<path fill="#f8f9fa" stroke="#ced4da" d="M247.25,-4013C247.25,-4013 194.5,-4013 194.5,-4013 188.5,-4013 182.5,-4007 182.5,-4001 182.5,-4001 182.5,-3989 182.5,-3989 182.5,-3983 188.5,-3977 194.5,-3977 194.5,-3977 247.25,-3977 247.25,-3977 253.25,-3977 259.25,-3983 259.25,-3989 259.25,-3989 259.25,-4001 259.25,-4001 259.25,-4007 253.25,-4013 247.25,-4013"/>
<text text-anchor="middle" x="220.88" y="-3993" font-family="Helvetica,Arial,sans-serif" font-size="10.00" fill="#212529">📄 default.nix</text>
</g>
<!-- N0&#45;&gt;N1 -->
<g id="edge1" class="edge">
<title>N0&#45;&gt;N1</title>
<path fill="none" stroke="#6c757d" d="M51.11,-3859.44C80.32,-3892.62 138.75,-3959 138.75,-3959 138.75,-3959 156.07,-3966.69 174.71,-3974.96"/>
<polygon fill="#6c757d" stroke="#6c757d" points="173.39,-3977.05 180.78,-3977.65 175.37,-3972.57 173.39,-3977.05"/>
</g>
<!-- N2 -->
<g id="node3" class="node">
<title>N2</title>
<path fill="#f8f9fa" stroke="#ced4da" d="M260.38,-3859C260.38,-3859 181.38,-3859 181.38,-3859 175.38,-3859 169.38,-3853 169.38,-3847 169.38,-3847 169.38,-3835 169.38,-3835 169.38,-3829 175.38,-3823 181.38,-3823 181.38,-3823 260.38,-3823 260.38,-3823 266.38,-3823 272.38,-3829 272.38,-3835 272.38,-3835 272.38,-3847 272.38,-3847 272.38,-3853 266.38,-3859 260.38,-3859"/>
<text text-anchor="middle" x="220.88" y="-3839" font-family="Helvetica,Arial,sans-serif" font-size="10.00" fill="#212529">📄 configuration.nix</text>
</g>
<!-- N0&#45;&gt;N2 -->
<g id="edge2" class="edge">
<title>N0&#45;&gt;N2</title>
<path fill="none" stroke="#6c757d" d="M67.95,-3841C93.6,-3841 129.82,-3841 160.46,-3841"/>
<polygon fill="#6c757d" stroke="#6c757d" points="160.43,-3843.45 167.43,-3841 160.43,-3838.55 160.43,-3843.45"/>
</g>
<!-- N3 -->
<g id="node4" class="node">
<title>N3</title>
<path fill="#f8f9fa" stroke="#ced4da" d="M254,-3917C254,-3917 187.75,-3917 187.75,-3917 181.75,-3917 175.75,-3911 175.75,-3905 175.75,-3905 175.75,-3893 175.75,-3893 175.75,-3887 181.75,-3881 187.75,-3881 187.75,-3881 254,-3881 254,-3881 260,-3881 266,-3887 266,-3893 266,-3893 266,-3905 266,-3905 266,-3911 260,-3917 254,-3917"/>
<text text-anchor="middle" x="220.88" y="-3897" font-family="Helvetica,Arial,sans-serif" font-size="10.00" fill="#212529">📄 constants.nix</text>
</g>
<!-- N0&#45;&gt;N3 -->
<g id="edge3" class="edge">
<title>N0&#45;&gt;N3</title>
<path fill="none" stroke="#6c757d" d="M67.95,-3851.37C95.54,-3860.02 135.37,-3872.51 167.33,-3882.53"/>
<polygon fill="#6c757d" stroke="#6c757d" points="166.41,-3884.81 173.82,-3884.56 167.88,-3880.13 166.41,-3884.81"/>
</g>
<!-- N50 -->
<g id="node51" class="node">
<title>N50</title>
<path fill="#f8f9fa" stroke="#ced4da" d="M260.38,-347C260.38,-347 181.38,-347 181.38,-347 175.38,-347 169.38,-341 169.38,-335 169.38,-335 169.38,-323 169.38,-323 169.38,-317 175.38,-311 181.38,-311 181.38,-311 260.38,-311 260.38,-311 266.38,-311 272.38,-317 272.38,-323 272.38,-323 272.38,-335 272.38,-335 272.38,-341 266.38,-347 260.38,-347"/>
<text text-anchor="middle" x="220.88" y="-327" font-family="Helvetica,Arial,sans-serif" font-size="10.00" fill="#212529">📄 configuration.nix</text>
</g>
<!-- N0&#45;&gt;N50 -->
<g id="edge4" class="edge">
<title>N0&#45;&gt;N50</title>
<path fill="none" stroke="#6c757d" d="M35.85,-3822.53C49.49,-3563.53 202.24,-663.77 218.48,-355.49"/>
<polygon fill="#6c757d" stroke="#6c757d" points="220.92,-355.76 218.84,-348.64 216.03,-355.5 220.92,-355.76"/>
</g>
<!-- N52 -->
<g id="node53" class="node">
<title>N52</title>
<path fill="#f8f9fa" stroke="#ced4da" d="M260.38,-59C260.38,-59 181.38,-59 181.38,-59 175.38,-59 169.38,-53 169.38,-47 169.38,-47 169.38,-35 169.38,-35 169.38,-29 175.38,-23 181.38,-23 181.38,-23 260.38,-23 260.38,-23 266.38,-23 272.38,-29 272.38,-35 272.38,-35 272.38,-47 272.38,-47 272.38,-53 266.38,-59 260.38,-59"/>
<text text-anchor="middle" x="220.88" y="-39" font-family="Helvetica,Arial,sans-serif" font-size="10.00" fill="#212529">📄 configuration.nix</text>
</g>
<!-- N0&#45;&gt;N52 -->
<g id="edge5" class="edge">
<title>N0&#45;&gt;N52</title>
<path fill="none" stroke="#6c757d" d="M35.41,-3822.75C43.42,-3549.12 138.75,-291 138.75,-291 138.75,-291 190.43,-131.74 211.29,-67.45"/>
<polygon fill="#6c757d" stroke="#6c757d" points="213.61,-68.24 213.44,-60.82 208.95,-66.72 213.61,-68.24"/>
</g>
<!-- N4 -->
<g id="node5" class="node">
<title>N4</title>
<path fill="#f8f9fa" stroke="#ced4da" d="M574.62,-3859C574.62,-3859 453.62,-3859 453.62,-3859 447.62,-3859 441.62,-3853 441.62,-3847 441.62,-3847 441.62,-3835 441.62,-3835 441.62,-3829 447.62,-3823 453.62,-3823 453.62,-3823 574.62,-3823 574.62,-3823 580.62,-3823 586.62,-3829 586.62,-3835 586.62,-3835 586.62,-3847 586.62,-3847 586.62,-3853 580.62,-3859 574.62,-3859"/>
<text text-anchor="middle" x="514.12" y="-3839" font-family="Helvetica,Arial,sans-serif" font-size="10.00" fill="#212529">📄 hardware&#45;configuration.nix</text>
</g>
<!-- N2&#45;&gt;N4 -->
<g id="edge6" class="edge">
<title>N2&#45;&gt;N4</title>
<path fill="none" stroke="#6c757d" d="M272.61,-3841C316.76,-3841 381.53,-3841 432.73,-3841"/>
<polygon fill="#6c757d" stroke="#6c757d" points="432.64,-3843.45 439.64,-3841 432.64,-3838.55 432.64,-3843.45"/>
</g>
<!-- N5 -->
<g id="node6" class="node">
<title>N5</title>
<path fill="#f8f9fa" stroke="#ced4da" d="M539,-3183C539,-3183 489.25,-3183 489.25,-3183 483.25,-3183 477.25,-3177 477.25,-3171 477.25,-3171 477.25,-3159 477.25,-3159 477.25,-3153 483.25,-3147 489.25,-3147 489.25,-3147 539,-3147 539,-3147 545,-3147 551,-3153 551,-3159 551,-3159 551,-3171 551,-3171 551,-3177 545,-3183 539,-3183"/>
<text text-anchor="middle" x="514.12" y="-3163" font-family="Helvetica,Arial,sans-serif" font-size="10.00" fill="#212529">📄 ariang.nix</text>
</g>
<!-- N2&#45;&gt;N5 -->
<g id="edge7" class="edge">
<title>N2&#45;&gt;N5</title>
<path fill="none" stroke="#6c757d" d="M226.3,-3822.68C251.7,-3717.39 378,-3194 378,-3194 378,-3194 429.33,-3182.98 468.71,-3174.53"/>
<polygon fill="#6c757d" stroke="#6c757d" points="469.1,-3176.95 475.43,-3173.09 468.08,-3172.16 469.1,-3176.95"/>
</g>
<!-- N6 -->
<g id="node7" class="node">
<title>N6</title>
<path fill="#f8f9fa" stroke="#ced4da" d="M539.38,-3241C539.38,-3241 488.88,-3241 488.88,-3241 482.88,-3241 476.88,-3235 476.88,-3229 476.88,-3229 476.88,-3217 476.88,-3217 476.88,-3211 482.88,-3205 488.88,-3205 488.88,-3205 539.38,-3205 539.38,-3205 545.38,-3205 551.38,-3211 551.38,-3217 551.38,-3217 551.38,-3229 551.38,-3229 551.38,-3235 545.38,-3241 539.38,-3241"/>
<text text-anchor="middle" x="514.12" y="-3221" font-family="Helvetica,Arial,sans-serif" font-size="10.00" fill="#212529">📄 byparr.nix</text>
</g>
<!-- N2&#45;&gt;N6 -->
<g id="edge8" class="edge">
<title>N2&#45;&gt;N6</title>
<path fill="none" stroke="#6c757d" d="M226.72,-3822.73C253.07,-3723.31 378,-3252 378,-3252 378,-3252 429.02,-3241.05 468.36,-3232.61"/>
<polygon fill="#6c757d" stroke="#6c757d" points="468.75,-3235.03 475.08,-3231.17 467.72,-3230.24 468.75,-3235.03"/>
</g>
<!-- N7 -->
<g id="node8" class="node">
<title>N7</title>
<path fill="#f8f9fa" stroke="#ced4da" d="M548.38,-3299C548.38,-3299 479.88,-3299 479.88,-3299 473.88,-3299 467.88,-3293 467.88,-3287 467.88,-3287 467.88,-3275 467.88,-3275 467.88,-3269 473.88,-3263 479.88,-3263 479.88,-3263 548.38,-3263 548.38,-3263 554.38,-3263 560.38,-3269 560.38,-3275 560.38,-3275 560.38,-3287 560.38,-3287 560.38,-3293 554.38,-3299 548.38,-3299"/>
<text text-anchor="middle" x="514.12" y="-3279" font-family="Helvetica,Arial,sans-serif" font-size="10.00" fill="#212529">📄 cleanuparr.nix</text>
</g>
<!-- N2&#45;&gt;N7 -->
<g id="edge9" class="edge">
<title>N2&#45;&gt;N7</title>
<path fill="none" stroke="#6c757d" d="M227.25,-3822.72C254.7,-3729.35 378,-3310 378,-3310 378,-3310 421.73,-3300.61 459.44,-3292.52"/>
<polygon fill="#6c757d" stroke="#6c757d" points="459.57,-3295 465.9,-3291.14 458.54,-3290.21 459.57,-3295"/>
</g>
<!-- N8 -->
<g id="node9" class="node">
<title>N8</title>
<path fill="#f8f9fa" stroke="#ced4da" d="M569.75,-3357C569.75,-3357 458.5,-3357 458.5,-3357 452.5,-3357 446.5,-3351 446.5,-3345 446.5,-3345 446.5,-3333 446.5,-3333 446.5,-3327 452.5,-3321 458.5,-3321 458.5,-3321 569.75,-3321 569.75,-3321 575.75,-3321 581.75,-3327 581.75,-3333 581.75,-3333 581.75,-3345 581.75,-3345 581.75,-3351 575.75,-3357 569.75,-3357"/>
<text text-anchor="middle" x="514.12" y="-3337" font-family="Helvetica,Arial,sans-serif" font-size="10.00" fill="#212529">📄 filebrowser&#45;quantum.nix</text>
</g>
<!-- N2&#45;&gt;N8 -->
<g id="edge10" class="edge">
<title>N2&#45;&gt;N8</title>
<path fill="none" stroke="#6c757d" d="M227.9,-3822.75C256.59,-3735.82 378,-3368 378,-3368 378,-3368 407.16,-3361.74 438.39,-3355.04"/>
<polygon fill="#6c757d" stroke="#6c757d" points="438.54,-3357.51 444.87,-3353.65 437.52,-3352.72 438.54,-3357.51"/>
</g>
<!-- N9 -->
<g id="node10" class="node">
<title>N9</title>
<path fill="#f8f9fa" stroke="#ced4da" d="M541.62,-3415C541.62,-3415 486.62,-3415 486.62,-3415 480.62,-3415 474.62,-3409 474.62,-3403 474.62,-3403 474.62,-3391 474.62,-3391 474.62,-3385 480.62,-3379 486.62,-3379 486.62,-3379 541.62,-3379 541.62,-3379 547.62,-3379 553.62,-3385 553.62,-3391 553.62,-3391 553.62,-3403 553.62,-3403 553.62,-3409 547.62,-3415 541.62,-3415"/>
<text text-anchor="middle" x="514.12" y="-3395" font-family="Helvetica,Arial,sans-serif" font-size="10.00" fill="#212529">📄 immich.nix</text>
</g>
<!-- N2&#45;&gt;N9 -->
<g id="edge11" class="edge">
<title>N2&#45;&gt;N9</title>
<path fill="none" stroke="#6c757d" d="M228.78,-3822.63C259,-3742.32 378,-3426 378,-3426 378,-3426 427.22,-3415.44 466.25,-3407.06"/>
<polygon fill="#6c757d" stroke="#6c757d" points="466.59,-3409.49 472.92,-3405.63 465.57,-3404.7 466.59,-3409.49"/>
</g>
<!-- N10 -->
<g id="node11" class="node">
<title>N10</title>
<path fill="#f8f9fa" stroke="#ced4da" d="M539.75,-3473C539.75,-3473 488.5,-3473 488.5,-3473 482.5,-3473 476.5,-3467 476.5,-3461 476.5,-3461 476.5,-3449 476.5,-3449 476.5,-3443 482.5,-3437 488.5,-3437 488.5,-3437 539.75,-3437 539.75,-3437 545.75,-3437 551.75,-3443 551.75,-3449 551.75,-3449 551.75,-3461 551.75,-3461 551.75,-3467 545.75,-3473 539.75,-3473"/>
<text text-anchor="middle" x="514.12" y="-3453" font-family="Helvetica,Arial,sans-serif" font-size="10.00" fill="#212529">📄 jellyfin.nix</text>
</g>
<!-- N2&#45;&gt;N10 -->
<g id="edge12" class="edge">
<title>N2&#45;&gt;N10</title>
<path fill="none" stroke="#6c757d" d="M229.83,-3822.81C261.65,-3750.06 378,-3484 378,-3484 378,-3484 428.72,-3473.11 468.01,-3464.68"/>
<polygon fill="#6c757d" stroke="#6c757d" points="468.39,-3467.11 474.72,-3463.24 467.36,-3462.32 468.39,-3467.11"/>
</g>
<!-- N11 -->
<g id="node12" class="node">
<title>N11</title>
<path fill="#f8f9fa" stroke="#ced4da" d="M540.12,-3531C540.12,-3531 488.12,-3531 488.12,-3531 482.12,-3531 476.12,-3525 476.12,-3519 476.12,-3519 476.12,-3507 476.12,-3507 476.12,-3501 482.12,-3495 488.12,-3495 488.12,-3495 540.12,-3495 540.12,-3495 546.12,-3495 552.12,-3501 552.12,-3507 552.12,-3507 552.12,-3519 552.12,-3519 552.12,-3525 546.12,-3531 540.12,-3531"/>
<text text-anchor="middle" x="514.12" y="-3511" font-family="Helvetica,Arial,sans-serif" font-size="10.00" fill="#212529">📄 komga.nix</text>
</g>
<!-- N2&#45;&gt;N11 -->
<g id="edge13" class="edge">
<title>N2&#45;&gt;N11</title>
<path fill="none" stroke="#6c757d" d="M231.41,-3822.75C265.3,-3757.83 378,-3542 378,-3542 378,-3542 428.42,-3531.18 467.66,-3522.76"/>
<polygon fill="#6c757d" stroke="#6c757d" points="468.03,-3525.18 474.36,-3521.32 467.01,-3520.39 468.03,-3525.18"/>
</g>
<!-- N12 -->
<g id="node13" class="node">
<title>N12</title>
<path fill="#f8f9fa" stroke="#ced4da" d="M546.12,-3589C546.12,-3589 482.12,-3589 482.12,-3589 476.12,-3589 470.12,-3583 470.12,-3577 470.12,-3577 470.12,-3565 470.12,-3565 470.12,-3559 476.12,-3553 482.12,-3553 482.12,-3553 546.12,-3553 546.12,-3553 552.12,-3553 558.12,-3559 558.12,-3565 558.12,-3565 558.12,-3577 558.12,-3577 558.12,-3583 552.12,-3589 546.12,-3589"/>
<text text-anchor="middle" x="514.12" y="-3569" font-family="Helvetica,Arial,sans-serif" font-size="10.00" fill="#212529">📄 onlyoffice.nix</text>
</g>
<!-- N2&#45;&gt;N12 -->
<g id="edge14" class="edge">
<title>N2&#45;&gt;N12</title>
<path fill="none" stroke="#6c757d" d="M233.61,-3822.89C269.92,-3766.84 378,-3600 378,-3600 378,-3600 423.43,-3590.25 461.61,-3582.06"/>
<polygon fill="#6c757d" stroke="#6c757d" points="461.82,-3584.52 468.15,-3580.65 460.79,-3579.73 461.82,-3584.52"/>
</g>
<!-- N13 -->
<g id="node14" class="node">
<title>N13</title>
<path fill="#f8f9fa" stroke="#ced4da" d="M543.12,-3647C543.12,-3647 485.12,-3647 485.12,-3647 479.12,-3647 473.12,-3641 473.12,-3635 473.12,-3635 473.12,-3623 473.12,-3623 473.12,-3617 479.12,-3611 485.12,-3611 485.12,-3611 543.12,-3611 543.12,-3611 549.12,-3611 555.12,-3617 555.12,-3623 555.12,-3623 555.12,-3635 555.12,-3635 555.12,-3641 549.12,-3647 543.12,-3647"/>
<text text-anchor="middle" x="514.12" y="-3627" font-family="Helvetica,Arial,sans-serif" font-size="10.00" fill="#212529">📄 prowlarr.nix</text>
</g>
<!-- N2&#45;&gt;N13 -->
<g id="edge15" class="edge">
<title>N2&#45;&gt;N13</title>
<path fill="none" stroke="#6c757d" d="M237.42,-3822.78C276.91,-3776.5 378,-3658 378,-3658 378,-3658 426.04,-3647.69 464.83,-3639.36"/>
<polygon fill="#6c757d" stroke="#6c757d" points="465.14,-3641.8 471.47,-3637.94 464.11,-3637.01 465.14,-3641.8"/>
</g>
<!-- N14 -->
<g id="node15" class="node">
<title>N14</title>
<path fill="#f8f9fa" stroke="#ced4da" d="M547.62,-3705C547.62,-3705 480.62,-3705 480.62,-3705 474.62,-3705 468.62,-3699 468.62,-3693 468.62,-3693 468.62,-3681 468.62,-3681 468.62,-3675 474.62,-3669 480.62,-3669 480.62,-3669 547.62,-3669 547.62,-3669 553.62,-3669 559.62,-3675 559.62,-3681 559.62,-3681 559.62,-3693 559.62,-3693 559.62,-3699 553.62,-3705 547.62,-3705"/>
<text text-anchor="middle" x="514.12" y="-3685" font-family="Helvetica,Arial,sans-serif" font-size="10.00" fill="#212529">📄 qbittorrent.nix</text>
</g>
<!-- N2&#45;&gt;N14 -->
<g id="edge16" class="edge">
<title>N2&#45;&gt;N14</title>
<path fill="none" stroke="#6c757d" d="M244.91,-3822.56C288.34,-3787.78 378,-3716 378,-3716 378,-3716 422.3,-3706.49 460.17,-3698.37"/>
<polygon fill="#6c757d" stroke="#6c757d" points="460.32,-3700.84 466.65,-3696.97 459.29,-3696.05 460.32,-3700.84"/>
</g>
<!-- N15 -->
<g id="node16" class="node">
<title>N15</title>
<path fill="#f8f9fa" stroke="#ced4da" d="M544.25,-3763C544.25,-3763 484,-3763 484,-3763 478,-3763 472,-3757 472,-3751 472,-3751 472,-3739 472,-3739 472,-3733 478,-3727 484,-3727 484,-3727 544.25,-3727 544.25,-3727 550.25,-3727 556.25,-3733 556.25,-3739 556.25,-3739 556.25,-3751 556.25,-3751 556.25,-3757 550.25,-3763 544.25,-3763"/>
<text text-anchor="middle" x="514.12" y="-3743" font-family="Helvetica,Arial,sans-serif" font-size="10.00" fill="#212529">📄 recyclarr.nix</text>
</g>
<!-- N2&#45;&gt;N15 -->
<g id="edge17" class="edge">
<title>N2&#45;&gt;N15</title>
<path fill="none" stroke="#6c757d" d="M272.61,-3824.28C326.4,-3806.55 410.79,-3778.73 463.97,-3761.2"/>
<polygon fill="#6c757d" stroke="#6c757d" points="464.59,-3763.58 470.47,-3759.06 463.06,-3758.92 464.59,-3763.58"/>
</g>
<!-- N16 -->
<g id="node17" class="node">
<title>N16</title>
<path fill="#f8f9fa" stroke="#ced4da" d="M535.25,-2951C535.25,-2951 493,-2951 493,-2951 487,-2951 481,-2945 481,-2939 481,-2939 481,-2927 481,-2927 481,-2921 487,-2915 493,-2915 493,-2915 535.25,-2915 535.25,-2915 541.25,-2915 547.25,-2921 547.25,-2927 547.25,-2927 547.25,-2939 547.25,-2939 547.25,-2945 541.25,-2951 535.25,-2951"/>
<text text-anchor="middle" x="514.12" y="-2931" font-family="Helvetica,Arial,sans-serif" font-size="10.00" fill="#212529">📄 seer.nix</text>
</g>
<!-- N2&#45;&gt;N16 -->
<g id="edge18" class="edge">
<title>N2&#45;&gt;N16</title>
<path fill="none" stroke="#6c757d" d="M225.14,-3822.64C247.56,-3696.41 378,-2962 378,-2962 378,-2962 432.72,-2950.26 472.52,-2941.71"/>
<polygon fill="#6c757d" stroke="#6c757d" points="472.95,-2944.13 479.28,-2940.26 471.92,-2939.34 472.95,-2944.13"/>
</g>
<!-- N17 -->
<g id="node18" class="node">
<title>N17</title>
<path fill="#f8f9fa" stroke="#ced4da" d="M539.38,-3009C539.38,-3009 488.88,-3009 488.88,-3009 482.88,-3009 476.88,-3003 476.88,-2997 476.88,-2997 476.88,-2985 476.88,-2985 476.88,-2979 482.88,-2973 488.88,-2973 488.88,-2973 539.38,-2973 539.38,-2973 545.38,-2973 551.38,-2979 551.38,-2985 551.38,-2985 551.38,-2997 551.38,-2997 551.38,-3003 545.38,-3009 539.38,-3009"/>
<text text-anchor="middle" x="514.12" y="-2989" font-family="Helvetica,Arial,sans-serif" font-size="10.00" fill="#212529">📄 sonarr.nix</text>
</g>
<!-- N2&#45;&gt;N17 -->
<g id="edge19" class="edge">
<title>N2&#45;&gt;N17</title>
<path fill="none" stroke="#6c757d" d="M225.35,-3822.7C248.39,-3701.56 378,-3020 378,-3020 378,-3020 429.02,-3009.05 468.36,-3000.61"/>
<polygon fill="#6c757d" stroke="#6c757d" points="468.75,-3003.03 475.08,-2999.17 467.72,-2998.24 468.75,-3003.03"/>
</g>
<!-- N18 -->
<g id="node19" class="node">
<title>N18</title>
<path fill="#f8f9fa" stroke="#ced4da" d="M547.25,-3067C547.25,-3067 481,-3067 481,-3067 475,-3067 469,-3061 469,-3055 469,-3055 469,-3043 469,-3043 469,-3037 475,-3031 481,-3031 481,-3031 547.25,-3031 547.25,-3031 553.25,-3031 559.25,-3037 559.25,-3043 559.25,-3043 559.25,-3055 559.25,-3055 559.25,-3061 553.25,-3067 547.25,-3067"/>
<text text-anchor="middle" x="514.12" y="-3047" font-family="Helvetica,Arial,sans-serif" font-size="10.00" fill="#212529">📄 suwayomi.nix</text>
</g>
<!-- N2&#45;&gt;N18 -->
<g id="edge20" class="edge">
<title>N2&#45;&gt;N18</title>
<path fill="none" stroke="#6c757d" d="M225.66,-3822.52C249.5,-3705.99 378,-3078 378,-3078 378,-3078 422.58,-3068.43 460.53,-3060.29"/>
<polygon fill="#6c757d" stroke="#6c757d" points="460.7,-3062.76 467.03,-3058.89 459.67,-3057.97 460.7,-3062.76"/>
</g>
<!-- N19 -->
<g id="node20" class="node">
<title>N19</title>
<path fill="#f8f9fa" stroke="#ced4da" d="M539.38,-3125C539.38,-3125 488.88,-3125 488.88,-3125 482.88,-3125 476.88,-3119 476.88,-3113 476.88,-3113 476.88,-3101 476.88,-3101 476.88,-3095 482.88,-3089 488.88,-3089 488.88,-3089 539.38,-3089 539.38,-3089 545.38,-3089 551.38,-3095 551.38,-3101 551.38,-3101 551.38,-3113 551.38,-3113 551.38,-3119 545.38,-3125 539.38,-3125"/>
<text text-anchor="middle" x="514.12" y="-3105" font-family="Helvetica,Arial,sans-serif" font-size="10.00" fill="#212529">📄 tranga.nix</text>
</g>
<!-- N2&#45;&gt;N19 -->
<g id="edge21" class="edge">
<title>N2&#45;&gt;N19</title>
<path fill="none" stroke="#6c757d" d="M225.97,-3822.51C250.6,-3711.27 378,-3136 378,-3136 378,-3136 429.02,-3125.05 468.36,-3116.61"/>
<polygon fill="#6c757d" stroke="#6c757d" points="468.75,-3119.03 475.08,-3115.17 467.72,-3114.24 468.75,-3119.03"/>
</g>
<!-- N20 -->
<g id="node21" class="node">
<title>N20</title>
<path fill="#f8f9fa" stroke="#ced4da" d="M535.62,-2565C535.62,-2565 492.62,-2565 492.62,-2565 486.62,-2565 480.62,-2559 480.62,-2553 480.62,-2553 480.62,-2541 480.62,-2541 480.62,-2535 486.62,-2529 492.62,-2529 492.62,-2529 535.62,-2529 535.62,-2529 541.62,-2529 547.62,-2535 547.62,-2541 547.62,-2541 547.62,-2553 547.62,-2553 547.62,-2559 541.62,-2565 535.62,-2565"/>
<text text-anchor="middle" x="514.12" y="-2545" font-family="Helvetica,Arial,sans-serif" font-size="10.00" fill="#212529">📄 alloy.nix</text>
</g>
<!-- N2&#45;&gt;N20 -->
<g id="edge22" class="edge">
<title>N2&#45;&gt;N20</title>
<path fill="none" stroke="#6c757d" d="M224.14,-3822.63C243.34,-3667.07 378,-2576 378,-2576 378,-2576 432.41,-2564.32 472.18,-2555.79"/>
<polygon fill="#6c757d" stroke="#6c757d" points="472.61,-2558.2 478.94,-2554.34 471.58,-2553.41 472.61,-2558.2"/>
</g>
<!-- N21 -->
<g id="node22" class="node">
<title>N21</title>
<path fill="#f8f9fa" stroke="#ced4da" d="M547.25,-2623C547.25,-2623 481,-2623 481,-2623 475,-2623 469,-2617 469,-2611 469,-2611 469,-2599 469,-2599 469,-2593 475,-2587 481,-2587 481,-2587 547.25,-2587 547.25,-2587 553.25,-2587 559.25,-2593 559.25,-2599 559.25,-2599 559.25,-2611 559.25,-2611 559.25,-2617 553.25,-2623 547.25,-2623"/>
<text text-anchor="middle" x="514.12" y="-2603" font-family="Helvetica,Arial,sans-serif" font-size="10.00" fill="#212529">📄 borgmatic.nix</text>
</g>
<!-- N2&#45;&gt;N21 -->
<g id="edge23" class="edge">
<title>N2&#45;&gt;N21</title>
<path fill="none" stroke="#6c757d" d="M224.26,-3822.52C243.91,-3670.67 378,-2634 378,-2634 378,-2634 422.58,-2624.43 460.53,-2616.29"/>
<polygon fill="#6c757d" stroke="#6c757d" points="460.7,-2618.76 467.03,-2614.89 459.67,-2613.97 460.7,-2618.76"/>
</g>
<!-- N22 -->
<g id="node23" class="node">
<title>N22</title>
<path fill="#f8f9fa" stroke="#ced4da" d="M534.88,-2681C534.88,-2681 493.38,-2681 493.38,-2681 487.38,-2681 481.38,-2675 481.38,-2669 481.38,-2669 481.38,-2657 481.38,-2657 481.38,-2651 487.38,-2645 493.38,-2645 493.38,-2645 534.88,-2645 534.88,-2645 540.88,-2645 546.88,-2651 546.88,-2657 546.88,-2657 546.88,-2669 546.88,-2669 546.88,-2675 540.88,-2681 534.88,-2681"/>
<text text-anchor="middle" x="514.12" y="-2661" font-family="Helvetica,Arial,sans-serif" font-size="10.00" fill="#212529">📄 diun.nix</text>
</g>
<!-- N2&#45;&gt;N22 -->
<g id="edge24" class="edge">
<title>N2&#45;&gt;N22</title>
<path fill="none" stroke="#6c757d" d="M224.33,-3822.95C244.19,-3676.77 378,-2692 378,-2692 378,-2692 433.04,-2680.19 472.86,-2671.64"/>
<polygon fill="#6c757d" stroke="#6c757d" points="473.29,-2674.05 479.62,-2670.19 472.26,-2669.26 473.29,-2674.05"/>
</g>
<!-- N23 -->
<g id="node24" class="node">
<title>N23</title>
<path fill="#f8f9fa" stroke="#ced4da" d="M542,-2739C542,-2739 486.25,-2739 486.25,-2739 480.25,-2739 474.25,-2733 474.25,-2727 474.25,-2727 474.25,-2715 474.25,-2715 474.25,-2709 480.25,-2703 486.25,-2703 486.25,-2703 542,-2703 542,-2703 548,-2703 554,-2709 554,-2715 554,-2715 554,-2727 554,-2727 554,-2733 548,-2739 542,-2739"/>
<text text-anchor="middle" x="514.12" y="-2719" font-family="Helvetica,Arial,sans-serif" font-size="10.00" fill="#212529">📄 grafana.nix</text>
</g>
<!-- N2&#45;&gt;N23 -->
<g id="edge25" class="edge">
<title>N2&#45;&gt;N23</title>
<path fill="none" stroke="#6c757d" d="M224.52,-3822.52C245.04,-3679.16 378,-2750 378,-2750 378,-2750 426.93,-2739.5 465.9,-2731.14"/>
<polygon fill="#6c757d" stroke="#6c757d" points="466.23,-2733.57 472.56,-2729.71 465.2,-2728.78 466.23,-2733.57"/>
</g>
<!-- N24 -->
<g id="node25" class="node">
<title>N24</title>
<path fill="#f8f9fa" stroke="#ced4da" d="M533.38,-2797C533.38,-2797 494.88,-2797 494.88,-2797 488.88,-2797 482.88,-2791 482.88,-2785 482.88,-2785 482.88,-2773 482.88,-2773 482.88,-2767 488.88,-2761 494.88,-2761 494.88,-2761 533.38,-2761 533.38,-2761 539.38,-2761 545.38,-2767 545.38,-2773 545.38,-2773 545.38,-2785 545.38,-2785 545.38,-2791 539.38,-2797 533.38,-2797"/>
<text text-anchor="middle" x="514.12" y="-2777" font-family="Helvetica,Arial,sans-serif" font-size="10.00" fill="#212529">📄 loki.nix</text>
</g>
<!-- N2&#45;&gt;N24 -->
<g id="edge26" class="edge">
<title>N2&#45;&gt;N24</title>
<path fill="none" stroke="#6c757d" d="M224.65,-3822.63C245.6,-3684.04 378,-2808 378,-2808 378,-2808 434.3,-2795.92 474.22,-2787.35"/>
<polygon fill="#6c757d" stroke="#6c757d" points="474.65,-2789.76 480.98,-2785.9 473.62,-2784.97 474.65,-2789.76"/>
</g>
<!-- N25 -->
<g id="node26" class="node">
<title>N25</title>
<path fill="#f8f9fa" stroke="#ced4da" d="M542,-2855C542,-2855 486.25,-2855 486.25,-2855 480.25,-2855 474.25,-2849 474.25,-2843 474.25,-2843 474.25,-2831 474.25,-2831 474.25,-2825 480.25,-2819 486.25,-2819 486.25,-2819 542,-2819 542,-2819 548,-2819 554,-2825 554,-2831 554,-2831 554,-2843 554,-2843 554,-2849 548,-2855 542,-2855"/>
<text text-anchor="middle" x="514.12" y="-2835" font-family="Helvetica,Arial,sans-serif" font-size="10.00" fill="#212529">📄 netdata.nix</text>
</g>
<!-- N2&#45;&gt;N25 -->
<g id="edge27" class="edge">
<title>N2&#45;&gt;N25</title>
<path fill="none" stroke="#6c757d" d="M224.92,-3822.53C246.72,-3690.47 378,-2895 378,-2895 378,-2895 427.34,-2873.82 466.39,-2857.06"/>
<polygon fill="#6c757d" stroke="#6c757d" points="467.18,-2859.39 472.65,-2854.37 465.25,-2854.88 467.18,-2859.39"/>
</g>
<!-- N26 -->
<g id="node27" class="node">
<title>N26</title>
<path fill="#f8f9fa" stroke="#ced4da" d="M556.25,-2333C556.25,-2333 472,-2333 472,-2333 466,-2333 460,-2327 460,-2321 460,-2321 460,-2309 460,-2309 460,-2303 466,-2297 472,-2297 472,-2297 556.25,-2297 556.25,-2297 562.25,-2297 568.25,-2303 568.25,-2309 568.25,-2309 568.25,-2321 568.25,-2321 568.25,-2327 562.25,-2333 556.25,-2333"/>
<text text-anchor="middle" x="514.12" y="-2313" font-family="Helvetica,Arial,sans-serif" font-size="10.00" fill="#212529">📄 power&#45;monitor.nix</text>
</g>
<!-- N2&#45;&gt;N26 -->
<g id="edge28" class="edge">
<title>N2&#45;&gt;N26</title>
<path fill="none" stroke="#6c757d" d="M223.79,-3822.61C241.64,-3651.51 378,-2344 378,-2344 378,-2344 415.99,-2335.85 451.68,-2328.19"/>
<polygon fill="#6c757d" stroke="#6c757d" points="451.91,-2330.64 458.24,-2326.78 450.88,-2325.85 451.91,-2330.64"/>
</g>
<!-- N27 -->
<g id="node28" class="node">
<title>N27</title>
<path fill="#f8f9fa" stroke="#ced4da" d="M551.38,-2391C551.38,-2391 476.88,-2391 476.88,-2391 470.88,-2391 464.88,-2385 464.88,-2379 464.88,-2379 464.88,-2367 464.88,-2367 464.88,-2361 470.88,-2355 476.88,-2355 476.88,-2355 551.38,-2355 551.38,-2355 557.38,-2355 563.38,-2361 563.38,-2367 563.38,-2367 563.38,-2379 563.38,-2379 563.38,-2385 557.38,-2391 551.38,-2391"/>
<text text-anchor="middle" x="514.12" y="-2371" font-family="Helvetica,Arial,sans-serif" font-size="10.00" fill="#212529">📄 prometheus.nix</text>
</g>
<!-- N2&#45;&gt;N27 -->
<g id="edge29" class="edge">
<title>N2&#45;&gt;N27</title>
<path fill="none" stroke="#6c757d" d="M223.88,-3822.54C242.06,-3654.92 378,-2402 378,-2402 378,-2402 419.44,-2393.11 456.43,-2385.17"/>
<polygon fill="#6c757d" stroke="#6c757d" points="456.91,-2387.57 463.24,-2383.71 455.89,-2382.78 456.91,-2387.57"/>
</g>
<!-- N28 -->
<g id="node29" class="node">
<title>N28</title>
<path fill="#f8f9fa" stroke="#ced4da" d="M542.75,-2449C542.75,-2449 485.5,-2449 485.5,-2449 479.5,-2449 473.5,-2443 473.5,-2437 473.5,-2437 473.5,-2425 473.5,-2425 473.5,-2419 479.5,-2413 485.5,-2413 485.5,-2413 542.75,-2413 542.75,-2413 548.75,-2413 554.75,-2419 554.75,-2425 554.75,-2425 554.75,-2437 554.75,-2437 554.75,-2443 548.75,-2449 542.75,-2449"/>
<text text-anchor="middle" x="514.12" y="-2429" font-family="Helvetica,Arial,sans-serif" font-size="10.00" fill="#212529">📄 scrutiny.nix</text>
</g>
<!-- N2&#45;&gt;N28 -->
<g id="edge30" class="edge">
<title>N2&#45;&gt;N28</title>
<path fill="none" stroke="#6c757d" d="M223.96,-3822.52C242.49,-3658.64 378,-2460 378,-2460 378,-2460 426.33,-2449.63 465.19,-2441.29"/>
<polygon fill="#6c757d" stroke="#6c757d" points="465.5,-2443.73 471.83,-2439.86 464.48,-2438.94 465.5,-2443.73"/>
</g>
<!-- N29 -->
<g id="node30" class="node">
<title>N29</title>
<path fill="#f8f9fa" stroke="#ced4da" d="M554,-2507C554,-2507 474.25,-2507 474.25,-2507 468.25,-2507 462.25,-2501 462.25,-2495 462.25,-2495 462.25,-2483 462.25,-2483 462.25,-2477 468.25,-2471 474.25,-2471 474.25,-2471 554,-2471 554,-2471 560,-2471 566,-2477 566,-2483 566,-2483 566,-2495 566,-2495 566,-2501 560,-2507 554,-2507"/>
<text text-anchor="middle" x="514.12" y="-2487" font-family="Helvetica,Arial,sans-serif" font-size="10.00" fill="#212529">📄 uptime&#45;kuma.nix</text>
</g>
<!-- N2&#45;&gt;N29 -->
<g id="edge31" class="edge">
<title>N2&#45;&gt;N29</title>
<path fill="none" stroke="#6c757d" d="M224.02,-3822.8C242.77,-3663.9 378,-2518 378,-2518 378,-2518 417.56,-2509.51 453.88,-2501.72"/>
<polygon fill="#6c757d" stroke="#6c757d" points="454.23,-2504.15 460.56,-2500.28 453.2,-2499.35 454.23,-2504.15"/>
</g>
<!-- N30 -->
<g id="node31" class="node">
<title>N30</title>
<path fill="#f8f9fa" stroke="#ced4da" d="M559.25,-2063C559.25,-2063 469,-2063 469,-2063 463,-2063 457,-2057 457,-2051 457,-2051 457,-2039 457,-2039 457,-2033 463,-2027 469,-2027 469,-2027 559.25,-2027 559.25,-2027 565.25,-2027 571.25,-2033 571.25,-2039 571.25,-2039 571.25,-2051 571.25,-2051 571.25,-2057 565.25,-2063 559.25,-2063"/>
<text text-anchor="middle" x="514.12" y="-2043" font-family="Helvetica,Arial,sans-serif" font-size="10.00" fill="#212529">📄 crafty&#45;controller.nix</text>
</g>
<!-- N2&#45;&gt;N30 -->
<g id="edge32" class="edge">
<title>N2&#45;&gt;N30</title>
<path fill="none" stroke="#6c757d" d="M223.5,-3822.64C240.07,-3635.13 378,-2074 378,-2074 378,-2074 413.63,-2066.35 448.3,-2058.91"/>
<polygon fill="#6c757d" stroke="#6c757d" points="448.79,-2061.31 455.12,-2057.45 447.76,-2056.52 448.79,-2061.31"/>
</g>
<!-- N31 -->
<g id="node32" class="node">
<title>N31</title>
<path fill="#f8f9fa" stroke="#ced4da" d="M539.38,-2121C539.38,-2121 488.88,-2121 488.88,-2121 482.88,-2121 476.88,-2115 476.88,-2109 476.88,-2109 476.88,-2097 476.88,-2097 476.88,-2091 482.88,-2085 488.88,-2085 488.88,-2085 539.38,-2085 539.38,-2085 545.38,-2085 551.38,-2091 551.38,-2097 551.38,-2097 551.38,-2109 551.38,-2109 551.38,-2115 545.38,-2121 539.38,-2121"/>
<text text-anchor="middle" x="514.12" y="-2101" font-family="Helvetica,Arial,sans-serif" font-size="10.00" fill="#212529">📄 firefox.nix</text>
</g>
<!-- N2&#45;&gt;N31 -->
<g id="edge33" class="edge">
<title>N2&#45;&gt;N31</title>
<path fill="none" stroke="#6c757d" d="M223.55,-3822.68C240.35,-3638.75 378,-2132 378,-2132 378,-2132 429.02,-2121.05 468.36,-2112.61"/>
<polygon fill="#6c757d" stroke="#6c757d" points="468.75,-2115.03 475.08,-2111.17 467.72,-2110.24 468.75,-2115.03"/>
</g>
<!-- N32 -->
<g id="node33" class="node">
<title>N32</title>
<path fill="#f8f9fa" stroke="#ced4da" d="M540.5,-2179C540.5,-2179 487.75,-2179 487.75,-2179 481.75,-2179 475.75,-2173 475.75,-2167 475.75,-2167 475.75,-2155 475.75,-2155 475.75,-2149 481.75,-2143 487.75,-2143 487.75,-2143 540.5,-2143 540.5,-2143 546.5,-2143 552.5,-2149 552.5,-2155 552.5,-2155 552.5,-2167 552.5,-2167 552.5,-2173 546.5,-2179 540.5,-2179"/>
<text text-anchor="middle" x="514.12" y="-2159" font-family="Helvetica,Arial,sans-serif" font-size="10.00" fill="#212529">📄 forgejo.nix</text>
</g>
<!-- N2&#45;&gt;N32 -->
<g id="edge34" class="edge">
<title>N2&#45;&gt;N32</title>
<path fill="none" stroke="#6c757d" d="M223.6,-3822.74C240.64,-3642.59 378,-2190 378,-2190 378,-2190 428.12,-2179.24 467.31,-2170.83"/>
<polygon fill="#6c757d" stroke="#6c757d" points="467.68,-2173.26 474.01,-2169.4 466.65,-2168.47 467.68,-2173.26"/>
</g>
<!-- N33 -->
<g id="node34" class="node">
<title>N33</title>
<path fill="#f8f9fa" stroke="#ced4da" d="M543.88,-2237C543.88,-2237 484.38,-2237 484.38,-2237 478.38,-2237 472.38,-2231 472.38,-2225 472.38,-2225 472.38,-2213 472.38,-2213 472.38,-2207 478.38,-2201 484.38,-2201 484.38,-2201 543.88,-2201 543.88,-2201 549.88,-2201 555.88,-2207 555.88,-2213 555.88,-2213 555.88,-2225 555.88,-2225 555.88,-2231 549.88,-2237 543.88,-2237"/>
<text text-anchor="middle" x="514.12" y="-2217" font-family="Helvetica,Arial,sans-serif" font-size="10.00" fill="#212529">📄 freshrss.nix</text>
</g>
<!-- N2&#45;&gt;N33 -->
<g id="edge35" class="edge">
<title>N2&#45;&gt;N33</title>
<path fill="none" stroke="#6c757d" d="M223.71,-3822.62C241.21,-3647.32 378,-2277 378,-2277 378,-2277 425.85,-2256.46 464.6,-2239.83"/>
<polygon fill="#6c757d" stroke="#6c757d" points="465.36,-2242.17 470.83,-2237.16 463.43,-2237.67 465.36,-2242.17"/>
</g>
<!-- N34 -->
<g id="node35" class="node">
<title>N34</title>
<path fill="#f8f9fa" stroke="#ced4da" d="M548.38,-1483C548.38,-1483 479.88,-1483 479.88,-1483 473.88,-1483 467.88,-1477 467.88,-1471 467.88,-1471 467.88,-1459 467.88,-1459 467.88,-1453 473.88,-1447 479.88,-1447 479.88,-1447 548.38,-1447 548.38,-1447 554.38,-1447 560.38,-1453 560.38,-1459 560.38,-1459 560.38,-1471 560.38,-1471 560.38,-1477 554.38,-1483 548.38,-1483"/>
<text text-anchor="middle" x="514.12" y="-1463" font-family="Helvetica,Arial,sans-serif" font-size="10.00" fill="#212529">📄 homepage.nix</text>
</g>
<!-- N2&#45;&gt;N34 -->
<g id="edge36" class="edge">
<title>N2&#45;&gt;N34</title>
<path fill="none" stroke="#6c757d" d="M223.09,-3822.79C237.62,-3604.34 378,-1494 378,-1494 378,-1494 421.73,-1484.61 459.44,-1476.52"/>
<polygon fill="#6c757d" stroke="#6c757d" points="459.57,-1479 465.9,-1475.14 458.54,-1474.21 459.57,-1479"/>
</g>
<!-- N35 -->
<g id="node36" class="node">
<title>N35</title>
<path fill="#f8f9fa" stroke="#ced4da" d="M553.25,-1541C553.25,-1541 475,-1541 475,-1541 469,-1541 463,-1535 463,-1529 463,-1529 463,-1517 463,-1517 463,-1511 469,-1505 475,-1505 475,-1505 553.25,-1505 553.25,-1505 559.25,-1505 565.25,-1511 565.25,-1517 565.25,-1517 565.25,-1529 565.25,-1529 565.25,-1535 559.25,-1541 553.25,-1541"/>
<text text-anchor="middle" x="514.12" y="-1521" font-family="Helvetica,Arial,sans-serif" font-size="10.00" fill="#212529">📄 local&#45;finance.nix</text>
</g>
<!-- N2&#45;&gt;N35 -->
<g id="edge37" class="edge">
<title>N2&#45;&gt;N35</title>
<path fill="none" stroke="#6c757d" d="M223.13,-3822.57C237.91,-3605.95 378,-1552 378,-1552 378,-1552 418.1,-1543.39 454.61,-1535.56"/>
<polygon fill="#6c757d" stroke="#6c757d" points="455,-1537.98 461.33,-1534.12 453.97,-1533.19 455,-1537.98"/>
</g>
<!-- N36 -->
<g id="node37" class="node">
<title>N36</title>
<path fill="#f8f9fa" stroke="#ced4da" d="M533.75,-1599C533.75,-1599 494.5,-1599 494.5,-1599 488.5,-1599 482.5,-1593 482.5,-1587 482.5,-1587 482.5,-1575 482.5,-1575 482.5,-1569 488.5,-1563 494.5,-1563 494.5,-1563 533.75,-1563 533.75,-1563 539.75,-1563 545.75,-1569 545.75,-1575 545.75,-1575 545.75,-1587 545.75,-1587 545.75,-1593 539.75,-1599 533.75,-1599"/>
<text text-anchor="middle" x="514.12" y="-1579" font-family="Helvetica,Arial,sans-serif" font-size="10.00" fill="#212529">📄 n8n.nix</text>
</g>
<!-- N2&#45;&gt;N36 -->
<g id="edge38" class="edge">
<title>N2&#45;&gt;N36</title>
<path fill="none" stroke="#6c757d" d="M223.15,-3822.71C238.05,-3609.84 378,-1610 378,-1610 378,-1610 433.98,-1597.99 473.88,-1589.42"/>
<polygon fill="#6c757d" stroke="#6c757d" points="474.31,-1591.84 480.64,-1587.97 473.29,-1587.04 474.31,-1591.84"/>
</g>
<!-- N37 -->
<g id="node38" class="node">
<title>N37</title>
<path fill="#f8f9fa" stroke="#ced4da" d="M539.75,-1657C539.75,-1657 488.5,-1657 488.5,-1657 482.5,-1657 476.5,-1651 476.5,-1645 476.5,-1645 476.5,-1633 476.5,-1633 476.5,-1627 482.5,-1621 488.5,-1621 488.5,-1621 539.75,-1621 539.75,-1621 545.75,-1621 551.75,-1627 551.75,-1633 551.75,-1633 551.75,-1645 551.75,-1645 551.75,-1651 545.75,-1657 539.75,-1657"/>
<text text-anchor="middle" x="514.12" y="-1637" font-family="Helvetica,Arial,sans-serif" font-size="10.00" fill="#212529">📄 quartz.nix</text>
</g>
<!-- N2&#45;&gt;N37 -->
<g id="edge39" class="edge">
<title>N2&#45;&gt;N37</title>
<path fill="none" stroke="#6c757d" d="M223.2,-3822.54C238.34,-3611.83 378,-1668 378,-1668 378,-1668 428.72,-1657.11 468.01,-1648.68"/>
<polygon fill="#6c757d" stroke="#6c757d" points="468.39,-1651.11 474.72,-1647.24 467.36,-1646.32 468.39,-1651.11"/>
</g>
<!-- N38 -->
<g id="node39" class="node">
<title>N38</title>
<path fill="#f8f9fa" stroke="#ced4da" d="M538.25,-1715C538.25,-1715 490,-1715 490,-1715 484,-1715 478,-1709 478,-1703 478,-1703 478,-1691 478,-1691 478,-1685 484,-1679 490,-1679 490,-1679 538.25,-1679 538.25,-1679 544.25,-1679 550.25,-1685 550.25,-1691 550.25,-1691 550.25,-1703 550.25,-1703 550.25,-1709 544.25,-1715 538.25,-1715"/>
<text text-anchor="middle" x="514.12" y="-1695" font-family="Helvetica,Arial,sans-serif" font-size="10.00" fill="#212529">📄 romm.nix</text>
</g>
<!-- N2&#45;&gt;N38 -->
<g id="edge40" class="edge">
<title>N2&#45;&gt;N38</title>
<path fill="none" stroke="#6c757d" d="M223.22,-3822.72C238.48,-3616 378,-1726 378,-1726 378,-1726 429.94,-1714.85 469.41,-1706.38"/>
<polygon fill="#6c757d" stroke="#6c757d" points="469.81,-1708.8 476.14,-1704.94 468.78,-1704.01 469.81,-1708.8"/>
</g>
<!-- N39 -->
<g id="node40" class="node">
<title>N39</title>
<path fill="#f8f9fa" stroke="#ced4da" d="M564.88,-1773C564.88,-1773 463.38,-1773 463.38,-1773 457.38,-1773 451.38,-1767 451.38,-1761 451.38,-1761 451.38,-1749 451.38,-1749 451.38,-1743 457.38,-1737 463.38,-1737 463.38,-1737 564.88,-1737 564.88,-1737 570.88,-1737 576.88,-1743 576.88,-1749 576.88,-1749 576.88,-1761 576.88,-1761 576.88,-1767 570.88,-1773 564.88,-1773"/>
<text text-anchor="middle" x="514.12" y="-1753" font-family="Helvetica,Arial,sans-serif" font-size="10.00" fill="#212529">📄 security&#45;watchdog.nix</text>
</g>
<!-- N2&#45;&gt;N39 -->
<g id="edge41" class="edge">
<title>N2&#45;&gt;N39</title>
<path fill="none" stroke="#6c757d" d="M223.27,-3822.59C238.77,-3618.37 378,-1784 378,-1784 378,-1784 410.21,-1777.09 443.17,-1770.01"/>
<polygon fill="#6c757d" stroke="#6c757d" points="443.29,-1772.49 449.62,-1768.63 442.26,-1767.7 443.29,-1772.49"/>
</g>
<!-- N40 -->
<g id="node41" class="node">
<title>N40</title>
<path fill="#f8f9fa" stroke="#ced4da" d="M548.38,-1831C548.38,-1831 479.88,-1831 479.88,-1831 473.88,-1831 467.88,-1825 467.88,-1819 467.88,-1819 467.88,-1807 467.88,-1807 467.88,-1801 473.88,-1795 479.88,-1795 479.88,-1795 548.38,-1795 548.38,-1795 554.38,-1795 560.38,-1801 560.38,-1807 560.38,-1807 560.38,-1819 560.38,-1819 560.38,-1825 554.38,-1831 548.38,-1831"/>
<text text-anchor="middle" x="514.12" y="-1811" font-family="Helvetica,Arial,sans-serif" font-size="10.00" fill="#212529">📄 stirling&#45;pdf.nix</text>
</g>
<!-- N2&#45;&gt;N40 -->
<g id="edge42" class="edge">
<title>N2&#45;&gt;N40</title>
<path fill="none" stroke="#6c757d" d="M223.3,-3822.8C238.92,-3622.81 378,-1842 378,-1842 378,-1842 421.73,-1832.61 459.44,-1824.52"/>
<polygon fill="#6c757d" stroke="#6c757d" points="459.57,-1827 465.9,-1823.14 458.54,-1822.21 459.57,-1827"/>
</g>
<!-- N41 -->
<g id="node42" class="node">
<title>N41</title>
<path fill="#f8f9fa" stroke="#ced4da" d="M534.12,-1889C534.12,-1889 494.12,-1889 494.12,-1889 488.12,-1889 482.12,-1883 482.12,-1877 482.12,-1877 482.12,-1865 482.12,-1865 482.12,-1859 488.12,-1853 494.12,-1853 494.12,-1853 534.12,-1853 534.12,-1853 540.12,-1853 546.12,-1859 546.12,-1865 546.12,-1865 546.12,-1877 546.12,-1877 546.12,-1883 540.12,-1889 534.12,-1889"/>
<text text-anchor="middle" x="514.12" y="-1869" font-family="Helvetica,Arial,sans-serif" font-size="10.00" fill="#212529">📄 vert.nix</text>
</g>
<!-- N2&#45;&gt;N41 -->
<g id="edge43" class="edge">
<title>N2&#45;&gt;N41</title>
<path fill="none" stroke="#6c757d" d="M223.35,-3822.72C239.2,-3625.56 378,-1900 378,-1900 378,-1900 433.67,-1888.05 473.54,-1879.5"/>
<polygon fill="#6c757d" stroke="#6c757d" points="473.98,-1881.91 480.31,-1878.04 472.95,-1877.12 473.98,-1881.91"/>
</g>
<!-- N42 -->
<g id="node43" class="node">
<title>N42</title>
<path fill="#f8f9fa" stroke="#ced4da" d="M541.25,-1947C541.25,-1947 487,-1947 487,-1947 481,-1947 475,-1941 475,-1935 475,-1935 475,-1923 475,-1923 475,-1917 481,-1911 487,-1911 487,-1911 541.25,-1911 541.25,-1911 547.25,-1911 553.25,-1917 553.25,-1923 553.25,-1923 553.25,-1935 553.25,-1935 553.25,-1941 547.25,-1947 541.25,-1947"/>
<text text-anchor="middle" x="514.12" y="-1927" font-family="Helvetica,Arial,sans-serif" font-size="10.00" fill="#212529">📄 vikunja.nix</text>
</g>
<!-- N2&#45;&gt;N42 -->
<g id="edge44" class="edge">
<title>N2&#45;&gt;N42</title>
<path fill="none" stroke="#6c757d" d="M223.4,-3822.67C239.49,-3628.53 378,-1958 378,-1958 378,-1958 427.52,-1947.37 466.6,-1938.98"/>
<polygon fill="#6c757d" stroke="#6c757d" points="466.96,-1941.41 473.29,-1937.55 465.93,-1936.62 466.96,-1941.41"/>
</g>
<!-- N43 -->
<g id="node44" class="node">
<title>N43</title>
<path fill="#f8f9fa" stroke="#ced4da" d="M545.38,-2005C545.38,-2005 482.88,-2005 482.88,-2005 476.88,-2005 470.88,-1999 470.88,-1993 470.88,-1993 470.88,-1981 470.88,-1981 470.88,-1975 476.88,-1969 482.88,-1969 482.88,-1969 545.38,-1969 545.38,-1969 551.38,-1969 557.38,-1975 557.38,-1981 557.38,-1981 557.38,-1993 557.38,-1993 557.38,-1999 551.38,-2005 545.38,-2005"/>
<text text-anchor="middle" x="514.12" y="-1985" font-family="Helvetica,Arial,sans-serif" font-size="10.00" fill="#212529">📄 wanderer.nix</text>
</g>
<!-- N2&#45;&gt;N43 -->
<g id="edge45" class="edge">
<title>N2&#45;&gt;N43</title>
<path fill="none" stroke="#6c757d" d="M223.45,-3822.64C239.78,-3631.72 378,-2016 378,-2016 378,-2016 424.29,-2006.06 462.69,-1997.82"/>
<polygon fill="#6c757d" stroke="#6c757d" points="462.93,-2000.28 469.26,-1996.41 461.9,-1995.49 462.93,-2000.28"/>
</g>
<!-- N44 -->
<g id="node45" class="node">
<title>N44</title>
<path fill="#f8f9fa" stroke="#ced4da" d="M545.75,-1329C545.75,-1329 482.5,-1329 482.5,-1329 476.5,-1329 470.5,-1323 470.5,-1317 470.5,-1317 470.5,-1305 470.5,-1305 470.5,-1299 476.5,-1293 482.5,-1293 482.5,-1293 545.75,-1293 545.75,-1293 551.75,-1293 557.75,-1299 557.75,-1305 557.75,-1305 557.75,-1317 557.75,-1317 557.75,-1323 551.75,-1329 545.75,-1329"/>
<text text-anchor="middle" x="514.12" y="-1309" font-family="Helvetica,Arial,sans-serif" font-size="10.00" fill="#212529">📄 authentik.nix</text>
</g>
<!-- N2&#45;&gt;N44 -->
<g id="edge46" class="edge">
<title>N2&#45;&gt;N44</title>
<path fill="none" stroke="#6c757d" d="M223.02,-3822.66C237.18,-3595.76 378,-1340 378,-1340 378,-1340 424.01,-1330.13 462.33,-1321.9"/>
<polygon fill="#6c757d" stroke="#6c757d" points="462.56,-1324.36 468.89,-1320.49 461.53,-1319.57 462.56,-1324.36"/>
</g>
<!-- N45 -->
<g id="node46" class="node">
<title>N45</title>
<path fill="#f8f9fa" stroke="#ced4da" d="M538.62,-1387C538.62,-1387 489.62,-1387 489.62,-1387 483.62,-1387 477.62,-1381 477.62,-1375 477.62,-1375 477.62,-1363 477.62,-1363 477.62,-1357 483.62,-1351 489.62,-1351 489.62,-1351 538.62,-1351 538.62,-1351 544.62,-1351 550.62,-1357 550.62,-1363 550.62,-1363 550.62,-1375 550.62,-1375 550.62,-1381 544.62,-1387 538.62,-1387"/>
<text text-anchor="middle" x="514.12" y="-1367" font-family="Helvetica,Arial,sans-serif" font-size="10.00" fill="#212529">📄 caddy.nix</text>
</g>
<!-- N2&#45;&gt;N45 -->
<g id="edge47" class="edge">
<title>N2&#45;&gt;N45</title>
<path fill="none" stroke="#6c757d" d="M223.06,-3822.61C237.47,-3599.82 378,-1427 378,-1427 378,-1427 430.06,-1404.65 469.56,-1387.7"/>
<polygon fill="#6c757d" stroke="#6c757d" points="470.41,-1390 475.88,-1384.99 468.48,-1385.5 470.41,-1390"/>
</g>
<!-- N46 -->
<g id="node47" class="node">
<title>N46</title>
<path fill="#f8f9fa" stroke="#ced4da" d="M549.5,-1097C549.5,-1097 478.75,-1097 478.75,-1097 472.75,-1097 466.75,-1091 466.75,-1085 466.75,-1085 466.75,-1073 466.75,-1073 466.75,-1067 472.75,-1061 478.75,-1061 478.75,-1061 549.5,-1061 549.5,-1061 555.5,-1061 561.5,-1067 561.5,-1073 561.5,-1073 561.5,-1085 561.5,-1085 561.5,-1091 555.5,-1097 549.5,-1097"/>
<text text-anchor="middle" x="514.12" y="-1077" font-family="Helvetica,Arial,sans-serif" font-size="10.00" fill="#212529">📄 cloudflared.nix</text>
</g>
<!-- N2&#45;&gt;N46 -->
<g id="edge48" class="edge">
<title>N2&#45;&gt;N46</title>
<path fill="none" stroke="#6c757d" d="M222.91,-3822.83C236.46,-3585.7 378,-1108 378,-1108 378,-1108 421.18,-1098.73 458.72,-1090.68"/>
<polygon fill="#6c757d" stroke="#6c757d" points="458.81,-1093.16 465.14,-1089.3 457.78,-1088.37 458.81,-1093.16"/>
</g>
<!-- N47 -->
<g id="node48" class="node">
<title>N47</title>
<path fill="#f8f9fa" stroke="#ced4da" d="M569,-1155C569,-1155 459.25,-1155 459.25,-1155 453.25,-1155 447.25,-1149 447.25,-1143 447.25,-1143 447.25,-1131 447.25,-1131 447.25,-1125 453.25,-1119 459.25,-1119 459.25,-1119 569,-1119 569,-1119 575,-1119 581,-1125 581,-1131 581,-1131 581,-1143 581,-1143 581,-1149 575,-1155 569,-1155"/>
<text text-anchor="middle" x="514.12" y="-1135" font-family="Helvetica,Arial,sans-serif" font-size="10.00" fill="#212529">📄 docker&#45;socket&#45;proxy.nix</text>
</g>
<!-- N2&#45;&gt;N47 -->
<g id="edge49" class="edge">
<title>N2&#45;&gt;N47</title>
<path fill="none" stroke="#6c757d" d="M222.93,-3822.85C236.6,-3588.63 378,-1166 378,-1166 378,-1166 407.39,-1159.69 438.75,-1152.96"/>
<polygon fill="#6c757d" stroke="#6c757d" points="438.94,-1155.43 445.27,-1151.56 437.91,-1150.64 438.94,-1155.43"/>
</g>
<!-- N48 -->
<g id="node49" class="node">
<title>N48</title>
<path fill="#f8f9fa" stroke="#ced4da" d="M541.62,-1213C541.62,-1213 486.62,-1213 486.62,-1213 480.62,-1213 474.62,-1207 474.62,-1201 474.62,-1201 474.62,-1189 474.62,-1189 474.62,-1183 480.62,-1177 486.62,-1177 486.62,-1177 541.62,-1177 541.62,-1177 547.62,-1177 553.62,-1183 553.62,-1189 553.62,-1189 553.62,-1201 553.62,-1201 553.62,-1207 547.62,-1213 541.62,-1213"/>
<text text-anchor="middle" x="514.12" y="-1193" font-family="Helvetica,Arial,sans-serif" font-size="10.00" fill="#212529">📄 gluetun.nix</text>
</g>
<!-- N2&#45;&gt;N48 -->
<g id="edge50" class="edge">
<title>N2&#45;&gt;N48</title>
<path fill="none" stroke="#6c757d" d="M222.98,-3822.53C236.89,-3589.24 378,-1224 378,-1224 378,-1224 427.22,-1213.44 466.25,-1205.06"/>
<polygon fill="#6c757d" stroke="#6c757d" points="466.59,-1207.49 472.92,-1203.63 465.57,-1202.7 466.59,-1207.49"/>
</g>
<!-- N49 -->
<g id="node50" class="node">
<title>N49</title>
<path fill="#f8f9fa" stroke="#ced4da" d="M536,-1271C536,-1271 492.25,-1271 492.25,-1271 486.25,-1271 480.25,-1265 480.25,-1259 480.25,-1259 480.25,-1247 480.25,-1247 480.25,-1241 486.25,-1235 492.25,-1235 492.25,-1235 536,-1235 536,-1235 542,-1235 548,-1241 548,-1247 548,-1247 548,-1259 548,-1259 548,-1265 542,-1271 536,-1271"/>
<text text-anchor="middle" x="514.12" y="-1251" font-family="Helvetica,Arial,sans-serif" font-size="10.00" fill="#212529">📄 lldap.nix</text>
</g>
<!-- N2&#45;&gt;N49 -->
<g id="edge51" class="edge">
<title>N2&#45;&gt;N49</title>
<path fill="none" stroke="#6c757d" d="M223,-3822.59C237.04,-3592.45 378,-1282 378,-1282 378,-1282 432.1,-1270.39 471.83,-1261.86"/>
<polygon fill="#6c757d" stroke="#6c757d" points="472.26,-1264.28 478.59,-1260.41 471.23,-1259.49 472.26,-1264.28"/>
</g>
<!-- N54 -->
<g id="node55" class="node">
<title>N54</title>
<path fill="#f8f9fa" stroke="#ced4da" d="M540.5,-597C540.5,-597 487.75,-597 487.75,-597 481.75,-597 475.75,-591 475.75,-585 475.75,-585 475.75,-573 475.75,-573 475.75,-567 481.75,-561 487.75,-561 487.75,-561 540.5,-561 540.5,-561 546.5,-561 552.5,-567 552.5,-573 552.5,-573 552.5,-585 552.5,-585 552.5,-591 546.5,-597 540.5,-597"/>
<text text-anchor="middle" x="514.12" y="-577" font-family="Helvetica,Arial,sans-serif" font-size="10.00" fill="#212529">📄 default.nix</text>
</g>
<!-- N2&#45;&gt;N54 -->
<g id="edge52" class="edge">
<title>N2&#45;&gt;N54</title>
<path fill="none" stroke="#6c757d" d="M222.77,-3822.58C235.44,-3562.6 378,-637 378,-637 378,-637 428.54,-615.31 467.8,-598.45"/>
<polygon fill="#6c757d" stroke="#6c757d" points="468.63,-600.77 474.09,-595.75 466.7,-596.26 468.63,-600.77"/>
</g>
<!-- N59 -->
<g id="node60" class="node">
<title>N59</title>
<path fill="#f8f9fa" stroke="#ced4da" d="M536.38,-847C536.38,-847 491.88,-847 491.88,-847 485.88,-847 479.88,-841 479.88,-835 479.88,-835 479.88,-823 479.88,-823 479.88,-817 485.88,-811 491.88,-811 491.88,-811 536.38,-811 536.38,-811 542.38,-811 548.38,-817 548.38,-823 548.38,-823 548.38,-835 548.38,-835 548.38,-841 542.38,-847 536.38,-847"/>
<text text-anchor="middle" x="514.12" y="-827" font-family="Helvetica,Arial,sans-serif" font-size="10.00" fill="#212529">📄 base.nix</text>
</g>
<!-- N2&#45;&gt;N59 -->
<g id="edge53" class="edge">
<title>N2&#45;&gt;N59</title>
<path fill="none" stroke="#6c757d" d="M222.83,-3822.72C235.88,-3573.45 378,-858 378,-858 378,-858 431.47,-846.52 471.14,-838.01"/>
<polygon fill="#6c757d" stroke="#6c757d" points="471.57,-840.43 477.9,-836.56 470.54,-835.63 471.57,-840.43"/>
</g>
<!-- N60 -->
<g id="node61" class="node">
<title>N60</title>
<path fill="#f8f9fa" stroke="#ced4da" d="M539.38,-905C539.38,-905 488.88,-905 488.88,-905 482.88,-905 476.88,-899 476.88,-893 476.88,-893 476.88,-881 476.88,-881 476.88,-875 482.88,-869 488.88,-869 488.88,-869 539.38,-869 539.38,-869 545.38,-869 551.38,-875 551.38,-881 551.38,-881 551.38,-893 551.38,-893 551.38,-899 545.38,-905 539.38,-905"/>
<text text-anchor="middle" x="514.12" y="-885" font-family="Helvetica,Arial,sans-serif" font-size="10.00" fill="#212529">📄 server.nix</text>
</g>
<!-- N2&#45;&gt;N60 -->
<g id="edge54" class="edge">
<title>N2&#45;&gt;N60</title>
<path fill="none" stroke="#6c757d" d="M222.87,-3822.51C236.17,-3575.86 378,-945 378,-945 378,-945 429.45,-922.92 468.86,-906"/>
<polygon fill="#6c757d" stroke="#6c757d" points="469.7,-908.31 475.17,-903.29 467.77,-903.8 469.7,-908.31"/>
</g>
<!-- N62 -->
<g id="node63" class="node">
<title>N62</title>
<path fill="#f8f9fa" stroke="#ced4da" d="M540.5,-693C540.5,-693 487.75,-693 487.75,-693 481.75,-693 475.75,-687 475.75,-681 475.75,-681 475.75,-669 475.75,-669 475.75,-663 481.75,-657 487.75,-657 487.75,-657 540.5,-657 540.5,-657 546.5,-657 552.5,-663 552.5,-669 552.5,-669 552.5,-681 552.5,-681 552.5,-687 546.5,-693 540.5,-693"/>
<text text-anchor="middle" x="514.12" y="-673" font-family="Helvetica,Arial,sans-serif" font-size="10.00" fill="#212529">📄 default.nix</text>
</g>
<!-- N2&#45;&gt;N62 -->
<g id="edge55" class="edge">
<title>N2&#45;&gt;N62</title>
<path fill="none" stroke="#6c757d" d="M222.79,-3822.75C235.59,-3568.04 378,-733 378,-733 378,-733 428.54,-711.31 467.8,-694.45"/>
<polygon fill="#6c757d" stroke="#6c757d" points="468.63,-696.77 474.09,-691.75 466.7,-692.26 468.63,-696.77"/>
</g>
<!-- N63 -->
<g id="node64" class="node">
<title>N63</title>
<path fill="#f8f9fa" stroke="#ced4da" d="M540.5,-1001C540.5,-1001 487.75,-1001 487.75,-1001 481.75,-1001 475.75,-995 475.75,-989 475.75,-989 475.75,-977 475.75,-977 475.75,-971 481.75,-965 487.75,-965 487.75,-965 540.5,-965 540.5,-965 546.5,-965 552.5,-971 552.5,-977 552.5,-977 552.5,-989 552.5,-989 552.5,-995 546.5,-1001 540.5,-1001"/>
<text text-anchor="middle" x="514.12" y="-981" font-family="Helvetica,Arial,sans-serif" font-size="10.00" fill="#212529">📄 default.nix</text>
</g>
<!-- N2&#45;&gt;N63 -->
<g id="edge56" class="edge">
<title>N2&#45;&gt;N63</title>
<path fill="none" stroke="#6c757d" d="M222.89,-3822.75C236.31,-3582.05 378,-1041 378,-1041 378,-1041 428.54,-1019.31 467.8,-1002.45"/>
<polygon fill="#6c757d" stroke="#6c757d" points="468.63,-1004.77 474.09,-999.75 466.7,-1000.26 468.63,-1004.77"/>
</g>
<!-- N51 -->
<g id="node52" class="node">
<title>N51</title>
<path fill="#f8f9fa" stroke="#ced4da" d="M574.62,-347C574.62,-347 453.62,-347 453.62,-347 447.62,-347 441.62,-341 441.62,-335 441.62,-335 441.62,-323 441.62,-323 441.62,-317 447.62,-311 453.62,-311 453.62,-311 574.62,-311 574.62,-311 580.62,-311 586.62,-317 586.62,-323 586.62,-323 586.62,-335 586.62,-335 586.62,-341 580.62,-347 574.62,-347"/>
<text text-anchor="middle" x="514.12" y="-327" font-family="Helvetica,Arial,sans-serif" font-size="10.00" fill="#212529">📄 hardware&#45;configuration.nix</text>
</g>
<!-- N50&#45;&gt;N51 -->
<g id="edge57" class="edge">
<title>N50&#45;&gt;N51</title>
<path fill="none" stroke="#6c757d" d="M272.61,-329C316.76,-329 381.53,-329 432.73,-329"/>
<polygon fill="#6c757d" stroke="#6c757d" points="432.64,-331.45 439.64,-329 432.64,-326.55 432.64,-331.45"/>
</g>
<!-- N50&#45;&gt;N54 -->
<g id="edge58" class="edge">
<title>N50&#45;&gt;N54</title>
<path fill="none" stroke="#6c757d" d="M235.19,-347.25C272.94,-399 378,-543 378,-543 378,-543 428.12,-556.35 467.31,-566.79"/>
<polygon fill="#6c757d" stroke="#6c757d" points="466.63,-569.15 474.02,-568.58 467.89,-564.41 466.63,-569.15"/>
</g>
<!-- N55 -->
<g id="node56" class="node">
<title>N55</title>
<path fill="#f8f9fa" stroke="#ced4da" d="M540.5,-443C540.5,-443 487.75,-443 487.75,-443 481.75,-443 475.75,-437 475.75,-431 475.75,-431 475.75,-419 475.75,-419 475.75,-413 481.75,-407 487.75,-407 487.75,-407 540.5,-407 540.5,-407 546.5,-407 552.5,-413 552.5,-419 552.5,-419 552.5,-431 552.5,-431 552.5,-437 546.5,-443 540.5,-443"/>
<text text-anchor="middle" x="514.12" y="-423" font-family="Helvetica,Arial,sans-serif" font-size="10.00" fill="#212529">📄 default.nix</text>
</g>
<!-- N50&#45;&gt;N55 -->
<g id="edge59" class="edge">
<title>N50&#45;&gt;N55</title>
<path fill="none" stroke="#6c757d" d="M269.99,-347.49C315.86,-365.12 378,-389 378,-389 378,-389 428.12,-402.35 467.31,-412.79"/>
<polygon fill="#6c757d" stroke="#6c757d" points="466.63,-415.15 474.02,-414.58 467.89,-410.41 466.63,-415.15"/>
</g>
<!-- N56 -->
<g id="node57" class="node">
<title>N56</title>
<path fill="#f8f9fa" stroke="#ced4da" d="M546.12,-501C546.12,-501 482.12,-501 482.12,-501 476.12,-501 470.12,-495 470.12,-489 470.12,-489 470.12,-477 470.12,-477 470.12,-471 476.12,-465 482.12,-465 482.12,-465 546.12,-465 546.12,-465 552.12,-465 558.12,-471 558.12,-477 558.12,-477 558.12,-489 558.12,-489 558.12,-495 552.12,-501 546.12,-501"/>
<text text-anchor="middle" x="514.12" y="-481" font-family="Helvetica,Arial,sans-serif" font-size="10.00" fill="#212529">📄 minecraft.nix</text>
</g>
<!-- N50&#45;&gt;N56 -->
<g id="edge60" class="edge">
<title>N50&#45;&gt;N56</title>
<path fill="none" stroke="#6c757d" d="M244.91,-347.44C288.34,-382.22 378,-454 378,-454 378,-454 423.43,-463.75 461.61,-471.94"/>
<polygon fill="#6c757d" stroke="#6c757d" points="460.79,-474.27 468.15,-473.35 461.82,-469.48 460.79,-474.27"/>
</g>
<!-- N57 -->
<g id="node58" class="node">
<title>N57</title>
<path fill="#f8f9fa" stroke="#ced4da" d="M540.5,-155C540.5,-155 487.75,-155 487.75,-155 481.75,-155 475.75,-149 475.75,-143 475.75,-143 475.75,-131 475.75,-131 475.75,-125 481.75,-119 487.75,-119 487.75,-119 540.5,-119 540.5,-119 546.5,-119 552.5,-125 552.5,-131 552.5,-131 552.5,-143 552.5,-143 552.5,-149 546.5,-155 540.5,-155"/>
<text text-anchor="middle" x="514.12" y="-135" font-family="Helvetica,Arial,sans-serif" font-size="10.00" fill="#212529">📄 default.nix</text>
</g>
<!-- N50&#45;&gt;N57 -->
<g id="edge61" class="edge">
<title>N50&#45;&gt;N57</title>
<path fill="none" stroke="#6c757d" d="M243.26,-310.65C286.01,-273.95 378,-195 378,-195 378,-195 428.54,-173.31 467.8,-156.45"/>
<polygon fill="#6c757d" stroke="#6c757d" points="468.63,-158.77 474.09,-153.75 466.7,-154.26 468.63,-158.77"/>
</g>
<!-- N50&#45;&gt;N59 -->
<g id="edge62" class="edge">
<title>N50&#45;&gt;N59</title>
<path fill="none" stroke="#6c757d" d="M228,-347.46C256.86,-434.54 378,-800 378,-800 378,-800 431.47,-811.48 471.14,-819.99"/>
<polygon fill="#6c757d" stroke="#6c757d" points="470.54,-822.37 477.9,-821.44 471.57,-817.57 470.54,-822.37"/>
</g>
<!-- N61 -->
<g id="node62" class="node">
<title>N61</title>
<path fill="#f8f9fa" stroke="#ced4da" d="M539,-789C539,-789 489.25,-789 489.25,-789 483.25,-789 477.25,-783 477.25,-777 477.25,-777 477.25,-765 477.25,-765 477.25,-759 483.25,-753 489.25,-753 489.25,-753 539,-753 539,-753 545,-753 551,-759 551,-765 551,-765 551,-777 551,-777 551,-783 545,-789 539,-789"/>
<text text-anchor="middle" x="514.12" y="-769" font-family="Helvetica,Arial,sans-serif" font-size="10.00" fill="#212529">📄 sound.nix</text>
</g>
<!-- N50&#45;&gt;N61 -->
<g id="edge63" class="edge">
<title>N50&#45;&gt;N61</title>
<path fill="none" stroke="#6c757d" d="M228.99,-347.5C259.53,-426.93 378,-735 378,-735 378,-735 429.33,-748.67 468.71,-759.17"/>
<polygon fill="#6c757d" stroke="#6c757d" points="468.06,-761.53 475.45,-760.96 469.32,-756.79 468.06,-761.53"/>
</g>
<!-- N50&#45;&gt;N62 -->
<g id="edge64" class="edge">
<title>N50&#45;&gt;N62</title>
<path fill="none" stroke="#6c757d" d="M231.17,-347.46C264.78,-414.2 378,-639 378,-639 378,-639 428.12,-652.35 467.31,-662.79"/>
<polygon fill="#6c757d" stroke="#6c757d" points="466.63,-665.15 474.02,-664.58 467.89,-660.41 466.63,-665.15"/>
</g>
<!-- N65 -->
<g id="node66" class="node">
<title>N65</title>
<path fill="#f8f9fa" stroke="#ced4da" d="M540.5,-251C540.5,-251 487.75,-251 487.75,-251 481.75,-251 475.75,-245 475.75,-239 475.75,-239 475.75,-227 475.75,-227 475.75,-221 481.75,-215 487.75,-215 487.75,-215 540.5,-215 540.5,-215 546.5,-215 552.5,-221 552.5,-227 552.5,-227 552.5,-239 552.5,-239 552.5,-245 546.5,-251 540.5,-251"/>
<text text-anchor="middle" x="514.12" y="-231" font-family="Helvetica,Arial,sans-serif" font-size="10.00" fill="#212529">📄 default.nix</text>
</g>
<!-- N50&#45;&gt;N65 -->
<g id="edge65" class="edge">
<title>N50&#45;&gt;N65</title>
<path fill="none" stroke="#6c757d" d="M272.61,-312.28C327.64,-294.14 414.7,-265.44 467.6,-248.01"/>
<polygon fill="#6c757d" stroke="#6c757d" points="468.15,-250.4 474.03,-245.89 466.62,-245.75 468.15,-250.4"/>
</g>
<!-- N53 -->
<g id="node54" class="node">
<title>N53</title>
<path fill="#f8f9fa" stroke="#ced4da" d="M574.62,-59C574.62,-59 453.62,-59 453.62,-59 447.62,-59 441.62,-53 441.62,-47 441.62,-47 441.62,-35 441.62,-35 441.62,-29 447.62,-23 453.62,-23 453.62,-23 574.62,-23 574.62,-23 580.62,-23 586.62,-29 586.62,-35 586.62,-35 586.62,-47 586.62,-47 586.62,-53 580.62,-59 574.62,-59"/>
<text text-anchor="middle" x="514.12" y="-39" font-family="Helvetica,Arial,sans-serif" font-size="10.00" fill="#212529">📄 hardware&#45;configuration.nix</text>
</g>
<!-- N52&#45;&gt;N53 -->
<g id="edge66" class="edge">
<title>N52&#45;&gt;N53</title>
<path fill="none" stroke="#6c757d" d="M272.61,-41C316.76,-41 381.53,-41 432.73,-41"/>
<polygon fill="#6c757d" stroke="#6c757d" points="432.64,-43.45 439.64,-41 432.64,-38.55 432.64,-43.45"/>
</g>
<!-- N52&#45;&gt;N54 -->
<g id="edge67" class="edge">
<title>N52&#45;&gt;N54</title>
<path fill="none" stroke="#6c757d" d="M227.91,-59.38C246.88,-117.12 304,-291 304,-291 304,-291 378,-543 378,-543 378,-543 428.12,-556.35 467.31,-566.79"/>
<polygon fill="#6c757d" stroke="#6c757d" points="466.63,-569.15 474.02,-568.58 467.89,-564.41 466.63,-569.15"/>
</g>
<!-- N52&#45;&gt;N57 -->
<g id="edge68" class="edge">
<title>N52&#45;&gt;N57</title>
<path fill="none" stroke="#6c757d" d="M269.99,-59.49C315.86,-77.12 378,-101 378,-101 378,-101 428.12,-114.35 467.31,-124.79"/>
<polygon fill="#6c757d" stroke="#6c757d" points="466.63,-127.15 474.02,-126.58 467.89,-122.41 466.63,-127.15"/>
</g>
<!-- N52&#45;&gt;N59 -->
<g id="edge69" class="edge">
<title>N52&#45;&gt;N59</title>
<path fill="none" stroke="#6c757d" d="M227.91,-59.38C246.88,-117.12 304,-291 304,-291 304,-291 378,-800 378,-800 378,-800 431.47,-811.48 471.14,-819.99"/>
<polygon fill="#6c757d" stroke="#6c757d" points="470.54,-822.37 477.9,-821.44 471.57,-817.57 470.54,-822.37"/>
</g>
<!-- N52&#45;&gt;N61 -->
<g id="edge70" class="edge">
<title>N52&#45;&gt;N61</title>
<path fill="none" stroke="#6c757d" d="M227.91,-59.38C246.88,-117.12 304,-291 304,-291 304,-291 378,-735 378,-735 378,-735 429.33,-748.67 468.71,-759.17"/>
<polygon fill="#6c757d" stroke="#6c757d" points="468.06,-761.53 475.45,-760.96 469.32,-756.79 468.06,-761.53"/>
</g>
<!-- N52&#45;&gt;N62 -->
<g id="edge71" class="edge">
<title>N52&#45;&gt;N62</title>
<path fill="none" stroke="#6c757d" d="M227.91,-59.38C246.88,-117.12 304,-291 304,-291 304,-291 378,-639 378,-639 378,-639 428.12,-652.35 467.31,-662.79"/>
<polygon fill="#6c757d" stroke="#6c757d" points="466.63,-665.15 474.02,-664.58 467.89,-660.41 466.63,-665.15"/>
</g>
<!-- N52&#45;&gt;N65 -->
<g id="edge72" class="edge">
<title>N52&#45;&gt;N65</title>
<path fill="none" stroke="#6c757d" d="M240.09,-59.2C281.27,-100.35 378,-197 378,-197 378,-197 428.12,-210.35 467.31,-220.79"/>
<polygon fill="#6c757d" stroke="#6c757d" points="466.63,-223.15 474.02,-222.58 467.89,-218.41 466.63,-223.15"/>
</g>
<!-- N58 -->
<g id="node59" class="node">
<title>N58</title>
<path fill="#f8f9fa" stroke="#ced4da" d="M827.5,-847C827.5,-847 734.25,-847 734.25,-847 728.25,-847 722.25,-841 722.25,-835 722.25,-835 722.25,-823 722.25,-823 722.25,-817 728.25,-811 734.25,-811 734.25,-811 827.5,-811 827.5,-811 833.5,-811 839.5,-817 839.5,-823 839.5,-823 839.5,-835 839.5,-835 839.5,-841 833.5,-847 827.5,-847"/>
<text text-anchor="middle" x="780.88" y="-827" font-family="Helvetica,Arial,sans-serif" font-size="10.00" fill="#212529">📄 architecture&#45;dag.nix</text>
</g>
<!-- N59&#45;&gt;N58 -->
<g id="edge73" class="edge">
<title>N59&#45;&gt;N58</title>
<path fill="none" stroke="#6c757d" d="M548.66,-829C590,-829 661.22,-829 713.72,-829"/>
<polygon fill="#6c757d" stroke="#6c757d" points="713.46,-831.45 720.46,-829 713.46,-826.55 713.46,-831.45"/>
</g>
<!-- N64 -->
<g id="node65" class="node">
<title>N64</title>
<path fill="#f8f9fa" stroke="#ced4da" d="M804.62,-1001C804.62,-1001 757.12,-1001 757.12,-1001 751.12,-1001 745.12,-995 745.12,-989 745.12,-989 745.12,-977 745.12,-977 745.12,-971 751.12,-965 757.12,-965 757.12,-965 804.62,-965 804.62,-965 810.62,-965 816.62,-971 816.62,-977 816.62,-977 816.62,-989 816.62,-989 816.62,-995 810.62,-1001 804.62,-1001"/>
<text text-anchor="middle" x="780.88" y="-981" font-family="Helvetica,Arial,sans-serif" font-size="10.00" fill="#212529">📄 home.nix</text>
</g>
<!-- N63&#45;&gt;N64 -->
<g id="edge74" class="edge">
<title>N63&#45;&gt;N64</title>
<path fill="none" stroke="#6c757d" d="M552.78,-983C601.32,-983 685.57,-983 736.67,-983"/>
<polygon fill="#6c757d" stroke="#6c757d" points="736.37,-985.45 743.37,-983 736.37,-980.55 736.37,-985.45"/>
</g>
<!-- N66 -->
<g id="node67" class="node">
<title>N66</title>
<path fill="#f8f9fa" stroke="#ced4da" d="M804.62,-251C804.62,-251 757.12,-251 757.12,-251 751.12,-251 745.12,-245 745.12,-239 745.12,-239 745.12,-227 745.12,-227 745.12,-221 751.12,-215 757.12,-215 757.12,-215 804.62,-215 804.62,-215 810.62,-215 816.62,-221 816.62,-227 816.62,-227 816.62,-239 816.62,-239 816.62,-245 810.62,-251 804.62,-251"/>
<text text-anchor="middle" x="780.88" y="-231" font-family="Helvetica,Arial,sans-serif" font-size="10.00" fill="#212529">📄 home.nix</text>
</g>
<!-- N65&#45;&gt;N66 -->
<g id="edge75" class="edge">
<title>N65&#45;&gt;N66</title>
<path fill="none" stroke="#6c757d" d="M552.78,-233C601.32,-233 685.57,-233 736.67,-233"/>
<polygon fill="#6c757d" stroke="#6c757d" points="736.37,-235.45 743.37,-233 736.37,-230.55 736.37,-235.45"/>
</g>
</g>
</svg>
