<?xml version="1.0" encoding="UTF-8" standalone="no"?>
<!DOCTYPE svg PUBLIC "-//W3C//DTD SVG 1.1//EN"
 "http://www.w3.org/Graphics/SVG/1.1/DTD/svg11.dtd">
<!-- Generated by graphviz version 12.2.1 (0)
 -->
<!-- Title: NixOS Pages: 1 -->
<svg width="850pt" height="4386pt"
 viewBox="0.00 0.00 849.88 4386.00" xmlns="http://www.w3.org/2000/svg" xmlns:xlink="http://www.w3.org/1999/xlink">
<g id="graph0" class="graph" transform="scale(1 1) rotate(0) translate(4 4382)">
<title>NixOS</title>
<polygon fill="white" stroke="none" points="-4,4 -4,-4382 845.88,-4382 845.88,4 -4,4"/>
<g id="clust1" class="cluster">
<title>cluster_hosts_devcontainer</title>
<path fill="#e9ecef" stroke="#adb5bd" d="M158.25,-4280C158.25,-4280 283,-4280 283,-4280 289,-4280 295,-4286 295,-4292 295,-4292 295,-4358 295,-4358 295,-4364 289,-4370 283,-4370 283,-4370 158.25,-4370 158.25,-4370 152.25,-4370 146.25,-4364 146.25,-4358 146.25,-4358 146.25,-4292 146.25,-4292 146.25,-4286 152.25,-4280 158.25,-4280"/>
<text text-anchor="middle" x="220.62" y="-4354.6" font-family="Helvetica,sans-Serif" font-weight="bold" font-size="12.00" fill="#495057">📁 hosts/devcontainer</text>
</g>
<g id="clust2" class="cluster">
<title>cluster_hosts_homelab</title>
<path fill="#e9ecef" stroke="#adb5bd" d="M159.25,-4124C159.25,-4124 578.75,-4124 578.75,-4124 584.75,-4124 590.75,-4130 590.75,-4136 590.75,-4136 590.75,-4260 590.75,-4260 590.75,-4266 584.75,-4272 578.75,-4272 578.75,-4272 159.25,-4272 159.25,-4272 153.25,-4272 147.25,-4266 147.25,-4260 147.25,-4260 147.25,-4136 147.25,-4136 147.25,-4130 153.25,-4124 159.25,-4124"/>
<text text-anchor="middle" x="369" y="-4256.6" font-family="Helvetica,sans-Serif" font-weight="bold" font-size="12.00" fill="#495057">📁 hosts/homelab</text>
</g>
<g id="clust3" class="cluster">
<title>cluster_hosts_homelab_services_media</title>
<path fill="#e9ecef" stroke="#adb5bd" d="M397.5,-3040C397.5,-3040 589.75,-3040 589.75,-3040 595.75,-3040 601.75,-3046 601.75,-3052 601.75,-3052 601.75,-4104 601.75,-4104 601.75,-4110 595.75,-4116 589.75,-4116 589.75,-4116 397.5,-4116 397.5,-4116 391.5,-4116 385.5,-4110 385.5,-4104 385.5,-4104 385.5,-3052 385.5,-3052 385.5,-3046 391.5,-3040 397.5,-3040"/>
<text text-anchor="middle" x="493.62" y="-4100.6" font-family="Helvetica,sans-Serif" font-weight="bold" font-size="12.00" fill="#495057">📁 hosts/homelab/services/media</text>
</g>
<g id="clust4" class="cluster">
<title>cluster_hosts_homelab_services_monitoring</title>
<path fill="#e9ecef" stroke="#adb5bd" d="M383.62,-2420C383.62,-2420 603.62,-2420 603.62,-2420 609.62,-2420 615.62,-2426 615.62,-2432 615.62,-2432 615.62,-3020 615.62,-3020 615.62,-3026 609.62,-3032 603.62,-3032 603.62,-3032 383.62,-3032 383.62,-3032 377.62,-3032 371.62,-3026 371.62,-3020 371.62,-3020 371.62,-2432 371.62,-2432 371.62,-2426 377.62,-2420 383.62,-2420"/>
<text text-anchor="middle" x="493.62" y="-3016.6" font-family="Helvetica,sans-Serif" font-weight="bold" font-size="12.00" fill="#495057">📁 hosts/homelab/services/monitoring</text>
</g>
<g id="clust5" class="cluster">
<title>cluster_hosts_homelab_services_random</title>
<path fill="#e9ecef" stroke="#adb5bd" d="M392.62,-1452C392.62,-1452 594.62,-1452 594.62,-1452 600.62,-1452 606.62,-1458 606.62,-1464 606.62,-1464 606.62,-2400 606.62,-2400 606.62,-2406 600.62,-2412 594.62,-2412 594.62,-2412 392.62,-2412 392.62,-2412 386.62,-2412 380.62,-2406 380.62,-2400 380.62,-2400 380.62,-1464 380.62,-1464 380.62,-1458 386.62,-1452 392.62,-1452"/>
<text text-anchor="middle" x="493.62" y="-2396.6" font-family="Helvetica,sans-Serif" font-weight="bold" font-size="12.00" fill="#495057">📁 hosts/homelab/services/random</text>
</g>
<g id="clust6" class="cluster">
<title>cluster_hosts_homelab_services_security</title>
<path fill="#e9ecef" stroke="#adb5bd" d="M392.62,-1064C392.62,-1064 594.62,-1064 594.62,-1064 600.62,-1064 606.62,-1070 606.62,-1076 606.62,-1076 606.62,-1432 606.62,-1432 606.62,-1438 600.62,-1444 594.62,-1444 594.62,-1444 392.62,-1444 392.62,-1444 386.62,-1444 380.62,-1438 380.62,-1432 380.62,-1432 380.62,-1076 380.62,-1076 380.62,-1070 386.62,-1064 392.62,-1064"/>
<text text-anchor="middle" x="493.62" y="-1428.6" font-family="Helvetica,sans-Serif" font-weight="bold" font-size="12.00" fill="#495057">📁 hosts/homelab/services/security</text>
</g>
<g id="clust7" class="cluster">
<title>cluster_hosts_perso</title>
<path fill="#e9ecef" stroke="#adb5bd" d="M159.25,-302C159.25,-302 578.75,-302 578.75,-302 584.75,-302 590.75,-308 590.75,-314 590.75,-314 590.75,-380 590.75,-380 590.75,-386 584.75,-392 578.75,-392 578.75,-392 159.25,-392 159.25,-392 153.25,-392 147.25,-386 147.25,-380 147.25,-380 147.25,-314 147.25,-314 147.25,-308 153.25,-302 159.25,-302"/>
<text text-anchor="middle" x="369" y="-376.6" font-family="Helvetica,sans-Serif" font-weight="bold" font-size="12.00" fill="#495057">📁 hosts/perso</text>
</g>
<g id="clust8" class="cluster">
<title>cluster_hosts_portable</title>
<path fill="#e9ecef" stroke="#adb5bd" d="M159.25,-8C159.25,-8 578.75,-8 578.75,-8 584.75,-8 590.75,-14 590.75,-20 590.75,-20 590.75,-86 590.75,-86 590.75,-92 584.75,-98 578.75,-98 578.75,-98 159.25,-98 159.25,-98 153.25,-98 147.25,-92 147.25,-86 147.25,-86 147.25,-20 147.25,-20 147.25,-14 153.25,-8 159.25,-8"/>
<text text-anchor="middle" x="369" y="-82.6" font-family="Helvetica,sans-Serif" font-weight="bold" font-size="12.00" fill="#495057">📁 hosts/portable</text>
</g>
<g id="clust9" class="cluster">
<title>cluster_modules_dev</title>
<path fill="#e9ecef" stroke="#adb5bd" d="M446.88,-556C446.88,-556 539.38,-556 539.38,-556 545.38,-556 551.38,-562 551.38,-568 551.38,-568 551.38,-634 551.38,-634 551.38,-640 545.38,-646 539.38,-646 539.38,-646 446.88,-646 446.88,-646 440.88,-646 434.88,-640 434.88,-634 434.88,-634 434.88,-568 434.88,-568 434.88,-562 440.88,-556 446.88,-556"/>
<text text-anchor="middle" x="493.12" y="-630.6" font-family="Helvetica,sans-Serif" font-weight="bold" font-size="12.00" fill="#495057">📁 modules/dev</text>
</g>
<g id="clust10" class="cluster">
<title>cluster_modules_gaming</title>
<path fill="#e9ecef" stroke="#adb5bd" d="M438.38,-400C438.38,-400 548.88,-400 548.88,-400 554.88,-400 560.88,-406 560.88,-412 560.88,-412 560.88,-536 560.88,-536 560.88,-542 554.88,-548 548.88,-548 548.88,-548 438.38,-548 438.38,-548 432.38,-548 426.38,-542 426.38,-536 426.38,-536 426.38,-412 426.38,-412 426.38,-406 432.38,-400 438.38,-400"/>
<text text-anchor="middle" x="493.62" y="-532.6" font-family="Helvetica,sans-Serif" font-weight="bold" font-size="12.00" fill="#495057">📁 modules/gaming</text>
</g>
<g id="clust11" class="cluster">
<title>cluster_modules_hyprland</title>
<path fill="#e9ecef" stroke="#adb5bd" d="M434.62,-106C434.62,-106 552.62,-106 552.62,-106 558.62,-106 564.62,-112 564.62,-118 564.62,-118 564.62,-184 564.62,-184 564.62,-190 558.62,-196 552.62,-196 552.62,-196 434.62,-196 434.62,-196 428.62,-196 422.62,-190 422.62,-184 422.62,-184 422.62,-118 422.62,-118 422.62,-112 428.62,-106 434.62,-106"/>
<text text-anchor="middle" x="493.62" y="-180.6" font-family="Helvetica,sans-Serif" font-weight="bold" font-size="12.00" fill="#495057">📁 modules/hyprland</text>
</g>
<g id="clust12" class="cluster">
<title>cluster_modules_nixos</title>
<path fill="#e9ecef" stroke="#adb5bd" d="M449.12,-752C449.12,-752 821.88,-752 821.88,-752 827.88,-752 833.88,-758 833.88,-764 833.88,-764 833.88,-946 833.88,-946 833.88,-952 827.88,-958 821.88,-958 821.88,-958 449.12,-958 449.12,-958 443.12,-958 437.12,-952 437.12,-946 437.12,-946 437.12,-764 437.12,-764 437.12,-758 443.12,-752 449.12,-752"/>
<text text-anchor="middle" x="635.5" y="-942.6" font-family="Helvetica,sans-Serif" font-weight="bold" font-size="12.00" fill="#495057">📁 modules/nixos</text>
</g>
<g id="clust13" class="cluster">
<title>cluster_modules_terminal</title>
<path fill="#e9ecef" stroke="#adb5bd" d="M436.12,-654C436.12,-654 551.12,-654 551.12,-654 557.12,-654 563.12,-660 563.12,-666 563.12,-666 563.12,-732 563.12,-732 563.12,-738 557.12,-744 551.12,-744 551.12,-744 436.12,-744 436.12,-744 430.12,-744 424.12,-738 424.12,-732 424.12,-732 424.12,-666 424.12,-666 424.12,-660 430.12,-654 436.12,-654"/>
<text text-anchor="middle" x="493.62" y="-728.6" font-family="Helvetica,sans-Serif" font-weight="bold" font-size="12.00" fill="#495057">📁 modules/terminal</text>
</g>
<g id="clust14" class="cluster">
<title>cluster_users_arthur_homelab</title>
<path fill="#e9ecef" stroke="#adb5bd" d="M446.88,-966C446.88,-966 795.62,-966 795.62,-966 801.62,-966 807.62,-972 807.62,-978 807.62,-978 807.62,-1044 807.62,-1044 807.62,-1050 801.62,-1056 795.62,-1056 795.62,-1056 446.88,-1056 446.88,-1056 440.88,-1056 434.88,-1050 434.88,-1044 434.88,-1044 434.88,-978 434.88,-978 434.88,-972 440.88,-966 446.88,-966"/>
<text text-anchor="middle" x="621.25" y="-1040.6" font-family="Helvetica,sans-Serif" font-weight="bold" font-size="12.00" fill="#495057">📁 users/arthur&#45;homelab</text>
</g>
<g id="clust15" class="cluster">
<title>cluster_users_arthur_perso</title>
<path fill="#e9ecef" stroke="#adb5bd" d="M446.88,-204C446.88,-204 795.62,-204 795.62,-204 801.62,-204 807.62,-210 807.62,-216 807.62,-216 807.62,-282 807.62,-282 807.62,-288 801.62,-294 795.62,-294 795.62,-294 446.88,-294 446.88,-294 440.88,-294 434.88,-288 434.88,-282 434.88,-282 434.88,-216 434.88,-216 434.88,-210 440.88,-204 446.88,-204"/>
<text text-anchor="middle" x="621.25" y="-278.6" font-family="Helvetica,sans-Serif" font-weight="bold" font-size="12.00" fill="#495057">📁 users/arthur&#45;perso</text>
</g>
<!-- N0 -->
<g id="node1" class="node">
<title>N0</title>
<path fill="#f8f9fa" stroke="#ced4da" d="M63.25,-4175C63.25,-4175 12,-4175 12,-4175 6,-4175 0,-4169 0,-4163 0,-4163 0,-4151 0,-4151 0,-4145 6,-4139 12,-4139 12,-4139 63.25,-4139 63.25,-4139 69.25,-4139 75.25,-4145 75.25,-4151 75.25,-4151 75.25,-4163 75.25,-4163 75.25,-4169 69.25,-4175 63.25,-4175"/>
<text text-anchor="middle" x="37.62" y="-4154.62" font-family="Helvetica,Arial,sans-serif" font-size="10.00" fill="#212529">📄 flake.nix</text>
</g>
<!-- N1 -->
<g id="node2" class="node">
<title>N1</title>
<path fill="#f8f9fa" stroke="#ced4da" d="M251.38,-4331C251.38,-4331 188.88,-4331 188.88,-4331 182.88,-4331 176.88,-4325 176.88,-4319 176.88,-4319 176.88,-4307 176.88,-4307 176.88,-4301 182.88,-4295 188.88,-4295 188.88,-4295 251.38,-4295 251.38,-4295 257.38,-4295 263.38,-4301 263.38,-4307 263.38,-4307 263.38,-4319 263.38,-4319 263.38,-4325 257.38,-4331 251.38,-4331"/>
<text text-anchor="middle" x="220.12" y="-4310.62" font-family="Helvetica,Arial,sans-serif" font-size="10.00" fill="#212529">📄 default.nix</text>
</g>
<!-- N0&#45;&gt;N1 -->
<g id="edge1" class="edge">
<title>N0&#45;&gt;N1</title>
<path fill="none" stroke="#6c757d" d="M55.21,-4175.49C85.4,-4209.15 146.25,-4277 146.25,-4277 146.25,-4277 159.29,-4283.44 174.33,-4290.87"/>
<polygon fill="#6c757d" stroke="#6c757d" points="173.12,-4293 180.48,-4293.91 175.29,-4288.61 173.12,-4293"/>
</g>
<!-- N2 -->
<g id="node3" class="node">
<title>N2</title>
<path fill="#f8f9fa" stroke="#ced4da" d="M266,-4175C266,-4175 174.25,-4175 174.25,-4175 168.25,-4175 162.25,-4169 162.25,-4163 162.25,-4163 162.25,-4151 162.25,-4151 162.25,-4145 168.25,-4139 174.25,-4139 174.25,-4139 266,-4139 266,-4139 272,-4139 278,-4145 278,-4151 278,-4151 278,-4163 278,-4163 278,-4169 272,-4175 266,-4175"/>
<text text-anchor="middle" x="220.12" y="-4154.62" font-family="Helvetica,Arial,sans-serif" font-size="10.00" fill="#212529">📄 configuration.nix</text>
</g>
<!-- N0&#45;&gt;N2 -->
<g id="edge2" class="edge">
<title>N0&#45;&gt;N2</title>
<path fill="none" stroke="#6c757d" d="M75.59,-4157C98.02,-4157 127.29,-4157 153.54,-4157"/>
<polygon fill="#6c757d" stroke="#6c757d" points="153.43,-4159.45 160.43,-4157 153.43,-4154.55 153.43,-4159.45"/>
</g>
<!-- N3 -->
<g id="node4" class="node">
<title>N3</title>
<path fill="#f8f9fa" stroke="#ced4da" d="M257.75,-4233C257.75,-4233 182.5,-4233 182.5,-4233 176.5,-4233 170.5,-4227 170.5,-4221 170.5,-4221 170.5,-4209 170.5,-4209 170.5,-4203 176.5,-4197 182.5,-4197 182.5,-4197 257.75,-4197 257.75,-4197 263.75,-4197 269.75,-4203 269.75,-4209 269.75,-4209 269.75,-4221 269.75,-4221 269.75,-4227 263.75,-4233 257.75,-4233"/>
<text text-anchor="middle" x="220.12" y="-4212.62" font-family="Helvetica,Arial,sans-serif" font-size="10.00" fill="#212529">📄 constants.nix</text>
</g>
<!-- N0&#45;&gt;N3 -->
<g id="edge3" class="edge">
<title>N0&#45;&gt;N3</title>
<path fill="none" stroke="#6c757d" d="M75.59,-4168.88C100.57,-4176.9 134.04,-4187.66 162.38,-4196.77"/>
<polygon fill="#6c757d" stroke="#6c757d" points="161.37,-4199.01 168.78,-4198.82 162.87,-4194.35 161.37,-4199.01"/>
</g>
<!-- N55 -->
<g id="node56" class="node">
<title>N55</title>
<path fill="#f8f9fa" stroke="#ced4da" d="M266,-353C266,-353 174.25,-353 174.25,-353 168.25,-353 162.25,-347 162.25,-341 162.25,-341 162.25,-329 162.25,-329 162.25,-323 168.25,-317 174.25,-317 174.25,-317 266,-317 266,-317 272,-317 278,-323 278,-329 278,-329 278,-341 278,-341 278,-347 272,-353 266,-353"/>
<text text-anchor="middle" x="220.12" y="-332.62" font-family="Helvetica,Arial,sans-serif" font-size="10.00" fill="#212529">📄 configuration.nix</text>
</g>
<!-- N0&#45;&gt;N55 -->
<g id="edge4" class="edge">
<title>N0&#45;&gt;N55</title>
<path fill="none" stroke="#6c757d" d="M39.49,-4138.68C52.27,-3868 202.61,-684.67 217.88,-361.44"/>
<polygon fill="#6c757d" stroke="#6c757d" points="220.32,-361.73 218.2,-354.62 215.42,-361.5 220.32,-361.73"/>
</g>
<!-- N57 -->
<g id="node58" class="node">
<title>N57</title>
<path fill="#f8f9fa" stroke="#ced4da" d="M266,-59C266,-59 174.25,-59 174.25,-59 168.25,-59 162.25,-53 162.25,-47 162.25,-47 162.25,-35 162.25,-35 162.25,-29 168.25,-23 174.25,-23 174.25,-23 266,-23 266,-23 272,-23 278,-29 278,-35 278,-35 278,-47 278,-47 278,-53 272,-59 266,-59"/>
<text text-anchor="middle" x="220.12" y="-38.62" font-family="Helvetica,Arial,sans-serif" font-size="10.00" fill="#212529">📄 configuration.nix</text>
</g>
<!-- N0&#45;&gt;N57 -->
<g id="edge5" class="edge">
<title>N0&#45;&gt;N57</title>
<path fill="none" stroke="#6c757d" d="M39.13,-4138.93C47.07,-3854.09 146.25,-297 146.25,-297 146.25,-297 193.08,-132.48 211.66,-67.22"/>
<polygon fill="#6c757d" stroke="#6c757d" points="213.91,-68.27 213.47,-60.87 209.2,-66.93 213.91,-68.27"/>
</g>
<!-- N4 -->
<g id="node5" class="node">
<title>N4</title>
<path fill="#f8f9fa" stroke="#ced4da" d="M563.75,-4175C563.75,-4175 422.5,-4175 422.5,-4175 416.5,-4175 410.5,-4169 410.5,-4163 410.5,-4163 410.5,-4151 410.5,-4151 410.5,-4145 416.5,-4139 422.5,-4139 422.5,-4139 563.75,-4139 563.75,-4139 569.75,-4139 575.75,-4145 575.75,-4151 575.75,-4151 575.75,-4163 575.75,-4163 575.75,-4169 569.75,-4175 563.75,-4175"/>
<text text-anchor="middle" x="493.12" y="-4154.62" font-family="Helvetica,Arial,sans-serif" font-size="10.00" fill="#212529">📄 hardware&#45;configuration.nix</text>
</g>
<!-- N2&#45;&gt;N4 -->
<g id="edge6" class="edge">
<title>N2&#45;&gt;N4</title>
<path fill="none" stroke="#6c757d" d="M278.27,-4157C314.08,-4157 361.02,-4157 401.79,-4157"/>
<polygon fill="#6c757d" stroke="#6c757d" points="401.61,-4159.45 408.61,-4157 401.61,-4154.55 401.61,-4159.45"/>
</g>
<!-- N5 -->
<g id="node6" class="node">
<title>N5</title>
<path fill="#f8f9fa" stroke="#ced4da" d="M522.5,-3091C522.5,-3091 463.75,-3091 463.75,-3091 457.75,-3091 451.75,-3085 451.75,-3079 451.75,-3079 451.75,-3067 451.75,-3067 451.75,-3061 457.75,-3055 463.75,-3055 463.75,-3055 522.5,-3055 522.5,-3055 528.5,-3055 534.5,-3061 534.5,-3067 534.5,-3067 534.5,-3079 534.5,-3079 534.5,-3085 528.5,-3091 522.5,-3091"/>
<text text-anchor="middle" x="493.12" y="-3070.62" font-family="Helvetica,Arial,sans-serif" font-size="10.00" fill="#212529">📄 ariang.nix</text>
</g>
<!-- N2&#45;&gt;N5 -->
<g id="edge7" class="edge">
<title>N2&#45;&gt;N5</title>
<path fill="none" stroke="#6c757d" d="M223.74,-4138.69C243.72,-3998.6 371.62,-3102 371.62,-3102 371.62,-3102 409.98,-3092.77 443.41,-3084.72"/>
<polygon fill="#6c757d" stroke="#6c757d" points="443.63,-3087.19 449.86,-3083.17 442.48,-3082.43 443.63,-3087.19"/>
</g>
<!-- N6 -->
<g id="node7" class="node">
<title>N6</title>
<path fill="#f8f9fa" stroke="#ced4da" d="M522.5,-3149C522.5,-3149 463.75,-3149 463.75,-3149 457.75,-3149 451.75,-3143 451.75,-3137 451.75,-3137 451.75,-3125 451.75,-3125 451.75,-3119 457.75,-3113 463.75,-3113 463.75,-3113 522.5,-3113 522.5,-3113 528.5,-3113 534.5,-3119 534.5,-3125 534.5,-3125 534.5,-3137 534.5,-3137 534.5,-3143 528.5,-3149 522.5,-3149"/>
<text text-anchor="middle" x="493.12" y="-3128.62" font-family="Helvetica,Arial,sans-serif" font-size="10.00" fill="#212529">📄 byparr.nix</text>
</g>
<!-- N2&#45;&gt;N6 -->
<g id="edge8" class="edge">
<title>N2&#45;&gt;N6</title>
<path fill="none" stroke="#6c757d" d="M223.87,-4138.84C244.26,-4003.72 371.62,-3160 371.62,-3160 371.62,-3160 409.98,-3150.77 443.41,-3142.72"/>
<polygon fill="#6c757d" stroke="#6c757d" points="443.63,-3145.19 449.86,-3141.17 442.48,-3140.43 443.63,-3145.19"/>
</g>
<!-- N7 -->
<g id="node8" class="node">
<title>N7</title>
<path fill="#f8f9fa" stroke="#ced4da" d="M532.62,-3207C532.62,-3207 453.62,-3207 453.62,-3207 447.62,-3207 441.62,-3201 441.62,-3195 441.62,-3195 441.62,-3183 441.62,-3183 441.62,-3177 447.62,-3171 453.62,-3171 453.62,-3171 532.62,-3171 532.62,-3171 538.62,-3171 544.62,-3177 544.62,-3183 544.62,-3183 544.62,-3195 544.62,-3195 544.62,-3201 538.62,-3207 532.62,-3207"/>
<text text-anchor="middle" x="493.12" y="-3186.62" font-family="Helvetica,Arial,sans-serif" font-size="10.00" fill="#212529">📄 cleanuparr.nix</text>
</g>
<!-- N2&#45;&gt;N7 -->
<g id="edge9" class="edge">
<title>N2&#45;&gt;N7</title>
<path fill="none" stroke="#6c757d" d="M224.06,-4138.66C245.07,-4007.58 371.62,-3218 371.62,-3218 371.62,-3218 402.65,-3210.53 433.21,-3203.18"/>
<polygon fill="#6c757d" stroke="#6c757d" points="433.67,-3205.59 439.9,-3201.57 432.52,-3200.82 433.67,-3205.59"/>
</g>
<!-- N8 -->
<g id="node9" class="node">
<title>N8</title>
<path fill="#f8f9fa" stroke="#ced4da" d="M523.62,-3265C523.62,-3265 462.62,-3265 462.62,-3265 456.62,-3265 450.62,-3259 450.62,-3253 450.62,-3253 450.62,-3241 450.62,-3241 450.62,-3235 456.62,-3229 462.62,-3229 462.62,-3229 523.62,-3229 523.62,-3229 529.62,-3229 535.62,-3235 535.62,-3241 535.62,-3241 535.62,-3253 535.62,-3253 535.62,-3259 529.62,-3265 523.62,-3265"/>
<text text-anchor="middle" x="493.12" y="-3244.62" font-family="Helvetica,Arial,sans-serif" font-size="10.00" fill="#212529">📄 feishin.nix</text>
</g>
<!-- N2&#45;&gt;N8 -->
<g id="edge10" class="edge">
<title>N2&#45;&gt;N8</title>
<path fill="none" stroke="#6c757d" d="M224.27,-4138.6C245.88,-4012.08 371.62,-3276 371.62,-3276 371.62,-3276 409.24,-3266.95 442.44,-3258.96"/>
<polygon fill="#6c757d" stroke="#6c757d" points="442.61,-3261.44 448.85,-3257.42 441.47,-3256.67 442.61,-3261.44"/>
</g>
<!-- N9 -->
<g id="node10" class="node">
<title>N9</title>
<path fill="#f8f9fa" stroke="#ced4da" d="M557.75,-3323C557.75,-3323 428.5,-3323 428.5,-3323 422.5,-3323 416.5,-3317 416.5,-3311 416.5,-3311 416.5,-3299 416.5,-3299 416.5,-3293 422.5,-3287 428.5,-3287 428.5,-3287 557.75,-3287 557.75,-3287 563.75,-3287 569.75,-3293 569.75,-3299 569.75,-3299 569.75,-3311 569.75,-3311 569.75,-3317 563.75,-3323 557.75,-3323"/>
<text text-anchor="middle" x="493.12" y="-3302.62" font-family="Helvetica,Arial,sans-serif" font-size="10.00" fill="#212529">📄 filebrowser&#45;quantum.nix</text>
</g>
<!-- N2&#45;&gt;N9 -->
<g id="edge11" class="edge">
<title>N2&#45;&gt;N9</title>
<path fill="none" stroke="#6c757d" d="M224.48,-4138.66C246.69,-4017.22 371.62,-3334 371.62,-3334 371.62,-3334 387.72,-3330.13 408.14,-3325.21"/>
<polygon fill="#6c757d" stroke="#6c757d" points="408.45,-3327.66 414.68,-3323.64 407.3,-3322.89 408.45,-3327.66"/>
</g>
<!-- N10 -->
<g id="node11" class="node">
<title>N10</title>
<path fill="#f8f9fa" stroke="#ced4da" d="M525.5,-3381C525.5,-3381 460.75,-3381 460.75,-3381 454.75,-3381 448.75,-3375 448.75,-3369 448.75,-3369 448.75,-3357 448.75,-3357 448.75,-3351 454.75,-3345 460.75,-3345 460.75,-3345 525.5,-3345 525.5,-3345 531.5,-3345 537.5,-3351 537.5,-3357 537.5,-3357 537.5,-3369 537.5,-3369 537.5,-3375 531.5,-3381 525.5,-3381"/>
<text text-anchor="middle" x="493.12" y="-3360.62" font-family="Helvetica,Arial,sans-serif" font-size="10.00" fill="#212529">📄 immich.nix</text>
</g>
<!-- N2&#45;&gt;N10 -->
<g id="edge12" class="edge">
<title>N2&#45;&gt;N10</title>
<path fill="none" stroke="#6c757d" d="M224.7,-4138.84C247.49,-4023 371.62,-3392 371.62,-3392 371.62,-3392 407.49,-3383.37 440.09,-3375.52"/>
<polygon fill="#6c757d" stroke="#6c757d" points="440.58,-3377.93 446.81,-3373.91 439.43,-3373.16 440.58,-3377.93"/>
</g>
<!-- N11 -->
<g id="node12" class="node">
<title>N11</title>
<path fill="#f8f9fa" stroke="#ced4da" d="M523.62,-3439C523.62,-3439 462.62,-3439 462.62,-3439 456.62,-3439 450.62,-3433 450.62,-3427 450.62,-3427 450.62,-3415 450.62,-3415 450.62,-3409 456.62,-3403 462.62,-3403 462.62,-3403 523.62,-3403 523.62,-3403 529.62,-3403 535.62,-3409 535.62,-3415 535.62,-3415 535.62,-3427 535.62,-3427 535.62,-3433 529.62,-3439 523.62,-3439"/>
<text text-anchor="middle" x="493.12" y="-3418.62" font-family="Helvetica,Arial,sans-serif" font-size="10.00" fill="#212529">📄 jellyfin.nix</text>
</g>
<!-- N2&#45;&gt;N11 -->
<g id="edge13" class="edge">
<title>N2&#45;&gt;N11</title>
<path fill="none" stroke="#6c757d" d="M225,-4138.81C248.55,-4028.15 371.62,-3450 371.62,-3450 371.62,-3450 409.24,-3440.95 442.44,-3432.96"/>
<polygon fill="#6c757d" stroke="#6c757d" points="442.61,-3435.44 448.85,-3431.42 441.47,-3430.67 442.61,-3435.44"/>
</g>
<!-- N12 -->
<g id="node13" class="node">
<title>N12</title>
<path fill="#f8f9fa" stroke="#ced4da" d="M523.62,-3497C523.62,-3497 462.62,-3497 462.62,-3497 456.62,-3497 450.62,-3491 450.62,-3485 450.62,-3485 450.62,-3473 450.62,-3473 450.62,-3467 456.62,-3461 462.62,-3461 462.62,-3461 523.62,-3461 523.62,-3461 529.62,-3461 535.62,-3467 535.62,-3473 535.62,-3473 535.62,-3485 535.62,-3485 535.62,-3491 529.62,-3497 523.62,-3497"/>
<text text-anchor="middle" x="493.12" y="-3476.62" font-family="Helvetica,Arial,sans-serif" font-size="10.00" fill="#212529">📄 komga.nix</text>
</g>
<!-- N2&#45;&gt;N12 -->
<g id="edge14" class="edge">
<title>N2&#45;&gt;N12</title>
<path fill="none" stroke="#6c757d" d="M225.39,-4138.62C249.88,-4033.01 371.62,-3508 371.62,-3508 371.62,-3508 409.24,-3498.95 442.44,-3490.96"/>
<polygon fill="#6c757d" stroke="#6c757d" points="442.61,-3493.44 448.85,-3489.42 441.47,-3488.67 442.61,-3493.44"/>
</g>
<!-- N13 -->
<g id="node14" class="node">
<title>N13</title>
<path fill="#f8f9fa" stroke="#ced4da" d="M533.38,-3555C533.38,-3555 452.88,-3555 452.88,-3555 446.88,-3555 440.88,-3549 440.88,-3543 440.88,-3543 440.88,-3531 440.88,-3531 440.88,-3525 446.88,-3519 452.88,-3519 452.88,-3519 533.38,-3519 533.38,-3519 539.38,-3519 545.38,-3525 545.38,-3531 545.38,-3531 545.38,-3543 545.38,-3543 545.38,-3549 539.38,-3555 533.38,-3555"/>
<text text-anchor="middle" x="493.12" y="-3534.62" font-family="Helvetica,Arial,sans-serif" font-size="10.00" fill="#212529">📄 navidrome.nix</text>
</g>
<!-- N2&#45;&gt;N13 -->
<g id="edge15" class="edge">
<title>N2&#45;&gt;N13</title>
<path fill="none" stroke="#6c757d" d="M225.79,-4138.66C251.2,-4038.91 371.62,-3566 371.62,-3566 371.62,-3566 402.21,-3558.64 432.56,-3551.33"/>
<polygon fill="#6c757d" stroke="#6c757d" points="432.97,-3553.76 439.2,-3549.74 431.82,-3548.99 432.97,-3553.76"/>
</g>
<!-- N14 -->
<g id="node15" class="node">
<title>N14</title>
<path fill="#f8f9fa" stroke="#ced4da" d="M531.12,-3613C531.12,-3613 455.12,-3613 455.12,-3613 449.12,-3613 443.12,-3607 443.12,-3601 443.12,-3601 443.12,-3589 443.12,-3589 443.12,-3583 449.12,-3577 455.12,-3577 455.12,-3577 531.12,-3577 531.12,-3577 537.12,-3577 543.12,-3583 543.12,-3589 543.12,-3589 543.12,-3601 543.12,-3601 543.12,-3607 537.12,-3613 531.12,-3613"/>
<text text-anchor="middle" x="493.12" y="-3592.62" font-family="Helvetica,Arial,sans-serif" font-size="10.00" fill="#212529">📄 onlyoffice.nix</text>
</g>
<!-- N2&#45;&gt;N14 -->
<g id="edge16" class="edge">
<title>N2&#45;&gt;N14</title>
<path fill="none" stroke="#6c757d" d="M226.31,-4138.65C252.77,-4044.93 371.62,-3624 371.62,-3624 371.62,-3624 403.53,-3616.32 434.51,-3608.87"/>
<polygon fill="#6c757d" stroke="#6c757d" points="435.06,-3611.25 441.29,-3607.23 433.91,-3606.49 435.06,-3611.25"/>
</g>
<!-- N15 -->
<g id="node16" class="node">
<title>N15</title>
<path fill="#f8f9fa" stroke="#ced4da" d="M527,-3671C527,-3671 459.25,-3671 459.25,-3671 453.25,-3671 447.25,-3665 447.25,-3659 447.25,-3659 447.25,-3647 447.25,-3647 447.25,-3641 453.25,-3635 459.25,-3635 459.25,-3635 527,-3635 527,-3635 533,-3635 539,-3641 539,-3647 539,-3647 539,-3659 539,-3659 539,-3665 533,-3671 527,-3671"/>
<text text-anchor="middle" x="493.12" y="-3650.62" font-family="Helvetica,Arial,sans-serif" font-size="10.00" fill="#212529">📄 prowlarr.nix</text>
</g>
<!-- N2&#45;&gt;N15 -->
<g id="edge17" class="edge">
<title>N2&#45;&gt;N15</title>
<path fill="none" stroke="#6c757d" d="M226.93,-4138.67C254.59,-4051.38 371.62,-3682 371.62,-3682 371.62,-3682 406.55,-3673.59 438.8,-3665.83"/>
<polygon fill="#6c757d" stroke="#6c757d" points="439.21,-3668.26 445.44,-3664.24 438.06,-3663.49 439.21,-3668.26"/>
</g>
<!-- N16 -->
<g id="node17" class="node">
<title>N16</title>
<path fill="#f8f9fa" stroke="#ced4da" d="M533,-3729C533,-3729 453.25,-3729 453.25,-3729 447.25,-3729 441.25,-3723 441.25,-3717 441.25,-3717 441.25,-3705 441.25,-3705 441.25,-3699 447.25,-3693 453.25,-3693 453.25,-3693 533,-3693 533,-3693 539,-3693 545,-3699 545,-3705 545,-3705 545,-3717 545,-3717 545,-3723 539,-3729 533,-3729"/>
<text text-anchor="middle" x="493.12" y="-3708.62" font-family="Helvetica,Arial,sans-serif" font-size="10.00" fill="#212529">📄 qbittorrent.nix</text>
</g>
<!-- N2&#45;&gt;N16 -->
<g id="edge18" class="edge">
<title>N2&#45;&gt;N16</title>
<path fill="none" stroke="#6c757d" d="M227.79,-4138.54C256.91,-4057.84 371.62,-3740 371.62,-3740 371.62,-3740 402.43,-3732.59 432.89,-3725.26"/>
<polygon fill="#6c757d" stroke="#6c757d" points="433.32,-3727.67 439.55,-3723.65 432.17,-3722.91 433.32,-3727.67"/>
</g>
<!-- N17 -->
<g id="node18" class="node">
<title>N17</title>
<path fill="#f8f9fa" stroke="#ced4da" d="M521.38,-3787C521.38,-3787 464.88,-3787 464.88,-3787 458.88,-3787 452.88,-3781 452.88,-3775 452.88,-3775 452.88,-3763 452.88,-3763 452.88,-3757 458.88,-3751 464.88,-3751 464.88,-3751 521.38,-3751 521.38,-3751 527.38,-3751 533.38,-3757 533.38,-3763 533.38,-3763 533.38,-3775 533.38,-3775 533.38,-3781 527.38,-3787 521.38,-3787"/>
<text text-anchor="middle" x="493.12" y="-3766.62" font-family="Helvetica,Arial,sans-serif" font-size="10.00" fill="#212529">📄 radarr.nix</text>
</g>
<!-- N2&#45;&gt;N17 -->
<g id="edge19" class="edge">
<title>N2&#45;&gt;N17</title>
<path fill="none" stroke="#6c757d" d="M228.8,-4138.7C259.46,-4065.55 371.62,-3798 371.62,-3798 371.62,-3798 410.97,-3788.53 444.69,-3780.42"/>
<polygon fill="#6c757d" stroke="#6c757d" points="444.96,-3782.87 451.2,-3778.85 443.82,-3778.11 444.96,-3782.87"/>
</g>
<!-- N18 -->
<g id="node19" class="node">
<title>N18</title>
<path fill="#f8f9fa" stroke="#ced4da" d="M528.12,-3845C528.12,-3845 458.12,-3845 458.12,-3845 452.12,-3845 446.12,-3839 446.12,-3833 446.12,-3833 446.12,-3821 446.12,-3821 446.12,-3815 452.12,-3809 458.12,-3809 458.12,-3809 528.12,-3809 528.12,-3809 534.12,-3809 540.12,-3815 540.12,-3821 540.12,-3821 540.12,-3833 540.12,-3833 540.12,-3839 534.12,-3845 528.12,-3845"/>
<text text-anchor="middle" x="493.12" y="-3824.62" font-family="Helvetica,Arial,sans-serif" font-size="10.00" fill="#212529">📄 recyclarr.nix</text>
</g>
<!-- N2&#45;&gt;N18 -->
<g id="edge20" class="edge">
<title>N2&#45;&gt;N18</title>
<path fill="none" stroke="#6c757d" d="M230.31,-4138.62C262.99,-4073.27 371.62,-3856 371.62,-3856 371.62,-3856 405.85,-3847.76 437.82,-3840.07"/>
<polygon fill="#6c757d" stroke="#6c757d" points="438.18,-3842.5 444.41,-3838.48 437.03,-3837.74 438.18,-3842.5"/>
</g>
<!-- N19 -->
<g id="node20" class="node">
<title>N19</title>
<path fill="#f8f9fa" stroke="#ced4da" d="M517.25,-3903C517.25,-3903 469,-3903 469,-3903 463,-3903 457,-3897 457,-3891 457,-3891 457,-3879 457,-3879 457,-3873 463,-3867 469,-3867 469,-3867 517.25,-3867 517.25,-3867 523.25,-3867 529.25,-3873 529.25,-3879 529.25,-3879 529.25,-3891 529.25,-3891 529.25,-3897 523.25,-3903 517.25,-3903"/>
<text text-anchor="middle" x="493.12" y="-3882.62" font-family="Helvetica,Arial,sans-serif" font-size="10.00" fill="#212529">📄 seer.nix</text>
</g>
<!-- N2&#45;&gt;N19 -->
<g id="edge21" class="edge">
<title>N2&#45;&gt;N19</title>
<path fill="none" stroke="#6c757d" d="M232.44,-4138.74C267.44,-4082.22 371.62,-3914 371.62,-3914 371.62,-3914 414.01,-3903.8 448.5,-3895.5"/>
<polygon fill="#6c757d" stroke="#6c757d" points="448.92,-3897.92 455.15,-3893.9 447.77,-3893.15 448.92,-3897.92"/>
</g>
<!-- N20 -->
<g id="node21" class="node">
<title>N20</title>
<path fill="#f8f9fa" stroke="#ced4da" d="M522.12,-3961C522.12,-3961 464.12,-3961 464.12,-3961 458.12,-3961 452.12,-3955 452.12,-3949 452.12,-3949 452.12,-3937 452.12,-3937 452.12,-3931 458.12,-3925 464.12,-3925 464.12,-3925 522.12,-3925 522.12,-3925 528.12,-3925 534.12,-3931 534.12,-3937 534.12,-3937 534.12,-3949 534.12,-3949 534.12,-3955 528.12,-3961 522.12,-3961"/>
<text text-anchor="middle" x="493.12" y="-3940.62" font-family="Helvetica,Arial,sans-serif" font-size="10.00" fill="#212529">📄 sonarr.nix</text>
</g>
<!-- N2&#45;&gt;N20 -->
<g id="edge22" class="edge">
<title>N2&#45;&gt;N20</title>
<path fill="none" stroke="#6c757d" d="M236.11,-4138.59C274.17,-4091.79 371.62,-3972 371.62,-3972 371.62,-3972 410.22,-3962.71 443.73,-3954.65"/>
<polygon fill="#6c757d" stroke="#6c757d" points="443.96,-3957.11 450.19,-3953.09 442.81,-3952.35 443.96,-3957.11"/>
</g>
<!-- N21 -->
<g id="node22" class="node">
<title>N21</title>
<path fill="#f8f9fa" stroke="#ced4da" d="M532.25,-4019C532.25,-4019 454,-4019 454,-4019 448,-4019 442,-4013 442,-4007 442,-4007 442,-3995 442,-3995 442,-3989 448,-3983 454,-3983 454,-3983 532.25,-3983 532.25,-3983 538.25,-3983 544.25,-3989 544.25,-3995 544.25,-3995 544.25,-4007 544.25,-4007 544.25,-4013 538.25,-4019 532.25,-4019"/>
<text text-anchor="middle" x="493.12" y="-3998.62" font-family="Helvetica,Arial,sans-serif" font-size="10.00" fill="#212529">📄 suwayomi.nix</text>
</g>
<!-- N2&#45;&gt;N21 -->
<g id="edge23" class="edge">
<title>N2&#45;&gt;N21</title>
<path fill="none" stroke="#6c757d" d="M243.01,-4138.53C284.75,-4103.31 371.62,-4030 371.62,-4030 371.62,-4030 402.87,-4022.48 433.54,-4015.1"/>
<polygon fill="#6c757d" stroke="#6c757d" points="434.02,-4017.5 440.25,-4013.48 432.87,-4012.74 434.02,-4017.5"/>
</g>
<!-- N22 -->
<g id="node23" class="node">
<title>N22</title>
<path fill="#f8f9fa" stroke="#ced4da" d="M522.88,-4077C522.88,-4077 463.38,-4077 463.38,-4077 457.38,-4077 451.38,-4071 451.38,-4065 451.38,-4065 451.38,-4053 451.38,-4053 451.38,-4047 457.38,-4041 463.38,-4041 463.38,-4041 522.88,-4041 522.88,-4041 528.88,-4041 534.88,-4047 534.88,-4053 534.88,-4053 534.88,-4065 534.88,-4065 534.88,-4071 528.88,-4077 522.88,-4077"/>
<text text-anchor="middle" x="493.12" y="-4056.62" font-family="Helvetica,Arial,sans-serif" font-size="10.00" fill="#212529">📄 tranga.nix</text>
</g>
<!-- N2&#45;&gt;N22 -->
<g id="edge24" class="edge">
<title>N2&#45;&gt;N22</title>
<path fill="none" stroke="#6c757d" d="M272.1,-4138.57C321.19,-4120.81 394.92,-4094.15 443.29,-4076.66"/>
<polygon fill="#6c757d" stroke="#6c757d" points="443.94,-4079.03 449.69,-4074.34 442.28,-4074.42 443.94,-4079.03"/>
</g>
<!-- N23 -->
<g id="node24" class="node">
<title>N23</title>
<path fill="#f8f9fa" stroke="#ced4da" d="M518.38,-2703C518.38,-2703 467.88,-2703 467.88,-2703 461.88,-2703 455.88,-2697 455.88,-2691 455.88,-2691 455.88,-2679 455.88,-2679 455.88,-2673 461.88,-2667 467.88,-2667 467.88,-2667 518.38,-2667 518.38,-2667 524.38,-2667 530.38,-2673 530.38,-2679 530.38,-2679 530.38,-2691 530.38,-2691 530.38,-2697 524.38,-2703 518.38,-2703"/>
<text text-anchor="middle" x="493.12" y="-2682.62" font-family="Helvetica,Arial,sans-serif" font-size="10.00" fill="#212529">📄 alloy.nix</text>
</g>
<!-- N2&#45;&gt;N23 -->
<g id="edge25" class="edge">
<title>N2&#45;&gt;N23</title>
<path fill="none" stroke="#6c757d" d="M223.03,-4138.76C240.45,-3971.71 371.62,-2714 371.62,-2714 371.62,-2714 413.24,-2703.99 447.56,-2695.73"/>
<polygon fill="#6c757d" stroke="#6c757d" points="447.94,-2698.15 454.17,-2694.13 446.79,-2693.39 447.94,-2698.15"/>
</g>
<!-- N24 -->
<g id="node25" class="node">
<title>N24</title>
<path fill="#f8f9fa" stroke="#ced4da" d="M531.88,-2761C531.88,-2761 454.38,-2761 454.38,-2761 448.38,-2761 442.38,-2755 442.38,-2749 442.38,-2749 442.38,-2737 442.38,-2737 442.38,-2731 448.38,-2725 454.38,-2725 454.38,-2725 531.88,-2725 531.88,-2725 537.88,-2725 543.88,-2731 543.88,-2737 543.88,-2737 543.88,-2749 543.88,-2749 543.88,-2755 537.88,-2761 531.88,-2761"/>
<text text-anchor="middle" x="493.12" y="-2740.62" font-family="Helvetica,Arial,sans-serif" font-size="10.00" fill="#212529">📄 borgmatic.nix</text>
</g>
<!-- N2&#45;&gt;N24 -->
<g id="edge26" class="edge">
<title>N2&#45;&gt;N24</title>
<path fill="none" stroke="#6c757d" d="M223.11,-4138.73C240.86,-3975.38 371.62,-2772 371.62,-2772 371.62,-2772 403.09,-2764.43 433.86,-2757.02"/>
<polygon fill="#6c757d" stroke="#6c757d" points="434.37,-2759.42 440.6,-2755.4 433.22,-2754.66 434.37,-2759.42"/>
</g>
<!-- N25 -->
<g id="node26" class="node">
<title>N25</title>
<path fill="#f8f9fa" stroke="#ced4da" d="M525.88,-2819C525.88,-2819 460.38,-2819 460.38,-2819 454.38,-2819 448.38,-2813 448.38,-2807 448.38,-2807 448.38,-2795 448.38,-2795 448.38,-2789 454.38,-2783 460.38,-2783 460.38,-2783 525.88,-2783 525.88,-2783 531.88,-2783 537.88,-2789 537.88,-2795 537.88,-2795 537.88,-2807 537.88,-2807 537.88,-2813 531.88,-2819 525.88,-2819"/>
<text text-anchor="middle" x="493.12" y="-2798.62" font-family="Helvetica,Arial,sans-serif" font-size="10.00" fill="#212529">📄 grafana.nix</text>
</g>
<!-- N2&#45;&gt;N25 -->
<g id="edge27" class="edge">
<title>N2&#45;&gt;N25</title>
<path fill="none" stroke="#6c757d" d="M223.2,-4138.75C241.27,-3979.36 371.62,-2830 371.62,-2830 371.62,-2830 407.25,-2821.43 439.76,-2813.6"/>
<polygon fill="#6c757d" stroke="#6c757d" points="440.24,-2816.01 446.47,-2811.99 439.09,-2811.24 440.24,-2816.01"/>
</g>
<!-- N26 -->
<g id="node27" class="node">
<title>N26</title>
<path fill="#f8f9fa" stroke="#ced4da" d="M516.12,-2877C516.12,-2877 470.12,-2877 470.12,-2877 464.12,-2877 458.12,-2871 458.12,-2865 458.12,-2865 458.12,-2853 458.12,-2853 458.12,-2847 464.12,-2841 470.12,-2841 470.12,-2841 516.12,-2841 516.12,-2841 522.12,-2841 528.12,-2847 528.12,-2853 528.12,-2853 528.12,-2865 528.12,-2865 528.12,-2871 522.12,-2877 516.12,-2877"/>
<text text-anchor="middle" x="493.12" y="-2856.62" font-family="Helvetica,Arial,sans-serif" font-size="10.00" fill="#212529">📄 loki.nix</text>
</g>
<!-- N2&#45;&gt;N26 -->
<g id="edge28" class="edge">
<title>N2&#45;&gt;N26</title>
<path fill="none" stroke="#6c757d" d="M223.31,-4138.57C241.82,-3982.52 371.62,-2888 371.62,-2888 371.62,-2888 415.05,-2877.55 449.76,-2869.2"/>
<polygon fill="#6c757d" stroke="#6c757d" points="450.21,-2871.61 456.45,-2867.59 449.07,-2866.84 450.21,-2871.61"/>
</g>
<!-- N27 -->
<g id="node28" class="node">
<title>N27</title>
<path fill="#f8f9fa" stroke="#ced4da" d="M525.88,-2935C525.88,-2935 460.38,-2935 460.38,-2935 454.38,-2935 448.38,-2929 448.38,-2923 448.38,-2923 448.38,-2911 448.38,-2911 448.38,-2905 454.38,-2899 460.38,-2899 460.38,-2899 525.88,-2899 525.88,-2899 531.88,-2899 537.88,-2905 537.88,-2911 537.88,-2911 537.88,-2923 537.88,-2923 537.88,-2929 531.88,-2935 525.88,-2935"/>
<text text-anchor="middle" x="493.12" y="-2914.62" font-family="Helvetica,Arial,sans-serif" font-size="10.00" fill="#212529">📄 netdata.nix</text>
</g>
<!-- N2&#45;&gt;N27 -->
<g id="edge29" class="edge">
<title>N2&#45;&gt;N27</title>
<path fill="none" stroke="#6c757d" d="M223.37,-4138.94C242.09,-3988.3 371.62,-2946 371.62,-2946 371.62,-2946 407.25,-2937.43 439.76,-2929.6"/>
<polygon fill="#6c757d" stroke="#6c757d" points="440.24,-2932.01 446.47,-2927.99 439.09,-2927.24 440.24,-2932.01"/>
</g>
<!-- N28 -->
<g id="node29" class="node">
<title>N28</title>
<path fill="#f8f9fa" stroke="#ced4da" d="M542.75,-2993C542.75,-2993 443.5,-2993 443.5,-2993 437.5,-2993 431.5,-2987 431.5,-2981 431.5,-2981 431.5,-2969 431.5,-2969 431.5,-2963 437.5,-2957 443.5,-2957 443.5,-2957 542.75,-2957 542.75,-2957 548.75,-2957 554.75,-2963 554.75,-2969 554.75,-2969 554.75,-2981 554.75,-2981 554.75,-2987 548.75,-2993 542.75,-2993"/>
<text text-anchor="middle" x="493.12" y="-2972.62" font-family="Helvetica,Arial,sans-serif" font-size="10.00" fill="#212529">📄 power&#45;monitor.nix</text>
</g>
<!-- N2&#45;&gt;N28 -->
<g id="edge30" class="edge">
<title>N2&#45;&gt;N28</title>
<path fill="none" stroke="#6c757d" d="M223.55,-4138.92C242.91,-3994.61 371.62,-3035 371.62,-3035 371.62,-3035 413.42,-3014.19 447.79,-2997.08"/>
<polygon fill="#6c757d" stroke="#6c757d" points="448.46,-2999.48 453.63,-2994.17 446.27,-2995.09 448.46,-2999.48"/>
</g>
<!-- N29 -->
<g id="node30" class="node">
<title>N29</title>
<path fill="#f8f9fa" stroke="#ced4da" d="M536.38,-2471C536.38,-2471 449.88,-2471 449.88,-2471 443.88,-2471 437.88,-2465 437.88,-2459 437.88,-2459 437.88,-2447 437.88,-2447 437.88,-2441 443.88,-2435 449.88,-2435 449.88,-2435 536.38,-2435 536.38,-2435 542.38,-2435 548.38,-2441 548.38,-2447 548.38,-2447 548.38,-2459 548.38,-2459 548.38,-2465 542.38,-2471 536.38,-2471"/>
<text text-anchor="middle" x="493.12" y="-2450.62" font-family="Helvetica,Arial,sans-serif" font-size="10.00" fill="#212529">📄 prometheus.nix</text>
</g>
<!-- N2&#45;&gt;N29 -->
<g id="edge31" class="edge">
<title>N2&#45;&gt;N29</title>
<path fill="none" stroke="#6c757d" d="M222.76,-4138.76C239.07,-3957.24 371.62,-2482 371.62,-2482 371.62,-2482 400.04,-2475.16 429.27,-2468.13"/>
<polygon fill="#6c757d" stroke="#6c757d" points="429.81,-2470.52 436.04,-2466.5 428.67,-2465.75 429.81,-2470.52"/>
</g>
<!-- N30 -->
<g id="node31" class="node">
<title>N30</title>
<path fill="#f8f9fa" stroke="#ced4da" d="M525.88,-2529C525.88,-2529 460.38,-2529 460.38,-2529 454.38,-2529 448.38,-2523 448.38,-2517 448.38,-2517 448.38,-2505 448.38,-2505 448.38,-2499 454.38,-2493 460.38,-2493 460.38,-2493 525.88,-2493 525.88,-2493 531.88,-2493 537.88,-2499 537.88,-2505 537.88,-2505 537.88,-2517 537.88,-2517 537.88,-2523 531.88,-2529 525.88,-2529"/>
<text text-anchor="middle" x="493.12" y="-2508.62" font-family="Helvetica,Arial,sans-serif" font-size="10.00" fill="#212529">📄 scrutiny.nix</text>
</g>
<!-- N2&#45;&gt;N30 -->
<g id="edge32" class="edge">
<title>N2&#45;&gt;N30</title>
<path fill="none" stroke="#6c757d" d="M222.84,-4138.56C239.49,-3959.71 371.62,-2540 371.62,-2540 371.62,-2540 407.25,-2531.43 439.76,-2523.6"/>
<polygon fill="#6c757d" stroke="#6c757d" points="440.24,-2526.01 446.47,-2521.99 439.09,-2521.24 440.24,-2526.01"/>
</g>
<!-- N31 -->
<g id="node32" class="node">
<title>N31</title>
<path fill="#f8f9fa" stroke="#ced4da" d="M539.75,-2587C539.75,-2587 446.5,-2587 446.5,-2587 440.5,-2587 434.5,-2581 434.5,-2575 434.5,-2575 434.5,-2563 434.5,-2563 434.5,-2557 440.5,-2551 446.5,-2551 446.5,-2551 539.75,-2551 539.75,-2551 545.75,-2551 551.75,-2557 551.75,-2563 551.75,-2563 551.75,-2575 551.75,-2575 551.75,-2581 545.75,-2587 539.75,-2587"/>
<text text-anchor="middle" x="493.12" y="-2566.62" font-family="Helvetica,Arial,sans-serif" font-size="10.00" fill="#212529">📄 uptime&#45;kuma.nix</text>
</g>
<!-- N2&#45;&gt;N31 -->
<g id="edge33" class="edge">
<title>N2&#45;&gt;N31</title>
<path fill="none" stroke="#6c757d" d="M222.89,-4138.68C239.76,-3963.94 371.62,-2598 371.62,-2598 371.62,-2598 398.19,-2591.61 426.37,-2584.82"/>
<polygon fill="#6c757d" stroke="#6c757d" points="426.64,-2587.28 432.87,-2583.26 425.5,-2582.52 426.64,-2587.28"/>
</g>
<!-- N32 -->
<g id="node33" class="node">
<title>N32</title>
<path fill="#f8f9fa" stroke="#ced4da" d="M547.25,-2645C547.25,-2645 439,-2645 439,-2645 433,-2645 427,-2639 427,-2633 427,-2633 427,-2621 427,-2621 427,-2615 433,-2609 439,-2609 439,-2609 547.25,-2609 547.25,-2609 553.25,-2609 559.25,-2615 559.25,-2621 559.25,-2621 559.25,-2633 559.25,-2633 559.25,-2639 553.25,-2645 547.25,-2645"/>
<text text-anchor="middle" x="493.12" y="-2624.62" font-family="Helvetica,Arial,sans-serif" font-size="10.00" fill="#212529">📄 whats&#45;up&#45;docker.nix</text>
</g>
<!-- N2&#45;&gt;N32 -->
<g id="edge34" class="edge">
<title>N2&#45;&gt;N32</title>
<path fill="none" stroke="#6c757d" d="M222.97,-4138.56C240.18,-3967.01 371.62,-2656 371.62,-2656 371.62,-2656 393.36,-2650.77 418.37,-2644.75"/>
<polygon fill="#6c757d" stroke="#6c757d" points="418.88,-2647.15 425.11,-2643.13 417.74,-2642.38 418.88,-2647.15"/>
</g>
<!-- N33 -->
<g id="node34" class="node">
<title>N33</title>
<path fill="#f8f9fa" stroke="#ced4da" d="M545.75,-1619C545.75,-1619 440.5,-1619 440.5,-1619 434.5,-1619 428.5,-1613 428.5,-1607 428.5,-1607 428.5,-1595 428.5,-1595 428.5,-1589 434.5,-1583 440.5,-1583 440.5,-1583 545.75,-1583 545.75,-1583 551.75,-1583 557.75,-1589 557.75,-1595 557.75,-1595 557.75,-1607 557.75,-1607 557.75,-1613 551.75,-1619 545.75,-1619"/>
<text text-anchor="middle" x="493.12" y="-1598.62" font-family="Helvetica,Arial,sans-serif" font-size="10.00" fill="#212529">📄 crafty&#45;controller.nix</text>
</g>
<!-- N2&#45;&gt;N33 -->
<g id="edge35" class="edge">
<title>N2&#45;&gt;N33</title>
<path fill="none" stroke="#6c757d" d="M222.21,-4138.82C235.74,-3911.56 371.62,-1630 371.62,-1630 371.62,-1630 394.47,-1624.5 420.27,-1618.29"/>
<polygon fill="#6c757d" stroke="#6c757d" points="420.64,-1620.72 426.87,-1616.7 419.5,-1615.96 420.64,-1620.72"/>
</g>
<!-- N34 -->
<g id="node35" class="node">
<title>N34</title>
<path fill="#f8f9fa" stroke="#ced4da" d="M522.88,-1677C522.88,-1677 463.38,-1677 463.38,-1677 457.38,-1677 451.38,-1671 451.38,-1665 451.38,-1665 451.38,-1653 451.38,-1653 451.38,-1647 457.38,-1641 463.38,-1641 463.38,-1641 522.88,-1641 522.88,-1641 528.88,-1641 534.88,-1647 534.88,-1653 534.88,-1653 534.88,-1665 534.88,-1665 534.88,-1671 528.88,-1677 522.88,-1677"/>
<text text-anchor="middle" x="493.12" y="-1656.62" font-family="Helvetica,Arial,sans-serif" font-size="10.00" fill="#212529">📄 firefox.nix</text>
</g>
<!-- N2&#45;&gt;N34 -->
<g id="edge36" class="edge">
<title>N2&#45;&gt;N34</title>
<path fill="none" stroke="#6c757d" d="M222.25,-4138.55C236.02,-3912.61 371.62,-1688 371.62,-1688 371.62,-1688 409.73,-1678.83 443.08,-1670.8"/>
<polygon fill="#6c757d" stroke="#6c757d" points="443.29,-1673.27 449.52,-1669.25 442.14,-1668.51 443.29,-1673.27"/>
</g>
<!-- N35 -->
<g id="node36" class="node">
<title>N35</title>
<path fill="#f8f9fa" stroke="#ced4da" d="M524.38,-1735C524.38,-1735 461.88,-1735 461.88,-1735 455.88,-1735 449.88,-1729 449.88,-1723 449.88,-1723 449.88,-1711 449.88,-1711 449.88,-1705 455.88,-1699 461.88,-1699 461.88,-1699 524.38,-1699 524.38,-1699 530.38,-1699 536.38,-1705 536.38,-1711 536.38,-1711 536.38,-1723 536.38,-1723 536.38,-1729 530.38,-1735 524.38,-1735"/>
<text text-anchor="middle" x="493.12" y="-1714.62" font-family="Helvetica,Arial,sans-serif" font-size="10.00" fill="#212529">📄 forgejo.nix</text>
</g>
<!-- N2&#45;&gt;N35 -->
<g id="edge37" class="edge">
<title>N2&#45;&gt;N35</title>
<path fill="none" stroke="#6c757d" d="M222.27,-4138.64C236.16,-3916.12 371.62,-1746 371.62,-1746 371.62,-1746 408.44,-1737.14 441.38,-1729.21"/>
<polygon fill="#6c757d" stroke="#6c757d" points="441.94,-1731.6 448.17,-1727.58 440.79,-1726.83 441.94,-1731.6"/>
</g>
<!-- N36 -->
<g id="node37" class="node">
<title>N36</title>
<path fill="#f8f9fa" stroke="#ced4da" d="M526.62,-1793C526.62,-1793 459.62,-1793 459.62,-1793 453.62,-1793 447.62,-1787 447.62,-1781 447.62,-1781 447.62,-1769 447.62,-1769 447.62,-1763 453.62,-1757 459.62,-1757 459.62,-1757 526.62,-1757 526.62,-1757 532.62,-1757 538.62,-1763 538.62,-1769 538.62,-1769 538.62,-1781 538.62,-1781 538.62,-1787 532.62,-1793 526.62,-1793"/>
<text text-anchor="middle" x="493.12" y="-1772.62" font-family="Helvetica,Arial,sans-serif" font-size="10.00" fill="#212529">📄 freshrss.nix</text>
</g>
<!-- N2&#45;&gt;N36 -->
<g id="edge38" class="edge">
<title>N2&#45;&gt;N36</title>
<path fill="none" stroke="#6c757d" d="M222.29,-4138.74C236.3,-3919.73 371.62,-1804 371.62,-1804 371.62,-1804 406.78,-1795.54 439.12,-1787.76"/>
<polygon fill="#6c757d" stroke="#6c757d" points="439.55,-1790.17 445.78,-1786.15 438.4,-1785.41 439.55,-1790.17"/>
</g>
<!-- N37 -->
<g id="node38" class="node">
<title>N37</title>
<path fill="#f8f9fa" stroke="#ced4da" d="M533,-1851C533,-1851 453.25,-1851 453.25,-1851 447.25,-1851 441.25,-1845 441.25,-1839 441.25,-1839 441.25,-1827 441.25,-1827 441.25,-1821 447.25,-1815 453.25,-1815 453.25,-1815 533,-1815 533,-1815 539,-1815 545,-1821 545,-1827 545,-1827 545,-1839 545,-1839 545,-1845 539,-1851 533,-1851"/>
<text text-anchor="middle" x="493.12" y="-1830.62" font-family="Helvetica,Arial,sans-serif" font-size="10.00" fill="#212529">📄 homepage.nix</text>
</g>
<!-- N2&#45;&gt;N37 -->
<g id="edge39" class="edge">
<title>N2&#45;&gt;N37</title>
<path fill="none" stroke="#6c757d" d="M222.34,-4138.53C236.58,-3921.33 371.62,-1862 371.62,-1862 371.62,-1862 402.43,-1854.59 432.89,-1847.26"/>
<polygon fill="#6c757d" stroke="#6c757d" points="433.32,-1849.67 439.55,-1845.65 432.17,-1844.91 433.32,-1849.67"/>
</g>
<!-- N38 -->
<g id="node39" class="node">
<title>N38</title>
<path fill="#f8f9fa" stroke="#ced4da" d="M538.25,-1909C538.25,-1909 448,-1909 448,-1909 442,-1909 436,-1903 436,-1897 436,-1897 436,-1885 436,-1885 436,-1879 442,-1873 448,-1873 448,-1873 538.25,-1873 538.25,-1873 544.25,-1873 550.25,-1879 550.25,-1885 550.25,-1885 550.25,-1897 550.25,-1897 550.25,-1903 544.25,-1909 538.25,-1909"/>
<text text-anchor="middle" x="493.12" y="-1888.62" font-family="Helvetica,Arial,sans-serif" font-size="10.00" fill="#212529">📄 local&#45;finance.nix</text>
</g>
<!-- N2&#45;&gt;N38 -->
<g id="edge40" class="edge">
<title>N2&#45;&gt;N38</title>
<path fill="none" stroke="#6c757d" d="M222.36,-4138.66C236.72,-3925.22 371.62,-1920 371.62,-1920 371.62,-1920 399,-1913.41 427.66,-1906.51"/>
<polygon fill="#6c757d" stroke="#6c757d" points="428.05,-1908.94 434.28,-1904.92 426.91,-1904.18 428.05,-1908.94"/>
</g>
<!-- N39 -->
<g id="node40" class="node">
<title>N39</title>
<path fill="#f8f9fa" stroke="#ced4da" d="M526.25,-1967C526.25,-1967 460,-1967 460,-1967 454,-1967 448,-1961 448,-1955 448,-1955 448,-1943 448,-1943 448,-1937 454,-1931 460,-1931 460,-1931 526.25,-1931 526.25,-1931 532.25,-1931 538.25,-1937 538.25,-1943 538.25,-1943 538.25,-1955 538.25,-1955 538.25,-1961 532.25,-1967 526.25,-1967"/>
<text text-anchor="middle" x="493.12" y="-1946.62" font-family="Helvetica,Arial,sans-serif" font-size="10.00" fill="#212529">📄 marimo.nix</text>
</g>
<!-- N2&#45;&gt;N39 -->
<g id="edge41" class="edge">
<title>N2&#45;&gt;N39</title>
<path fill="none" stroke="#6c757d" d="M222.38,-4138.82C236.86,-3929.21 371.62,-1978 371.62,-1978 371.62,-1978 407.02,-1969.48 439.44,-1961.68"/>
<polygon fill="#6c757d" stroke="#6c757d" points="439.89,-1964.09 446.13,-1960.07 438.75,-1959.33 439.89,-1964.09"/>
</g>
<!-- N40 -->
<g id="node41" class="node">
<title>N40</title>
<path fill="#f8f9fa" stroke="#ced4da" d="M516.12,-2025C516.12,-2025 470.12,-2025 470.12,-2025 464.12,-2025 458.12,-2019 458.12,-2013 458.12,-2013 458.12,-2001 458.12,-2001 458.12,-1995 464.12,-1989 470.12,-1989 470.12,-1989 516.12,-1989 516.12,-1989 522.12,-1989 528.12,-1995 528.12,-2001 528.12,-2001 528.12,-2013 528.12,-2013 528.12,-2019 522.12,-2025 516.12,-2025"/>
<text text-anchor="middle" x="493.12" y="-2004.62" font-family="Helvetica,Arial,sans-serif" font-size="10.00" fill="#212529">📄 n8n.nix</text>
</g>
<!-- N2&#45;&gt;N40 -->
<g id="edge42" class="edge">
<title>N2&#45;&gt;N40</title>
<path fill="none" stroke="#6c757d" d="M222.43,-4138.66C237.14,-3931.36 371.62,-2036 371.62,-2036 371.62,-2036 415.05,-2025.55 449.76,-2017.2"/>
<polygon fill="#6c757d" stroke="#6c757d" points="450.21,-2019.61 456.45,-2015.59 449.07,-2014.84 450.21,-2019.61"/>
</g>
<!-- N41 -->
<g id="node42" class="node">
<title>N41</title>
<path fill="#f8f9fa" stroke="#ced4da" d="M551.75,-2083C551.75,-2083 434.5,-2083 434.5,-2083 428.5,-2083 422.5,-2077 422.5,-2071 422.5,-2071 422.5,-2059 422.5,-2059 422.5,-2053 428.5,-2047 434.5,-2047 434.5,-2047 551.75,-2047 551.75,-2047 557.75,-2047 563.75,-2053 563.75,-2059 563.75,-2059 563.75,-2071 563.75,-2071 563.75,-2077 557.75,-2083 551.75,-2083"/>
<text text-anchor="middle" x="493.12" y="-2062.62" font-family="Helvetica,Arial,sans-serif" font-size="10.00" fill="#212529">📄 obsidian2docmost.nix</text>
</g>
<!-- N2&#45;&gt;N41 -->
<g id="edge43" class="edge">
<title>N2&#45;&gt;N41</title>
<path fill="none" stroke="#6c757d" d="M222.47,-4138.54C237.41,-3933.72 371.62,-2094 371.62,-2094 371.62,-2094 390.75,-2089.4 413.75,-2083.86"/>
<polygon fill="#6c757d" stroke="#6c757d" points="414.33,-2086.24 420.56,-2082.22 413.18,-2081.48 414.33,-2086.24"/>
</g>
<!-- N42 -->
<g id="node43" class="node">
<title>N42</title>
<path fill="#f8f9fa" stroke="#ced4da" d="M522.5,-2141C522.5,-2141 463.75,-2141 463.75,-2141 457.75,-2141 451.75,-2135 451.75,-2129 451.75,-2129 451.75,-2117 451.75,-2117 451.75,-2111 457.75,-2105 463.75,-2105 463.75,-2105 522.5,-2105 522.5,-2105 528.5,-2105 534.5,-2111 534.5,-2117 534.5,-2117 534.5,-2129 534.5,-2129 534.5,-2135 528.5,-2141 522.5,-2141"/>
<text text-anchor="middle" x="493.12" y="-2120.62" font-family="Helvetica,Arial,sans-serif" font-size="10.00" fill="#212529">📄 quartz.nix</text>
</g>
<!-- N2&#45;&gt;N42 -->
<g id="edge44" class="edge">
<title>N2&#45;&gt;N42</title>
<path fill="none" stroke="#6c757d" d="M222.5,-4138.74C237.55,-3938.15 371.62,-2152 371.62,-2152 371.62,-2152 409.98,-2142.77 443.41,-2134.72"/>
<polygon fill="#6c757d" stroke="#6c757d" points="443.63,-2137.19 449.86,-2133.17 442.48,-2132.43 443.63,-2137.19"/>
</g>
<!-- N43 -->
<g id="node44" class="node">
<title>N43</title>
<path fill="#f8f9fa" stroke="#ced4da" d="M521.75,-2199C521.75,-2199 464.5,-2199 464.5,-2199 458.5,-2199 452.5,-2193 452.5,-2187 452.5,-2187 452.5,-2175 452.5,-2175 452.5,-2169 458.5,-2163 464.5,-2163 464.5,-2163 521.75,-2163 521.75,-2163 527.75,-2163 533.75,-2169 533.75,-2175 533.75,-2175 533.75,-2187 533.75,-2187 533.75,-2193 527.75,-2199 521.75,-2199"/>
<text text-anchor="middle" x="493.12" y="-2178.62" font-family="Helvetica,Arial,sans-serif" font-size="10.00" fill="#212529">📄 romm.nix</text>
</g>
<!-- N2&#45;&gt;N43 -->
<g id="edge45" class="edge">
<title>N2&#45;&gt;N43</title>
<path fill="none" stroke="#6c757d" d="M222.54,-4138.66C237.83,-3940.89 371.62,-2210 371.62,-2210 371.62,-2210 410.47,-2200.65 444.05,-2192.57"/>
<polygon fill="#6c757d" stroke="#6c757d" points="444.3,-2195.03 450.53,-2191.01 443.15,-2190.27 444.3,-2195.03"/>
</g>
<!-- N44 -->
<g id="node45" class="node">
<title>N44</title>
<path fill="#f8f9fa" stroke="#ced4da" d="M552.12,-2257C552.12,-2257 434.12,-2257 434.12,-2257 428.12,-2257 422.12,-2251 422.12,-2245 422.12,-2245 422.12,-2233 422.12,-2233 422.12,-2227 428.12,-2221 434.12,-2221 434.12,-2221 552.12,-2221 552.12,-2221 558.12,-2221 564.12,-2227 564.12,-2233 564.12,-2233 564.12,-2245 564.12,-2245 564.12,-2251 558.12,-2257 552.12,-2257"/>
<text text-anchor="middle" x="493.12" y="-2236.62" font-family="Helvetica,Arial,sans-serif" font-size="10.00" fill="#212529">📄 security&#45;watchdog.nix</text>
</g>
<!-- N2&#45;&gt;N44 -->
<g id="edge46" class="edge">
<title>N2&#45;&gt;N44</title>
<path fill="none" stroke="#6c757d" d="M222.59,-4138.61C238.11,-3943.86 371.62,-2268 371.62,-2268 371.62,-2268 390.58,-2263.44 413.45,-2257.93"/>
<polygon fill="#6c757d" stroke="#6c757d" points="413.98,-2260.33 420.21,-2256.31 412.83,-2255.56 413.98,-2260.33"/>
</g>
<!-- N45 -->
<g id="node46" class="node">
<title>N45</title>
<path fill="#f8f9fa" stroke="#ced4da" d="M533.38,-2315C533.38,-2315 452.88,-2315 452.88,-2315 446.88,-2315 440.88,-2309 440.88,-2303 440.88,-2303 440.88,-2291 440.88,-2291 440.88,-2285 446.88,-2279 452.88,-2279 452.88,-2279 533.38,-2279 533.38,-2279 539.38,-2279 545.38,-2285 545.38,-2291 545.38,-2291 545.38,-2303 545.38,-2303 545.38,-2309 539.38,-2315 533.38,-2315"/>
<text text-anchor="middle" x="493.12" y="-2294.62" font-family="Helvetica,Arial,sans-serif" font-size="10.00" fill="#212529">📄 stirling&#45;pdf.nix</text>
</g>
<!-- N2&#45;&gt;N45 -->
<g id="edge47" class="edge">
<title>N2&#45;&gt;N45</title>
<path fill="none" stroke="#6c757d" d="M222.64,-4138.58C238.38,-3947.03 371.62,-2326 371.62,-2326 371.62,-2326 402.21,-2318.64 432.56,-2311.33"/>
<polygon fill="#6c757d" stroke="#6c757d" points="432.97,-2313.76 439.2,-2309.74 431.82,-2308.99 432.97,-2313.76"/>
</g>
<!-- N46 -->
<g id="node47" class="node">
<title>N46</title>
<path fill="#f8f9fa" stroke="#ced4da" d="M516.88,-2373C516.88,-2373 469.38,-2373 469.38,-2373 463.38,-2373 457.38,-2367 457.38,-2361 457.38,-2361 457.38,-2349 457.38,-2349 457.38,-2343 463.38,-2337 469.38,-2337 469.38,-2337 516.88,-2337 516.88,-2337 522.88,-2337 528.88,-2343 528.88,-2349 528.88,-2349 528.88,-2361 528.88,-2361 528.88,-2367 522.88,-2373 516.88,-2373"/>
<text text-anchor="middle" x="493.12" y="-2352.62" font-family="Helvetica,Arial,sans-serif" font-size="10.00" fill="#212529">📄 vert.nix</text>
</g>
<!-- N2&#45;&gt;N46 -->
<g id="edge48" class="edge">
<title>N2&#45;&gt;N46</title>
<path fill="none" stroke="#6c757d" d="M222.71,-4138.62C238.8,-3952.44 371.62,-2415 371.62,-2415 371.62,-2415 414.99,-2393.41 449.69,-2376.13"/>
<polygon fill="#6c757d" stroke="#6c757d" points="450.42,-2378.5 455.59,-2373.19 448.23,-2374.12 450.42,-2378.5"/>
</g>
<!-- N47 -->
<g id="node48" class="node">
<title>N47</title>
<path fill="#f8f9fa" stroke="#ced4da" d="M524.75,-1503C524.75,-1503 461.5,-1503 461.5,-1503 455.5,-1503 449.5,-1497 449.5,-1491 449.5,-1491 449.5,-1479 449.5,-1479 449.5,-1473 455.5,-1467 461.5,-1467 461.5,-1467 524.75,-1467 524.75,-1467 530.75,-1467 536.75,-1473 536.75,-1479 536.75,-1479 536.75,-1491 536.75,-1491 536.75,-1497 530.75,-1503 524.75,-1503"/>
<text text-anchor="middle" x="493.12" y="-1482.62" font-family="Helvetica,Arial,sans-serif" font-size="10.00" fill="#212529">📄 vikunja.nix</text>
</g>
<!-- N2&#45;&gt;N47 -->
<g id="edge49" class="edge">
<title>N2&#45;&gt;N47</title>
<path fill="none" stroke="#6c757d" d="M222.17,-4138.71C235.46,-3905.2 371.62,-1514 371.62,-1514 371.62,-1514 408.2,-1505.2 441.05,-1497.29"/>
<polygon fill="#6c757d" stroke="#6c757d" points="441.6,-1499.68 447.83,-1495.66 440.45,-1494.92 441.6,-1499.68"/>
</g>
<!-- N48 -->
<g id="node49" class="node">
<title>N48</title>
<path fill="#f8f9fa" stroke="#ced4da" d="M529.62,-1561C529.62,-1561 456.62,-1561 456.62,-1561 450.62,-1561 444.62,-1555 444.62,-1549 444.62,-1549 444.62,-1537 444.62,-1537 444.62,-1531 450.62,-1525 456.62,-1525 456.62,-1525 529.62,-1525 529.62,-1525 535.62,-1525 541.62,-1531 541.62,-1537 541.62,-1537 541.62,-1549 541.62,-1549 541.62,-1555 535.62,-1561 529.62,-1561"/>
<text text-anchor="middle" x="493.12" y="-1540.62" font-family="Helvetica,Arial,sans-serif" font-size="10.00" fill="#212529">📄 wanderer.nix</text>
</g>
<!-- N2&#45;&gt;N48 -->
<g id="edge50" class="edge">
<title>N2&#45;&gt;N48</title>
<path fill="none" stroke="#6c757d" d="M222.19,-4138.76C235.6,-3908.32 371.62,-1572 371.62,-1572 371.62,-1572 404.71,-1564.04 436.2,-1556.46"/>
<polygon fill="#6c757d" stroke="#6c757d" points="436.45,-1558.92 442.68,-1554.9 435.3,-1554.16 436.45,-1558.92"/>
</g>
<!-- N49 -->
<g id="node50" class="node">
<title>N49</title>
<path fill="#f8f9fa" stroke="#ced4da" d="M530.38,-1115C530.38,-1115 455.88,-1115 455.88,-1115 449.88,-1115 443.88,-1109 443.88,-1103 443.88,-1103 443.88,-1091 443.88,-1091 443.88,-1085 449.88,-1079 455.88,-1079 455.88,-1079 530.38,-1079 530.38,-1079 536.38,-1079 542.38,-1085 542.38,-1091 542.38,-1091 542.38,-1103 542.38,-1103 542.38,-1109 536.38,-1115 530.38,-1115"/>
<text text-anchor="middle" x="493.12" y="-1094.62" font-family="Helvetica,Arial,sans-serif" font-size="10.00" fill="#212529">📄 authentik.nix</text>
</g>
<!-- N2&#45;&gt;N49 -->
<g id="edge51" class="edge">
<title>N2&#45;&gt;N49</title>
<path fill="none" stroke="#6c757d" d="M222.03,-4138.82C234.48,-3887.97 371.62,-1126 371.62,-1126 371.62,-1126 404.25,-1118.15 435.55,-1110.62"/>
<polygon fill="#6c757d" stroke="#6c757d" points="435.76,-1113.09 441.99,-1109.07 434.61,-1108.32 435.76,-1113.09"/>
</g>
<!-- N50 -->
<g id="node51" class="node">
<title>N50</title>
<path fill="#f8f9fa" stroke="#ced4da" d="M521,-1173C521,-1173 465.25,-1173 465.25,-1173 459.25,-1173 453.25,-1167 453.25,-1161 453.25,-1161 453.25,-1149 453.25,-1149 453.25,-1143 459.25,-1137 465.25,-1137 465.25,-1137 521,-1137 521,-1137 527,-1137 533,-1143 533,-1149 533,-1149 533,-1161 533,-1161 533,-1167 527,-1173 521,-1173"/>
<text text-anchor="middle" x="493.12" y="-1152.62" font-family="Helvetica,Arial,sans-serif" font-size="10.00" fill="#212529">📄 caddy.nix</text>
</g>
<!-- N2&#45;&gt;N50 -->
<g id="edge52" class="edge">
<title>N2&#45;&gt;N50</title>
<path fill="none" stroke="#6c757d" d="M222.05,-4138.79C234.62,-3890.35 371.62,-1184 371.62,-1184 371.62,-1184 411.21,-1174.47 445.01,-1166.34"/>
<polygon fill="#6c757d" stroke="#6c757d" points="445.3,-1168.79 451.53,-1164.77 444.15,-1164.03 445.3,-1168.79"/>
</g>
<!-- N51 -->
<g id="node52" class="node">
<title>N51</title>
<path fill="#f8f9fa" stroke="#ced4da" d="M534.12,-1231C534.12,-1231 452.12,-1231 452.12,-1231 446.12,-1231 440.12,-1225 440.12,-1219 440.12,-1219 440.12,-1207 440.12,-1207 440.12,-1201 446.12,-1195 452.12,-1195 452.12,-1195 534.12,-1195 534.12,-1195 540.12,-1195 546.12,-1201 546.12,-1207 546.12,-1207 546.12,-1219 546.12,-1219 546.12,-1225 540.12,-1231 534.12,-1231"/>
<text text-anchor="middle" x="493.12" y="-1210.62" font-family="Helvetica,Arial,sans-serif" font-size="10.00" fill="#212529">📄 cloudflared.nix</text>
</g>
<!-- N2&#45;&gt;N51 -->
<g id="edge53" class="edge">
<title>N2&#45;&gt;N51</title>
<path fill="none" stroke="#6c757d" d="M222.07,-4138.77C234.76,-3892.84 371.62,-1242 371.62,-1242 371.62,-1242 401.78,-1234.74 431.91,-1227.49"/>
<polygon fill="#6c757d" stroke="#6c757d" points="432.27,-1229.93 438.5,-1225.91 431.12,-1225.16 432.27,-1229.93"/>
</g>
<!-- N52 -->
<g id="node53" class="node">
<title>N52</title>
<path fill="#f8f9fa" stroke="#ced4da" d="M555.88,-1289C555.88,-1289 430.38,-1289 430.38,-1289 424.38,-1289 418.38,-1283 418.38,-1277 418.38,-1277 418.38,-1265 418.38,-1265 418.38,-1259 424.38,-1253 430.38,-1253 430.38,-1253 555.88,-1253 555.88,-1253 561.88,-1253 567.88,-1259 567.88,-1265 567.88,-1265 567.88,-1277 567.88,-1277 567.88,-1283 561.88,-1289 555.88,-1289"/>
<text text-anchor="middle" x="493.12" y="-1268.62" font-family="Helvetica,Arial,sans-serif" font-size="10.00" fill="#212529">📄 docker&#45;socket&#45;proxy.nix</text>
</g>
<!-- N2&#45;&gt;N52 -->
<g id="edge54" class="edge">
<title>N2&#45;&gt;N52</title>
<path fill="none" stroke="#6c757d" d="M222.09,-4138.76C234.9,-3895.43 371.62,-1300 371.62,-1300 371.62,-1300 388.79,-1295.87 410.17,-1290.72"/>
<polygon fill="#6c757d" stroke="#6c757d" points="410.51,-1293.16 416.74,-1289.14 409.36,-1288.4 410.51,-1293.16"/>
</g>
<!-- N53 -->
<g id="node54" class="node">
<title>N53</title>
<path fill="#f8f9fa" stroke="#ced4da" d="M525.5,-1347C525.5,-1347 460.75,-1347 460.75,-1347 454.75,-1347 448.75,-1341 448.75,-1335 448.75,-1335 448.75,-1323 448.75,-1323 448.75,-1317 454.75,-1311 460.75,-1311 460.75,-1311 525.5,-1311 525.5,-1311 531.5,-1311 537.5,-1317 537.5,-1323 537.5,-1323 537.5,-1335 537.5,-1335 537.5,-1341 531.5,-1347 525.5,-1347"/>
<text text-anchor="middle" x="493.12" y="-1326.62" font-family="Helvetica,Arial,sans-serif" font-size="10.00" fill="#212529">📄 gluetun.nix</text>
</g>
<!-- N2&#45;&gt;N53 -->
<g id="edge55" class="edge">
<title>N2&#45;&gt;N53</title>
<path fill="none" stroke="#6c757d" d="M222.11,-4138.76C235.04,-3898.14 371.62,-1358 371.62,-1358 371.62,-1358 407.49,-1349.37 440.09,-1341.52"/>
<polygon fill="#6c757d" stroke="#6c757d" points="440.58,-1343.93 446.81,-1339.91 439.43,-1339.16 440.58,-1343.93"/>
</g>
<!-- N54 -->
<g id="node55" class="node">
<title>N54</title>
<path fill="#f8f9fa" stroke="#ced4da" d="M519.12,-1405C519.12,-1405 467.12,-1405 467.12,-1405 461.12,-1405 455.12,-1399 455.12,-1393 455.12,-1393 455.12,-1381 455.12,-1381 455.12,-1375 461.12,-1369 467.12,-1369 467.12,-1369 519.12,-1369 519.12,-1369 525.12,-1369 531.12,-1375 531.12,-1381 531.12,-1381 531.12,-1393 531.12,-1393 531.12,-1399 525.12,-1405 519.12,-1405"/>
<text text-anchor="middle" x="493.12" y="-1384.62" font-family="Helvetica,Arial,sans-serif" font-size="10.00" fill="#212529">📄 lldap.nix</text>
</g>
<!-- N2&#45;&gt;N54 -->
<g id="edge56" class="edge">
<title>N2&#45;&gt;N54</title>
<path fill="none" stroke="#6c757d" d="M222.15,-4138.61C235.32,-3901.33 371.62,-1447 371.62,-1447 371.62,-1447 413.42,-1426.19 447.79,-1409.08"/>
<polygon fill="#6c757d" stroke="#6c757d" points="448.46,-1411.48 453.63,-1406.17 446.27,-1407.09 448.46,-1411.48"/>
</g>
<!-- N59 -->
<g id="node60" class="node">
<title>N59</title>
<path fill="#f8f9fa" stroke="#ced4da" d="M524.38,-607C524.38,-607 461.88,-607 461.88,-607 455.88,-607 449.88,-601 449.88,-595 449.88,-595 449.88,-583 449.88,-583 449.88,-577 455.88,-571 461.88,-571 461.88,-571 524.38,-571 524.38,-571 530.38,-571 536.38,-577 536.38,-583 536.38,-583 536.38,-595 536.38,-595 536.38,-601 530.38,-607 524.38,-607"/>
<text text-anchor="middle" x="493.12" y="-586.62" font-family="Helvetica,Arial,sans-serif" font-size="10.00" fill="#212529">📄 default.nix</text>
</g>
<!-- N2&#45;&gt;N59 -->
<g id="edge57" class="edge">
<title>N2&#45;&gt;N59</title>
<path fill="none" stroke="#6c757d" d="M221.92,-4138.55C233.64,-3865.29 371.62,-649 371.62,-649 371.62,-649 413.42,-628.19 447.79,-611.08"/>
<polygon fill="#6c757d" stroke="#6c757d" points="448.46,-613.48 453.63,-608.17 446.27,-609.09 448.46,-613.48"/>
</g>
<!-- N64 -->
<g id="node65" class="node">
<title>N64</title>
<path fill="#f8f9fa" stroke="#ced4da" d="M518.75,-861C518.75,-861 467.5,-861 467.5,-861 461.5,-861 455.5,-855 455.5,-849 455.5,-849 455.5,-837 455.5,-837 455.5,-831 461.5,-825 467.5,-825 467.5,-825 518.75,-825 518.75,-825 524.75,-825 530.75,-831 530.75,-837 530.75,-837 530.75,-849 530.75,-849 530.75,-855 524.75,-861 518.75,-861"/>
<text text-anchor="middle" x="493.12" y="-840.62" font-family="Helvetica,Arial,sans-serif" font-size="10.00" fill="#212529">📄 base.nix</text>
</g>
<!-- N2&#45;&gt;N64 -->
<g id="edge58" class="edge">
<title>N2&#45;&gt;N64</title>
<path fill="none" stroke="#6c757d" d="M221.97,-4138.53C234.06,-3874.62 371.62,-872 371.62,-872 371.62,-872 412.98,-862.05 447.24,-853.8"/>
<polygon fill="#6c757d" stroke="#6c757d" points="447.61,-856.23 453.84,-852.21 446.47,-851.47 447.61,-856.23"/>
</g>
<!-- N65 -->
<g id="node66" class="node">
<title>N65</title>
<path fill="#f8f9fa" stroke="#ced4da" d="M522.12,-919C522.12,-919 464.12,-919 464.12,-919 458.12,-919 452.12,-913 452.12,-907 452.12,-907 452.12,-895 452.12,-895 452.12,-889 458.12,-883 464.12,-883 464.12,-883 522.12,-883 522.12,-883 528.12,-883 534.12,-889 534.12,-895 534.12,-895 534.12,-907 534.12,-907 534.12,-913 528.12,-919 522.12,-919"/>
<text text-anchor="middle" x="493.12" y="-898.62" font-family="Helvetica,Arial,sans-serif" font-size="10.00" fill="#212529">📄 server.nix</text>
</g>
<!-- N2&#45;&gt;N65 -->
<g id="edge59" class="edge">
<title>N2&#45;&gt;N65</title>
<path fill="none" stroke="#6c757d" d="M221.99,-4138.63C234.2,-3879.29 371.62,-961 371.62,-961 371.62,-961 413.42,-940.19 447.79,-923.08"/>
<polygon fill="#6c757d" stroke="#6c757d" points="448.46,-925.48 453.63,-920.17 446.27,-921.09 448.46,-925.48"/>
</g>
<!-- N67 -->
<g id="node68" class="node">
<title>N67</title>
<path fill="#f8f9fa" stroke="#ced4da" d="M524.38,-705C524.38,-705 461.88,-705 461.88,-705 455.88,-705 449.88,-699 449.88,-693 449.88,-693 449.88,-681 449.88,-681 449.88,-675 455.88,-669 461.88,-669 461.88,-669 524.38,-669 524.38,-669 530.38,-669 536.38,-675 536.38,-681 536.38,-681 536.38,-693 536.38,-693 536.38,-699 530.38,-705 524.38,-705"/>
<text text-anchor="middle" x="493.12" y="-684.62" font-family="Helvetica,Arial,sans-serif" font-size="10.00" fill="#212529">📄 default.nix</text>
</g>
<!-- N2&#45;&gt;N67 -->
<g id="edge60" class="edge">
<title>N2&#45;&gt;N67</title>
<path fill="none" stroke="#6c757d" d="M221.93,-4138.65C233.78,-3870.25 371.62,-747 371.62,-747 371.62,-747 413.42,-726.19 447.79,-709.08"/>
<polygon fill="#6c757d" stroke="#6c757d" points="448.46,-711.48 453.63,-706.17 446.27,-707.09 448.46,-711.48"/>
</g>
<!-- N68 -->
<g id="node69" class="node">
<title>N68</title>
<path fill="#f8f9fa" stroke="#ced4da" d="M524.38,-1017C524.38,-1017 461.88,-1017 461.88,-1017 455.88,-1017 449.88,-1011 449.88,-1005 449.88,-1005 449.88,-993 449.88,-993 449.88,-987 455.88,-981 461.88,-981 461.88,-981 524.38,-981 524.38,-981 530.38,-981 536.38,-987 536.38,-993 536.38,-993 536.38,-1005 536.38,-1005 536.38,-1011 530.38,-1017 524.38,-1017"/>
<text text-anchor="middle" x="493.12" y="-996.62" font-family="Helvetica,Arial,sans-serif" font-size="10.00" fill="#212529">📄 default.nix</text>
</g>
<!-- N2&#45;&gt;N68 -->
<g id="edge61" class="edge">
<title>N2&#45;&gt;N68</title>
<path fill="none" stroke="#6c757d" d="M222.01,-4138.81C234.34,-3884.92 371.62,-1059 371.62,-1059 371.62,-1059 413.42,-1038.19 447.79,-1021.08"/>
<polygon fill="#6c757d" stroke="#6c757d" points="448.46,-1023.48 453.63,-1018.17 446.27,-1019.09 448.46,-1023.48"/>
</g>
<!-- N56 -->
<g id="node57" class="node">
<title>N56</title>
<path fill="#f8f9fa" stroke="#ced4da" d="M563.75,-353C563.75,-353 422.5,-353 422.5,-353 416.5,-353 410.5,-347 410.5,-341 410.5,-341 410.5,-329 410.5,-329 410.5,-323 416.5,-317 422.5,-317 422.5,-317 563.75,-317 563.75,-317 569.75,-317 575.75,-323 575.75,-329 575.75,-329 575.75,-341 575.75,-341 575.75,-347 569.75,-353 563.75,-353"/>
<text text-anchor="middle" x="493.12" y="-332.62" font-family="Helvetica,Arial,sans-serif" font-size="10.00" fill="#212529">📄 hardware&#45;configuration.nix</text>
</g>
<!-- N55&#45;&gt;N56 -->
<g id="edge62" class="edge">
<title>N55&#45;&gt;N56</title>
<path fill="none" stroke="#6c757d" d="M278.27,-335C314.08,-335 361.02,-335 401.79,-335"/>
<polygon fill="#6c757d" stroke="#6c757d" points="401.61,-337.45 408.61,-335 401.61,-332.55 401.61,-337.45"/>
</g>
<!-- N55&#45;&gt;N59 -->
<g id="edge63" class="edge">
<title>N55&#45;&gt;N59</title>
<path fill="none" stroke="#6c757d" d="M233.7,-353.21C269.87,-405.61 371.62,-553 371.62,-553 371.62,-553 408.76,-564.09 441.8,-573.96"/>
<polygon fill="#6c757d" stroke="#6c757d" points="440.78,-576.22 448.19,-575.87 442.19,-571.52 440.78,-576.22"/>
</g>
<!-- N60 -->
<g id="node61" class="node">
<title>N60</title>
<path fill="#f8f9fa" stroke="#ced4da" d="M524.38,-451C524.38,-451 461.88,-451 461.88,-451 455.88,-451 449.88,-445 449.88,-439 449.88,-439 449.88,-427 449.88,-427 449.88,-421 455.88,-415 461.88,-415 461.88,-415 524.38,-415 524.38,-415 530.38,-415 536.38,-421 536.38,-427 536.38,-427 536.38,-439 536.38,-439 536.38,-445 530.38,-451 524.38,-451"/>
<text text-anchor="middle" x="493.12" y="-430.62" font-family="Helvetica,Arial,sans-serif" font-size="10.00" fill="#212529">📄 default.nix</text>
</g>
<!-- N55&#45;&gt;N60 -->
<g id="edge64" class="edge">
<title>N55&#45;&gt;N60</title>
<path fill="none" stroke="#6c757d" d="M265.87,-353.43C310.24,-371.71 371.62,-397 371.62,-397 371.62,-397 408.76,-408.09 441.8,-417.96"/>
<polygon fill="#6c757d" stroke="#6c757d" points="440.78,-420.22 448.19,-419.87 442.19,-415.52 440.78,-420.22"/>
</g>
<!-- N61 -->
<g id="node62" class="node">
<title>N61</title>
<path fill="#f8f9fa" stroke="#ced4da" d="M530.38,-509C530.38,-509 455.88,-509 455.88,-509 449.88,-509 443.88,-503 443.88,-497 443.88,-497 443.88,-485 443.88,-485 443.88,-479 449.88,-473 455.88,-473 455.88,-473 530.38,-473 530.38,-473 536.38,-473 542.38,-479 542.38,-485 542.38,-485 542.38,-497 542.38,-497 542.38,-503 536.38,-509 530.38,-509"/>
<text text-anchor="middle" x="493.12" y="-488.62" font-family="Helvetica,Arial,sans-serif" font-size="10.00" fill="#212529">📄 minecraft.nix</text>
</g>
<!-- N55&#45;&gt;N61 -->
<g id="edge65" class="edge">
<title>N55&#45;&gt;N61</title>
<path fill="none" stroke="#6c757d" d="M243.01,-353.47C284.75,-388.69 371.62,-462 371.62,-462 371.62,-462 404.25,-469.85 435.55,-477.38"/>
<polygon fill="#6c757d" stroke="#6c757d" points="434.61,-479.68 441.99,-478.93 435.76,-474.91 434.61,-479.68"/>
</g>
<!-- N62 -->
<g id="node63" class="node">
<title>N62</title>
<path fill="#f8f9fa" stroke="#ced4da" d="M524.38,-157C524.38,-157 461.88,-157 461.88,-157 455.88,-157 449.88,-151 449.88,-145 449.88,-145 449.88,-133 449.88,-133 449.88,-127 455.88,-121 461.88,-121 461.88,-121 524.38,-121 524.38,-121 530.38,-121 536.38,-127 536.38,-133 536.38,-133 536.38,-145 536.38,-145 536.38,-151 530.38,-157 524.38,-157"/>
<text text-anchor="middle" x="493.12" y="-136.62" font-family="Helvetica,Arial,sans-serif" font-size="10.00" fill="#212529">📄 default.nix</text>
</g>
<!-- N55&#45;&gt;N62 -->
<g id="edge66" class="edge">
<title>N55&#45;&gt;N62</title>
<path fill="none" stroke="#6c757d" d="M241.42,-316.66C282.5,-279.54 371.62,-199 371.62,-199 371.62,-199 413.42,-178.19 447.79,-161.08"/>
<polygon fill="#6c757d" stroke="#6c757d" points="448.46,-163.48 453.63,-158.17 446.27,-159.09 448.46,-163.48"/>
</g>
<!-- N55&#45;&gt;N64 -->
<g id="edge67" class="edge">
<title>N55&#45;&gt;N64</title>
<path fill="none" stroke="#6c757d" d="M226.93,-353.48C254.59,-441.51 371.62,-814 371.62,-814 371.62,-814 412.98,-823.95 447.24,-832.2"/>
<polygon fill="#6c757d" stroke="#6c757d" points="446.47,-834.53 453.84,-833.79 447.61,-829.77 446.47,-834.53"/>
</g>
<!-- N66 -->
<g id="node67" class="node">
<title>N66</title>
<path fill="#f8f9fa" stroke="#ced4da" d="M521.75,-803C521.75,-803 464.5,-803 464.5,-803 458.5,-803 452.5,-797 452.5,-791 452.5,-791 452.5,-779 452.5,-779 452.5,-773 458.5,-767 464.5,-767 464.5,-767 521.75,-767 521.75,-767 527.75,-767 533.75,-773 533.75,-779 533.75,-779 533.75,-791 533.75,-791 533.75,-797 527.75,-803 521.75,-803"/>
<text text-anchor="middle" x="493.12" y="-782.62" font-family="Helvetica,Arial,sans-serif" font-size="10.00" fill="#212529">📄 sound.nix</text>
</g>
<!-- N55&#45;&gt;N66 -->
<g id="edge68" class="edge">
<title>N55&#45;&gt;N66</title>
<path fill="none" stroke="#6c757d" d="M227.79,-353.32C256.91,-433.44 371.62,-749 371.62,-749 371.62,-749 410.47,-760.6 444.05,-770.64"/>
<polygon fill="#6c757d" stroke="#6c757d" points="443.14,-772.92 450.55,-772.58 444.54,-768.23 443.14,-772.92"/>
</g>
<!-- N55&#45;&gt;N67 -->
<g id="edge69" class="edge">
<title>N55&#45;&gt;N67</title>
<path fill="none" stroke="#6c757d" d="M229.87,-353.36C261.99,-420.8 371.62,-651 371.62,-651 371.62,-651 408.76,-662.09 441.8,-671.96"/>
<polygon fill="#6c757d" stroke="#6c757d" points="440.78,-674.22 448.19,-673.87 442.19,-669.52 440.78,-674.22"/>
</g>
<!-- N70 -->
<g id="node71" class="node">
<title>N70</title>
<path fill="#f8f9fa" stroke="#ced4da" d="M524.38,-255C524.38,-255 461.88,-255 461.88,-255 455.88,-255 449.88,-249 449.88,-243 449.88,-243 449.88,-231 449.88,-231 449.88,-225 455.88,-219 461.88,-219 461.88,-219 524.38,-219 524.38,-219 530.38,-219 536.38,-225 536.38,-231 536.38,-231 536.38,-243 536.38,-243 536.38,-249 530.38,-255 524.38,-255"/>
<text text-anchor="middle" x="493.12" y="-234.62" font-family="Helvetica,Arial,sans-serif" font-size="10.00" fill="#212529">📄 default.nix</text>
</g>
<!-- N55&#45;&gt;N70 -->
<g id="edge70" class="edge">
<title>N55&#45;&gt;N70</title>
<path fill="none" stroke="#6c757d" d="M272.1,-316.57C320.61,-299.02 393.18,-272.78 441.56,-255.29"/>
<polygon fill="#6c757d" stroke="#6c757d" points="442.23,-257.65 447.98,-252.96 440.56,-253.04 442.23,-257.65"/>
</g>
<!-- N58 -->
<g id="node59" class="node">
<title>N58</title>
<path fill="#f8f9fa" stroke="#ced4da" d="M563.75,-59C563.75,-59 422.5,-59 422.5,-59 416.5,-59 410.5,-53 410.5,-47 410.5,-47 410.5,-35 410.5,-35 410.5,-29 416.5,-23 422.5,-23 422.5,-23 563.75,-23 563.75,-23 569.75,-23 575.75,-29 575.75,-35 575.75,-35 575.75,-47 575.75,-47 575.75,-53 569.75,-59 563.75,-59"/>
<text text-anchor="middle" x="493.12" y="-38.62" font-family="Helvetica,Arial,sans-serif" font-size="10.00" fill="#212529">📄 hardware&#45;configuration.nix</text>
</g>
<!-- N57&#45;&gt;N58 -->
<g id="edge71" class="edge">
<title>N57&#45;&gt;N58</title>
<path fill="none" stroke="#6c757d" d="M278.27,-41C314.08,-41 361.02,-41 401.79,-41"/>
<polygon fill="#6c757d" stroke="#6c757d" points="401.61,-43.45 408.61,-41 401.61,-38.55 401.61,-43.45"/>
</g>
<!-- N57&#45;&gt;N59 -->
<g id="edge72" class="edge">
<title>N57&#45;&gt;N59</title>
<path fill="none" stroke="#6c757d" d="M226.48,-59.22C253.29,-150.43 371.62,-553 371.62,-553 371.62,-553 408.76,-564.09 441.8,-573.96"/>
<polygon fill="#6c757d" stroke="#6c757d" points="440.78,-576.22 448.19,-575.87 442.19,-571.52 440.78,-576.22"/>
</g>
<!-- N57&#45;&gt;N62 -->
<g id="edge73" class="edge">
<title>N57&#45;&gt;N62</title>
<path fill="none" stroke="#6c757d" d="M265.87,-59.43C310.24,-77.71 371.62,-103 371.62,-103 371.62,-103 408.76,-114.09 441.8,-123.96"/>
<polygon fill="#6c757d" stroke="#6c757d" points="440.78,-126.22 448.19,-125.87 442.19,-121.52 440.78,-126.22"/>
</g>
<!-- N57&#45;&gt;N64 -->
<g id="edge74" class="edge">
<title>N57&#45;&gt;N64</title>
<path fill="none" stroke="#6c757d" d="M226.44,-59.41C243.38,-118.11 295,-297 295,-297 295,-297 371.62,-814 371.62,-814 371.62,-814 412.98,-823.95 447.24,-832.2"/>
<polygon fill="#6c757d" stroke="#6c757d" points="446.47,-834.53 453.84,-833.79 447.61,-829.77 446.47,-834.53"/>
</g>
<!-- N57&#45;&gt;N66 -->
<g id="edge75" class="edge">
<title>N57&#45;&gt;N66</title>
<path fill="none" stroke="#6c757d" d="M226.44,-59.41C243.38,-118.11 295,-297 295,-297 295,-297 371.62,-749 371.62,-749 371.62,-749 410.47,-760.6 444.05,-770.64"/>
<polygon fill="#6c757d" stroke="#6c757d" points="443.14,-772.92 450.55,-772.58 444.54,-768.23 443.14,-772.92"/>
</g>
<!-- N57&#45;&gt;N67 -->
<g id="edge76" class="edge">
<title>N57&#45;&gt;N67</title>
<path fill="none" stroke="#6c757d" d="M226.44,-59.41C243.38,-118.11 295,-297 295,-297 295,-297 371.62,-651 371.62,-651 371.62,-651 408.76,-662.09 441.8,-671.96"/>
<polygon fill="#6c757d" stroke="#6c757d" points="440.78,-674.22 448.19,-673.87 442.19,-669.52 440.78,-674.22"/>
</g>
<!-- N57&#45;&gt;N70 -->
<g id="edge77" class="edge">
<title>N57&#45;&gt;N70</title>
<path fill="none" stroke="#6c757d" d="M238.39,-59.35C277.92,-101.38 371.62,-201 371.62,-201 371.62,-201 408.76,-212.09 441.8,-221.96"/>
<polygon fill="#6c757d" stroke="#6c757d" points="440.78,-224.22 448.19,-223.87 442.19,-219.52 440.78,-224.22"/>
</g>
<!-- N63 -->
<g id="node64" class="node">
<title>N63</title>
<path fill="#f8f9fa" stroke="#ced4da" d="M806.88,-861C806.88,-861 698.62,-861 698.62,-861 692.62,-861 686.62,-855 686.62,-849 686.62,-849 686.62,-837 686.62,-837 686.62,-831 692.62,-825 698.62,-825 698.62,-825 806.88,-825 806.88,-825 812.88,-825 818.88,-831 818.88,-837 818.88,-837 818.88,-849 818.88,-849 818.88,-855 812.88,-861 806.88,-861"/>
<text text-anchor="middle" x="752.75" y="-840.62" font-family="Helvetica,Arial,sans-serif" font-size="10.00" fill="#212529">📄 architecture&#45;dag.nix</text>
</g>
<!-- N64&#45;&gt;N63 -->
<g id="edge78" class="edge">
<title>N64&#45;&gt;N63</title>
<path fill="none" stroke="#6c757d" d="M531.04,-843C569.16,-843 629.71,-843 677.75,-843"/>
<polygon fill="#6c757d" stroke="#6c757d" points="677.75,-845.45 684.75,-843 677.75,-840.55 677.75,-845.45"/>
</g>
<!-- N69 -->
<g id="node70" class="node">
<title>N69</title>
<path fill="#f8f9fa" stroke="#ced4da" d="M780.62,-1017C780.62,-1017 724.88,-1017 724.88,-1017 718.88,-1017 712.88,-1011 712.88,-1005 712.88,-1005 712.88,-993 712.88,-993 712.88,-987 718.88,-981 724.88,-981 724.88,-981 780.62,-981 780.62,-981 786.62,-981 792.62,-987 792.62,-993 792.62,-993 792.62,-1005 792.62,-1005 792.62,-1011 786.62,-1017 780.62,-1017"/>
<text text-anchor="middle" x="752.75" y="-996.62" font-family="Helvetica,Arial,sans-serif" font-size="10.00" fill="#212529">📄 home.nix</text>
</g>
<!-- N68&#45;&gt;N69 -->
<g id="edge79" class="edge">
<title>N68&#45;&gt;N69</title>
<path fill="none" stroke="#6c757d" d="M536.67,-999C582.78,-999 656.18,-999 704.17,-999"/>
<polygon fill="#6c757d" stroke="#6c757d" points="704.01,-1001.45 711.01,-999 704.01,-996.55 704.01,-1001.45"/>
</g>
<!-- N71 -->
<g id="node72" class="node">
<title>N71</title>
<path fill="#f8f9fa" stroke="#ced4da" d="M780.62,-255C780.62,-255 724.88,-255 724.88,-255 718.88,-255 712.88,-249 712.88,-243 712.88,-243 712.88,-231 712.88,-231 712.88,-225 718.88,-219 724.88,-219 724.88,-219 780.62,-219 780.62,-219 786.62,-219 792.62,-225 792.62,-231 792.62,-231 792.62,-243 792.62,-243 792.62,-249 786.62,-255 780.62,-255"/>
<text text-anchor="middle" x="752.75" y="-234.62" font-family="Helvetica,Arial,sans-serif" font-size="10.00" fill="#212529">📄 home.nix</text>
</g>
<!-- N70&#45;&gt;N71 -->
<g id="edge80" class="edge">
<title>N70&#45;&gt;N71</title>
<path fill="none" stroke="#6c757d" d="M536.67,-237C582.78,-237 656.18,-237 704.17,-237"/>
<polygon fill="#6c757d" stroke="#6c757d" points="704.01,-239.45 711.01,-237 704.01,-234.55 704.01,-239.45"/>
</g>
</g>
</svg>
