<?xml version="1.0" encoding="UTF-8" standalone="no"?>
<!DOCTYPE svg PUBLIC "-//W3C//DTD SVG 1.1//EN"
 "http://www.w3.org/Graphics/SVG/1.1/DTD/svg11.dtd">
<!-- Generated by graphviz version 12.2.1 (0)
 -->
<!-- Title: NixOS Pages: 1 -->
<svg width="850pt" height="3748pt"
 viewBox="0.00 0.00 849.88 3748.00" xmlns="http://www.w3.org/2000/svg" xmlns:xlink="http://www.w3.org/1999/xlink">
<g id="graph0" class="graph" transform="scale(1 1) rotate(0) translate(4 3744)">
<title>NixOS</title>
<polygon fill="white" stroke="none" points="-4,4 -4,-3744 845.88,-3744 845.88,4 -4,4"/>
<g id="clust1" class="cluster">
<title>cluster_hosts_devcontainer</title>
<path fill="#e9ecef" stroke="#adb5bd" d="M158.25,-3642C158.25,-3642 283,-3642 283,-3642 289,-3642 295,-3648 295,-3654 295,-3654 295,-3720 295,-3720 295,-3726 289,-3732 283,-3732 283,-3732 158.25,-3732 158.25,-3732 152.25,-3732 146.25,-3726 146.25,-3720 146.25,-3720 146.25,-3654 146.25,-3654 146.25,-3648 152.25,-3642 158.25,-3642"/>
<text text-anchor="middle" x="220.62" y="-3716.6" font-family="Helvetica,sans-Serif" font-weight="bold" font-size="12.00" fill="#495057">📁 hosts/devcontainer</text>
</g>
<g id="clust2" class="cluster">
<title>cluster_hosts_homelab</title>
<path fill="#e9ecef" stroke="#adb5bd" d="M159.25,-3486C159.25,-3486 578.75,-3486 578.75,-3486 584.75,-3486 590.75,-3492 590.75,-3498 590.75,-3498 590.75,-3622 590.75,-3622 590.75,-3628 584.75,-3634 578.75,-3634 578.75,-3634 159.25,-3634 159.25,-3634 153.25,-3634 147.25,-3628 147.25,-3622 147.25,-3622 147.25,-3498 147.25,-3498 147.25,-3492 153.25,-3486 159.25,-3486"/>
<text text-anchor="middle" x="369" y="-3618.6" font-family="Helvetica,sans-Serif" font-weight="bold" font-size="12.00" fill="#495057">📁 hosts/homelab</text>
</g>
<g id="clust3" class="cluster">
<title>cluster_hosts_homelab_services_media</title>
<path fill="#e9ecef" stroke="#adb5bd" d="M397.5,-2750C397.5,-2750 589.75,-2750 589.75,-2750 595.75,-2750 601.75,-2756 601.75,-2762 601.75,-2762 601.75,-3466 601.75,-3466 601.75,-3472 595.75,-3478 589.75,-3478 589.75,-3478 397.5,-3478 397.5,-3478 391.5,-3478 385.5,-3472 385.5,-3466 385.5,-3466 385.5,-2762 385.5,-2762 385.5,-2756 391.5,-2750 397.5,-2750"/>
<text text-anchor="middle" x="493.62" y="-3462.6" font-family="Helvetica,sans-Serif" font-weight="bold" font-size="12.00" fill="#495057">📁 hosts/homelab/services/media</text>
</g>
<g id="clust4" class="cluster">
<title>cluster_hosts_homelab_services_monitoring</title>
<path fill="#e9ecef" stroke="#adb5bd" d="M383.62,-2188C383.62,-2188 603.62,-2188 603.62,-2188 609.62,-2188 615.62,-2194 615.62,-2200 615.62,-2200 615.62,-2730 615.62,-2730 615.62,-2736 609.62,-2742 603.62,-2742 603.62,-2742 383.62,-2742 383.62,-2742 377.62,-2742 371.62,-2736 371.62,-2730 371.62,-2730 371.62,-2200 371.62,-2200 371.62,-2194 377.62,-2188 383.62,-2188"/>
<text text-anchor="middle" x="493.62" y="-2726.6" font-family="Helvetica,sans-Serif" font-weight="bold" font-size="12.00" fill="#495057">📁 hosts/homelab/services/monitoring</text>
</g>
<g id="clust5" class="cluster">
<title>cluster_hosts_homelab_services_random</title>
<path fill="#e9ecef" stroke="#adb5bd" d="M392.62,-1452C392.62,-1452 594.62,-1452 594.62,-1452 600.62,-1452 606.62,-1458 606.62,-1464 606.62,-1464 606.62,-2168 606.62,-2168 606.62,-2174 600.62,-2180 594.62,-2180 594.62,-2180 392.62,-2180 392.62,-2180 386.62,-2180 380.62,-2174 380.62,-2168 380.62,-2168 380.62,-1464 380.62,-1464 380.62,-1458 386.62,-1452 392.62,-1452"/>
<text text-anchor="middle" x="493.62" y="-2164.6" font-family="Helvetica,sans-Serif" font-weight="bold" font-size="12.00" fill="#495057">📁 hosts/homelab/services/random</text>
</g>
<g id="clust6" class="cluster">
<title>cluster_hosts_homelab_services_security</title>
<path fill="#e9ecef" stroke="#adb5bd" d="M392.62,-1064C392.62,-1064 594.62,-1064 594.62,-1064 600.62,-1064 606.62,-1070 606.62,-1076 606.62,-1076 606.62,-1432 606.62,-1432 606.62,-1438 600.62,-1444 594.62,-1444 594.62,-1444 392.62,-1444 392.62,-1444 386.62,-1444 380.62,-1438 380.62,-1432 380.62,-1432 380.62,-1076 380.62,-1076 380.62,-1070 386.62,-1064 392.62,-1064"/>
<text text-anchor="middle" x="493.62" y="-1428.6" font-family="Helvetica,sans-Serif" font-weight="bold" font-size="12.00" fill="#495057">📁 hosts/homelab/services/security</text>
</g>
<g id="clust7" class="cluster">
<title>cluster_hosts_perso</title>
<path fill="#e9ecef" stroke="#adb5bd" d="M159.25,-302C159.25,-302 578.75,-302 578.75,-302 584.75,-302 590.75,-308 590.75,-314 590.75,-314 590.75,-380 590.75,-380 590.75,-386 584.75,-392 578.75,-392 578.75,-392 159.25,-392 159.25,-392 153.25,-392 147.25,-386 147.25,-380 147.25,-380 147.25,-314 147.25,-314 147.25,-308 153.25,-302 159.25,-302"/>
<text text-anchor="middle" x="369" y="-376.6" font-family="Helvetica,sans-Serif" font-weight="bold" font-size="12.00" fill="#495057">📁 hosts/perso</text>
</g>
<g id="clust8" class="cluster">
<title>cluster_hosts_portable</title>
<path fill="#e9ecef" stroke="#adb5bd" d="M159.25,-8C159.25,-8 578.75,-8 578.75,-8 584.75,-8 590.75,-14 590.75,-20 590.75,-20 590.75,-86 590.75,-86 590.75,-92 584.75,-98 578.75,-98 578.75,-98 159.25,-98 159.25,-98 153.25,-98 147.25,-92 147.25,-86 147.25,-86 147.25,-20 147.25,-20 147.25,-14 153.25,-8 159.25,-8"/>
<text text-anchor="middle" x="369" y="-82.6" font-family="Helvetica,sans-Serif" font-weight="bold" font-size="12.00" fill="#495057">📁 hosts/portable</text>
</g>
<g id="clust9" class="cluster">
<title>cluster_modules_dev</title>
<path fill="#e9ecef" stroke="#adb5bd" d="M446.88,-556C446.88,-556 539.38,-556 539.38,-556 545.38,-556 551.38,-562 551.38,-568 551.38,-568 551.38,-634 551.38,-634 551.38,-640 545.38,-646 539.38,-646 539.38,-646 446.88,-646 446.88,-646 440.88,-646 434.88,-640 434.88,-634 434.88,-634 434.88,-568 434.88,-568 434.88,-562 440.88,-556 446.88,-556"/>
<text text-anchor="middle" x="493.12" y="-630.6" font-family="Helvetica,sans-Serif" font-weight="bold" font-size="12.00" fill="#495057">📁 modules/dev</text>
</g>
<g id="clust10" class="cluster">
<title>cluster_modules_gaming</title>
<path fill="#e9ecef" stroke="#adb5bd" d="M438.38,-400C438.38,-400 548.88,-400 548.88,-400 554.88,-400 560.88,-406 560.88,-412 560.88,-412 560.88,-536 560.88,-536 560.88,-542 554.88,-548 548.88,-548 548.88,-548 438.38,-548 438.38,-548 432.38,-548 426.38,-542 426.38,-536 426.38,-536 426.38,-412 426.38,-412 426.38,-406 432.38,-400 438.38,-400"/>
<text text-anchor="middle" x="493.62" y="-532.6" font-family="Helvetica,sans-Serif" font-weight="bold" font-size="12.00" fill="#495057">📁 modules/gaming</text>
</g>
<g id="clust11" class="cluster">
<title>cluster_modules_hyprland</title>
<path fill="#e9ecef" stroke="#adb5bd" d="M434.62,-106C434.62,-106 552.62,-106 552.62,-106 558.62,-106 564.62,-112 564.62,-118 564.62,-118 564.62,-184 564.62,-184 564.62,-190 558.62,-196 552.62,-196 552.62,-196 434.62,-196 434.62,-196 428.62,-196 422.62,-190 422.62,-184 422.62,-184 422.62,-118 422.62,-118 422.62,-112 428.62,-106 434.62,-106"/>
<text text-anchor="middle" x="493.62" y="-180.6" font-family="Helvetica,sans-Serif" font-weight="bold" font-size="12.00" fill="#495057">📁 modules/hyprland</text>
</g>
<g id="clust12" class="cluster">
<title>cluster_modules_nixos</title>
<path fill="#e9ecef" stroke="#adb5bd" d="M449.12,-752C449.12,-752 821.88,-752 821.88,-752 827.88,-752 833.88,-758 833.88,-764 833.88,-764 833.88,-946 833.88,-946 833.88,-952 827.88,-958 821.88,-958 821.88,-958 449.12,-958 449.12,-958 443.12,-958 437.12,-952 437.12,-946 437.12,-946 437.12,-764 437.12,-764 437.12,-758 443.12,-752 449.12,-752"/>
<text text-anchor="middle" x="635.5" y="-942.6" font-family="Helvetica,sans-Serif" font-weight="bold" font-size="12.00" fill="#495057">📁 modules/nixos</text>
</g>
<g id="clust13" class="cluster">
<title>cluster_modules_terminal</title>
<path fill="#e9ecef" stroke="#adb5bd" d="M436.12,-654C436.12,-654 551.12,-654 551.12,-654 557.12,-654 563.12,-660 563.12,-666 563.12,-666 563.12,-732 563.12,-732 563.12,-738 557.12,-744 551.12,-744 551.12,-744 436.12,-744 436.12,-744 430.12,-744 424.12,-738 424.12,-732 424.12,-732 424.12,-666 424.12,-666 424.12,-660 430.12,-654 436.12,-654"/>
<text text-anchor="middle" x="493.62" y="-728.6" font-family="Helvetica,sans-Serif" font-weight="bold" font-size="12.00" fill="#495057">📁 modules/terminal</text>
</g>
<g id="clust14" class="cluster">
<title>cluster_users_arthur_homelab</title>
<path fill="#e9ecef" stroke="#adb5bd" d="M446.88,-966C446.88,-966 795.62,-966 795.62,-966 801.62,-966 807.62,-972 807.62,-978 807.62,-978 807.62,-1044 807.62,-1044 807.62,-1050 801.62,-1056 795.62,-1056 795.62,-1056 446.88,-1056 446.88,-1056 440.88,-1056 434.88,-1050 434.88,-1044 434.88,-1044 434.88,-978 434.88,-978 434.88,-972 440.88,-966 446.88,-966"/>
<text text-anchor="middle" x="621.25" y="-1040.6" font-family="Helvetica,sans-Serif" font-weight="bold" font-size="12.00" fill="#495057">📁 users/arthur&#45;homelab</text>
</g>
<g id="clust15" class="cluster">
<title>cluster_users_arthur_perso</title>
<path fill="#e9ecef" stroke="#adb5bd" d="M446.88,-204C446.88,-204 795.62,-204 795.62,-204 801.62,-204 807.62,-210 807.62,-216 807.62,-216 807.62,-282 807.62,-282 807.62,-288 801.62,-294 795.62,-294 795.62,-294 446.88,-294 446.88,-294 440.88,-294 434.88,-288 434.88,-282 434.88,-282 434.88,-216 434.88,-216 434.88,-210 440.88,-204 446.88,-204"/>
<text text-anchor="middle" x="621.25" y="-278.6" font-family="Helvetica,sans-Serif" font-weight="bold" font-size="12.00" fill="#495057">📁 users/arthur&#45;perso</text>
</g>
<!-- N0 -->
<g id="node1" class="node">
<title>N0</title>
<path fill="#f8f9fa" stroke="#ced4da" d="M63.25,-3537C63.25,-3537 12,-3537 12,-3537 6,-3537 0,-3531 0,-3525 0,-3525 0,-3513 0,-3513 0,-3507 6,-3501 12,-3501 12,-3501 63.25,-3501 63.25,-3501 69.25,-3501 75.25,-3507 75.25,-3513 75.25,-3513 75.25,-3525 75.25,-3525 75.25,-3531 69.25,-3537 63.25,-3537"/>
<text text-anchor="middle" x="37.62" y="-3516.62" font-family="Helvetica,Arial,sans-serif" font-size="10.00" fill="#212529">📄 flake.nix</text>
</g>
<!-- N1 -->
<g id="node2" class="node">
<title>N1</title>
<path fill="#f8f9fa" stroke="#ced4da" d="M251.38,-3693C251.38,-3693 188.88,-3693 188.88,-3693 182.88,-3693 176.88,-3687 176.88,-3681 176.88,-3681 176.88,-3669 176.88,-3669 176.88,-3663 182.88,-3657 188.88,-3657 188.88,-3657 251.38,-3657 251.38,-3657 257.38,-3657 263.38,-3663 263.38,-3669 263.38,-3669 263.38,-3681 263.38,-3681 263.38,-3687 257.38,-3693 251.38,-3693"/>
<text text-anchor="middle" x="220.12" y="-3672.62" font-family="Helvetica,Arial,sans-serif" font-size="10.00" fill="#212529">📄 default.nix</text>
</g>
<!-- N0&#45;&gt;N1 -->
<g id="edge1" class="edge">
<title>N0&#45;&gt;N1</title>
<path fill="none" stroke="#6c757d" d="M55.21,-3537.49C85.4,-3571.15 146.25,-3639 146.25,-3639 146.25,-3639 159.29,-3645.44 174.33,-3652.87"/>
<polygon fill="#6c757d" stroke="#6c757d" points="173.12,-3655 180.48,-3655.91 175.29,-3650.61 173.12,-3655"/>
</g>
<!-- N2 -->
<g id="node3" class="node">
<title>N2</title>
<path fill="#f8f9fa" stroke="#ced4da" d="M266,-3537C266,-3537 174.25,-3537 174.25,-3537 168.25,-3537 162.25,-3531 162.25,-3525 162.25,-3525 162.25,-3513 162.25,-3513 162.25,-3507 168.25,-3501 174.25,-3501 174.25,-3501 266,-3501 266,-3501 272,-3501 278,-3507 278,-3513 278,-3513 278,-3525 278,-3525 278,-3531 272,-3537 266,-3537"/>
<text text-anchor="middle" x="220.12" y="-3516.62" font-family="Helvetica,Arial,sans-serif" font-size="10.00" fill="#212529">📄 configuration.nix</text>
</g>
<!-- N0&#45;&gt;N2 -->
<g id="edge2" class="edge">
<title>N0&#45;&gt;N2</title>
<path fill="none" stroke="#6c757d" d="M75.59,-3519C98.02,-3519 127.29,-3519 153.54,-3519"/>
<polygon fill="#6c757d" stroke="#6c757d" points="153.43,-3521.45 160.43,-3519 153.43,-3516.55 153.43,-3521.45"/>
</g>
<!-- N3 -->
<g id="node4" class="node">
<title>N3</title>
<path fill="#f8f9fa" stroke="#ced4da" d="M257.75,-3595C257.75,-3595 182.5,-3595 182.5,-3595 176.5,-3595 170.5,-3589 170.5,-3583 170.5,-3583 170.5,-3571 170.5,-3571 170.5,-3565 176.5,-3559 182.5,-3559 182.5,-3559 257.75,-3559 257.75,-3559 263.75,-3559 269.75,-3565 269.75,-3571 269.75,-3571 269.75,-3583 269.75,-3583 269.75,-3589 263.75,-3595 257.75,-3595"/>
<text text-anchor="middle" x="220.12" y="-3574.62" font-family="Helvetica,Arial,sans-serif" font-size="10.00" fill="#212529">📄 constants.nix</text>
</g>
<!-- N0&#45;&gt;N3 -->
<g id="edge3" class="edge">
<title>N0&#45;&gt;N3</title>
<path fill="none" stroke="#6c757d" d="M75.59,-3530.88C100.57,-3538.9 134.04,-3549.66 162.38,-3558.77"/>
<polygon fill="#6c757d" stroke="#6c757d" points="161.37,-3561.01 168.78,-3560.82 162.87,-3556.35 161.37,-3561.01"/>
</g>
<!-- N44 -->
<g id="node45" class="node">
<title>N44</title>
<path fill="#f8f9fa" stroke="#ced4da" d="M266,-353C266,-353 174.25,-353 174.25,-353 168.25,-353 162.25,-347 162.25,-341 162.25,-341 162.25,-329 162.25,-329 162.25,-323 168.25,-317 174.25,-317 174.25,-317 266,-317 266,-317 272,-317 278,-323 278,-329 278,-329 278,-341 278,-341 278,-347 272,-353 266,-353"/>
<text text-anchor="middle" x="220.12" y="-332.62" font-family="Helvetica,Arial,sans-serif" font-size="10.00" fill="#212529">📄 configuration.nix</text>
</g>
<!-- N0&#45;&gt;N44 -->
<g id="edge4" class="edge">
<title>N0&#45;&gt;N44</title>
<path fill="none" stroke="#6c757d" d="M39.66,-3500.7C53.49,-3256.84 201.08,-653.22 217.62,-361.53"/>
<polygon fill="#6c757d" stroke="#6c757d" points="220.06,-361.85 218.01,-354.72 215.16,-361.57 220.06,-361.85"/>
</g>
<!-- N46 -->
<g id="node47" class="node">
<title>N46</title>
<path fill="#f8f9fa" stroke="#ced4da" d="M266,-59C266,-59 174.25,-59 174.25,-59 168.25,-59 162.25,-53 162.25,-47 162.25,-47 162.25,-35 162.25,-35 162.25,-29 168.25,-23 174.25,-23 174.25,-23 266,-23 266,-23 272,-23 278,-29 278,-35 278,-35 278,-47 278,-47 278,-53 272,-59 266,-59"/>
<text text-anchor="middle" x="220.12" y="-38.62" font-family="Helvetica,Arial,sans-serif" font-size="10.00" fill="#212529">📄 configuration.nix</text>
</g>
<!-- N0&#45;&gt;N46 -->
<g id="edge5" class="edge">
<title>N0&#45;&gt;N46</title>
<path fill="none" stroke="#6c757d" d="M39.23,-3500.88C47.88,-3242.04 146.25,-297 146.25,-297 146.25,-297 193.08,-132.48 211.66,-67.22"/>
<polygon fill="#6c757d" stroke="#6c757d" points="213.91,-68.27 213.47,-60.87 209.2,-66.93 213.91,-68.27"/>
</g>
<!-- N4 -->
<g id="node5" class="node">
<title>N4</title>
<path fill="#f8f9fa" stroke="#ced4da" d="M563.75,-3537C563.75,-3537 422.5,-3537 422.5,-3537 416.5,-3537 410.5,-3531 410.5,-3525 410.5,-3525 410.5,-3513 410.5,-3513 410.5,-3507 416.5,-3501 422.5,-3501 422.5,-3501 563.75,-3501 563.75,-3501 569.75,-3501 575.75,-3507 575.75,-3513 575.75,-3513 575.75,-3525 575.75,-3525 575.75,-3531 569.75,-3537 563.75,-3537"/>
<text text-anchor="middle" x="493.12" y="-3516.62" font-family="Helvetica,Arial,sans-serif" font-size="10.00" fill="#212529">📄 hardware&#45;configuration.nix</text>
</g>
<!-- N2&#45;&gt;N4 -->
<g id="edge6" class="edge">
<title>N2&#45;&gt;N4</title>
<path fill="none" stroke="#6c757d" d="M278.27,-3519C314.08,-3519 361.02,-3519 401.79,-3519"/>
<polygon fill="#6c757d" stroke="#6c757d" points="401.61,-3521.45 408.61,-3519 401.61,-3516.55 401.61,-3521.45"/>
</g>
<!-- N5 -->
<g id="node6" class="node">
<title>N5</title>
<path fill="#f8f9fa" stroke="#ced4da" d="M522.5,-3033C522.5,-3033 463.75,-3033 463.75,-3033 457.75,-3033 451.75,-3027 451.75,-3021 451.75,-3021 451.75,-3009 451.75,-3009 451.75,-3003 457.75,-2997 463.75,-2997 463.75,-2997 522.5,-2997 522.5,-2997 528.5,-2997 534.5,-3003 534.5,-3009 534.5,-3009 534.5,-3021 534.5,-3021 534.5,-3027 528.5,-3033 522.5,-3033"/>
<text text-anchor="middle" x="493.12" y="-3012.62" font-family="Helvetica,Arial,sans-serif" font-size="10.00" fill="#212529">📄 byparr.nix</text>
</g>
<!-- N2&#45;&gt;N5 -->
<g id="edge7" class="edge">
<title>N2&#45;&gt;N5</title>
<path fill="none" stroke="#6c757d" d="M226.93,-3500.67C254.59,-3413.38 371.62,-3044 371.62,-3044 371.62,-3044 409.98,-3034.77 443.41,-3026.72"/>
<polygon fill="#6c757d" stroke="#6c757d" points="443.63,-3029.19 449.86,-3025.17 442.48,-3024.43 443.63,-3029.19"/>
</g>
<!-- N6 -->
<g id="node7" class="node">
<title>N6</title>
<path fill="#f8f9fa" stroke="#ced4da" d="M557.75,-3091C557.75,-3091 428.5,-3091 428.5,-3091 422.5,-3091 416.5,-3085 416.5,-3079 416.5,-3079 416.5,-3067 416.5,-3067 416.5,-3061 422.5,-3055 428.5,-3055 428.5,-3055 557.75,-3055 557.75,-3055 563.75,-3055 569.75,-3061 569.75,-3067 569.75,-3067 569.75,-3079 569.75,-3079 569.75,-3085 563.75,-3091 557.75,-3091"/>
<text text-anchor="middle" x="493.12" y="-3070.62" font-family="Helvetica,Arial,sans-serif" font-size="10.00" fill="#212529">📄 filebrowser&#45;quantum.nix</text>
</g>
<!-- N2&#45;&gt;N6 -->
<g id="edge8" class="edge">
<title>N2&#45;&gt;N6</title>
<path fill="none" stroke="#6c757d" d="M227.79,-3500.54C256.91,-3419.84 371.62,-3102 371.62,-3102 371.62,-3102 387.72,-3098.13 408.14,-3093.21"/>
<polygon fill="#6c757d" stroke="#6c757d" points="408.45,-3095.66 414.68,-3091.64 407.3,-3090.89 408.45,-3095.66"/>
</g>
<!-- N7 -->
<g id="node8" class="node">
<title>N7</title>
<path fill="#f8f9fa" stroke="#ced4da" d="M525.5,-3149C525.5,-3149 460.75,-3149 460.75,-3149 454.75,-3149 448.75,-3143 448.75,-3137 448.75,-3137 448.75,-3125 448.75,-3125 448.75,-3119 454.75,-3113 460.75,-3113 460.75,-3113 525.5,-3113 525.5,-3113 531.5,-3113 537.5,-3119 537.5,-3125 537.5,-3125 537.5,-3137 537.5,-3137 537.5,-3143 531.5,-3149 525.5,-3149"/>
<text text-anchor="middle" x="493.12" y="-3128.62" font-family="Helvetica,Arial,sans-serif" font-size="10.00" fill="#212529">📄 immich.nix</text>
</g>
<!-- N2&#45;&gt;N7 -->
<g id="edge9" class="edge">
<title>N2&#45;&gt;N7</title>
<path fill="none" stroke="#6c757d" d="M228.8,-3500.7C259.46,-3427.55 371.62,-3160 371.62,-3160 371.62,-3160 407.49,-3151.37 440.09,-3143.52"/>
<polygon fill="#6c757d" stroke="#6c757d" points="440.58,-3145.93 446.81,-3141.91 439.43,-3141.16 440.58,-3145.93"/>
</g>
<!-- N8 -->
<g id="node9" class="node">
<title>N8</title>
<path fill="#f8f9fa" stroke="#ced4da" d="M523.62,-3207C523.62,-3207 462.62,-3207 462.62,-3207 456.62,-3207 450.62,-3201 450.62,-3195 450.62,-3195 450.62,-3183 450.62,-3183 450.62,-3177 456.62,-3171 462.62,-3171 462.62,-3171 523.62,-3171 523.62,-3171 529.62,-3171 535.62,-3177 535.62,-3183 535.62,-3183 535.62,-3195 535.62,-3195 535.62,-3201 529.62,-3207 523.62,-3207"/>
<text text-anchor="middle" x="493.12" y="-3186.62" font-family="Helvetica,Arial,sans-serif" font-size="10.00" fill="#212529">📄 jellyfin.nix</text>
</g>
<!-- N2&#45;&gt;N8 -->
<g id="edge10" class="edge">
<title>N2&#45;&gt;N8</title>
<path fill="none" stroke="#6c757d" d="M230.31,-3500.62C262.99,-3435.27 371.62,-3218 371.62,-3218 371.62,-3218 409.24,-3208.95 442.44,-3200.96"/>
<polygon fill="#6c757d" stroke="#6c757d" points="442.61,-3203.44 448.85,-3199.42 441.47,-3198.67 442.61,-3203.44"/>
</g>
<!-- N9 -->
<g id="node10" class="node">
<title>N9</title>
<path fill="#f8f9fa" stroke="#ced4da" d="M523.62,-3265C523.62,-3265 462.62,-3265 462.62,-3265 456.62,-3265 450.62,-3259 450.62,-3253 450.62,-3253 450.62,-3241 450.62,-3241 450.62,-3235 456.62,-3229 462.62,-3229 462.62,-3229 523.62,-3229 523.62,-3229 529.62,-3229 535.62,-3235 535.62,-3241 535.62,-3241 535.62,-3253 535.62,-3253 535.62,-3259 529.62,-3265 523.62,-3265"/>
<text text-anchor="middle" x="493.12" y="-3244.62" font-family="Helvetica,Arial,sans-serif" font-size="10.00" fill="#212529">📄 komga.nix</text>
</g>
<!-- N2&#45;&gt;N9 -->
<g id="edge11" class="edge">
<title>N2&#45;&gt;N9</title>
<path fill="none" stroke="#6c757d" d="M232.44,-3500.74C267.44,-3444.22 371.62,-3276 371.62,-3276 371.62,-3276 409.24,-3266.95 442.44,-3258.96"/>
<polygon fill="#6c757d" stroke="#6c757d" points="442.61,-3261.44 448.85,-3257.42 441.47,-3256.67 442.61,-3261.44"/>
</g>
<!-- N10 -->
<g id="node11" class="node">
<title>N10</title>
<path fill="#f8f9fa" stroke="#ced4da" d="M531.12,-3323C531.12,-3323 455.12,-3323 455.12,-3323 449.12,-3323 443.12,-3317 443.12,-3311 443.12,-3311 443.12,-3299 443.12,-3299 443.12,-3293 449.12,-3287 455.12,-3287 455.12,-3287 531.12,-3287 531.12,-3287 537.12,-3287 543.12,-3293 543.12,-3299 543.12,-3299 543.12,-3311 543.12,-3311 543.12,-3317 537.12,-3323 531.12,-3323"/>
<text text-anchor="middle" x="493.12" y="-3302.62" font-family="Helvetica,Arial,sans-serif" font-size="10.00" fill="#212529">📄 onlyoffice.nix</text>
</g>
<!-- N2&#45;&gt;N10 -->
<g id="edge12" class="edge">
<title>N2&#45;&gt;N10</title>
<path fill="none" stroke="#6c757d" d="M236.11,-3500.59C274.17,-3453.79 371.62,-3334 371.62,-3334 371.62,-3334 403.53,-3326.32 434.51,-3318.87"/>
<polygon fill="#6c757d" stroke="#6c757d" points="435.06,-3321.25 441.29,-3317.23 433.91,-3316.49 435.06,-3321.25"/>
</g>
<!-- N11 -->
<g id="node12" class="node">
<title>N11</title>
<path fill="#f8f9fa" stroke="#ced4da" d="M527,-3381C527,-3381 459.25,-3381 459.25,-3381 453.25,-3381 447.25,-3375 447.25,-3369 447.25,-3369 447.25,-3357 447.25,-3357 447.25,-3351 453.25,-3345 459.25,-3345 459.25,-3345 527,-3345 527,-3345 533,-3345 539,-3351 539,-3357 539,-3357 539,-3369 539,-3369 539,-3375 533,-3381 527,-3381"/>
<text text-anchor="middle" x="493.12" y="-3360.62" font-family="Helvetica,Arial,sans-serif" font-size="10.00" fill="#212529">📄 prowlarr.nix</text>
</g>
<!-- N2&#45;&gt;N11 -->
<g id="edge13" class="edge">
<title>N2&#45;&gt;N11</title>
<path fill="none" stroke="#6c757d" d="M243.01,-3500.53C284.75,-3465.31 371.62,-3392 371.62,-3392 371.62,-3392 406.55,-3383.59 438.8,-3375.83"/>
<polygon fill="#6c757d" stroke="#6c757d" points="439.21,-3378.26 445.44,-3374.24 438.06,-3373.49 439.21,-3378.26"/>
</g>
<!-- N12 -->
<g id="node13" class="node">
<title>N12</title>
<path fill="#f8f9fa" stroke="#ced4da" d="M533,-3439C533,-3439 453.25,-3439 453.25,-3439 447.25,-3439 441.25,-3433 441.25,-3427 441.25,-3427 441.25,-3415 441.25,-3415 441.25,-3409 447.25,-3403 453.25,-3403 453.25,-3403 533,-3403 533,-3403 539,-3403 545,-3409 545,-3415 545,-3415 545,-3427 545,-3427 545,-3433 539,-3439 533,-3439"/>
<text text-anchor="middle" x="493.12" y="-3418.62" font-family="Helvetica,Arial,sans-serif" font-size="10.00" fill="#212529">📄 qbittorrent.nix</text>
</g>
<!-- N2&#45;&gt;N12 -->
<g id="edge14" class="edge">
<title>N2&#45;&gt;N12</title>
<path fill="none" stroke="#6c757d" d="M272.1,-3500.57C317.99,-3483.97 385.43,-3459.58 433.53,-3442.19"/>
<polygon fill="#6c757d" stroke="#6c757d" points="434.21,-3444.55 439.96,-3439.87 432.54,-3439.94 434.21,-3444.55"/>
</g>
<!-- N13 -->
<g id="node14" class="node">
<title>N13</title>
<path fill="#f8f9fa" stroke="#ced4da" d="M517.25,-2801C517.25,-2801 469,-2801 469,-2801 463,-2801 457,-2795 457,-2789 457,-2789 457,-2777 457,-2777 457,-2771 463,-2765 469,-2765 469,-2765 517.25,-2765 517.25,-2765 523.25,-2765 529.25,-2771 529.25,-2777 529.25,-2777 529.25,-2789 529.25,-2789 529.25,-2795 523.25,-2801 517.25,-2801"/>
<text text-anchor="middle" x="493.12" y="-2780.62" font-family="Helvetica,Arial,sans-serif" font-size="10.00" fill="#212529">📄 seer.nix</text>
</g>
<!-- N2&#45;&gt;N13 -->
<g id="edge15" class="edge">
<title>N2&#45;&gt;N13</title>
<path fill="none" stroke="#6c757d" d="M225,-3500.81C248.55,-3390.15 371.62,-2812 371.62,-2812 371.62,-2812 414.01,-2801.8 448.5,-2793.5"/>
<polygon fill="#6c757d" stroke="#6c757d" points="448.92,-2795.92 455.15,-2791.9 447.77,-2791.15 448.92,-2795.92"/>
</g>
<!-- N14 -->
<g id="node15" class="node">
<title>N14</title>
<path fill="#f8f9fa" stroke="#ced4da" d="M522.12,-2859C522.12,-2859 464.12,-2859 464.12,-2859 458.12,-2859 452.12,-2853 452.12,-2847 452.12,-2847 452.12,-2835 452.12,-2835 452.12,-2829 458.12,-2823 464.12,-2823 464.12,-2823 522.12,-2823 522.12,-2823 528.12,-2823 534.12,-2829 534.12,-2835 534.12,-2835 534.12,-2847 534.12,-2847 534.12,-2853 528.12,-2859 522.12,-2859"/>
<text text-anchor="middle" x="493.12" y="-2838.62" font-family="Helvetica,Arial,sans-serif" font-size="10.00" fill="#212529">📄 sonarr.nix</text>
</g>
<!-- N2&#45;&gt;N14 -->
<g id="edge16" class="edge">
<title>N2&#45;&gt;N14</title>
<path fill="none" stroke="#6c757d" d="M225.39,-3500.62C249.88,-3395.01 371.62,-2870 371.62,-2870 371.62,-2870 410.22,-2860.71 443.73,-2852.65"/>
<polygon fill="#6c757d" stroke="#6c757d" points="443.96,-2855.11 450.19,-2851.09 442.81,-2850.35 443.96,-2855.11"/>
</g>
<!-- N15 -->
<g id="node16" class="node">
<title>N15</title>
<path fill="#f8f9fa" stroke="#ced4da" d="M532.25,-2917C532.25,-2917 454,-2917 454,-2917 448,-2917 442,-2911 442,-2905 442,-2905 442,-2893 442,-2893 442,-2887 448,-2881 454,-2881 454,-2881 532.25,-2881 532.25,-2881 538.25,-2881 544.25,-2887 544.25,-2893 544.25,-2893 544.25,-2905 544.25,-2905 544.25,-2911 538.25,-2917 532.25,-2917"/>
<text text-anchor="middle" x="493.12" y="-2896.62" font-family="Helvetica,Arial,sans-serif" font-size="10.00" fill="#212529">📄 suwayomi.nix</text>
</g>
<!-- N2&#45;&gt;N15 -->
<g id="edge17" class="edge">
<title>N2&#45;&gt;N15</title>
<path fill="none" stroke="#6c757d" d="M225.79,-3500.66C251.2,-3400.91 371.62,-2928 371.62,-2928 371.62,-2928 402.87,-2920.48 433.54,-2913.1"/>
<polygon fill="#6c757d" stroke="#6c757d" points="434.02,-2915.5 440.25,-2911.48 432.87,-2910.74 434.02,-2915.5"/>
</g>
<!-- N16 -->
<g id="node17" class="node">
<title>N16</title>
<path fill="#f8f9fa" stroke="#ced4da" d="M522.88,-2975C522.88,-2975 463.38,-2975 463.38,-2975 457.38,-2975 451.38,-2969 451.38,-2963 451.38,-2963 451.38,-2951 451.38,-2951 451.38,-2945 457.38,-2939 463.38,-2939 463.38,-2939 522.88,-2939 522.88,-2939 528.88,-2939 534.88,-2945 534.88,-2951 534.88,-2951 534.88,-2963 534.88,-2963 534.88,-2969 528.88,-2975 522.88,-2975"/>
<text text-anchor="middle" x="493.12" y="-2954.62" font-family="Helvetica,Arial,sans-serif" font-size="10.00" fill="#212529">📄 tranga.nix</text>
</g>
<!-- N2&#45;&gt;N16 -->
<g id="edge18" class="edge">
<title>N2&#45;&gt;N16</title>
<path fill="none" stroke="#6c757d" d="M226.31,-3500.65C252.77,-3406.93 371.62,-2986 371.62,-2986 371.62,-2986 409.73,-2976.83 443.08,-2968.8"/>
<polygon fill="#6c757d" stroke="#6c757d" points="443.29,-2971.27 449.52,-2967.25 442.14,-2966.51 443.29,-2971.27"/>
</g>
<!-- N17 -->
<g id="node18" class="node">
<title>N17</title>
<path fill="#f8f9fa" stroke="#ced4da" d="M518.38,-2471C518.38,-2471 467.88,-2471 467.88,-2471 461.88,-2471 455.88,-2465 455.88,-2459 455.88,-2459 455.88,-2447 455.88,-2447 455.88,-2441 461.88,-2435 467.88,-2435 467.88,-2435 518.38,-2435 518.38,-2435 524.38,-2435 530.38,-2441 530.38,-2447 530.38,-2447 530.38,-2459 530.38,-2459 530.38,-2465 524.38,-2471 518.38,-2471"/>
<text text-anchor="middle" x="493.12" y="-2450.62" font-family="Helvetica,Arial,sans-serif" font-size="10.00" fill="#212529">📄 alloy.nix</text>
</g>
<!-- N2&#45;&gt;N17 -->
<g id="edge19" class="edge">
<title>N2&#45;&gt;N17</title>
<path fill="none" stroke="#6c757d" d="M223.8,-3500.56C243.99,-3361.43 371.62,-2482 371.62,-2482 371.62,-2482 413.24,-2471.99 447.56,-2463.73"/>
<polygon fill="#6c757d" stroke="#6c757d" points="447.94,-2466.15 454.17,-2462.13 446.79,-2461.39 447.94,-2466.15"/>
</g>
<!-- N18 -->
<g id="node19" class="node">
<title>N18</title>
<path fill="#f8f9fa" stroke="#ced4da" d="M531.88,-2529C531.88,-2529 454.38,-2529 454.38,-2529 448.38,-2529 442.38,-2523 442.38,-2517 442.38,-2517 442.38,-2505 442.38,-2505 442.38,-2499 448.38,-2493 454.38,-2493 454.38,-2493 531.88,-2493 531.88,-2493 537.88,-2493 543.88,-2499 543.88,-2505 543.88,-2505 543.88,-2517 543.88,-2517 543.88,-2523 537.88,-2529 531.88,-2529"/>
<text text-anchor="middle" x="493.12" y="-2508.62" font-family="Helvetica,Arial,sans-serif" font-size="10.00" fill="#212529">📄 borgmatic.nix</text>
</g>
<!-- N2&#45;&gt;N18 -->
<g id="edge20" class="edge">
<title>N2&#45;&gt;N18</title>
<path fill="none" stroke="#6c757d" d="M223.93,-3500.75C244.53,-3366.73 371.62,-2540 371.62,-2540 371.62,-2540 403.09,-2532.43 433.86,-2525.02"/>
<polygon fill="#6c757d" stroke="#6c757d" points="434.37,-2527.42 440.6,-2523.4 433.22,-2522.66 434.37,-2527.42"/>
</g>
<!-- N19 -->
<g id="node20" class="node">
<title>N19</title>
<path fill="#f8f9fa" stroke="#ced4da" d="M525.88,-2587C525.88,-2587 460.38,-2587 460.38,-2587 454.38,-2587 448.38,-2581 448.38,-2575 448.38,-2575 448.38,-2563 448.38,-2563 448.38,-2557 454.38,-2551 460.38,-2551 460.38,-2551 525.88,-2551 525.88,-2551 531.88,-2551 537.88,-2557 537.88,-2563 537.88,-2563 537.88,-2575 537.88,-2575 537.88,-2581 531.88,-2587 525.88,-2587"/>
<text text-anchor="middle" x="493.12" y="-2566.62" font-family="Helvetica,Arial,sans-serif" font-size="10.00" fill="#212529">📄 grafana.nix</text>
</g>
<!-- N2&#45;&gt;N19 -->
<g id="edge21" class="edge">
<title>N2&#45;&gt;N19</title>
<path fill="none" stroke="#6c757d" d="M224.13,-3500.6C245.34,-3370.8 371.62,-2598 371.62,-2598 371.62,-2598 407.25,-2589.43 439.76,-2581.6"/>
<polygon fill="#6c757d" stroke="#6c757d" points="440.24,-2584.01 446.47,-2579.99 439.09,-2579.24 440.24,-2584.01"/>
</g>
<!-- N20 -->
<g id="node21" class="node">
<title>N20</title>
<path fill="#f8f9fa" stroke="#ced4da" d="M516.12,-2645C516.12,-2645 470.12,-2645 470.12,-2645 464.12,-2645 458.12,-2639 458.12,-2633 458.12,-2633 458.12,-2621 458.12,-2621 458.12,-2615 464.12,-2609 470.12,-2609 470.12,-2609 516.12,-2609 516.12,-2609 522.12,-2609 528.12,-2615 528.12,-2621 528.12,-2621 528.12,-2633 528.12,-2633 528.12,-2639 522.12,-2645 516.12,-2645"/>
<text text-anchor="middle" x="493.12" y="-2624.62" font-family="Helvetica,Arial,sans-serif" font-size="10.00" fill="#212529">📄 loki.nix</text>
</g>
<!-- N2&#45;&gt;N20 -->
<g id="edge22" class="edge">
<title>N2&#45;&gt;N20</title>
<path fill="none" stroke="#6c757d" d="M224.34,-3500.58C246.15,-3375.51 371.62,-2656 371.62,-2656 371.62,-2656 415.05,-2645.55 449.76,-2637.2"/>
<polygon fill="#6c757d" stroke="#6c757d" points="450.21,-2639.61 456.45,-2635.59 449.07,-2634.84 450.21,-2639.61"/>
</g>
<!-- N21 -->
<g id="node22" class="node">
<title>N21</title>
<path fill="#f8f9fa" stroke="#ced4da" d="M525.88,-2703C525.88,-2703 460.38,-2703 460.38,-2703 454.38,-2703 448.38,-2697 448.38,-2691 448.38,-2691 448.38,-2679 448.38,-2679 448.38,-2673 454.38,-2667 460.38,-2667 460.38,-2667 525.88,-2667 525.88,-2667 531.88,-2667 537.88,-2673 537.88,-2679 537.88,-2679 537.88,-2691 537.88,-2691 537.88,-2697 531.88,-2703 525.88,-2703"/>
<text text-anchor="middle" x="493.12" y="-2682.62" font-family="Helvetica,Arial,sans-serif" font-size="10.00" fill="#212529">📄 netdata.nix</text>
</g>
<!-- N2&#45;&gt;N21 -->
<g id="edge23" class="edge">
<title>N2&#45;&gt;N21</title>
<path fill="none" stroke="#6c757d" d="M224.7,-3500.63C247.49,-3383.42 371.62,-2745 371.62,-2745 371.62,-2745 413.42,-2724.19 447.79,-2707.08"/>
<polygon fill="#6c757d" stroke="#6c757d" points="448.46,-2709.48 453.63,-2704.17 446.27,-2705.09 448.46,-2709.48"/>
</g>
<!-- N22 -->
<g id="node23" class="node">
<title>N22</title>
<path fill="#f8f9fa" stroke="#ced4da" d="M542.75,-2239C542.75,-2239 443.5,-2239 443.5,-2239 437.5,-2239 431.5,-2233 431.5,-2227 431.5,-2227 431.5,-2215 431.5,-2215 431.5,-2209 437.5,-2203 443.5,-2203 443.5,-2203 542.75,-2203 542.75,-2203 548.75,-2203 554.75,-2209 554.75,-2215 554.75,-2215 554.75,-2227 554.75,-2227 554.75,-2233 548.75,-2239 542.75,-2239"/>
<text text-anchor="middle" x="493.12" y="-2218.62" font-family="Helvetica,Arial,sans-serif" font-size="10.00" fill="#212529">📄 power&#45;monitor.nix</text>
</g>
<!-- N2&#45;&gt;N22 -->
<g id="edge24" class="edge">
<title>N2&#45;&gt;N22</title>
<path fill="none" stroke="#6c757d" d="M223.31,-3500.57C241.82,-3344.52 371.62,-2250 371.62,-2250 371.62,-2250 396.19,-2244.09 423.14,-2237.6"/>
<polygon fill="#6c757d" stroke="#6c757d" points="423.47,-2240.04 429.7,-2236.02 422.32,-2235.28 423.47,-2240.04"/>
</g>
<!-- N23 -->
<g id="node24" class="node">
<title>N23</title>
<path fill="#f8f9fa" stroke="#ced4da" d="M536.38,-2297C536.38,-2297 449.88,-2297 449.88,-2297 443.88,-2297 437.88,-2291 437.88,-2285 437.88,-2285 437.88,-2273 437.88,-2273 437.88,-2267 443.88,-2261 449.88,-2261 449.88,-2261 536.38,-2261 536.38,-2261 542.38,-2261 548.38,-2267 548.38,-2273 548.38,-2273 548.38,-2285 548.38,-2285 548.38,-2291 542.38,-2297 536.38,-2297"/>
<text text-anchor="middle" x="493.12" y="-2276.62" font-family="Helvetica,Arial,sans-serif" font-size="10.00" fill="#212529">📄 prometheus.nix</text>
</g>
<!-- N2&#45;&gt;N23 -->
<g id="edge25" class="edge">
<title>N2&#45;&gt;N23</title>
<path fill="none" stroke="#6c757d" d="M223.37,-3500.94C242.09,-3350.3 371.62,-2308 371.62,-2308 371.62,-2308 400.04,-2301.16 429.27,-2294.13"/>
<polygon fill="#6c757d" stroke="#6c757d" points="429.81,-2296.52 436.04,-2292.5 428.67,-2291.75 429.81,-2296.52"/>
</g>
<!-- N24 -->
<g id="node25" class="node">
<title>N24</title>
<path fill="#f8f9fa" stroke="#ced4da" d="M525.88,-2355C525.88,-2355 460.38,-2355 460.38,-2355 454.38,-2355 448.38,-2349 448.38,-2343 448.38,-2343 448.38,-2331 448.38,-2331 448.38,-2325 454.38,-2319 460.38,-2319 460.38,-2319 525.88,-2319 525.88,-2319 531.88,-2319 537.88,-2325 537.88,-2331 537.88,-2331 537.88,-2343 537.88,-2343 537.88,-2349 531.88,-2355 525.88,-2355"/>
<text text-anchor="middle" x="493.12" y="-2334.62" font-family="Helvetica,Arial,sans-serif" font-size="10.00" fill="#212529">📄 scrutiny.nix</text>
</g>
<!-- N2&#45;&gt;N24 -->
<g id="edge26" class="edge">
<title>N2&#45;&gt;N24</title>
<path fill="none" stroke="#6c757d" d="M223.49,-3500.89C242.64,-3354.2 371.62,-2366 371.62,-2366 371.62,-2366 407.25,-2357.43 439.76,-2349.6"/>
<polygon fill="#6c757d" stroke="#6c757d" points="440.24,-2352.01 446.47,-2347.99 439.09,-2347.24 440.24,-2352.01"/>
</g>
<!-- N25 -->
<g id="node26" class="node">
<title>N25</title>
<path fill="#f8f9fa" stroke="#ced4da" d="M539.75,-2413C539.75,-2413 446.5,-2413 446.5,-2413 440.5,-2413 434.5,-2407 434.5,-2401 434.5,-2401 434.5,-2389 434.5,-2389 434.5,-2383 440.5,-2377 446.5,-2377 446.5,-2377 539.75,-2377 539.75,-2377 545.75,-2377 551.75,-2383 551.75,-2389 551.75,-2389 551.75,-2401 551.75,-2401 551.75,-2407 545.75,-2413 539.75,-2413"/>
<text text-anchor="middle" x="493.12" y="-2392.62" font-family="Helvetica,Arial,sans-serif" font-size="10.00" fill="#212529">📄 uptime&#45;kuma.nix</text>
</g>
<!-- N2&#45;&gt;N25 -->
<g id="edge27" class="edge">
<title>N2&#45;&gt;N25</title>
<path fill="none" stroke="#6c757d" d="M223.61,-3500.91C243.18,-3358.54 371.62,-2424 371.62,-2424 371.62,-2424 398.19,-2417.61 426.37,-2410.82"/>
<polygon fill="#6c757d" stroke="#6c757d" points="426.64,-2413.28 432.87,-2409.26 425.5,-2408.52 426.64,-2413.28"/>
</g>
<!-- N26 -->
<g id="node27" class="node">
<title>N26</title>
<path fill="#f8f9fa" stroke="#ced4da" d="M545.75,-1735C545.75,-1735 440.5,-1735 440.5,-1735 434.5,-1735 428.5,-1729 428.5,-1723 428.5,-1723 428.5,-1711 428.5,-1711 428.5,-1705 434.5,-1699 440.5,-1699 440.5,-1699 545.75,-1699 545.75,-1699 551.75,-1699 557.75,-1705 557.75,-1711 557.75,-1711 557.75,-1723 557.75,-1723 557.75,-1729 551.75,-1735 545.75,-1735"/>
<text text-anchor="middle" x="493.12" y="-1714.62" font-family="Helvetica,Arial,sans-serif" font-size="10.00" fill="#212529">📄 crafty&#45;controller.nix</text>
</g>
<!-- N2&#45;&gt;N26 -->
<g id="edge28" class="edge">
<title>N2&#45;&gt;N26</title>
<path fill="none" stroke="#6c757d" d="M222.69,-3500.58C238.66,-3312.43 371.62,-1746 371.62,-1746 371.62,-1746 394.47,-1740.5 420.27,-1734.29"/>
<polygon fill="#6c757d" stroke="#6c757d" points="420.64,-1736.72 426.87,-1732.7 419.5,-1731.96 420.64,-1736.72"/>
</g>
<!-- N27 -->
<g id="node28" class="node">
<title>N27</title>
<path fill="#f8f9fa" stroke="#ced4da" d="M524.38,-1793C524.38,-1793 461.88,-1793 461.88,-1793 455.88,-1793 449.88,-1787 449.88,-1781 449.88,-1781 449.88,-1769 449.88,-1769 449.88,-1763 455.88,-1757 461.88,-1757 461.88,-1757 524.38,-1757 524.38,-1757 530.38,-1757 536.38,-1763 536.38,-1769 536.38,-1769 536.38,-1781 536.38,-1781 536.38,-1787 530.38,-1793 524.38,-1793"/>
<text text-anchor="middle" x="493.12" y="-1772.62" font-family="Helvetica,Arial,sans-serif" font-size="10.00" fill="#212529">📄 forgejo.nix</text>
</g>
<!-- N2&#45;&gt;N27 -->
<g id="edge29" class="edge">
<title>N2&#45;&gt;N27</title>
<path fill="none" stroke="#6c757d" d="M222.74,-3500.61C238.94,-3316.04 371.62,-1804 371.62,-1804 371.62,-1804 408.44,-1795.14 441.38,-1787.21"/>
<polygon fill="#6c757d" stroke="#6c757d" points="441.94,-1789.6 448.17,-1785.58 440.79,-1784.83 441.94,-1789.6"/>
</g>
<!-- N28 -->
<g id="node29" class="node">
<title>N28</title>
<path fill="#f8f9fa" stroke="#ced4da" d="M533,-1851C533,-1851 453.25,-1851 453.25,-1851 447.25,-1851 441.25,-1845 441.25,-1839 441.25,-1839 441.25,-1827 441.25,-1827 441.25,-1821 447.25,-1815 453.25,-1815 453.25,-1815 533,-1815 533,-1815 539,-1815 545,-1821 545,-1827 545,-1827 545,-1839 545,-1839 545,-1845 539,-1851 533,-1851"/>
<text text-anchor="middle" x="493.12" y="-1830.62" font-family="Helvetica,Arial,sans-serif" font-size="10.00" fill="#212529">📄 homepage.nix</text>
</g>
<!-- N2&#45;&gt;N28 -->
<g id="edge30" class="edge">
<title>N2&#45;&gt;N28</title>
<path fill="none" stroke="#6c757d" d="M222.79,-3500.67C239.21,-3319.87 371.62,-1862 371.62,-1862 371.62,-1862 402.43,-1854.59 432.89,-1847.26"/>
<polygon fill="#6c757d" stroke="#6c757d" points="433.32,-1849.67 439.55,-1845.65 432.17,-1844.91 433.32,-1849.67"/>
</g>
<!-- N29 -->
<g id="node30" class="node">
<title>N29</title>
<path fill="#f8f9fa" stroke="#ced4da" d="M538.25,-1909C538.25,-1909 448,-1909 448,-1909 442,-1909 436,-1903 436,-1897 436,-1897 436,-1885 436,-1885 436,-1879 442,-1873 448,-1873 448,-1873 538.25,-1873 538.25,-1873 544.25,-1873 550.25,-1879 550.25,-1885 550.25,-1885 550.25,-1897 550.25,-1897 550.25,-1903 544.25,-1909 538.25,-1909"/>
<text text-anchor="middle" x="493.12" y="-1888.62" font-family="Helvetica,Arial,sans-serif" font-size="10.00" fill="#212529">📄 local&#45;finance.nix</text>
</g>
<!-- N2&#45;&gt;N29 -->
<g id="edge31" class="edge">
<title>N2&#45;&gt;N29</title>
<path fill="none" stroke="#6c757d" d="M222.84,-3500.77C239.49,-3323.91 371.62,-1920 371.62,-1920 371.62,-1920 399,-1913.41 427.66,-1906.51"/>
<polygon fill="#6c757d" stroke="#6c757d" points="428.05,-1908.94 434.28,-1904.92 426.91,-1904.18 428.05,-1908.94"/>
</g>
<!-- N30 -->
<g id="node31" class="node">
<title>N30</title>
<path fill="#f8f9fa" stroke="#ced4da" d="M516.12,-1967C516.12,-1967 470.12,-1967 470.12,-1967 464.12,-1967 458.12,-1961 458.12,-1955 458.12,-1955 458.12,-1943 458.12,-1943 458.12,-1937 464.12,-1931 470.12,-1931 470.12,-1931 516.12,-1931 516.12,-1931 522.12,-1931 528.12,-1937 528.12,-1943 528.12,-1943 528.12,-1955 528.12,-1955 528.12,-1961 522.12,-1967 516.12,-1967"/>
<text text-anchor="middle" x="493.12" y="-1946.62" font-family="Helvetica,Arial,sans-serif" font-size="10.00" fill="#212529">📄 n8n.nix</text>
</g>
<!-- N2&#45;&gt;N30 -->
<g id="edge32" class="edge">
<title>N2&#45;&gt;N30</title>
<path fill="none" stroke="#6c757d" d="M222.92,-3500.62C239.9,-3326.76 371.62,-1978 371.62,-1978 371.62,-1978 415.05,-1967.55 449.76,-1959.2"/>
<polygon fill="#6c757d" stroke="#6c757d" points="450.21,-1961.61 456.45,-1957.59 449.07,-1956.84 450.21,-1961.61"/>
</g>
<!-- N31 -->
<g id="node32" class="node">
<title>N31</title>
<path fill="#f8f9fa" stroke="#ced4da" d="M522.5,-2025C522.5,-2025 463.75,-2025 463.75,-2025 457.75,-2025 451.75,-2019 451.75,-2013 451.75,-2013 451.75,-2001 451.75,-2001 451.75,-1995 457.75,-1989 463.75,-1989 463.75,-1989 522.5,-1989 522.5,-1989 528.5,-1989 534.5,-1995 534.5,-2001 534.5,-2001 534.5,-2013 534.5,-2013 534.5,-2019 528.5,-2025 522.5,-2025"/>
<text text-anchor="middle" x="493.12" y="-2004.62" font-family="Helvetica,Arial,sans-serif" font-size="10.00" fill="#212529">📄 quartz.nix</text>
</g>
<!-- N2&#45;&gt;N31 -->
<g id="edge33" class="edge">
<title>N2&#45;&gt;N31</title>
<path fill="none" stroke="#6c757d" d="M223,-3500.52C240.31,-3329.93 371.62,-2036 371.62,-2036 371.62,-2036 409.98,-2026.77 443.41,-2018.72"/>
<polygon fill="#6c757d" stroke="#6c757d" points="443.63,-2021.19 449.86,-2017.17 442.48,-2016.43 443.63,-2021.19"/>
</g>
<!-- N32 -->
<g id="node33" class="node">
<title>N32</title>
<path fill="#f8f9fa" stroke="#ced4da" d="M521.75,-2083C521.75,-2083 464.5,-2083 464.5,-2083 458.5,-2083 452.5,-2077 452.5,-2071 452.5,-2071 452.5,-2059 452.5,-2059 452.5,-2053 458.5,-2047 464.5,-2047 464.5,-2047 521.75,-2047 521.75,-2047 527.75,-2047 533.75,-2053 533.75,-2059 533.75,-2059 533.75,-2071 533.75,-2071 533.75,-2077 527.75,-2083 521.75,-2083"/>
<text text-anchor="middle" x="493.12" y="-2062.62" font-family="Helvetica,Arial,sans-serif" font-size="10.00" fill="#212529">📄 romm.nix</text>
</g>
<!-- N2&#45;&gt;N32 -->
<g id="edge34" class="edge">
<title>N2&#45;&gt;N32</title>
<path fill="none" stroke="#6c757d" d="M223.06,-3500.72C240.59,-3334.73 371.62,-2094 371.62,-2094 371.62,-2094 410.47,-2084.65 444.05,-2076.57"/>
<polygon fill="#6c757d" stroke="#6c757d" points="444.3,-2079.03 450.53,-2075.01 443.15,-2074.27 444.3,-2079.03"/>
</g>
<!-- N33 -->
<g id="node34" class="node">
<title>N33</title>
<path fill="#f8f9fa" stroke="#ced4da" d="M552.12,-2141C552.12,-2141 434.12,-2141 434.12,-2141 428.12,-2141 422.12,-2135 422.12,-2129 422.12,-2129 422.12,-2117 422.12,-2117 422.12,-2111 428.12,-2105 434.12,-2105 434.12,-2105 552.12,-2105 552.12,-2105 558.12,-2105 564.12,-2111 564.12,-2117 564.12,-2117 564.12,-2129 564.12,-2129 564.12,-2135 558.12,-2141 552.12,-2141"/>
<text text-anchor="middle" x="493.12" y="-2120.62" font-family="Helvetica,Arial,sans-serif" font-size="10.00" fill="#212529">📄 security&#45;watchdog.nix</text>
</g>
<!-- N2&#45;&gt;N33 -->
<g id="edge35" class="edge">
<title>N2&#45;&gt;N33</title>
<path fill="none" stroke="#6c757d" d="M223.2,-3500.62C241.27,-3340.16 371.62,-2183 371.62,-2183 371.62,-2183 413.42,-2162.19 447.79,-2145.08"/>
<polygon fill="#6c757d" stroke="#6c757d" points="448.46,-2147.48 453.63,-2142.17 446.27,-2143.09 448.46,-2147.48"/>
</g>
<!-- N34 -->
<g id="node35" class="node">
<title>N34</title>
<path fill="#f8f9fa" stroke="#ced4da" d="M533.38,-1503C533.38,-1503 452.88,-1503 452.88,-1503 446.88,-1503 440.88,-1497 440.88,-1491 440.88,-1491 440.88,-1479 440.88,-1479 440.88,-1473 446.88,-1467 452.88,-1467 452.88,-1467 533.38,-1467 533.38,-1467 539.38,-1467 545.38,-1473 545.38,-1479 545.38,-1479 545.38,-1491 545.38,-1491 545.38,-1497 539.38,-1503 533.38,-1503"/>
<text text-anchor="middle" x="493.12" y="-1482.62" font-family="Helvetica,Arial,sans-serif" font-size="10.00" fill="#212529">📄 stirling&#45;pdf.nix</text>
</g>
<!-- N2&#45;&gt;N34 -->
<g id="edge36" class="edge">
<title>N2&#45;&gt;N34</title>
<path fill="none" stroke="#6c757d" d="M222.5,-3500.74C237.55,-3300.15 371.62,-1514 371.62,-1514 371.62,-1514 402.21,-1506.64 432.56,-1499.33"/>
<polygon fill="#6c757d" stroke="#6c757d" points="432.97,-1501.76 439.2,-1497.74 431.82,-1496.99 432.97,-1501.76"/>
</g>
<!-- N35 -->
<g id="node36" class="node">
<title>N35</title>
<path fill="#f8f9fa" stroke="#ced4da" d="M516.88,-1561C516.88,-1561 469.38,-1561 469.38,-1561 463.38,-1561 457.38,-1555 457.38,-1549 457.38,-1549 457.38,-1537 457.38,-1537 457.38,-1531 463.38,-1525 469.38,-1525 469.38,-1525 516.88,-1525 516.88,-1525 522.88,-1525 528.88,-1531 528.88,-1537 528.88,-1537 528.88,-1549 528.88,-1549 528.88,-1555 522.88,-1561 516.88,-1561"/>
<text text-anchor="middle" x="493.12" y="-1540.62" font-family="Helvetica,Arial,sans-serif" font-size="10.00" fill="#212529">📄 vert.nix</text>
</g>
<!-- N2&#45;&gt;N35 -->
<g id="edge37" class="edge">
<title>N2&#45;&gt;N35</title>
<path fill="none" stroke="#6c757d" d="M222.54,-3500.66C237.83,-3302.89 371.62,-1572 371.62,-1572 371.62,-1572 414.27,-1561.74 448.82,-1553.42"/>
<polygon fill="#6c757d" stroke="#6c757d" points="449.24,-1555.84 455.48,-1551.82 448.1,-1551.08 449.24,-1555.84"/>
</g>
<!-- N36 -->
<g id="node37" class="node">
<title>N36</title>
<path fill="#f8f9fa" stroke="#ced4da" d="M524.75,-1619C524.75,-1619 461.5,-1619 461.5,-1619 455.5,-1619 449.5,-1613 449.5,-1607 449.5,-1607 449.5,-1595 449.5,-1595 449.5,-1589 455.5,-1583 461.5,-1583 461.5,-1583 524.75,-1583 524.75,-1583 530.75,-1583 536.75,-1589 536.75,-1595 536.75,-1595 536.75,-1607 536.75,-1607 536.75,-1613 530.75,-1619 524.75,-1619"/>
<text text-anchor="middle" x="493.12" y="-1598.62" font-family="Helvetica,Arial,sans-serif" font-size="10.00" fill="#212529">📄 vikunja.nix</text>
</g>
<!-- N2&#45;&gt;N36 -->
<g id="edge38" class="edge">
<title>N2&#45;&gt;N36</title>
<path fill="none" stroke="#6c757d" d="M222.59,-3500.61C238.11,-3305.86 371.62,-1630 371.62,-1630 371.62,-1630 408.2,-1621.2 441.05,-1613.29"/>
<polygon fill="#6c757d" stroke="#6c757d" points="441.6,-1615.68 447.83,-1611.66 440.45,-1610.92 441.6,-1615.68"/>
</g>
<!-- N37 -->
<g id="node38" class="node">
<title>N37</title>
<path fill="#f8f9fa" stroke="#ced4da" d="M529.62,-1677C529.62,-1677 456.62,-1677 456.62,-1677 450.62,-1677 444.62,-1671 444.62,-1665 444.62,-1665 444.62,-1653 444.62,-1653 444.62,-1647 450.62,-1641 456.62,-1641 456.62,-1641 529.62,-1641 529.62,-1641 535.62,-1641 541.62,-1647 541.62,-1653 541.62,-1653 541.62,-1665 541.62,-1665 541.62,-1671 535.62,-1677 529.62,-1677"/>
<text text-anchor="middle" x="493.12" y="-1656.62" font-family="Helvetica,Arial,sans-serif" font-size="10.00" fill="#212529">📄 wanderer.nix</text>
</g>
<!-- N2&#45;&gt;N37 -->
<g id="edge39" class="edge">
<title>N2&#45;&gt;N37</title>
<path fill="none" stroke="#6c757d" d="M222.64,-3500.58C238.38,-3309.03 371.62,-1688 371.62,-1688 371.62,-1688 404.71,-1680.04 436.2,-1672.46"/>
<polygon fill="#6c757d" stroke="#6c757d" points="436.45,-1674.92 442.68,-1670.9 435.3,-1670.16 436.45,-1674.92"/>
</g>
<!-- N38 -->
<g id="node39" class="node">
<title>N38</title>
<path fill="#f8f9fa" stroke="#ced4da" d="M530.38,-1347C530.38,-1347 455.88,-1347 455.88,-1347 449.88,-1347 443.88,-1341 443.88,-1335 443.88,-1335 443.88,-1323 443.88,-1323 443.88,-1317 449.88,-1311 455.88,-1311 455.88,-1311 530.38,-1311 530.38,-1311 536.38,-1311 542.38,-1317 542.38,-1323 542.38,-1323 542.38,-1335 542.38,-1335 542.38,-1341 536.38,-1347 530.38,-1347"/>
<text text-anchor="middle" x="493.12" y="-1326.62" font-family="Helvetica,Arial,sans-serif" font-size="10.00" fill="#212529">📄 authentik.nix</text>
</g>
<!-- N2&#45;&gt;N38 -->
<g id="edge40" class="edge">
<title>N2&#45;&gt;N38</title>
<path fill="none" stroke="#6c757d" d="M222.4,-3500.64C237,-3291.1 371.62,-1358 371.62,-1358 371.62,-1358 404.25,-1350.15 435.55,-1342.62"/>
<polygon fill="#6c757d" stroke="#6c757d" points="435.76,-1345.09 441.99,-1341.07 434.61,-1340.32 435.76,-1345.09"/>
</g>
<!-- N39 -->
<g id="node40" class="node">
<title>N39</title>
<path fill="#f8f9fa" stroke="#ced4da" d="M521,-1405C521,-1405 465.25,-1405 465.25,-1405 459.25,-1405 453.25,-1399 453.25,-1393 453.25,-1393 453.25,-1381 453.25,-1381 453.25,-1375 459.25,-1369 465.25,-1369 465.25,-1369 521,-1369 521,-1369 527,-1369 533,-1375 533,-1381 533,-1381 533,-1393 533,-1393 533,-1399 527,-1405 521,-1405"/>
<text text-anchor="middle" x="493.12" y="-1384.62" font-family="Helvetica,Arial,sans-serif" font-size="10.00" fill="#212529">📄 caddy.nix</text>
</g>
<!-- N2&#45;&gt;N39 -->
<g id="edge41" class="edge">
<title>N2&#45;&gt;N39</title>
<path fill="none" stroke="#6c757d" d="M222.45,-3500.77C237.27,-3296.66 371.62,-1447 371.62,-1447 371.62,-1447 413.42,-1426.19 447.79,-1409.08"/>
<polygon fill="#6c757d" stroke="#6c757d" points="448.46,-1411.48 453.63,-1406.17 446.27,-1407.09 448.46,-1411.48"/>
</g>
<!-- N40 -->
<g id="node41" class="node">
<title>N40</title>
<path fill="#f8f9fa" stroke="#ced4da" d="M534.12,-1115C534.12,-1115 452.12,-1115 452.12,-1115 446.12,-1115 440.12,-1109 440.12,-1103 440.12,-1103 440.12,-1091 440.12,-1091 440.12,-1085 446.12,-1079 452.12,-1079 452.12,-1079 534.12,-1079 534.12,-1079 540.12,-1079 546.12,-1085 546.12,-1091 546.12,-1091 546.12,-1103 546.12,-1103 546.12,-1109 540.12,-1115 534.12,-1115"/>
<text text-anchor="middle" x="493.12" y="-1094.62" font-family="Helvetica,Arial,sans-serif" font-size="10.00" fill="#212529">📄 cloudflared.nix</text>
</g>
<!-- N2&#45;&gt;N40 -->
<g id="edge42" class="edge">
<title>N2&#45;&gt;N40</title>
<path fill="none" stroke="#6c757d" d="M222.27,-3500.77C236.16,-3279.91 371.62,-1126 371.62,-1126 371.62,-1126 401.78,-1118.74 431.91,-1111.49"/>
<polygon fill="#6c757d" stroke="#6c757d" points="432.27,-1113.93 438.5,-1109.91 431.12,-1109.16 432.27,-1113.93"/>
</g>
<!-- N41 -->
<g id="node42" class="node">
<title>N41</title>
<path fill="#f8f9fa" stroke="#ced4da" d="M555.88,-1173C555.88,-1173 430.38,-1173 430.38,-1173 424.38,-1173 418.38,-1167 418.38,-1161 418.38,-1161 418.38,-1149 418.38,-1149 418.38,-1143 424.38,-1137 430.38,-1137 430.38,-1137 555.88,-1137 555.88,-1137 561.88,-1137 567.88,-1143 567.88,-1149 567.88,-1149 567.88,-1161 567.88,-1161 567.88,-1167 561.88,-1173 555.88,-1173"/>
<text text-anchor="middle" x="493.12" y="-1152.62" font-family="Helvetica,Arial,sans-serif" font-size="10.00" fill="#212529">📄 docker&#45;socket&#45;proxy.nix</text>
</g>
<!-- N2&#45;&gt;N41 -->
<g id="edge43" class="edge">
<title>N2&#45;&gt;N41</title>
<path fill="none" stroke="#6c757d" d="M222.31,-3500.54C236.44,-3281.38 371.62,-1184 371.62,-1184 371.62,-1184 388.79,-1179.87 410.17,-1174.72"/>
<polygon fill="#6c757d" stroke="#6c757d" points="410.51,-1177.16 416.74,-1173.14 409.36,-1172.4 410.51,-1177.16"/>
</g>
<!-- N42 -->
<g id="node43" class="node">
<title>N42</title>
<path fill="#f8f9fa" stroke="#ced4da" d="M525.5,-1231C525.5,-1231 460.75,-1231 460.75,-1231 454.75,-1231 448.75,-1225 448.75,-1219 448.75,-1219 448.75,-1207 448.75,-1207 448.75,-1201 454.75,-1195 460.75,-1195 460.75,-1195 525.5,-1195 525.5,-1195 531.5,-1195 537.5,-1201 537.5,-1207 537.5,-1207 537.5,-1219 537.5,-1219 537.5,-1225 531.5,-1231 525.5,-1231"/>
<text text-anchor="middle" x="493.12" y="-1210.62" font-family="Helvetica,Arial,sans-serif" font-size="10.00" fill="#212529">📄 gluetun.nix</text>
</g>
<!-- N2&#45;&gt;N42 -->
<g id="edge44" class="edge">
<title>N2&#45;&gt;N42</title>
<path fill="none" stroke="#6c757d" d="M222.34,-3500.67C236.58,-3285.18 371.62,-1242 371.62,-1242 371.62,-1242 407.49,-1233.37 440.09,-1225.52"/>
<polygon fill="#6c757d" stroke="#6c757d" points="440.58,-1227.93 446.81,-1223.91 439.43,-1223.16 440.58,-1227.93"/>
</g>
<!-- N43 -->
<g id="node44" class="node">
<title>N43</title>
<path fill="#f8f9fa" stroke="#ced4da" d="M519.12,-1289C519.12,-1289 467.12,-1289 467.12,-1289 461.12,-1289 455.12,-1283 455.12,-1277 455.12,-1277 455.12,-1265 455.12,-1265 455.12,-1259 461.12,-1253 467.12,-1253 467.12,-1253 519.12,-1253 519.12,-1253 525.12,-1253 531.12,-1259 531.12,-1265 531.12,-1265 531.12,-1277 531.12,-1277 531.12,-1283 525.12,-1289 519.12,-1289"/>
<text text-anchor="middle" x="493.12" y="-1268.62" font-family="Helvetica,Arial,sans-serif" font-size="10.00" fill="#212529">📄 lldap.nix</text>
</g>
<!-- N2&#45;&gt;N43 -->
<g id="edge45" class="edge">
<title>N2&#45;&gt;N43</title>
<path fill="none" stroke="#6c757d" d="M222.36,-3500.81C236.72,-3289.08 371.62,-1300 371.62,-1300 371.62,-1300 412.47,-1290.17 446.6,-1281.96"/>
<polygon fill="#6c757d" stroke="#6c757d" points="446.95,-1284.39 453.19,-1280.37 445.81,-1279.63 446.95,-1284.39"/>
</g>
<!-- N48 -->
<g id="node49" class="node">
<title>N48</title>
<path fill="#f8f9fa" stroke="#ced4da" d="M524.38,-607C524.38,-607 461.88,-607 461.88,-607 455.88,-607 449.88,-601 449.88,-595 449.88,-595 449.88,-583 449.88,-583 449.88,-577 455.88,-571 461.88,-571 461.88,-571 524.38,-571 524.38,-571 530.38,-571 536.38,-577 536.38,-583 536.38,-583 536.38,-595 536.38,-595 536.38,-601 530.38,-607 524.38,-607"/>
<text text-anchor="middle" x="493.12" y="-586.62" font-family="Helvetica,Arial,sans-serif" font-size="10.00" fill="#212529">📄 default.nix</text>
</g>
<!-- N2&#45;&gt;N48 -->
<g id="edge46" class="edge">
<title>N2&#45;&gt;N48</title>
<path fill="none" stroke="#6c757d" d="M222.09,-3500.67C234.9,-3256.24 371.62,-649 371.62,-649 371.62,-649 413.42,-628.19 447.79,-611.08"/>
<polygon fill="#6c757d" stroke="#6c757d" points="448.46,-613.48 453.63,-608.17 446.27,-609.09 448.46,-613.48"/>
</g>
<!-- N53 -->
<g id="node54" class="node">
<title>N53</title>
<path fill="#f8f9fa" stroke="#ced4da" d="M518.75,-861C518.75,-861 467.5,-861 467.5,-861 461.5,-861 455.5,-855 455.5,-849 455.5,-849 455.5,-837 455.5,-837 455.5,-831 461.5,-825 467.5,-825 467.5,-825 518.75,-825 518.75,-825 524.75,-825 530.75,-831 530.75,-837 530.75,-837 530.75,-849 530.75,-849 530.75,-855 524.75,-861 518.75,-861"/>
<text text-anchor="middle" x="493.12" y="-840.62" font-family="Helvetica,Arial,sans-serif" font-size="10.00" fill="#212529">📄 base.nix</text>
</g>
<!-- N2&#45;&gt;N53 -->
<g id="edge47" class="edge">
<title>N2&#45;&gt;N53</title>
<path fill="none" stroke="#6c757d" d="M222.17,-3500.68C235.46,-3266.81 371.62,-872 371.62,-872 371.62,-872 412.98,-862.05 447.24,-853.8"/>
<polygon fill="#6c757d" stroke="#6c757d" points="447.61,-856.23 453.84,-852.21 446.47,-851.47 447.61,-856.23"/>
</g>
<!-- N54 -->
<g id="node55" class="node">
<title>N54</title>
<path fill="#f8f9fa" stroke="#ced4da" d="M522.12,-919C522.12,-919 464.12,-919 464.12,-919 458.12,-919 452.12,-913 452.12,-907 452.12,-907 452.12,-895 452.12,-895 452.12,-889 458.12,-883 464.12,-883 464.12,-883 522.12,-883 522.12,-883 528.12,-883 534.12,-889 534.12,-895 534.12,-895 534.12,-907 534.12,-907 534.12,-913 528.12,-919 522.12,-919"/>
<text text-anchor="middle" x="493.12" y="-898.62" font-family="Helvetica,Arial,sans-serif" font-size="10.00" fill="#212529">📄 server.nix</text>
</g>
<!-- N2&#45;&gt;N54 -->
<g id="edge48" class="edge">
<title>N2&#45;&gt;N54</title>
<path fill="none" stroke="#6c757d" d="M222.21,-3500.6C235.74,-3270.54 371.62,-961 371.62,-961 371.62,-961 413.42,-940.19 447.79,-923.08"/>
<polygon fill="#6c757d" stroke="#6c757d" points="448.46,-925.48 453.63,-920.17 446.27,-921.09 448.46,-925.48"/>
</g>
<!-- N56 -->
<g id="node57" class="node">
<title>N56</title>
<path fill="#f8f9fa" stroke="#ced4da" d="M524.38,-705C524.38,-705 461.88,-705 461.88,-705 455.88,-705 449.88,-699 449.88,-693 449.88,-693 449.88,-681 449.88,-681 449.88,-675 455.88,-669 461.88,-669 461.88,-669 524.38,-669 524.38,-669 530.38,-669 536.38,-675 536.38,-681 536.38,-681 536.38,-693 536.38,-693 536.38,-699 530.38,-705 524.38,-705"/>
<text text-anchor="middle" x="493.12" y="-684.62" font-family="Helvetica,Arial,sans-serif" font-size="10.00" fill="#212529">📄 default.nix</text>
</g>
<!-- N2&#45;&gt;N56 -->
<g id="edge49" class="edge">
<title>N2&#45;&gt;N56</title>
<path fill="none" stroke="#6c757d" d="M222.13,-3500.57C235.18,-3260.06 371.62,-747 371.62,-747 371.62,-747 413.42,-726.19 447.79,-709.08"/>
<polygon fill="#6c757d" stroke="#6c757d" points="448.46,-711.48 453.63,-706.17 446.27,-707.09 448.46,-711.48"/>
</g>
<!-- N57 -->
<g id="node58" class="node">
<title>N57</title>
<path fill="#f8f9fa" stroke="#ced4da" d="M524.38,-1017C524.38,-1017 461.88,-1017 461.88,-1017 455.88,-1017 449.88,-1011 449.88,-1005 449.88,-1005 449.88,-993 449.88,-993 449.88,-987 455.88,-981 461.88,-981 461.88,-981 524.38,-981 524.38,-981 530.38,-981 536.38,-987 536.38,-993 536.38,-993 536.38,-1005 536.38,-1005 536.38,-1011 530.38,-1017 524.38,-1017"/>
<text text-anchor="middle" x="493.12" y="-996.62" font-family="Helvetica,Arial,sans-serif" font-size="10.00" fill="#212529">📄 default.nix</text>
</g>
<!-- N2&#45;&gt;N57 -->
<g id="edge50" class="edge">
<title>N2&#45;&gt;N57</title>
<path fill="none" stroke="#6c757d" d="M222.25,-3500.61C236.02,-3275.5 371.62,-1059 371.62,-1059 371.62,-1059 413.42,-1038.19 447.79,-1021.08"/>
<polygon fill="#6c757d" stroke="#6c757d" points="448.46,-1023.48 453.63,-1018.17 446.27,-1019.09 448.46,-1023.48"/>
</g>
<!-- N45 -->
<g id="node46" class="node">
<title>N45</title>
<path fill="#f8f9fa" stroke="#ced4da" d="M563.75,-353C563.75,-353 422.5,-353 422.5,-353 416.5,-353 410.5,-347 410.5,-341 410.5,-341 410.5,-329 410.5,-329 410.5,-323 416.5,-317 422.5,-317 422.5,-317 563.75,-317 563.75,-317 569.75,-317 575.75,-323 575.75,-329 575.75,-329 575.75,-341 575.75,-341 575.75,-347 569.75,-353 563.75,-353"/>
<text text-anchor="middle" x="493.12" y="-332.62" font-family="Helvetica,Arial,sans-serif" font-size="10.00" fill="#212529">📄 hardware&#45;configuration.nix</text>
</g>
<!-- N44&#45;&gt;N45 -->
<g id="edge51" class="edge">
<title>N44&#45;&gt;N45</title>
<path fill="none" stroke="#6c757d" d="M278.27,-335C314.08,-335 361.02,-335 401.79,-335"/>
<polygon fill="#6c757d" stroke="#6c757d" points="401.61,-337.45 408.61,-335 401.61,-332.55 401.61,-337.45"/>
</g>
<!-- N44&#45;&gt;N48 -->
<g id="edge52" class="edge">
<title>N44&#45;&gt;N48</title>
<path fill="none" stroke="#6c757d" d="M233.7,-353.21C269.87,-405.61 371.62,-553 371.62,-553 371.62,-553 408.76,-564.09 441.8,-573.96"/>
<polygon fill="#6c757d" stroke="#6c757d" points="440.78,-576.22 448.19,-575.87 442.19,-571.52 440.78,-576.22"/>
</g>
<!-- N49 -->
<g id="node50" class="node">
<title>N49</title>
<path fill="#f8f9fa" stroke="#ced4da" d="M524.38,-451C524.38,-451 461.88,-451 461.88,-451 455.88,-451 449.88,-445 449.88,-439 449.88,-439 449.88,-427 449.88,-427 449.88,-421 455.88,-415 461.88,-415 461.88,-415 524.38,-415 524.38,-415 530.38,-415 536.38,-421 536.38,-427 536.38,-427 536.38,-439 536.38,-439 536.38,-445 530.38,-451 524.38,-451"/>
<text text-anchor="middle" x="493.12" y="-430.62" font-family="Helvetica,Arial,sans-serif" font-size="10.00" fill="#212529">📄 default.nix</text>
</g>
<!-- N44&#45;&gt;N49 -->
<g id="edge53" class="edge">
<title>N44&#45;&gt;N49</title>
<path fill="none" stroke="#6c757d" d="M265.87,-353.43C310.24,-371.71 371.62,-397 371.62,-397 371.62,-397 408.76,-408.09 441.8,-417.96"/>
<polygon fill="#6c757d" stroke="#6c757d" points="440.78,-420.22 448.19,-419.87 442.19,-415.52 440.78,-420.22"/>
</g>
<!-- N50 -->
<g id="node51" class="node">
<title>N50</title>
<path fill="#f8f9fa" stroke="#ced4da" d="M530.38,-509C530.38,-509 455.88,-509 455.88,-509 449.88,-509 443.88,-503 443.88,-497 443.88,-497 443.88,-485 443.88,-485 443.88,-479 449.88,-473 455.88,-473 455.88,-473 530.38,-473 530.38,-473 536.38,-473 542.38,-479 542.38,-485 542.38,-485 542.38,-497 542.38,-497 542.38,-503 536.38,-509 530.38,-509"/>
<text text-anchor="middle" x="493.12" y="-488.62" font-family="Helvetica,Arial,sans-serif" font-size="10.00" fill="#212529">📄 minecraft.nix</text>
</g>
<!-- N44&#45;&gt;N50 -->
<g id="edge54" class="edge">
<title>N44&#45;&gt;N50</title>
<path fill="none" stroke="#6c757d" d="M243.01,-353.47C284.75,-388.69 371.62,-462 371.62,-462 371.62,-462 404.25,-469.85 435.55,-477.38"/>
<polygon fill="#6c757d" stroke="#6c757d" points="434.61,-479.68 441.99,-478.93 435.76,-474.91 434.61,-479.68"/>
</g>
<!-- N51 -->
<g id="node52" class="node">
<title>N51</title>
<path fill="#f8f9fa" stroke="#ced4da" d="M524.38,-157C524.38,-157 461.88,-157 461.88,-157 455.88,-157 449.88,-151 449.88,-145 449.88,-145 449.88,-133 449.88,-133 449.88,-127 455.88,-121 461.88,-121 461.88,-121 524.38,-121 524.38,-121 530.38,-121 536.38,-127 536.38,-133 536.38,-133 536.38,-145 536.38,-145 536.38,-151 530.38,-157 524.38,-157"/>
<text text-anchor="middle" x="493.12" y="-136.62" font-family="Helvetica,Arial,sans-serif" font-size="10.00" fill="#212529">📄 default.nix</text>
</g>
<!-- N44&#45;&gt;N51 -->
<g id="edge55" class="edge">
<title>N44&#45;&gt;N51</title>
<path fill="none" stroke="#6c757d" d="M241.42,-316.66C282.5,-279.54 371.62,-199 371.62,-199 371.62,-199 413.42,-178.19 447.79,-161.08"/>
<polygon fill="#6c757d" stroke="#6c757d" points="448.46,-163.48 453.63,-158.17 446.27,-159.09 448.46,-163.48"/>
</g>
<!-- N44&#45;&gt;N53 -->
<g id="edge56" class="edge">
<title>N44&#45;&gt;N53</title>
<path fill="none" stroke="#6c757d" d="M226.93,-353.48C254.59,-441.51 371.62,-814 371.62,-814 371.62,-814 412.98,-823.95 447.24,-832.2"/>
<polygon fill="#6c757d" stroke="#6c757d" points="446.47,-834.53 453.84,-833.79 447.61,-829.77 446.47,-834.53"/>
</g>
<!-- N55 -->
<g id="node56" class="node">
<title>N55</title>
<path fill="#f8f9fa" stroke="#ced4da" d="M521.75,-803C521.75,-803 464.5,-803 464.5,-803 458.5,-803 452.5,-797 452.5,-791 452.5,-791 452.5,-779 452.5,-779 452.5,-773 458.5,-767 464.5,-767 464.5,-767 521.75,-767 521.75,-767 527.75,-767 533.75,-773 533.75,-779 533.75,-779 533.75,-791 533.75,-791 533.75,-797 527.75,-803 521.75,-803"/>
<text text-anchor="middle" x="493.12" y="-782.62" font-family="Helvetica,Arial,sans-serif" font-size="10.00" fill="#212529">📄 sound.nix</text>
</g>
<!-- N44&#45;&gt;N55 -->
<g id="edge57" class="edge">
<title>N44&#45;&gt;N55</title>
<path fill="none" stroke="#6c757d" d="M227.79,-353.32C256.91,-433.44 371.62,-749 371.62,-749 371.62,-749 410.47,-760.6 444.05,-770.64"/>
<polygon fill="#6c757d" stroke="#6c757d" points="443.14,-772.92 450.55,-772.58 444.54,-768.23 443.14,-772.92"/>
</g>
<!-- N44&#45;&gt;N56 -->
<g id="edge58" class="edge">
<title>N44&#45;&gt;N56</title>
<path fill="none" stroke="#6c757d" d="M229.87,-353.36C261.99,-420.8 371.62,-651 371.62,-651 371.62,-651 408.76,-662.09 441.8,-671.96"/>
<polygon fill="#6c757d" stroke="#6c757d" points="440.78,-674.22 448.19,-673.87 442.19,-669.52 440.78,-674.22"/>
</g>
<!-- N59 -->
<g id="node60" class="node">
<title>N59</title>
<path fill="#f8f9fa" stroke="#ced4da" d="M524.38,-255C524.38,-255 461.88,-255 461.88,-255 455.88,-255 449.88,-249 449.88,-243 449.88,-243 449.88,-231 449.88,-231 449.88,-225 455.88,-219 461.88,-219 461.88,-219 524.38,-219 524.38,-219 530.38,-219 536.38,-225 536.38,-231 536.38,-231 536.38,-243 536.38,-243 536.38,-249 530.38,-255 524.38,-255"/>
<text text-anchor="middle" x="493.12" y="-234.62" font-family="Helvetica,Arial,sans-serif" font-size="10.00" fill="#212529">📄 default.nix</text>
</g>
<!-- N44&#45;&gt;N59 -->
<g id="edge59" class="edge">
<title>N44&#45;&gt;N59</title>
<path fill="none" stroke="#6c757d" d="M272.1,-316.57C320.61,-299.02 393.18,-272.78 441.56,-255.29"/>
<polygon fill="#6c757d" stroke="#6c757d" points="442.23,-257.65 447.98,-252.96 440.56,-253.04 442.23,-257.65"/>
</g>
<!-- N47 -->
<g id="node48" class="node">
<title>N47</title>
<path fill="#f8f9fa" stroke="#ced4da" d="M563.75,-59C563.75,-59 422.5,-59 422.5,-59 416.5,-59 410.5,-53 410.5,-47 410.5,-47 410.5,-35 410.5,-35 410.5,-29 416.5,-23 422.5,-23 422.5,-23 563.75,-23 563.75,-23 569.75,-23 575.75,-29 575.75,-35 575.75,-35 575.75,-47 575.75,-47 575.75,-53 569.75,-59 563.75,-59"/>
<text text-anchor="middle" x="493.12" y="-38.62" font-family="Helvetica,Arial,sans-serif" font-size="10.00" fill="#212529">📄 hardware&#45;configuration.nix</text>
</g>
<!-- N46&#45;&gt;N47 -->
<g id="edge60" class="edge">
<title>N46&#45;&gt;N47</title>
<path fill="none" stroke="#6c757d" d="M278.27,-41C314.08,-41 361.02,-41 401.79,-41"/>
<polygon fill="#6c757d" stroke="#6c757d" points="401.61,-43.45 408.61,-41 401.61,-38.55 401.61,-43.45"/>
</g>
<!-- N46&#45;&gt;N48 -->
<g id="edge61" class="edge">
<title>N46&#45;&gt;N48</title>
<path fill="none" stroke="#6c757d" d="M226.48,-59.22C253.29,-150.43 371.62,-553 371.62,-553 371.62,-553 408.76,-564.09 441.8,-573.96"/>
<polygon fill="#6c757d" stroke="#6c757d" points="440.78,-576.22 448.19,-575.87 442.19,-571.52 440.78,-576.22"/>
</g>
<!-- N46&#45;&gt;N51 -->
<g id="edge62" class="edge">
<title>N46&#45;&gt;N51</title>
<path fill="none" stroke="#6c757d" d="M265.87,-59.43C310.24,-77.71 371.62,-103 371.62,-103 371.62,-103 408.76,-114.09 441.8,-123.96"/>
<polygon fill="#6c757d" stroke="#6c757d" points="440.78,-126.22 448.19,-125.87 442.19,-121.52 440.78,-126.22"/>
</g>
<!-- N46&#45;&gt;N53 -->
<g id="edge63" class="edge">
<title>N46&#45;&gt;N53</title>
<path fill="none" stroke="#6c757d" d="M226.44,-59.41C243.38,-118.11 295,-297 295,-297 295,-297 371.62,-814 371.62,-814 371.62,-814 412.98,-823.95 447.24,-832.2"/>
<polygon fill="#6c757d" stroke="#6c757d" points="446.47,-834.53 453.84,-833.79 447.61,-829.77 446.47,-834.53"/>
</g>
<!-- N46&#45;&gt;N55 -->
<g id="edge64" class="edge">
<title>N46&#45;&gt;N55</title>
<path fill="none" stroke="#6c757d" d="M226.44,-59.41C243.38,-118.11 295,-297 295,-297 295,-297 371.62,-749 371.62,-749 371.62,-749 410.47,-760.6 444.05,-770.64"/>
<polygon fill="#6c757d" stroke="#6c757d" points="443.14,-772.92 450.55,-772.58 444.54,-768.23 443.14,-772.92"/>
</g>
<!-- N46&#45;&gt;N56 -->
<g id="edge65" class="edge">
<title>N46&#45;&gt;N56</title>
<path fill="none" stroke="#6c757d" d="M226.44,-59.41C243.38,-118.11 295,-297 295,-297 295,-297 371.62,-651 371.62,-651 371.62,-651 408.76,-662.09 441.8,-671.96"/>
<polygon fill="#6c757d" stroke="#6c757d" points="440.78,-674.22 448.19,-673.87 442.19,-669.52 440.78,-674.22"/>
</g>
<!-- N46&#45;&gt;N59 -->
<g id="edge66" class="edge">
<title>N46&#45;&gt;N59</title>
<path fill="none" stroke="#6c757d" d="M238.39,-59.35C277.92,-101.38 371.62,-201 371.62,-201 371.62,-201 408.76,-212.09 441.8,-221.96"/>
<polygon fill="#6c757d" stroke="#6c757d" points="440.78,-224.22 448.19,-223.87 442.19,-219.52 440.78,-224.22"/>
</g>
<!-- N52 -->
<g id="node53" class="node">
<title>N52</title>
<path fill="#f8f9fa" stroke="#ced4da" d="M806.88,-861C806.88,-861 698.62,-861 698.62,-861 692.62,-861 686.62,-855 686.62,-849 686.62,-849 686.62,-837 686.62,-837 686.62,-831 692.62,-825 698.62,-825 698.62,-825 806.88,-825 806.88,-825 812.88,-825 818.88,-831 818.88,-837 818.88,-837 818.88,-849 818.88,-849 818.88,-855 812.88,-861 806.88,-861"/>
<text text-anchor="middle" x="752.75" y="-840.62" font-family="Helvetica,Arial,sans-serif" font-size="10.00" fill="#212529">📄 architecture&#45;dag.nix</text>
</g>
<!-- N53&#45;&gt;N52 -->
<g id="edge67" class="edge">
<title>N53&#45;&gt;N52</title>
<path fill="none" stroke="#6c757d" d="M531.04,-843C569.16,-843 629.71,-843 677.75,-843"/>
<polygon fill="#6c757d" stroke="#6c757d" points="677.75,-845.45 684.75,-843 677.75,-840.55 677.75,-845.45"/>
</g>
<!-- N58 -->
<g id="node59" class="node">
<title>N58</title>
<path fill="#f8f9fa" stroke="#ced4da" d="M780.62,-1017C780.62,-1017 724.88,-1017 724.88,-1017 718.88,-1017 712.88,-1011 712.88,-1005 712.88,-1005 712.88,-993 712.88,-993 712.88,-987 718.88,-981 724.88,-981 724.88,-981 780.62,-981 780.62,-981 786.62,-981 792.62,-987 792.62,-993 792.62,-993 792.62,-1005 792.62,-1005 792.62,-1011 786.62,-1017 780.62,-1017"/>
<text text-anchor="middle" x="752.75" y="-996.62" font-family="Helvetica,Arial,sans-serif" font-size="10.00" fill="#212529">📄 home.nix</text>
</g>
<!-- N57&#45;&gt;N58 -->
<g id="edge68" class="edge">
<title>N57&#45;&gt;N58</title>
<path fill="none" stroke="#6c757d" d="M536.67,-999C582.78,-999 656.18,-999 704.17,-999"/>
<polygon fill="#6c757d" stroke="#6c757d" points="704.01,-1001.45 711.01,-999 704.01,-996.55 704.01,-1001.45"/>
</g>
<!-- N60 -->
<g id="node61" class="node">
<title>N60</title>
<path fill="#f8f9fa" stroke="#ced4da" d="M780.62,-255C780.62,-255 724.88,-255 724.88,-255 718.88,-255 712.88,-249 712.88,-243 712.88,-243 712.88,-231 712.88,-231 712.88,-225 718.88,-219 724.88,-219 724.88,-219 780.62,-219 780.62,-219 786.62,-219 792.62,-225 792.62,-231 792.62,-231 792.62,-243 792.62,-243 792.62,-249 786.62,-255 780.62,-255"/>
<text text-anchor="middle" x="752.75" y="-234.62" font-family="Helvetica,Arial,sans-serif" font-size="10.00" fill="#212529">📄 home.nix</text>
</g>
<!-- N59&#45;&gt;N60 -->
<g id="edge69" class="edge">
<title>N59&#45;&gt;N60</title>
<path fill="none" stroke="#6c757d" d="M536.67,-237C582.78,-237 656.18,-237 704.17,-237"/>
<polygon fill="#6c757d" stroke="#6c757d" points="704.01,-239.45 711.01,-237 704.01,-234.55 704.01,-239.45"/>
</g>
</g>
</svg>
