<?xml version="1.0" encoding="UTF-8" standalone="no"?>
<!DOCTYPE svg PUBLIC "-//W3C//DTD SVG 1.1//EN"
 "http://www.w3.org/Graphics/SVG/1.1/DTD/svg11.dtd">
<!-- Generated by graphviz version 12.2.1 (0)
 -->
<!-- Title: NixOS Pages: 1 -->
<svg width="871pt" height="3544pt"
 viewBox="0.00 0.00 870.50 3544.00" xmlns="http://www.w3.org/2000/svg" xmlns:xlink="http://www.w3.org/1999/xlink">
<g id="graph0" class="graph" transform="scale(1 1) rotate(0) translate(4 3540)">
<title>NixOS</title>
<polygon fill="white" stroke="none" points="-4,4 -4,-3540 866.5,-3540 866.5,4 -4,4"/>
<g id="clust1" class="cluster">
<title>cluster_hosts_devcontainer</title>
<path fill="#e9ecef" stroke="#adb5bd" d="M150.75,-3440C150.75,-3440 292,-3440 292,-3440 298,-3440 304,-3446 304,-3452 304,-3452 304,-3516 304,-3516 304,-3522 298,-3528 292,-3528 292,-3528 150.75,-3528 150.75,-3528 144.75,-3528 138.75,-3522 138.75,-3516 138.75,-3516 138.75,-3452 138.75,-3452 138.75,-3446 144.75,-3440 150.75,-3440"/>
<text text-anchor="middle" x="221.38" y="-3512.6" font-family="Helvetica,sans-Serif" font-weight="bold" font-size="12.00" fill="#495057">📁 hosts/devcontainer</text>
</g>
<g id="clust2" class="cluster">
<title>cluster_hosts_homelab</title>
<path fill="#e9ecef" stroke="#adb5bd" d="M166.38,-3286C166.38,-3286 589.62,-3286 589.62,-3286 595.62,-3286 601.62,-3292 601.62,-3298 601.62,-3298 601.62,-3420 601.62,-3420 601.62,-3426 595.62,-3432 589.62,-3432 589.62,-3432 166.38,-3432 166.38,-3432 160.38,-3432 154.38,-3426 154.38,-3420 154.38,-3420 154.38,-3298 154.38,-3298 154.38,-3292 160.38,-3286 166.38,-3286"/>
<text text-anchor="middle" x="378" y="-3416.6" font-family="Helvetica,sans-Serif" font-weight="bold" font-size="12.00" fill="#495057">📁 hosts/homelab</text>
</g>
<g id="clust3" class="cluster">
<title>cluster_hosts_homelab_services_media</title>
<path fill="#e9ecef" stroke="#adb5bd" d="M406.12,-2668C406.12,-2668 623.12,-2668 623.12,-2668 629.12,-2668 635.12,-2674 635.12,-2680 635.12,-2680 635.12,-3266 635.12,-3266 635.12,-3272 629.12,-3278 623.12,-3278 623.12,-3278 406.12,-3278 406.12,-3278 400.12,-3278 394.12,-3272 394.12,-3266 394.12,-3266 394.12,-2680 394.12,-2680 394.12,-2674 400.12,-2668 406.12,-2668"/>
<text text-anchor="middle" x="514.62" y="-3262.6" font-family="Helvetica,sans-Serif" font-weight="bold" font-size="12.00" fill="#495057">📁 hosts/homelab/services/media</text>
</g>
<g id="clust4" class="cluster">
<title>cluster_hosts_homelab_services_monitoring</title>
<path fill="#e9ecef" stroke="#adb5bd" d="M390,-2108C390,-2108 639.25,-2108 639.25,-2108 645.25,-2108 651.25,-2114 651.25,-2120 651.25,-2120 651.25,-2648 651.25,-2648 651.25,-2654 645.25,-2660 639.25,-2660 639.25,-2660 390,-2660 390,-2660 384,-2660 378,-2654 378,-2648 378,-2648 378,-2120 378,-2120 378,-2114 384,-2108 390,-2108"/>
<text text-anchor="middle" x="514.62" y="-2644.6" font-family="Helvetica,sans-Serif" font-weight="bold" font-size="12.00" fill="#495057">📁 hosts/homelab/services/monitoring</text>
</g>
<g id="clust5" class="cluster">
<title>cluster_hosts_homelab_services_random</title>
<path fill="#e9ecef" stroke="#adb5bd" d="M400.88,-1374C400.88,-1374 628.38,-1374 628.38,-1374 634.38,-1374 640.38,-1380 640.38,-1386 640.38,-1386 640.38,-2088 640.38,-2088 640.38,-2094 634.38,-2100 628.38,-2100 628.38,-2100 400.88,-2100 400.88,-2100 394.88,-2100 388.88,-2094 388.88,-2088 388.88,-2088 388.88,-1386 388.88,-1386 388.88,-1380 394.88,-1374 400.88,-1374"/>
<text text-anchor="middle" x="514.62" y="-2084.6" font-family="Helvetica,sans-Serif" font-weight="bold" font-size="12.00" fill="#495057">📁 hosts/homelab/services/random</text>
</g>
<g id="clust6" class="cluster">
<title>cluster_hosts_homelab_services_security</title>
<path fill="#e9ecef" stroke="#adb5bd" d="M399.75,-1046C399.75,-1046 629.5,-1046 629.5,-1046 635.5,-1046 641.5,-1052 641.5,-1058 641.5,-1058 641.5,-1354 641.5,-1354 641.5,-1360 635.5,-1366 629.5,-1366 629.5,-1366 399.75,-1366 399.75,-1366 393.75,-1366 387.75,-1360 387.75,-1354 387.75,-1354 387.75,-1058 387.75,-1058 387.75,-1052 393.75,-1046 399.75,-1046"/>
<text text-anchor="middle" x="514.62" y="-1350.6" font-family="Helvetica,sans-Serif" font-weight="bold" font-size="12.00" fill="#495057">📁 hosts/homelab/services/security</text>
</g>
<g id="clust7" class="cluster">
<title>cluster_hosts_perso</title>
<path fill="#e9ecef" stroke="#adb5bd" d="M166.38,-296C166.38,-296 589.62,-296 589.62,-296 595.62,-296 601.62,-302 601.62,-308 601.62,-308 601.62,-372 601.62,-372 601.62,-378 595.62,-384 589.62,-384 589.62,-384 166.38,-384 166.38,-384 160.38,-384 154.38,-378 154.38,-372 154.38,-372 154.38,-308 154.38,-308 154.38,-302 160.38,-296 166.38,-296"/>
<text text-anchor="middle" x="378" y="-368.6" font-family="Helvetica,sans-Serif" font-weight="bold" font-size="12.00" fill="#495057">📁 hosts/perso</text>
</g>
<g id="clust8" class="cluster">
<title>cluster_hosts_portable</title>
<path fill="#e9ecef" stroke="#adb5bd" d="M166.38,-8C166.38,-8 589.62,-8 589.62,-8 595.62,-8 601.62,-14 601.62,-20 601.62,-20 601.62,-84 601.62,-84 601.62,-90 595.62,-96 589.62,-96 589.62,-96 166.38,-96 166.38,-96 160.38,-96 154.38,-90 154.38,-84 154.38,-84 154.38,-20 154.38,-20 154.38,-14 160.38,-8 166.38,-8"/>
<text text-anchor="middle" x="378" y="-80.6" font-family="Helvetica,sans-Serif" font-weight="bold" font-size="12.00" fill="#495057">📁 hosts/portable</text>
</g>
<g id="clust9" class="cluster">
<title>cluster_modules_dev</title>
<path fill="#e9ecef" stroke="#adb5bd" d="M466.12,-546C466.12,-546 563.12,-546 563.12,-546 569.12,-546 575.12,-552 575.12,-558 575.12,-558 575.12,-622 575.12,-622 575.12,-628 569.12,-634 563.12,-634 563.12,-634 466.12,-634 466.12,-634 460.12,-634 454.12,-628 454.12,-622 454.12,-622 454.12,-558 454.12,-558 454.12,-552 460.12,-546 466.12,-546"/>
<text text-anchor="middle" x="514.62" y="-618.6" font-family="Helvetica,sans-Serif" font-weight="bold" font-size="12.00" fill="#495057">📁 modules/dev</text>
</g>
<g id="clust10" class="cluster">
<title>cluster_modules_gaming</title>
<path fill="#e9ecef" stroke="#adb5bd" d="M453.38,-392C453.38,-392 575.88,-392 575.88,-392 581.88,-392 587.88,-398 587.88,-404 587.88,-404 587.88,-526 587.88,-526 587.88,-532 581.88,-538 575.88,-538 575.88,-538 453.38,-538 453.38,-538 447.38,-538 441.38,-532 441.38,-526 441.38,-526 441.38,-404 441.38,-404 441.38,-398 447.38,-392 453.38,-392"/>
<text text-anchor="middle" x="514.62" y="-522.6" font-family="Helvetica,sans-Serif" font-weight="bold" font-size="12.00" fill="#495057">📁 modules/gaming</text>
</g>
<g id="clust11" class="cluster">
<title>cluster_modules_hyprland</title>
<path fill="#e9ecef" stroke="#adb5bd" d="M448.88,-104C448.88,-104 580.38,-104 580.38,-104 586.38,-104 592.38,-110 592.38,-116 592.38,-116 592.38,-180 592.38,-180 592.38,-186 586.38,-192 580.38,-192 580.38,-192 448.88,-192 448.88,-192 442.88,-192 436.88,-186 436.88,-180 436.88,-180 436.88,-116 436.88,-116 436.88,-110 442.88,-104 448.88,-104"/>
<text text-anchor="middle" x="514.62" y="-176.6" font-family="Helvetica,sans-Serif" font-weight="bold" font-size="12.00" fill="#495057">📁 modules/hyprland</text>
</g>
<g id="clust12" class="cluster">
<title>cluster_modules_nixos</title>
<path fill="#e9ecef" stroke="#adb5bd" d="M473.88,-738C473.88,-738 842.5,-738 842.5,-738 848.5,-738 854.5,-744 854.5,-750 854.5,-750 854.5,-930 854.5,-930 854.5,-936 848.5,-942 842.5,-942 842.5,-942 473.88,-942 473.88,-942 467.88,-942 461.88,-936 461.88,-930 461.88,-930 461.88,-750 461.88,-750 461.88,-744 467.88,-738 473.88,-738"/>
<text text-anchor="middle" x="658.19" y="-926.6" font-family="Helvetica,sans-Serif" font-weight="bold" font-size="12.00" fill="#495057">📁 modules/nixos</text>
</g>
<g id="clust13" class="cluster">
<title>cluster_modules_terminal</title>
<path fill="#e9ecef" stroke="#adb5bd" d="M449.62,-642C449.62,-642 579.62,-642 579.62,-642 585.62,-642 591.62,-648 591.62,-654 591.62,-654 591.62,-718 591.62,-718 591.62,-724 585.62,-730 579.62,-730 579.62,-730 449.62,-730 449.62,-730 443.62,-730 437.62,-724 437.62,-718 437.62,-718 437.62,-654 437.62,-654 437.62,-648 443.62,-642 449.62,-642"/>
<text text-anchor="middle" x="514.62" y="-714.6" font-family="Helvetica,sans-Serif" font-weight="bold" font-size="12.00" fill="#495057">📁 modules/terminal</text>
</g>
<g id="clust14" class="cluster">
<title>cluster_users_arthur_homelab</title>
<path fill="#e9ecef" stroke="#adb5bd" d="M472.75,-950C472.75,-950 819.62,-950 819.62,-950 825.62,-950 831.62,-956 831.62,-962 831.62,-962 831.62,-1026 831.62,-1026 831.62,-1032 825.62,-1038 819.62,-1038 819.62,-1038 472.75,-1038 472.75,-1038 466.75,-1038 460.75,-1032 460.75,-1026 460.75,-1026 460.75,-962 460.75,-962 460.75,-956 466.75,-950 472.75,-950"/>
<text text-anchor="middle" x="646.19" y="-1022.6" font-family="Helvetica,sans-Serif" font-weight="bold" font-size="12.00" fill="#495057">📁 users/arthur&#45;homelab</text>
</g>
<g id="clust15" class="cluster">
<title>cluster_users_arthur_perso</title>
<path fill="#e9ecef" stroke="#adb5bd" d="M472.75,-200C472.75,-200 819.62,-200 819.62,-200 825.62,-200 831.62,-206 831.62,-212 831.62,-212 831.62,-276 831.62,-276 831.62,-282 825.62,-288 819.62,-288 819.62,-288 472.75,-288 472.75,-288 466.75,-288 460.75,-282 460.75,-276 460.75,-276 460.75,-212 460.75,-212 460.75,-206 466.75,-200 472.75,-200"/>
<text text-anchor="middle" x="646.19" y="-272.6" font-family="Helvetica,sans-Serif" font-weight="bold" font-size="12.00" fill="#495057">📁 users/arthur&#45;perso</text>
</g>
<!-- N0 -->
<g id="node1" class="node">
<title>N0</title>
<path fill="#f8f9fa" stroke="#ced4da" d="M55.75,-3337C55.75,-3337 12,-3337 12,-3337 6,-3337 0,-3331 0,-3325 0,-3325 0,-3313 0,-3313 0,-3307 6,-3301 12,-3301 12,-3301 55.75,-3301 55.75,-3301 61.75,-3301 67.75,-3307 67.75,-3313 67.75,-3313 67.75,-3325 67.75,-3325 67.75,-3331 61.75,-3337 55.75,-3337"/>
<text text-anchor="middle" x="33.88" y="-3317" font-family="Helvetica,Arial,sans-serif" font-size="10.00" fill="#212529">📄 flake.nix</text>
</g>
<!-- N1 -->
<g id="node2" class="node">
<title>N1</title>
<path fill="#f8f9fa" stroke="#ced4da" d="M247.25,-3491C247.25,-3491 194.5,-3491 194.5,-3491 188.5,-3491 182.5,-3485 182.5,-3479 182.5,-3479 182.5,-3467 182.5,-3467 182.5,-3461 188.5,-3455 194.5,-3455 194.5,-3455 247.25,-3455 247.25,-3455 253.25,-3455 259.25,-3461 259.25,-3467 259.25,-3467 259.25,-3479 259.25,-3479 259.25,-3485 253.25,-3491 247.25,-3491"/>
<text text-anchor="middle" x="220.88" y="-3471" font-family="Helvetica,Arial,sans-serif" font-size="10.00" fill="#212529">📄 default.nix</text>
</g>
<!-- N0&#45;&gt;N1 -->
<g id="edge1" class="edge">
<title>N0&#45;&gt;N1</title>
<path fill="none" stroke="#6c757d" d="M51.11,-3337.44C80.32,-3370.62 138.75,-3437 138.75,-3437 138.75,-3437 156.07,-3444.69 174.71,-3452.96"/>
<polygon fill="#6c757d" stroke="#6c757d" points="173.39,-3455.05 180.78,-3455.65 175.37,-3450.57 173.39,-3455.05"/>
</g>
<!-- N2 -->
<g id="node3" class="node">
<title>N2</title>
<path fill="#f8f9fa" stroke="#ced4da" d="M260.38,-3337C260.38,-3337 181.38,-3337 181.38,-3337 175.38,-3337 169.38,-3331 169.38,-3325 169.38,-3325 169.38,-3313 169.38,-3313 169.38,-3307 175.38,-3301 181.38,-3301 181.38,-3301 260.38,-3301 260.38,-3301 266.38,-3301 272.38,-3307 272.38,-3313 272.38,-3313 272.38,-3325 272.38,-3325 272.38,-3331 266.38,-3337 260.38,-3337"/>
<text text-anchor="middle" x="220.88" y="-3317" font-family="Helvetica,Arial,sans-serif" font-size="10.00" fill="#212529">📄 configuration.nix</text>
</g>
<!-- N0&#45;&gt;N2 -->
<g id="edge2" class="edge">
<title>N0&#45;&gt;N2</title>
<path fill="none" stroke="#6c757d" d="M67.95,-3319C93.6,-3319 129.82,-3319 160.46,-3319"/>
<polygon fill="#6c757d" stroke="#6c757d" points="160.43,-3321.45 167.43,-3319 160.43,-3316.55 160.43,-3321.45"/>
</g>
<!-- N3 -->
<g id="node4" class="node">
<title>N3</title>
<path fill="#f8f9fa" stroke="#ced4da" d="M254,-3395C254,-3395 187.75,-3395 187.75,-3395 181.75,-3395 175.75,-3389 175.75,-3383 175.75,-3383 175.75,-3371 175.75,-3371 175.75,-3365 181.75,-3359 187.75,-3359 187.75,-3359 254,-3359 254,-3359 260,-3359 266,-3365 266,-3371 266,-3371 266,-3383 266,-3383 266,-3389 260,-3395 254,-3395"/>
<text text-anchor="middle" x="220.88" y="-3375" font-family="Helvetica,Arial,sans-serif" font-size="10.00" fill="#212529">📄 constants.nix</text>
</g>
<!-- N0&#45;&gt;N3 -->
<g id="edge3" class="edge">
<title>N0&#45;&gt;N3</title>
<path fill="none" stroke="#6c757d" d="M67.95,-3329.37C95.54,-3338.02 135.37,-3350.51 167.33,-3360.53"/>
<polygon fill="#6c757d" stroke="#6c757d" points="166.41,-3362.81 173.82,-3362.56 167.88,-3358.13 166.41,-3362.81"/>
</g>
<!-- N41 -->
<g id="node42" class="node">
<title>N41</title>
<path fill="#f8f9fa" stroke="#ced4da" d="M260.38,-347C260.38,-347 181.38,-347 181.38,-347 175.38,-347 169.38,-341 169.38,-335 169.38,-335 169.38,-323 169.38,-323 169.38,-317 175.38,-311 181.38,-311 181.38,-311 260.38,-311 260.38,-311 266.38,-311 272.38,-317 272.38,-323 272.38,-323 272.38,-335 272.38,-335 272.38,-341 266.38,-347 260.38,-347"/>
<text text-anchor="middle" x="220.88" y="-327" font-family="Helvetica,Arial,sans-serif" font-size="10.00" fill="#212529">📄 configuration.nix</text>
</g>
<!-- N0&#45;&gt;N41 -->
<g id="edge4" class="edge">
<title>N0&#45;&gt;N41</title>
<path fill="none" stroke="#6c757d" d="M36.01,-3300.68C50.56,-3065.46 200.67,-639.32 218.21,-355.96"/>
<polygon fill="#6c757d" stroke="#6c757d" points="220.65,-356.14 218.64,-349 215.76,-355.84 220.65,-356.14"/>
</g>
<!-- N43 -->
<g id="node44" class="node">
<title>N43</title>
<path fill="#f8f9fa" stroke="#ced4da" d="M260.38,-59C260.38,-59 181.38,-59 181.38,-59 175.38,-59 169.38,-53 169.38,-47 169.38,-47 169.38,-35 169.38,-35 169.38,-29 175.38,-23 181.38,-23 181.38,-23 260.38,-23 260.38,-23 266.38,-23 272.38,-29 272.38,-35 272.38,-35 272.38,-47 272.38,-47 272.38,-53 266.38,-59 260.38,-59"/>
<text text-anchor="middle" x="220.88" y="-39" font-family="Helvetica,Arial,sans-serif" font-size="10.00" fill="#212529">📄 configuration.nix</text>
</g>
<!-- N0&#45;&gt;N43 -->
<g id="edge5" class="edge">
<title>N0&#45;&gt;N43</title>
<path fill="none" stroke="#6c757d" d="M35.5,-3300.84C44.09,-3050.24 138.75,-291 138.75,-291 138.75,-291 190.43,-131.74 211.29,-67.45"/>
<polygon fill="#6c757d" stroke="#6c757d" points="213.61,-68.24 213.44,-60.82 208.95,-66.72 213.61,-68.24"/>
</g>
<!-- N4 -->
<g id="node5" class="node">
<title>N4</title>
<path fill="#f8f9fa" stroke="#ced4da" d="M574.62,-3337C574.62,-3337 453.62,-3337 453.62,-3337 447.62,-3337 441.62,-3331 441.62,-3325 441.62,-3325 441.62,-3313 441.62,-3313 441.62,-3307 447.62,-3301 453.62,-3301 453.62,-3301 574.62,-3301 574.62,-3301 580.62,-3301 586.62,-3307 586.62,-3313 586.62,-3313 586.62,-3325 586.62,-3325 586.62,-3331 580.62,-3337 574.62,-3337"/>
<text text-anchor="middle" x="514.12" y="-3317" font-family="Helvetica,Arial,sans-serif" font-size="10.00" fill="#212529">📄 hardware&#45;configuration.nix</text>
</g>
<!-- N2&#45;&gt;N4 -->
<g id="edge6" class="edge">
<title>N2&#45;&gt;N4</title>
<path fill="none" stroke="#6c757d" d="M272.61,-3319C316.76,-3319 381.53,-3319 432.73,-3319"/>
<polygon fill="#6c757d" stroke="#6c757d" points="432.64,-3321.45 439.64,-3319 432.64,-3316.55 432.64,-3321.45"/>
</g>
<!-- N5 -->
<g id="node6" class="node">
<title>N5</title>
<path fill="#f8f9fa" stroke="#ced4da" d="M539.38,-2835C539.38,-2835 488.88,-2835 488.88,-2835 482.88,-2835 476.88,-2829 476.88,-2823 476.88,-2823 476.88,-2811 476.88,-2811 476.88,-2805 482.88,-2799 488.88,-2799 488.88,-2799 539.38,-2799 539.38,-2799 545.38,-2799 551.38,-2805 551.38,-2811 551.38,-2811 551.38,-2823 551.38,-2823 551.38,-2829 545.38,-2835 539.38,-2835"/>
<text text-anchor="middle" x="514.12" y="-2815" font-family="Helvetica,Arial,sans-serif" font-size="10.00" fill="#212529">📄 byparr.nix</text>
</g>
<!-- N2&#45;&gt;N5 -->
<g id="edge7" class="edge">
<title>N2&#45;&gt;N5</title>
<path fill="none" stroke="#6c757d" d="M227.9,-3300.75C256.59,-3213.82 378,-2846 378,-2846 378,-2846 429.02,-2835.05 468.36,-2826.61"/>
<polygon fill="#6c757d" stroke="#6c757d" points="468.75,-2829.03 475.08,-2825.17 467.72,-2824.24 468.75,-2829.03"/>
</g>
<!-- N6 -->
<g id="node7" class="node">
<title>N6</title>
<path fill="#f8f9fa" stroke="#ced4da" d="M569.75,-2893C569.75,-2893 458.5,-2893 458.5,-2893 452.5,-2893 446.5,-2887 446.5,-2881 446.5,-2881 446.5,-2869 446.5,-2869 446.5,-2863 452.5,-2857 458.5,-2857 458.5,-2857 569.75,-2857 569.75,-2857 575.75,-2857 581.75,-2863 581.75,-2869 581.75,-2869 581.75,-2881 581.75,-2881 581.75,-2887 575.75,-2893 569.75,-2893"/>
<text text-anchor="middle" x="514.12" y="-2873" font-family="Helvetica,Arial,sans-serif" font-size="10.00" fill="#212529">📄 filebrowser&#45;quantum.nix</text>
</g>
<!-- N2&#45;&gt;N6 -->
<g id="edge8" class="edge">
<title>N2&#45;&gt;N6</title>
<path fill="none" stroke="#6c757d" d="M228.78,-3300.63C259,-3220.32 378,-2904 378,-2904 378,-2904 407.16,-2897.74 438.39,-2891.04"/>
<polygon fill="#6c757d" stroke="#6c757d" points="438.54,-2893.51 444.87,-2889.65 437.52,-2888.72 438.54,-2893.51"/>
</g>
<!-- N7 -->
<g id="node8" class="node">
<title>N7</title>
<path fill="#f8f9fa" stroke="#ced4da" d="M541.62,-2951C541.62,-2951 486.62,-2951 486.62,-2951 480.62,-2951 474.62,-2945 474.62,-2939 474.62,-2939 474.62,-2927 474.62,-2927 474.62,-2921 480.62,-2915 486.62,-2915 486.62,-2915 541.62,-2915 541.62,-2915 547.62,-2915 553.62,-2921 553.62,-2927 553.62,-2927 553.62,-2939 553.62,-2939 553.62,-2945 547.62,-2951 541.62,-2951"/>
<text text-anchor="middle" x="514.12" y="-2931" font-family="Helvetica,Arial,sans-serif" font-size="10.00" fill="#212529">📄 immich.nix</text>
</g>
<!-- N2&#45;&gt;N7 -->
<g id="edge9" class="edge">
<title>N2&#45;&gt;N7</title>
<path fill="none" stroke="#6c757d" d="M229.83,-3300.81C261.65,-3228.06 378,-2962 378,-2962 378,-2962 427.22,-2951.44 466.25,-2943.06"/>
<polygon fill="#6c757d" stroke="#6c757d" points="466.59,-2945.49 472.92,-2941.63 465.57,-2940.7 466.59,-2945.49"/>
</g>
<!-- N8 -->
<g id="node9" class="node">
<title>N8</title>
<path fill="#f8f9fa" stroke="#ced4da" d="M540.12,-3009C540.12,-3009 488.12,-3009 488.12,-3009 482.12,-3009 476.12,-3003 476.12,-2997 476.12,-2997 476.12,-2985 476.12,-2985 476.12,-2979 482.12,-2973 488.12,-2973 488.12,-2973 540.12,-2973 540.12,-2973 546.12,-2973 552.12,-2979 552.12,-2985 552.12,-2985 552.12,-2997 552.12,-2997 552.12,-3003 546.12,-3009 540.12,-3009"/>
<text text-anchor="middle" x="514.12" y="-2989" font-family="Helvetica,Arial,sans-serif" font-size="10.00" fill="#212529">📄 komga.nix</text>
</g>
<!-- N2&#45;&gt;N8 -->
<g id="edge10" class="edge">
<title>N2&#45;&gt;N8</title>
<path fill="none" stroke="#6c757d" d="M231.41,-3300.75C265.3,-3235.83 378,-3020 378,-3020 378,-3020 428.42,-3009.18 467.66,-3000.76"/>
<polygon fill="#6c757d" stroke="#6c757d" points="468.03,-3003.18 474.36,-2999.32 467.01,-2998.39 468.03,-3003.18"/>
</g>
<!-- N9 -->
<g id="node10" class="node">
<title>N9</title>
<path fill="#f8f9fa" stroke="#ced4da" d="M546.12,-3067C546.12,-3067 482.12,-3067 482.12,-3067 476.12,-3067 470.12,-3061 470.12,-3055 470.12,-3055 470.12,-3043 470.12,-3043 470.12,-3037 476.12,-3031 482.12,-3031 482.12,-3031 546.12,-3031 546.12,-3031 552.12,-3031 558.12,-3037 558.12,-3043 558.12,-3043 558.12,-3055 558.12,-3055 558.12,-3061 552.12,-3067 546.12,-3067"/>
<text text-anchor="middle" x="514.12" y="-3047" font-family="Helvetica,Arial,sans-serif" font-size="10.00" fill="#212529">📄 onlyoffice.nix</text>
</g>
<!-- N2&#45;&gt;N9 -->
<g id="edge11" class="edge">
<title>N2&#45;&gt;N9</title>
<path fill="none" stroke="#6c757d" d="M233.61,-3300.89C269.92,-3244.84 378,-3078 378,-3078 378,-3078 423.43,-3068.25 461.61,-3060.06"/>
<polygon fill="#6c757d" stroke="#6c757d" points="461.82,-3062.52 468.15,-3058.65 460.79,-3057.73 461.82,-3062.52"/>
</g>
<!-- N10 -->
<g id="node11" class="node">
<title>N10</title>
<path fill="#f8f9fa" stroke="#ced4da" d="M543.12,-3125C543.12,-3125 485.12,-3125 485.12,-3125 479.12,-3125 473.12,-3119 473.12,-3113 473.12,-3113 473.12,-3101 473.12,-3101 473.12,-3095 479.12,-3089 485.12,-3089 485.12,-3089 543.12,-3089 543.12,-3089 549.12,-3089 555.12,-3095 555.12,-3101 555.12,-3101 555.12,-3113 555.12,-3113 555.12,-3119 549.12,-3125 543.12,-3125"/>
<text text-anchor="middle" x="514.12" y="-3105" font-family="Helvetica,Arial,sans-serif" font-size="10.00" fill="#212529">📄 prowlarr.nix</text>
</g>
<!-- N2&#45;&gt;N10 -->
<g id="edge12" class="edge">
<title>N2&#45;&gt;N10</title>
<path fill="none" stroke="#6c757d" d="M237.42,-3300.78C276.91,-3254.5 378,-3136 378,-3136 378,-3136 426.04,-3125.69 464.83,-3117.36"/>
<polygon fill="#6c757d" stroke="#6c757d" points="465.14,-3119.8 471.47,-3115.94 464.11,-3115.01 465.14,-3119.8"/>
</g>
<!-- N11 -->
<g id="node12" class="node">
<title>N11</title>
<path fill="#f8f9fa" stroke="#ced4da" d="M547.62,-3183C547.62,-3183 480.62,-3183 480.62,-3183 474.62,-3183 468.62,-3177 468.62,-3171 468.62,-3171 468.62,-3159 468.62,-3159 468.62,-3153 474.62,-3147 480.62,-3147 480.62,-3147 547.62,-3147 547.62,-3147 553.62,-3147 559.62,-3153 559.62,-3159 559.62,-3159 559.62,-3171 559.62,-3171 559.62,-3177 553.62,-3183 547.62,-3183"/>
<text text-anchor="middle" x="514.12" y="-3163" font-family="Helvetica,Arial,sans-serif" font-size="10.00" fill="#212529">📄 qbittorrent.nix</text>
</g>
<!-- N2&#45;&gt;N11 -->
<g id="edge13" class="edge">
<title>N2&#45;&gt;N11</title>
<path fill="none" stroke="#6c757d" d="M244.91,-3300.56C288.34,-3265.78 378,-3194 378,-3194 378,-3194 422.3,-3184.49 460.17,-3176.37"/>
<polygon fill="#6c757d" stroke="#6c757d" points="460.32,-3178.84 466.65,-3174.97 459.29,-3174.05 460.32,-3178.84"/>
</g>
<!-- N12 -->
<g id="node13" class="node">
<title>N12</title>
<path fill="#f8f9fa" stroke="#ced4da" d="M539.38,-3241C539.38,-3241 488.88,-3241 488.88,-3241 482.88,-3241 476.88,-3235 476.88,-3229 476.88,-3229 476.88,-3217 476.88,-3217 476.88,-3211 482.88,-3205 488.88,-3205 488.88,-3205 539.38,-3205 539.38,-3205 545.38,-3205 551.38,-3211 551.38,-3217 551.38,-3217 551.38,-3229 551.38,-3229 551.38,-3235 545.38,-3241 539.38,-3241"/>
<text text-anchor="middle" x="514.12" y="-3221" font-family="Helvetica,Arial,sans-serif" font-size="10.00" fill="#212529">📄 sonarr.nix</text>
</g>
<!-- N2&#45;&gt;N12 -->
<g id="edge14" class="edge">
<title>N2&#45;&gt;N12</title>
<path fill="none" stroke="#6c757d" d="M272.61,-3302.28C328.1,-3283.99 416.17,-3254.96 468.93,-3237.57"/>
<polygon fill="#6c757d" stroke="#6c757d" points="469.45,-3239.97 475.33,-3235.46 467.92,-3235.32 469.45,-3239.97"/>
</g>
<!-- N13 -->
<g id="node14" class="node">
<title>N13</title>
<path fill="#f8f9fa" stroke="#ced4da" d="M547.25,-2719C547.25,-2719 481,-2719 481,-2719 475,-2719 469,-2713 469,-2707 469,-2707 469,-2695 469,-2695 469,-2689 475,-2683 481,-2683 481,-2683 547.25,-2683 547.25,-2683 553.25,-2683 559.25,-2689 559.25,-2695 559.25,-2695 559.25,-2707 559.25,-2707 559.25,-2713 553.25,-2719 547.25,-2719"/>
<text text-anchor="middle" x="514.12" y="-2699" font-family="Helvetica,Arial,sans-serif" font-size="10.00" fill="#212529">📄 suwayomi.nix</text>
</g>
<!-- N2&#45;&gt;N13 -->
<g id="edge15" class="edge">
<title>N2&#45;&gt;N13</title>
<path fill="none" stroke="#6c757d" d="M226.72,-3300.73C253.07,-3201.31 378,-2730 378,-2730 378,-2730 422.58,-2720.43 460.53,-2712.29"/>
<polygon fill="#6c757d" stroke="#6c757d" points="460.7,-2714.76 467.03,-2710.89 459.67,-2709.97 460.7,-2714.76"/>
</g>
<!-- N14 -->
<g id="node15" class="node">
<title>N14</title>
<path fill="#f8f9fa" stroke="#ced4da" d="M539.38,-2777C539.38,-2777 488.88,-2777 488.88,-2777 482.88,-2777 476.88,-2771 476.88,-2765 476.88,-2765 476.88,-2753 476.88,-2753 476.88,-2747 482.88,-2741 488.88,-2741 488.88,-2741 539.38,-2741 539.38,-2741 545.38,-2741 551.38,-2747 551.38,-2753 551.38,-2753 551.38,-2765 551.38,-2765 551.38,-2771 545.38,-2777 539.38,-2777"/>
<text text-anchor="middle" x="514.12" y="-2757" font-family="Helvetica,Arial,sans-serif" font-size="10.00" fill="#212529">📄 tranga.nix</text>
</g>
<!-- N2&#45;&gt;N14 -->
<g id="edge16" class="edge">
<title>N2&#45;&gt;N14</title>
<path fill="none" stroke="#6c757d" d="M227.25,-3300.72C254.7,-3207.35 378,-2788 378,-2788 378,-2788 429.02,-2777.05 468.36,-2768.61"/>
<polygon fill="#6c757d" stroke="#6c757d" points="468.75,-2771.03 475.08,-2767.17 467.72,-2766.24 468.75,-2771.03"/>
</g>
<!-- N15 -->
<g id="node16" class="node">
<title>N15</title>
<path fill="#f8f9fa" stroke="#ced4da" d="M535.62,-2217C535.62,-2217 492.62,-2217 492.62,-2217 486.62,-2217 480.62,-2211 480.62,-2205 480.62,-2205 480.62,-2193 480.62,-2193 480.62,-2187 486.62,-2181 492.62,-2181 492.62,-2181 535.62,-2181 535.62,-2181 541.62,-2181 547.62,-2187 547.62,-2193 547.62,-2193 547.62,-2205 547.62,-2205 547.62,-2211 541.62,-2217 535.62,-2217"/>
<text text-anchor="middle" x="514.12" y="-2197" font-family="Helvetica,Arial,sans-serif" font-size="10.00" fill="#212529">📄 alloy.nix</text>
</g>
<!-- N2&#45;&gt;N15 -->
<g id="edge17" class="edge">
<title>N2&#45;&gt;N15</title>
<path fill="none" stroke="#6c757d" d="M224.52,-3300.52C245.04,-3157.16 378,-2228 378,-2228 378,-2228 432.41,-2216.32 472.18,-2207.79"/>
<polygon fill="#6c757d" stroke="#6c757d" points="472.61,-2210.2 478.94,-2206.34 471.58,-2205.41 472.61,-2210.2"/>
</g>
<!-- N16 -->
<g id="node17" class="node">
<title>N16</title>
<path fill="#f8f9fa" stroke="#ced4da" d="M547.25,-2275C547.25,-2275 481,-2275 481,-2275 475,-2275 469,-2269 469,-2263 469,-2263 469,-2251 469,-2251 469,-2245 475,-2239 481,-2239 481,-2239 547.25,-2239 547.25,-2239 553.25,-2239 559.25,-2245 559.25,-2251 559.25,-2251 559.25,-2263 559.25,-2263 559.25,-2269 553.25,-2275 547.25,-2275"/>
<text text-anchor="middle" x="514.12" y="-2255" font-family="Helvetica,Arial,sans-serif" font-size="10.00" fill="#212529">📄 borgmatic.nix</text>
</g>
<!-- N2&#45;&gt;N16 -->
<g id="edge18" class="edge">
<title>N2&#45;&gt;N16</title>
<path fill="none" stroke="#6c757d" d="M224.65,-3300.63C245.6,-3162.04 378,-2286 378,-2286 378,-2286 422.58,-2276.43 460.53,-2268.29"/>
<polygon fill="#6c757d" stroke="#6c757d" points="460.7,-2270.76 467.03,-2266.89 459.67,-2265.97 460.7,-2270.76"/>
</g>
<!-- N17 -->
<g id="node18" class="node">
<title>N17</title>
<path fill="#f8f9fa" stroke="#ced4da" d="M542,-2333C542,-2333 486.25,-2333 486.25,-2333 480.25,-2333 474.25,-2327 474.25,-2321 474.25,-2321 474.25,-2309 474.25,-2309 474.25,-2303 480.25,-2297 486.25,-2297 486.25,-2297 542,-2297 542,-2297 548,-2297 554,-2303 554,-2309 554,-2309 554,-2321 554,-2321 554,-2327 548,-2333 542,-2333"/>
<text text-anchor="middle" x="514.12" y="-2313" font-family="Helvetica,Arial,sans-serif" font-size="10.00" fill="#212529">📄 grafana.nix</text>
</g>
<!-- N2&#45;&gt;N17 -->
<g id="edge19" class="edge">
<title>N2&#45;&gt;N17</title>
<path fill="none" stroke="#6c757d" d="M224.79,-3300.82C246.16,-3167.35 378,-2344 378,-2344 378,-2344 426.93,-2333.5 465.9,-2325.14"/>
<polygon fill="#6c757d" stroke="#6c757d" points="466.23,-2327.57 472.56,-2323.71 465.2,-2322.78 466.23,-2327.57"/>
</g>
<!-- N18 -->
<g id="node19" class="node">
<title>N18</title>
<path fill="#f8f9fa" stroke="#ced4da" d="M533.38,-2391C533.38,-2391 494.88,-2391 494.88,-2391 488.88,-2391 482.88,-2385 482.88,-2379 482.88,-2379 482.88,-2367 482.88,-2367 482.88,-2361 488.88,-2355 494.88,-2355 494.88,-2355 533.38,-2355 533.38,-2355 539.38,-2355 545.38,-2361 545.38,-2367 545.38,-2367 545.38,-2379 545.38,-2379 545.38,-2385 539.38,-2391 533.38,-2391"/>
<text text-anchor="middle" x="514.12" y="-2371" font-family="Helvetica,Arial,sans-serif" font-size="10.00" fill="#212529">📄 loki.nix</text>
</g>
<!-- N2&#45;&gt;N18 -->
<g id="edge20" class="edge">
<title>N2&#45;&gt;N18</title>
<path fill="none" stroke="#6c757d" d="M224.99,-3300.68C247,-3171.44 378,-2402 378,-2402 378,-2402 434.3,-2389.92 474.22,-2381.35"/>
<polygon fill="#6c757d" stroke="#6c757d" points="474.65,-2383.76 480.98,-2379.9 473.62,-2378.97 474.65,-2383.76"/>
</g>
<!-- N19 -->
<g id="node20" class="node">
<title>N19</title>
<path fill="#f8f9fa" stroke="#ced4da" d="M542,-2449C542,-2449 486.25,-2449 486.25,-2449 480.25,-2449 474.25,-2443 474.25,-2437 474.25,-2437 474.25,-2425 474.25,-2425 474.25,-2419 480.25,-2413 486.25,-2413 486.25,-2413 542,-2413 542,-2413 548,-2413 554,-2419 554,-2425 554,-2425 554,-2437 554,-2437 554,-2443 548,-2449 542,-2449"/>
<text text-anchor="middle" x="514.12" y="-2429" font-family="Helvetica,Arial,sans-serif" font-size="10.00" fill="#212529">📄 netdata.nix</text>
</g>
<!-- N2&#45;&gt;N19 -->
<g id="edge21" class="edge">
<title>N2&#45;&gt;N19</title>
<path fill="none" stroke="#6c757d" d="M225.21,-3300.66C247.83,-3176.17 378,-2460 378,-2460 378,-2460 426.93,-2449.5 465.9,-2441.14"/>
<polygon fill="#6c757d" stroke="#6c757d" points="466.23,-2443.57 472.56,-2439.71 465.2,-2438.78 466.23,-2443.57"/>
</g>
<!-- N20 -->
<g id="node21" class="node">
<title>N20</title>
<path fill="#f8f9fa" stroke="#ced4da" d="M556.25,-2507C556.25,-2507 472,-2507 472,-2507 466,-2507 460,-2501 460,-2495 460,-2495 460,-2483 460,-2483 460,-2477 466,-2471 472,-2471 472,-2471 556.25,-2471 556.25,-2471 562.25,-2471 568.25,-2477 568.25,-2483 568.25,-2483 568.25,-2495 568.25,-2495 568.25,-2501 562.25,-2507 556.25,-2507"/>
<text text-anchor="middle" x="514.12" y="-2487" font-family="Helvetica,Arial,sans-serif" font-size="10.00" fill="#212529">📄 power&#45;monitor.nix</text>
</g>
<!-- N2&#45;&gt;N20 -->
<g id="edge22" class="edge">
<title>N2&#45;&gt;N20</title>
<path fill="none" stroke="#6c757d" d="M225.43,-3300.77C248.67,-3181.54 378,-2518 378,-2518 378,-2518 415.99,-2509.85 451.68,-2502.19"/>
<polygon fill="#6c757d" stroke="#6c757d" points="451.91,-2504.64 458.24,-2500.78 450.88,-2499.85 451.91,-2504.64"/>
</g>
<!-- N21 -->
<g id="node22" class="node">
<title>N21</title>
<path fill="#f8f9fa" stroke="#ced4da" d="M551.38,-2565C551.38,-2565 476.88,-2565 476.88,-2565 470.88,-2565 464.88,-2559 464.88,-2553 464.88,-2553 464.88,-2541 464.88,-2541 464.88,-2535 470.88,-2529 476.88,-2529 476.88,-2529 551.38,-2529 551.38,-2529 557.38,-2529 563.38,-2535 563.38,-2541 563.38,-2541 563.38,-2553 563.38,-2553 563.38,-2559 557.38,-2565 551.38,-2565"/>
<text text-anchor="middle" x="514.12" y="-2545" font-family="Helvetica,Arial,sans-serif" font-size="10.00" fill="#212529">📄 prometheus.nix</text>
</g>
<!-- N2&#45;&gt;N21 -->
<g id="edge23" class="edge">
<title>N2&#45;&gt;N21</title>
<path fill="none" stroke="#6c757d" d="M225.73,-3300.63C249.78,-3186.22 378,-2576 378,-2576 378,-2576 419.44,-2567.11 456.43,-2559.17"/>
<polygon fill="#6c757d" stroke="#6c757d" points="456.91,-2561.57 463.24,-2557.71 455.89,-2556.78 456.91,-2561.57"/>
</g>
<!-- N22 -->
<g id="node23" class="node">
<title>N22</title>
<path fill="#f8f9fa" stroke="#ced4da" d="M542.75,-2623C542.75,-2623 485.5,-2623 485.5,-2623 479.5,-2623 473.5,-2617 473.5,-2611 473.5,-2611 473.5,-2599 473.5,-2599 473.5,-2593 479.5,-2587 485.5,-2587 485.5,-2587 542.75,-2587 542.75,-2587 548.75,-2587 554.75,-2593 554.75,-2599 554.75,-2599 554.75,-2611 554.75,-2611 554.75,-2617 548.75,-2623 542.75,-2623"/>
<text text-anchor="middle" x="514.12" y="-2603" font-family="Helvetica,Arial,sans-serif" font-size="10.00" fill="#212529">📄 scrutiny.nix</text>
</g>
<!-- N2&#45;&gt;N22 -->
<g id="edge24" class="edge">
<title>N2&#45;&gt;N22</title>
<path fill="none" stroke="#6c757d" d="M226.21,-3300.77C251.43,-3194.82 378,-2663 378,-2663 378,-2663 426.74,-2642.08 465.67,-2625.37"/>
<polygon fill="#6c757d" stroke="#6c757d" points="466.46,-2627.7 471.92,-2622.69 464.52,-2623.19 466.46,-2627.7"/>
</g>
<!-- N23 -->
<g id="node24" class="node">
<title>N23</title>
<path fill="#f8f9fa" stroke="#ced4da" d="M554,-2159C554,-2159 474.25,-2159 474.25,-2159 468.25,-2159 462.25,-2153 462.25,-2147 462.25,-2147 462.25,-2135 462.25,-2135 462.25,-2129 468.25,-2123 474.25,-2123 474.25,-2123 554,-2123 554,-2123 560,-2123 566,-2129 566,-2135 566,-2135 566,-2147 566,-2147 566,-2153 560,-2159 554,-2159"/>
<text text-anchor="middle" x="514.12" y="-2139" font-family="Helvetica,Arial,sans-serif" font-size="10.00" fill="#212529">📄 uptime&#45;kuma.nix</text>
</g>
<!-- N2&#45;&gt;N23 -->
<g id="edge25" class="edge">
<title>N2&#45;&gt;N23</title>
<path fill="none" stroke="#6c757d" d="M224.33,-3300.95C244.19,-3154.77 378,-2170 378,-2170 378,-2170 417.56,-2161.51 453.88,-2153.72"/>
<polygon fill="#6c757d" stroke="#6c757d" points="454.23,-2156.15 460.56,-2152.28 453.2,-2151.35 454.23,-2156.15"/>
</g>
<!-- N24 -->
<g id="node25" class="node">
<title>N24</title>
<path fill="#f8f9fa" stroke="#ced4da" d="M559.25,-2005C559.25,-2005 469,-2005 469,-2005 463,-2005 457,-1999 457,-1993 457,-1993 457,-1981 457,-1981 457,-1975 463,-1969 469,-1969 469,-1969 559.25,-1969 559.25,-1969 565.25,-1969 571.25,-1975 571.25,-1981 571.25,-1981 571.25,-1993 571.25,-1993 571.25,-1999 565.25,-2005 559.25,-2005"/>
<text text-anchor="middle" x="514.12" y="-1985" font-family="Helvetica,Arial,sans-serif" font-size="10.00" fill="#212529">📄 crafty&#45;controller.nix</text>
</g>
<!-- N2&#45;&gt;N24 -->
<g id="edge26" class="edge">
<title>N2&#45;&gt;N24</title>
<path fill="none" stroke="#6c757d" d="M224.08,-3300.58C243.06,-3142.21 378,-2016 378,-2016 378,-2016 413.63,-2008.35 448.3,-2000.91"/>
<polygon fill="#6c757d" stroke="#6c757d" points="448.79,-2003.31 455.12,-1999.45 447.76,-1998.52 448.79,-2003.31"/>
</g>
<!-- N25 -->
<g id="node26" class="node">
<title>N25</title>
<path fill="#f8f9fa" stroke="#ced4da" d="M540.5,-2063C540.5,-2063 487.75,-2063 487.75,-2063 481.75,-2063 475.75,-2057 475.75,-2051 475.75,-2051 475.75,-2039 475.75,-2039 475.75,-2033 481.75,-2027 487.75,-2027 487.75,-2027 540.5,-2027 540.5,-2027 546.5,-2027 552.5,-2033 552.5,-2039 552.5,-2039 552.5,-2051 552.5,-2051 552.5,-2057 546.5,-2063 540.5,-2063"/>
<text text-anchor="middle" x="514.12" y="-2043" font-family="Helvetica,Arial,sans-serif" font-size="10.00" fill="#212529">📄 forgejo.nix</text>
</g>
<!-- N2&#45;&gt;N25 -->
<g id="edge27" class="edge">
<title>N2&#45;&gt;N25</title>
<path fill="none" stroke="#6c757d" d="M224.2,-3300.87C243.62,-3149.6 378,-2103 378,-2103 378,-2103 428.54,-2081.31 467.8,-2064.45"/>
<polygon fill="#6c757d" stroke="#6c757d" points="468.63,-2066.77 474.09,-2061.75 466.7,-2062.26 468.63,-2066.77"/>
</g>
<!-- N26 -->
<g id="node27" class="node">
<title>N26</title>
<path fill="#f8f9fa" stroke="#ced4da" d="M548.38,-1425C548.38,-1425 479.88,-1425 479.88,-1425 473.88,-1425 467.88,-1419 467.88,-1413 467.88,-1413 467.88,-1401 467.88,-1401 467.88,-1395 473.88,-1389 479.88,-1389 479.88,-1389 548.38,-1389 548.38,-1389 554.38,-1389 560.38,-1395 560.38,-1401 560.38,-1401 560.38,-1413 560.38,-1413 560.38,-1419 554.38,-1425 548.38,-1425"/>
<text text-anchor="middle" x="514.12" y="-1405" font-family="Helvetica,Arial,sans-serif" font-size="10.00" fill="#212529">📄 homepage.nix</text>
</g>
<!-- N2&#45;&gt;N26 -->
<g id="edge28" class="edge">
<title>N2&#45;&gt;N26</title>
<path fill="none" stroke="#6c757d" d="M223.4,-3300.67C239.49,-3106.53 378,-1436 378,-1436 378,-1436 421.73,-1426.61 459.44,-1418.52"/>
<polygon fill="#6c757d" stroke="#6c757d" points="459.57,-1421 465.9,-1417.14 458.54,-1416.21 459.57,-1421"/>
</g>
<!-- N27 -->
<g id="node28" class="node">
<title>N27</title>
<path fill="#f8f9fa" stroke="#ced4da" d="M553.25,-1483C553.25,-1483 475,-1483 475,-1483 469,-1483 463,-1477 463,-1471 463,-1471 463,-1459 463,-1459 463,-1453 469,-1447 475,-1447 475,-1447 553.25,-1447 553.25,-1447 559.25,-1447 565.25,-1453 565.25,-1459 565.25,-1459 565.25,-1471 565.25,-1471 565.25,-1477 559.25,-1483 553.25,-1483"/>
<text text-anchor="middle" x="514.12" y="-1463" font-family="Helvetica,Arial,sans-serif" font-size="10.00" fill="#212529">📄 local&#45;finance.nix</text>
</g>
<!-- N2&#45;&gt;N27 -->
<g id="edge29" class="edge">
<title>N2&#45;&gt;N27</title>
<path fill="none" stroke="#6c757d" d="M223.45,-3300.64C239.78,-3109.72 378,-1494 378,-1494 378,-1494 418.1,-1485.39 454.61,-1477.56"/>
<polygon fill="#6c757d" stroke="#6c757d" points="455,-1479.98 461.33,-1476.12 453.97,-1475.19 455,-1479.98"/>
</g>
<!-- N28 -->
<g id="node29" class="node">
<title>N28</title>
<path fill="#f8f9fa" stroke="#ced4da" d="M533.75,-1541C533.75,-1541 494.5,-1541 494.5,-1541 488.5,-1541 482.5,-1535 482.5,-1529 482.5,-1529 482.5,-1517 482.5,-1517 482.5,-1511 488.5,-1505 494.5,-1505 494.5,-1505 533.75,-1505 533.75,-1505 539.75,-1505 545.75,-1511 545.75,-1517 545.75,-1517 545.75,-1529 545.75,-1529 545.75,-1535 539.75,-1541 533.75,-1541"/>
<text text-anchor="middle" x="514.12" y="-1521" font-family="Helvetica,Arial,sans-serif" font-size="10.00" fill="#212529">📄 n8n.nix</text>
</g>
<!-- N2&#45;&gt;N28 -->
<g id="edge30" class="edge">
<title>N2&#45;&gt;N28</title>
<path fill="none" stroke="#6c757d" d="M223.5,-3300.64C240.07,-3113.13 378,-1552 378,-1552 378,-1552 433.98,-1539.99 473.88,-1531.42"/>
<polygon fill="#6c757d" stroke="#6c757d" points="474.31,-1533.84 480.64,-1529.97 473.29,-1529.04 474.31,-1533.84"/>
</g>
<!-- N29 -->
<g id="node30" class="node">
<title>N29</title>
<path fill="#f8f9fa" stroke="#ced4da" d="M539.75,-1599C539.75,-1599 488.5,-1599 488.5,-1599 482.5,-1599 476.5,-1593 476.5,-1587 476.5,-1587 476.5,-1575 476.5,-1575 476.5,-1569 482.5,-1563 488.5,-1563 488.5,-1563 539.75,-1563 539.75,-1563 545.75,-1563 551.75,-1569 551.75,-1575 551.75,-1575 551.75,-1587 551.75,-1587 551.75,-1593 545.75,-1599 539.75,-1599"/>
<text text-anchor="middle" x="514.12" y="-1579" font-family="Helvetica,Arial,sans-serif" font-size="10.00" fill="#212529">📄 quartz.nix</text>
</g>
<!-- N2&#45;&gt;N29 -->
<g id="edge31" class="edge">
<title>N2&#45;&gt;N29</title>
<path fill="none" stroke="#6c757d" d="M223.55,-3300.68C240.35,-3116.75 378,-1610 378,-1610 378,-1610 428.72,-1599.11 468.01,-1590.68"/>
<polygon fill="#6c757d" stroke="#6c757d" points="468.39,-1593.11 474.72,-1589.24 467.36,-1588.32 468.39,-1593.11"/>
</g>
<!-- N30 -->
<g id="node31" class="node">
<title>N30</title>
<path fill="#f8f9fa" stroke="#ced4da" d="M538.25,-1657C538.25,-1657 490,-1657 490,-1657 484,-1657 478,-1651 478,-1645 478,-1645 478,-1633 478,-1633 478,-1627 484,-1621 490,-1621 490,-1621 538.25,-1621 538.25,-1621 544.25,-1621 550.25,-1627 550.25,-1633 550.25,-1633 550.25,-1645 550.25,-1645 550.25,-1651 544.25,-1657 538.25,-1657"/>
<text text-anchor="middle" x="514.12" y="-1637" font-family="Helvetica,Arial,sans-serif" font-size="10.00" fill="#212529">📄 romm.nix</text>
</g>
<!-- N2&#45;&gt;N30 -->
<g id="edge32" class="edge">
<title>N2&#45;&gt;N30</title>
<path fill="none" stroke="#6c757d" d="M223.6,-3300.74C240.64,-3120.59 378,-1668 378,-1668 378,-1668 429.94,-1656.85 469.41,-1648.38"/>
<polygon fill="#6c757d" stroke="#6c757d" points="469.81,-1650.8 476.14,-1646.94 468.78,-1646.01 469.81,-1650.8"/>
</g>
<!-- N31 -->
<g id="node32" class="node">
<title>N31</title>
<path fill="#f8f9fa" stroke="#ced4da" d="M564.88,-1715C564.88,-1715 463.38,-1715 463.38,-1715 457.38,-1715 451.38,-1709 451.38,-1703 451.38,-1703 451.38,-1691 451.38,-1691 451.38,-1685 457.38,-1679 463.38,-1679 463.38,-1679 564.88,-1679 564.88,-1679 570.88,-1679 576.88,-1685 576.88,-1691 576.88,-1691 576.88,-1703 576.88,-1703 576.88,-1709 570.88,-1715 564.88,-1715"/>
<text text-anchor="middle" x="514.12" y="-1695" font-family="Helvetica,Arial,sans-serif" font-size="10.00" fill="#212529">📄 security&#45;watchdog.nix</text>
</g>
<!-- N2&#45;&gt;N31 -->
<g id="edge33" class="edge">
<title>N2&#45;&gt;N31</title>
<path fill="none" stroke="#6c757d" d="M223.68,-3300.56C241.07,-3123.18 378,-1726 378,-1726 378,-1726 410.21,-1719.09 443.17,-1712.01"/>
<polygon fill="#6c757d" stroke="#6c757d" points="443.29,-1714.49 449.62,-1710.63 442.26,-1709.7 443.29,-1714.49"/>
</g>
<!-- N32 -->
<g id="node33" class="node">
<title>N32</title>
<path fill="#f8f9fa" stroke="#ced4da" d="M548.38,-1773C548.38,-1773 479.88,-1773 479.88,-1773 473.88,-1773 467.88,-1767 467.88,-1761 467.88,-1761 467.88,-1749 467.88,-1749 467.88,-1743 473.88,-1737 479.88,-1737 479.88,-1737 548.38,-1737 548.38,-1737 554.38,-1737 560.38,-1743 560.38,-1749 560.38,-1749 560.38,-1761 560.38,-1761 560.38,-1767 554.38,-1773 548.38,-1773"/>
<text text-anchor="middle" x="514.12" y="-1753" font-family="Helvetica,Arial,sans-serif" font-size="10.00" fill="#212529">📄 stirling&#45;pdf.nix</text>
</g>
<!-- N2&#45;&gt;N32 -->
<g id="edge34" class="edge">
<title>N2&#45;&gt;N32</title>
<path fill="none" stroke="#6c757d" d="M223.74,-3300.69C241.35,-3127.51 378,-1784 378,-1784 378,-1784 421.73,-1774.61 459.44,-1766.52"/>
<polygon fill="#6c757d" stroke="#6c757d" points="459.57,-1769 465.9,-1765.14 458.54,-1764.21 459.57,-1769"/>
</g>
<!-- N33 -->
<g id="node34" class="node">
<title>N33</title>
<path fill="#f8f9fa" stroke="#ced4da" d="M534.12,-1831C534.12,-1831 494.12,-1831 494.12,-1831 488.12,-1831 482.12,-1825 482.12,-1819 482.12,-1819 482.12,-1807 482.12,-1807 482.12,-1801 488.12,-1795 494.12,-1795 494.12,-1795 534.12,-1795 534.12,-1795 540.12,-1795 546.12,-1801 546.12,-1807 546.12,-1807 546.12,-1819 546.12,-1819 546.12,-1825 540.12,-1831 534.12,-1831"/>
<text text-anchor="middle" x="514.12" y="-1811" font-family="Helvetica,Arial,sans-serif" font-size="10.00" fill="#212529">📄 vert.nix</text>
</g>
<!-- N2&#45;&gt;N33 -->
<g id="edge35" class="edge">
<title>N2&#45;&gt;N33</title>
<path fill="none" stroke="#6c757d" d="M223.82,-3300.59C241.78,-3130.7 378,-1842 378,-1842 378,-1842 433.67,-1830.05 473.54,-1821.5"/>
<polygon fill="#6c757d" stroke="#6c757d" points="473.98,-1823.91 480.31,-1820.04 472.95,-1819.12 473.98,-1823.91"/>
</g>
<!-- N34 -->
<g id="node35" class="node">
<title>N34</title>
<path fill="#f8f9fa" stroke="#ced4da" d="M541.25,-1889C541.25,-1889 487,-1889 487,-1889 481,-1889 475,-1883 475,-1877 475,-1877 475,-1865 475,-1865 475,-1859 481,-1853 487,-1853 487,-1853 541.25,-1853 541.25,-1853 547.25,-1853 553.25,-1859 553.25,-1865 553.25,-1865 553.25,-1877 553.25,-1877 553.25,-1883 547.25,-1889 541.25,-1889"/>
<text text-anchor="middle" x="514.12" y="-1869" font-family="Helvetica,Arial,sans-serif" font-size="10.00" fill="#212529">📄 vikunja.nix</text>
</g>
<!-- N2&#45;&gt;N34 -->
<g id="edge36" class="edge">
<title>N2&#45;&gt;N34</title>
<path fill="none" stroke="#6c757d" d="M223.91,-3300.54C242.21,-3134.21 378,-1900 378,-1900 378,-1900 427.52,-1889.37 466.6,-1880.98"/>
<polygon fill="#6c757d" stroke="#6c757d" points="466.96,-1883.41 473.29,-1879.55 465.93,-1878.62 466.96,-1883.41"/>
</g>
<!-- N35 -->
<g id="node36" class="node">
<title>N35</title>
<path fill="#f8f9fa" stroke="#ced4da" d="M545.38,-1947C545.38,-1947 482.88,-1947 482.88,-1947 476.88,-1947 470.88,-1941 470.88,-1935 470.88,-1935 470.88,-1923 470.88,-1923 470.88,-1917 476.88,-1911 482.88,-1911 482.88,-1911 545.38,-1911 545.38,-1911 551.38,-1911 557.38,-1917 557.38,-1923 557.38,-1923 557.38,-1935 557.38,-1935 557.38,-1941 551.38,-1947 545.38,-1947"/>
<text text-anchor="middle" x="514.12" y="-1927" font-family="Helvetica,Arial,sans-serif" font-size="10.00" fill="#212529">📄 wanderer.nix</text>
</g>
<!-- N2&#45;&gt;N35 -->
<g id="edge37" class="edge">
<title>N2&#45;&gt;N35</title>
<path fill="none" stroke="#6c757d" d="M223.99,-3300.53C242.63,-3138.05 378,-1958 378,-1958 378,-1958 424.29,-1948.06 462.69,-1939.82"/>
<polygon fill="#6c757d" stroke="#6c757d" points="462.93,-1942.28 469.26,-1938.41 461.9,-1937.49 462.93,-1942.28"/>
</g>
<!-- N36 -->
<g id="node37" class="node">
<title>N36</title>
<path fill="#f8f9fa" stroke="#ced4da" d="M545.75,-1213C545.75,-1213 482.5,-1213 482.5,-1213 476.5,-1213 470.5,-1207 470.5,-1201 470.5,-1201 470.5,-1189 470.5,-1189 470.5,-1183 476.5,-1177 482.5,-1177 482.5,-1177 545.75,-1177 545.75,-1177 551.75,-1177 557.75,-1183 557.75,-1189 557.75,-1189 557.75,-1201 557.75,-1201 557.75,-1207 551.75,-1213 545.75,-1213"/>
<text text-anchor="middle" x="514.12" y="-1193" font-family="Helvetica,Arial,sans-serif" font-size="10.00" fill="#212529">📄 authentik.nix</text>
</g>
<!-- N2&#45;&gt;N36 -->
<g id="edge38" class="edge">
<title>N2&#45;&gt;N36</title>
<path fill="none" stroke="#6c757d" d="M223.25,-3300.57C238.63,-3094.19 378,-1224 378,-1224 378,-1224 424.01,-1214.13 462.33,-1205.9"/>
<polygon fill="#6c757d" stroke="#6c757d" points="462.56,-1208.36 468.89,-1204.49 461.53,-1203.57 462.56,-1208.36"/>
</g>
<!-- N37 -->
<g id="node38" class="node">
<title>N37</title>
<path fill="#f8f9fa" stroke="#ced4da" d="M538.62,-1271C538.62,-1271 489.62,-1271 489.62,-1271 483.62,-1271 477.62,-1265 477.62,-1259 477.62,-1259 477.62,-1247 477.62,-1247 477.62,-1241 483.62,-1235 489.62,-1235 489.62,-1235 538.62,-1235 538.62,-1235 544.62,-1235 550.62,-1241 550.62,-1247 550.62,-1247 550.62,-1259 550.62,-1259 550.62,-1265 544.62,-1271 538.62,-1271"/>
<text text-anchor="middle" x="514.12" y="-1251" font-family="Helvetica,Arial,sans-serif" font-size="10.00" fill="#212529">📄 caddy.nix</text>
</g>
<!-- N2&#45;&gt;N37 -->
<g id="edge39" class="edge">
<title>N2&#45;&gt;N37</title>
<path fill="none" stroke="#6c757d" d="M223.27,-3300.77C238.77,-3098.54 378,-1282 378,-1282 378,-1282 429.63,-1270.92 469.06,-1262.46"/>
<polygon fill="#6c757d" stroke="#6c757d" points="469.46,-1264.88 475.79,-1261.01 468.43,-1260.09 469.46,-1264.88"/>
</g>
<!-- N38 -->
<g id="node39" class="node">
<title>N38</title>
<path fill="#f8f9fa" stroke="#ced4da" d="M549.5,-1329C549.5,-1329 478.75,-1329 478.75,-1329 472.75,-1329 466.75,-1323 466.75,-1317 466.75,-1317 466.75,-1305 466.75,-1305 466.75,-1299 472.75,-1293 478.75,-1293 478.75,-1293 549.5,-1293 549.5,-1293 555.5,-1293 561.5,-1299 561.5,-1305 561.5,-1305 561.5,-1317 561.5,-1317 561.5,-1323 555.5,-1329 549.5,-1329"/>
<text text-anchor="middle" x="514.12" y="-1309" font-family="Helvetica,Arial,sans-serif" font-size="10.00" fill="#212529">📄 cloudflared.nix</text>
</g>
<!-- N2&#45;&gt;N38 -->
<g id="edge40" class="edge">
<title>N2&#45;&gt;N38</title>
<path fill="none" stroke="#6c757d" d="M223.35,-3300.63C239.2,-3102.56 378,-1369 378,-1369 378,-1369 424.39,-1349.09 462.81,-1332.6"/>
<polygon fill="#6c757d" stroke="#6c757d" points="463.51,-1334.96 468.98,-1329.95 461.58,-1330.46 463.51,-1334.96"/>
</g>
<!-- N39 -->
<g id="node40" class="node">
<title>N39</title>
<path fill="#f8f9fa" stroke="#ced4da" d="M569,-1097C569,-1097 459.25,-1097 459.25,-1097 453.25,-1097 447.25,-1091 447.25,-1085 447.25,-1085 447.25,-1073 447.25,-1073 447.25,-1067 453.25,-1061 459.25,-1061 459.25,-1061 569,-1061 569,-1061 575,-1061 581,-1067 581,-1073 581,-1073 581,-1085 581,-1085 581,-1091 575,-1097 569,-1097"/>
<text text-anchor="middle" x="514.12" y="-1077" font-family="Helvetica,Arial,sans-serif" font-size="10.00" fill="#212529">📄 docker&#45;socket&#45;proxy.nix</text>
</g>
<!-- N2&#45;&gt;N39 -->
<g id="edge41" class="edge">
<title>N2&#45;&gt;N39</title>
<path fill="none" stroke="#6c757d" d="M223.18,-3300.55C238.2,-3087.87 378,-1108 378,-1108 378,-1108 407.39,-1101.69 438.75,-1094.96"/>
<polygon fill="#6c757d" stroke="#6c757d" points="438.94,-1097.43 445.27,-1093.56 437.91,-1092.64 438.94,-1097.43"/>
</g>
<!-- N40 -->
<g id="node41" class="node">
<title>N40</title>
<path fill="#f8f9fa" stroke="#ced4da" d="M536,-1155C536,-1155 492.25,-1155 492.25,-1155 486.25,-1155 480.25,-1149 480.25,-1143 480.25,-1143 480.25,-1131 480.25,-1131 480.25,-1125 486.25,-1119 492.25,-1119 492.25,-1119 536,-1119 536,-1119 542,-1119 548,-1125 548,-1131 548,-1131 548,-1143 548,-1143 548,-1149 542,-1155 536,-1155"/>
<text text-anchor="middle" x="514.12" y="-1135" font-family="Helvetica,Arial,sans-serif" font-size="10.00" fill="#212529">📄 lldap.nix</text>
</g>
<!-- N2&#45;&gt;N40 -->
<g id="edge42" class="edge">
<title>N2&#45;&gt;N40</title>
<path fill="none" stroke="#6c757d" d="M223.2,-3300.71C238.34,-3091.94 378,-1166 378,-1166 378,-1166 432.1,-1154.39 471.83,-1145.86"/>
<polygon fill="#6c757d" stroke="#6c757d" points="472.26,-1148.28 478.59,-1144.41 471.23,-1143.49 472.26,-1148.28"/>
</g>
<!-- N45 -->
<g id="node46" class="node">
<title>N45</title>
<path fill="#f8f9fa" stroke="#ced4da" d="M540.5,-597C540.5,-597 487.75,-597 487.75,-597 481.75,-597 475.75,-591 475.75,-585 475.75,-585 475.75,-573 475.75,-573 475.75,-567 481.75,-561 487.75,-561 487.75,-561 540.5,-561 540.5,-561 546.5,-561 552.5,-567 552.5,-573 552.5,-573 552.5,-585 552.5,-585 552.5,-591 546.5,-597 540.5,-597"/>
<text text-anchor="middle" x="514.12" y="-577" font-family="Helvetica,Arial,sans-serif" font-size="10.00" fill="#212529">📄 default.nix</text>
</g>
<!-- N2&#45;&gt;N45 -->
<g id="edge43" class="edge">
<title>N2&#45;&gt;N45</title>
<path fill="none" stroke="#6c757d" d="M222.93,-3300.8C236.6,-3065.97 378,-637 378,-637 378,-637 428.54,-615.31 467.8,-598.45"/>
<polygon fill="#6c757d" stroke="#6c757d" points="468.63,-600.77 474.09,-595.75 466.7,-596.26 468.63,-600.77"/>
</g>
<!-- N50 -->
<g id="node51" class="node">
<title>N50</title>
<path fill="#f8f9fa" stroke="#ced4da" d="M536.38,-847C536.38,-847 491.88,-847 491.88,-847 485.88,-847 479.88,-841 479.88,-835 479.88,-835 479.88,-823 479.88,-823 479.88,-817 485.88,-811 491.88,-811 491.88,-811 536.38,-811 536.38,-811 542.38,-811 548.38,-817 548.38,-823 548.38,-823 548.38,-835 548.38,-835 548.38,-841 542.38,-847 536.38,-847"/>
<text text-anchor="middle" x="514.12" y="-827" font-family="Helvetica,Arial,sans-serif" font-size="10.00" fill="#212529">📄 base.nix</text>
</g>
<!-- N2&#45;&gt;N50 -->
<g id="edge44" class="edge">
<title>N2&#45;&gt;N50</title>
<path fill="none" stroke="#6c757d" d="M223.04,-3300.61C237.33,-3075.4 378,-858 378,-858 378,-858 431.47,-846.52 471.14,-838.01"/>
<polygon fill="#6c757d" stroke="#6c757d" points="471.57,-840.43 477.9,-836.56 470.54,-835.63 471.57,-840.43"/>
</g>
<!-- N51 -->
<g id="node52" class="node">
<title>N51</title>
<path fill="#f8f9fa" stroke="#ced4da" d="M539.38,-905C539.38,-905 488.88,-905 488.88,-905 482.88,-905 476.88,-899 476.88,-893 476.88,-893 476.88,-881 476.88,-881 476.88,-875 482.88,-869 488.88,-869 488.88,-869 539.38,-869 539.38,-869 545.38,-869 551.38,-875 551.38,-881 551.38,-881 551.38,-893 551.38,-893 551.38,-899 545.38,-905 539.38,-905"/>
<text text-anchor="middle" x="514.12" y="-885" font-family="Helvetica,Arial,sans-serif" font-size="10.00" fill="#212529">📄 server.nix</text>
</g>
<!-- N2&#45;&gt;N51 -->
<g id="edge45" class="edge">
<title>N2&#45;&gt;N51</title>
<path fill="none" stroke="#6c757d" d="M223.09,-3300.58C237.62,-3079.61 378,-945 378,-945 378,-945 429.45,-922.92 468.86,-906"/>
<polygon fill="#6c757d" stroke="#6c757d" points="469.7,-908.31 475.17,-903.29 467.77,-903.8 469.7,-908.31"/>
</g>
<!-- N53 -->
<g id="node54" class="node">
<title>N53</title>
<path fill="#f8f9fa" stroke="#ced4da" d="M540.5,-693C540.5,-693 487.75,-693 487.75,-693 481.75,-693 475.75,-687 475.75,-681 475.75,-681 475.75,-669 475.75,-669 475.75,-663 481.75,-657 487.75,-657 487.75,-657 540.5,-657 540.5,-657 546.5,-657 552.5,-663 552.5,-669 552.5,-669 552.5,-681 552.5,-681 552.5,-687 546.5,-693 540.5,-693"/>
<text text-anchor="middle" x="514.12" y="-673" font-family="Helvetica,Arial,sans-serif" font-size="10.00" fill="#212529">📄 default.nix</text>
</g>
<!-- N2&#45;&gt;N53 -->
<g id="edge46" class="edge">
<title>N2&#45;&gt;N53</title>
<path fill="none" stroke="#6c757d" d="M222.98,-3300.75C236.89,-3070.22 378,-733 378,-733 378,-733 428.54,-711.31 467.8,-694.45"/>
<polygon fill="#6c757d" stroke="#6c757d" points="468.63,-696.77 474.09,-691.75 466.7,-692.26 468.63,-696.77"/>
</g>
<!-- N54 -->
<g id="node55" class="node">
<title>N54</title>
<path fill="#f8f9fa" stroke="#ced4da" d="M540.5,-1001C540.5,-1001 487.75,-1001 487.75,-1001 481.75,-1001 475.75,-995 475.75,-989 475.75,-989 475.75,-977 475.75,-977 475.75,-971 481.75,-965 487.75,-965 487.75,-965 540.5,-965 540.5,-965 546.5,-965 552.5,-971 552.5,-977 552.5,-977 552.5,-989 552.5,-989 552.5,-995 546.5,-1001 540.5,-1001"/>
<text text-anchor="middle" x="514.12" y="-981" font-family="Helvetica,Arial,sans-serif" font-size="10.00" fill="#212529">📄 default.nix</text>
</g>
<!-- N2&#45;&gt;N54 -->
<g id="edge47" class="edge">
<title>N2&#45;&gt;N54</title>
<path fill="none" stroke="#6c757d" d="M223.13,-3300.66C237.91,-3085.08 378,-1041 378,-1041 378,-1041 428.54,-1019.31 467.8,-1002.45"/>
<polygon fill="#6c757d" stroke="#6c757d" points="468.63,-1004.77 474.09,-999.75 466.7,-1000.26 468.63,-1004.77"/>
</g>
<!-- N42 -->
<g id="node43" class="node">
<title>N42</title>
<path fill="#f8f9fa" stroke="#ced4da" d="M574.62,-347C574.62,-347 453.62,-347 453.62,-347 447.62,-347 441.62,-341 441.62,-335 441.62,-335 441.62,-323 441.62,-323 441.62,-317 447.62,-311 453.62,-311 453.62,-311 574.62,-311 574.62,-311 580.62,-311 586.62,-317 586.62,-323 586.62,-323 586.62,-335 586.62,-335 586.62,-341 580.62,-347 574.62,-347"/>
<text text-anchor="middle" x="514.12" y="-327" font-family="Helvetica,Arial,sans-serif" font-size="10.00" fill="#212529">📄 hardware&#45;configuration.nix</text>
</g>
<!-- N41&#45;&gt;N42 -->
<g id="edge48" class="edge">
<title>N41&#45;&gt;N42</title>
<path fill="none" stroke="#6c757d" d="M272.61,-329C316.76,-329 381.53,-329 432.73,-329"/>
<polygon fill="#6c757d" stroke="#6c757d" points="432.64,-331.45 439.64,-329 432.64,-326.55 432.64,-331.45"/>
</g>
<!-- N41&#45;&gt;N45 -->
<g id="edge49" class="edge">
<title>N41&#45;&gt;N45</title>
<path fill="none" stroke="#6c757d" d="M235.19,-347.25C272.94,-399 378,-543 378,-543 378,-543 428.12,-556.35 467.31,-566.79"/>
<polygon fill="#6c757d" stroke="#6c757d" points="466.63,-569.15 474.02,-568.58 467.89,-564.41 466.63,-569.15"/>
</g>
<!-- N46 -->
<g id="node47" class="node">
<title>N46</title>
<path fill="#f8f9fa" stroke="#ced4da" d="M540.5,-443C540.5,-443 487.75,-443 487.75,-443 481.75,-443 475.75,-437 475.75,-431 475.75,-431 475.75,-419 475.75,-419 475.75,-413 481.75,-407 487.75,-407 487.75,-407 540.5,-407 540.5,-407 546.5,-407 552.5,-413 552.5,-419 552.5,-419 552.5,-431 552.5,-431 552.5,-437 546.5,-443 540.5,-443"/>
<text text-anchor="middle" x="514.12" y="-423" font-family="Helvetica,Arial,sans-serif" font-size="10.00" fill="#212529">📄 default.nix</text>
</g>
<!-- N41&#45;&gt;N46 -->
<g id="edge50" class="edge">
<title>N41&#45;&gt;N46</title>
<path fill="none" stroke="#6c757d" d="M269.99,-347.49C315.86,-365.12 378,-389 378,-389 378,-389 428.12,-402.35 467.31,-412.79"/>
<polygon fill="#6c757d" stroke="#6c757d" points="466.63,-415.15 474.02,-414.58 467.89,-410.41 466.63,-415.15"/>
</g>
<!-- N47 -->
<g id="node48" class="node">
<title>N47</title>
<path fill="#f8f9fa" stroke="#ced4da" d="M546.12,-501C546.12,-501 482.12,-501 482.12,-501 476.12,-501 470.12,-495 470.12,-489 470.12,-489 470.12,-477 470.12,-477 470.12,-471 476.12,-465 482.12,-465 482.12,-465 546.12,-465 546.12,-465 552.12,-465 558.12,-471 558.12,-477 558.12,-477 558.12,-489 558.12,-489 558.12,-495 552.12,-501 546.12,-501"/>
<text text-anchor="middle" x="514.12" y="-481" font-family="Helvetica,Arial,sans-serif" font-size="10.00" fill="#212529">📄 minecraft.nix</text>
</g>
<!-- N41&#45;&gt;N47 -->
<g id="edge51" class="edge">
<title>N41&#45;&gt;N47</title>
<path fill="none" stroke="#6c757d" d="M244.91,-347.44C288.34,-382.22 378,-454 378,-454 378,-454 423.43,-463.75 461.61,-471.94"/>
<polygon fill="#6c757d" stroke="#6c757d" points="460.79,-474.27 468.15,-473.35 461.82,-469.48 460.79,-474.27"/>
</g>
<!-- N48 -->
<g id="node49" class="node">
<title>N48</title>
<path fill="#f8f9fa" stroke="#ced4da" d="M540.5,-155C540.5,-155 487.75,-155 487.75,-155 481.75,-155 475.75,-149 475.75,-143 475.75,-143 475.75,-131 475.75,-131 475.75,-125 481.75,-119 487.75,-119 487.75,-119 540.5,-119 540.5,-119 546.5,-119 552.5,-125 552.5,-131 552.5,-131 552.5,-143 552.5,-143 552.5,-149 546.5,-155 540.5,-155"/>
<text text-anchor="middle" x="514.12" y="-135" font-family="Helvetica,Arial,sans-serif" font-size="10.00" fill="#212529">📄 default.nix</text>
</g>
<!-- N41&#45;&gt;N48 -->
<g id="edge52" class="edge">
<title>N41&#45;&gt;N48</title>
<path fill="none" stroke="#6c757d" d="M243.26,-310.65C286.01,-273.95 378,-195 378,-195 378,-195 428.54,-173.31 467.8,-156.45"/>
<polygon fill="#6c757d" stroke="#6c757d" points="468.63,-158.77 474.09,-153.75 466.7,-154.26 468.63,-158.77"/>
</g>
<!-- N41&#45;&gt;N50 -->
<g id="edge53" class="edge">
<title>N41&#45;&gt;N50</title>
<path fill="none" stroke="#6c757d" d="M228,-347.46C256.86,-434.54 378,-800 378,-800 378,-800 431.47,-811.48 471.14,-819.99"/>
<polygon fill="#6c757d" stroke="#6c757d" points="470.54,-822.37 477.9,-821.44 471.57,-817.57 470.54,-822.37"/>
</g>
<!-- N52 -->
<g id="node53" class="node">
<title>N52</title>
<path fill="#f8f9fa" stroke="#ced4da" d="M539,-789C539,-789 489.25,-789 489.25,-789 483.25,-789 477.25,-783 477.25,-777 477.25,-777 477.25,-765 477.25,-765 477.25,-759 483.25,-753 489.25,-753 489.25,-753 539,-753 539,-753 545,-753 551,-759 551,-765 551,-765 551,-777 551,-777 551,-783 545,-789 539,-789"/>
<text text-anchor="middle" x="514.12" y="-769" font-family="Helvetica,Arial,sans-serif" font-size="10.00" fill="#212529">📄 sound.nix</text>
</g>
<!-- N41&#45;&gt;N52 -->
<g id="edge54" class="edge">
<title>N41&#45;&gt;N52</title>
<path fill="none" stroke="#6c757d" d="M228.99,-347.5C259.53,-426.93 378,-735 378,-735 378,-735 429.33,-748.67 468.71,-759.17"/>
<polygon fill="#6c757d" stroke="#6c757d" points="468.06,-761.53 475.45,-760.96 469.32,-756.79 468.06,-761.53"/>
</g>
<!-- N41&#45;&gt;N53 -->
<g id="edge55" class="edge">
<title>N41&#45;&gt;N53</title>
<path fill="none" stroke="#6c757d" d="M231.17,-347.46C264.78,-414.2 378,-639 378,-639 378,-639 428.12,-652.35 467.31,-662.79"/>
<polygon fill="#6c757d" stroke="#6c757d" points="466.63,-665.15 474.02,-664.58 467.89,-660.41 466.63,-665.15"/>
</g>
<!-- N56 -->
<g id="node57" class="node">
<title>N56</title>
<path fill="#f8f9fa" stroke="#ced4da" d="M540.5,-251C540.5,-251 487.75,-251 487.75,-251 481.75,-251 475.75,-245 475.75,-239 475.75,-239 475.75,-227 475.75,-227 475.75,-221 481.75,-215 487.75,-215 487.75,-215 540.5,-215 540.5,-215 546.5,-215 552.5,-221 552.5,-227 552.5,-227 552.5,-239 552.5,-239 552.5,-245 546.5,-251 540.5,-251"/>
<text text-anchor="middle" x="514.12" y="-231" font-family="Helvetica,Arial,sans-serif" font-size="10.00" fill="#212529">📄 default.nix</text>
</g>
<!-- N41&#45;&gt;N56 -->
<g id="edge56" class="edge">
<title>N41&#45;&gt;N56</title>
<path fill="none" stroke="#6c757d" d="M272.61,-312.28C327.64,-294.14 414.7,-265.44 467.6,-248.01"/>
<polygon fill="#6c757d" stroke="#6c757d" points="468.15,-250.4 474.03,-245.89 466.62,-245.75 468.15,-250.4"/>
</g>
<!-- N44 -->
<g id="node45" class="node">
<title>N44</title>
<path fill="#f8f9fa" stroke="#ced4da" d="M574.62,-59C574.62,-59 453.62,-59 453.62,-59 447.62,-59 441.62,-53 441.62,-47 441.62,-47 441.62,-35 441.62,-35 441.62,-29 447.62,-23 453.62,-23 453.62,-23 574.62,-23 574.62,-23 580.62,-23 586.62,-29 586.62,-35 586.62,-35 586.62,-47 586.62,-47 586.62,-53 580.62,-59 574.62,-59"/>
<text text-anchor="middle" x="514.12" y="-39" font-family="Helvetica,Arial,sans-serif" font-size="10.00" fill="#212529">📄 hardware&#45;configuration.nix</text>
</g>
<!-- N43&#45;&gt;N44 -->
<g id="edge57" class="edge">
<title>N43&#45;&gt;N44</title>
<path fill="none" stroke="#6c757d" d="M272.61,-41C316.76,-41 381.53,-41 432.73,-41"/>
<polygon fill="#6c757d" stroke="#6c757d" points="432.64,-43.45 439.64,-41 432.64,-38.55 432.64,-43.45"/>
</g>
<!-- N43&#45;&gt;N45 -->
<g id="edge58" class="edge">
<title>N43&#45;&gt;N45</title>
<path fill="none" stroke="#6c757d" d="M227.91,-59.38C246.88,-117.12 304,-291 304,-291 304,-291 378,-543 378,-543 378,-543 428.12,-556.35 467.31,-566.79"/>
<polygon fill="#6c757d" stroke="#6c757d" points="466.63,-569.15 474.02,-568.58 467.89,-564.41 466.63,-569.15"/>
</g>
<!-- N43&#45;&gt;N48 -->
<g id="edge59" class="edge">
<title>N43&#45;&gt;N48</title>
<path fill="none" stroke="#6c757d" d="M269.99,-59.49C315.86,-77.12 378,-101 378,-101 378,-101 428.12,-114.35 467.31,-124.79"/>
<polygon fill="#6c757d" stroke="#6c757d" points="466.63,-127.15 474.02,-126.58 467.89,-122.41 466.63,-127.15"/>
</g>
<!-- N43&#45;&gt;N50 -->
<g id="edge60" class="edge">
<title>N43&#45;&gt;N50</title>
<path fill="none" stroke="#6c757d" d="M227.91,-59.38C246.88,-117.12 304,-291 304,-291 304,-291 378,-800 378,-800 378,-800 431.47,-811.48 471.14,-819.99"/>
<polygon fill="#6c757d" stroke="#6c757d" points="470.54,-822.37 477.9,-821.44 471.57,-817.57 470.54,-822.37"/>
</g>
<!-- N43&#45;&gt;N52 -->
<g id="edge61" class="edge">
<title>N43&#45;&gt;N52</title>
<path fill="none" stroke="#6c757d" d="M227.91,-59.38C246.88,-117.12 304,-291 304,-291 304,-291 378,-735 378,-735 378,-735 429.33,-748.67 468.71,-759.17"/>
<polygon fill="#6c757d" stroke="#6c757d" points="468.06,-761.53 475.45,-760.96 469.32,-756.79 468.06,-761.53"/>
</g>
<!-- N43&#45;&gt;N53 -->
<g id="edge62" class="edge">
<title>N43&#45;&gt;N53</title>
<path fill="none" stroke="#6c757d" d="M227.91,-59.38C246.88,-117.12 304,-291 304,-291 304,-291 378,-639 378,-639 378,-639 428.12,-652.35 467.31,-662.79"/>
<polygon fill="#6c757d" stroke="#6c757d" points="466.63,-665.15 474.02,-664.58 467.89,-660.41 466.63,-665.15"/>
</g>
<!-- N43&#45;&gt;N56 -->
<g id="edge63" class="edge">
<title>N43&#45;&gt;N56</title>
<path fill="none" stroke="#6c757d" d="M240.09,-59.2C281.27,-100.35 378,-197 378,-197 378,-197 428.12,-210.35 467.31,-220.79"/>
<polygon fill="#6c757d" stroke="#6c757d" points="466.63,-223.15 474.02,-222.58 467.89,-218.41 466.63,-223.15"/>
</g>
<!-- N49 -->
<g id="node50" class="node">
<title>N49</title>
<path fill="#f8f9fa" stroke="#ced4da" d="M827.5,-847C827.5,-847 734.25,-847 734.25,-847 728.25,-847 722.25,-841 722.25,-835 722.25,-835 722.25,-823 722.25,-823 722.25,-817 728.25,-811 734.25,-811 734.25,-811 827.5,-811 827.5,-811 833.5,-811 839.5,-817 839.5,-823 839.5,-823 839.5,-835 839.5,-835 839.5,-841 833.5,-847 827.5,-847"/>
<text text-anchor="middle" x="780.88" y="-827" font-family="Helvetica,Arial,sans-serif" font-size="10.00" fill="#212529">📄 architecture&#45;dag.nix</text>
</g>
<!-- N50&#45;&gt;N49 -->
<g id="edge64" class="edge">
<title>N50&#45;&gt;N49</title>
<path fill="none" stroke="#6c757d" d="M548.66,-829C590,-829 661.22,-829 713.72,-829"/>
<polygon fill="#6c757d" stroke="#6c757d" points="713.46,-831.45 720.46,-829 713.46,-826.55 713.46,-831.45"/>
</g>
<!-- N55 -->
<g id="node56" class="node">
<title>N55</title>
<path fill="#f8f9fa" stroke="#ced4da" d="M804.62,-1001C804.62,-1001 757.12,-1001 757.12,-1001 751.12,-1001 745.12,-995 745.12,-989 745.12,-989 745.12,-977 745.12,-977 745.12,-971 751.12,-965 757.12,-965 757.12,-965 804.62,-965 804.62,-965 810.62,-965 816.62,-971 816.62,-977 816.62,-977 816.62,-989 816.62,-989 816.62,-995 810.62,-1001 804.62,-1001"/>
<text text-anchor="middle" x="780.88" y="-981" font-family="Helvetica,Arial,sans-serif" font-size="10.00" fill="#212529">📄 home.nix</text>
</g>
<!-- N54&#45;&gt;N55 -->
<g id="edge65" class="edge">
<title>N54&#45;&gt;N55</title>
<path fill="none" stroke="#6c757d" d="M552.78,-983C601.32,-983 685.57,-983 736.67,-983"/>
<polygon fill="#6c757d" stroke="#6c757d" points="736.37,-985.45 743.37,-983 736.37,-980.55 736.37,-985.45"/>
</g>
<!-- N57 -->
<g id="node58" class="node">
<title>N57</title>
<path fill="#f8f9fa" stroke="#ced4da" d="M804.62,-251C804.62,-251 757.12,-251 757.12,-251 751.12,-251 745.12,-245 745.12,-239 745.12,-239 745.12,-227 745.12,-227 745.12,-221 751.12,-215 757.12,-215 757.12,-215 804.62,-215 804.62,-215 810.62,-215 816.62,-221 816.62,-227 816.62,-227 816.62,-239 816.62,-239 816.62,-245 810.62,-251 804.62,-251"/>
<text text-anchor="middle" x="780.88" y="-231" font-family="Helvetica,Arial,sans-serif" font-size="10.00" fill="#212529">📄 home.nix</text>
</g>
<!-- N56&#45;&gt;N57 -->
<g id="edge66" class="edge">
<title>N56&#45;&gt;N57</title>
<path fill="none" stroke="#6c757d" d="M552.78,-233C601.32,-233 685.57,-233 736.67,-233"/>
<polygon fill="#6c757d" stroke="#6c757d" points="736.37,-235.45 743.37,-233 736.37,-230.55 736.37,-235.45"/>
</g>
</g>
</svg>
