<?xml version="1.0" encoding="UTF-8" standalone="no"?>
<!DOCTYPE svg PUBLIC "-//W3C//DTD SVG 1.1//EN"
 "http://www.w3.org/Graphics/SVG/1.1/DTD/svg11.dtd">
<!-- Generated by graphviz version 12.2.1 (0)
 -->
<!-- Title: NixOS Pages: 1 -->
<svg width="871pt" height="3776pt"
 viewBox="0.00 0.00 870.50 3776.00" xmlns="http://www.w3.org/2000/svg" xmlns:xlink="http://www.w3.org/1999/xlink">
<g id="graph0" class="graph" transform="scale(1 1) rotate(0) translate(4 3772)">
<title>NixOS</title>
<polygon fill="white" stroke="none" points="-4,4 -4,-3772 866.5,-3772 866.5,4 -4,4"/>
<g id="clust1" class="cluster">
<title>cluster_hosts_devcontainer</title>
<path fill="#e9ecef" stroke="#adb5bd" d="M150.75,-3672C150.75,-3672 292,-3672 292,-3672 298,-3672 304,-3678 304,-3684 304,-3684 304,-3748 304,-3748 304,-3754 298,-3760 292,-3760 292,-3760 150.75,-3760 150.75,-3760 144.75,-3760 138.75,-3754 138.75,-3748 138.75,-3748 138.75,-3684 138.75,-3684 138.75,-3678 144.75,-3672 150.75,-3672"/>
<text text-anchor="middle" x="221.38" y="-3744.6" font-family="Helvetica,sans-Serif" font-weight="bold" font-size="12.00" fill="#495057">📁 hosts/devcontainer</text>
</g>
<g id="clust2" class="cluster">
<title>cluster_hosts_homelab</title>
<path fill="#e9ecef" stroke="#adb5bd" d="M166.38,-3518C166.38,-3518 589.62,-3518 589.62,-3518 595.62,-3518 601.62,-3524 601.62,-3530 601.62,-3530 601.62,-3652 601.62,-3652 601.62,-3658 595.62,-3664 589.62,-3664 589.62,-3664 166.38,-3664 166.38,-3664 160.38,-3664 154.38,-3658 154.38,-3652 154.38,-3652 154.38,-3530 154.38,-3530 154.38,-3524 160.38,-3518 166.38,-3518"/>
<text text-anchor="middle" x="378" y="-3648.6" font-family="Helvetica,sans-Serif" font-weight="bold" font-size="12.00" fill="#495057">📁 hosts/homelab</text>
</g>
<g id="clust3" class="cluster">
<title>cluster_hosts_homelab_services_media</title>
<path fill="#e9ecef" stroke="#adb5bd" d="M406.12,-2726C406.12,-2726 623.12,-2726 623.12,-2726 629.12,-2726 635.12,-2732 635.12,-2738 635.12,-2738 635.12,-3498 635.12,-3498 635.12,-3504 629.12,-3510 623.12,-3510 623.12,-3510 406.12,-3510 406.12,-3510 400.12,-3510 394.12,-3504 394.12,-3498 394.12,-3498 394.12,-2738 394.12,-2738 394.12,-2732 400.12,-2726 406.12,-2726"/>
<text text-anchor="middle" x="514.62" y="-3494.6" font-family="Helvetica,sans-Serif" font-weight="bold" font-size="12.00" fill="#495057">📁 hosts/homelab/services/media</text>
</g>
<g id="clust4" class="cluster">
<title>cluster_hosts_homelab_services_monitoring</title>
<path fill="#e9ecef" stroke="#adb5bd" d="M390,-2166C390,-2166 639.25,-2166 639.25,-2166 645.25,-2166 651.25,-2172 651.25,-2178 651.25,-2178 651.25,-2706 651.25,-2706 651.25,-2712 645.25,-2718 639.25,-2718 639.25,-2718 390,-2718 390,-2718 384,-2718 378,-2712 378,-2706 378,-2706 378,-2178 378,-2178 378,-2172 384,-2166 390,-2166"/>
<text text-anchor="middle" x="514.62" y="-2702.6" font-family="Helvetica,sans-Serif" font-weight="bold" font-size="12.00" fill="#495057">📁 hosts/homelab/services/monitoring</text>
</g>
<g id="clust5" class="cluster">
<title>cluster_hosts_homelab_services_random</title>
<path fill="#e9ecef" stroke="#adb5bd" d="M400.88,-1432C400.88,-1432 628.38,-1432 628.38,-1432 634.38,-1432 640.38,-1438 640.38,-1444 640.38,-1444 640.38,-2146 640.38,-2146 640.38,-2152 634.38,-2158 628.38,-2158 628.38,-2158 400.88,-2158 400.88,-2158 394.88,-2158 388.88,-2152 388.88,-2146 388.88,-2146 388.88,-1444 388.88,-1444 388.88,-1438 394.88,-1432 400.88,-1432"/>
<text text-anchor="middle" x="514.62" y="-2142.6" font-family="Helvetica,sans-Serif" font-weight="bold" font-size="12.00" fill="#495057">📁 hosts/homelab/services/random</text>
</g>
<g id="clust6" class="cluster">
<title>cluster_hosts_homelab_services_security</title>
<path fill="#e9ecef" stroke="#adb5bd" d="M399.75,-1046C399.75,-1046 629.5,-1046 629.5,-1046 635.5,-1046 641.5,-1052 641.5,-1058 641.5,-1058 641.5,-1412 641.5,-1412 641.5,-1418 635.5,-1424 629.5,-1424 629.5,-1424 399.75,-1424 399.75,-1424 393.75,-1424 387.75,-1418 387.75,-1412 387.75,-1412 387.75,-1058 387.75,-1058 387.75,-1052 393.75,-1046 399.75,-1046"/>
<text text-anchor="middle" x="514.62" y="-1408.6" font-family="Helvetica,sans-Serif" font-weight="bold" font-size="12.00" fill="#495057">📁 hosts/homelab/services/security</text>
</g>
<g id="clust7" class="cluster">
<title>cluster_hosts_perso</title>
<path fill="#e9ecef" stroke="#adb5bd" d="M166.38,-296C166.38,-296 589.62,-296 589.62,-296 595.62,-296 601.62,-302 601.62,-308 601.62,-308 601.62,-372 601.62,-372 601.62,-378 595.62,-384 589.62,-384 589.62,-384 166.38,-384 166.38,-384 160.38,-384 154.38,-378 154.38,-372 154.38,-372 154.38,-308 154.38,-308 154.38,-302 160.38,-296 166.38,-296"/>
<text text-anchor="middle" x="378" y="-368.6" font-family="Helvetica,sans-Serif" font-weight="bold" font-size="12.00" fill="#495057">📁 hosts/perso</text>
</g>
<g id="clust8" class="cluster">
<title>cluster_hosts_portable</title>
<path fill="#e9ecef" stroke="#adb5bd" d="M166.38,-8C166.38,-8 589.62,-8 589.62,-8 595.62,-8 601.62,-14 601.62,-20 601.62,-20 601.62,-84 601.62,-84 601.62,-90 595.62,-96 589.62,-96 589.62,-96 166.38,-96 166.38,-96 160.38,-96 154.38,-90 154.38,-84 154.38,-84 154.38,-20 154.38,-20 154.38,-14 160.38,-8 166.38,-8"/>
<text text-anchor="middle" x="378" y="-80.6" font-family="Helvetica,sans-Serif" font-weight="bold" font-size="12.00" fill="#495057">📁 hosts/portable</text>
</g>
<g id="clust9" class="cluster">
<title>cluster_modules_dev</title>
<path fill="#e9ecef" stroke="#adb5bd" d="M466.12,-546C466.12,-546 563.12,-546 563.12,-546 569.12,-546 575.12,-552 575.12,-558 575.12,-558 575.12,-622 575.12,-622 575.12,-628 569.12,-634 563.12,-634 563.12,-634 466.12,-634 466.12,-634 460.12,-634 454.12,-628 454.12,-622 454.12,-622 454.12,-558 454.12,-558 454.12,-552 460.12,-546 466.12,-546"/>
<text text-anchor="middle" x="514.62" y="-618.6" font-family="Helvetica,sans-Serif" font-weight="bold" font-size="12.00" fill="#495057">📁 modules/dev</text>
</g>
<g id="clust10" class="cluster">
<title>cluster_modules_gaming</title>
<path fill="#e9ecef" stroke="#adb5bd" d="M453.38,-392C453.38,-392 575.88,-392 575.88,-392 581.88,-392 587.88,-398 587.88,-404 587.88,-404 587.88,-526 587.88,-526 587.88,-532 581.88,-538 575.88,-538 575.88,-538 453.38,-538 453.38,-538 447.38,-538 441.38,-532 441.38,-526 441.38,-526 441.38,-404 441.38,-404 441.38,-398 447.38,-392 453.38,-392"/>
<text text-anchor="middle" x="514.62" y="-522.6" font-family="Helvetica,sans-Serif" font-weight="bold" font-size="12.00" fill="#495057">📁 modules/gaming</text>
</g>
<g id="clust11" class="cluster">
<title>cluster_modules_hyprland</title>
<path fill="#e9ecef" stroke="#adb5bd" d="M448.88,-104C448.88,-104 580.38,-104 580.38,-104 586.38,-104 592.38,-110 592.38,-116 592.38,-116 592.38,-180 592.38,-180 592.38,-186 586.38,-192 580.38,-192 580.38,-192 448.88,-192 448.88,-192 442.88,-192 436.88,-186 436.88,-180 436.88,-180 436.88,-116 436.88,-116 436.88,-110 442.88,-104 448.88,-104"/>
<text text-anchor="middle" x="514.62" y="-176.6" font-family="Helvetica,sans-Serif" font-weight="bold" font-size="12.00" fill="#495057">📁 modules/hyprland</text>
</g>
<g id="clust12" class="cluster">
<title>cluster_modules_nixos</title>
<path fill="#e9ecef" stroke="#adb5bd" d="M473.88,-738C473.88,-738 842.5,-738 842.5,-738 848.5,-738 854.5,-744 854.5,-750 854.5,-750 854.5,-930 854.5,-930 854.5,-936 848.5,-942 842.5,-942 842.5,-942 473.88,-942 473.88,-942 467.88,-942 461.88,-936 461.88,-930 461.88,-930 461.88,-750 461.88,-750 461.88,-744 467.88,-738 473.88,-738"/>
<text text-anchor="middle" x="658.19" y="-926.6" font-family="Helvetica,sans-Serif" font-weight="bold" font-size="12.00" fill="#495057">📁 modules/nixos</text>
</g>
<g id="clust13" class="cluster">
<title>cluster_modules_terminal</title>
<path fill="#e9ecef" stroke="#adb5bd" d="M449.62,-642C449.62,-642 579.62,-642 579.62,-642 585.62,-642 591.62,-648 591.62,-654 591.62,-654 591.62,-718 591.62,-718 591.62,-724 585.62,-730 579.62,-730 579.62,-730 449.62,-730 449.62,-730 443.62,-730 437.62,-724 437.62,-718 437.62,-718 437.62,-654 437.62,-654 437.62,-648 443.62,-642 449.62,-642"/>
<text text-anchor="middle" x="514.62" y="-714.6" font-family="Helvetica,sans-Serif" font-weight="bold" font-size="12.00" fill="#495057">📁 modules/terminal</text>
</g>
<g id="clust14" class="cluster">
<title>cluster_users_arthur_homelab</title>
<path fill="#e9ecef" stroke="#adb5bd" d="M472.75,-950C472.75,-950 819.62,-950 819.62,-950 825.62,-950 831.62,-956 831.62,-962 831.62,-962 831.62,-1026 831.62,-1026 831.62,-1032 825.62,-1038 819.62,-1038 819.62,-1038 472.75,-1038 472.75,-1038 466.75,-1038 460.75,-1032 460.75,-1026 460.75,-1026 460.75,-962 460.75,-962 460.75,-956 466.75,-950 472.75,-950"/>
<text text-anchor="middle" x="646.19" y="-1022.6" font-family="Helvetica,sans-Serif" font-weight="bold" font-size="12.00" fill="#495057">📁 users/arthur&#45;homelab</text>
</g>
<g id="clust15" class="cluster">
<title>cluster_users_arthur_perso</title>
<path fill="#e9ecef" stroke="#adb5bd" d="M472.75,-200C472.75,-200 819.62,-200 819.62,-200 825.62,-200 831.62,-206 831.62,-212 831.62,-212 831.62,-276 831.62,-276 831.62,-282 825.62,-288 819.62,-288 819.62,-288 472.75,-288 472.75,-288 466.75,-288 460.75,-282 460.75,-276 460.75,-276 460.75,-212 460.75,-212 460.75,-206 466.75,-200 472.75,-200"/>
<text text-anchor="middle" x="646.19" y="-272.6" font-family="Helvetica,sans-Serif" font-weight="bold" font-size="12.00" fill="#495057">📁 users/arthur&#45;perso</text>
</g>
<!-- N0 -->
<g id="node1" class="node">
<title>N0</title>
<path fill="#f8f9fa" stroke="#ced4da" d="M55.75,-3569C55.75,-3569 12,-3569 12,-3569 6,-3569 0,-3563 0,-3557 0,-3557 0,-3545 0,-3545 0,-3539 6,-3533 12,-3533 12,-3533 55.75,-3533 55.75,-3533 61.75,-3533 67.75,-3539 67.75,-3545 67.75,-3545 67.75,-3557 67.75,-3557 67.75,-3563 61.75,-3569 55.75,-3569"/>
<text text-anchor="middle" x="33.88" y="-3549" font-family="Helvetica,Arial,sans-serif" font-size="10.00" fill="#212529">📄 flake.nix</text>
</g>
<!-- N1 -->
<g id="node2" class="node">
<title>N1</title>
<path fill="#f8f9fa" stroke="#ced4da" d="M247.25,-3723C247.25,-3723 194.5,-3723 194.5,-3723 188.5,-3723 182.5,-3717 182.5,-3711 182.5,-3711 182.5,-3699 182.5,-3699 182.5,-3693 188.5,-3687 194.5,-3687 194.5,-3687 247.25,-3687 247.25,-3687 253.25,-3687 259.25,-3693 259.25,-3699 259.25,-3699 259.25,-3711 259.25,-3711 259.25,-3717 253.25,-3723 247.25,-3723"/>
<text text-anchor="middle" x="220.88" y="-3703" font-family="Helvetica,Arial,sans-serif" font-size="10.00" fill="#212529">📄 default.nix</text>
</g>
<!-- N0&#45;&gt;N1 -->
<g id="edge1" class="edge">
<title>N0&#45;&gt;N1</title>
<path fill="none" stroke="#6c757d" d="M51.11,-3569.44C80.32,-3602.62 138.75,-3669 138.75,-3669 138.75,-3669 156.07,-3676.69 174.71,-3684.96"/>
<polygon fill="#6c757d" stroke="#6c757d" points="173.39,-3687.05 180.78,-3687.65 175.37,-3682.57 173.39,-3687.05"/>
</g>
<!-- N2 -->
<g id="node3" class="node">
<title>N2</title>
<path fill="#f8f9fa" stroke="#ced4da" d="M260.38,-3569C260.38,-3569 181.38,-3569 181.38,-3569 175.38,-3569 169.38,-3563 169.38,-3557 169.38,-3557 169.38,-3545 169.38,-3545 169.38,-3539 175.38,-3533 181.38,-3533 181.38,-3533 260.38,-3533 260.38,-3533 266.38,-3533 272.38,-3539 272.38,-3545 272.38,-3545 272.38,-3557 272.38,-3557 272.38,-3563 266.38,-3569 260.38,-3569"/>
<text text-anchor="middle" x="220.88" y="-3549" font-family="Helvetica,Arial,sans-serif" font-size="10.00" fill="#212529">📄 configuration.nix</text>
</g>
<!-- N0&#45;&gt;N2 -->
<g id="edge2" class="edge">
<title>N0&#45;&gt;N2</title>
<path fill="none" stroke="#6c757d" d="M67.95,-3551C93.6,-3551 129.82,-3551 160.46,-3551"/>
<polygon fill="#6c757d" stroke="#6c757d" points="160.43,-3553.45 167.43,-3551 160.43,-3548.55 160.43,-3553.45"/>
</g>
<!-- N3 -->
<g id="node4" class="node">
<title>N3</title>
<path fill="#f8f9fa" stroke="#ced4da" d="M254,-3627C254,-3627 187.75,-3627 187.75,-3627 181.75,-3627 175.75,-3621 175.75,-3615 175.75,-3615 175.75,-3603 175.75,-3603 175.75,-3597 181.75,-3591 187.75,-3591 187.75,-3591 254,-3591 254,-3591 260,-3591 266,-3597 266,-3603 266,-3603 266,-3615 266,-3615 266,-3621 260,-3627 254,-3627"/>
<text text-anchor="middle" x="220.88" y="-3607" font-family="Helvetica,Arial,sans-serif" font-size="10.00" fill="#212529">📄 constants.nix</text>
</g>
<!-- N0&#45;&gt;N3 -->
<g id="edge3" class="edge">
<title>N0&#45;&gt;N3</title>
<path fill="none" stroke="#6c757d" d="M67.95,-3561.37C95.54,-3570.02 135.37,-3582.51 167.33,-3592.53"/>
<polygon fill="#6c757d" stroke="#6c757d" points="166.41,-3594.81 173.82,-3594.56 167.88,-3590.13 166.41,-3594.81"/>
</g>
<!-- N45 -->
<g id="node46" class="node">
<title>N45</title>
<path fill="#f8f9fa" stroke="#ced4da" d="M260.38,-347C260.38,-347 181.38,-347 181.38,-347 175.38,-347 169.38,-341 169.38,-335 169.38,-335 169.38,-323 169.38,-323 169.38,-317 175.38,-311 181.38,-311 181.38,-311 260.38,-311 260.38,-311 266.38,-311 272.38,-317 272.38,-323 272.38,-323 272.38,-335 272.38,-335 272.38,-341 266.38,-347 260.38,-347"/>
<text text-anchor="middle" x="220.88" y="-327" font-family="Helvetica,Arial,sans-serif" font-size="10.00" fill="#212529">📄 configuration.nix</text>
</g>
<!-- N0&#45;&gt;N45 -->
<g id="edge4" class="edge">
<title>N0&#45;&gt;N45</title>
<path fill="none" stroke="#6c757d" d="M35.92,-3532.88C49.94,-3288.58 201.37,-651.34 218.33,-355.87"/>
<polygon fill="#6c757d" stroke="#6c757d" points="220.77,-356.09 218.73,-348.96 215.88,-355.81 220.77,-356.09"/>
</g>
<!-- N47 -->
<g id="node48" class="node">
<title>N47</title>
<path fill="#f8f9fa" stroke="#ced4da" d="M260.38,-59C260.38,-59 181.38,-59 181.38,-59 175.38,-59 169.38,-53 169.38,-47 169.38,-47 169.38,-35 169.38,-35 169.38,-29 175.38,-23 181.38,-23 181.38,-23 260.38,-23 260.38,-23 266.38,-23 272.38,-29 272.38,-35 272.38,-35 272.38,-47 272.38,-47 272.38,-53 266.38,-59 260.38,-59"/>
<text text-anchor="middle" x="220.88" y="-39" font-family="Helvetica,Arial,sans-serif" font-size="10.00" fill="#212529">📄 configuration.nix</text>
</g>
<!-- N0&#45;&gt;N47 -->
<g id="edge5" class="edge">
<title>N0&#45;&gt;N47</title>
<path fill="none" stroke="#6c757d" d="M35.46,-3532.67C43.8,-3270.77 138.75,-291 138.75,-291 138.75,-291 190.43,-131.74 211.29,-67.45"/>
<polygon fill="#6c757d" stroke="#6c757d" points="213.61,-68.24 213.44,-60.82 208.95,-66.72 213.61,-68.24"/>
</g>
<!-- N4 -->
<g id="node5" class="node">
<title>N4</title>
<path fill="#f8f9fa" stroke="#ced4da" d="M574.62,-3569C574.62,-3569 453.62,-3569 453.62,-3569 447.62,-3569 441.62,-3563 441.62,-3557 441.62,-3557 441.62,-3545 441.62,-3545 441.62,-3539 447.62,-3533 453.62,-3533 453.62,-3533 574.62,-3533 574.62,-3533 580.62,-3533 586.62,-3539 586.62,-3545 586.62,-3545 586.62,-3557 586.62,-3557 586.62,-3563 580.62,-3569 574.62,-3569"/>
<text text-anchor="middle" x="514.12" y="-3549" font-family="Helvetica,Arial,sans-serif" font-size="10.00" fill="#212529">📄 hardware&#45;configuration.nix</text>
</g>
<!-- N2&#45;&gt;N4 -->
<g id="edge6" class="edge">
<title>N2&#45;&gt;N4</title>
<path fill="none" stroke="#6c757d" d="M272.61,-3551C316.76,-3551 381.53,-3551 432.73,-3551"/>
<polygon fill="#6c757d" stroke="#6c757d" points="432.64,-3553.45 439.64,-3551 432.64,-3548.55 432.64,-3553.45"/>
</g>
<!-- N5 -->
<g id="node6" class="node">
<title>N5</title>
<path fill="#f8f9fa" stroke="#ced4da" d="M539.38,-3415C539.38,-3415 488.88,-3415 488.88,-3415 482.88,-3415 476.88,-3409 476.88,-3403 476.88,-3403 476.88,-3391 476.88,-3391 476.88,-3385 482.88,-3379 488.88,-3379 488.88,-3379 539.38,-3379 539.38,-3379 545.38,-3379 551.38,-3385 551.38,-3391 551.38,-3391 551.38,-3403 551.38,-3403 551.38,-3409 545.38,-3415 539.38,-3415"/>
<text text-anchor="middle" x="514.12" y="-3395" font-family="Helvetica,Arial,sans-serif" font-size="10.00" fill="#212529">📄 byparr.nix</text>
</g>
<!-- N2&#45;&gt;N5 -->
<g id="edge7" class="edge">
<title>N2&#45;&gt;N5</title>
<path fill="none" stroke="#6c757d" d="M244.91,-3532.56C288.34,-3497.78 378,-3426 378,-3426 378,-3426 429.02,-3415.05 468.36,-3406.61"/>
<polygon fill="#6c757d" stroke="#6c757d" points="468.75,-3409.03 475.08,-3405.17 467.72,-3404.24 468.75,-3409.03"/>
</g>
<!-- N6 -->
<g id="node7" class="node">
<title>N6</title>
<path fill="#f8f9fa" stroke="#ced4da" d="M569.75,-3473C569.75,-3473 458.5,-3473 458.5,-3473 452.5,-3473 446.5,-3467 446.5,-3461 446.5,-3461 446.5,-3449 446.5,-3449 446.5,-3443 452.5,-3437 458.5,-3437 458.5,-3437 569.75,-3437 569.75,-3437 575.75,-3437 581.75,-3443 581.75,-3449 581.75,-3449 581.75,-3461 581.75,-3461 581.75,-3467 575.75,-3473 569.75,-3473"/>
<text text-anchor="middle" x="514.12" y="-3453" font-family="Helvetica,Arial,sans-serif" font-size="10.00" fill="#212529">📄 filebrowser&#45;quantum.nix</text>
</g>
<!-- N2&#45;&gt;N6 -->
<g id="edge8" class="edge">
<title>N2&#45;&gt;N6</title>
<path fill="none" stroke="#6c757d" d="M272.61,-3534.28C321.59,-3518.13 395.95,-3493.62 449.02,-3476.13"/>
<polygon fill="#6c757d" stroke="#6c757d" points="449.69,-3478.49 455.57,-3473.97 448.16,-3473.83 449.69,-3478.49"/>
</g>
<!-- N7 -->
<g id="node8" class="node">
<title>N7</title>
<path fill="#f8f9fa" stroke="#ced4da" d="M541.62,-2777C541.62,-2777 486.62,-2777 486.62,-2777 480.62,-2777 474.62,-2771 474.62,-2765 474.62,-2765 474.62,-2753 474.62,-2753 474.62,-2747 480.62,-2741 486.62,-2741 486.62,-2741 541.62,-2741 541.62,-2741 547.62,-2741 553.62,-2747 553.62,-2753 553.62,-2753 553.62,-2765 553.62,-2765 553.62,-2771 547.62,-2777 541.62,-2777"/>
<text text-anchor="middle" x="514.12" y="-2757" font-family="Helvetica,Arial,sans-serif" font-size="10.00" fill="#212529">📄 immich.nix</text>
</g>
<!-- N2&#45;&gt;N7 -->
<g id="edge9" class="edge">
<title>N2&#45;&gt;N7</title>
<path fill="none" stroke="#6c757d" d="M225.66,-3532.52C249.5,-3415.99 378,-2788 378,-2788 378,-2788 427.22,-2777.44 466.25,-2769.06"/>
<polygon fill="#6c757d" stroke="#6c757d" points="466.59,-2771.49 472.92,-2767.63 465.57,-2766.7 466.59,-2771.49"/>
</g>
<!-- N8 -->
<g id="node9" class="node">
<title>N8</title>
<path fill="#f8f9fa" stroke="#ced4da" d="M539.75,-2835C539.75,-2835 488.5,-2835 488.5,-2835 482.5,-2835 476.5,-2829 476.5,-2823 476.5,-2823 476.5,-2811 476.5,-2811 476.5,-2805 482.5,-2799 488.5,-2799 488.5,-2799 539.75,-2799 539.75,-2799 545.75,-2799 551.75,-2805 551.75,-2811 551.75,-2811 551.75,-2823 551.75,-2823 551.75,-2829 545.75,-2835 539.75,-2835"/>
<text text-anchor="middle" x="514.12" y="-2815" font-family="Helvetica,Arial,sans-serif" font-size="10.00" fill="#212529">📄 jellyfin.nix</text>
</g>
<!-- N2&#45;&gt;N8 -->
<g id="edge10" class="edge">
<title>N2&#45;&gt;N8</title>
<path fill="none" stroke="#6c757d" d="M225.97,-3532.51C250.6,-3421.27 378,-2846 378,-2846 378,-2846 428.72,-2835.11 468.01,-2826.68"/>
<polygon fill="#6c757d" stroke="#6c757d" points="468.39,-2829.11 474.72,-2825.24 467.36,-2824.32 468.39,-2829.11"/>
</g>
<!-- N9 -->
<g id="node10" class="node">
<title>N9</title>
<path fill="#f8f9fa" stroke="#ced4da" d="M540.12,-2893C540.12,-2893 488.12,-2893 488.12,-2893 482.12,-2893 476.12,-2887 476.12,-2881 476.12,-2881 476.12,-2869 476.12,-2869 476.12,-2863 482.12,-2857 488.12,-2857 488.12,-2857 540.12,-2857 540.12,-2857 546.12,-2857 552.12,-2863 552.12,-2869 552.12,-2869 552.12,-2881 552.12,-2881 552.12,-2887 546.12,-2893 540.12,-2893"/>
<text text-anchor="middle" x="514.12" y="-2873" font-family="Helvetica,Arial,sans-serif" font-size="10.00" fill="#212529">📄 komga.nix</text>
</g>
<!-- N2&#45;&gt;N9 -->
<g id="edge11" class="edge">
<title>N2&#45;&gt;N9</title>
<path fill="none" stroke="#6c757d" d="M226.3,-3532.68C251.7,-3427.39 378,-2904 378,-2904 378,-2904 428.42,-2893.18 467.66,-2884.76"/>
<polygon fill="#6c757d" stroke="#6c757d" points="468.03,-2887.18 474.36,-2883.32 467.01,-2882.39 468.03,-2887.18"/>
</g>
<!-- N10 -->
<g id="node11" class="node">
<title>N10</title>
<path fill="#f8f9fa" stroke="#ced4da" d="M546.12,-2951C546.12,-2951 482.12,-2951 482.12,-2951 476.12,-2951 470.12,-2945 470.12,-2939 470.12,-2939 470.12,-2927 470.12,-2927 470.12,-2921 476.12,-2915 482.12,-2915 482.12,-2915 546.12,-2915 546.12,-2915 552.12,-2915 558.12,-2921 558.12,-2927 558.12,-2927 558.12,-2939 558.12,-2939 558.12,-2945 552.12,-2951 546.12,-2951"/>
<text text-anchor="middle" x="514.12" y="-2931" font-family="Helvetica,Arial,sans-serif" font-size="10.00" fill="#212529">📄 onlyoffice.nix</text>
</g>
<!-- N2&#45;&gt;N10 -->
<g id="edge12" class="edge">
<title>N2&#45;&gt;N10</title>
<path fill="none" stroke="#6c757d" d="M226.72,-3532.73C253.07,-3433.31 378,-2962 378,-2962 378,-2962 423.43,-2952.25 461.61,-2944.06"/>
<polygon fill="#6c757d" stroke="#6c757d" points="461.82,-2946.52 468.15,-2942.65 460.79,-2941.73 461.82,-2946.52"/>
</g>
<!-- N11 -->
<g id="node12" class="node">
<title>N11</title>
<path fill="#f8f9fa" stroke="#ced4da" d="M543.12,-3009C543.12,-3009 485.12,-3009 485.12,-3009 479.12,-3009 473.12,-3003 473.12,-2997 473.12,-2997 473.12,-2985 473.12,-2985 473.12,-2979 479.12,-2973 485.12,-2973 485.12,-2973 543.12,-2973 543.12,-2973 549.12,-2973 555.12,-2979 555.12,-2985 555.12,-2985 555.12,-2997 555.12,-2997 555.12,-3003 549.12,-3009 543.12,-3009"/>
<text text-anchor="middle" x="514.12" y="-2989" font-family="Helvetica,Arial,sans-serif" font-size="10.00" fill="#212529">📄 prowlarr.nix</text>
</g>
<!-- N2&#45;&gt;N11 -->
<g id="edge13" class="edge">
<title>N2&#45;&gt;N11</title>
<path fill="none" stroke="#6c757d" d="M227.25,-3532.72C254.7,-3439.35 378,-3020 378,-3020 378,-3020 426.04,-3009.69 464.83,-3001.36"/>
<polygon fill="#6c757d" stroke="#6c757d" points="465.14,-3003.8 471.47,-2999.94 464.11,-2999.01 465.14,-3003.8"/>
</g>
<!-- N12 -->
<g id="node13" class="node">
<title>N12</title>
<path fill="#f8f9fa" stroke="#ced4da" d="M547.62,-3067C547.62,-3067 480.62,-3067 480.62,-3067 474.62,-3067 468.62,-3061 468.62,-3055 468.62,-3055 468.62,-3043 468.62,-3043 468.62,-3037 474.62,-3031 480.62,-3031 480.62,-3031 547.62,-3031 547.62,-3031 553.62,-3031 559.62,-3037 559.62,-3043 559.62,-3043 559.62,-3055 559.62,-3055 559.62,-3061 553.62,-3067 547.62,-3067"/>
<text text-anchor="middle" x="514.12" y="-3047" font-family="Helvetica,Arial,sans-serif" font-size="10.00" fill="#212529">📄 qbittorrent.nix</text>
</g>
<!-- N2&#45;&gt;N12 -->
<g id="edge14" class="edge">
<title>N2&#45;&gt;N12</title>
<path fill="none" stroke="#6c757d" d="M227.9,-3532.75C256.59,-3445.82 378,-3078 378,-3078 378,-3078 422.3,-3068.49 460.17,-3060.37"/>
<polygon fill="#6c757d" stroke="#6c757d" points="460.32,-3062.84 466.65,-3058.97 459.29,-3058.05 460.32,-3062.84"/>
</g>
<!-- N13 -->
<g id="node14" class="node">
<title>N13</title>
<path fill="#f8f9fa" stroke="#ced4da" d="M544.25,-3125C544.25,-3125 484,-3125 484,-3125 478,-3125 472,-3119 472,-3113 472,-3113 472,-3101 472,-3101 472,-3095 478,-3089 484,-3089 484,-3089 544.25,-3089 544.25,-3089 550.25,-3089 556.25,-3095 556.25,-3101 556.25,-3101 556.25,-3113 556.25,-3113 556.25,-3119 550.25,-3125 544.25,-3125"/>
<text text-anchor="middle" x="514.12" y="-3105" font-family="Helvetica,Arial,sans-serif" font-size="10.00" fill="#212529">📄 recyclarr.nix</text>
</g>
<!-- N2&#45;&gt;N13 -->
<g id="edge15" class="edge">
<title>N2&#45;&gt;N13</title>
<path fill="none" stroke="#6c757d" d="M228.78,-3532.63C259,-3452.32 378,-3136 378,-3136 378,-3136 425.16,-3125.88 463.76,-3117.59"/>
<polygon fill="#6c757d" stroke="#6c757d" points="464.04,-3120.04 470.37,-3116.18 463.01,-3115.25 464.04,-3120.04"/>
</g>
<!-- N14 -->
<g id="node15" class="node">
<title>N14</title>
<path fill="#f8f9fa" stroke="#ced4da" d="M535.25,-3183C535.25,-3183 493,-3183 493,-3183 487,-3183 481,-3177 481,-3171 481,-3171 481,-3159 481,-3159 481,-3153 487,-3147 493,-3147 493,-3147 535.25,-3147 535.25,-3147 541.25,-3147 547.25,-3153 547.25,-3159 547.25,-3159 547.25,-3171 547.25,-3171 547.25,-3177 541.25,-3183 535.25,-3183"/>
<text text-anchor="middle" x="514.12" y="-3163" font-family="Helvetica,Arial,sans-serif" font-size="10.00" fill="#212529">📄 seer.nix</text>
</g>
<!-- N2&#45;&gt;N14 -->
<g id="edge16" class="edge">
<title>N2&#45;&gt;N14</title>
<path fill="none" stroke="#6c757d" d="M229.83,-3532.81C261.65,-3460.06 378,-3194 378,-3194 378,-3194 432.72,-3182.26 472.52,-3173.71"/>
<polygon fill="#6c757d" stroke="#6c757d" points="472.95,-3176.13 479.28,-3172.26 471.92,-3171.34 472.95,-3176.13"/>
</g>
<!-- N15 -->
<g id="node16" class="node">
<title>N15</title>
<path fill="#f8f9fa" stroke="#ced4da" d="M539.38,-3241C539.38,-3241 488.88,-3241 488.88,-3241 482.88,-3241 476.88,-3235 476.88,-3229 476.88,-3229 476.88,-3217 476.88,-3217 476.88,-3211 482.88,-3205 488.88,-3205 488.88,-3205 539.38,-3205 539.38,-3205 545.38,-3205 551.38,-3211 551.38,-3217 551.38,-3217 551.38,-3229 551.38,-3229 551.38,-3235 545.38,-3241 539.38,-3241"/>
<text text-anchor="middle" x="514.12" y="-3221" font-family="Helvetica,Arial,sans-serif" font-size="10.00" fill="#212529">📄 sonarr.nix</text>
</g>
<!-- N2&#45;&gt;N15 -->
<g id="edge17" class="edge">
<title>N2&#45;&gt;N15</title>
<path fill="none" stroke="#6c757d" d="M231.41,-3532.75C265.3,-3467.83 378,-3252 378,-3252 378,-3252 429.02,-3241.05 468.36,-3232.61"/>
<polygon fill="#6c757d" stroke="#6c757d" points="468.75,-3235.03 475.08,-3231.17 467.72,-3230.24 468.75,-3235.03"/>
</g>
<!-- N16 -->
<g id="node17" class="node">
<title>N16</title>
<path fill="#f8f9fa" stroke="#ced4da" d="M547.25,-3299C547.25,-3299 481,-3299 481,-3299 475,-3299 469,-3293 469,-3287 469,-3287 469,-3275 469,-3275 469,-3269 475,-3263 481,-3263 481,-3263 547.25,-3263 547.25,-3263 553.25,-3263 559.25,-3269 559.25,-3275 559.25,-3275 559.25,-3287 559.25,-3287 559.25,-3293 553.25,-3299 547.25,-3299"/>
<text text-anchor="middle" x="514.12" y="-3279" font-family="Helvetica,Arial,sans-serif" font-size="10.00" fill="#212529">📄 suwayomi.nix</text>
</g>
<!-- N2&#45;&gt;N16 -->
<g id="edge18" class="edge">
<title>N2&#45;&gt;N16</title>
<path fill="none" stroke="#6c757d" d="M233.61,-3532.89C269.92,-3476.84 378,-3310 378,-3310 378,-3310 422.58,-3300.43 460.53,-3292.29"/>
<polygon fill="#6c757d" stroke="#6c757d" points="460.7,-3294.76 467.03,-3290.89 459.67,-3289.97 460.7,-3294.76"/>
</g>
<!-- N17 -->
<g id="node18" class="node">
<title>N17</title>
<path fill="#f8f9fa" stroke="#ced4da" d="M539.38,-3357C539.38,-3357 488.88,-3357 488.88,-3357 482.88,-3357 476.88,-3351 476.88,-3345 476.88,-3345 476.88,-3333 476.88,-3333 476.88,-3327 482.88,-3321 488.88,-3321 488.88,-3321 539.38,-3321 539.38,-3321 545.38,-3321 551.38,-3327 551.38,-3333 551.38,-3333 551.38,-3345 551.38,-3345 551.38,-3351 545.38,-3357 539.38,-3357"/>
<text text-anchor="middle" x="514.12" y="-3337" font-family="Helvetica,Arial,sans-serif" font-size="10.00" fill="#212529">📄 tranga.nix</text>
</g>
<!-- N2&#45;&gt;N17 -->
<g id="edge19" class="edge">
<title>N2&#45;&gt;N17</title>
<path fill="none" stroke="#6c757d" d="M237.42,-3532.78C276.91,-3486.5 378,-3368 378,-3368 378,-3368 429.02,-3357.05 468.36,-3348.61"/>
<polygon fill="#6c757d" stroke="#6c757d" points="468.75,-3351.03 475.08,-3347.17 467.72,-3346.24 468.75,-3351.03"/>
</g>
<!-- N18 -->
<g id="node19" class="node">
<title>N18</title>
<path fill="#f8f9fa" stroke="#ced4da" d="M535.62,-2333C535.62,-2333 492.62,-2333 492.62,-2333 486.62,-2333 480.62,-2327 480.62,-2321 480.62,-2321 480.62,-2309 480.62,-2309 480.62,-2303 486.62,-2297 492.62,-2297 492.62,-2297 535.62,-2297 535.62,-2297 541.62,-2297 547.62,-2303 547.62,-2309 547.62,-2309 547.62,-2321 547.62,-2321 547.62,-2327 541.62,-2333 535.62,-2333"/>
<text text-anchor="middle" x="514.12" y="-2313" font-family="Helvetica,Arial,sans-serif" font-size="10.00" fill="#212529">📄 alloy.nix</text>
</g>
<!-- N2&#45;&gt;N18 -->
<g id="edge20" class="edge">
<title>N2&#45;&gt;N18</title>
<path fill="none" stroke="#6c757d" d="M224.26,-3532.52C243.91,-3380.67 378,-2344 378,-2344 378,-2344 432.41,-2332.32 472.18,-2323.79"/>
<polygon fill="#6c757d" stroke="#6c757d" points="472.61,-2326.2 478.94,-2322.34 471.58,-2321.41 472.61,-2326.2"/>
</g>
<!-- N19 -->
<g id="node20" class="node">
<title>N19</title>
<path fill="#f8f9fa" stroke="#ced4da" d="M547.25,-2391C547.25,-2391 481,-2391 481,-2391 475,-2391 469,-2385 469,-2379 469,-2379 469,-2367 469,-2367 469,-2361 475,-2355 481,-2355 481,-2355 547.25,-2355 547.25,-2355 553.25,-2355 559.25,-2361 559.25,-2367 559.25,-2367 559.25,-2379 559.25,-2379 559.25,-2385 553.25,-2391 547.25,-2391"/>
<text text-anchor="middle" x="514.12" y="-2371" font-family="Helvetica,Arial,sans-serif" font-size="10.00" fill="#212529">📄 borgmatic.nix</text>
</g>
<!-- N2&#45;&gt;N19 -->
<g id="edge21" class="edge">
<title>N2&#45;&gt;N19</title>
<path fill="none" stroke="#6c757d" d="M224.33,-3532.95C244.19,-3386.77 378,-2402 378,-2402 378,-2402 422.58,-2392.43 460.53,-2384.29"/>
<polygon fill="#6c757d" stroke="#6c757d" points="460.7,-2386.76 467.03,-2382.89 459.67,-2381.97 460.7,-2386.76"/>
</g>
<!-- N20 -->
<g id="node21" class="node">
<title>N20</title>
<path fill="#f8f9fa" stroke="#ced4da" d="M542,-2449C542,-2449 486.25,-2449 486.25,-2449 480.25,-2449 474.25,-2443 474.25,-2437 474.25,-2437 474.25,-2425 474.25,-2425 474.25,-2419 480.25,-2413 486.25,-2413 486.25,-2413 542,-2413 542,-2413 548,-2413 554,-2419 554,-2425 554,-2425 554,-2437 554,-2437 554,-2443 548,-2449 542,-2449"/>
<text text-anchor="middle" x="514.12" y="-2429" font-family="Helvetica,Arial,sans-serif" font-size="10.00" fill="#212529">📄 grafana.nix</text>
</g>
<!-- N2&#45;&gt;N20 -->
<g id="edge22" class="edge">
<title>N2&#45;&gt;N20</title>
<path fill="none" stroke="#6c757d" d="M224.52,-3532.52C245.04,-3389.16 378,-2460 378,-2460 378,-2460 426.93,-2449.5 465.9,-2441.14"/>
<polygon fill="#6c757d" stroke="#6c757d" points="466.23,-2443.57 472.56,-2439.71 465.2,-2438.78 466.23,-2443.57"/>
</g>
<!-- N21 -->
<g id="node22" class="node">
<title>N21</title>
<path fill="#f8f9fa" stroke="#ced4da" d="M533.38,-2507C533.38,-2507 494.88,-2507 494.88,-2507 488.88,-2507 482.88,-2501 482.88,-2495 482.88,-2495 482.88,-2483 482.88,-2483 482.88,-2477 488.88,-2471 494.88,-2471 494.88,-2471 533.38,-2471 533.38,-2471 539.38,-2471 545.38,-2477 545.38,-2483 545.38,-2483 545.38,-2495 545.38,-2495 545.38,-2501 539.38,-2507 533.38,-2507"/>
<text text-anchor="middle" x="514.12" y="-2487" font-family="Helvetica,Arial,sans-serif" font-size="10.00" fill="#212529">📄 loki.nix</text>
</g>
<!-- N2&#45;&gt;N21 -->
<g id="edge23" class="edge">
<title>N2&#45;&gt;N21</title>
<path fill="none" stroke="#6c757d" d="M224.65,-3532.63C245.6,-3394.04 378,-2518 378,-2518 378,-2518 434.3,-2505.92 474.22,-2497.35"/>
<polygon fill="#6c757d" stroke="#6c757d" points="474.65,-2499.76 480.98,-2495.9 473.62,-2494.97 474.65,-2499.76"/>
</g>
<!-- N22 -->
<g id="node23" class="node">
<title>N22</title>
<path fill="#f8f9fa" stroke="#ced4da" d="M542,-2565C542,-2565 486.25,-2565 486.25,-2565 480.25,-2565 474.25,-2559 474.25,-2553 474.25,-2553 474.25,-2541 474.25,-2541 474.25,-2535 480.25,-2529 486.25,-2529 486.25,-2529 542,-2529 542,-2529 548,-2529 554,-2535 554,-2541 554,-2541 554,-2553 554,-2553 554,-2559 548,-2565 542,-2565"/>
<text text-anchor="middle" x="514.12" y="-2545" font-family="Helvetica,Arial,sans-serif" font-size="10.00" fill="#212529">📄 netdata.nix</text>
</g>
<!-- N2&#45;&gt;N22 -->
<g id="edge24" class="edge">
<title>N2&#45;&gt;N22</title>
<path fill="none" stroke="#6c757d" d="M224.79,-3532.82C246.16,-3399.35 378,-2576 378,-2576 378,-2576 426.93,-2565.5 465.9,-2557.14"/>
<polygon fill="#6c757d" stroke="#6c757d" points="466.23,-2559.57 472.56,-2555.71 465.2,-2554.78 466.23,-2559.57"/>
</g>
<!-- N23 -->
<g id="node24" class="node">
<title>N23</title>
<path fill="#f8f9fa" stroke="#ced4da" d="M556.25,-2623C556.25,-2623 472,-2623 472,-2623 466,-2623 460,-2617 460,-2611 460,-2611 460,-2599 460,-2599 460,-2593 466,-2587 472,-2587 472,-2587 556.25,-2587 556.25,-2587 562.25,-2587 568.25,-2593 568.25,-2599 568.25,-2599 568.25,-2611 568.25,-2611 568.25,-2617 562.25,-2623 556.25,-2623"/>
<text text-anchor="middle" x="514.12" y="-2603" font-family="Helvetica,Arial,sans-serif" font-size="10.00" fill="#212529">📄 power&#45;monitor.nix</text>
</g>
<!-- N2&#45;&gt;N23 -->
<g id="edge25" class="edge">
<title>N2&#45;&gt;N23</title>
<path fill="none" stroke="#6c757d" d="M224.99,-3532.68C247,-3403.44 378,-2634 378,-2634 378,-2634 415.99,-2625.85 451.68,-2618.19"/>
<polygon fill="#6c757d" stroke="#6c757d" points="451.91,-2620.64 458.24,-2616.78 450.88,-2615.85 451.91,-2620.64"/>
</g>
<!-- N24 -->
<g id="node25" class="node">
<title>N24</title>
<path fill="#f8f9fa" stroke="#ced4da" d="M551.38,-2681C551.38,-2681 476.88,-2681 476.88,-2681 470.88,-2681 464.88,-2675 464.88,-2669 464.88,-2669 464.88,-2657 464.88,-2657 464.88,-2651 470.88,-2645 476.88,-2645 476.88,-2645 551.38,-2645 551.38,-2645 557.38,-2645 563.38,-2651 563.38,-2657 563.38,-2657 563.38,-2669 563.38,-2669 563.38,-2675 557.38,-2681 551.38,-2681"/>
<text text-anchor="middle" x="514.12" y="-2661" font-family="Helvetica,Arial,sans-serif" font-size="10.00" fill="#212529">📄 prometheus.nix</text>
</g>
<!-- N2&#45;&gt;N24 -->
<g id="edge26" class="edge">
<title>N2&#45;&gt;N24</title>
<path fill="none" stroke="#6c757d" d="M225.35,-3532.5C248.39,-3410.04 378,-2721 378,-2721 378,-2721 424.39,-2701.09 462.81,-2684.6"/>
<polygon fill="#6c757d" stroke="#6c757d" points="463.51,-2686.96 468.98,-2681.95 461.58,-2682.46 463.51,-2686.96"/>
</g>
<!-- N25 -->
<g id="node26" class="node">
<title>N25</title>
<path fill="#f8f9fa" stroke="#ced4da" d="M542.75,-2217C542.75,-2217 485.5,-2217 485.5,-2217 479.5,-2217 473.5,-2211 473.5,-2205 473.5,-2205 473.5,-2193 473.5,-2193 473.5,-2187 479.5,-2181 485.5,-2181 485.5,-2181 542.75,-2181 542.75,-2181 548.75,-2181 554.75,-2187 554.75,-2193 554.75,-2193 554.75,-2205 554.75,-2205 554.75,-2211 548.75,-2217 542.75,-2217"/>
<text text-anchor="middle" x="514.12" y="-2197" font-family="Helvetica,Arial,sans-serif" font-size="10.00" fill="#212529">📄 scrutiny.nix</text>
</g>
<!-- N2&#45;&gt;N25 -->
<g id="edge27" class="edge">
<title>N2&#45;&gt;N25</title>
<path fill="none" stroke="#6c757d" d="M224.02,-3532.8C242.77,-3373.9 378,-2228 378,-2228 378,-2228 426.33,-2217.63 465.19,-2209.29"/>
<polygon fill="#6c757d" stroke="#6c757d" points="465.5,-2211.73 471.83,-2207.86 464.48,-2206.94 465.5,-2211.73"/>
</g>
<!-- N26 -->
<g id="node27" class="node">
<title>N26</title>
<path fill="#f8f9fa" stroke="#ced4da" d="M554,-2275C554,-2275 474.25,-2275 474.25,-2275 468.25,-2275 462.25,-2269 462.25,-2263 462.25,-2263 462.25,-2251 462.25,-2251 462.25,-2245 468.25,-2239 474.25,-2239 474.25,-2239 554,-2239 554,-2239 560,-2239 566,-2245 566,-2251 566,-2251 566,-2263 566,-2263 566,-2269 560,-2275 554,-2275"/>
<text text-anchor="middle" x="514.12" y="-2255" font-family="Helvetica,Arial,sans-serif" font-size="10.00" fill="#212529">📄 uptime&#45;kuma.nix</text>
</g>
<!-- N2&#45;&gt;N26 -->
<g id="edge28" class="edge">
<title>N2&#45;&gt;N26</title>
<path fill="none" stroke="#6c757d" d="M224.14,-3532.63C243.34,-3377.07 378,-2286 378,-2286 378,-2286 417.56,-2277.51 453.88,-2269.72"/>
<polygon fill="#6c757d" stroke="#6c757d" points="454.23,-2272.15 460.56,-2268.28 453.2,-2267.35 454.23,-2272.15"/>
</g>
<!-- N27 -->
<g id="node28" class="node">
<title>N27</title>
<path fill="#f8f9fa" stroke="#ced4da" d="M559.25,-1599C559.25,-1599 469,-1599 469,-1599 463,-1599 457,-1593 457,-1587 457,-1587 457,-1575 457,-1575 457,-1569 463,-1563 469,-1563 469,-1563 559.25,-1563 559.25,-1563 565.25,-1563 571.25,-1569 571.25,-1575 571.25,-1575 571.25,-1587 571.25,-1587 571.25,-1593 565.25,-1599 559.25,-1599"/>
<text text-anchor="middle" x="514.12" y="-1579" font-family="Helvetica,Arial,sans-serif" font-size="10.00" fill="#212529">📄 crafty&#45;controller.nix</text>
</g>
<!-- N2&#45;&gt;N27 -->
<g id="edge29" class="edge">
<title>N2&#45;&gt;N27</title>
<path fill="none" stroke="#6c757d" d="M223.35,-3532.72C239.2,-3335.56 378,-1610 378,-1610 378,-1610 413.63,-1602.35 448.3,-1594.91"/>
<polygon fill="#6c757d" stroke="#6c757d" points="448.79,-1597.31 455.12,-1593.45 447.76,-1592.52 448.79,-1597.31"/>
</g>
<!-- N28 -->
<g id="node29" class="node">
<title>N28</title>
<path fill="#f8f9fa" stroke="#ced4da" d="M540.5,-1657C540.5,-1657 487.75,-1657 487.75,-1657 481.75,-1657 475.75,-1651 475.75,-1645 475.75,-1645 475.75,-1633 475.75,-1633 475.75,-1627 481.75,-1621 487.75,-1621 487.75,-1621 540.5,-1621 540.5,-1621 546.5,-1621 552.5,-1627 552.5,-1633 552.5,-1633 552.5,-1645 552.5,-1645 552.5,-1651 546.5,-1657 540.5,-1657"/>
<text text-anchor="middle" x="514.12" y="-1637" font-family="Helvetica,Arial,sans-serif" font-size="10.00" fill="#212529">📄 forgejo.nix</text>
</g>
<!-- N2&#45;&gt;N28 -->
<g id="edge30" class="edge">
<title>N2&#45;&gt;N28</title>
<path fill="none" stroke="#6c757d" d="M223.4,-3532.67C239.49,-3338.53 378,-1668 378,-1668 378,-1668 428.12,-1657.24 467.31,-1648.83"/>
<polygon fill="#6c757d" stroke="#6c757d" points="467.68,-1651.26 474.01,-1647.4 466.65,-1646.47 467.68,-1651.26"/>
</g>
<!-- N29 -->
<g id="node30" class="node">
<title>N29</title>
<path fill="#f8f9fa" stroke="#ced4da" d="M548.38,-1715C548.38,-1715 479.88,-1715 479.88,-1715 473.88,-1715 467.88,-1709 467.88,-1703 467.88,-1703 467.88,-1691 467.88,-1691 467.88,-1685 473.88,-1679 479.88,-1679 479.88,-1679 548.38,-1679 548.38,-1679 554.38,-1679 560.38,-1685 560.38,-1691 560.38,-1691 560.38,-1703 560.38,-1703 560.38,-1709 554.38,-1715 548.38,-1715"/>
<text text-anchor="middle" x="514.12" y="-1695" font-family="Helvetica,Arial,sans-serif" font-size="10.00" fill="#212529">📄 homepage.nix</text>
</g>
<!-- N2&#45;&gt;N29 -->
<g id="edge31" class="edge">
<title>N2&#45;&gt;N29</title>
<path fill="none" stroke="#6c757d" d="M223.45,-3532.64C239.78,-3341.72 378,-1726 378,-1726 378,-1726 421.73,-1716.61 459.44,-1708.52"/>
<polygon fill="#6c757d" stroke="#6c757d" points="459.57,-1711 465.9,-1707.14 458.54,-1706.21 459.57,-1711"/>
</g>
<!-- N30 -->
<g id="node31" class="node">
<title>N30</title>
<path fill="#f8f9fa" stroke="#ced4da" d="M553.25,-1773C553.25,-1773 475,-1773 475,-1773 469,-1773 463,-1767 463,-1761 463,-1761 463,-1749 463,-1749 463,-1743 469,-1737 475,-1737 475,-1737 553.25,-1737 553.25,-1737 559.25,-1737 565.25,-1743 565.25,-1749 565.25,-1749 565.25,-1761 565.25,-1761 565.25,-1767 559.25,-1773 553.25,-1773"/>
<text text-anchor="middle" x="514.12" y="-1753" font-family="Helvetica,Arial,sans-serif" font-size="10.00" fill="#212529">📄 local&#45;finance.nix</text>
</g>
<!-- N2&#45;&gt;N30 -->
<g id="edge32" class="edge">
<title>N2&#45;&gt;N30</title>
<path fill="none" stroke="#6c757d" d="M223.5,-3532.64C240.07,-3345.13 378,-1784 378,-1784 378,-1784 418.1,-1775.39 454.61,-1767.56"/>
<polygon fill="#6c757d" stroke="#6c757d" points="455,-1769.98 461.33,-1766.12 453.97,-1765.19 455,-1769.98"/>
</g>
<!-- N31 -->
<g id="node32" class="node">
<title>N31</title>
<path fill="#f8f9fa" stroke="#ced4da" d="M533.75,-1831C533.75,-1831 494.5,-1831 494.5,-1831 488.5,-1831 482.5,-1825 482.5,-1819 482.5,-1819 482.5,-1807 482.5,-1807 482.5,-1801 488.5,-1795 494.5,-1795 494.5,-1795 533.75,-1795 533.75,-1795 539.75,-1795 545.75,-1801 545.75,-1807 545.75,-1807 545.75,-1819 545.75,-1819 545.75,-1825 539.75,-1831 533.75,-1831"/>
<text text-anchor="middle" x="514.12" y="-1811" font-family="Helvetica,Arial,sans-serif" font-size="10.00" fill="#212529">📄 n8n.nix</text>
</g>
<!-- N2&#45;&gt;N31 -->
<g id="edge33" class="edge">
<title>N2&#45;&gt;N31</title>
<path fill="none" stroke="#6c757d" d="M223.55,-3532.68C240.35,-3348.75 378,-1842 378,-1842 378,-1842 433.98,-1829.99 473.88,-1821.42"/>
<polygon fill="#6c757d" stroke="#6c757d" points="474.31,-1823.84 480.64,-1819.97 473.29,-1819.04 474.31,-1823.84"/>
</g>
<!-- N32 -->
<g id="node33" class="node">
<title>N32</title>
<path fill="#f8f9fa" stroke="#ced4da" d="M539.75,-1889C539.75,-1889 488.5,-1889 488.5,-1889 482.5,-1889 476.5,-1883 476.5,-1877 476.5,-1877 476.5,-1865 476.5,-1865 476.5,-1859 482.5,-1853 488.5,-1853 488.5,-1853 539.75,-1853 539.75,-1853 545.75,-1853 551.75,-1859 551.75,-1865 551.75,-1865 551.75,-1877 551.75,-1877 551.75,-1883 545.75,-1889 539.75,-1889"/>
<text text-anchor="middle" x="514.12" y="-1869" font-family="Helvetica,Arial,sans-serif" font-size="10.00" fill="#212529">📄 quartz.nix</text>
</g>
<!-- N2&#45;&gt;N32 -->
<g id="edge34" class="edge">
<title>N2&#45;&gt;N32</title>
<path fill="none" stroke="#6c757d" d="M223.6,-3532.74C240.64,-3352.59 378,-1900 378,-1900 378,-1900 428.72,-1889.11 468.01,-1880.68"/>
<polygon fill="#6c757d" stroke="#6c757d" points="468.39,-1883.11 474.72,-1879.24 467.36,-1878.32 468.39,-1883.11"/>
</g>
<!-- N33 -->
<g id="node34" class="node">
<title>N33</title>
<path fill="#f8f9fa" stroke="#ced4da" d="M538.25,-1947C538.25,-1947 490,-1947 490,-1947 484,-1947 478,-1941 478,-1935 478,-1935 478,-1923 478,-1923 478,-1917 484,-1911 490,-1911 490,-1911 538.25,-1911 538.25,-1911 544.25,-1911 550.25,-1917 550.25,-1923 550.25,-1923 550.25,-1935 550.25,-1935 550.25,-1941 544.25,-1947 538.25,-1947"/>
<text text-anchor="middle" x="514.12" y="-1927" font-family="Helvetica,Arial,sans-serif" font-size="10.00" fill="#212529">📄 romm.nix</text>
</g>
<!-- N2&#45;&gt;N33 -->
<g id="edge35" class="edge">
<title>N2&#45;&gt;N33</title>
<path fill="none" stroke="#6c757d" d="M223.68,-3532.56C241.07,-3355.18 378,-1958 378,-1958 378,-1958 429.94,-1946.85 469.41,-1938.38"/>
<polygon fill="#6c757d" stroke="#6c757d" points="469.81,-1940.8 476.14,-1936.94 468.78,-1936.01 469.81,-1940.8"/>
</g>
<!-- N34 -->
<g id="node35" class="node">
<title>N34</title>
<path fill="#f8f9fa" stroke="#ced4da" d="M564.88,-2005C564.88,-2005 463.38,-2005 463.38,-2005 457.38,-2005 451.38,-1999 451.38,-1993 451.38,-1993 451.38,-1981 451.38,-1981 451.38,-1975 457.38,-1969 463.38,-1969 463.38,-1969 564.88,-1969 564.88,-1969 570.88,-1969 576.88,-1975 576.88,-1981 576.88,-1981 576.88,-1993 576.88,-1993 576.88,-1999 570.88,-2005 564.88,-2005"/>
<text text-anchor="middle" x="514.12" y="-1985" font-family="Helvetica,Arial,sans-serif" font-size="10.00" fill="#212529">📄 security&#45;watchdog.nix</text>
</g>
<!-- N2&#45;&gt;N34 -->
<g id="edge36" class="edge">
<title>N2&#45;&gt;N34</title>
<path fill="none" stroke="#6c757d" d="M223.74,-3532.69C241.35,-3359.51 378,-2016 378,-2016 378,-2016 410.21,-2009.09 443.17,-2002.01"/>
<polygon fill="#6c757d" stroke="#6c757d" points="443.29,-2004.49 449.62,-2000.63 442.26,-1999.7 443.29,-2004.49"/>
</g>
<!-- N35 -->
<g id="node36" class="node">
<title>N35</title>
<path fill="#f8f9fa" stroke="#ced4da" d="M548.38,-2063C548.38,-2063 479.88,-2063 479.88,-2063 473.88,-2063 467.88,-2057 467.88,-2051 467.88,-2051 467.88,-2039 467.88,-2039 467.88,-2033 473.88,-2027 479.88,-2027 479.88,-2027 548.38,-2027 548.38,-2027 554.38,-2027 560.38,-2033 560.38,-2039 560.38,-2039 560.38,-2051 560.38,-2051 560.38,-2057 554.38,-2063 548.38,-2063"/>
<text text-anchor="middle" x="514.12" y="-2043" font-family="Helvetica,Arial,sans-serif" font-size="10.00" fill="#212529">📄 stirling&#45;pdf.nix</text>
</g>
<!-- N2&#45;&gt;N35 -->
<g id="edge37" class="edge">
<title>N2&#45;&gt;N35</title>
<path fill="none" stroke="#6c757d" d="M223.82,-3532.59C241.78,-3362.7 378,-2074 378,-2074 378,-2074 421.73,-2064.61 459.44,-2056.52"/>
<polygon fill="#6c757d" stroke="#6c757d" points="459.57,-2059 465.9,-2055.14 458.54,-2054.21 459.57,-2059"/>
</g>
<!-- N36 -->
<g id="node37" class="node">
<title>N36</title>
<path fill="#f8f9fa" stroke="#ced4da" d="M534.12,-2121C534.12,-2121 494.12,-2121 494.12,-2121 488.12,-2121 482.12,-2115 482.12,-2109 482.12,-2109 482.12,-2097 482.12,-2097 482.12,-2091 488.12,-2085 494.12,-2085 494.12,-2085 534.12,-2085 534.12,-2085 540.12,-2085 546.12,-2091 546.12,-2097 546.12,-2097 546.12,-2109 546.12,-2109 546.12,-2115 540.12,-2121 534.12,-2121"/>
<text text-anchor="middle" x="514.12" y="-2101" font-family="Helvetica,Arial,sans-serif" font-size="10.00" fill="#212529">📄 vert.nix</text>
</g>
<!-- N2&#45;&gt;N36 -->
<g id="edge38" class="edge">
<title>N2&#45;&gt;N36</title>
<path fill="none" stroke="#6c757d" d="M223.93,-3532.66C242.35,-3368.72 378,-2161 378,-2161 378,-2161 434.13,-2136.91 474.04,-2119.78"/>
<polygon fill="#6c757d" stroke="#6c757d" points="474.93,-2122.06 480.39,-2117.05 473,-2117.56 474.93,-2122.06"/>
</g>
<!-- N37 -->
<g id="node38" class="node">
<title>N37</title>
<path fill="#f8f9fa" stroke="#ced4da" d="M541.25,-1483C541.25,-1483 487,-1483 487,-1483 481,-1483 475,-1477 475,-1471 475,-1471 475,-1459 475,-1459 475,-1453 481,-1447 487,-1447 487,-1447 541.25,-1447 541.25,-1447 547.25,-1447 553.25,-1453 553.25,-1459 553.25,-1459 553.25,-1471 553.25,-1471 553.25,-1477 547.25,-1483 541.25,-1483"/>
<text text-anchor="middle" x="514.12" y="-1463" font-family="Helvetica,Arial,sans-serif" font-size="10.00" fill="#212529">📄 vikunja.nix</text>
</g>
<!-- N2&#45;&gt;N37 -->
<g id="edge39" class="edge">
<title>N2&#45;&gt;N37</title>
<path fill="none" stroke="#6c757d" d="M223.27,-3532.59C238.77,-3328.37 378,-1494 378,-1494 378,-1494 427.52,-1483.37 466.6,-1474.98"/>
<polygon fill="#6c757d" stroke="#6c757d" points="466.96,-1477.41 473.29,-1473.55 465.93,-1472.62 466.96,-1477.41"/>
</g>
<!-- N38 -->
<g id="node39" class="node">
<title>N38</title>
<path fill="#f8f9fa" stroke="#ced4da" d="M545.38,-1541C545.38,-1541 482.88,-1541 482.88,-1541 476.88,-1541 470.88,-1535 470.88,-1529 470.88,-1529 470.88,-1517 470.88,-1517 470.88,-1511 476.88,-1505 482.88,-1505 482.88,-1505 545.38,-1505 545.38,-1505 551.38,-1505 557.38,-1511 557.38,-1517 557.38,-1517 557.38,-1529 557.38,-1529 557.38,-1535 551.38,-1541 545.38,-1541"/>
<text text-anchor="middle" x="514.12" y="-1521" font-family="Helvetica,Arial,sans-serif" font-size="10.00" fill="#212529">📄 wanderer.nix</text>
</g>
<!-- N2&#45;&gt;N38 -->
<g id="edge40" class="edge">
<title>N2&#45;&gt;N38</title>
<path fill="none" stroke="#6c757d" d="M223.3,-3532.8C238.92,-3332.81 378,-1552 378,-1552 378,-1552 424.29,-1542.06 462.69,-1533.82"/>
<polygon fill="#6c757d" stroke="#6c757d" points="462.93,-1536.28 469.26,-1532.41 461.9,-1531.49 462.93,-1536.28"/>
</g>
<!-- N39 -->
<g id="node40" class="node">
<title>N39</title>
<path fill="#f8f9fa" stroke="#ced4da" d="M545.75,-1213C545.75,-1213 482.5,-1213 482.5,-1213 476.5,-1213 470.5,-1207 470.5,-1201 470.5,-1201 470.5,-1189 470.5,-1189 470.5,-1183 476.5,-1177 482.5,-1177 482.5,-1177 545.75,-1177 545.75,-1177 551.75,-1177 557.75,-1183 557.75,-1189 557.75,-1189 557.75,-1201 557.75,-1201 557.75,-1207 551.75,-1213 545.75,-1213"/>
<text text-anchor="middle" x="514.12" y="-1193" font-family="Helvetica,Arial,sans-serif" font-size="10.00" fill="#212529">📄 authentik.nix</text>
</g>
<!-- N2&#45;&gt;N39 -->
<g id="edge41" class="edge">
<title>N2&#45;&gt;N39</title>
<path fill="none" stroke="#6c757d" d="M223.11,-3532.61C237.76,-3314.2 378,-1224 378,-1224 378,-1224 424.01,-1214.13 462.33,-1205.9"/>
<polygon fill="#6c757d" stroke="#6c757d" points="462.56,-1208.36 468.89,-1204.49 461.53,-1203.57 462.56,-1208.36"/>
</g>
<!-- N40 -->
<g id="node41" class="node">
<title>N40</title>
<path fill="#f8f9fa" stroke="#ced4da" d="M538.62,-1271C538.62,-1271 489.62,-1271 489.62,-1271 483.62,-1271 477.62,-1265 477.62,-1259 477.62,-1259 477.62,-1247 477.62,-1247 477.62,-1241 483.62,-1235 489.62,-1235 489.62,-1235 538.62,-1235 538.62,-1235 544.62,-1235 550.62,-1241 550.62,-1247 550.62,-1247 550.62,-1259 550.62,-1259 550.62,-1265 544.62,-1271 538.62,-1271"/>
<text text-anchor="middle" x="514.12" y="-1251" font-family="Helvetica,Arial,sans-serif" font-size="10.00" fill="#212529">📄 caddy.nix</text>
</g>
<!-- N2&#45;&gt;N40 -->
<g id="edge42" class="edge">
<title>N2&#45;&gt;N40</title>
<path fill="none" stroke="#6c757d" d="M223.13,-3532.74C237.91,-3318 378,-1282 378,-1282 378,-1282 429.63,-1270.92 469.06,-1262.46"/>
<polygon fill="#6c757d" stroke="#6c757d" points="469.46,-1264.88 475.79,-1261.01 468.43,-1260.09 469.46,-1264.88"/>
</g>
<!-- N41 -->
<g id="node42" class="node">
<title>N41</title>
<path fill="#f8f9fa" stroke="#ced4da" d="M549.5,-1329C549.5,-1329 478.75,-1329 478.75,-1329 472.75,-1329 466.75,-1323 466.75,-1317 466.75,-1317 466.75,-1305 466.75,-1305 466.75,-1299 472.75,-1293 478.75,-1293 478.75,-1293 549.5,-1293 549.5,-1293 555.5,-1293 561.5,-1299 561.5,-1305 561.5,-1305 561.5,-1317 561.5,-1317 561.5,-1323 555.5,-1329 549.5,-1329"/>
<text text-anchor="middle" x="514.12" y="-1309" font-family="Helvetica,Arial,sans-serif" font-size="10.00" fill="#212529">📄 cloudflared.nix</text>
</g>
<!-- N2&#45;&gt;N41 -->
<g id="edge43" class="edge">
<title>N2&#45;&gt;N41</title>
<path fill="none" stroke="#6c757d" d="M223.18,-3532.55C238.2,-3319.87 378,-1340 378,-1340 378,-1340 421.18,-1330.73 458.72,-1322.68"/>
<polygon fill="#6c757d" stroke="#6c757d" points="458.81,-1325.16 465.14,-1321.3 457.78,-1320.37 458.81,-1325.16"/>
</g>
<!-- N42 -->
<g id="node43" class="node">
<title>N42</title>
<path fill="#f8f9fa" stroke="#ced4da" d="M569,-1387C569,-1387 459.25,-1387 459.25,-1387 453.25,-1387 447.25,-1381 447.25,-1375 447.25,-1375 447.25,-1363 447.25,-1363 447.25,-1357 453.25,-1351 459.25,-1351 459.25,-1351 569,-1351 569,-1351 575,-1351 581,-1357 581,-1363 581,-1363 581,-1375 581,-1375 581,-1381 575,-1387 569,-1387"/>
<text text-anchor="middle" x="514.12" y="-1367" font-family="Helvetica,Arial,sans-serif" font-size="10.00" fill="#212529">📄 docker&#45;socket&#45;proxy.nix</text>
</g>
<!-- N2&#45;&gt;N42 -->
<g id="edge44" class="edge">
<title>N2&#45;&gt;N42</title>
<path fill="none" stroke="#6c757d" d="M223.22,-3532.64C238.48,-3325.04 378,-1427 378,-1427 378,-1427 424.39,-1407.09 462.81,-1390.6"/>
<polygon fill="#6c757d" stroke="#6c757d" points="463.51,-1392.96 468.98,-1387.95 461.58,-1388.46 463.51,-1392.96"/>
</g>
<!-- N43 -->
<g id="node44" class="node">
<title>N43</title>
<path fill="#f8f9fa" stroke="#ced4da" d="M541.62,-1097C541.62,-1097 486.62,-1097 486.62,-1097 480.62,-1097 474.62,-1091 474.62,-1085 474.62,-1085 474.62,-1073 474.62,-1073 474.62,-1067 480.62,-1061 486.62,-1061 486.62,-1061 541.62,-1061 541.62,-1061 547.62,-1061 553.62,-1067 553.62,-1073 553.62,-1073 553.62,-1085 553.62,-1085 553.62,-1091 547.62,-1097 541.62,-1097"/>
<text text-anchor="middle" x="514.12" y="-1077" font-family="Helvetica,Arial,sans-serif" font-size="10.00" fill="#212529">📄 gluetun.nix</text>
</g>
<!-- N2&#45;&gt;N43 -->
<g id="edge45" class="edge">
<title>N2&#45;&gt;N43</title>
<path fill="none" stroke="#6c757d" d="M223.04,-3532.74C237.33,-3309.18 378,-1108 378,-1108 378,-1108 427.22,-1097.44 466.25,-1089.06"/>
<polygon fill="#6c757d" stroke="#6c757d" points="466.59,-1091.49 472.92,-1087.63 465.57,-1086.7 466.59,-1091.49"/>
</g>
<!-- N44 -->
<g id="node45" class="node">
<title>N44</title>
<path fill="#f8f9fa" stroke="#ced4da" d="M536,-1155C536,-1155 492.25,-1155 492.25,-1155 486.25,-1155 480.25,-1149 480.25,-1143 480.25,-1143 480.25,-1131 480.25,-1131 480.25,-1125 486.25,-1119 492.25,-1119 492.25,-1119 536,-1119 536,-1119 542,-1119 548,-1125 548,-1131 548,-1131 548,-1143 548,-1143 548,-1149 542,-1155 536,-1155"/>
<text text-anchor="middle" x="514.12" y="-1135" font-family="Helvetica,Arial,sans-serif" font-size="10.00" fill="#212529">📄 lldap.nix</text>
</g>
<!-- N2&#45;&gt;N44 -->
<g id="edge46" class="edge">
<title>N2&#45;&gt;N44</title>
<path fill="none" stroke="#6c757d" d="M223.06,-3532.84C237.47,-3312.71 378,-1166 378,-1166 378,-1166 432.1,-1154.39 471.83,-1145.86"/>
<polygon fill="#6c757d" stroke="#6c757d" points="472.26,-1148.28 478.59,-1144.41 471.23,-1143.49 472.26,-1148.28"/>
</g>
<!-- N49 -->
<g id="node50" class="node">
<title>N49</title>
<path fill="#f8f9fa" stroke="#ced4da" d="M540.5,-597C540.5,-597 487.75,-597 487.75,-597 481.75,-597 475.75,-591 475.75,-585 475.75,-585 475.75,-573 475.75,-573 475.75,-567 481.75,-561 487.75,-561 487.75,-561 540.5,-561 540.5,-561 546.5,-561 552.5,-567 552.5,-573 552.5,-573 552.5,-585 552.5,-585 552.5,-591 546.5,-597 540.5,-597"/>
<text text-anchor="middle" x="514.12" y="-577" font-family="Helvetica,Arial,sans-serif" font-size="10.00" fill="#212529">📄 default.nix</text>
</g>
<!-- N2&#45;&gt;N49 -->
<g id="edge47" class="edge">
<title>N2&#45;&gt;N49</title>
<path fill="none" stroke="#6c757d" d="M222.85,-3532.77C236.02,-3286.93 378,-637 378,-637 378,-637 428.54,-615.31 467.8,-598.45"/>
<polygon fill="#6c757d" stroke="#6c757d" points="468.63,-600.77 474.09,-595.75 466.7,-596.26 468.63,-600.77"/>
</g>
<!-- N54 -->
<g id="node55" class="node">
<title>N54</title>
<path fill="#f8f9fa" stroke="#ced4da" d="M536.38,-847C536.38,-847 491.88,-847 491.88,-847 485.88,-847 479.88,-841 479.88,-835 479.88,-835 479.88,-823 479.88,-823 479.88,-817 485.88,-811 491.88,-811 491.88,-811 536.38,-811 536.38,-811 542.38,-811 548.38,-817 548.38,-823 548.38,-823 548.38,-835 548.38,-835 548.38,-841 542.38,-847 536.38,-847"/>
<text text-anchor="middle" x="514.12" y="-827" font-family="Helvetica,Arial,sans-serif" font-size="10.00" fill="#212529">📄 base.nix</text>
</g>
<!-- N2&#45;&gt;N54 -->
<g id="edge48" class="edge">
<title>N2&#45;&gt;N54</title>
<path fill="none" stroke="#6c757d" d="M222.93,-3532.73C236.6,-3296.93 378,-858 378,-858 378,-858 431.47,-846.52 471.14,-838.01"/>
<polygon fill="#6c757d" stroke="#6c757d" points="471.57,-840.43 477.9,-836.56 470.54,-835.63 471.57,-840.43"/>
</g>
<!-- N55 -->
<g id="node56" class="node">
<title>N55</title>
<path fill="#f8f9fa" stroke="#ced4da" d="M539.38,-905C539.38,-905 488.88,-905 488.88,-905 482.88,-905 476.88,-899 476.88,-893 476.88,-893 476.88,-881 476.88,-881 476.88,-875 482.88,-869 488.88,-869 488.88,-869 539.38,-869 539.38,-869 545.38,-869 551.38,-875 551.38,-881 551.38,-881 551.38,-893 551.38,-893 551.38,-899 545.38,-905 539.38,-905"/>
<text text-anchor="middle" x="514.12" y="-885" font-family="Helvetica,Arial,sans-serif" font-size="10.00" fill="#212529">📄 server.nix</text>
</g>
<!-- N2&#45;&gt;N55 -->
<g id="edge49" class="edge">
<title>N2&#45;&gt;N55</title>
<path fill="none" stroke="#6c757d" d="M222.98,-3532.61C236.89,-3300.3 378,-945 378,-945 378,-945 429.45,-922.92 468.86,-906"/>
<polygon fill="#6c757d" stroke="#6c757d" points="469.7,-908.31 475.17,-903.29 467.77,-903.8 469.7,-908.31"/>
</g>
<!-- N57 -->
<g id="node58" class="node">
<title>N57</title>
<path fill="#f8f9fa" stroke="#ced4da" d="M540.5,-693C540.5,-693 487.75,-693 487.75,-693 481.75,-693 475.75,-687 475.75,-681 475.75,-681 475.75,-669 475.75,-669 475.75,-663 481.75,-657 487.75,-657 487.75,-657 540.5,-657 540.5,-657 546.5,-657 552.5,-663 552.5,-669 552.5,-669 552.5,-681 552.5,-681 552.5,-687 546.5,-693 540.5,-693"/>
<text text-anchor="middle" x="514.12" y="-673" font-family="Helvetica,Arial,sans-serif" font-size="10.00" fill="#212529">📄 default.nix</text>
</g>
<!-- N2&#45;&gt;N57 -->
<g id="edge50" class="edge">
<title>N2&#45;&gt;N57</title>
<path fill="none" stroke="#6c757d" d="M222.89,-3532.63C236.31,-3290.38 378,-733 378,-733 378,-733 428.54,-711.31 467.8,-694.45"/>
<polygon fill="#6c757d" stroke="#6c757d" points="468.63,-696.77 474.09,-691.75 466.7,-692.26 468.63,-696.77"/>
</g>
<!-- N58 -->
<g id="node59" class="node">
<title>N58</title>
<path fill="#f8f9fa" stroke="#ced4da" d="M540.5,-1001C540.5,-1001 487.75,-1001 487.75,-1001 481.75,-1001 475.75,-995 475.75,-989 475.75,-989 475.75,-977 475.75,-977 475.75,-971 481.75,-965 487.75,-965 487.75,-965 540.5,-965 540.5,-965 546.5,-965 552.5,-971 552.5,-977 552.5,-977 552.5,-989 552.5,-989 552.5,-995 546.5,-1001 540.5,-1001"/>
<text text-anchor="middle" x="514.12" y="-981" font-family="Helvetica,Arial,sans-serif" font-size="10.00" fill="#212529">📄 default.nix</text>
</g>
<!-- N2&#45;&gt;N58 -->
<g id="edge51" class="edge">
<title>N2&#45;&gt;N58</title>
<path fill="none" stroke="#6c757d" d="M223.02,-3532.59C237.18,-3304.88 378,-1041 378,-1041 378,-1041 428.54,-1019.31 467.8,-1002.45"/>
<polygon fill="#6c757d" stroke="#6c757d" points="468.63,-1004.77 474.09,-999.75 466.7,-1000.26 468.63,-1004.77"/>
</g>
<!-- N46 -->
<g id="node47" class="node">
<title>N46</title>
<path fill="#f8f9fa" stroke="#ced4da" d="M574.62,-347C574.62,-347 453.62,-347 453.62,-347 447.62,-347 441.62,-341 441.62,-335 441.62,-335 441.62,-323 441.62,-323 441.62,-317 447.62,-311 453.62,-311 453.62,-311 574.62,-311 574.62,-311 580.62,-311 586.62,-317 586.62,-323 586.62,-323 586.62,-335 586.62,-335 586.62,-341 580.62,-347 574.62,-347"/>
<text text-anchor="middle" x="514.12" y="-327" font-family="Helvetica,Arial,sans-serif" font-size="10.00" fill="#212529">📄 hardware&#45;configuration.nix</text>
</g>
<!-- N45&#45;&gt;N46 -->
<g id="edge52" class="edge">
<title>N45&#45;&gt;N46</title>
<path fill="none" stroke="#6c757d" d="M272.61,-329C316.76,-329 381.53,-329 432.73,-329"/>
<polygon fill="#6c757d" stroke="#6c757d" points="432.64,-331.45 439.64,-329 432.64,-326.55 432.64,-331.45"/>
</g>
<!-- N45&#45;&gt;N49 -->
<g id="edge53" class="edge">
<title>N45&#45;&gt;N49</title>
<path fill="none" stroke="#6c757d" d="M235.19,-347.25C272.94,-399 378,-543 378,-543 378,-543 428.12,-556.35 467.31,-566.79"/>
<polygon fill="#6c757d" stroke="#6c757d" points="466.63,-569.15 474.02,-568.58 467.89,-564.41 466.63,-569.15"/>
</g>
<!-- N50 -->
<g id="node51" class="node">
<title>N50</title>
<path fill="#f8f9fa" stroke="#ced4da" d="M540.5,-443C540.5,-443 487.75,-443 487.75,-443 481.75,-443 475.75,-437 475.75,-431 475.75,-431 475.75,-419 475.75,-419 475.75,-413 481.75,-407 487.75,-407 487.75,-407 540.5,-407 540.5,-407 546.5,-407 552.5,-413 552.5,-419 552.5,-419 552.5,-431 552.5,-431 552.5,-437 546.5,-443 540.5,-443"/>
<text text-anchor="middle" x="514.12" y="-423" font-family="Helvetica,Arial,sans-serif" font-size="10.00" fill="#212529">📄 default.nix</text>
</g>
<!-- N45&#45;&gt;N50 -->
<g id="edge54" class="edge">
<title>N45&#45;&gt;N50</title>
<path fill="none" stroke="#6c757d" d="M269.99,-347.49C315.86,-365.12 378,-389 378,-389 378,-389 428.12,-402.35 467.31,-412.79"/>
<polygon fill="#6c757d" stroke="#6c757d" points="466.63,-415.15 474.02,-414.58 467.89,-410.41 466.63,-415.15"/>
</g>
<!-- N51 -->
<g id="node52" class="node">
<title>N51</title>
<path fill="#f8f9fa" stroke="#ced4da" d="M546.12,-501C546.12,-501 482.12,-501 482.12,-501 476.12,-501 470.12,-495 470.12,-489 470.12,-489 470.12,-477 470.12,-477 470.12,-471 476.12,-465 482.12,-465 482.12,-465 546.12,-465 546.12,-465 552.12,-465 558.12,-471 558.12,-477 558.12,-477 558.12,-489 558.12,-489 558.12,-495 552.12,-501 546.12,-501"/>
<text text-anchor="middle" x="514.12" y="-481" font-family="Helvetica,Arial,sans-serif" font-size="10.00" fill="#212529">📄 minecraft.nix</text>
</g>
<!-- N45&#45;&gt;N51 -->
<g id="edge55" class="edge">
<title>N45&#45;&gt;N51</title>
<path fill="none" stroke="#6c757d" d="M244.91,-347.44C288.34,-382.22 378,-454 378,-454 378,-454 423.43,-463.75 461.61,-471.94"/>
<polygon fill="#6c757d" stroke="#6c757d" points="460.79,-474.27 468.15,-473.35 461.82,-469.48 460.79,-474.27"/>
</g>
<!-- N52 -->
<g id="node53" class="node">
<title>N52</title>
<path fill="#f8f9fa" stroke="#ced4da" d="M540.5,-155C540.5,-155 487.75,-155 487.75,-155 481.75,-155 475.75,-149 475.75,-143 475.75,-143 475.75,-131 475.75,-131 475.75,-125 481.75,-119 487.75,-119 487.75,-119 540.5,-119 540.5,-119 546.5,-119 552.5,-125 552.5,-131 552.5,-131 552.5,-143 552.5,-143 552.5,-149 546.5,-155 540.5,-155"/>
<text text-anchor="middle" x="514.12" y="-135" font-family="Helvetica,Arial,sans-serif" font-size="10.00" fill="#212529">📄 default.nix</text>
</g>
<!-- N45&#45;&gt;N52 -->
<g id="edge56" class="edge">
<title>N45&#45;&gt;N52</title>
<path fill="none" stroke="#6c757d" d="M243.26,-310.65C286.01,-273.95 378,-195 378,-195 378,-195 428.54,-173.31 467.8,-156.45"/>
<polygon fill="#6c757d" stroke="#6c757d" points="468.63,-158.77 474.09,-153.75 466.7,-154.26 468.63,-158.77"/>
</g>
<!-- N45&#45;&gt;N54 -->
<g id="edge57" class="edge">
<title>N45&#45;&gt;N54</title>
<path fill="none" stroke="#6c757d" d="M228,-347.46C256.86,-434.54 378,-800 378,-800 378,-800 431.47,-811.48 471.14,-819.99"/>
<polygon fill="#6c757d" stroke="#6c757d" points="470.54,-822.37 477.9,-821.44 471.57,-817.57 470.54,-822.37"/>
</g>
<!-- N56 -->
<g id="node57" class="node">
<title>N56</title>
<path fill="#f8f9fa" stroke="#ced4da" d="M539,-789C539,-789 489.25,-789 489.25,-789 483.25,-789 477.25,-783 477.25,-777 477.25,-777 477.25,-765 477.25,-765 477.25,-759 483.25,-753 489.25,-753 489.25,-753 539,-753 539,-753 545,-753 551,-759 551,-765 551,-765 551,-777 551,-777 551,-783 545,-789 539,-789"/>
<text text-anchor="middle" x="514.12" y="-769" font-family="Helvetica,Arial,sans-serif" font-size="10.00" fill="#212529">📄 sound.nix</text>
</g>
<!-- N45&#45;&gt;N56 -->
<g id="edge58" class="edge">
<title>N45&#45;&gt;N56</title>
<path fill="none" stroke="#6c757d" d="M228.99,-347.5C259.53,-426.93 378,-735 378,-735 378,-735 429.33,-748.67 468.71,-759.17"/>
<polygon fill="#6c757d" stroke="#6c757d" points="468.06,-761.53 475.45,-760.96 469.32,-756.79 468.06,-761.53"/>
</g>
<!-- N45&#45;&gt;N57 -->
<g id="edge59" class="edge">
<title>N45&#45;&gt;N57</title>
<path fill="none" stroke="#6c757d" d="M231.17,-347.46C264.78,-414.2 378,-639 378,-639 378,-639 428.12,-652.35 467.31,-662.79"/>
<polygon fill="#6c757d" stroke="#6c757d" points="466.63,-665.15 474.02,-664.58 467.89,-660.41 466.63,-665.15"/>
</g>
<!-- N60 -->
<g id="node61" class="node">
<title>N60</title>
<path fill="#f8f9fa" stroke="#ced4da" d="M540.5,-251C540.5,-251 487.75,-251 487.75,-251 481.75,-251 475.75,-245 475.75,-239 475.75,-239 475.75,-227 475.75,-227 475.75,-221 481.75,-215 487.75,-215 487.75,-215 540.5,-215 540.5,-215 546.5,-215 552.5,-221 552.5,-227 552.5,-227 552.5,-239 552.5,-239 552.5,-245 546.5,-251 540.5,-251"/>
<text text-anchor="middle" x="514.12" y="-231" font-family="Helvetica,Arial,sans-serif" font-size="10.00" fill="#212529">📄 default.nix</text>
</g>
<!-- N45&#45;&gt;N60 -->
<g id="edge60" class="edge">
<title>N45&#45;&gt;N60</title>
<path fill="none" stroke="#6c757d" d="M272.61,-312.28C327.64,-294.14 414.7,-265.44 467.6,-248.01"/>
<polygon fill="#6c757d" stroke="#6c757d" points="468.15,-250.4 474.03,-245.89 466.62,-245.75 468.15,-250.4"/>
</g>
<!-- N48 -->
<g id="node49" class="node">
<title>N48</title>
<path fill="#f8f9fa" stroke="#ced4da" d="M574.62,-59C574.62,-59 453.62,-59 453.62,-59 447.62,-59 441.62,-53 441.62,-47 441.62,-47 441.62,-35 441.62,-35 441.62,-29 447.62,-23 453.62,-23 453.62,-23 574.62,-23 574.62,-23 580.62,-23 586.62,-29 586.62,-35 586.62,-35 586.62,-47 586.62,-47 586.62,-53 580.62,-59 574.62,-59"/>
<text text-anchor="middle" x="514.12" y="-39" font-family="Helvetica,Arial,sans-serif" font-size="10.00" fill="#212529">📄 hardware&#45;configuration.nix</text>
</g>
<!-- N47&#45;&gt;N48 -->
<g id="edge61" class="edge">
<title>N47&#45;&gt;N48</title>
<path fill="none" stroke="#6c757d" d="M272.61,-41C316.76,-41 381.53,-41 432.73,-41"/>
<polygon fill="#6c757d" stroke="#6c757d" points="432.64,-43.45 439.64,-41 432.64,-38.55 432.64,-43.45"/>
</g>
<!-- N47&#45;&gt;N49 -->
<g id="edge62" class="edge">
<title>N47&#45;&gt;N49</title>
<path fill="none" stroke="#6c757d" d="M227.91,-59.38C246.88,-117.12 304,-291 304,-291 304,-291 378,-543 378,-543 378,-543 428.12,-556.35 467.31,-566.79"/>
<polygon fill="#6c757d" stroke="#6c757d" points="466.63,-569.15 474.02,-568.58 467.89,-564.41 466.63,-569.15"/>
</g>
<!-- N47&#45;&gt;N52 -->
<g id="edge63" class="edge">
<title>N47&#45;&gt;N52</title>
<path fill="none" stroke="#6c757d" d="M269.99,-59.49C315.86,-77.12 378,-101 378,-101 378,-101 428.12,-114.35 467.31,-124.79"/>
<polygon fill="#6c757d" stroke="#6c757d" points="466.63,-127.15 474.02,-126.58 467.89,-122.41 466.63,-127.15"/>
</g>
<!-- N47&#45;&gt;N54 -->
<g id="edge64" class="edge">
<title>N47&#45;&gt;N54</title>
<path fill="none" stroke="#6c757d" d="M227.91,-59.38C246.88,-117.12 304,-291 304,-291 304,-291 378,-800 378,-800 378,-800 431.47,-811.48 471.14,-819.99"/>
<polygon fill="#6c757d" stroke="#6c757d" points="470.54,-822.37 477.9,-821.44 471.57,-817.57 470.54,-822.37"/>
</g>
<!-- N47&#45;&gt;N56 -->
<g id="edge65" class="edge">
<title>N47&#45;&gt;N56</title>
<path fill="none" stroke="#6c757d" d="M227.91,-59.38C246.88,-117.12 304,-291 304,-291 304,-291 378,-735 378,-735 378,-735 429.33,-748.67 468.71,-759.17"/>
<polygon fill="#6c757d" stroke="#6c757d" points="468.06,-761.53 475.45,-760.96 469.32,-756.79 468.06,-761.53"/>
</g>
<!-- N47&#45;&gt;N57 -->
<g id="edge66" class="edge">
<title>N47&#45;&gt;N57</title>
<path fill="none" stroke="#6c757d" d="M227.91,-59.38C246.88,-117.12 304,-291 304,-291 304,-291 378,-639 378,-639 378,-639 428.12,-652.35 467.31,-662.79"/>
<polygon fill="#6c757d" stroke="#6c757d" points="466.63,-665.15 474.02,-664.58 467.89,-660.41 466.63,-665.15"/>
</g>
<!-- N47&#45;&gt;N60 -->
<g id="edge67" class="edge">
<title>N47&#45;&gt;N60</title>
<path fill="none" stroke="#6c757d" d="M240.09,-59.2C281.27,-100.35 378,-197 378,-197 378,-197 428.12,-210.35 467.31,-220.79"/>
<polygon fill="#6c757d" stroke="#6c757d" points="466.63,-223.15 474.02,-222.58 467.89,-218.41 466.63,-223.15"/>
</g>
<!-- N53 -->
<g id="node54" class="node">
<title>N53</title>
<path fill="#f8f9fa" stroke="#ced4da" d="M827.5,-847C827.5,-847 734.25,-847 734.25,-847 728.25,-847 722.25,-841 722.25,-835 722.25,-835 722.25,-823 722.25,-823 722.25,-817 728.25,-811 734.25,-811 734.25,-811 827.5,-811 827.5,-811 833.5,-811 839.5,-817 839.5,-823 839.5,-823 839.5,-835 839.5,-835 839.5,-841 833.5,-847 827.5,-847"/>
<text text-anchor="middle" x="780.88" y="-827" font-family="Helvetica,Arial,sans-serif" font-size="10.00" fill="#212529">📄 architecture&#45;dag.nix</text>
</g>
<!-- N54&#45;&gt;N53 -->
<g id="edge68" class="edge">
<title>N54&#45;&gt;N53</title>
<path fill="none" stroke="#6c757d" d="M548.66,-829C590,-829 661.22,-829 713.72,-829"/>
<polygon fill="#6c757d" stroke="#6c757d" points="713.46,-831.45 720.46,-829 713.46,-826.55 713.46,-831.45"/>
</g>
<!-- N59 -->
<g id="node60" class="node">
<title>N59</title>
<path fill="#f8f9fa" stroke="#ced4da" d="M804.62,-1001C804.62,-1001 757.12,-1001 757.12,-1001 751.12,-1001 745.12,-995 745.12,-989 745.12,-989 745.12,-977 745.12,-977 745.12,-971 751.12,-965 757.12,-965 757.12,-965 804.62,-965 804.62,-965 810.62,-965 816.62,-971 816.62,-977 816.62,-977 816.62,-989 816.62,-989 816.62,-995 810.62,-1001 804.62,-1001"/>
<text text-anchor="middle" x="780.88" y="-981" font-family="Helvetica,Arial,sans-serif" font-size="10.00" fill="#212529">📄 home.nix</text>
</g>
<!-- N58&#45;&gt;N59 -->
<g id="edge69" class="edge">
<title>N58&#45;&gt;N59</title>
<path fill="none" stroke="#6c757d" d="M552.78,-983C601.32,-983 685.57,-983 736.67,-983"/>
<polygon fill="#6c757d" stroke="#6c757d" points="736.37,-985.45 743.37,-983 736.37,-980.55 736.37,-985.45"/>
</g>
<!-- N61 -->
<g id="node62" class="node">
<title>N61</title>
<path fill="#f8f9fa" stroke="#ced4da" d="M804.62,-251C804.62,-251 757.12,-251 757.12,-251 751.12,-251 745.12,-245 745.12,-239 745.12,-239 745.12,-227 745.12,-227 745.12,-221 751.12,-215 757.12,-215 757.12,-215 804.62,-215 804.62,-215 810.62,-215 816.62,-221 816.62,-227 816.62,-227 816.62,-239 816.62,-239 816.62,-245 810.62,-251 804.62,-251"/>
<text text-anchor="middle" x="780.88" y="-231" font-family="Helvetica,Arial,sans-serif" font-size="10.00" fill="#212529">📄 home.nix</text>
</g>
<!-- N60&#45;&gt;N61 -->
<g id="edge70" class="edge">
<title>N60&#45;&gt;N61</title>
<path fill="none" stroke="#6c757d" d="M552.78,-233C601.32,-233 685.57,-233 736.67,-233"/>
<polygon fill="#6c757d" stroke="#6c757d" points="736.37,-235.45 743.37,-233 736.37,-230.55 736.37,-235.45"/>
</g>
</g>
</svg>
