<?xml version="1.0" encoding="UTF-8" standalone="no"?>
<!DOCTYPE svg PUBLIC "-//W3C//DTD SVG 1.1//EN"
 "http://www.w3.org/Graphics/SVG/1.1/DTD/svg11.dtd">
<!-- Generated by graphviz version 12.2.1 (0)
 -->
<!-- Title: NixOS Pages: 1 -->
<svg width="850pt" height="3806pt"
 viewBox="0.00 0.00 849.88 3806.00" xmlns="http://www.w3.org/2000/svg" xmlns:xlink="http://www.w3.org/1999/xlink">
<g id="graph0" class="graph" transform="scale(1 1) rotate(0) translate(4 3802)">
<title>NixOS</title>
<polygon fill="white" stroke="none" points="-4,4 -4,-3802 845.88,-3802 845.88,4 -4,4"/>
<g id="clust1" class="cluster">
<title>cluster_hosts_devcontainer</title>
<path fill="#e9ecef" stroke="#adb5bd" d="M158.25,-3700C158.25,-3700 283,-3700 283,-3700 289,-3700 295,-3706 295,-3712 295,-3712 295,-3778 295,-3778 295,-3784 289,-3790 283,-3790 283,-3790 158.25,-3790 158.25,-3790 152.25,-3790 146.25,-3784 146.25,-3778 146.25,-3778 146.25,-3712 146.25,-3712 146.25,-3706 152.25,-3700 158.25,-3700"/>
<text text-anchor="middle" x="220.62" y="-3774.6" font-family="Helvetica,sans-Serif" font-weight="bold" font-size="12.00" fill="#495057">📁 hosts/devcontainer</text>
</g>
<g id="clust2" class="cluster">
<title>cluster_hosts_homelab</title>
<path fill="#e9ecef" stroke="#adb5bd" d="M159.25,-3544C159.25,-3544 578.75,-3544 578.75,-3544 584.75,-3544 590.75,-3550 590.75,-3556 590.75,-3556 590.75,-3680 590.75,-3680 590.75,-3686 584.75,-3692 578.75,-3692 578.75,-3692 159.25,-3692 159.25,-3692 153.25,-3692 147.25,-3686 147.25,-3680 147.25,-3680 147.25,-3556 147.25,-3556 147.25,-3550 153.25,-3544 159.25,-3544"/>
<text text-anchor="middle" x="369" y="-3676.6" font-family="Helvetica,sans-Serif" font-weight="bold" font-size="12.00" fill="#495057">📁 hosts/homelab</text>
</g>
<g id="clust3" class="cluster">
<title>cluster_hosts_homelab_services_media</title>
<path fill="#e9ecef" stroke="#adb5bd" d="M397.5,-2750C397.5,-2750 589.75,-2750 589.75,-2750 595.75,-2750 601.75,-2756 601.75,-2762 601.75,-2762 601.75,-3524 601.75,-3524 601.75,-3530 595.75,-3536 589.75,-3536 589.75,-3536 397.5,-3536 397.5,-3536 391.5,-3536 385.5,-3530 385.5,-3524 385.5,-3524 385.5,-2762 385.5,-2762 385.5,-2756 391.5,-2750 397.5,-2750"/>
<text text-anchor="middle" x="493.62" y="-3520.6" font-family="Helvetica,sans-Serif" font-weight="bold" font-size="12.00" fill="#495057">📁 hosts/homelab/services/media</text>
</g>
<g id="clust4" class="cluster">
<title>cluster_hosts_homelab_services_monitoring</title>
<path fill="#e9ecef" stroke="#adb5bd" d="M383.62,-2188C383.62,-2188 603.62,-2188 603.62,-2188 609.62,-2188 615.62,-2194 615.62,-2200 615.62,-2200 615.62,-2730 615.62,-2730 615.62,-2736 609.62,-2742 603.62,-2742 603.62,-2742 383.62,-2742 383.62,-2742 377.62,-2742 371.62,-2736 371.62,-2730 371.62,-2730 371.62,-2200 371.62,-2200 371.62,-2194 377.62,-2188 383.62,-2188"/>
<text text-anchor="middle" x="493.62" y="-2726.6" font-family="Helvetica,sans-Serif" font-weight="bold" font-size="12.00" fill="#495057">📁 hosts/homelab/services/monitoring</text>
</g>
<g id="clust5" class="cluster">
<title>cluster_hosts_homelab_services_random</title>
<path fill="#e9ecef" stroke="#adb5bd" d="M392.62,-1452C392.62,-1452 594.62,-1452 594.62,-1452 600.62,-1452 606.62,-1458 606.62,-1464 606.62,-1464 606.62,-2168 606.62,-2168 606.62,-2174 600.62,-2180 594.62,-2180 594.62,-2180 392.62,-2180 392.62,-2180 386.62,-2180 380.62,-2174 380.62,-2168 380.62,-2168 380.62,-1464 380.62,-1464 380.62,-1458 386.62,-1452 392.62,-1452"/>
<text text-anchor="middle" x="493.62" y="-2164.6" font-family="Helvetica,sans-Serif" font-weight="bold" font-size="12.00" fill="#495057">📁 hosts/homelab/services/random</text>
</g>
<g id="clust6" class="cluster">
<title>cluster_hosts_homelab_services_security</title>
<path fill="#e9ecef" stroke="#adb5bd" d="M392.62,-1064C392.62,-1064 594.62,-1064 594.62,-1064 600.62,-1064 606.62,-1070 606.62,-1076 606.62,-1076 606.62,-1432 606.62,-1432 606.62,-1438 600.62,-1444 594.62,-1444 594.62,-1444 392.62,-1444 392.62,-1444 386.62,-1444 380.62,-1438 380.62,-1432 380.62,-1432 380.62,-1076 380.62,-1076 380.62,-1070 386.62,-1064 392.62,-1064"/>
<text text-anchor="middle" x="493.62" y="-1428.6" font-family="Helvetica,sans-Serif" font-weight="bold" font-size="12.00" fill="#495057">📁 hosts/homelab/services/security</text>
</g>
<g id="clust7" class="cluster">
<title>cluster_hosts_perso</title>
<path fill="#e9ecef" stroke="#adb5bd" d="M159.25,-302C159.25,-302 578.75,-302 578.75,-302 584.75,-302 590.75,-308 590.75,-314 590.75,-314 590.75,-380 590.75,-380 590.75,-386 584.75,-392 578.75,-392 578.75,-392 159.25,-392 159.25,-392 153.25,-392 147.25,-386 147.25,-380 147.25,-380 147.25,-314 147.25,-314 147.25,-308 153.25,-302 159.25,-302"/>
<text text-anchor="middle" x="369" y="-376.6" font-family="Helvetica,sans-Serif" font-weight="bold" font-size="12.00" fill="#495057">📁 hosts/perso</text>
</g>
<g id="clust8" class="cluster">
<title>cluster_hosts_portable</title>
<path fill="#e9ecef" stroke="#adb5bd" d="M159.25,-8C159.25,-8 578.75,-8 578.75,-8 584.75,-8 590.75,-14 590.75,-20 590.75,-20 590.75,-86 590.75,-86 590.75,-92 584.75,-98 578.75,-98 578.75,-98 159.25,-98 159.25,-98 153.25,-98 147.25,-92 147.25,-86 147.25,-86 147.25,-20 147.25,-20 147.25,-14 153.25,-8 159.25,-8"/>
<text text-anchor="middle" x="369" y="-82.6" font-family="Helvetica,sans-Serif" font-weight="bold" font-size="12.00" fill="#495057">📁 hosts/portable</text>
</g>
<g id="clust9" class="cluster">
<title>cluster_modules_dev</title>
<path fill="#e9ecef" stroke="#adb5bd" d="M446.88,-556C446.88,-556 539.38,-556 539.38,-556 545.38,-556 551.38,-562 551.38,-568 551.38,-568 551.38,-634 551.38,-634 551.38,-640 545.38,-646 539.38,-646 539.38,-646 446.88,-646 446.88,-646 440.88,-646 434.88,-640 434.88,-634 434.88,-634 434.88,-568 434.88,-568 434.88,-562 440.88,-556 446.88,-556"/>
<text text-anchor="middle" x="493.12" y="-630.6" font-family="Helvetica,sans-Serif" font-weight="bold" font-size="12.00" fill="#495057">📁 modules/dev</text>
</g>
<g id="clust10" class="cluster">
<title>cluster_modules_gaming</title>
<path fill="#e9ecef" stroke="#adb5bd" d="M438.38,-400C438.38,-400 548.88,-400 548.88,-400 554.88,-400 560.88,-406 560.88,-412 560.88,-412 560.88,-536 560.88,-536 560.88,-542 554.88,-548 548.88,-548 548.88,-548 438.38,-548 438.38,-548 432.38,-548 426.38,-542 426.38,-536 426.38,-536 426.38,-412 426.38,-412 426.38,-406 432.38,-400 438.38,-400"/>
<text text-anchor="middle" x="493.62" y="-532.6" font-family="Helvetica,sans-Serif" font-weight="bold" font-size="12.00" fill="#495057">📁 modules/gaming</text>
</g>
<g id="clust11" class="cluster">
<title>cluster_modules_hyprland</title>
<path fill="#e9ecef" stroke="#adb5bd" d="M434.62,-106C434.62,-106 552.62,-106 552.62,-106 558.62,-106 564.62,-112 564.62,-118 564.62,-118 564.62,-184 564.62,-184 564.62,-190 558.62,-196 552.62,-196 552.62,-196 434.62,-196 434.62,-196 428.62,-196 422.62,-190 422.62,-184 422.62,-184 422.62,-118 422.62,-118 422.62,-112 428.62,-106 434.62,-106"/>
<text text-anchor="middle" x="493.62" y="-180.6" font-family="Helvetica,sans-Serif" font-weight="bold" font-size="12.00" fill="#495057">📁 modules/hyprland</text>
</g>
<g id="clust12" class="cluster">
<title>cluster_modules_nixos</title>
<path fill="#e9ecef" stroke="#adb5bd" d="M449.12,-752C449.12,-752 821.88,-752 821.88,-752 827.88,-752 833.88,-758 833.88,-764 833.88,-764 833.88,-946 833.88,-946 833.88,-952 827.88,-958 821.88,-958 821.88,-958 449.12,-958 449.12,-958 443.12,-958 437.12,-952 437.12,-946 437.12,-946 437.12,-764 437.12,-764 437.12,-758 443.12,-752 449.12,-752"/>
<text text-anchor="middle" x="635.5" y="-942.6" font-family="Helvetica,sans-Serif" font-weight="bold" font-size="12.00" fill="#495057">📁 modules/nixos</text>
</g>
<g id="clust13" class="cluster">
<title>cluster_modules_terminal</title>
<path fill="#e9ecef" stroke="#adb5bd" d="M436.12,-654C436.12,-654 551.12,-654 551.12,-654 557.12,-654 563.12,-660 563.12,-666 563.12,-666 563.12,-732 563.12,-732 563.12,-738 557.12,-744 551.12,-744 551.12,-744 436.12,-744 436.12,-744 430.12,-744 424.12,-738 424.12,-732 424.12,-732 424.12,-666 424.12,-666 424.12,-660 430.12,-654 436.12,-654"/>
<text text-anchor="middle" x="493.62" y="-728.6" font-family="Helvetica,sans-Serif" font-weight="bold" font-size="12.00" fill="#495057">📁 modules/terminal</text>
</g>
<g id="clust14" class="cluster">
<title>cluster_users_arthur_homelab</title>
<path fill="#e9ecef" stroke="#adb5bd" d="M446.88,-966C446.88,-966 795.62,-966 795.62,-966 801.62,-966 807.62,-972 807.62,-978 807.62,-978 807.62,-1044 807.62,-1044 807.62,-1050 801.62,-1056 795.62,-1056 795.62,-1056 446.88,-1056 446.88,-1056 440.88,-1056 434.88,-1050 434.88,-1044 434.88,-1044 434.88,-978 434.88,-978 434.88,-972 440.88,-966 446.88,-966"/>
<text text-anchor="middle" x="621.25" y="-1040.6" font-family="Helvetica,sans-Serif" font-weight="bold" font-size="12.00" fill="#495057">📁 users/arthur&#45;homelab</text>
</g>
<g id="clust15" class="cluster">
<title>cluster_users_arthur_perso</title>
<path fill="#e9ecef" stroke="#adb5bd" d="M446.88,-204C446.88,-204 795.62,-204 795.62,-204 801.62,-204 807.62,-210 807.62,-216 807.62,-216 807.62,-282 807.62,-282 807.62,-288 801.62,-294 795.62,-294 795.62,-294 446.88,-294 446.88,-294 440.88,-294 434.88,-288 434.88,-282 434.88,-282 434.88,-216 434.88,-216 434.88,-210 440.88,-204 446.88,-204"/>
<text text-anchor="middle" x="621.25" y="-278.6" font-family="Helvetica,sans-Serif" font-weight="bold" font-size="12.00" fill="#495057">📁 users/arthur&#45;perso</text>
</g>
<!-- N0 -->
<g id="node1" class="node">
<title>N0</title>
<path fill="#f8f9fa" stroke="#ced4da" d="M63.25,-3595C63.25,-3595 12,-3595 12,-3595 6,-3595 0,-3589 0,-3583 0,-3583 0,-3571 0,-3571 0,-3565 6,-3559 12,-3559 12,-3559 63.25,-3559 63.25,-3559 69.25,-3559 75.25,-3565 75.25,-3571 75.25,-3571 75.25,-3583 75.25,-3583 75.25,-3589 69.25,-3595 63.25,-3595"/>
<text text-anchor="middle" x="37.62" y="-3574.62" font-family="Helvetica,Arial,sans-serif" font-size="10.00" fill="#212529">📄 flake.nix</text>
</g>
<!-- N1 -->
<g id="node2" class="node">
<title>N1</title>
<path fill="#f8f9fa" stroke="#ced4da" d="M251.38,-3751C251.38,-3751 188.88,-3751 188.88,-3751 182.88,-3751 176.88,-3745 176.88,-3739 176.88,-3739 176.88,-3727 176.88,-3727 176.88,-3721 182.88,-3715 188.88,-3715 188.88,-3715 251.38,-3715 251.38,-3715 257.38,-3715 263.38,-3721 263.38,-3727 263.38,-3727 263.38,-3739 263.38,-3739 263.38,-3745 257.38,-3751 251.38,-3751"/>
<text text-anchor="middle" x="220.12" y="-3730.62" font-family="Helvetica,Arial,sans-serif" font-size="10.00" fill="#212529">📄 default.nix</text>
</g>
<!-- N0&#45;&gt;N1 -->
<g id="edge1" class="edge">
<title>N0&#45;&gt;N1</title>
<path fill="none" stroke="#6c757d" d="M55.21,-3595.49C85.4,-3629.15 146.25,-3697 146.25,-3697 146.25,-3697 159.29,-3703.44 174.33,-3710.87"/>
<polygon fill="#6c757d" stroke="#6c757d" points="173.12,-3713 180.48,-3713.91 175.29,-3708.61 173.12,-3713"/>
</g>
<!-- N2 -->
<g id="node3" class="node">
<title>N2</title>
<path fill="#f8f9fa" stroke="#ced4da" d="M266,-3595C266,-3595 174.25,-3595 174.25,-3595 168.25,-3595 162.25,-3589 162.25,-3583 162.25,-3583 162.25,-3571 162.25,-3571 162.25,-3565 168.25,-3559 174.25,-3559 174.25,-3559 266,-3559 266,-3559 272,-3559 278,-3565 278,-3571 278,-3571 278,-3583 278,-3583 278,-3589 272,-3595 266,-3595"/>
<text text-anchor="middle" x="220.12" y="-3574.62" font-family="Helvetica,Arial,sans-serif" font-size="10.00" fill="#212529">📄 configuration.nix</text>
</g>
<!-- N0&#45;&gt;N2 -->
<g id="edge2" class="edge">
<title>N0&#45;&gt;N2</title>
<path fill="none" stroke="#6c757d" d="M75.59,-3577C98.02,-3577 127.29,-3577 153.54,-3577"/>
<polygon fill="#6c757d" stroke="#6c757d" points="153.43,-3579.45 160.43,-3577 153.43,-3574.55 153.43,-3579.45"/>
</g>
<!-- N3 -->
<g id="node4" class="node">
<title>N3</title>
<path fill="#f8f9fa" stroke="#ced4da" d="M257.75,-3653C257.75,-3653 182.5,-3653 182.5,-3653 176.5,-3653 170.5,-3647 170.5,-3641 170.5,-3641 170.5,-3629 170.5,-3629 170.5,-3623 176.5,-3617 182.5,-3617 182.5,-3617 257.75,-3617 257.75,-3617 263.75,-3617 269.75,-3623 269.75,-3629 269.75,-3629 269.75,-3641 269.75,-3641 269.75,-3647 263.75,-3653 257.75,-3653"/>
<text text-anchor="middle" x="220.12" y="-3632.62" font-family="Helvetica,Arial,sans-serif" font-size="10.00" fill="#212529">📄 constants.nix</text>
</g>
<!-- N0&#45;&gt;N3 -->
<g id="edge3" class="edge">
<title>N0&#45;&gt;N3</title>
<path fill="none" stroke="#6c757d" d="M75.59,-3588.88C100.57,-3596.9 134.04,-3607.66 162.38,-3616.77"/>
<polygon fill="#6c757d" stroke="#6c757d" points="161.37,-3619.01 168.78,-3618.82 162.87,-3614.35 161.37,-3619.01"/>
</g>
<!-- N45 -->
<g id="node46" class="node">
<title>N45</title>
<path fill="#f8f9fa" stroke="#ced4da" d="M266,-353C266,-353 174.25,-353 174.25,-353 168.25,-353 162.25,-347 162.25,-341 162.25,-341 162.25,-329 162.25,-329 162.25,-323 168.25,-317 174.25,-317 174.25,-317 266,-317 266,-317 272,-317 278,-323 278,-329 278,-329 278,-341 278,-341 278,-347 272,-353 266,-353"/>
<text text-anchor="middle" x="220.12" y="-332.62" font-family="Helvetica,Arial,sans-serif" font-size="10.00" fill="#212529">📄 configuration.nix</text>
</g>
<!-- N0&#45;&gt;N45 -->
<g id="edge4" class="edge">
<title>N0&#45;&gt;N45</title>
<path fill="none" stroke="#6c757d" d="M39.64,-3558.77C53.33,-3312.82 201.22,-656.63 217.64,-361.58"/>
<polygon fill="#6c757d" stroke="#6c757d" points="220.09,-361.82 218.03,-354.69 215.19,-361.54 220.09,-361.82"/>
</g>
<!-- N47 -->
<g id="node48" class="node">
<title>N47</title>
<path fill="#f8f9fa" stroke="#ced4da" d="M266,-59C266,-59 174.25,-59 174.25,-59 168.25,-59 162.25,-53 162.25,-47 162.25,-47 162.25,-35 162.25,-35 162.25,-29 168.25,-23 174.25,-23 174.25,-23 266,-23 266,-23 272,-23 278,-29 278,-35 278,-35 278,-47 278,-47 278,-53 272,-59 266,-59"/>
<text text-anchor="middle" x="220.12" y="-38.62" font-family="Helvetica,Arial,sans-serif" font-size="10.00" fill="#212529">📄 configuration.nix</text>
</g>
<!-- N0&#45;&gt;N47 -->
<g id="edge5" class="edge">
<title>N0&#45;&gt;N47</title>
<path fill="none" stroke="#6c757d" d="M39.23,-3558.55C47.88,-3295.05 146.25,-297 146.25,-297 146.25,-297 193.08,-132.48 211.66,-67.22"/>
<polygon fill="#6c757d" stroke="#6c757d" points="213.91,-68.27 213.47,-60.87 209.2,-66.93 213.91,-68.27"/>
</g>
<!-- N4 -->
<g id="node5" class="node">
<title>N4</title>
<path fill="#f8f9fa" stroke="#ced4da" d="M563.75,-3595C563.75,-3595 422.5,-3595 422.5,-3595 416.5,-3595 410.5,-3589 410.5,-3583 410.5,-3583 410.5,-3571 410.5,-3571 410.5,-3565 416.5,-3559 422.5,-3559 422.5,-3559 563.75,-3559 563.75,-3559 569.75,-3559 575.75,-3565 575.75,-3571 575.75,-3571 575.75,-3583 575.75,-3583 575.75,-3589 569.75,-3595 563.75,-3595"/>
<text text-anchor="middle" x="493.12" y="-3574.62" font-family="Helvetica,Arial,sans-serif" font-size="10.00" fill="#212529">📄 hardware&#45;configuration.nix</text>
</g>
<!-- N2&#45;&gt;N4 -->
<g id="edge6" class="edge">
<title>N2&#45;&gt;N4</title>
<path fill="none" stroke="#6c757d" d="M278.27,-3577C314.08,-3577 361.02,-3577 401.79,-3577"/>
<polygon fill="#6c757d" stroke="#6c757d" points="401.61,-3579.45 408.61,-3577 401.61,-3574.55 401.61,-3579.45"/>
</g>
<!-- N5 -->
<g id="node6" class="node">
<title>N5</title>
<path fill="#f8f9fa" stroke="#ced4da" d="M522.5,-3439C522.5,-3439 463.75,-3439 463.75,-3439 457.75,-3439 451.75,-3433 451.75,-3427 451.75,-3427 451.75,-3415 451.75,-3415 451.75,-3409 457.75,-3403 463.75,-3403 463.75,-3403 522.5,-3403 522.5,-3403 528.5,-3403 534.5,-3409 534.5,-3415 534.5,-3415 534.5,-3427 534.5,-3427 534.5,-3433 528.5,-3439 522.5,-3439"/>
<text text-anchor="middle" x="493.12" y="-3418.62" font-family="Helvetica,Arial,sans-serif" font-size="10.00" fill="#212529">📄 byparr.nix</text>
</g>
<!-- N2&#45;&gt;N5 -->
<g id="edge7" class="edge">
<title>N2&#45;&gt;N5</title>
<path fill="none" stroke="#6c757d" d="M243.01,-3558.53C284.75,-3523.31 371.62,-3450 371.62,-3450 371.62,-3450 409.98,-3440.77 443.41,-3432.72"/>
<polygon fill="#6c757d" stroke="#6c757d" points="443.63,-3435.19 449.86,-3431.17 442.48,-3430.43 443.63,-3435.19"/>
</g>
<!-- N6 -->
<g id="node7" class="node">
<title>N6</title>
<path fill="#f8f9fa" stroke="#ced4da" d="M557.75,-3497C557.75,-3497 428.5,-3497 428.5,-3497 422.5,-3497 416.5,-3491 416.5,-3485 416.5,-3485 416.5,-3473 416.5,-3473 416.5,-3467 422.5,-3461 428.5,-3461 428.5,-3461 557.75,-3461 557.75,-3461 563.75,-3461 569.75,-3467 569.75,-3473 569.75,-3473 569.75,-3485 569.75,-3485 569.75,-3491 563.75,-3497 557.75,-3497"/>
<text text-anchor="middle" x="493.12" y="-3476.62" font-family="Helvetica,Arial,sans-serif" font-size="10.00" fill="#212529">📄 filebrowser&#45;quantum.nix</text>
</g>
<!-- N2&#45;&gt;N6 -->
<g id="edge8" class="edge">
<title>N2&#45;&gt;N6</title>
<path fill="none" stroke="#6c757d" d="M272.1,-3558.57C317.99,-3541.97 385.43,-3517.58 433.53,-3500.19"/>
<polygon fill="#6c757d" stroke="#6c757d" points="434.21,-3502.55 439.96,-3497.87 432.54,-3497.94 434.21,-3502.55"/>
</g>
<!-- N7 -->
<g id="node8" class="node">
<title>N7</title>
<path fill="#f8f9fa" stroke="#ced4da" d="M525.5,-2801C525.5,-2801 460.75,-2801 460.75,-2801 454.75,-2801 448.75,-2795 448.75,-2789 448.75,-2789 448.75,-2777 448.75,-2777 448.75,-2771 454.75,-2765 460.75,-2765 460.75,-2765 525.5,-2765 525.5,-2765 531.5,-2765 537.5,-2771 537.5,-2777 537.5,-2777 537.5,-2789 537.5,-2789 537.5,-2795 531.5,-2801 525.5,-2801"/>
<text text-anchor="middle" x="493.12" y="-2780.62" font-family="Helvetica,Arial,sans-serif" font-size="10.00" fill="#212529">📄 immich.nix</text>
</g>
<!-- N2&#45;&gt;N7 -->
<g id="edge9" class="edge">
<title>N2&#45;&gt;N7</title>
<path fill="none" stroke="#6c757d" d="M224.7,-3558.84C247.49,-3443 371.62,-2812 371.62,-2812 371.62,-2812 407.49,-2803.37 440.09,-2795.52"/>
<polygon fill="#6c757d" stroke="#6c757d" points="440.58,-2797.93 446.81,-2793.91 439.43,-2793.16 440.58,-2797.93"/>
</g>
<!-- N8 -->
<g id="node9" class="node">
<title>N8</title>
<path fill="#f8f9fa" stroke="#ced4da" d="M523.62,-2859C523.62,-2859 462.62,-2859 462.62,-2859 456.62,-2859 450.62,-2853 450.62,-2847 450.62,-2847 450.62,-2835 450.62,-2835 450.62,-2829 456.62,-2823 462.62,-2823 462.62,-2823 523.62,-2823 523.62,-2823 529.62,-2823 535.62,-2829 535.62,-2835 535.62,-2835 535.62,-2847 535.62,-2847 535.62,-2853 529.62,-2859 523.62,-2859"/>
<text text-anchor="middle" x="493.12" y="-2838.62" font-family="Helvetica,Arial,sans-serif" font-size="10.00" fill="#212529">📄 jellyfin.nix</text>
</g>
<!-- N2&#45;&gt;N8 -->
<g id="edge10" class="edge">
<title>N2&#45;&gt;N8</title>
<path fill="none" stroke="#6c757d" d="M225,-3558.81C248.55,-3448.15 371.62,-2870 371.62,-2870 371.62,-2870 409.24,-2860.95 442.44,-2852.96"/>
<polygon fill="#6c757d" stroke="#6c757d" points="442.61,-2855.44 448.85,-2851.42 441.47,-2850.67 442.61,-2855.44"/>
</g>
<!-- N9 -->
<g id="node10" class="node">
<title>N9</title>
<path fill="#f8f9fa" stroke="#ced4da" d="M523.62,-2917C523.62,-2917 462.62,-2917 462.62,-2917 456.62,-2917 450.62,-2911 450.62,-2905 450.62,-2905 450.62,-2893 450.62,-2893 450.62,-2887 456.62,-2881 462.62,-2881 462.62,-2881 523.62,-2881 523.62,-2881 529.62,-2881 535.62,-2887 535.62,-2893 535.62,-2893 535.62,-2905 535.62,-2905 535.62,-2911 529.62,-2917 523.62,-2917"/>
<text text-anchor="middle" x="493.12" y="-2896.62" font-family="Helvetica,Arial,sans-serif" font-size="10.00" fill="#212529">📄 komga.nix</text>
</g>
<!-- N2&#45;&gt;N9 -->
<g id="edge11" class="edge">
<title>N2&#45;&gt;N9</title>
<path fill="none" stroke="#6c757d" d="M225.39,-3558.62C249.88,-3453.01 371.62,-2928 371.62,-2928 371.62,-2928 409.24,-2918.95 442.44,-2910.96"/>
<polygon fill="#6c757d" stroke="#6c757d" points="442.61,-2913.44 448.85,-2909.42 441.47,-2908.67 442.61,-2913.44"/>
</g>
<!-- N10 -->
<g id="node11" class="node">
<title>N10</title>
<path fill="#f8f9fa" stroke="#ced4da" d="M531.12,-2975C531.12,-2975 455.12,-2975 455.12,-2975 449.12,-2975 443.12,-2969 443.12,-2963 443.12,-2963 443.12,-2951 443.12,-2951 443.12,-2945 449.12,-2939 455.12,-2939 455.12,-2939 531.12,-2939 531.12,-2939 537.12,-2939 543.12,-2945 543.12,-2951 543.12,-2951 543.12,-2963 543.12,-2963 543.12,-2969 537.12,-2975 531.12,-2975"/>
<text text-anchor="middle" x="493.12" y="-2954.62" font-family="Helvetica,Arial,sans-serif" font-size="10.00" fill="#212529">📄 onlyoffice.nix</text>
</g>
<!-- N2&#45;&gt;N10 -->
<g id="edge12" class="edge">
<title>N2&#45;&gt;N10</title>
<path fill="none" stroke="#6c757d" d="M225.79,-3558.66C251.2,-3458.91 371.62,-2986 371.62,-2986 371.62,-2986 403.53,-2978.32 434.51,-2970.87"/>
<polygon fill="#6c757d" stroke="#6c757d" points="435.06,-2973.25 441.29,-2969.23 433.91,-2968.49 435.06,-2973.25"/>
</g>
<!-- N11 -->
<g id="node12" class="node">
<title>N11</title>
<path fill="#f8f9fa" stroke="#ced4da" d="M527,-3033C527,-3033 459.25,-3033 459.25,-3033 453.25,-3033 447.25,-3027 447.25,-3021 447.25,-3021 447.25,-3009 447.25,-3009 447.25,-3003 453.25,-2997 459.25,-2997 459.25,-2997 527,-2997 527,-2997 533,-2997 539,-3003 539,-3009 539,-3009 539,-3021 539,-3021 539,-3027 533,-3033 527,-3033"/>
<text text-anchor="middle" x="493.12" y="-3012.62" font-family="Helvetica,Arial,sans-serif" font-size="10.00" fill="#212529">📄 prowlarr.nix</text>
</g>
<!-- N2&#45;&gt;N11 -->
<g id="edge13" class="edge">
<title>N2&#45;&gt;N11</title>
<path fill="none" stroke="#6c757d" d="M226.31,-3558.65C252.77,-3464.93 371.62,-3044 371.62,-3044 371.62,-3044 406.55,-3035.59 438.8,-3027.83"/>
<polygon fill="#6c757d" stroke="#6c757d" points="439.21,-3030.26 445.44,-3026.24 438.06,-3025.49 439.21,-3030.26"/>
</g>
<!-- N12 -->
<g id="node13" class="node">
<title>N12</title>
<path fill="#f8f9fa" stroke="#ced4da" d="M533,-3091C533,-3091 453.25,-3091 453.25,-3091 447.25,-3091 441.25,-3085 441.25,-3079 441.25,-3079 441.25,-3067 441.25,-3067 441.25,-3061 447.25,-3055 453.25,-3055 453.25,-3055 533,-3055 533,-3055 539,-3055 545,-3061 545,-3067 545,-3067 545,-3079 545,-3079 545,-3085 539,-3091 533,-3091"/>
<text text-anchor="middle" x="493.12" y="-3070.62" font-family="Helvetica,Arial,sans-serif" font-size="10.00" fill="#212529">📄 qbittorrent.nix</text>
</g>
<!-- N2&#45;&gt;N12 -->
<g id="edge14" class="edge">
<title>N2&#45;&gt;N12</title>
<path fill="none" stroke="#6c757d" d="M226.93,-3558.67C254.59,-3471.38 371.62,-3102 371.62,-3102 371.62,-3102 402.43,-3094.59 432.89,-3087.26"/>
<polygon fill="#6c757d" stroke="#6c757d" points="433.32,-3089.67 439.55,-3085.65 432.17,-3084.91 433.32,-3089.67"/>
</g>
<!-- N13 -->
<g id="node14" class="node">
<title>N13</title>
<path fill="#f8f9fa" stroke="#ced4da" d="M528.12,-3149C528.12,-3149 458.12,-3149 458.12,-3149 452.12,-3149 446.12,-3143 446.12,-3137 446.12,-3137 446.12,-3125 446.12,-3125 446.12,-3119 452.12,-3113 458.12,-3113 458.12,-3113 528.12,-3113 528.12,-3113 534.12,-3113 540.12,-3119 540.12,-3125 540.12,-3125 540.12,-3137 540.12,-3137 540.12,-3143 534.12,-3149 528.12,-3149"/>
<text text-anchor="middle" x="493.12" y="-3128.62" font-family="Helvetica,Arial,sans-serif" font-size="10.00" fill="#212529">📄 recyclarr.nix</text>
</g>
<!-- N2&#45;&gt;N13 -->
<g id="edge15" class="edge">
<title>N2&#45;&gt;N13</title>
<path fill="none" stroke="#6c757d" d="M227.79,-3558.54C256.91,-3477.84 371.62,-3160 371.62,-3160 371.62,-3160 405.85,-3151.76 437.82,-3144.07"/>
<polygon fill="#6c757d" stroke="#6c757d" points="438.18,-3146.5 444.41,-3142.48 437.03,-3141.74 438.18,-3146.5"/>
</g>
<!-- N14 -->
<g id="node15" class="node">
<title>N14</title>
<path fill="#f8f9fa" stroke="#ced4da" d="M517.25,-3207C517.25,-3207 469,-3207 469,-3207 463,-3207 457,-3201 457,-3195 457,-3195 457,-3183 457,-3183 457,-3177 463,-3171 469,-3171 469,-3171 517.25,-3171 517.25,-3171 523.25,-3171 529.25,-3177 529.25,-3183 529.25,-3183 529.25,-3195 529.25,-3195 529.25,-3201 523.25,-3207 517.25,-3207"/>
<text text-anchor="middle" x="493.12" y="-3186.62" font-family="Helvetica,Arial,sans-serif" font-size="10.00" fill="#212529">📄 seer.nix</text>
</g>
<!-- N2&#45;&gt;N14 -->
<g id="edge16" class="edge">
<title>N2&#45;&gt;N14</title>
<path fill="none" stroke="#6c757d" d="M228.8,-3558.7C259.46,-3485.55 371.62,-3218 371.62,-3218 371.62,-3218 414.01,-3207.8 448.5,-3199.5"/>
<polygon fill="#6c757d" stroke="#6c757d" points="448.92,-3201.92 455.15,-3197.9 447.77,-3197.15 448.92,-3201.92"/>
</g>
<!-- N15 -->
<g id="node16" class="node">
<title>N15</title>
<path fill="#f8f9fa" stroke="#ced4da" d="M522.12,-3265C522.12,-3265 464.12,-3265 464.12,-3265 458.12,-3265 452.12,-3259 452.12,-3253 452.12,-3253 452.12,-3241 452.12,-3241 452.12,-3235 458.12,-3229 464.12,-3229 464.12,-3229 522.12,-3229 522.12,-3229 528.12,-3229 534.12,-3235 534.12,-3241 534.12,-3241 534.12,-3253 534.12,-3253 534.12,-3259 528.12,-3265 522.12,-3265"/>
<text text-anchor="middle" x="493.12" y="-3244.62" font-family="Helvetica,Arial,sans-serif" font-size="10.00" fill="#212529">📄 sonarr.nix</text>
</g>
<!-- N2&#45;&gt;N15 -->
<g id="edge17" class="edge">
<title>N2&#45;&gt;N15</title>
<path fill="none" stroke="#6c757d" d="M230.31,-3558.62C262.99,-3493.27 371.62,-3276 371.62,-3276 371.62,-3276 410.22,-3266.71 443.73,-3258.65"/>
<polygon fill="#6c757d" stroke="#6c757d" points="443.96,-3261.11 450.19,-3257.09 442.81,-3256.35 443.96,-3261.11"/>
</g>
<!-- N16 -->
<g id="node17" class="node">
<title>N16</title>
<path fill="#f8f9fa" stroke="#ced4da" d="M532.25,-3323C532.25,-3323 454,-3323 454,-3323 448,-3323 442,-3317 442,-3311 442,-3311 442,-3299 442,-3299 442,-3293 448,-3287 454,-3287 454,-3287 532.25,-3287 532.25,-3287 538.25,-3287 544.25,-3293 544.25,-3299 544.25,-3299 544.25,-3311 544.25,-3311 544.25,-3317 538.25,-3323 532.25,-3323"/>
<text text-anchor="middle" x="493.12" y="-3302.62" font-family="Helvetica,Arial,sans-serif" font-size="10.00" fill="#212529">📄 suwayomi.nix</text>
</g>
<!-- N2&#45;&gt;N16 -->
<g id="edge18" class="edge">
<title>N2&#45;&gt;N16</title>
<path fill="none" stroke="#6c757d" d="M232.44,-3558.74C267.44,-3502.22 371.62,-3334 371.62,-3334 371.62,-3334 402.87,-3326.48 433.54,-3319.1"/>
<polygon fill="#6c757d" stroke="#6c757d" points="434.02,-3321.5 440.25,-3317.48 432.87,-3316.74 434.02,-3321.5"/>
</g>
<!-- N17 -->
<g id="node18" class="node">
<title>N17</title>
<path fill="#f8f9fa" stroke="#ced4da" d="M522.88,-3381C522.88,-3381 463.38,-3381 463.38,-3381 457.38,-3381 451.38,-3375 451.38,-3369 451.38,-3369 451.38,-3357 451.38,-3357 451.38,-3351 457.38,-3345 463.38,-3345 463.38,-3345 522.88,-3345 522.88,-3345 528.88,-3345 534.88,-3351 534.88,-3357 534.88,-3357 534.88,-3369 534.88,-3369 534.88,-3375 528.88,-3381 522.88,-3381"/>
<text text-anchor="middle" x="493.12" y="-3360.62" font-family="Helvetica,Arial,sans-serif" font-size="10.00" fill="#212529">📄 tranga.nix</text>
</g>
<!-- N2&#45;&gt;N17 -->
<g id="edge19" class="edge">
<title>N2&#45;&gt;N17</title>
<path fill="none" stroke="#6c757d" d="M236.11,-3558.59C274.17,-3511.79 371.62,-3392 371.62,-3392 371.62,-3392 409.73,-3382.83 443.08,-3374.8"/>
<polygon fill="#6c757d" stroke="#6c757d" points="443.29,-3377.27 449.52,-3373.25 442.14,-3372.51 443.29,-3377.27"/>
</g>
<!-- N18 -->
<g id="node19" class="node">
<title>N18</title>
<path fill="#f8f9fa" stroke="#ced4da" d="M518.38,-2355C518.38,-2355 467.88,-2355 467.88,-2355 461.88,-2355 455.88,-2349 455.88,-2343 455.88,-2343 455.88,-2331 455.88,-2331 455.88,-2325 461.88,-2319 467.88,-2319 467.88,-2319 518.38,-2319 518.38,-2319 524.38,-2319 530.38,-2325 530.38,-2331 530.38,-2331 530.38,-2343 530.38,-2343 530.38,-2349 524.38,-2355 518.38,-2355"/>
<text text-anchor="middle" x="493.12" y="-2334.62" font-family="Helvetica,Arial,sans-serif" font-size="10.00" fill="#212529">📄 alloy.nix</text>
</g>
<!-- N2&#45;&gt;N18 -->
<g id="edge20" class="edge">
<title>N2&#45;&gt;N18</title>
<path fill="none" stroke="#6c757d" d="M223.37,-3558.94C242.09,-3408.3 371.62,-2366 371.62,-2366 371.62,-2366 413.24,-2355.99 447.56,-2347.73"/>
<polygon fill="#6c757d" stroke="#6c757d" points="447.94,-2350.15 454.17,-2346.13 446.79,-2345.39 447.94,-2350.15"/>
</g>
<!-- N19 -->
<g id="node20" class="node">
<title>N19</title>
<path fill="#f8f9fa" stroke="#ced4da" d="M531.88,-2413C531.88,-2413 454.38,-2413 454.38,-2413 448.38,-2413 442.38,-2407 442.38,-2401 442.38,-2401 442.38,-2389 442.38,-2389 442.38,-2383 448.38,-2377 454.38,-2377 454.38,-2377 531.88,-2377 531.88,-2377 537.88,-2377 543.88,-2383 543.88,-2389 543.88,-2389 543.88,-2401 543.88,-2401 543.88,-2407 537.88,-2413 531.88,-2413"/>
<text text-anchor="middle" x="493.12" y="-2392.62" font-family="Helvetica,Arial,sans-serif" font-size="10.00" fill="#212529">📄 borgmatic.nix</text>
</g>
<!-- N2&#45;&gt;N19 -->
<g id="edge21" class="edge">
<title>N2&#45;&gt;N19</title>
<path fill="none" stroke="#6c757d" d="M223.49,-3558.89C242.64,-3412.2 371.62,-2424 371.62,-2424 371.62,-2424 403.09,-2416.43 433.86,-2409.02"/>
<polygon fill="#6c757d" stroke="#6c757d" points="434.37,-2411.42 440.6,-2407.4 433.22,-2406.66 434.37,-2411.42"/>
</g>
<!-- N20 -->
<g id="node21" class="node">
<title>N20</title>
<path fill="#f8f9fa" stroke="#ced4da" d="M525.88,-2471C525.88,-2471 460.38,-2471 460.38,-2471 454.38,-2471 448.38,-2465 448.38,-2459 448.38,-2459 448.38,-2447 448.38,-2447 448.38,-2441 454.38,-2435 460.38,-2435 460.38,-2435 525.88,-2435 525.88,-2435 531.88,-2435 537.88,-2441 537.88,-2447 537.88,-2447 537.88,-2459 537.88,-2459 537.88,-2465 531.88,-2471 525.88,-2471"/>
<text text-anchor="middle" x="493.12" y="-2450.62" font-family="Helvetica,Arial,sans-serif" font-size="10.00" fill="#212529">📄 grafana.nix</text>
</g>
<!-- N2&#45;&gt;N20 -->
<g id="edge22" class="edge">
<title>N2&#45;&gt;N20</title>
<path fill="none" stroke="#6c757d" d="M223.61,-3558.91C243.18,-3416.54 371.62,-2482 371.62,-2482 371.62,-2482 407.25,-2473.43 439.76,-2465.6"/>
<polygon fill="#6c757d" stroke="#6c757d" points="440.24,-2468.01 446.47,-2463.99 439.09,-2463.24 440.24,-2468.01"/>
</g>
<!-- N21 -->
<g id="node22" class="node">
<title>N21</title>
<path fill="#f8f9fa" stroke="#ced4da" d="M516.12,-2529C516.12,-2529 470.12,-2529 470.12,-2529 464.12,-2529 458.12,-2523 458.12,-2517 458.12,-2517 458.12,-2505 458.12,-2505 458.12,-2499 464.12,-2493 470.12,-2493 470.12,-2493 516.12,-2493 516.12,-2493 522.12,-2493 528.12,-2499 528.12,-2505 528.12,-2505 528.12,-2517 528.12,-2517 528.12,-2523 522.12,-2529 516.12,-2529"/>
<text text-anchor="middle" x="493.12" y="-2508.62" font-family="Helvetica,Arial,sans-serif" font-size="10.00" fill="#212529">📄 loki.nix</text>
</g>
<!-- N2&#45;&gt;N21 -->
<g id="edge23" class="edge">
<title>N2&#45;&gt;N21</title>
<path fill="none" stroke="#6c757d" d="M223.8,-3558.56C243.99,-3419.43 371.62,-2540 371.62,-2540 371.62,-2540 415.05,-2529.55 449.76,-2521.2"/>
<polygon fill="#6c757d" stroke="#6c757d" points="450.21,-2523.61 456.45,-2519.59 449.07,-2518.84 450.21,-2523.61"/>
</g>
<!-- N22 -->
<g id="node23" class="node">
<title>N22</title>
<path fill="#f8f9fa" stroke="#ced4da" d="M525.88,-2587C525.88,-2587 460.38,-2587 460.38,-2587 454.38,-2587 448.38,-2581 448.38,-2575 448.38,-2575 448.38,-2563 448.38,-2563 448.38,-2557 454.38,-2551 460.38,-2551 460.38,-2551 525.88,-2551 525.88,-2551 531.88,-2551 537.88,-2557 537.88,-2563 537.88,-2563 537.88,-2575 537.88,-2575 537.88,-2581 531.88,-2587 525.88,-2587"/>
<text text-anchor="middle" x="493.12" y="-2566.62" font-family="Helvetica,Arial,sans-serif" font-size="10.00" fill="#212529">📄 netdata.nix</text>
</g>
<!-- N2&#45;&gt;N22 -->
<g id="edge24" class="edge">
<title>N2&#45;&gt;N22</title>
<path fill="none" stroke="#6c757d" d="M223.93,-3558.75C244.53,-3424.73 371.62,-2598 371.62,-2598 371.62,-2598 407.25,-2589.43 439.76,-2581.6"/>
<polygon fill="#6c757d" stroke="#6c757d" points="440.24,-2584.01 446.47,-2579.99 439.09,-2579.24 440.24,-2584.01"/>
</g>
<!-- N23 -->
<g id="node24" class="node">
<title>N23</title>
<path fill="#f8f9fa" stroke="#ced4da" d="M542.75,-2645C542.75,-2645 443.5,-2645 443.5,-2645 437.5,-2645 431.5,-2639 431.5,-2633 431.5,-2633 431.5,-2621 431.5,-2621 431.5,-2615 437.5,-2609 443.5,-2609 443.5,-2609 542.75,-2609 542.75,-2609 548.75,-2609 554.75,-2615 554.75,-2621 554.75,-2621 554.75,-2633 554.75,-2633 554.75,-2639 548.75,-2645 542.75,-2645"/>
<text text-anchor="middle" x="493.12" y="-2624.62" font-family="Helvetica,Arial,sans-serif" font-size="10.00" fill="#212529">📄 power&#45;monitor.nix</text>
</g>
<!-- N2&#45;&gt;N23 -->
<g id="edge25" class="edge">
<title>N2&#45;&gt;N23</title>
<path fill="none" stroke="#6c757d" d="M224.13,-3558.6C245.34,-3428.8 371.62,-2656 371.62,-2656 371.62,-2656 396.19,-2650.09 423.14,-2643.6"/>
<polygon fill="#6c757d" stroke="#6c757d" points="423.47,-2646.04 429.7,-2642.02 422.32,-2641.28 423.47,-2646.04"/>
</g>
<!-- N24 -->
<g id="node25" class="node">
<title>N24</title>
<path fill="#f8f9fa" stroke="#ced4da" d="M536.38,-2703C536.38,-2703 449.88,-2703 449.88,-2703 443.88,-2703 437.88,-2697 437.88,-2691 437.88,-2691 437.88,-2679 437.88,-2679 437.88,-2673 443.88,-2667 449.88,-2667 449.88,-2667 536.38,-2667 536.38,-2667 542.38,-2667 548.38,-2673 548.38,-2679 548.38,-2679 548.38,-2691 548.38,-2691 548.38,-2697 542.38,-2703 536.38,-2703"/>
<text text-anchor="middle" x="493.12" y="-2682.62" font-family="Helvetica,Arial,sans-serif" font-size="10.00" fill="#212529">📄 prometheus.nix</text>
</g>
<!-- N2&#45;&gt;N24 -->
<g id="edge26" class="edge">
<title>N2&#45;&gt;N24</title>
<path fill="none" stroke="#6c757d" d="M224.41,-3558.85C246.42,-3437.18 371.62,-2745 371.62,-2745 371.62,-2745 413.42,-2724.19 447.79,-2707.08"/>
<polygon fill="#6c757d" stroke="#6c757d" points="448.46,-2709.48 453.63,-2704.17 446.27,-2705.09 448.46,-2709.48"/>
</g>
<!-- N25 -->
<g id="node26" class="node">
<title>N25</title>
<path fill="#f8f9fa" stroke="#ced4da" d="M525.88,-2239C525.88,-2239 460.38,-2239 460.38,-2239 454.38,-2239 448.38,-2233 448.38,-2227 448.38,-2227 448.38,-2215 448.38,-2215 448.38,-2209 454.38,-2203 460.38,-2203 460.38,-2203 525.88,-2203 525.88,-2203 531.88,-2203 537.88,-2209 537.88,-2215 537.88,-2215 537.88,-2227 537.88,-2227 537.88,-2233 531.88,-2239 525.88,-2239"/>
<text text-anchor="middle" x="493.12" y="-2218.62" font-family="Helvetica,Arial,sans-serif" font-size="10.00" fill="#212529">📄 scrutiny.nix</text>
</g>
<!-- N2&#45;&gt;N25 -->
<g id="edge27" class="edge">
<title>N2&#45;&gt;N25</title>
<path fill="none" stroke="#6c757d" d="M223.2,-3558.75C241.27,-3399.36 371.62,-2250 371.62,-2250 371.62,-2250 407.25,-2241.43 439.76,-2233.6"/>
<polygon fill="#6c757d" stroke="#6c757d" points="440.24,-2236.01 446.47,-2231.99 439.09,-2231.24 440.24,-2236.01"/>
</g>
<!-- N26 -->
<g id="node27" class="node">
<title>N26</title>
<path fill="#f8f9fa" stroke="#ced4da" d="M539.75,-2297C539.75,-2297 446.5,-2297 446.5,-2297 440.5,-2297 434.5,-2291 434.5,-2285 434.5,-2285 434.5,-2273 434.5,-2273 434.5,-2267 440.5,-2261 446.5,-2261 446.5,-2261 539.75,-2261 539.75,-2261 545.75,-2261 551.75,-2267 551.75,-2273 551.75,-2273 551.75,-2285 551.75,-2285 551.75,-2291 545.75,-2297 539.75,-2297"/>
<text text-anchor="middle" x="493.12" y="-2276.62" font-family="Helvetica,Arial,sans-serif" font-size="10.00" fill="#212529">📄 uptime&#45;kuma.nix</text>
</g>
<!-- N2&#45;&gt;N26 -->
<g id="edge28" class="edge">
<title>N2&#45;&gt;N26</title>
<path fill="none" stroke="#6c757d" d="M223.31,-3558.57C241.82,-3402.52 371.62,-2308 371.62,-2308 371.62,-2308 398.19,-2301.61 426.37,-2294.82"/>
<polygon fill="#6c757d" stroke="#6c757d" points="426.64,-2297.28 432.87,-2293.26 425.5,-2292.52 426.64,-2297.28"/>
</g>
<!-- N27 -->
<g id="node28" class="node">
<title>N27</title>
<path fill="#f8f9fa" stroke="#ced4da" d="M545.75,-1619C545.75,-1619 440.5,-1619 440.5,-1619 434.5,-1619 428.5,-1613 428.5,-1607 428.5,-1607 428.5,-1595 428.5,-1595 428.5,-1589 434.5,-1583 440.5,-1583 440.5,-1583 545.75,-1583 545.75,-1583 551.75,-1583 557.75,-1589 557.75,-1595 557.75,-1595 557.75,-1607 557.75,-1607 557.75,-1613 551.75,-1619 545.75,-1619"/>
<text text-anchor="middle" x="493.12" y="-1598.62" font-family="Helvetica,Arial,sans-serif" font-size="10.00" fill="#212529">📄 crafty&#45;controller.nix</text>
</g>
<!-- N2&#45;&gt;N27 -->
<g id="edge29" class="edge">
<title>N2&#45;&gt;N27</title>
<path fill="none" stroke="#6c757d" d="M222.54,-3558.66C237.83,-3360.89 371.62,-1630 371.62,-1630 371.62,-1630 394.47,-1624.5 420.27,-1618.29"/>
<polygon fill="#6c757d" stroke="#6c757d" points="420.64,-1620.72 426.87,-1616.7 419.5,-1615.96 420.64,-1620.72"/>
</g>
<!-- N28 -->
<g id="node29" class="node">
<title>N28</title>
<path fill="#f8f9fa" stroke="#ced4da" d="M524.38,-1677C524.38,-1677 461.88,-1677 461.88,-1677 455.88,-1677 449.88,-1671 449.88,-1665 449.88,-1665 449.88,-1653 449.88,-1653 449.88,-1647 455.88,-1641 461.88,-1641 461.88,-1641 524.38,-1641 524.38,-1641 530.38,-1641 536.38,-1647 536.38,-1653 536.38,-1653 536.38,-1665 536.38,-1665 536.38,-1671 530.38,-1677 524.38,-1677"/>
<text text-anchor="middle" x="493.12" y="-1656.62" font-family="Helvetica,Arial,sans-serif" font-size="10.00" fill="#212529">📄 forgejo.nix</text>
</g>
<!-- N2&#45;&gt;N28 -->
<g id="edge30" class="edge">
<title>N2&#45;&gt;N28</title>
<path fill="none" stroke="#6c757d" d="M222.59,-3558.61C238.11,-3363.86 371.62,-1688 371.62,-1688 371.62,-1688 408.44,-1679.14 441.38,-1671.21"/>
<polygon fill="#6c757d" stroke="#6c757d" points="441.94,-1673.6 448.17,-1669.58 440.79,-1668.83 441.94,-1673.6"/>
</g>
<!-- N29 -->
<g id="node30" class="node">
<title>N29</title>
<path fill="#f8f9fa" stroke="#ced4da" d="M533,-1735C533,-1735 453.25,-1735 453.25,-1735 447.25,-1735 441.25,-1729 441.25,-1723 441.25,-1723 441.25,-1711 441.25,-1711 441.25,-1705 447.25,-1699 453.25,-1699 453.25,-1699 533,-1699 533,-1699 539,-1699 545,-1705 545,-1711 545,-1711 545,-1723 545,-1723 545,-1729 539,-1735 533,-1735"/>
<text text-anchor="middle" x="493.12" y="-1714.62" font-family="Helvetica,Arial,sans-serif" font-size="10.00" fill="#212529">📄 homepage.nix</text>
</g>
<!-- N2&#45;&gt;N29 -->
<g id="edge31" class="edge">
<title>N2&#45;&gt;N29</title>
<path fill="none" stroke="#6c757d" d="M222.64,-3558.58C238.38,-3367.03 371.62,-1746 371.62,-1746 371.62,-1746 402.43,-1738.59 432.89,-1731.26"/>
<polygon fill="#6c757d" stroke="#6c757d" points="433.32,-1733.67 439.55,-1729.65 432.17,-1728.91 433.32,-1733.67"/>
</g>
<!-- N30 -->
<g id="node31" class="node">
<title>N30</title>
<path fill="#f8f9fa" stroke="#ced4da" d="M538.25,-1793C538.25,-1793 448,-1793 448,-1793 442,-1793 436,-1787 436,-1781 436,-1781 436,-1769 436,-1769 436,-1763 442,-1757 448,-1757 448,-1757 538.25,-1757 538.25,-1757 544.25,-1757 550.25,-1763 550.25,-1769 550.25,-1769 550.25,-1781 550.25,-1781 550.25,-1787 544.25,-1793 538.25,-1793"/>
<text text-anchor="middle" x="493.12" y="-1772.62" font-family="Helvetica,Arial,sans-serif" font-size="10.00" fill="#212529">📄 local&#45;finance.nix</text>
</g>
<!-- N2&#45;&gt;N30 -->
<g id="edge32" class="edge">
<title>N2&#45;&gt;N30</title>
<path fill="none" stroke="#6c757d" d="M222.69,-3558.58C238.66,-3370.43 371.62,-1804 371.62,-1804 371.62,-1804 399,-1797.41 427.66,-1790.51"/>
<polygon fill="#6c757d" stroke="#6c757d" points="428.05,-1792.94 434.28,-1788.92 426.91,-1788.18 428.05,-1792.94"/>
</g>
<!-- N31 -->
<g id="node32" class="node">
<title>N31</title>
<path fill="#f8f9fa" stroke="#ced4da" d="M516.12,-1851C516.12,-1851 470.12,-1851 470.12,-1851 464.12,-1851 458.12,-1845 458.12,-1839 458.12,-1839 458.12,-1827 458.12,-1827 458.12,-1821 464.12,-1815 470.12,-1815 470.12,-1815 516.12,-1815 516.12,-1815 522.12,-1815 528.12,-1821 528.12,-1827 528.12,-1827 528.12,-1839 528.12,-1839 528.12,-1845 522.12,-1851 516.12,-1851"/>
<text text-anchor="middle" x="493.12" y="-1830.62" font-family="Helvetica,Arial,sans-serif" font-size="10.00" fill="#212529">📄 n8n.nix</text>
</g>
<!-- N2&#45;&gt;N31 -->
<g id="edge33" class="edge">
<title>N2&#45;&gt;N31</title>
<path fill="none" stroke="#6c757d" d="M222.74,-3558.61C238.94,-3374.04 371.62,-1862 371.62,-1862 371.62,-1862 415.05,-1851.55 449.76,-1843.2"/>
<polygon fill="#6c757d" stroke="#6c757d" points="450.21,-1845.61 456.45,-1841.59 449.07,-1840.84 450.21,-1845.61"/>
</g>
<!-- N32 -->
<g id="node33" class="node">
<title>N32</title>
<path fill="#f8f9fa" stroke="#ced4da" d="M522.5,-1909C522.5,-1909 463.75,-1909 463.75,-1909 457.75,-1909 451.75,-1903 451.75,-1897 451.75,-1897 451.75,-1885 451.75,-1885 451.75,-1879 457.75,-1873 463.75,-1873 463.75,-1873 522.5,-1873 522.5,-1873 528.5,-1873 534.5,-1879 534.5,-1885 534.5,-1885 534.5,-1897 534.5,-1897 534.5,-1903 528.5,-1909 522.5,-1909"/>
<text text-anchor="middle" x="493.12" y="-1888.62" font-family="Helvetica,Arial,sans-serif" font-size="10.00" fill="#212529">📄 quartz.nix</text>
</g>
<!-- N2&#45;&gt;N32 -->
<g id="edge34" class="edge">
<title>N2&#45;&gt;N32</title>
<path fill="none" stroke="#6c757d" d="M222.79,-3558.67C239.21,-3377.87 371.62,-1920 371.62,-1920 371.62,-1920 409.98,-1910.77 443.41,-1902.72"/>
<polygon fill="#6c757d" stroke="#6c757d" points="443.63,-1905.19 449.86,-1901.17 442.48,-1900.43 443.63,-1905.19"/>
</g>
<!-- N33 -->
<g id="node34" class="node">
<title>N33</title>
<path fill="#f8f9fa" stroke="#ced4da" d="M521.75,-1967C521.75,-1967 464.5,-1967 464.5,-1967 458.5,-1967 452.5,-1961 452.5,-1955 452.5,-1955 452.5,-1943 452.5,-1943 452.5,-1937 458.5,-1931 464.5,-1931 464.5,-1931 521.75,-1931 521.75,-1931 527.75,-1931 533.75,-1937 533.75,-1943 533.75,-1943 533.75,-1955 533.75,-1955 533.75,-1961 527.75,-1967 521.75,-1967"/>
<text text-anchor="middle" x="493.12" y="-1946.62" font-family="Helvetica,Arial,sans-serif" font-size="10.00" fill="#212529">📄 romm.nix</text>
</g>
<!-- N2&#45;&gt;N33 -->
<g id="edge35" class="edge">
<title>N2&#45;&gt;N33</title>
<path fill="none" stroke="#6c757d" d="M222.84,-3558.77C239.49,-3381.91 371.62,-1978 371.62,-1978 371.62,-1978 410.47,-1968.65 444.05,-1960.57"/>
<polygon fill="#6c757d" stroke="#6c757d" points="444.3,-1963.03 450.53,-1959.01 443.15,-1958.27 444.3,-1963.03"/>
</g>
<!-- N34 -->
<g id="node35" class="node">
<title>N34</title>
<path fill="#f8f9fa" stroke="#ced4da" d="M552.12,-2025C552.12,-2025 434.12,-2025 434.12,-2025 428.12,-2025 422.12,-2019 422.12,-2013 422.12,-2013 422.12,-2001 422.12,-2001 422.12,-1995 428.12,-1989 434.12,-1989 434.12,-1989 552.12,-1989 552.12,-1989 558.12,-1989 564.12,-1995 564.12,-2001 564.12,-2001 564.12,-2013 564.12,-2013 564.12,-2019 558.12,-2025 552.12,-2025"/>
<text text-anchor="middle" x="493.12" y="-2004.62" font-family="Helvetica,Arial,sans-serif" font-size="10.00" fill="#212529">📄 security&#45;watchdog.nix</text>
</g>
<!-- N2&#45;&gt;N34 -->
<g id="edge36" class="edge">
<title>N2&#45;&gt;N34</title>
<path fill="none" stroke="#6c757d" d="M222.92,-3558.62C239.9,-3384.76 371.62,-2036 371.62,-2036 371.62,-2036 390.58,-2031.44 413.45,-2025.93"/>
<polygon fill="#6c757d" stroke="#6c757d" points="413.98,-2028.33 420.21,-2024.31 412.83,-2023.56 413.98,-2028.33"/>
</g>
<!-- N35 -->
<g id="node36" class="node">
<title>N35</title>
<path fill="#f8f9fa" stroke="#ced4da" d="M533.38,-2083C533.38,-2083 452.88,-2083 452.88,-2083 446.88,-2083 440.88,-2077 440.88,-2071 440.88,-2071 440.88,-2059 440.88,-2059 440.88,-2053 446.88,-2047 452.88,-2047 452.88,-2047 533.38,-2047 533.38,-2047 539.38,-2047 545.38,-2053 545.38,-2059 545.38,-2059 545.38,-2071 545.38,-2071 545.38,-2077 539.38,-2083 533.38,-2083"/>
<text text-anchor="middle" x="493.12" y="-2062.62" font-family="Helvetica,Arial,sans-serif" font-size="10.00" fill="#212529">📄 stirling&#45;pdf.nix</text>
</g>
<!-- N2&#45;&gt;N35 -->
<g id="edge37" class="edge">
<title>N2&#45;&gt;N35</title>
<path fill="none" stroke="#6c757d" d="M223,-3558.52C240.31,-3387.93 371.62,-2094 371.62,-2094 371.62,-2094 402.21,-2086.64 432.56,-2079.33"/>
<polygon fill="#6c757d" stroke="#6c757d" points="432.97,-2081.76 439.2,-2077.74 431.82,-2076.99 432.97,-2081.76"/>
</g>
<!-- N36 -->
<g id="node37" class="node">
<title>N36</title>
<path fill="#f8f9fa" stroke="#ced4da" d="M516.88,-2141C516.88,-2141 469.38,-2141 469.38,-2141 463.38,-2141 457.38,-2135 457.38,-2129 457.38,-2129 457.38,-2117 457.38,-2117 457.38,-2111 463.38,-2105 469.38,-2105 469.38,-2105 516.88,-2105 516.88,-2105 522.88,-2105 528.88,-2111 528.88,-2117 528.88,-2117 528.88,-2129 528.88,-2129 528.88,-2135 522.88,-2141 516.88,-2141"/>
<text text-anchor="middle" x="493.12" y="-2120.62" font-family="Helvetica,Arial,sans-serif" font-size="10.00" fill="#212529">📄 vert.nix</text>
</g>
<!-- N2&#45;&gt;N36 -->
<g id="edge38" class="edge">
<title>N2&#45;&gt;N36</title>
<path fill="none" stroke="#6c757d" d="M223.11,-3558.61C240.86,-3394.2 371.62,-2183 371.62,-2183 371.62,-2183 414.99,-2161.41 449.69,-2144.13"/>
<polygon fill="#6c757d" stroke="#6c757d" points="450.42,-2146.5 455.59,-2141.19 448.23,-2142.12 450.42,-2146.5"/>
</g>
<!-- N37 -->
<g id="node38" class="node">
<title>N37</title>
<path fill="#f8f9fa" stroke="#ced4da" d="M524.75,-1503C524.75,-1503 461.5,-1503 461.5,-1503 455.5,-1503 449.5,-1497 449.5,-1491 449.5,-1491 449.5,-1479 449.5,-1479 449.5,-1473 455.5,-1467 461.5,-1467 461.5,-1467 524.75,-1467 524.75,-1467 530.75,-1467 536.75,-1473 536.75,-1479 536.75,-1479 536.75,-1491 536.75,-1491 536.75,-1497 530.75,-1503 524.75,-1503"/>
<text text-anchor="middle" x="493.12" y="-1482.62" font-family="Helvetica,Arial,sans-serif" font-size="10.00" fill="#212529">📄 vikunja.nix</text>
</g>
<!-- N2&#45;&gt;N37 -->
<g id="edge39" class="edge">
<title>N2&#45;&gt;N37</title>
<path fill="none" stroke="#6c757d" d="M222.47,-3558.54C237.41,-3353.72 371.62,-1514 371.62,-1514 371.62,-1514 408.2,-1505.2 441.05,-1497.29"/>
<polygon fill="#6c757d" stroke="#6c757d" points="441.6,-1499.68 447.83,-1495.66 440.45,-1494.92 441.6,-1499.68"/>
</g>
<!-- N38 -->
<g id="node39" class="node">
<title>N38</title>
<path fill="#f8f9fa" stroke="#ced4da" d="M529.62,-1561C529.62,-1561 456.62,-1561 456.62,-1561 450.62,-1561 444.62,-1555 444.62,-1549 444.62,-1549 444.62,-1537 444.62,-1537 444.62,-1531 450.62,-1525 456.62,-1525 456.62,-1525 529.62,-1525 529.62,-1525 535.62,-1525 541.62,-1531 541.62,-1537 541.62,-1537 541.62,-1549 541.62,-1549 541.62,-1555 535.62,-1561 529.62,-1561"/>
<text text-anchor="middle" x="493.12" y="-1540.62" font-family="Helvetica,Arial,sans-serif" font-size="10.00" fill="#212529">📄 wanderer.nix</text>
</g>
<!-- N2&#45;&gt;N38 -->
<g id="edge40" class="edge">
<title>N2&#45;&gt;N38</title>
<path fill="none" stroke="#6c757d" d="M222.5,-3558.74C237.55,-3358.15 371.62,-1572 371.62,-1572 371.62,-1572 404.71,-1564.04 436.2,-1556.46"/>
<polygon fill="#6c757d" stroke="#6c757d" points="436.45,-1558.92 442.68,-1554.9 435.3,-1554.16 436.45,-1558.92"/>
</g>
<!-- N39 -->
<g id="node40" class="node">
<title>N39</title>
<path fill="#f8f9fa" stroke="#ced4da" d="M530.38,-1231C530.38,-1231 455.88,-1231 455.88,-1231 449.88,-1231 443.88,-1225 443.88,-1219 443.88,-1219 443.88,-1207 443.88,-1207 443.88,-1201 449.88,-1195 455.88,-1195 455.88,-1195 530.38,-1195 530.38,-1195 536.38,-1195 542.38,-1201 542.38,-1207 542.38,-1207 542.38,-1219 542.38,-1219 542.38,-1225 536.38,-1231 530.38,-1231"/>
<text text-anchor="middle" x="493.12" y="-1210.62" font-family="Helvetica,Arial,sans-serif" font-size="10.00" fill="#212529">📄 authentik.nix</text>
</g>
<!-- N2&#45;&gt;N39 -->
<g id="edge41" class="edge">
<title>N2&#45;&gt;N39</title>
<path fill="none" stroke="#6c757d" d="M222.31,-3558.54C236.44,-3339.38 371.62,-1242 371.62,-1242 371.62,-1242 404.25,-1234.15 435.55,-1226.62"/>
<polygon fill="#6c757d" stroke="#6c757d" points="435.76,-1229.09 441.99,-1225.07 434.61,-1224.32 435.76,-1229.09"/>
</g>
<!-- N40 -->
<g id="node41" class="node">
<title>N40</title>
<path fill="#f8f9fa" stroke="#ced4da" d="M521,-1289C521,-1289 465.25,-1289 465.25,-1289 459.25,-1289 453.25,-1283 453.25,-1277 453.25,-1277 453.25,-1265 453.25,-1265 453.25,-1259 459.25,-1253 465.25,-1253 465.25,-1253 521,-1253 521,-1253 527,-1253 533,-1259 533,-1265 533,-1265 533,-1277 533,-1277 533,-1283 527,-1289 521,-1289"/>
<text text-anchor="middle" x="493.12" y="-1268.62" font-family="Helvetica,Arial,sans-serif" font-size="10.00" fill="#212529">📄 caddy.nix</text>
</g>
<!-- N2&#45;&gt;N40 -->
<g id="edge42" class="edge">
<title>N2&#45;&gt;N40</title>
<path fill="none" stroke="#6c757d" d="M222.34,-3558.67C236.58,-3343.18 371.62,-1300 371.62,-1300 371.62,-1300 411.21,-1290.47 445.01,-1282.34"/>
<polygon fill="#6c757d" stroke="#6c757d" points="445.3,-1284.79 451.53,-1280.77 444.15,-1280.03 445.3,-1284.79"/>
</g>
<!-- N41 -->
<g id="node42" class="node">
<title>N41</title>
<path fill="#f8f9fa" stroke="#ced4da" d="M534.12,-1347C534.12,-1347 452.12,-1347 452.12,-1347 446.12,-1347 440.12,-1341 440.12,-1335 440.12,-1335 440.12,-1323 440.12,-1323 440.12,-1317 446.12,-1311 452.12,-1311 452.12,-1311 534.12,-1311 534.12,-1311 540.12,-1311 546.12,-1317 546.12,-1323 546.12,-1323 546.12,-1335 546.12,-1335 546.12,-1341 540.12,-1347 534.12,-1347"/>
<text text-anchor="middle" x="493.12" y="-1326.62" font-family="Helvetica,Arial,sans-serif" font-size="10.00" fill="#212529">📄 cloudflared.nix</text>
</g>
<!-- N2&#45;&gt;N41 -->
<g id="edge43" class="edge">
<title>N2&#45;&gt;N41</title>
<path fill="none" stroke="#6c757d" d="M222.36,-3558.81C236.72,-3347.08 371.62,-1358 371.62,-1358 371.62,-1358 401.78,-1350.74 431.91,-1343.49"/>
<polygon fill="#6c757d" stroke="#6c757d" points="432.27,-1345.93 438.5,-1341.91 431.12,-1341.16 432.27,-1345.93"/>
</g>
<!-- N42 -->
<g id="node43" class="node">
<title>N42</title>
<path fill="#f8f9fa" stroke="#ced4da" d="M555.88,-1405C555.88,-1405 430.38,-1405 430.38,-1405 424.38,-1405 418.38,-1399 418.38,-1393 418.38,-1393 418.38,-1381 418.38,-1381 418.38,-1375 424.38,-1369 430.38,-1369 430.38,-1369 555.88,-1369 555.88,-1369 561.88,-1369 567.88,-1375 567.88,-1381 567.88,-1381 567.88,-1393 567.88,-1393 567.88,-1399 561.88,-1405 555.88,-1405"/>
<text text-anchor="middle" x="493.12" y="-1384.62" font-family="Helvetica,Arial,sans-serif" font-size="10.00" fill="#212529">📄 docker&#45;socket&#45;proxy.nix</text>
</g>
<!-- N2&#45;&gt;N42 -->
<g id="edge44" class="edge">
<title>N2&#45;&gt;N42</title>
<path fill="none" stroke="#6c757d" d="M222.43,-3558.59C237.14,-3350.4 371.62,-1447 371.62,-1447 371.62,-1447 413.42,-1426.19 447.79,-1409.08"/>
<polygon fill="#6c757d" stroke="#6c757d" points="448.46,-1411.48 453.63,-1406.17 446.27,-1407.09 448.46,-1411.48"/>
</g>
<!-- N43 -->
<g id="node44" class="node">
<title>N43</title>
<path fill="#f8f9fa" stroke="#ced4da" d="M525.5,-1115C525.5,-1115 460.75,-1115 460.75,-1115 454.75,-1115 448.75,-1109 448.75,-1103 448.75,-1103 448.75,-1091 448.75,-1091 448.75,-1085 454.75,-1079 460.75,-1079 460.75,-1079 525.5,-1079 525.5,-1079 531.5,-1079 537.5,-1085 537.5,-1091 537.5,-1091 537.5,-1103 537.5,-1103 537.5,-1109 531.5,-1115 525.5,-1115"/>
<text text-anchor="middle" x="493.12" y="-1094.62" font-family="Helvetica,Arial,sans-serif" font-size="10.00" fill="#212529">📄 gluetun.nix</text>
</g>
<!-- N2&#45;&gt;N43 -->
<g id="edge45" class="edge">
<title>N2&#45;&gt;N43</title>
<path fill="none" stroke="#6c757d" d="M222.25,-3558.68C236.02,-3334.39 371.62,-1126 371.62,-1126 371.62,-1126 407.49,-1117.37 440.09,-1109.52"/>
<polygon fill="#6c757d" stroke="#6c757d" points="440.58,-1111.93 446.81,-1107.91 439.43,-1107.16 440.58,-1111.93"/>
</g>
<!-- N44 -->
<g id="node45" class="node">
<title>N44</title>
<path fill="#f8f9fa" stroke="#ced4da" d="M519.12,-1173C519.12,-1173 467.12,-1173 467.12,-1173 461.12,-1173 455.12,-1167 455.12,-1161 455.12,-1161 455.12,-1149 455.12,-1149 455.12,-1143 461.12,-1137 467.12,-1137 467.12,-1137 519.12,-1137 519.12,-1137 525.12,-1137 531.12,-1143 531.12,-1149 531.12,-1149 531.12,-1161 531.12,-1161 531.12,-1167 525.12,-1173 519.12,-1173"/>
<text text-anchor="middle" x="493.12" y="-1152.62" font-family="Helvetica,Arial,sans-serif" font-size="10.00" fill="#212529">📄 lldap.nix</text>
</g>
<!-- N2&#45;&gt;N44 -->
<g id="edge46" class="edge">
<title>N2&#45;&gt;N44</title>
<path fill="none" stroke="#6c757d" d="M222.27,-3558.77C236.16,-3337.91 371.62,-1184 371.62,-1184 371.62,-1184 412.47,-1174.17 446.6,-1165.96"/>
<polygon fill="#6c757d" stroke="#6c757d" points="446.95,-1168.39 453.19,-1164.37 445.81,-1163.63 446.95,-1168.39"/>
</g>
<!-- N49 -->
<g id="node50" class="node">
<title>N49</title>
<path fill="#f8f9fa" stroke="#ced4da" d="M524.38,-607C524.38,-607 461.88,-607 461.88,-607 455.88,-607 449.88,-601 449.88,-595 449.88,-595 449.88,-583 449.88,-583 449.88,-577 455.88,-571 461.88,-571 461.88,-571 524.38,-571 524.38,-571 530.38,-571 536.38,-577 536.38,-583 536.38,-583 536.38,-595 536.38,-595 536.38,-601 530.38,-607 524.38,-607"/>
<text text-anchor="middle" x="493.12" y="-586.62" font-family="Helvetica,Arial,sans-serif" font-size="10.00" fill="#212529">📄 default.nix</text>
</g>
<!-- N2&#45;&gt;N49 -->
<g id="edge47" class="edge">
<title>N2&#45;&gt;N49</title>
<path fill="none" stroke="#6c757d" d="M222.07,-3558.68C234.76,-3311.66 371.62,-649 371.62,-649 371.62,-649 413.42,-628.19 447.79,-611.08"/>
<polygon fill="#6c757d" stroke="#6c757d" points="448.46,-613.48 453.63,-608.17 446.27,-609.09 448.46,-613.48"/>
</g>
<!-- N54 -->
<g id="node55" class="node">
<title>N54</title>
<path fill="#f8f9fa" stroke="#ced4da" d="M518.75,-861C518.75,-861 467.5,-861 467.5,-861 461.5,-861 455.5,-855 455.5,-849 455.5,-849 455.5,-837 455.5,-837 455.5,-831 461.5,-825 467.5,-825 467.5,-825 518.75,-825 518.75,-825 524.75,-825 530.75,-831 530.75,-837 530.75,-837 530.75,-849 530.75,-849 530.75,-855 524.75,-861 518.75,-861"/>
<text text-anchor="middle" x="493.12" y="-840.62" font-family="Helvetica,Arial,sans-serif" font-size="10.00" fill="#212529">📄 base.nix</text>
</g>
<!-- N2&#45;&gt;N54 -->
<g id="edge48" class="edge">
<title>N2&#45;&gt;N54</title>
<path fill="none" stroke="#6c757d" d="M222.15,-3558.65C235.32,-3321.8 371.62,-872 371.62,-872 371.62,-872 412.98,-862.05 447.24,-853.8"/>
<polygon fill="#6c757d" stroke="#6c757d" points="447.61,-856.23 453.84,-852.21 446.47,-851.47 447.61,-856.23"/>
</g>
<!-- N55 -->
<g id="node56" class="node">
<title>N55</title>
<path fill="#f8f9fa" stroke="#ced4da" d="M522.12,-919C522.12,-919 464.12,-919 464.12,-919 458.12,-919 452.12,-913 452.12,-907 452.12,-907 452.12,-895 452.12,-895 452.12,-889 458.12,-883 464.12,-883 464.12,-883 522.12,-883 522.12,-883 528.12,-883 534.12,-889 534.12,-895 534.12,-895 534.12,-907 534.12,-907 534.12,-913 528.12,-919 522.12,-919"/>
<text text-anchor="middle" x="493.12" y="-898.62" font-family="Helvetica,Arial,sans-serif" font-size="10.00" fill="#212529">📄 server.nix</text>
</g>
<!-- N2&#45;&gt;N55 -->
<g id="edge49" class="edge">
<title>N2&#45;&gt;N55</title>
<path fill="none" stroke="#6c757d" d="M222.19,-3558.54C235.6,-3325.34 371.62,-961 371.62,-961 371.62,-961 413.42,-940.19 447.79,-923.08"/>
<polygon fill="#6c757d" stroke="#6c757d" points="448.46,-925.48 453.63,-920.17 446.27,-921.09 448.46,-925.48"/>
</g>
<!-- N57 -->
<g id="node58" class="node">
<title>N57</title>
<path fill="#f8f9fa" stroke="#ced4da" d="M524.38,-705C524.38,-705 461.88,-705 461.88,-705 455.88,-705 449.88,-699 449.88,-693 449.88,-693 449.88,-681 449.88,-681 449.88,-675 455.88,-669 461.88,-669 461.88,-669 524.38,-669 524.38,-669 530.38,-669 536.38,-675 536.38,-681 536.38,-681 536.38,-693 536.38,-693 536.38,-699 530.38,-705 524.38,-705"/>
<text text-anchor="middle" x="493.12" y="-684.62" font-family="Helvetica,Arial,sans-serif" font-size="10.00" fill="#212529">📄 default.nix</text>
</g>
<!-- N2&#45;&gt;N57 -->
<g id="edge50" class="edge">
<title>N2&#45;&gt;N57</title>
<path fill="none" stroke="#6c757d" d="M222.11,-3558.56C235.04,-3315.27 371.62,-747 371.62,-747 371.62,-747 413.42,-726.19 447.79,-709.08"/>
<polygon fill="#6c757d" stroke="#6c757d" points="448.46,-711.48 453.63,-706.17 446.27,-707.09 448.46,-711.48"/>
</g>
<!-- N58 -->
<g id="node59" class="node">
<title>N58</title>
<path fill="#f8f9fa" stroke="#ced4da" d="M524.38,-1017C524.38,-1017 461.88,-1017 461.88,-1017 455.88,-1017 449.88,-1011 449.88,-1005 449.88,-1005 449.88,-993 449.88,-993 449.88,-987 455.88,-981 461.88,-981 461.88,-981 524.38,-981 524.38,-981 530.38,-981 536.38,-987 536.38,-993 536.38,-993 536.38,-1005 536.38,-1005 536.38,-1011 530.38,-1017 524.38,-1017"/>
<text text-anchor="middle" x="493.12" y="-996.62" font-family="Helvetica,Arial,sans-serif" font-size="10.00" fill="#212529">📄 default.nix</text>
</g>
<!-- N2&#45;&gt;N58 -->
<g id="edge51" class="edge">
<title>N2&#45;&gt;N58</title>
<path fill="none" stroke="#6c757d" d="M222.23,-3558.53C235.88,-3330.09 371.62,-1059 371.62,-1059 371.62,-1059 413.42,-1038.19 447.79,-1021.08"/>
<polygon fill="#6c757d" stroke="#6c757d" points="448.46,-1023.48 453.63,-1018.17 446.27,-1019.09 448.46,-1023.48"/>
</g>
<!-- N46 -->
<g id="node47" class="node">
<title>N46</title>
<path fill="#f8f9fa" stroke="#ced4da" d="M563.75,-353C563.75,-353 422.5,-353 422.5,-353 416.5,-353 410.5,-347 410.5,-341 410.5,-341 410.5,-329 410.5,-329 410.5,-323 416.5,-317 422.5,-317 422.5,-317 563.75,-317 563.75,-317 569.75,-317 575.75,-323 575.75,-329 575.75,-329 575.75,-341 575.75,-341 575.75,-347 569.75,-353 563.75,-353"/>
<text text-anchor="middle" x="493.12" y="-332.62" font-family="Helvetica,Arial,sans-serif" font-size="10.00" fill="#212529">📄 hardware&#45;configuration.nix</text>
</g>
<!-- N45&#45;&gt;N46 -->
<g id="edge52" class="edge">
<title>N45&#45;&gt;N46</title>
<path fill="none" stroke="#6c757d" d="M278.27,-335C314.08,-335 361.02,-335 401.79,-335"/>
<polygon fill="#6c757d" stroke="#6c757d" points="401.61,-337.45 408.61,-335 401.61,-332.55 401.61,-337.45"/>
</g>
<!-- N45&#45;&gt;N49 -->
<g id="edge53" class="edge">
<title>N45&#45;&gt;N49</title>
<path fill="none" stroke="#6c757d" d="M233.7,-353.21C269.87,-405.61 371.62,-553 371.62,-553 371.62,-553 408.76,-564.09 441.8,-573.96"/>
<polygon fill="#6c757d" stroke="#6c757d" points="440.78,-576.22 448.19,-575.87 442.19,-571.52 440.78,-576.22"/>
</g>
<!-- N50 -->
<g id="node51" class="node">
<title>N50</title>
<path fill="#f8f9fa" stroke="#ced4da" d="M524.38,-451C524.38,-451 461.88,-451 461.88,-451 455.88,-451 449.88,-445 449.88,-439 449.88,-439 449.88,-427 449.88,-427 449.88,-421 455.88,-415 461.88,-415 461.88,-415 524.38,-415 524.38,-415 530.38,-415 536.38,-421 536.38,-427 536.38,-427 536.38,-439 536.38,-439 536.38,-445 530.38,-451 524.38,-451"/>
<text text-anchor="middle" x="493.12" y="-430.62" font-family="Helvetica,Arial,sans-serif" font-size="10.00" fill="#212529">📄 default.nix</text>
</g>
<!-- N45&#45;&gt;N50 -->
<g id="edge54" class="edge">
<title>N45&#45;&gt;N50</title>
<path fill="none" stroke="#6c757d" d="M265.87,-353.43C310.24,-371.71 371.62,-397 371.62,-397 371.62,-397 408.76,-408.09 441.8,-417.96"/>
<polygon fill="#6c757d" stroke="#6c757d" points="440.78,-420.22 448.19,-419.87 442.19,-415.52 440.78,-420.22"/>
</g>
<!-- N51 -->
<g id="node52" class="node">
<title>N51</title>
<path fill="#f8f9fa" stroke="#ced4da" d="M530.38,-509C530.38,-509 455.88,-509 455.88,-509 449.88,-509 443.88,-503 443.88,-497 443.88,-497 443.88,-485 443.88,-485 443.88,-479 449.88,-473 455.88,-473 455.88,-473 530.38,-473 530.38,-473 536.38,-473 542.38,-479 542.38,-485 542.38,-485 542.38,-497 542.38,-497 542.38,-503 536.38,-509 530.38,-509"/>
<text text-anchor="middle" x="493.12" y="-488.62" font-family="Helvetica,Arial,sans-serif" font-size="10.00" fill="#212529">📄 minecraft.nix</text>
</g>
<!-- N45&#45;&gt;N51 -->
<g id="edge55" class="edge">
<title>N45&#45;&gt;N51</title>
<path fill="none" stroke="#6c757d" d="M243.01,-353.47C284.75,-388.69 371.62,-462 371.62,-462 371.62,-462 404.25,-469.85 435.55,-477.38"/>
<polygon fill="#6c757d" stroke="#6c757d" points="434.61,-479.68 441.99,-478.93 435.76,-474.91 434.61,-479.68"/>
</g>
<!-- N52 -->
<g id="node53" class="node">
<title>N52</title>
<path fill="#f8f9fa" stroke="#ced4da" d="M524.38,-157C524.38,-157 461.88,-157 461.88,-157 455.88,-157 449.88,-151 449.88,-145 449.88,-145 449.88,-133 449.88,-133 449.88,-127 455.88,-121 461.88,-121 461.88,-121 524.38,-121 524.38,-121 530.38,-121 536.38,-127 536.38,-133 536.38,-133 536.38,-145 536.38,-145 536.38,-151 530.38,-157 524.38,-157"/>
<text text-anchor="middle" x="493.12" y="-136.62" font-family="Helvetica,Arial,sans-serif" font-size="10.00" fill="#212529">📄 default.nix</text>
</g>
<!-- N45&#45;&gt;N52 -->
<g id="edge56" class="edge">
<title>N45&#45;&gt;N52</title>
<path fill="none" stroke="#6c757d" d="M241.42,-316.66C282.5,-279.54 371.62,-199 371.62,-199 371.62,-199 413.42,-178.19 447.79,-161.08"/>
<polygon fill="#6c757d" stroke="#6c757d" points="448.46,-163.48 453.63,-158.17 446.27,-159.09 448.46,-163.48"/>
</g>
<!-- N45&#45;&gt;N54 -->
<g id="edge57" class="edge">
<title>N45&#45;&gt;N54</title>
<path fill="none" stroke="#6c757d" d="M226.93,-353.48C254.59,-441.51 371.62,-814 371.62,-814 371.62,-814 412.98,-823.95 447.24,-832.2"/>
<polygon fill="#6c757d" stroke="#6c757d" points="446.47,-834.53 453.84,-833.79 447.61,-829.77 446.47,-834.53"/>
</g>
<!-- N56 -->
<g id="node57" class="node">
<title>N56</title>
<path fill="#f8f9fa" stroke="#ced4da" d="M521.75,-803C521.75,-803 464.5,-803 464.5,-803 458.5,-803 452.5,-797 452.5,-791 452.5,-791 452.5,-779 452.5,-779 452.5,-773 458.5,-767 464.5,-767 464.5,-767 521.75,-767 521.75,-767 527.75,-767 533.75,-773 533.75,-779 533.75,-779 533.75,-791 533.75,-791 533.75,-797 527.75,-803 521.75,-803"/>
<text text-anchor="middle" x="493.12" y="-782.62" font-family="Helvetica,Arial,sans-serif" font-size="10.00" fill="#212529">📄 sound.nix</text>
</g>
<!-- N45&#45;&gt;N56 -->
<g id="edge58" class="edge">
<title>N45&#45;&gt;N56</title>
<path fill="none" stroke="#6c757d" d="M227.79,-353.32C256.91,-433.44 371.62,-749 371.62,-749 371.62,-749 410.47,-760.6 444.05,-770.64"/>
<polygon fill="#6c757d" stroke="#6c757d" points="443.14,-772.92 450.55,-772.58 444.54,-768.23 443.14,-772.92"/>
</g>
<!-- N45&#45;&gt;N57 -->
<g id="edge59" class="edge">
<title>N45&#45;&gt;N57</title>
<path fill="none" stroke="#6c757d" d="M229.87,-353.36C261.99,-420.8 371.62,-651 371.62,-651 371.62,-651 408.76,-662.09 441.8,-671.96"/>
<polygon fill="#6c757d" stroke="#6c757d" points="440.78,-674.22 448.19,-673.87 442.19,-669.52 440.78,-674.22"/>
</g>
<!-- N60 -->
<g id="node61" class="node">
<title>N60</title>
<path fill="#f8f9fa" stroke="#ced4da" d="M524.38,-255C524.38,-255 461.88,-255 461.88,-255 455.88,-255 449.88,-249 449.88,-243 449.88,-243 449.88,-231 449.88,-231 449.88,-225 455.88,-219 461.88,-219 461.88,-219 524.38,-219 524.38,-219 530.38,-219 536.38,-225 536.38,-231 536.38,-231 536.38,-243 536.38,-243 536.38,-249 530.38,-255 524.38,-255"/>
<text text-anchor="middle" x="493.12" y="-234.62" font-family="Helvetica,Arial,sans-serif" font-size="10.00" fill="#212529">📄 default.nix</text>
</g>
<!-- N45&#45;&gt;N60 -->
<g id="edge60" class="edge">
<title>N45&#45;&gt;N60</title>
<path fill="none" stroke="#6c757d" d="M272.1,-316.57C320.61,-299.02 393.18,-272.78 441.56,-255.29"/>
<polygon fill="#6c757d" stroke="#6c757d" points="442.23,-257.65 447.98,-252.96 440.56,-253.04 442.23,-257.65"/>
</g>
<!-- N48 -->
<g id="node49" class="node">
<title>N48</title>
<path fill="#f8f9fa" stroke="#ced4da" d="M563.75,-59C563.75,-59 422.5,-59 422.5,-59 416.5,-59 410.5,-53 410.5,-47 410.5,-47 410.5,-35 410.5,-35 410.5,-29 416.5,-23 422.5,-23 422.5,-23 563.75,-23 563.75,-23 569.75,-23 575.75,-29 575.75,-35 575.75,-35 575.75,-47 575.75,-47 575.75,-53 569.75,-59 563.75,-59"/>
<text text-anchor="middle" x="493.12" y="-38.62" font-family="Helvetica,Arial,sans-serif" font-size="10.00" fill="#212529">📄 hardware&#45;configuration.nix</text>
</g>
<!-- N47&#45;&gt;N48 -->
<g id="edge61" class="edge">
<title>N47&#45;&gt;N48</title>
<path fill="none" stroke="#6c757d" d="M278.27,-41C314.08,-41 361.02,-41 401.79,-41"/>
<polygon fill="#6c757d" stroke="#6c757d" points="401.61,-43.45 408.61,-41 401.61,-38.55 401.61,-43.45"/>
</g>
<!-- N47&#45;&gt;N49 -->
<g id="edge62" class="edge">
<title>N47&#45;&gt;N49</title>
<path fill="none" stroke="#6c757d" d="M226.48,-59.22C253.29,-150.43 371.62,-553 371.62,-553 371.62,-553 408.76,-564.09 441.8,-573.96"/>
<polygon fill="#6c757d" stroke="#6c757d" points="440.78,-576.22 448.19,-575.87 442.19,-571.52 440.78,-576.22"/>
</g>
<!-- N47&#45;&gt;N52 -->
<g id="edge63" class="edge">
<title>N47&#45;&gt;N52</title>
<path fill="none" stroke="#6c757d" d="M265.87,-59.43C310.24,-77.71 371.62,-103 371.62,-103 371.62,-103 408.76,-114.09 441.8,-123.96"/>
<polygon fill="#6c757d" stroke="#6c757d" points="440.78,-126.22 448.19,-125.87 442.19,-121.52 440.78,-126.22"/>
</g>
<!-- N47&#45;&gt;N54 -->
<g id="edge64" class="edge">
<title>N47&#45;&gt;N54</title>
<path fill="none" stroke="#6c757d" d="M226.44,-59.41C243.38,-118.11 295,-297 295,-297 295,-297 371.62,-814 371.62,-814 371.62,-814 412.98,-823.95 447.24,-832.2"/>
<polygon fill="#6c757d" stroke="#6c757d" points="446.47,-834.53 453.84,-833.79 447.61,-829.77 446.47,-834.53"/>
</g>
<!-- N47&#45;&gt;N56 -->
<g id="edge65" class="edge">
<title>N47&#45;&gt;N56</title>
<path fill="none" stroke="#6c757d" d="M226.44,-59.41C243.38,-118.11 295,-297 295,-297 295,-297 371.62,-749 371.62,-749 371.62,-749 410.47,-760.6 444.05,-770.64"/>
<polygon fill="#6c757d" stroke="#6c757d" points="443.14,-772.92 450.55,-772.58 444.54,-768.23 443.14,-772.92"/>
</g>
<!-- N47&#45;&gt;N57 -->
<g id="edge66" class="edge">
<title>N47&#45;&gt;N57</title>
<path fill="none" stroke="#6c757d" d="M226.44,-59.41C243.38,-118.11 295,-297 295,-297 295,-297 371.62,-651 371.62,-651 371.62,-651 408.76,-662.09 441.8,-671.96"/>
<polygon fill="#6c757d" stroke="#6c757d" points="440.78,-674.22 448.19,-673.87 442.19,-669.52 440.78,-674.22"/>
</g>
<!-- N47&#45;&gt;N60 -->
<g id="edge67" class="edge">
<title>N47&#45;&gt;N60</title>
<path fill="none" stroke="#6c757d" d="M238.39,-59.35C277.92,-101.38 371.62,-201 371.62,-201 371.62,-201 408.76,-212.09 441.8,-221.96"/>
<polygon fill="#6c757d" stroke="#6c757d" points="440.78,-224.22 448.19,-223.87 442.19,-219.52 440.78,-224.22"/>
</g>
<!-- N53 -->
<g id="node54" class="node">
<title>N53</title>
<path fill="#f8f9fa" stroke="#ced4da" d="M806.88,-861C806.88,-861 698.62,-861 698.62,-861 692.62,-861 686.62,-855 686.62,-849 686.62,-849 686.62,-837 686.62,-837 686.62,-831 692.62,-825 698.62,-825 698.62,-825 806.88,-825 806.88,-825 812.88,-825 818.88,-831 818.88,-837 818.88,-837 818.88,-849 818.88,-849 818.88,-855 812.88,-861 806.88,-861"/>
<text text-anchor="middle" x="752.75" y="-840.62" font-family="Helvetica,Arial,sans-serif" font-size="10.00" fill="#212529">📄 architecture&#45;dag.nix</text>
</g>
<!-- N54&#45;&gt;N53 -->
<g id="edge68" class="edge">
<title>N54&#45;&gt;N53</title>
<path fill="none" stroke="#6c757d" d="M531.04,-843C569.16,-843 629.71,-843 677.75,-843"/>
<polygon fill="#6c757d" stroke="#6c757d" points="677.75,-845.45 684.75,-843 677.75,-840.55 677.75,-845.45"/>
</g>
<!-- N59 -->
<g id="node60" class="node">
<title>N59</title>
<path fill="#f8f9fa" stroke="#ced4da" d="M780.62,-1017C780.62,-1017 724.88,-1017 724.88,-1017 718.88,-1017 712.88,-1011 712.88,-1005 712.88,-1005 712.88,-993 712.88,-993 712.88,-987 718.88,-981 724.88,-981 724.88,-981 780.62,-981 780.62,-981 786.62,-981 792.62,-987 792.62,-993 792.62,-993 792.62,-1005 792.62,-1005 792.62,-1011 786.62,-1017 780.62,-1017"/>
<text text-anchor="middle" x="752.75" y="-996.62" font-family="Helvetica,Arial,sans-serif" font-size="10.00" fill="#212529">📄 home.nix</text>
</g>
<!-- N58&#45;&gt;N59 -->
<g id="edge69" class="edge">
<title>N58&#45;&gt;N59</title>
<path fill="none" stroke="#6c757d" d="M536.67,-999C582.78,-999 656.18,-999 704.17,-999"/>
<polygon fill="#6c757d" stroke="#6c757d" points="704.01,-1001.45 711.01,-999 704.01,-996.55 704.01,-1001.45"/>
</g>
<!-- N61 -->
<g id="node62" class="node">
<title>N61</title>
<path fill="#f8f9fa" stroke="#ced4da" d="M780.62,-255C780.62,-255 724.88,-255 724.88,-255 718.88,-255 712.88,-249 712.88,-243 712.88,-243 712.88,-231 712.88,-231 712.88,-225 718.88,-219 724.88,-219 724.88,-219 780.62,-219 780.62,-219 786.62,-219 792.62,-225 792.62,-231 792.62,-231 792.62,-243 792.62,-243 792.62,-249 786.62,-255 780.62,-255"/>
<text text-anchor="middle" x="752.75" y="-234.62" font-family="Helvetica,Arial,sans-serif" font-size="10.00" fill="#212529">📄 home.nix</text>
</g>
<!-- N60&#45;&gt;N61 -->
<g id="edge70" class="edge">
<title>N60&#45;&gt;N61</title>
<path fill="none" stroke="#6c757d" d="M536.67,-237C582.78,-237 656.18,-237 704.17,-237"/>
<polygon fill="#6c757d" stroke="#6c757d" points="704.01,-239.45 711.01,-237 704.01,-234.55 704.01,-239.45"/>
</g>
</g>
</svg>
