<?xml version="1.0" encoding="UTF-8" standalone="no"?>
<!DOCTYPE svg PUBLIC "-//W3C//DTD SVG 1.1//EN"
 "http://www.w3.org/Graphics/SVG/1.1/DTD/svg11.dtd">
<!-- Generated by graphviz version 12.2.1 (0)
 -->
<!-- Title: NixOS Pages: 1 -->
<svg width="850pt" height="3864pt"
 viewBox="0.00 0.00 849.88 3864.00" xmlns="http://www.w3.org/2000/svg" xmlns:xlink="http://www.w3.org/1999/xlink">
<g id="graph0" class="graph" transform="scale(1 1) rotate(0) translate(4 3860)">
<title>NixOS</title>
<polygon fill="white" stroke="none" points="-4,4 -4,-3860 845.88,-3860 845.88,4 -4,4"/>
<g id="clust1" class="cluster">
<title>cluster_hosts_devcontainer</title>
<path fill="#e9ecef" stroke="#adb5bd" d="M158.25,-3758C158.25,-3758 283,-3758 283,-3758 289,-3758 295,-3764 295,-3770 295,-3770 295,-3836 295,-3836 295,-3842 289,-3848 283,-3848 283,-3848 158.25,-3848 158.25,-3848 152.25,-3848 146.25,-3842 146.25,-3836 146.25,-3836 146.25,-3770 146.25,-3770 146.25,-3764 152.25,-3758 158.25,-3758"/>
<text text-anchor="middle" x="220.62" y="-3832.6" font-family="Helvetica,sans-Serif" font-weight="bold" font-size="12.00" fill="#495057">📁 hosts/devcontainer</text>
</g>
<g id="clust2" class="cluster">
<title>cluster_hosts_homelab</title>
<path fill="#e9ecef" stroke="#adb5bd" d="M159.25,-3602C159.25,-3602 578.75,-3602 578.75,-3602 584.75,-3602 590.75,-3608 590.75,-3614 590.75,-3614 590.75,-3738 590.75,-3738 590.75,-3744 584.75,-3750 578.75,-3750 578.75,-3750 159.25,-3750 159.25,-3750 153.25,-3750 147.25,-3744 147.25,-3738 147.25,-3738 147.25,-3614 147.25,-3614 147.25,-3608 153.25,-3602 159.25,-3602"/>
<text text-anchor="middle" x="369" y="-3734.6" font-family="Helvetica,sans-Serif" font-weight="bold" font-size="12.00" fill="#495057">📁 hosts/homelab</text>
</g>
<g id="clust3" class="cluster">
<title>cluster_hosts_homelab_services_media</title>
<path fill="#e9ecef" stroke="#adb5bd" d="M397.5,-2750C397.5,-2750 589.75,-2750 589.75,-2750 595.75,-2750 601.75,-2756 601.75,-2762 601.75,-2762 601.75,-3582 601.75,-3582 601.75,-3588 595.75,-3594 589.75,-3594 589.75,-3594 397.5,-3594 397.5,-3594 391.5,-3594 385.5,-3588 385.5,-3582 385.5,-3582 385.5,-2762 385.5,-2762 385.5,-2756 391.5,-2750 397.5,-2750"/>
<text text-anchor="middle" x="493.62" y="-3578.6" font-family="Helvetica,sans-Serif" font-weight="bold" font-size="12.00" fill="#495057">📁 hosts/homelab/services/media</text>
</g>
<g id="clust4" class="cluster">
<title>cluster_hosts_homelab_services_monitoring</title>
<path fill="#e9ecef" stroke="#adb5bd" d="M383.62,-2188C383.62,-2188 603.62,-2188 603.62,-2188 609.62,-2188 615.62,-2194 615.62,-2200 615.62,-2200 615.62,-2730 615.62,-2730 615.62,-2736 609.62,-2742 603.62,-2742 603.62,-2742 383.62,-2742 383.62,-2742 377.62,-2742 371.62,-2736 371.62,-2730 371.62,-2730 371.62,-2200 371.62,-2200 371.62,-2194 377.62,-2188 383.62,-2188"/>
<text text-anchor="middle" x="493.62" y="-2726.6" font-family="Helvetica,sans-Serif" font-weight="bold" font-size="12.00" fill="#495057">📁 hosts/homelab/services/monitoring</text>
</g>
<g id="clust5" class="cluster">
<title>cluster_hosts_homelab_services_random</title>
<path fill="#e9ecef" stroke="#adb5bd" d="M392.62,-1452C392.62,-1452 594.62,-1452 594.62,-1452 600.62,-1452 606.62,-1458 606.62,-1464 606.62,-1464 606.62,-2168 606.62,-2168 606.62,-2174 600.62,-2180 594.62,-2180 594.62,-2180 392.62,-2180 392.62,-2180 386.62,-2180 380.62,-2174 380.62,-2168 380.62,-2168 380.62,-1464 380.62,-1464 380.62,-1458 386.62,-1452 392.62,-1452"/>
<text text-anchor="middle" x="493.62" y="-2164.6" font-family="Helvetica,sans-Serif" font-weight="bold" font-size="12.00" fill="#495057">📁 hosts/homelab/services/random</text>
</g>
<g id="clust6" class="cluster">
<title>cluster_hosts_homelab_services_security</title>
<path fill="#e9ecef" stroke="#adb5bd" d="M392.62,-1064C392.62,-1064 594.62,-1064 594.62,-1064 600.62,-1064 606.62,-1070 606.62,-1076 606.62,-1076 606.62,-1432 606.62,-1432 606.62,-1438 600.62,-1444 594.62,-1444 594.62,-1444 392.62,-1444 392.62,-1444 386.62,-1444 380.62,-1438 380.62,-1432 380.62,-1432 380.62,-1076 380.62,-1076 380.62,-1070 386.62,-1064 392.62,-1064"/>
<text text-anchor="middle" x="493.62" y="-1428.6" font-family="Helvetica,sans-Serif" font-weight="bold" font-size="12.00" fill="#495057">📁 hosts/homelab/services/security</text>
</g>
<g id="clust7" class="cluster">
<title>cluster_hosts_perso</title>
<path fill="#e9ecef" stroke="#adb5bd" d="M159.25,-302C159.25,-302 578.75,-302 578.75,-302 584.75,-302 590.75,-308 590.75,-314 590.75,-314 590.75,-380 590.75,-380 590.75,-386 584.75,-392 578.75,-392 578.75,-392 159.25,-392 159.25,-392 153.25,-392 147.25,-386 147.25,-380 147.25,-380 147.25,-314 147.25,-314 147.25,-308 153.25,-302 159.25,-302"/>
<text text-anchor="middle" x="369" y="-376.6" font-family="Helvetica,sans-Serif" font-weight="bold" font-size="12.00" fill="#495057">📁 hosts/perso</text>
</g>
<g id="clust8" class="cluster">
<title>cluster_hosts_portable</title>
<path fill="#e9ecef" stroke="#adb5bd" d="M159.25,-8C159.25,-8 578.75,-8 578.75,-8 584.75,-8 590.75,-14 590.75,-20 590.75,-20 590.75,-86 590.75,-86 590.75,-92 584.75,-98 578.75,-98 578.75,-98 159.25,-98 159.25,-98 153.25,-98 147.25,-92 147.25,-86 147.25,-86 147.25,-20 147.25,-20 147.25,-14 153.25,-8 159.25,-8"/>
<text text-anchor="middle" x="369" y="-82.6" font-family="Helvetica,sans-Serif" font-weight="bold" font-size="12.00" fill="#495057">📁 hosts/portable</text>
</g>
<g id="clust9" class="cluster">
<title>cluster_modules_dev</title>
<path fill="#e9ecef" stroke="#adb5bd" d="M446.88,-556C446.88,-556 539.38,-556 539.38,-556 545.38,-556 551.38,-562 551.38,-568 551.38,-568 551.38,-634 551.38,-634 551.38,-640 545.38,-646 539.38,-646 539.38,-646 446.88,-646 446.88,-646 440.88,-646 434.88,-640 434.88,-634 434.88,-634 434.88,-568 434.88,-568 434.88,-562 440.88,-556 446.88,-556"/>
<text text-anchor="middle" x="493.12" y="-630.6" font-family="Helvetica,sans-Serif" font-weight="bold" font-size="12.00" fill="#495057">📁 modules/dev</text>
</g>
<g id="clust10" class="cluster">
<title>cluster_modules_gaming</title>
<path fill="#e9ecef" stroke="#adb5bd" d="M438.38,-400C438.38,-400 548.88,-400 548.88,-400 554.88,-400 560.88,-406 560.88,-412 560.88,-412 560.88,-536 560.88,-536 560.88,-542 554.88,-548 548.88,-548 548.88,-548 438.38,-548 438.38,-548 432.38,-548 426.38,-542 426.38,-536 426.38,-536 426.38,-412 426.38,-412 426.38,-406 432.38,-400 438.38,-400"/>
<text text-anchor="middle" x="493.62" y="-532.6" font-family="Helvetica,sans-Serif" font-weight="bold" font-size="12.00" fill="#495057">📁 modules/gaming</text>
</g>
<g id="clust11" class="cluster">
<title>cluster_modules_hyprland</title>
<path fill="#e9ecef" stroke="#adb5bd" d="M434.62,-106C434.62,-106 552.62,-106 552.62,-106 558.62,-106 564.62,-112 564.62,-118 564.62,-118 564.62,-184 564.62,-184 564.62,-190 558.62,-196 552.62,-196 552.62,-196 434.62,-196 434.62,-196 428.62,-196 422.62,-190 422.62,-184 422.62,-184 422.62,-118 422.62,-118 422.62,-112 428.62,-106 434.62,-106"/>
<text text-anchor="middle" x="493.62" y="-180.6" font-family="Helvetica,sans-Serif" font-weight="bold" font-size="12.00" fill="#495057">📁 modules/hyprland</text>
</g>
<g id="clust12" class="cluster">
<title>cluster_modules_nixos</title>
<path fill="#e9ecef" stroke="#adb5bd" d="M449.12,-752C449.12,-752 821.88,-752 821.88,-752 827.88,-752 833.88,-758 833.88,-764 833.88,-764 833.88,-946 833.88,-946 833.88,-952 827.88,-958 821.88,-958 821.88,-958 449.12,-958 449.12,-958 443.12,-958 437.12,-952 437.12,-946 437.12,-946 437.12,-764 437.12,-764 437.12,-758 443.12,-752 449.12,-752"/>
<text text-anchor="middle" x="635.5" y="-942.6" font-family="Helvetica,sans-Serif" font-weight="bold" font-size="12.00" fill="#495057">📁 modules/nixos</text>
</g>
<g id="clust13" class="cluster">
<title>cluster_modules_terminal</title>
<path fill="#e9ecef" stroke="#adb5bd" d="M436.12,-654C436.12,-654 551.12,-654 551.12,-654 557.12,-654 563.12,-660 563.12,-666 563.12,-666 563.12,-732 563.12,-732 563.12,-738 557.12,-744 551.12,-744 551.12,-744 436.12,-744 436.12,-744 430.12,-744 424.12,-738 424.12,-732 424.12,-732 424.12,-666 424.12,-666 424.12,-660 430.12,-654 436.12,-654"/>
<text text-anchor="middle" x="493.62" y="-728.6" font-family="Helvetica,sans-Serif" font-weight="bold" font-size="12.00" fill="#495057">📁 modules/terminal</text>
</g>
<g id="clust14" class="cluster">
<title>cluster_users_arthur_homelab</title>
<path fill="#e9ecef" stroke="#adb5bd" d="M446.88,-966C446.88,-966 795.62,-966 795.62,-966 801.62,-966 807.62,-972 807.62,-978 807.62,-978 807.62,-1044 807.62,-1044 807.62,-1050 801.62,-1056 795.62,-1056 795.62,-1056 446.88,-1056 446.88,-1056 440.88,-1056 434.88,-1050 434.88,-1044 434.88,-1044 434.88,-978 434.88,-978 434.88,-972 440.88,-966 446.88,-966"/>
<text text-anchor="middle" x="621.25" y="-1040.6" font-family="Helvetica,sans-Serif" font-weight="bold" font-size="12.00" fill="#495057">📁 users/arthur&#45;homelab</text>
</g>
<g id="clust15" class="cluster">
<title>cluster_users_arthur_perso</title>
<path fill="#e9ecef" stroke="#adb5bd" d="M446.88,-204C446.88,-204 795.62,-204 795.62,-204 801.62,-204 807.62,-210 807.62,-216 807.62,-216 807.62,-282 807.62,-282 807.62,-288 801.62,-294 795.62,-294 795.62,-294 446.88,-294 446.88,-294 440.88,-294 434.88,-288 434.88,-282 434.88,-282 434.88,-216 434.88,-216 434.88,-210 440.88,-204 446.88,-204"/>
<text text-anchor="middle" x="621.25" y="-278.6" font-family="Helvetica,sans-Serif" font-weight="bold" font-size="12.00" fill="#495057">📁 users/arthur&#45;perso</text>
</g>
<!-- N0 -->
<g id="node1" class="node">
<title>N0</title>
<path fill="#f8f9fa" stroke="#ced4da" d="M63.25,-3653C63.25,-3653 12,-3653 12,-3653 6,-3653 0,-3647 0,-3641 0,-3641 0,-3629 0,-3629 0,-3623 6,-3617 12,-3617 12,-3617 63.25,-3617 63.25,-3617 69.25,-3617 75.25,-3623 75.25,-3629 75.25,-3629 75.25,-3641 75.25,-3641 75.25,-3647 69.25,-3653 63.25,-3653"/>
<text text-anchor="middle" x="37.62" y="-3632.62" font-family="Helvetica,Arial,sans-serif" font-size="10.00" fill="#212529">📄 flake.nix</text>
</g>
<!-- N1 -->
<g id="node2" class="node">
<title>N1</title>
<path fill="#f8f9fa" stroke="#ced4da" d="M251.38,-3809C251.38,-3809 188.88,-3809 188.88,-3809 182.88,-3809 176.88,-3803 176.88,-3797 176.88,-3797 176.88,-3785 176.88,-3785 176.88,-3779 182.88,-3773 188.88,-3773 188.88,-3773 251.38,-3773 251.38,-3773 257.38,-3773 263.38,-3779 263.38,-3785 263.38,-3785 263.38,-3797 263.38,-3797 263.38,-3803 257.38,-3809 251.38,-3809"/>
<text text-anchor="middle" x="220.12" y="-3788.62" font-family="Helvetica,Arial,sans-serif" font-size="10.00" fill="#212529">📄 default.nix</text>
</g>
<!-- N0&#45;&gt;N1 -->
<g id="edge1" class="edge">
<title>N0&#45;&gt;N1</title>
<path fill="none" stroke="#6c757d" d="M55.21,-3653.49C85.4,-3687.15 146.25,-3755 146.25,-3755 146.25,-3755 159.29,-3761.44 174.33,-3768.87"/>
<polygon fill="#6c757d" stroke="#6c757d" points="173.12,-3771 180.48,-3771.91 175.29,-3766.61 173.12,-3771"/>
</g>
<!-- N2 -->
<g id="node3" class="node">
<title>N2</title>
<path fill="#f8f9fa" stroke="#ced4da" d="M266,-3653C266,-3653 174.25,-3653 174.25,-3653 168.25,-3653 162.25,-3647 162.25,-3641 162.25,-3641 162.25,-3629 162.25,-3629 162.25,-3623 168.25,-3617 174.25,-3617 174.25,-3617 266,-3617 266,-3617 272,-3617 278,-3623 278,-3629 278,-3629 278,-3641 278,-3641 278,-3647 272,-3653 266,-3653"/>
<text text-anchor="middle" x="220.12" y="-3632.62" font-family="Helvetica,Arial,sans-serif" font-size="10.00" fill="#212529">📄 configuration.nix</text>
</g>
<!-- N0&#45;&gt;N2 -->
<g id="edge2" class="edge">
<title>N0&#45;&gt;N2</title>
<path fill="none" stroke="#6c757d" d="M75.59,-3635C98.02,-3635 127.29,-3635 153.54,-3635"/>
<polygon fill="#6c757d" stroke="#6c757d" points="153.43,-3637.45 160.43,-3635 153.43,-3632.55 153.43,-3637.45"/>
</g>
<!-- N3 -->
<g id="node4" class="node">
<title>N3</title>
<path fill="#f8f9fa" stroke="#ced4da" d="M257.75,-3711C257.75,-3711 182.5,-3711 182.5,-3711 176.5,-3711 170.5,-3705 170.5,-3699 170.5,-3699 170.5,-3687 170.5,-3687 170.5,-3681 176.5,-3675 182.5,-3675 182.5,-3675 257.75,-3675 257.75,-3675 263.75,-3675 269.75,-3681 269.75,-3687 269.75,-3687 269.75,-3699 269.75,-3699 269.75,-3705 263.75,-3711 257.75,-3711"/>
<text text-anchor="middle" x="220.12" y="-3690.62" font-family="Helvetica,Arial,sans-serif" font-size="10.00" fill="#212529">📄 constants.nix</text>
</g>
<!-- N0&#45;&gt;N3 -->
<g id="edge3" class="edge">
<title>N0&#45;&gt;N3</title>
<path fill="none" stroke="#6c757d" d="M75.59,-3646.88C100.57,-3654.9 134.04,-3665.66 162.38,-3674.77"/>
<polygon fill="#6c757d" stroke="#6c757d" points="161.37,-3677.01 168.78,-3676.82 162.87,-3672.35 161.37,-3677.01"/>
</g>
<!-- N46 -->
<g id="node47" class="node">
<title>N46</title>
<path fill="#f8f9fa" stroke="#ced4da" d="M266,-353C266,-353 174.25,-353 174.25,-353 168.25,-353 162.25,-347 162.25,-341 162.25,-341 162.25,-329 162.25,-329 162.25,-323 168.25,-317 174.25,-317 174.25,-317 266,-317 266,-317 272,-317 278,-323 278,-329 278,-329 278,-341 278,-341 278,-347 272,-353 266,-353"/>
<text text-anchor="middle" x="220.12" y="-332.62" font-family="Helvetica,Arial,sans-serif" font-size="10.00" fill="#212529">📄 configuration.nix</text>
</g>
<!-- N0&#45;&gt;N46 -->
<g id="edge4" class="edge">
<title>N0&#45;&gt;N46</title>
<path fill="none" stroke="#6c757d" d="M39.62,-3616.85C53.18,-3368.9 201.35,-659.93 217.67,-361.63"/>
<polygon fill="#6c757d" stroke="#6c757d" points="220.11,-361.77 218.05,-354.65 215.22,-361.5 220.11,-361.77"/>
</g>
<!-- N48 -->
<g id="node49" class="node">
<title>N48</title>
<path fill="#f8f9fa" stroke="#ced4da" d="M266,-59C266,-59 174.25,-59 174.25,-59 168.25,-59 162.25,-53 162.25,-47 162.25,-47 162.25,-35 162.25,-35 162.25,-29 168.25,-23 174.25,-23 174.25,-23 266,-23 266,-23 272,-23 278,-29 278,-35 278,-35 278,-47 278,-47 278,-53 272,-59 266,-59"/>
<text text-anchor="middle" x="220.12" y="-38.62" font-family="Helvetica,Arial,sans-serif" font-size="10.00" fill="#212529">📄 configuration.nix</text>
</g>
<!-- N0&#45;&gt;N48 -->
<g id="edge5" class="edge">
<title>N0&#45;&gt;N48</title>
<path fill="none" stroke="#6c757d" d="M39.22,-3616.64C47.78,-3351.18 146.25,-297 146.25,-297 146.25,-297 193.08,-132.48 211.66,-67.22"/>
<polygon fill="#6c757d" stroke="#6c757d" points="213.91,-68.27 213.47,-60.87 209.2,-66.93 213.91,-68.27"/>
</g>
<!-- N4 -->
<g id="node5" class="node">
<title>N4</title>
<path fill="#f8f9fa" stroke="#ced4da" d="M563.75,-3653C563.75,-3653 422.5,-3653 422.5,-3653 416.5,-3653 410.5,-3647 410.5,-3641 410.5,-3641 410.5,-3629 410.5,-3629 410.5,-3623 416.5,-3617 422.5,-3617 422.5,-3617 563.75,-3617 563.75,-3617 569.75,-3617 575.75,-3623 575.75,-3629 575.75,-3629 575.75,-3641 575.75,-3641 575.75,-3647 569.75,-3653 563.75,-3653"/>
<text text-anchor="middle" x="493.12" y="-3632.62" font-family="Helvetica,Arial,sans-serif" font-size="10.00" fill="#212529">📄 hardware&#45;configuration.nix</text>
</g>
<!-- N2&#45;&gt;N4 -->
<g id="edge6" class="edge">
<title>N2&#45;&gt;N4</title>
<path fill="none" stroke="#6c757d" d="M278.27,-3635C314.08,-3635 361.02,-3635 401.79,-3635"/>
<polygon fill="#6c757d" stroke="#6c757d" points="401.61,-3637.45 408.61,-3635 401.61,-3632.55 401.61,-3637.45"/>
</g>
<!-- N5 -->
<g id="node6" class="node">
<title>N5</title>
<path fill="#f8f9fa" stroke="#ced4da" d="M522.5,-3033C522.5,-3033 463.75,-3033 463.75,-3033 457.75,-3033 451.75,-3027 451.75,-3021 451.75,-3021 451.75,-3009 451.75,-3009 451.75,-3003 457.75,-2997 463.75,-2997 463.75,-2997 522.5,-2997 522.5,-2997 528.5,-2997 534.5,-3003 534.5,-3009 534.5,-3009 534.5,-3021 534.5,-3021 534.5,-3027 528.5,-3033 522.5,-3033"/>
<text text-anchor="middle" x="493.12" y="-3012.62" font-family="Helvetica,Arial,sans-serif" font-size="10.00" fill="#212529">📄 byparr.nix</text>
</g>
<!-- N2&#45;&gt;N5 -->
<g id="edge7" class="edge">
<title>N2&#45;&gt;N5</title>
<path fill="none" stroke="#6c757d" d="M225.79,-3616.66C251.2,-3516.91 371.62,-3044 371.62,-3044 371.62,-3044 409.98,-3034.77 443.41,-3026.72"/>
<polygon fill="#6c757d" stroke="#6c757d" points="443.63,-3029.19 449.86,-3025.17 442.48,-3024.43 443.63,-3029.19"/>
</g>
<!-- N6 -->
<g id="node7" class="node">
<title>N6</title>
<path fill="#f8f9fa" stroke="#ced4da" d="M532.62,-3091C532.62,-3091 453.62,-3091 453.62,-3091 447.62,-3091 441.62,-3085 441.62,-3079 441.62,-3079 441.62,-3067 441.62,-3067 441.62,-3061 447.62,-3055 453.62,-3055 453.62,-3055 532.62,-3055 532.62,-3055 538.62,-3055 544.62,-3061 544.62,-3067 544.62,-3067 544.62,-3079 544.62,-3079 544.62,-3085 538.62,-3091 532.62,-3091"/>
<text text-anchor="middle" x="493.12" y="-3070.62" font-family="Helvetica,Arial,sans-serif" font-size="10.00" fill="#212529">📄 cleanuparr.nix</text>
</g>
<!-- N2&#45;&gt;N6 -->
<g id="edge8" class="edge">
<title>N2&#45;&gt;N6</title>
<path fill="none" stroke="#6c757d" d="M226.31,-3616.65C252.77,-3522.93 371.62,-3102 371.62,-3102 371.62,-3102 402.65,-3094.53 433.21,-3087.18"/>
<polygon fill="#6c757d" stroke="#6c757d" points="433.67,-3089.59 439.9,-3085.57 432.52,-3084.82 433.67,-3089.59"/>
</g>
<!-- N7 -->
<g id="node8" class="node">
<title>N7</title>
<path fill="#f8f9fa" stroke="#ced4da" d="M557.75,-3149C557.75,-3149 428.5,-3149 428.5,-3149 422.5,-3149 416.5,-3143 416.5,-3137 416.5,-3137 416.5,-3125 416.5,-3125 416.5,-3119 422.5,-3113 428.5,-3113 428.5,-3113 557.75,-3113 557.75,-3113 563.75,-3113 569.75,-3119 569.75,-3125 569.75,-3125 569.75,-3137 569.75,-3137 569.75,-3143 563.75,-3149 557.75,-3149"/>
<text text-anchor="middle" x="493.12" y="-3128.62" font-family="Helvetica,Arial,sans-serif" font-size="10.00" fill="#212529">📄 filebrowser&#45;quantum.nix</text>
</g>
<!-- N2&#45;&gt;N7 -->
<g id="edge9" class="edge">
<title>N2&#45;&gt;N7</title>
<path fill="none" stroke="#6c757d" d="M226.93,-3616.67C254.59,-3529.38 371.62,-3160 371.62,-3160 371.62,-3160 387.72,-3156.13 408.14,-3151.21"/>
<polygon fill="#6c757d" stroke="#6c757d" points="408.45,-3153.66 414.68,-3149.64 407.3,-3148.89 408.45,-3153.66"/>
</g>
<!-- N8 -->
<g id="node9" class="node">
<title>N8</title>
<path fill="#f8f9fa" stroke="#ced4da" d="M525.5,-3207C525.5,-3207 460.75,-3207 460.75,-3207 454.75,-3207 448.75,-3201 448.75,-3195 448.75,-3195 448.75,-3183 448.75,-3183 448.75,-3177 454.75,-3171 460.75,-3171 460.75,-3171 525.5,-3171 525.5,-3171 531.5,-3171 537.5,-3177 537.5,-3183 537.5,-3183 537.5,-3195 537.5,-3195 537.5,-3201 531.5,-3207 525.5,-3207"/>
<text text-anchor="middle" x="493.12" y="-3186.62" font-family="Helvetica,Arial,sans-serif" font-size="10.00" fill="#212529">📄 immich.nix</text>
</g>
<!-- N2&#45;&gt;N8 -->
<g id="edge10" class="edge">
<title>N2&#45;&gt;N8</title>
<path fill="none" stroke="#6c757d" d="M227.79,-3616.54C256.91,-3535.84 371.62,-3218 371.62,-3218 371.62,-3218 407.49,-3209.37 440.09,-3201.52"/>
<polygon fill="#6c757d" stroke="#6c757d" points="440.58,-3203.93 446.81,-3199.91 439.43,-3199.16 440.58,-3203.93"/>
</g>
<!-- N9 -->
<g id="node10" class="node">
<title>N9</title>
<path fill="#f8f9fa" stroke="#ced4da" d="M523.62,-3265C523.62,-3265 462.62,-3265 462.62,-3265 456.62,-3265 450.62,-3259 450.62,-3253 450.62,-3253 450.62,-3241 450.62,-3241 450.62,-3235 456.62,-3229 462.62,-3229 462.62,-3229 523.62,-3229 523.62,-3229 529.62,-3229 535.62,-3235 535.62,-3241 535.62,-3241 535.62,-3253 535.62,-3253 535.62,-3259 529.62,-3265 523.62,-3265"/>
<text text-anchor="middle" x="493.12" y="-3244.62" font-family="Helvetica,Arial,sans-serif" font-size="10.00" fill="#212529">📄 jellyfin.nix</text>
</g>
<!-- N2&#45;&gt;N9 -->
<g id="edge11" class="edge">
<title>N2&#45;&gt;N9</title>
<path fill="none" stroke="#6c757d" d="M228.8,-3616.7C259.46,-3543.55 371.62,-3276 371.62,-3276 371.62,-3276 409.24,-3266.95 442.44,-3258.96"/>
<polygon fill="#6c757d" stroke="#6c757d" points="442.61,-3261.44 448.85,-3257.42 441.47,-3256.67 442.61,-3261.44"/>
</g>
<!-- N10 -->
<g id="node11" class="node">
<title>N10</title>
<path fill="#f8f9fa" stroke="#ced4da" d="M523.62,-3323C523.62,-3323 462.62,-3323 462.62,-3323 456.62,-3323 450.62,-3317 450.62,-3311 450.62,-3311 450.62,-3299 450.62,-3299 450.62,-3293 456.62,-3287 462.62,-3287 462.62,-3287 523.62,-3287 523.62,-3287 529.62,-3287 535.62,-3293 535.62,-3299 535.62,-3299 535.62,-3311 535.62,-3311 535.62,-3317 529.62,-3323 523.62,-3323"/>
<text text-anchor="middle" x="493.12" y="-3302.62" font-family="Helvetica,Arial,sans-serif" font-size="10.00" fill="#212529">📄 komga.nix</text>
</g>
<!-- N2&#45;&gt;N10 -->
<g id="edge12" class="edge">
<title>N2&#45;&gt;N10</title>
<path fill="none" stroke="#6c757d" d="M230.31,-3616.62C262.99,-3551.27 371.62,-3334 371.62,-3334 371.62,-3334 409.24,-3324.95 442.44,-3316.96"/>
<polygon fill="#6c757d" stroke="#6c757d" points="442.61,-3319.44 448.85,-3315.42 441.47,-3314.67 442.61,-3319.44"/>
</g>
<!-- N11 -->
<g id="node12" class="node">
<title>N11</title>
<path fill="#f8f9fa" stroke="#ced4da" d="M531.12,-3381C531.12,-3381 455.12,-3381 455.12,-3381 449.12,-3381 443.12,-3375 443.12,-3369 443.12,-3369 443.12,-3357 443.12,-3357 443.12,-3351 449.12,-3345 455.12,-3345 455.12,-3345 531.12,-3345 531.12,-3345 537.12,-3345 543.12,-3351 543.12,-3357 543.12,-3357 543.12,-3369 543.12,-3369 543.12,-3375 537.12,-3381 531.12,-3381"/>
<text text-anchor="middle" x="493.12" y="-3360.62" font-family="Helvetica,Arial,sans-serif" font-size="10.00" fill="#212529">📄 onlyoffice.nix</text>
</g>
<!-- N2&#45;&gt;N11 -->
<g id="edge13" class="edge">
<title>N2&#45;&gt;N11</title>
<path fill="none" stroke="#6c757d" d="M232.44,-3616.74C267.44,-3560.22 371.62,-3392 371.62,-3392 371.62,-3392 403.53,-3384.32 434.51,-3376.87"/>
<polygon fill="#6c757d" stroke="#6c757d" points="435.06,-3379.25 441.29,-3375.23 433.91,-3374.49 435.06,-3379.25"/>
</g>
<!-- N12 -->
<g id="node13" class="node">
<title>N12</title>
<path fill="#f8f9fa" stroke="#ced4da" d="M527,-3439C527,-3439 459.25,-3439 459.25,-3439 453.25,-3439 447.25,-3433 447.25,-3427 447.25,-3427 447.25,-3415 447.25,-3415 447.25,-3409 453.25,-3403 459.25,-3403 459.25,-3403 527,-3403 527,-3403 533,-3403 539,-3409 539,-3415 539,-3415 539,-3427 539,-3427 539,-3433 533,-3439 527,-3439"/>
<text text-anchor="middle" x="493.12" y="-3418.62" font-family="Helvetica,Arial,sans-serif" font-size="10.00" fill="#212529">📄 prowlarr.nix</text>
</g>
<!-- N2&#45;&gt;N12 -->
<g id="edge14" class="edge">
<title>N2&#45;&gt;N12</title>
<path fill="none" stroke="#6c757d" d="M236.11,-3616.59C274.17,-3569.79 371.62,-3450 371.62,-3450 371.62,-3450 406.55,-3441.59 438.8,-3433.83"/>
<polygon fill="#6c757d" stroke="#6c757d" points="439.21,-3436.26 445.44,-3432.24 438.06,-3431.49 439.21,-3436.26"/>
</g>
<!-- N13 -->
<g id="node14" class="node">
<title>N13</title>
<path fill="#f8f9fa" stroke="#ced4da" d="M533,-3497C533,-3497 453.25,-3497 453.25,-3497 447.25,-3497 441.25,-3491 441.25,-3485 441.25,-3485 441.25,-3473 441.25,-3473 441.25,-3467 447.25,-3461 453.25,-3461 453.25,-3461 533,-3461 533,-3461 539,-3461 545,-3467 545,-3473 545,-3473 545,-3485 545,-3485 545,-3491 539,-3497 533,-3497"/>
<text text-anchor="middle" x="493.12" y="-3476.62" font-family="Helvetica,Arial,sans-serif" font-size="10.00" fill="#212529">📄 qbittorrent.nix</text>
</g>
<!-- N2&#45;&gt;N13 -->
<g id="edge15" class="edge">
<title>N2&#45;&gt;N13</title>
<path fill="none" stroke="#6c757d" d="M243.01,-3616.53C284.75,-3581.31 371.62,-3508 371.62,-3508 371.62,-3508 402.43,-3500.59 432.89,-3493.26"/>
<polygon fill="#6c757d" stroke="#6c757d" points="433.32,-3495.67 439.55,-3491.65 432.17,-3490.91 433.32,-3495.67"/>
</g>
<!-- N14 -->
<g id="node15" class="node">
<title>N14</title>
<path fill="#f8f9fa" stroke="#ced4da" d="M528.12,-3555C528.12,-3555 458.12,-3555 458.12,-3555 452.12,-3555 446.12,-3549 446.12,-3543 446.12,-3543 446.12,-3531 446.12,-3531 446.12,-3525 452.12,-3519 458.12,-3519 458.12,-3519 528.12,-3519 528.12,-3519 534.12,-3519 540.12,-3525 540.12,-3531 540.12,-3531 540.12,-3543 540.12,-3543 540.12,-3549 534.12,-3555 528.12,-3555"/>
<text text-anchor="middle" x="493.12" y="-3534.62" font-family="Helvetica,Arial,sans-serif" font-size="10.00" fill="#212529">📄 recyclarr.nix</text>
</g>
<!-- N2&#45;&gt;N14 -->
<g id="edge16" class="edge">
<title>N2&#45;&gt;N14</title>
<path fill="none" stroke="#6c757d" d="M272.1,-3616.57C319.45,-3599.44 389.72,-3574.03 438.04,-3556.56"/>
<polygon fill="#6c757d" stroke="#6c757d" points="438.73,-3558.92 444.48,-3554.23 437.06,-3554.31 438.73,-3558.92"/>
</g>
<!-- N15 -->
<g id="node16" class="node">
<title>N15</title>
<path fill="#f8f9fa" stroke="#ced4da" d="M517.25,-2801C517.25,-2801 469,-2801 469,-2801 463,-2801 457,-2795 457,-2789 457,-2789 457,-2777 457,-2777 457,-2771 463,-2765 469,-2765 469,-2765 517.25,-2765 517.25,-2765 523.25,-2765 529.25,-2771 529.25,-2777 529.25,-2777 529.25,-2789 529.25,-2789 529.25,-2795 523.25,-2801 517.25,-2801"/>
<text text-anchor="middle" x="493.12" y="-2780.62" font-family="Helvetica,Arial,sans-serif" font-size="10.00" fill="#212529">📄 seer.nix</text>
</g>
<!-- N2&#45;&gt;N15 -->
<g id="edge17" class="edge">
<title>N2&#45;&gt;N15</title>
<path fill="none" stroke="#6c757d" d="M224.48,-3616.66C246.69,-3495.22 371.62,-2812 371.62,-2812 371.62,-2812 414.01,-2801.8 448.5,-2793.5"/>
<polygon fill="#6c757d" stroke="#6c757d" points="448.92,-2795.92 455.15,-2791.9 447.77,-2791.15 448.92,-2795.92"/>
</g>
<!-- N16 -->
<g id="node17" class="node">
<title>N16</title>
<path fill="#f8f9fa" stroke="#ced4da" d="M522.12,-2859C522.12,-2859 464.12,-2859 464.12,-2859 458.12,-2859 452.12,-2853 452.12,-2847 452.12,-2847 452.12,-2835 452.12,-2835 452.12,-2829 458.12,-2823 464.12,-2823 464.12,-2823 522.12,-2823 522.12,-2823 528.12,-2823 534.12,-2829 534.12,-2835 534.12,-2835 534.12,-2847 534.12,-2847 534.12,-2853 528.12,-2859 522.12,-2859"/>
<text text-anchor="middle" x="493.12" y="-2838.62" font-family="Helvetica,Arial,sans-serif" font-size="10.00" fill="#212529">📄 sonarr.nix</text>
</g>
<!-- N2&#45;&gt;N16 -->
<g id="edge18" class="edge">
<title>N2&#45;&gt;N16</title>
<path fill="none" stroke="#6c757d" d="M224.7,-3616.84C247.49,-3501 371.62,-2870 371.62,-2870 371.62,-2870 410.22,-2860.71 443.73,-2852.65"/>
<polygon fill="#6c757d" stroke="#6c757d" points="443.96,-2855.11 450.19,-2851.09 442.81,-2850.35 443.96,-2855.11"/>
</g>
<!-- N17 -->
<g id="node18" class="node">
<title>N17</title>
<path fill="#f8f9fa" stroke="#ced4da" d="M532.25,-2917C532.25,-2917 454,-2917 454,-2917 448,-2917 442,-2911 442,-2905 442,-2905 442,-2893 442,-2893 442,-2887 448,-2881 454,-2881 454,-2881 532.25,-2881 532.25,-2881 538.25,-2881 544.25,-2887 544.25,-2893 544.25,-2893 544.25,-2905 544.25,-2905 544.25,-2911 538.25,-2917 532.25,-2917"/>
<text text-anchor="middle" x="493.12" y="-2896.62" font-family="Helvetica,Arial,sans-serif" font-size="10.00" fill="#212529">📄 suwayomi.nix</text>
</g>
<!-- N2&#45;&gt;N17 -->
<g id="edge19" class="edge">
<title>N2&#45;&gt;N17</title>
<path fill="none" stroke="#6c757d" d="M225,-3616.81C248.55,-3506.15 371.62,-2928 371.62,-2928 371.62,-2928 402.87,-2920.48 433.54,-2913.1"/>
<polygon fill="#6c757d" stroke="#6c757d" points="434.02,-2915.5 440.25,-2911.48 432.87,-2910.74 434.02,-2915.5"/>
</g>
<!-- N18 -->
<g id="node19" class="node">
<title>N18</title>
<path fill="#f8f9fa" stroke="#ced4da" d="M522.88,-2975C522.88,-2975 463.38,-2975 463.38,-2975 457.38,-2975 451.38,-2969 451.38,-2963 451.38,-2963 451.38,-2951 451.38,-2951 451.38,-2945 457.38,-2939 463.38,-2939 463.38,-2939 522.88,-2939 522.88,-2939 528.88,-2939 534.88,-2945 534.88,-2951 534.88,-2951 534.88,-2963 534.88,-2963 534.88,-2969 528.88,-2975 522.88,-2975"/>
<text text-anchor="middle" x="493.12" y="-2954.62" font-family="Helvetica,Arial,sans-serif" font-size="10.00" fill="#212529">📄 tranga.nix</text>
</g>
<!-- N2&#45;&gt;N18 -->
<g id="edge20" class="edge">
<title>N2&#45;&gt;N18</title>
<path fill="none" stroke="#6c757d" d="M225.39,-3616.62C249.88,-3511.01 371.62,-2986 371.62,-2986 371.62,-2986 409.73,-2976.83 443.08,-2968.8"/>
<polygon fill="#6c757d" stroke="#6c757d" points="443.29,-2971.27 449.52,-2967.25 442.14,-2966.51 443.29,-2971.27"/>
</g>
<!-- N19 -->
<g id="node20" class="node">
<title>N19</title>
<path fill="#f8f9fa" stroke="#ced4da" d="M518.38,-2239C518.38,-2239 467.88,-2239 467.88,-2239 461.88,-2239 455.88,-2233 455.88,-2227 455.88,-2227 455.88,-2215 455.88,-2215 455.88,-2209 461.88,-2203 467.88,-2203 467.88,-2203 518.38,-2203 518.38,-2203 524.38,-2203 530.38,-2209 530.38,-2215 530.38,-2215 530.38,-2227 530.38,-2227 530.38,-2233 524.38,-2239 518.38,-2239"/>
<text text-anchor="middle" x="493.12" y="-2218.62" font-family="Helvetica,Arial,sans-serif" font-size="10.00" fill="#212529">📄 alloy.nix</text>
</g>
<!-- N2&#45;&gt;N19 -->
<g id="edge21" class="edge">
<title>N2&#45;&gt;N19</title>
<path fill="none" stroke="#6c757d" d="M223.11,-3616.73C240.86,-3453.38 371.62,-2250 371.62,-2250 371.62,-2250 413.24,-2239.99 447.56,-2231.73"/>
<polygon fill="#6c757d" stroke="#6c757d" points="447.94,-2234.15 454.17,-2230.13 446.79,-2229.39 447.94,-2234.15"/>
</g>
<!-- N20 -->
<g id="node21" class="node">
<title>N20</title>
<path fill="#f8f9fa" stroke="#ced4da" d="M531.88,-2297C531.88,-2297 454.38,-2297 454.38,-2297 448.38,-2297 442.38,-2291 442.38,-2285 442.38,-2285 442.38,-2273 442.38,-2273 442.38,-2267 448.38,-2261 454.38,-2261 454.38,-2261 531.88,-2261 531.88,-2261 537.88,-2261 543.88,-2267 543.88,-2273 543.88,-2273 543.88,-2285 543.88,-2285 543.88,-2291 537.88,-2297 531.88,-2297"/>
<text text-anchor="middle" x="493.12" y="-2276.62" font-family="Helvetica,Arial,sans-serif" font-size="10.00" fill="#212529">📄 borgmatic.nix</text>
</g>
<!-- N2&#45;&gt;N20 -->
<g id="edge22" class="edge">
<title>N2&#45;&gt;N20</title>
<path fill="none" stroke="#6c757d" d="M223.2,-3616.75C241.27,-3457.36 371.62,-2308 371.62,-2308 371.62,-2308 403.09,-2300.43 433.86,-2293.02"/>
<polygon fill="#6c757d" stroke="#6c757d" points="434.37,-2295.42 440.6,-2291.4 433.22,-2290.66 434.37,-2295.42"/>
</g>
<!-- N21 -->
<g id="node22" class="node">
<title>N21</title>
<path fill="#f8f9fa" stroke="#ced4da" d="M525.88,-2355C525.88,-2355 460.38,-2355 460.38,-2355 454.38,-2355 448.38,-2349 448.38,-2343 448.38,-2343 448.38,-2331 448.38,-2331 448.38,-2325 454.38,-2319 460.38,-2319 460.38,-2319 525.88,-2319 525.88,-2319 531.88,-2319 537.88,-2325 537.88,-2331 537.88,-2331 537.88,-2343 537.88,-2343 537.88,-2349 531.88,-2355 525.88,-2355"/>
<text text-anchor="middle" x="493.12" y="-2334.62" font-family="Helvetica,Arial,sans-serif" font-size="10.00" fill="#212529">📄 grafana.nix</text>
</g>
<!-- N2&#45;&gt;N21 -->
<g id="edge23" class="edge">
<title>N2&#45;&gt;N21</title>
<path fill="none" stroke="#6c757d" d="M223.31,-3616.57C241.82,-3460.52 371.62,-2366 371.62,-2366 371.62,-2366 407.25,-2357.43 439.76,-2349.6"/>
<polygon fill="#6c757d" stroke="#6c757d" points="440.24,-2352.01 446.47,-2347.99 439.09,-2347.24 440.24,-2352.01"/>
</g>
<!-- N22 -->
<g id="node23" class="node">
<title>N22</title>
<path fill="#f8f9fa" stroke="#ced4da" d="M516.12,-2413C516.12,-2413 470.12,-2413 470.12,-2413 464.12,-2413 458.12,-2407 458.12,-2401 458.12,-2401 458.12,-2389 458.12,-2389 458.12,-2383 464.12,-2377 470.12,-2377 470.12,-2377 516.12,-2377 516.12,-2377 522.12,-2377 528.12,-2383 528.12,-2389 528.12,-2389 528.12,-2401 528.12,-2401 528.12,-2407 522.12,-2413 516.12,-2413"/>
<text text-anchor="middle" x="493.12" y="-2392.62" font-family="Helvetica,Arial,sans-serif" font-size="10.00" fill="#212529">📄 loki.nix</text>
</g>
<!-- N2&#45;&gt;N22 -->
<g id="edge24" class="edge">
<title>N2&#45;&gt;N22</title>
<path fill="none" stroke="#6c757d" d="M223.37,-3616.94C242.09,-3466.3 371.62,-2424 371.62,-2424 371.62,-2424 415.05,-2413.55 449.76,-2405.2"/>
<polygon fill="#6c757d" stroke="#6c757d" points="450.21,-2407.61 456.45,-2403.59 449.07,-2402.84 450.21,-2407.61"/>
</g>
<!-- N23 -->
<g id="node24" class="node">
<title>N23</title>
<path fill="#f8f9fa" stroke="#ced4da" d="M525.88,-2471C525.88,-2471 460.38,-2471 460.38,-2471 454.38,-2471 448.38,-2465 448.38,-2459 448.38,-2459 448.38,-2447 448.38,-2447 448.38,-2441 454.38,-2435 460.38,-2435 460.38,-2435 525.88,-2435 525.88,-2435 531.88,-2435 537.88,-2441 537.88,-2447 537.88,-2447 537.88,-2459 537.88,-2459 537.88,-2465 531.88,-2471 525.88,-2471"/>
<text text-anchor="middle" x="493.12" y="-2450.62" font-family="Helvetica,Arial,sans-serif" font-size="10.00" fill="#212529">📄 netdata.nix</text>
</g>
<!-- N2&#45;&gt;N23 -->
<g id="edge25" class="edge">
<title>N2&#45;&gt;N23</title>
<path fill="none" stroke="#6c757d" d="M223.49,-3616.89C242.64,-3470.2 371.62,-2482 371.62,-2482 371.62,-2482 407.25,-2473.43 439.76,-2465.6"/>
<polygon fill="#6c757d" stroke="#6c757d" points="440.24,-2468.01 446.47,-2463.99 439.09,-2463.24 440.24,-2468.01"/>
</g>
<!-- N24 -->
<g id="node25" class="node">
<title>N24</title>
<path fill="#f8f9fa" stroke="#ced4da" d="M542.75,-2529C542.75,-2529 443.5,-2529 443.5,-2529 437.5,-2529 431.5,-2523 431.5,-2517 431.5,-2517 431.5,-2505 431.5,-2505 431.5,-2499 437.5,-2493 443.5,-2493 443.5,-2493 542.75,-2493 542.75,-2493 548.75,-2493 554.75,-2499 554.75,-2505 554.75,-2505 554.75,-2517 554.75,-2517 554.75,-2523 548.75,-2529 542.75,-2529"/>
<text text-anchor="middle" x="493.12" y="-2508.62" font-family="Helvetica,Arial,sans-serif" font-size="10.00" fill="#212529">📄 power&#45;monitor.nix</text>
</g>
<!-- N2&#45;&gt;N24 -->
<g id="edge26" class="edge">
<title>N2&#45;&gt;N24</title>
<path fill="none" stroke="#6c757d" d="M223.61,-3616.91C243.18,-3474.54 371.62,-2540 371.62,-2540 371.62,-2540 396.19,-2534.09 423.14,-2527.6"/>
<polygon fill="#6c757d" stroke="#6c757d" points="423.47,-2530.04 429.7,-2526.02 422.32,-2525.28 423.47,-2530.04"/>
</g>
<!-- N25 -->
<g id="node26" class="node">
<title>N25</title>
<path fill="#f8f9fa" stroke="#ced4da" d="M536.38,-2587C536.38,-2587 449.88,-2587 449.88,-2587 443.88,-2587 437.88,-2581 437.88,-2575 437.88,-2575 437.88,-2563 437.88,-2563 437.88,-2557 443.88,-2551 449.88,-2551 449.88,-2551 536.38,-2551 536.38,-2551 542.38,-2551 548.38,-2557 548.38,-2563 548.38,-2563 548.38,-2575 548.38,-2575 548.38,-2581 542.38,-2587 536.38,-2587"/>
<text text-anchor="middle" x="493.12" y="-2566.62" font-family="Helvetica,Arial,sans-serif" font-size="10.00" fill="#212529">📄 prometheus.nix</text>
</g>
<!-- N2&#45;&gt;N25 -->
<g id="edge27" class="edge">
<title>N2&#45;&gt;N25</title>
<path fill="none" stroke="#6c757d" d="M223.8,-3616.56C243.99,-3477.43 371.62,-2598 371.62,-2598 371.62,-2598 400.04,-2591.16 429.27,-2584.13"/>
<polygon fill="#6c757d" stroke="#6c757d" points="429.81,-2586.52 436.04,-2582.5 428.67,-2581.75 429.81,-2586.52"/>
</g>
<!-- N26 -->
<g id="node27" class="node">
<title>N26</title>
<path fill="#f8f9fa" stroke="#ced4da" d="M525.88,-2645C525.88,-2645 460.38,-2645 460.38,-2645 454.38,-2645 448.38,-2639 448.38,-2633 448.38,-2633 448.38,-2621 448.38,-2621 448.38,-2615 454.38,-2609 460.38,-2609 460.38,-2609 525.88,-2609 525.88,-2609 531.88,-2609 537.88,-2615 537.88,-2621 537.88,-2621 537.88,-2633 537.88,-2633 537.88,-2639 531.88,-2645 525.88,-2645"/>
<text text-anchor="middle" x="493.12" y="-2624.62" font-family="Helvetica,Arial,sans-serif" font-size="10.00" fill="#212529">📄 scrutiny.nix</text>
</g>
<!-- N2&#45;&gt;N26 -->
<g id="edge28" class="edge">
<title>N2&#45;&gt;N26</title>
<path fill="none" stroke="#6c757d" d="M223.93,-3616.75C244.53,-3482.73 371.62,-2656 371.62,-2656 371.62,-2656 407.25,-2647.43 439.76,-2639.6"/>
<polygon fill="#6c757d" stroke="#6c757d" points="440.24,-2642.01 446.47,-2637.99 439.09,-2637.24 440.24,-2642.01"/>
</g>
<!-- N27 -->
<g id="node28" class="node">
<title>N27</title>
<path fill="#f8f9fa" stroke="#ced4da" d="M539.75,-2703C539.75,-2703 446.5,-2703 446.5,-2703 440.5,-2703 434.5,-2697 434.5,-2691 434.5,-2691 434.5,-2679 434.5,-2679 434.5,-2673 440.5,-2667 446.5,-2667 446.5,-2667 539.75,-2667 539.75,-2667 545.75,-2667 551.75,-2673 551.75,-2679 551.75,-2679 551.75,-2691 551.75,-2691 551.75,-2697 545.75,-2703 539.75,-2703"/>
<text text-anchor="middle" x="493.12" y="-2682.62" font-family="Helvetica,Arial,sans-serif" font-size="10.00" fill="#212529">📄 uptime&#45;kuma.nix</text>
</g>
<!-- N2&#45;&gt;N27 -->
<g id="edge29" class="edge">
<title>N2&#45;&gt;N27</title>
<path fill="none" stroke="#6c757d" d="M224.2,-3616.82C245.61,-3490.19 371.62,-2745 371.62,-2745 371.62,-2745 413.42,-2724.19 447.79,-2707.08"/>
<polygon fill="#6c757d" stroke="#6c757d" points="448.46,-2709.48 453.63,-2704.17 446.27,-2705.09 448.46,-2709.48"/>
</g>
<!-- N28 -->
<g id="node29" class="node">
<title>N28</title>
<path fill="#f8f9fa" stroke="#ced4da" d="M545.75,-1503C545.75,-1503 440.5,-1503 440.5,-1503 434.5,-1503 428.5,-1497 428.5,-1491 428.5,-1491 428.5,-1479 428.5,-1479 428.5,-1473 434.5,-1467 440.5,-1467 440.5,-1467 545.75,-1467 545.75,-1467 551.75,-1467 557.75,-1473 557.75,-1479 557.75,-1479 557.75,-1491 557.75,-1491 557.75,-1497 551.75,-1503 545.75,-1503"/>
<text text-anchor="middle" x="493.12" y="-1482.62" font-family="Helvetica,Arial,sans-serif" font-size="10.00" fill="#212529">📄 crafty&#45;controller.nix</text>
</g>
<!-- N2&#45;&gt;N28 -->
<g id="edge30" class="edge">
<title>N2&#45;&gt;N28</title>
<path fill="none" stroke="#6c757d" d="M222.43,-3616.66C237.14,-3409.36 371.62,-1514 371.62,-1514 371.62,-1514 394.47,-1508.5 420.27,-1502.29"/>
<polygon fill="#6c757d" stroke="#6c757d" points="420.64,-1504.72 426.87,-1500.7 419.5,-1499.96 420.64,-1504.72"/>
</g>
<!-- N29 -->
<g id="node30" class="node">
<title>N29</title>
<path fill="#f8f9fa" stroke="#ced4da" d="M524.38,-1561C524.38,-1561 461.88,-1561 461.88,-1561 455.88,-1561 449.88,-1555 449.88,-1549 449.88,-1549 449.88,-1537 449.88,-1537 449.88,-1531 455.88,-1525 461.88,-1525 461.88,-1525 524.38,-1525 524.38,-1525 530.38,-1525 536.38,-1531 536.38,-1537 536.38,-1537 536.38,-1549 536.38,-1549 536.38,-1555 530.38,-1561 524.38,-1561"/>
<text text-anchor="middle" x="493.12" y="-1540.62" font-family="Helvetica,Arial,sans-serif" font-size="10.00" fill="#212529">📄 forgejo.nix</text>
</g>
<!-- N2&#45;&gt;N29 -->
<g id="edge31" class="edge">
<title>N2&#45;&gt;N29</title>
<path fill="none" stroke="#6c757d" d="M222.47,-3616.54C237.41,-3411.72 371.62,-1572 371.62,-1572 371.62,-1572 408.44,-1563.14 441.38,-1555.21"/>
<polygon fill="#6c757d" stroke="#6c757d" points="441.94,-1557.6 448.17,-1553.58 440.79,-1552.83 441.94,-1557.6"/>
</g>
<!-- N30 -->
<g id="node31" class="node">
<title>N30</title>
<path fill="#f8f9fa" stroke="#ced4da" d="M533,-1619C533,-1619 453.25,-1619 453.25,-1619 447.25,-1619 441.25,-1613 441.25,-1607 441.25,-1607 441.25,-1595 441.25,-1595 441.25,-1589 447.25,-1583 453.25,-1583 453.25,-1583 533,-1583 533,-1583 539,-1583 545,-1589 545,-1595 545,-1595 545,-1607 545,-1607 545,-1613 539,-1619 533,-1619"/>
<text text-anchor="middle" x="493.12" y="-1598.62" font-family="Helvetica,Arial,sans-serif" font-size="10.00" fill="#212529">📄 homepage.nix</text>
</g>
<!-- N2&#45;&gt;N30 -->
<g id="edge32" class="edge">
<title>N2&#45;&gt;N30</title>
<path fill="none" stroke="#6c757d" d="M222.5,-3616.74C237.55,-3416.15 371.62,-1630 371.62,-1630 371.62,-1630 402.43,-1622.59 432.89,-1615.26"/>
<polygon fill="#6c757d" stroke="#6c757d" points="433.32,-1617.67 439.55,-1613.65 432.17,-1612.91 433.32,-1617.67"/>
</g>
<!-- N31 -->
<g id="node32" class="node">
<title>N31</title>
<path fill="#f8f9fa" stroke="#ced4da" d="M538.25,-1677C538.25,-1677 448,-1677 448,-1677 442,-1677 436,-1671 436,-1665 436,-1665 436,-1653 436,-1653 436,-1647 442,-1641 448,-1641 448,-1641 538.25,-1641 538.25,-1641 544.25,-1641 550.25,-1647 550.25,-1653 550.25,-1653 550.25,-1665 550.25,-1665 550.25,-1671 544.25,-1677 538.25,-1677"/>
<text text-anchor="middle" x="493.12" y="-1656.62" font-family="Helvetica,Arial,sans-serif" font-size="10.00" fill="#212529">📄 local&#45;finance.nix</text>
</g>
<!-- N2&#45;&gt;N31 -->
<g id="edge33" class="edge">
<title>N2&#45;&gt;N31</title>
<path fill="none" stroke="#6c757d" d="M222.54,-3616.66C237.83,-3418.89 371.62,-1688 371.62,-1688 371.62,-1688 399,-1681.41 427.66,-1674.51"/>
<polygon fill="#6c757d" stroke="#6c757d" points="428.05,-1676.94 434.28,-1672.92 426.91,-1672.18 428.05,-1676.94"/>
</g>
<!-- N32 -->
<g id="node33" class="node">
<title>N32</title>
<path fill="#f8f9fa" stroke="#ced4da" d="M516.12,-1735C516.12,-1735 470.12,-1735 470.12,-1735 464.12,-1735 458.12,-1729 458.12,-1723 458.12,-1723 458.12,-1711 458.12,-1711 458.12,-1705 464.12,-1699 470.12,-1699 470.12,-1699 516.12,-1699 516.12,-1699 522.12,-1699 528.12,-1705 528.12,-1711 528.12,-1711 528.12,-1723 528.12,-1723 528.12,-1729 522.12,-1735 516.12,-1735"/>
<text text-anchor="middle" x="493.12" y="-1714.62" font-family="Helvetica,Arial,sans-serif" font-size="10.00" fill="#212529">📄 n8n.nix</text>
</g>
<!-- N2&#45;&gt;N32 -->
<g id="edge34" class="edge">
<title>N2&#45;&gt;N32</title>
<path fill="none" stroke="#6c757d" d="M222.59,-3616.61C238.11,-3421.86 371.62,-1746 371.62,-1746 371.62,-1746 415.05,-1735.55 449.76,-1727.2"/>
<polygon fill="#6c757d" stroke="#6c757d" points="450.21,-1729.61 456.45,-1725.59 449.07,-1724.84 450.21,-1729.61"/>
</g>
<!-- N33 -->
<g id="node34" class="node">
<title>N33</title>
<path fill="#f8f9fa" stroke="#ced4da" d="M522.5,-1793C522.5,-1793 463.75,-1793 463.75,-1793 457.75,-1793 451.75,-1787 451.75,-1781 451.75,-1781 451.75,-1769 451.75,-1769 451.75,-1763 457.75,-1757 463.75,-1757 463.75,-1757 522.5,-1757 522.5,-1757 528.5,-1757 534.5,-1763 534.5,-1769 534.5,-1769 534.5,-1781 534.5,-1781 534.5,-1787 528.5,-1793 522.5,-1793"/>
<text text-anchor="middle" x="493.12" y="-1772.62" font-family="Helvetica,Arial,sans-serif" font-size="10.00" fill="#212529">📄 quartz.nix</text>
</g>
<!-- N2&#45;&gt;N33 -->
<g id="edge35" class="edge">
<title>N2&#45;&gt;N33</title>
<path fill="none" stroke="#6c757d" d="M222.64,-3616.58C238.38,-3425.03 371.62,-1804 371.62,-1804 371.62,-1804 409.98,-1794.77 443.41,-1786.72"/>
<polygon fill="#6c757d" stroke="#6c757d" points="443.63,-1789.19 449.86,-1785.17 442.48,-1784.43 443.63,-1789.19"/>
</g>
<!-- N34 -->
<g id="node35" class="node">
<title>N34</title>
<path fill="#f8f9fa" stroke="#ced4da" d="M521.75,-1851C521.75,-1851 464.5,-1851 464.5,-1851 458.5,-1851 452.5,-1845 452.5,-1839 452.5,-1839 452.5,-1827 452.5,-1827 452.5,-1821 458.5,-1815 464.5,-1815 464.5,-1815 521.75,-1815 521.75,-1815 527.75,-1815 533.75,-1821 533.75,-1827 533.75,-1827 533.75,-1839 533.75,-1839 533.75,-1845 527.75,-1851 521.75,-1851"/>
<text text-anchor="middle" x="493.12" y="-1830.62" font-family="Helvetica,Arial,sans-serif" font-size="10.00" fill="#212529">📄 romm.nix</text>
</g>
<!-- N2&#45;&gt;N34 -->
<g id="edge36" class="edge">
<title>N2&#45;&gt;N34</title>
<path fill="none" stroke="#6c757d" d="M222.69,-3616.58C238.66,-3428.43 371.62,-1862 371.62,-1862 371.62,-1862 410.47,-1852.65 444.05,-1844.57"/>
<polygon fill="#6c757d" stroke="#6c757d" points="444.3,-1847.03 450.53,-1843.01 443.15,-1842.27 444.3,-1847.03"/>
</g>
<!-- N35 -->
<g id="node36" class="node">
<title>N35</title>
<path fill="#f8f9fa" stroke="#ced4da" d="M552.12,-1909C552.12,-1909 434.12,-1909 434.12,-1909 428.12,-1909 422.12,-1903 422.12,-1897 422.12,-1897 422.12,-1885 422.12,-1885 422.12,-1879 428.12,-1873 434.12,-1873 434.12,-1873 552.12,-1873 552.12,-1873 558.12,-1873 564.12,-1879 564.12,-1885 564.12,-1885 564.12,-1897 564.12,-1897 564.12,-1903 558.12,-1909 552.12,-1909"/>
<text text-anchor="middle" x="493.12" y="-1888.62" font-family="Helvetica,Arial,sans-serif" font-size="10.00" fill="#212529">📄 security&#45;watchdog.nix</text>
</g>
<!-- N2&#45;&gt;N35 -->
<g id="edge37" class="edge">
<title>N2&#45;&gt;N35</title>
<path fill="none" stroke="#6c757d" d="M222.74,-3616.61C238.94,-3432.04 371.62,-1920 371.62,-1920 371.62,-1920 390.58,-1915.44 413.45,-1909.93"/>
<polygon fill="#6c757d" stroke="#6c757d" points="413.98,-1912.33 420.21,-1908.31 412.83,-1907.56 413.98,-1912.33"/>
</g>
<!-- N36 -->
<g id="node37" class="node">
<title>N36</title>
<path fill="#f8f9fa" stroke="#ced4da" d="M533.38,-1967C533.38,-1967 452.88,-1967 452.88,-1967 446.88,-1967 440.88,-1961 440.88,-1955 440.88,-1955 440.88,-1943 440.88,-1943 440.88,-1937 446.88,-1931 452.88,-1931 452.88,-1931 533.38,-1931 533.38,-1931 539.38,-1931 545.38,-1937 545.38,-1943 545.38,-1943 545.38,-1955 545.38,-1955 545.38,-1961 539.38,-1967 533.38,-1967"/>
<text text-anchor="middle" x="493.12" y="-1946.62" font-family="Helvetica,Arial,sans-serif" font-size="10.00" fill="#212529">📄 stirling&#45;pdf.nix</text>
</g>
<!-- N2&#45;&gt;N36 -->
<g id="edge38" class="edge">
<title>N2&#45;&gt;N36</title>
<path fill="none" stroke="#6c757d" d="M222.79,-3616.67C239.21,-3435.87 371.62,-1978 371.62,-1978 371.62,-1978 402.21,-1970.64 432.56,-1963.33"/>
<polygon fill="#6c757d" stroke="#6c757d" points="432.97,-1965.76 439.2,-1961.74 431.82,-1960.99 432.97,-1965.76"/>
</g>
<!-- N37 -->
<g id="node38" class="node">
<title>N37</title>
<path fill="#f8f9fa" stroke="#ced4da" d="M516.88,-2025C516.88,-2025 469.38,-2025 469.38,-2025 463.38,-2025 457.38,-2019 457.38,-2013 457.38,-2013 457.38,-2001 457.38,-2001 457.38,-1995 463.38,-1989 469.38,-1989 469.38,-1989 516.88,-1989 516.88,-1989 522.88,-1989 528.88,-1995 528.88,-2001 528.88,-2001 528.88,-2013 528.88,-2013 528.88,-2019 522.88,-2025 516.88,-2025"/>
<text text-anchor="middle" x="493.12" y="-2004.62" font-family="Helvetica,Arial,sans-serif" font-size="10.00" fill="#212529">📄 vert.nix</text>
</g>
<!-- N2&#45;&gt;N37 -->
<g id="edge39" class="edge">
<title>N2&#45;&gt;N37</title>
<path fill="none" stroke="#6c757d" d="M222.84,-3616.77C239.49,-3439.91 371.62,-2036 371.62,-2036 371.62,-2036 414.27,-2025.74 448.82,-2017.42"/>
<polygon fill="#6c757d" stroke="#6c757d" points="449.24,-2019.84 455.48,-2015.82 448.1,-2015.08 449.24,-2019.84"/>
</g>
<!-- N38 -->
<g id="node39" class="node">
<title>N38</title>
<path fill="#f8f9fa" stroke="#ced4da" d="M524.75,-2083C524.75,-2083 461.5,-2083 461.5,-2083 455.5,-2083 449.5,-2077 449.5,-2071 449.5,-2071 449.5,-2059 449.5,-2059 449.5,-2053 455.5,-2047 461.5,-2047 461.5,-2047 524.75,-2047 524.75,-2047 530.75,-2047 536.75,-2053 536.75,-2059 536.75,-2059 536.75,-2071 536.75,-2071 536.75,-2077 530.75,-2083 524.75,-2083"/>
<text text-anchor="middle" x="493.12" y="-2062.62" font-family="Helvetica,Arial,sans-serif" font-size="10.00" fill="#212529">📄 vikunja.nix</text>
</g>
<!-- N2&#45;&gt;N38 -->
<g id="edge40" class="edge">
<title>N2&#45;&gt;N38</title>
<path fill="none" stroke="#6c757d" d="M222.92,-3616.62C239.9,-3442.76 371.62,-2094 371.62,-2094 371.62,-2094 408.2,-2085.2 441.05,-2077.29"/>
<polygon fill="#6c757d" stroke="#6c757d" points="441.6,-2079.68 447.83,-2075.66 440.45,-2074.92 441.6,-2079.68"/>
</g>
<!-- N39 -->
<g id="node40" class="node">
<title>N39</title>
<path fill="#f8f9fa" stroke="#ced4da" d="M529.62,-2141C529.62,-2141 456.62,-2141 456.62,-2141 450.62,-2141 444.62,-2135 444.62,-2129 444.62,-2129 444.62,-2117 444.62,-2117 444.62,-2111 450.62,-2105 456.62,-2105 456.62,-2105 529.62,-2105 529.62,-2105 535.62,-2105 541.62,-2111 541.62,-2117 541.62,-2117 541.62,-2129 541.62,-2129 541.62,-2135 535.62,-2141 529.62,-2141"/>
<text text-anchor="middle" x="493.12" y="-2120.62" font-family="Helvetica,Arial,sans-serif" font-size="10.00" fill="#212529">📄 wanderer.nix</text>
</g>
<!-- N2&#45;&gt;N39 -->
<g id="edge41" class="edge">
<title>N2&#45;&gt;N39</title>
<path fill="none" stroke="#6c757d" d="M223.03,-3616.64C240.45,-3448.56 371.62,-2183 371.62,-2183 371.62,-2183 413.42,-2162.19 447.79,-2145.08"/>
<polygon fill="#6c757d" stroke="#6c757d" points="448.46,-2147.48 453.63,-2142.17 446.27,-2143.09 448.46,-2147.48"/>
</g>
<!-- N40 -->
<g id="node41" class="node">
<title>N40</title>
<path fill="#f8f9fa" stroke="#ced4da" d="M530.38,-1115C530.38,-1115 455.88,-1115 455.88,-1115 449.88,-1115 443.88,-1109 443.88,-1103 443.88,-1103 443.88,-1091 443.88,-1091 443.88,-1085 449.88,-1079 455.88,-1079 455.88,-1079 530.38,-1079 530.38,-1079 536.38,-1079 542.38,-1085 542.38,-1091 542.38,-1091 542.38,-1103 542.38,-1103 542.38,-1109 536.38,-1115 530.38,-1115"/>
<text text-anchor="middle" x="493.12" y="-1094.62" font-family="Helvetica,Arial,sans-serif" font-size="10.00" fill="#212529">📄 authentik.nix</text>
</g>
<!-- N2&#45;&gt;N40 -->
<g id="edge42" class="edge">
<title>N2&#45;&gt;N40</title>
<path fill="none" stroke="#6c757d" d="M222.23,-3616.6C235.88,-3388.98 371.62,-1126 371.62,-1126 371.62,-1126 404.25,-1118.15 435.55,-1110.62"/>
<polygon fill="#6c757d" stroke="#6c757d" points="435.76,-1113.09 441.99,-1109.07 434.61,-1108.32 435.76,-1113.09"/>
</g>
<!-- N41 -->
<g id="node42" class="node">
<title>N41</title>
<path fill="#f8f9fa" stroke="#ced4da" d="M521,-1173C521,-1173 465.25,-1173 465.25,-1173 459.25,-1173 453.25,-1167 453.25,-1161 453.25,-1161 453.25,-1149 453.25,-1149 453.25,-1143 459.25,-1137 465.25,-1137 465.25,-1137 521,-1137 521,-1137 527,-1137 533,-1143 533,-1149 533,-1149 533,-1161 533,-1161 533,-1167 527,-1173 521,-1173"/>
<text text-anchor="middle" x="493.12" y="-1152.62" font-family="Helvetica,Arial,sans-serif" font-size="10.00" fill="#212529">📄 caddy.nix</text>
</g>
<!-- N2&#45;&gt;N41 -->
<g id="edge43" class="edge">
<title>N2&#45;&gt;N41</title>
<path fill="none" stroke="#6c757d" d="M222.25,-3616.68C236.02,-3392.39 371.62,-1184 371.62,-1184 371.62,-1184 411.21,-1174.47 445.01,-1166.34"/>
<polygon fill="#6c757d" stroke="#6c757d" points="445.3,-1168.79 451.53,-1164.77 444.15,-1164.03 445.3,-1168.79"/>
</g>
<!-- N42 -->
<g id="node43" class="node">
<title>N42</title>
<path fill="#f8f9fa" stroke="#ced4da" d="M534.12,-1231C534.12,-1231 452.12,-1231 452.12,-1231 446.12,-1231 440.12,-1225 440.12,-1219 440.12,-1219 440.12,-1207 440.12,-1207 440.12,-1201 446.12,-1195 452.12,-1195 452.12,-1195 534.12,-1195 534.12,-1195 540.12,-1195 546.12,-1201 546.12,-1207 546.12,-1207 546.12,-1219 546.12,-1219 546.12,-1225 540.12,-1231 534.12,-1231"/>
<text text-anchor="middle" x="493.12" y="-1210.62" font-family="Helvetica,Arial,sans-serif" font-size="10.00" fill="#212529">📄 cloudflared.nix</text>
</g>
<!-- N2&#45;&gt;N42 -->
<g id="edge44" class="edge">
<title>N2&#45;&gt;N42</title>
<path fill="none" stroke="#6c757d" d="M222.27,-3616.77C236.16,-3395.91 371.62,-1242 371.62,-1242 371.62,-1242 401.78,-1234.74 431.91,-1227.49"/>
<polygon fill="#6c757d" stroke="#6c757d" points="432.27,-1229.93 438.5,-1225.91 431.12,-1225.16 432.27,-1229.93"/>
</g>
<!-- N43 -->
<g id="node44" class="node">
<title>N43</title>
<path fill="#f8f9fa" stroke="#ced4da" d="M555.88,-1289C555.88,-1289 430.38,-1289 430.38,-1289 424.38,-1289 418.38,-1283 418.38,-1277 418.38,-1277 418.38,-1265 418.38,-1265 418.38,-1259 424.38,-1253 430.38,-1253 430.38,-1253 555.88,-1253 555.88,-1253 561.88,-1253 567.88,-1259 567.88,-1265 567.88,-1265 567.88,-1277 567.88,-1277 567.88,-1283 561.88,-1289 555.88,-1289"/>
<text text-anchor="middle" x="493.12" y="-1268.62" font-family="Helvetica,Arial,sans-serif" font-size="10.00" fill="#212529">📄 docker&#45;socket&#45;proxy.nix</text>
</g>
<!-- N2&#45;&gt;N43 -->
<g id="edge45" class="edge">
<title>N2&#45;&gt;N43</title>
<path fill="none" stroke="#6c757d" d="M222.31,-3616.54C236.44,-3397.38 371.62,-1300 371.62,-1300 371.62,-1300 388.79,-1295.87 410.17,-1290.72"/>
<polygon fill="#6c757d" stroke="#6c757d" points="410.51,-1293.16 416.74,-1289.14 409.36,-1288.4 410.51,-1293.16"/>
</g>
<!-- N44 -->
<g id="node45" class="node">
<title>N44</title>
<path fill="#f8f9fa" stroke="#ced4da" d="M525.5,-1347C525.5,-1347 460.75,-1347 460.75,-1347 454.75,-1347 448.75,-1341 448.75,-1335 448.75,-1335 448.75,-1323 448.75,-1323 448.75,-1317 454.75,-1311 460.75,-1311 460.75,-1311 525.5,-1311 525.5,-1311 531.5,-1311 537.5,-1317 537.5,-1323 537.5,-1323 537.5,-1335 537.5,-1335 537.5,-1341 531.5,-1347 525.5,-1347"/>
<text text-anchor="middle" x="493.12" y="-1326.62" font-family="Helvetica,Arial,sans-serif" font-size="10.00" fill="#212529">📄 gluetun.nix</text>
</g>
<!-- N2&#45;&gt;N44 -->
<g id="edge46" class="edge">
<title>N2&#45;&gt;N44</title>
<path fill="none" stroke="#6c757d" d="M222.34,-3616.67C236.58,-3401.18 371.62,-1358 371.62,-1358 371.62,-1358 407.49,-1349.37 440.09,-1341.52"/>
<polygon fill="#6c757d" stroke="#6c757d" points="440.58,-1343.93 446.81,-1339.91 439.43,-1339.16 440.58,-1343.93"/>
</g>
<!-- N45 -->
<g id="node46" class="node">
<title>N45</title>
<path fill="#f8f9fa" stroke="#ced4da" d="M519.12,-1405C519.12,-1405 467.12,-1405 467.12,-1405 461.12,-1405 455.12,-1399 455.12,-1393 455.12,-1393 455.12,-1381 455.12,-1381 455.12,-1375 461.12,-1369 467.12,-1369 467.12,-1369 519.12,-1369 519.12,-1369 525.12,-1369 531.12,-1375 531.12,-1381 531.12,-1381 531.12,-1393 531.12,-1393 531.12,-1399 525.12,-1405 519.12,-1405"/>
<text text-anchor="middle" x="493.12" y="-1384.62" font-family="Helvetica,Arial,sans-serif" font-size="10.00" fill="#212529">📄 lldap.nix</text>
</g>
<!-- N2&#45;&gt;N45 -->
<g id="edge47" class="edge">
<title>N2&#45;&gt;N45</title>
<path fill="none" stroke="#6c757d" d="M222.38,-3616.74C236.86,-3406.27 371.62,-1447 371.62,-1447 371.62,-1447 413.42,-1426.19 447.79,-1409.08"/>
<polygon fill="#6c757d" stroke="#6c757d" points="448.46,-1411.48 453.63,-1406.17 446.27,-1407.09 448.46,-1411.48"/>
</g>
<!-- N50 -->
<g id="node51" class="node">
<title>N50</title>
<path fill="#f8f9fa" stroke="#ced4da" d="M524.38,-607C524.38,-607 461.88,-607 461.88,-607 455.88,-607 449.88,-601 449.88,-595 449.88,-595 449.88,-583 449.88,-583 449.88,-577 455.88,-571 461.88,-571 461.88,-571 524.38,-571 524.38,-571 530.38,-571 536.38,-577 536.38,-583 536.38,-583 536.38,-595 536.38,-595 536.38,-601 530.38,-607 524.38,-607"/>
<text text-anchor="middle" x="493.12" y="-586.62" font-family="Helvetica,Arial,sans-serif" font-size="10.00" fill="#212529">📄 default.nix</text>
</g>
<!-- N2&#45;&gt;N50 -->
<g id="edge48" class="edge">
<title>N2&#45;&gt;N50</title>
<path fill="none" stroke="#6c757d" d="M222.05,-3616.71C234.62,-3367.19 371.62,-649 371.62,-649 371.62,-649 413.42,-628.19 447.79,-611.08"/>
<polygon fill="#6c757d" stroke="#6c757d" points="448.46,-613.48 453.63,-608.17 446.27,-609.09 448.46,-613.48"/>
</g>
<!-- N55 -->
<g id="node56" class="node">
<title>N55</title>
<path fill="#f8f9fa" stroke="#ced4da" d="M518.75,-861C518.75,-861 467.5,-861 467.5,-861 461.5,-861 455.5,-855 455.5,-849 455.5,-849 455.5,-837 455.5,-837 455.5,-831 461.5,-825 467.5,-825 467.5,-825 518.75,-825 518.75,-825 524.75,-825 530.75,-831 530.75,-837 530.75,-837 530.75,-849 530.75,-849 530.75,-855 524.75,-861 518.75,-861"/>
<text text-anchor="middle" x="493.12" y="-840.62" font-family="Helvetica,Arial,sans-serif" font-size="10.00" fill="#212529">📄 base.nix</text>
</g>
<!-- N2&#45;&gt;N55 -->
<g id="edge49" class="edge">
<title>N2&#45;&gt;N55</title>
<path fill="none" stroke="#6c757d" d="M222.13,-3616.63C235.18,-3376.9 371.62,-872 371.62,-872 371.62,-872 412.98,-862.05 447.24,-853.8"/>
<polygon fill="#6c757d" stroke="#6c757d" points="447.61,-856.23 453.84,-852.21 446.47,-851.47 447.61,-856.23"/>
</g>
<!-- N56 -->
<g id="node57" class="node">
<title>N56</title>
<path fill="#f8f9fa" stroke="#ced4da" d="M522.12,-919C522.12,-919 464.12,-919 464.12,-919 458.12,-919 452.12,-913 452.12,-907 452.12,-907 452.12,-895 452.12,-895 452.12,-889 458.12,-883 464.12,-883 464.12,-883 522.12,-883 522.12,-883 528.12,-883 534.12,-889 534.12,-895 534.12,-895 534.12,-907 534.12,-907 534.12,-913 528.12,-919 522.12,-919"/>
<text text-anchor="middle" x="493.12" y="-898.62" font-family="Helvetica,Arial,sans-serif" font-size="10.00" fill="#212529">📄 server.nix</text>
</g>
<!-- N2&#45;&gt;N56 -->
<g id="edge50" class="edge">
<title>N2&#45;&gt;N56</title>
<path fill="none" stroke="#6c757d" d="M222.15,-3616.86C235.32,-3382.73 371.62,-961 371.62,-961 371.62,-961 413.42,-940.19 447.79,-923.08"/>
<polygon fill="#6c757d" stroke="#6c757d" points="448.46,-925.48 453.63,-920.17 446.27,-921.09 448.46,-925.48"/>
</g>
<!-- N58 -->
<g id="node59" class="node">
<title>N58</title>
<path fill="#f8f9fa" stroke="#ced4da" d="M524.38,-705C524.38,-705 461.88,-705 461.88,-705 455.88,-705 449.88,-699 449.88,-693 449.88,-693 449.88,-681 449.88,-681 449.88,-675 455.88,-669 461.88,-669 461.88,-669 524.38,-669 524.38,-669 530.38,-669 536.38,-675 536.38,-681 536.38,-681 536.38,-693 536.38,-693 536.38,-699 530.38,-705 524.38,-705"/>
<text text-anchor="middle" x="493.12" y="-684.62" font-family="Helvetica,Arial,sans-serif" font-size="10.00" fill="#212529">📄 default.nix</text>
</g>
<!-- N2&#45;&gt;N58 -->
<g id="edge51" class="edge">
<title>N2&#45;&gt;N58</title>
<path fill="none" stroke="#6c757d" d="M222.09,-3616.56C234.9,-3370.6 371.62,-747 371.62,-747 371.62,-747 413.42,-726.19 447.79,-709.08"/>
<polygon fill="#6c757d" stroke="#6c757d" points="448.46,-711.48 453.63,-706.17 446.27,-707.09 448.46,-711.48"/>
</g>
<!-- N59 -->
<g id="node60" class="node">
<title>N59</title>
<path fill="#f8f9fa" stroke="#ced4da" d="M524.38,-1017C524.38,-1017 461.88,-1017 461.88,-1017 455.88,-1017 449.88,-1011 449.88,-1005 449.88,-1005 449.88,-993 449.88,-993 449.88,-987 455.88,-981 461.88,-981 461.88,-981 524.38,-981 524.38,-981 530.38,-981 536.38,-987 536.38,-993 536.38,-993 536.38,-1005 536.38,-1005 536.38,-1011 530.38,-1017 524.38,-1017"/>
<text text-anchor="middle" x="493.12" y="-996.62" font-family="Helvetica,Arial,sans-serif" font-size="10.00" fill="#212529">📄 default.nix</text>
</g>
<!-- N2&#45;&gt;N59 -->
<g id="edge52" class="edge">
<title>N2&#45;&gt;N59</title>
<path fill="none" stroke="#6c757d" d="M222.19,-3616.82C235.6,-3387.19 371.62,-1059 371.62,-1059 371.62,-1059 413.42,-1038.19 447.79,-1021.08"/>
<polygon fill="#6c757d" stroke="#6c757d" points="448.46,-1023.48 453.63,-1018.17 446.27,-1019.09 448.46,-1023.48"/>
</g>
<!-- N47 -->
<g id="node48" class="node">
<title>N47</title>
<path fill="#f8f9fa" stroke="#ced4da" d="M563.75,-353C563.75,-353 422.5,-353 422.5,-353 416.5,-353 410.5,-347 410.5,-341 410.5,-341 410.5,-329 410.5,-329 410.5,-323 416.5,-317 422.5,-317 422.5,-317 563.75,-317 563.75,-317 569.75,-317 575.75,-323 575.75,-329 575.75,-329 575.75,-341 575.75,-341 575.75,-347 569.75,-353 563.75,-353"/>
<text text-anchor="middle" x="493.12" y="-332.62" font-family="Helvetica,Arial,sans-serif" font-size="10.00" fill="#212529">📄 hardware&#45;configuration.nix</text>
</g>
<!-- N46&#45;&gt;N47 -->
<g id="edge53" class="edge">
<title>N46&#45;&gt;N47</title>
<path fill="none" stroke="#6c757d" d="M278.27,-335C314.08,-335 361.02,-335 401.79,-335"/>
<polygon fill="#6c757d" stroke="#6c757d" points="401.61,-337.45 408.61,-335 401.61,-332.55 401.61,-337.45"/>
</g>
<!-- N46&#45;&gt;N50 -->
<g id="edge54" class="edge">
<title>N46&#45;&gt;N50</title>
<path fill="none" stroke="#6c757d" d="M233.7,-353.21C269.87,-405.61 371.62,-553 371.62,-553 371.62,-553 408.76,-564.09 441.8,-573.96"/>
<polygon fill="#6c757d" stroke="#6c757d" points="440.78,-576.22 448.19,-575.87 442.19,-571.52 440.78,-576.22"/>
</g>
<!-- N51 -->
<g id="node52" class="node">
<title>N51</title>
<path fill="#f8f9fa" stroke="#ced4da" d="M524.38,-451C524.38,-451 461.88,-451 461.88,-451 455.88,-451 449.88,-445 449.88,-439 449.88,-439 449.88,-427 449.88,-427 449.88,-421 455.88,-415 461.88,-415 461.88,-415 524.38,-415 524.38,-415 530.38,-415 536.38,-421 536.38,-427 536.38,-427 536.38,-439 536.38,-439 536.38,-445 530.38,-451 524.38,-451"/>
<text text-anchor="middle" x="493.12" y="-430.62" font-family="Helvetica,Arial,sans-serif" font-size="10.00" fill="#212529">📄 default.nix</text>
</g>
<!-- N46&#45;&gt;N51 -->
<g id="edge55" class="edge">
<title>N46&#45;&gt;N51</title>
<path fill="none" stroke="#6c757d" d="M265.87,-353.43C310.24,-371.71 371.62,-397 371.62,-397 371.62,-397 408.76,-408.09 441.8,-417.96"/>
<polygon fill="#6c757d" stroke="#6c757d" points="440.78,-420.22 448.19,-419.87 442.19,-415.52 440.78,-420.22"/>
</g>
<!-- N52 -->
<g id="node53" class="node">
<title>N52</title>
<path fill="#f8f9fa" stroke="#ced4da" d="M530.38,-509C530.38,-509 455.88,-509 455.88,-509 449.88,-509 443.88,-503 443.88,-497 443.88,-497 443.88,-485 443.88,-485 443.88,-479 449.88,-473 455.88,-473 455.88,-473 530.38,-473 530.38,-473 536.38,-473 542.38,-479 542.38,-485 542.38,-485 542.38,-497 542.38,-497 542.38,-503 536.38,-509 530.38,-509"/>
<text text-anchor="middle" x="493.12" y="-488.62" font-family="Helvetica,Arial,sans-serif" font-size="10.00" fill="#212529">📄 minecraft.nix</text>
</g>
<!-- N46&#45;&gt;N52 -->
<g id="edge56" class="edge">
<title>N46&#45;&gt;N52</title>
<path fill="none" stroke="#6c757d" d="M243.01,-353.47C284.75,-388.69 371.62,-462 371.62,-462 371.62,-462 404.25,-469.85 435.55,-477.38"/>
<polygon fill="#6c757d" stroke="#6c757d" points="434.61,-479.68 441.99,-478.93 435.76,-474.91 434.61,-479.68"/>
</g>
<!-- N53 -->
<g id="node54" class="node">
<title>N53</title>
<path fill="#f8f9fa" stroke="#ced4da" d="M524.38,-157C524.38,-157 461.88,-157 461.88,-157 455.88,-157 449.88,-151 449.88,-145 449.88,-145 449.88,-133 449.88,-133 449.88,-127 455.88,-121 461.88,-121 461.88,-121 524.38,-121 524.38,-121 530.38,-121 536.38,-127 536.38,-133 536.38,-133 536.38,-145 536.38,-145 536.38,-151 530.38,-157 524.38,-157"/>
<text text-anchor="middle" x="493.12" y="-136.62" font-family="Helvetica,Arial,sans-serif" font-size="10.00" fill="#212529">📄 default.nix</text>
</g>
<!-- N46&#45;&gt;N53 -->
<g id="edge57" class="edge">
<title>N46&#45;&gt;N53</title>
<path fill="none" stroke="#6c757d" d="M241.42,-316.66C282.5,-279.54 371.62,-199 371.62,-199 371.62,-199 413.42,-178.19 447.79,-161.08"/>
<polygon fill="#6c757d" stroke="#6c757d" points="448.46,-163.48 453.63,-158.17 446.27,-159.09 448.46,-163.48"/>
</g>
<!-- N46&#45;&gt;N55 -->
<g id="edge58" class="edge">
<title>N46&#45;&gt;N55</title>
<path fill="none" stroke="#6c757d" d="M226.93,-353.48C254.59,-441.51 371.62,-814 371.62,-814 371.62,-814 412.98,-823.95 447.24,-832.2"/>
<polygon fill="#6c757d" stroke="#6c757d" points="446.47,-834.53 453.84,-833.79 447.61,-829.77 446.47,-834.53"/>
</g>
<!-- N57 -->
<g id="node58" class="node">
<title>N57</title>
<path fill="#f8f9fa" stroke="#ced4da" d="M521.75,-803C521.75,-803 464.5,-803 464.5,-803 458.5,-803 452.5,-797 452.5,-791 452.5,-791 452.5,-779 452.5,-779 452.5,-773 458.5,-767 464.5,-767 464.5,-767 521.75,-767 521.75,-767 527.75,-767 533.75,-773 533.75,-779 533.75,-779 533.75,-791 533.75,-791 533.75,-797 527.75,-803 521.75,-803"/>
<text text-anchor="middle" x="493.12" y="-782.62" font-family="Helvetica,Arial,sans-serif" font-size="10.00" fill="#212529">📄 sound.nix</text>
</g>
<!-- N46&#45;&gt;N57 -->
<g id="edge59" class="edge">
<title>N46&#45;&gt;N57</title>
<path fill="none" stroke="#6c757d" d="M227.79,-353.32C256.91,-433.44 371.62,-749 371.62,-749 371.62,-749 410.47,-760.6 444.05,-770.64"/>
<polygon fill="#6c757d" stroke="#6c757d" points="443.14,-772.92 450.55,-772.58 444.54,-768.23 443.14,-772.92"/>
</g>
<!-- N46&#45;&gt;N58 -->
<g id="edge60" class="edge">
<title>N46&#45;&gt;N58</title>
<path fill="none" stroke="#6c757d" d="M229.87,-353.36C261.99,-420.8 371.62,-651 371.62,-651 371.62,-651 408.76,-662.09 441.8,-671.96"/>
<polygon fill="#6c757d" stroke="#6c757d" points="440.78,-674.22 448.19,-673.87 442.19,-669.52 440.78,-674.22"/>
</g>
<!-- N61 -->
<g id="node62" class="node">
<title>N61</title>
<path fill="#f8f9fa" stroke="#ced4da" d="M524.38,-255C524.38,-255 461.88,-255 461.88,-255 455.88,-255 449.88,-249 449.88,-243 449.88,-243 449.88,-231 449.88,-231 449.88,-225 455.88,-219 461.88,-219 461.88,-219 524.38,-219 524.38,-219 530.38,-219 536.38,-225 536.38,-231 536.38,-231 536.38,-243 536.38,-243 536.38,-249 530.38,-255 524.38,-255"/>
<text text-anchor="middle" x="493.12" y="-234.62" font-family="Helvetica,Arial,sans-serif" font-size="10.00" fill="#212529">📄 default.nix</text>
</g>
<!-- N46&#45;&gt;N61 -->
<g id="edge61" class="edge">
<title>N46&#45;&gt;N61</title>
<path fill="none" stroke="#6c757d" d="M272.1,-316.57C320.61,-299.02 393.18,-272.78 441.56,-255.29"/>
<polygon fill="#6c757d" stroke="#6c757d" points="442.23,-257.65 447.98,-252.96 440.56,-253.04 442.23,-257.65"/>
</g>
<!-- N49 -->
<g id="node50" class="node">
<title>N49</title>
<path fill="#f8f9fa" stroke="#ced4da" d="M563.75,-59C563.75,-59 422.5,-59 422.5,-59 416.5,-59 410.5,-53 410.5,-47 410.5,-47 410.5,-35 410.5,-35 410.5,-29 416.5,-23 422.5,-23 422.5,-23 563.75,-23 563.75,-23 569.75,-23 575.75,-29 575.75,-35 575.75,-35 575.75,-47 575.75,-47 575.75,-53 569.75,-59 563.75,-59"/>
<text text-anchor="middle" x="493.12" y="-38.62" font-family="Helvetica,Arial,sans-serif" font-size="10.00" fill="#212529">📄 hardware&#45;configuration.nix</text>
</g>
<!-- N48&#45;&gt;N49 -->
<g id="edge62" class="edge">
<title>N48&#45;&gt;N49</title>
<path fill="none" stroke="#6c757d" d="M278.27,-41C314.08,-41 361.02,-41 401.79,-41"/>
<polygon fill="#6c757d" stroke="#6c757d" points="401.61,-43.45 408.61,-41 401.61,-38.55 401.61,-43.45"/>
</g>
<!-- N48&#45;&gt;N50 -->
<g id="edge63" class="edge">
<title>N48&#45;&gt;N50</title>
<path fill="none" stroke="#6c757d" d="M226.48,-59.22C253.29,-150.43 371.62,-553 371.62,-553 371.62,-553 408.76,-564.09 441.8,-573.96"/>
<polygon fill="#6c757d" stroke="#6c757d" points="440.78,-576.22 448.19,-575.87 442.19,-571.52 440.78,-576.22"/>
</g>
<!-- N48&#45;&gt;N53 -->
<g id="edge64" class="edge">
<title>N48&#45;&gt;N53</title>
<path fill="none" stroke="#6c757d" d="M265.87,-59.43C310.24,-77.71 371.62,-103 371.62,-103 371.62,-103 408.76,-114.09 441.8,-123.96"/>
<polygon fill="#6c757d" stroke="#6c757d" points="440.78,-126.22 448.19,-125.87 442.19,-121.52 440.78,-126.22"/>
</g>
<!-- N48&#45;&gt;N55 -->
<g id="edge65" class="edge">
<title>N48&#45;&gt;N55</title>
<path fill="none" stroke="#6c757d" d="M226.44,-59.41C243.38,-118.11 295,-297 295,-297 295,-297 371.62,-814 371.62,-814 371.62,-814 412.98,-823.95 447.24,-832.2"/>
<polygon fill="#6c757d" stroke="#6c757d" points="446.47,-834.53 453.84,-833.79 447.61,-829.77 446.47,-834.53"/>
</g>
<!-- N48&#45;&gt;N57 -->
<g id="edge66" class="edge">
<title>N48&#45;&gt;N57</title>
<path fill="none" stroke="#6c757d" d="M226.44,-59.41C243.38,-118.11 295,-297 295,-297 295,-297 371.62,-749 371.62,-749 371.62,-749 410.47,-760.6 444.05,-770.64"/>
<polygon fill="#6c757d" stroke="#6c757d" points="443.14,-772.92 450.55,-772.58 444.54,-768.23 443.14,-772.92"/>
</g>
<!-- N48&#45;&gt;N58 -->
<g id="edge67" class="edge">
<title>N48&#45;&gt;N58</title>
<path fill="none" stroke="#6c757d" d="M226.44,-59.41C243.38,-118.11 295,-297 295,-297 295,-297 371.62,-651 371.62,-651 371.62,-651 408.76,-662.09 441.8,-671.96"/>
<polygon fill="#6c757d" stroke="#6c757d" points="440.78,-674.22 448.19,-673.87 442.19,-669.52 440.78,-674.22"/>
</g>
<!-- N48&#45;&gt;N61 -->
<g id="edge68" class="edge">
<title>N48&#45;&gt;N61</title>
<path fill="none" stroke="#6c757d" d="M238.39,-59.35C277.92,-101.38 371.62,-201 371.62,-201 371.62,-201 408.76,-212.09 441.8,-221.96"/>
<polygon fill="#6c757d" stroke="#6c757d" points="440.78,-224.22 448.19,-223.87 442.19,-219.52 440.78,-224.22"/>
</g>
<!-- N54 -->
<g id="node55" class="node">
<title>N54</title>
<path fill="#f8f9fa" stroke="#ced4da" d="M806.88,-861C806.88,-861 698.62,-861 698.62,-861 692.62,-861 686.62,-855 686.62,-849 686.62,-849 686.62,-837 686.62,-837 686.62,-831 692.62,-825 698.62,-825 698.62,-825 806.88,-825 806.88,-825 812.88,-825 818.88,-831 818.88,-837 818.88,-837 818.88,-849 818.88,-849 818.88,-855 812.88,-861 806.88,-861"/>
<text text-anchor="middle" x="752.75" y="-840.62" font-family="Helvetica,Arial,sans-serif" font-size="10.00" fill="#212529">📄 architecture&#45;dag.nix</text>
</g>
<!-- N55&#45;&gt;N54 -->
<g id="edge69" class="edge">
<title>N55&#45;&gt;N54</title>
<path fill="none" stroke="#6c757d" d="M531.04,-843C569.16,-843 629.71,-843 677.75,-843"/>
<polygon fill="#6c757d" stroke="#6c757d" points="677.75,-845.45 684.75,-843 677.75,-840.55 677.75,-845.45"/>
</g>
<!-- N60 -->
<g id="node61" class="node">
<title>N60</title>
<path fill="#f8f9fa" stroke="#ced4da" d="M780.62,-1017C780.62,-1017 724.88,-1017 724.88,-1017 718.88,-1017 712.88,-1011 712.88,-1005 712.88,-1005 712.88,-993 712.88,-993 712.88,-987 718.88,-981 724.88,-981 724.88,-981 780.62,-981 780.62,-981 786.62,-981 792.62,-987 792.62,-993 792.62,-993 792.62,-1005 792.62,-1005 792.62,-1011 786.62,-1017 780.62,-1017"/>
<text text-anchor="middle" x="752.75" y="-996.62" font-family="Helvetica,Arial,sans-serif" font-size="10.00" fill="#212529">📄 home.nix</text>
</g>
<!-- N59&#45;&gt;N60 -->
<g id="edge70" class="edge">
<title>N59&#45;&gt;N60</title>
<path fill="none" stroke="#6c757d" d="M536.67,-999C582.78,-999 656.18,-999 704.17,-999"/>
<polygon fill="#6c757d" stroke="#6c757d" points="704.01,-1001.45 711.01,-999 704.01,-996.55 704.01,-1001.45"/>
</g>
<!-- N62 -->
<g id="node63" class="node">
<title>N62</title>
<path fill="#f8f9fa" stroke="#ced4da" d="M780.62,-255C780.62,-255 724.88,-255 724.88,-255 718.88,-255 712.88,-249 712.88,-243 712.88,-243 712.88,-231 712.88,-231 712.88,-225 718.88,-219 724.88,-219 724.88,-219 780.62,-219 780.62,-219 786.62,-219 792.62,-225 792.62,-231 792.62,-231 792.62,-243 792.62,-243 792.62,-249 786.62,-255 780.62,-255"/>
<text text-anchor="middle" x="752.75" y="-234.62" font-family="Helvetica,Arial,sans-serif" font-size="10.00" fill="#212529">📄 home.nix</text>
</g>
<!-- N61&#45;&gt;N62 -->
<g id="edge71" class="edge">
<title>N61&#45;&gt;N62</title>
<path fill="none" stroke="#6c757d" d="M536.67,-237C582.78,-237 656.18,-237 704.17,-237"/>
<polygon fill="#6c757d" stroke="#6c757d" points="704.01,-239.45 711.01,-237 704.01,-234.55 704.01,-239.45"/>
</g>
</g>
</svg>
