<?xml version="1.0" encoding="UTF-8" standalone="no"?>
<!DOCTYPE svg PUBLIC "-//W3C//DTD SVG 1.1//EN"
 "http://www.w3.org/Graphics/SVG/1.1/DTD/svg11.dtd">
<!-- Generated by graphviz version 12.2.1 (0)
 -->
<!-- Title: NixOS Pages: 1 -->
<svg width="871pt" height="3892pt"
 viewBox="0.00 0.00 870.50 3892.00" xmlns="http://www.w3.org/2000/svg" xmlns:xlink="http://www.w3.org/1999/xlink">
<g id="graph0" class="graph" transform="scale(1 1) rotate(0) translate(4 3888)">
<title>NixOS</title>
<polygon fill="white" stroke="none" points="-4,4 -4,-3888 866.5,-3888 866.5,4 -4,4"/>
<g id="clust1" class="cluster">
<title>cluster_hosts_devcontainer</title>
<path fill="#e9ecef" stroke="#adb5bd" d="M150.75,-3788C150.75,-3788 292,-3788 292,-3788 298,-3788 304,-3794 304,-3800 304,-3800 304,-3864 304,-3864 304,-3870 298,-3876 292,-3876 292,-3876 150.75,-3876 150.75,-3876 144.75,-3876 138.75,-3870 138.75,-3864 138.75,-3864 138.75,-3800 138.75,-3800 138.75,-3794 144.75,-3788 150.75,-3788"/>
<text text-anchor="middle" x="221.38" y="-3860.6" font-family="Helvetica,sans-Serif" font-weight="bold" font-size="12.00" fill="#495057">📁 hosts/devcontainer</text>
</g>
<g id="clust2" class="cluster">
<title>cluster_hosts_homelab</title>
<path fill="#e9ecef" stroke="#adb5bd" d="M166.38,-3634C166.38,-3634 589.62,-3634 589.62,-3634 595.62,-3634 601.62,-3640 601.62,-3646 601.62,-3646 601.62,-3768 601.62,-3768 601.62,-3774 595.62,-3780 589.62,-3780 589.62,-3780 166.38,-3780 166.38,-3780 160.38,-3780 154.38,-3774 154.38,-3768 154.38,-3768 154.38,-3646 154.38,-3646 154.38,-3640 160.38,-3634 166.38,-3634"/>
<text text-anchor="middle" x="378" y="-3764.6" font-family="Helvetica,sans-Serif" font-weight="bold" font-size="12.00" fill="#495057">📁 hosts/homelab</text>
</g>
<g id="clust3" class="cluster">
<title>cluster_hosts_homelab_services_media</title>
<path fill="#e9ecef" stroke="#adb5bd" d="M406.12,-2784C406.12,-2784 623.12,-2784 623.12,-2784 629.12,-2784 635.12,-2790 635.12,-2796 635.12,-2796 635.12,-3614 635.12,-3614 635.12,-3620 629.12,-3626 623.12,-3626 623.12,-3626 406.12,-3626 406.12,-3626 400.12,-3626 394.12,-3620 394.12,-3614 394.12,-3614 394.12,-2796 394.12,-2796 394.12,-2790 400.12,-2784 406.12,-2784"/>
<text text-anchor="middle" x="514.62" y="-3610.6" font-family="Helvetica,sans-Serif" font-weight="bold" font-size="12.00" fill="#495057">📁 hosts/homelab/services/media</text>
</g>
<g id="clust4" class="cluster">
<title>cluster_hosts_homelab_services_monitoring</title>
<path fill="#e9ecef" stroke="#adb5bd" d="M390,-2166C390,-2166 639.25,-2166 639.25,-2166 645.25,-2166 651.25,-2172 651.25,-2178 651.25,-2178 651.25,-2764 651.25,-2764 651.25,-2770 645.25,-2776 639.25,-2776 639.25,-2776 390,-2776 390,-2776 384,-2776 378,-2770 378,-2764 378,-2764 378,-2178 378,-2178 378,-2172 384,-2166 390,-2166"/>
<text text-anchor="middle" x="514.62" y="-2760.6" font-family="Helvetica,sans-Serif" font-weight="bold" font-size="12.00" fill="#495057">📁 hosts/homelab/services/monitoring</text>
</g>
<g id="clust5" class="cluster">
<title>cluster_hosts_homelab_services_random</title>
<path fill="#e9ecef" stroke="#adb5bd" d="M400.88,-1432C400.88,-1432 628.38,-1432 628.38,-1432 634.38,-1432 640.38,-1438 640.38,-1444 640.38,-1444 640.38,-2146 640.38,-2146 640.38,-2152 634.38,-2158 628.38,-2158 628.38,-2158 400.88,-2158 400.88,-2158 394.88,-2158 388.88,-2152 388.88,-2146 388.88,-2146 388.88,-1444 388.88,-1444 388.88,-1438 394.88,-1432 400.88,-1432"/>
<text text-anchor="middle" x="514.62" y="-2142.6" font-family="Helvetica,sans-Serif" font-weight="bold" font-size="12.00" fill="#495057">📁 hosts/homelab/services/random</text>
</g>
<g id="clust6" class="cluster">
<title>cluster_hosts_homelab_services_security</title>
<path fill="#e9ecef" stroke="#adb5bd" d="M399.75,-1046C399.75,-1046 629.5,-1046 629.5,-1046 635.5,-1046 641.5,-1052 641.5,-1058 641.5,-1058 641.5,-1412 641.5,-1412 641.5,-1418 635.5,-1424 629.5,-1424 629.5,-1424 399.75,-1424 399.75,-1424 393.75,-1424 387.75,-1418 387.75,-1412 387.75,-1412 387.75,-1058 387.75,-1058 387.75,-1052 393.75,-1046 399.75,-1046"/>
<text text-anchor="middle" x="514.62" y="-1408.6" font-family="Helvetica,sans-Serif" font-weight="bold" font-size="12.00" fill="#495057">📁 hosts/homelab/services/security</text>
</g>
<g id="clust7" class="cluster">
<title>cluster_hosts_perso</title>
<path fill="#e9ecef" stroke="#adb5bd" d="M166.38,-296C166.38,-296 589.62,-296 589.62,-296 595.62,-296 601.62,-302 601.62,-308 601.62,-308 601.62,-372 601.62,-372 601.62,-378 595.62,-384 589.62,-384 589.62,-384 166.38,-384 166.38,-384 160.38,-384 154.38,-378 154.38,-372 154.38,-372 154.38,-308 154.38,-308 154.38,-302 160.38,-296 166.38,-296"/>
<text text-anchor="middle" x="378" y="-368.6" font-family="Helvetica,sans-Serif" font-weight="bold" font-size="12.00" fill="#495057">📁 hosts/perso</text>
</g>
<g id="clust8" class="cluster">
<title>cluster_hosts_portable</title>
<path fill="#e9ecef" stroke="#adb5bd" d="M166.38,-8C166.38,-8 589.62,-8 589.62,-8 595.62,-8 601.62,-14 601.62,-20 601.62,-20 601.62,-84 601.62,-84 601.62,-90 595.62,-96 589.62,-96 589.62,-96 166.38,-96 166.38,-96 160.38,-96 154.38,-90 154.38,-84 154.38,-84 154.38,-20 154.38,-20 154.38,-14 160.38,-8 166.38,-8"/>
<text text-anchor="middle" x="378" y="-80.6" font-family="Helvetica,sans-Serif" font-weight="bold" font-size="12.00" fill="#495057">📁 hosts/portable</text>
</g>
<g id="clust9" class="cluster">
<title>cluster_modules_dev</title>
<path fill="#e9ecef" stroke="#adb5bd" d="M466.12,-546C466.12,-546 563.12,-546 563.12,-546 569.12,-546 575.12,-552 575.12,-558 575.12,-558 575.12,-622 575.12,-622 575.12,-628 569.12,-634 563.12,-634 563.12,-634 466.12,-634 466.12,-634 460.12,-634 454.12,-628 454.12,-622 454.12,-622 454.12,-558 454.12,-558 454.12,-552 460.12,-546 466.12,-546"/>
<text text-anchor="middle" x="514.62" y="-618.6" font-family="Helvetica,sans-Serif" font-weight="bold" font-size="12.00" fill="#495057">📁 modules/dev</text>
</g>
<g id="clust10" class="cluster">
<title>cluster_modules_gaming</title>
<path fill="#e9ecef" stroke="#adb5bd" d="M453.38,-392C453.38,-392 575.88,-392 575.88,-392 581.88,-392 587.88,-398 587.88,-404 587.88,-404 587.88,-526 587.88,-526 587.88,-532 581.88,-538 575.88,-538 575.88,-538 453.38,-538 453.38,-538 447.38,-538 441.38,-532 441.38,-526 441.38,-526 441.38,-404 441.38,-404 441.38,-398 447.38,-392 453.38,-392"/>
<text text-anchor="middle" x="514.62" y="-522.6" font-family="Helvetica,sans-Serif" font-weight="bold" font-size="12.00" fill="#495057">📁 modules/gaming</text>
</g>
<g id="clust11" class="cluster">
<title>cluster_modules_hyprland</title>
<path fill="#e9ecef" stroke="#adb5bd" d="M448.88,-104C448.88,-104 580.38,-104 580.38,-104 586.38,-104 592.38,-110 592.38,-116 592.38,-116 592.38,-180 592.38,-180 592.38,-186 586.38,-192 580.38,-192 580.38,-192 448.88,-192 448.88,-192 442.88,-192 436.88,-186 436.88,-180 436.88,-180 436.88,-116 436.88,-116 436.88,-110 442.88,-104 448.88,-104"/>
<text text-anchor="middle" x="514.62" y="-176.6" font-family="Helvetica,sans-Serif" font-weight="bold" font-size="12.00" fill="#495057">📁 modules/hyprland</text>
</g>
<g id="clust12" class="cluster">
<title>cluster_modules_nixos</title>
<path fill="#e9ecef" stroke="#adb5bd" d="M473.88,-738C473.88,-738 842.5,-738 842.5,-738 848.5,-738 854.5,-744 854.5,-750 854.5,-750 854.5,-930 854.5,-930 854.5,-936 848.5,-942 842.5,-942 842.5,-942 473.88,-942 473.88,-942 467.88,-942 461.88,-936 461.88,-930 461.88,-930 461.88,-750 461.88,-750 461.88,-744 467.88,-738 473.88,-738"/>
<text text-anchor="middle" x="658.19" y="-926.6" font-family="Helvetica,sans-Serif" font-weight="bold" font-size="12.00" fill="#495057">📁 modules/nixos</text>
</g>
<g id="clust13" class="cluster">
<title>cluster_modules_terminal</title>
<path fill="#e9ecef" stroke="#adb5bd" d="M449.62,-642C449.62,-642 579.62,-642 579.62,-642 585.62,-642 591.62,-648 591.62,-654 591.62,-654 591.62,-718 591.62,-718 591.62,-724 585.62,-730 579.62,-730 579.62,-730 449.62,-730 449.62,-730 443.62,-730 437.62,-724 437.62,-718 437.62,-718 437.62,-654 437.62,-654 437.62,-648 443.62,-642 449.62,-642"/>
<text text-anchor="middle" x="514.62" y="-714.6" font-family="Helvetica,sans-Serif" font-weight="bold" font-size="12.00" fill="#495057">📁 modules/terminal</text>
</g>
<g id="clust14" class="cluster">
<title>cluster_users_arthur_homelab</title>
<path fill="#e9ecef" stroke="#adb5bd" d="M472.75,-950C472.75,-950 819.62,-950 819.62,-950 825.62,-950 831.62,-956 831.62,-962 831.62,-962 831.62,-1026 831.62,-1026 831.62,-1032 825.62,-1038 819.62,-1038 819.62,-1038 472.75,-1038 472.75,-1038 466.75,-1038 460.75,-1032 460.75,-1026 460.75,-1026 460.75,-962 460.75,-962 460.75,-956 466.75,-950 472.75,-950"/>
<text text-anchor="middle" x="646.19" y="-1022.6" font-family="Helvetica,sans-Serif" font-weight="bold" font-size="12.00" fill="#495057">📁 users/arthur&#45;homelab</text>
</g>
<g id="clust15" class="cluster">
<title>cluster_users_arthur_perso</title>
<path fill="#e9ecef" stroke="#adb5bd" d="M472.75,-200C472.75,-200 819.62,-200 819.62,-200 825.62,-200 831.62,-206 831.62,-212 831.62,-212 831.62,-276 831.62,-276 831.62,-282 825.62,-288 819.62,-288 819.62,-288 472.75,-288 472.75,-288 466.75,-288 460.75,-282 460.75,-276 460.75,-276 460.75,-212 460.75,-212 460.75,-206 466.75,-200 472.75,-200"/>
<text text-anchor="middle" x="646.19" y="-272.6" font-family="Helvetica,sans-Serif" font-weight="bold" font-size="12.00" fill="#495057">📁 users/arthur&#45;perso</text>
</g>
<!-- N0 -->
<g id="node1" class="node">
<title>N0</title>
<path fill="#f8f9fa" stroke="#ced4da" d="M55.75,-3685C55.75,-3685 12,-3685 12,-3685 6,-3685 0,-3679 0,-3673 0,-3673 0,-3661 0,-3661 0,-3655 6,-3649 12,-3649 12,-3649 55.75,-3649 55.75,-3649 61.75,-3649 67.75,-3655 67.75,-3661 67.75,-3661 67.75,-3673 67.75,-3673 67.75,-3679 61.75,-3685 55.75,-3685"/>
<text text-anchor="middle" x="33.88" y="-3665" font-family="Helvetica,Arial,sans-serif" font-size="10.00" fill="#212529">📄 flake.nix</text>
</g>
<!-- N1 -->
<g id="node2" class="node">
<title>N1</title>
<path fill="#f8f9fa" stroke="#ced4da" d="M247.25,-3839C247.25,-3839 194.5,-3839 194.5,-3839 188.5,-3839 182.5,-3833 182.5,-3827 182.5,-3827 182.5,-3815 182.5,-3815 182.5,-3809 188.5,-3803 194.5,-3803 194.5,-3803 247.25,-3803 247.25,-3803 253.25,-3803 259.25,-3809 259.25,-3815 259.25,-3815 259.25,-3827 259.25,-3827 259.25,-3833 253.25,-3839 247.25,-3839"/>
<text text-anchor="middle" x="220.88" y="-3819" font-family="Helvetica,Arial,sans-serif" font-size="10.00" fill="#212529">📄 default.nix</text>
</g>
<!-- N0&#45;&gt;N1 -->
<g id="edge1" class="edge">
<title>N0&#45;&gt;N1</title>
<path fill="none" stroke="#6c757d" d="M51.11,-3685.44C80.32,-3718.62 138.75,-3785 138.75,-3785 138.75,-3785 156.07,-3792.69 174.71,-3800.96"/>
<polygon fill="#6c757d" stroke="#6c757d" points="173.39,-3803.05 180.78,-3803.65 175.37,-3798.57 173.39,-3803.05"/>
</g>
<!-- N2 -->
<g id="node3" class="node">
<title>N2</title>
<path fill="#f8f9fa" stroke="#ced4da" d="M260.38,-3685C260.38,-3685 181.38,-3685 181.38,-3685 175.38,-3685 169.38,-3679 169.38,-3673 169.38,-3673 169.38,-3661 169.38,-3661 169.38,-3655 175.38,-3649 181.38,-3649 181.38,-3649 260.38,-3649 260.38,-3649 266.38,-3649 272.38,-3655 272.38,-3661 272.38,-3661 272.38,-3673 272.38,-3673 272.38,-3679 266.38,-3685 260.38,-3685"/>
<text text-anchor="middle" x="220.88" y="-3665" font-family="Helvetica,Arial,sans-serif" font-size="10.00" fill="#212529">📄 configuration.nix</text>
</g>
<!-- N0&#45;&gt;N2 -->
<g id="edge2" class="edge">
<title>N0&#45;&gt;N2</title>
<path fill="none" stroke="#6c757d" d="M67.95,-3667C93.6,-3667 129.82,-3667 160.46,-3667"/>
<polygon fill="#6c757d" stroke="#6c757d" points="160.43,-3669.45 167.43,-3667 160.43,-3664.55 160.43,-3669.45"/>
</g>
<!-- N3 -->
<g id="node4" class="node">
<title>N3</title>
<path fill="#f8f9fa" stroke="#ced4da" d="M254,-3743C254,-3743 187.75,-3743 187.75,-3743 181.75,-3743 175.75,-3737 175.75,-3731 175.75,-3731 175.75,-3719 175.75,-3719 175.75,-3713 181.75,-3707 187.75,-3707 187.75,-3707 254,-3707 254,-3707 260,-3707 266,-3713 266,-3719 266,-3719 266,-3731 266,-3731 266,-3737 260,-3743 254,-3743"/>
<text text-anchor="middle" x="220.88" y="-3723" font-family="Helvetica,Arial,sans-serif" font-size="10.00" fill="#212529">📄 constants.nix</text>
</g>
<!-- N0&#45;&gt;N3 -->
<g id="edge3" class="edge">
<title>N0&#45;&gt;N3</title>
<path fill="none" stroke="#6c757d" d="M67.95,-3677.37C95.54,-3686.02 135.37,-3698.51 167.33,-3708.53"/>
<polygon fill="#6c757d" stroke="#6c757d" points="166.41,-3710.81 173.82,-3710.56 167.88,-3706.13 166.41,-3710.81"/>
</g>
<!-- N47 -->
<g id="node48" class="node">
<title>N47</title>
<path fill="#f8f9fa" stroke="#ced4da" d="M260.38,-347C260.38,-347 181.38,-347 181.38,-347 175.38,-347 169.38,-341 169.38,-335 169.38,-335 169.38,-323 169.38,-323 169.38,-317 175.38,-311 181.38,-311 181.38,-311 260.38,-311 260.38,-311 266.38,-311 272.38,-317 272.38,-323 272.38,-323 272.38,-335 272.38,-335 272.38,-341 266.38,-347 260.38,-347"/>
<text text-anchor="middle" x="220.88" y="-327" font-family="Helvetica,Arial,sans-serif" font-size="10.00" fill="#212529">📄 configuration.nix</text>
</g>
<!-- N0&#45;&gt;N47 -->
<g id="edge4" class="edge">
<title>N0&#45;&gt;N47</title>
<path fill="none" stroke="#6c757d" d="M35.89,-3648.64C49.8,-3397.71 201.81,-654.97 218.41,-355.49"/>
<polygon fill="#6c757d" stroke="#6c757d" points="220.83,-355.98 218.77,-348.86 215.94,-355.71 220.83,-355.98"/>
</g>
<!-- N49 -->
<g id="node50" class="node">
<title>N49</title>
<path fill="#f8f9fa" stroke="#ced4da" d="M260.38,-59C260.38,-59 181.38,-59 181.38,-59 175.38,-59 169.38,-53 169.38,-47 169.38,-47 169.38,-35 169.38,-35 169.38,-29 175.38,-23 181.38,-23 181.38,-23 260.38,-23 260.38,-23 266.38,-23 272.38,-29 272.38,-35 272.38,-35 272.38,-47 272.38,-47 272.38,-53 266.38,-59 260.38,-59"/>
<text text-anchor="middle" x="220.88" y="-39" font-family="Helvetica,Arial,sans-serif" font-size="10.00" fill="#212529">📄 configuration.nix</text>
</g>
<!-- N0&#45;&gt;N49 -->
<g id="edge5" class="edge">
<title>N0&#45;&gt;N49</title>
<path fill="none" stroke="#6c757d" d="M35.43,-3648.84C43.61,-3383.11 138.75,-291 138.75,-291 138.75,-291 190.43,-131.74 211.29,-67.45"/>
<polygon fill="#6c757d" stroke="#6c757d" points="213.61,-68.24 213.44,-60.82 208.95,-66.72 213.61,-68.24"/>
</g>
<!-- N4 -->
<g id="node5" class="node">
<title>N4</title>
<path fill="#f8f9fa" stroke="#ced4da" d="M574.62,-3685C574.62,-3685 453.62,-3685 453.62,-3685 447.62,-3685 441.62,-3679 441.62,-3673 441.62,-3673 441.62,-3661 441.62,-3661 441.62,-3655 447.62,-3649 453.62,-3649 453.62,-3649 574.62,-3649 574.62,-3649 580.62,-3649 586.62,-3655 586.62,-3661 586.62,-3661 586.62,-3673 586.62,-3673 586.62,-3679 580.62,-3685 574.62,-3685"/>
<text text-anchor="middle" x="514.12" y="-3665" font-family="Helvetica,Arial,sans-serif" font-size="10.00" fill="#212529">📄 hardware&#45;configuration.nix</text>
</g>
<!-- N2&#45;&gt;N4 -->
<g id="edge6" class="edge">
<title>N2&#45;&gt;N4</title>
<path fill="none" stroke="#6c757d" d="M272.61,-3667C316.76,-3667 381.53,-3667 432.73,-3667"/>
<polygon fill="#6c757d" stroke="#6c757d" points="432.64,-3669.45 439.64,-3667 432.64,-3664.55 432.64,-3669.45"/>
</g>
<!-- N5 -->
<g id="node6" class="node">
<title>N5</title>
<path fill="#f8f9fa" stroke="#ced4da" d="M539.38,-2951C539.38,-2951 488.88,-2951 488.88,-2951 482.88,-2951 476.88,-2945 476.88,-2939 476.88,-2939 476.88,-2927 476.88,-2927 476.88,-2921 482.88,-2915 488.88,-2915 488.88,-2915 539.38,-2915 539.38,-2915 545.38,-2915 551.38,-2921 551.38,-2927 551.38,-2927 551.38,-2939 551.38,-2939 551.38,-2945 545.38,-2951 539.38,-2951"/>
<text text-anchor="middle" x="514.12" y="-2931" font-family="Helvetica,Arial,sans-serif" font-size="10.00" fill="#212529">📄 byparr.nix</text>
</g>
<!-- N2&#45;&gt;N5 -->
<g id="edge7" class="edge">
<title>N2&#45;&gt;N5</title>
<path fill="none" stroke="#6c757d" d="M225.97,-3648.51C250.6,-3537.27 378,-2962 378,-2962 378,-2962 429.02,-2951.05 468.36,-2942.61"/>
<polygon fill="#6c757d" stroke="#6c757d" points="468.75,-2945.03 475.08,-2941.17 467.72,-2940.24 468.75,-2945.03"/>
</g>
<!-- N6 -->
<g id="node7" class="node">
<title>N6</title>
<path fill="#f8f9fa" stroke="#ced4da" d="M548.38,-3009C548.38,-3009 479.88,-3009 479.88,-3009 473.88,-3009 467.88,-3003 467.88,-2997 467.88,-2997 467.88,-2985 467.88,-2985 467.88,-2979 473.88,-2973 479.88,-2973 479.88,-2973 548.38,-2973 548.38,-2973 554.38,-2973 560.38,-2979 560.38,-2985 560.38,-2985 560.38,-2997 560.38,-2997 560.38,-3003 554.38,-3009 548.38,-3009"/>
<text text-anchor="middle" x="514.12" y="-2989" font-family="Helvetica,Arial,sans-serif" font-size="10.00" fill="#212529">📄 cleanuparr.nix</text>
</g>
<!-- N2&#45;&gt;N6 -->
<g id="edge8" class="edge">
<title>N2&#45;&gt;N6</title>
<path fill="none" stroke="#6c757d" d="M226.3,-3648.68C251.7,-3543.39 378,-3020 378,-3020 378,-3020 421.73,-3010.61 459.44,-3002.52"/>
<polygon fill="#6c757d" stroke="#6c757d" points="459.57,-3005 465.9,-3001.14 458.54,-3000.21 459.57,-3005"/>
</g>
<!-- N7 -->
<g id="node8" class="node">
<title>N7</title>
<path fill="#f8f9fa" stroke="#ced4da" d="M569.75,-3067C569.75,-3067 458.5,-3067 458.5,-3067 452.5,-3067 446.5,-3061 446.5,-3055 446.5,-3055 446.5,-3043 446.5,-3043 446.5,-3037 452.5,-3031 458.5,-3031 458.5,-3031 569.75,-3031 569.75,-3031 575.75,-3031 581.75,-3037 581.75,-3043 581.75,-3043 581.75,-3055 581.75,-3055 581.75,-3061 575.75,-3067 569.75,-3067"/>
<text text-anchor="middle" x="514.12" y="-3047" font-family="Helvetica,Arial,sans-serif" font-size="10.00" fill="#212529">📄 filebrowser&#45;quantum.nix</text>
</g>
<!-- N2&#45;&gt;N7 -->
<g id="edge9" class="edge">
<title>N2&#45;&gt;N7</title>
<path fill="none" stroke="#6c757d" d="M226.72,-3648.73C253.07,-3549.31 378,-3078 378,-3078 378,-3078 407.16,-3071.74 438.39,-3065.04"/>
<polygon fill="#6c757d" stroke="#6c757d" points="438.54,-3067.51 444.87,-3063.65 437.52,-3062.72 438.54,-3067.51"/>
</g>
<!-- N8 -->
<g id="node9" class="node">
<title>N8</title>
<path fill="#f8f9fa" stroke="#ced4da" d="M541.62,-3125C541.62,-3125 486.62,-3125 486.62,-3125 480.62,-3125 474.62,-3119 474.62,-3113 474.62,-3113 474.62,-3101 474.62,-3101 474.62,-3095 480.62,-3089 486.62,-3089 486.62,-3089 541.62,-3089 541.62,-3089 547.62,-3089 553.62,-3095 553.62,-3101 553.62,-3101 553.62,-3113 553.62,-3113 553.62,-3119 547.62,-3125 541.62,-3125"/>
<text text-anchor="middle" x="514.12" y="-3105" font-family="Helvetica,Arial,sans-serif" font-size="10.00" fill="#212529">📄 immich.nix</text>
</g>
<!-- N2&#45;&gt;N8 -->
<g id="edge10" class="edge">
<title>N2&#45;&gt;N8</title>
<path fill="none" stroke="#6c757d" d="M227.25,-3648.72C254.7,-3555.35 378,-3136 378,-3136 378,-3136 427.22,-3125.44 466.25,-3117.06"/>
<polygon fill="#6c757d" stroke="#6c757d" points="466.59,-3119.49 472.92,-3115.63 465.57,-3114.7 466.59,-3119.49"/>
</g>
<!-- N9 -->
<g id="node10" class="node">
<title>N9</title>
<path fill="#f8f9fa" stroke="#ced4da" d="M539.75,-3183C539.75,-3183 488.5,-3183 488.5,-3183 482.5,-3183 476.5,-3177 476.5,-3171 476.5,-3171 476.5,-3159 476.5,-3159 476.5,-3153 482.5,-3147 488.5,-3147 488.5,-3147 539.75,-3147 539.75,-3147 545.75,-3147 551.75,-3153 551.75,-3159 551.75,-3159 551.75,-3171 551.75,-3171 551.75,-3177 545.75,-3183 539.75,-3183"/>
<text text-anchor="middle" x="514.12" y="-3163" font-family="Helvetica,Arial,sans-serif" font-size="10.00" fill="#212529">📄 jellyfin.nix</text>
</g>
<!-- N2&#45;&gt;N9 -->
<g id="edge11" class="edge">
<title>N2&#45;&gt;N9</title>
<path fill="none" stroke="#6c757d" d="M227.9,-3648.75C256.59,-3561.82 378,-3194 378,-3194 378,-3194 428.72,-3183.11 468.01,-3174.68"/>
<polygon fill="#6c757d" stroke="#6c757d" points="468.39,-3177.11 474.72,-3173.24 467.36,-3172.32 468.39,-3177.11"/>
</g>
<!-- N10 -->
<g id="node11" class="node">
<title>N10</title>
<path fill="#f8f9fa" stroke="#ced4da" d="M540.12,-3241C540.12,-3241 488.12,-3241 488.12,-3241 482.12,-3241 476.12,-3235 476.12,-3229 476.12,-3229 476.12,-3217 476.12,-3217 476.12,-3211 482.12,-3205 488.12,-3205 488.12,-3205 540.12,-3205 540.12,-3205 546.12,-3205 552.12,-3211 552.12,-3217 552.12,-3217 552.12,-3229 552.12,-3229 552.12,-3235 546.12,-3241 540.12,-3241"/>
<text text-anchor="middle" x="514.12" y="-3221" font-family="Helvetica,Arial,sans-serif" font-size="10.00" fill="#212529">📄 komga.nix</text>
</g>
<!-- N2&#45;&gt;N10 -->
<g id="edge12" class="edge">
<title>N2&#45;&gt;N10</title>
<path fill="none" stroke="#6c757d" d="M228.78,-3648.63C259,-3568.32 378,-3252 378,-3252 378,-3252 428.42,-3241.18 467.66,-3232.76"/>
<polygon fill="#6c757d" stroke="#6c757d" points="468.03,-3235.18 474.36,-3231.32 467.01,-3230.39 468.03,-3235.18"/>
</g>
<!-- N11 -->
<g id="node12" class="node">
<title>N11</title>
<path fill="#f8f9fa" stroke="#ced4da" d="M546.12,-3299C546.12,-3299 482.12,-3299 482.12,-3299 476.12,-3299 470.12,-3293 470.12,-3287 470.12,-3287 470.12,-3275 470.12,-3275 470.12,-3269 476.12,-3263 482.12,-3263 482.12,-3263 546.12,-3263 546.12,-3263 552.12,-3263 558.12,-3269 558.12,-3275 558.12,-3275 558.12,-3287 558.12,-3287 558.12,-3293 552.12,-3299 546.12,-3299"/>
<text text-anchor="middle" x="514.12" y="-3279" font-family="Helvetica,Arial,sans-serif" font-size="10.00" fill="#212529">📄 onlyoffice.nix</text>
</g>
<!-- N2&#45;&gt;N11 -->
<g id="edge13" class="edge">
<title>N2&#45;&gt;N11</title>
<path fill="none" stroke="#6c757d" d="M229.83,-3648.81C261.65,-3576.06 378,-3310 378,-3310 378,-3310 423.43,-3300.25 461.61,-3292.06"/>
<polygon fill="#6c757d" stroke="#6c757d" points="461.82,-3294.52 468.15,-3290.65 460.79,-3289.73 461.82,-3294.52"/>
</g>
<!-- N12 -->
<g id="node13" class="node">
<title>N12</title>
<path fill="#f8f9fa" stroke="#ced4da" d="M543.12,-3357C543.12,-3357 485.12,-3357 485.12,-3357 479.12,-3357 473.12,-3351 473.12,-3345 473.12,-3345 473.12,-3333 473.12,-3333 473.12,-3327 479.12,-3321 485.12,-3321 485.12,-3321 543.12,-3321 543.12,-3321 549.12,-3321 555.12,-3327 555.12,-3333 555.12,-3333 555.12,-3345 555.12,-3345 555.12,-3351 549.12,-3357 543.12,-3357"/>
<text text-anchor="middle" x="514.12" y="-3337" font-family="Helvetica,Arial,sans-serif" font-size="10.00" fill="#212529">📄 prowlarr.nix</text>
</g>
<!-- N2&#45;&gt;N12 -->
<g id="edge14" class="edge">
<title>N2&#45;&gt;N12</title>
<path fill="none" stroke="#6c757d" d="M231.41,-3648.75C265.3,-3583.83 378,-3368 378,-3368 378,-3368 426.04,-3357.69 464.83,-3349.36"/>
<polygon fill="#6c757d" stroke="#6c757d" points="465.14,-3351.8 471.47,-3347.94 464.11,-3347.01 465.14,-3351.8"/>
</g>
<!-- N13 -->
<g id="node14" class="node">
<title>N13</title>
<path fill="#f8f9fa" stroke="#ced4da" d="M547.62,-3415C547.62,-3415 480.62,-3415 480.62,-3415 474.62,-3415 468.62,-3409 468.62,-3403 468.62,-3403 468.62,-3391 468.62,-3391 468.62,-3385 474.62,-3379 480.62,-3379 480.62,-3379 547.62,-3379 547.62,-3379 553.62,-3379 559.62,-3385 559.62,-3391 559.62,-3391 559.62,-3403 559.62,-3403 559.62,-3409 553.62,-3415 547.62,-3415"/>
<text text-anchor="middle" x="514.12" y="-3395" font-family="Helvetica,Arial,sans-serif" font-size="10.00" fill="#212529">📄 qbittorrent.nix</text>
</g>
<!-- N2&#45;&gt;N13 -->
<g id="edge15" class="edge">
<title>N2&#45;&gt;N13</title>
<path fill="none" stroke="#6c757d" d="M233.61,-3648.89C269.92,-3592.84 378,-3426 378,-3426 378,-3426 422.3,-3416.49 460.17,-3408.37"/>
<polygon fill="#6c757d" stroke="#6c757d" points="460.32,-3410.84 466.65,-3406.97 459.29,-3406.05 460.32,-3410.84"/>
</g>
<!-- N14 -->
<g id="node15" class="node">
<title>N14</title>
<path fill="#f8f9fa" stroke="#ced4da" d="M544.25,-3473C544.25,-3473 484,-3473 484,-3473 478,-3473 472,-3467 472,-3461 472,-3461 472,-3449 472,-3449 472,-3443 478,-3437 484,-3437 484,-3437 544.25,-3437 544.25,-3437 550.25,-3437 556.25,-3443 556.25,-3449 556.25,-3449 556.25,-3461 556.25,-3461 556.25,-3467 550.25,-3473 544.25,-3473"/>
<text text-anchor="middle" x="514.12" y="-3453" font-family="Helvetica,Arial,sans-serif" font-size="10.00" fill="#212529">📄 recyclarr.nix</text>
</g>
<!-- N2&#45;&gt;N14 -->
<g id="edge16" class="edge">
<title>N2&#45;&gt;N14</title>
<path fill="none" stroke="#6c757d" d="M237.42,-3648.78C276.91,-3602.5 378,-3484 378,-3484 378,-3484 425.16,-3473.88 463.76,-3465.59"/>
<polygon fill="#6c757d" stroke="#6c757d" points="464.04,-3468.04 470.37,-3464.18 463.01,-3463.25 464.04,-3468.04"/>
</g>
<!-- N15 -->
<g id="node16" class="node">
<title>N15</title>
<path fill="#f8f9fa" stroke="#ced4da" d="M535.25,-3531C535.25,-3531 493,-3531 493,-3531 487,-3531 481,-3525 481,-3519 481,-3519 481,-3507 481,-3507 481,-3501 487,-3495 493,-3495 493,-3495 535.25,-3495 535.25,-3495 541.25,-3495 547.25,-3501 547.25,-3507 547.25,-3507 547.25,-3519 547.25,-3519 547.25,-3525 541.25,-3531 535.25,-3531"/>
<text text-anchor="middle" x="514.12" y="-3511" font-family="Helvetica,Arial,sans-serif" font-size="10.00" fill="#212529">📄 seer.nix</text>
</g>
<!-- N2&#45;&gt;N15 -->
<g id="edge17" class="edge">
<title>N2&#45;&gt;N15</title>
<path fill="none" stroke="#6c757d" d="M244.91,-3648.56C288.34,-3613.78 378,-3542 378,-3542 378,-3542 432.72,-3530.26 472.52,-3521.71"/>
<polygon fill="#6c757d" stroke="#6c757d" points="472.95,-3524.13 479.28,-3520.26 471.92,-3519.34 472.95,-3524.13"/>
</g>
<!-- N16 -->
<g id="node17" class="node">
<title>N16</title>
<path fill="#f8f9fa" stroke="#ced4da" d="M539.38,-3589C539.38,-3589 488.88,-3589 488.88,-3589 482.88,-3589 476.88,-3583 476.88,-3577 476.88,-3577 476.88,-3565 476.88,-3565 476.88,-3559 482.88,-3553 488.88,-3553 488.88,-3553 539.38,-3553 539.38,-3553 545.38,-3553 551.38,-3559 551.38,-3565 551.38,-3565 551.38,-3577 551.38,-3577 551.38,-3583 545.38,-3589 539.38,-3589"/>
<text text-anchor="middle" x="514.12" y="-3569" font-family="Helvetica,Arial,sans-serif" font-size="10.00" fill="#212529">📄 sonarr.nix</text>
</g>
<!-- N2&#45;&gt;N16 -->
<g id="edge18" class="edge">
<title>N2&#45;&gt;N16</title>
<path fill="none" stroke="#6c757d" d="M272.61,-3650.28C328.1,-3631.99 416.17,-3602.96 468.93,-3585.57"/>
<polygon fill="#6c757d" stroke="#6c757d" points="469.45,-3587.97 475.33,-3583.46 467.92,-3583.32 469.45,-3587.97"/>
</g>
<!-- N17 -->
<g id="node18" class="node">
<title>N17</title>
<path fill="#f8f9fa" stroke="#ced4da" d="M547.25,-2835C547.25,-2835 481,-2835 481,-2835 475,-2835 469,-2829 469,-2823 469,-2823 469,-2811 469,-2811 469,-2805 475,-2799 481,-2799 481,-2799 547.25,-2799 547.25,-2799 553.25,-2799 559.25,-2805 559.25,-2811 559.25,-2811 559.25,-2823 559.25,-2823 559.25,-2829 553.25,-2835 547.25,-2835"/>
<text text-anchor="middle" x="514.12" y="-2815" font-family="Helvetica,Arial,sans-serif" font-size="10.00" fill="#212529">📄 suwayomi.nix</text>
</g>
<!-- N2&#45;&gt;N17 -->
<g id="edge19" class="edge">
<title>N2&#45;&gt;N17</title>
<path fill="none" stroke="#6c757d" d="M225.35,-3648.7C248.39,-3527.56 378,-2846 378,-2846 378,-2846 422.58,-2836.43 460.53,-2828.29"/>
<polygon fill="#6c757d" stroke="#6c757d" points="460.7,-2830.76 467.03,-2826.89 459.67,-2825.97 460.7,-2830.76"/>
</g>
<!-- N18 -->
<g id="node19" class="node">
<title>N18</title>
<path fill="#f8f9fa" stroke="#ced4da" d="M539.38,-2893C539.38,-2893 488.88,-2893 488.88,-2893 482.88,-2893 476.88,-2887 476.88,-2881 476.88,-2881 476.88,-2869 476.88,-2869 476.88,-2863 482.88,-2857 488.88,-2857 488.88,-2857 539.38,-2857 539.38,-2857 545.38,-2857 551.38,-2863 551.38,-2869 551.38,-2869 551.38,-2881 551.38,-2881 551.38,-2887 545.38,-2893 539.38,-2893"/>
<text text-anchor="middle" x="514.12" y="-2873" font-family="Helvetica,Arial,sans-serif" font-size="10.00" fill="#212529">📄 tranga.nix</text>
</g>
<!-- N2&#45;&gt;N18 -->
<g id="edge20" class="edge">
<title>N2&#45;&gt;N18</title>
<path fill="none" stroke="#6c757d" d="M225.66,-3648.52C249.5,-3531.99 378,-2904 378,-2904 378,-2904 429.02,-2893.05 468.36,-2884.61"/>
<polygon fill="#6c757d" stroke="#6c757d" points="468.75,-2887.03 475.08,-2883.17 467.72,-2882.24 468.75,-2887.03"/>
</g>
<!-- N19 -->
<g id="node20" class="node">
<title>N19</title>
<path fill="#f8f9fa" stroke="#ced4da" d="M535.62,-2217C535.62,-2217 492.62,-2217 492.62,-2217 486.62,-2217 480.62,-2211 480.62,-2205 480.62,-2205 480.62,-2193 480.62,-2193 480.62,-2187 486.62,-2181 492.62,-2181 492.62,-2181 535.62,-2181 535.62,-2181 541.62,-2181 547.62,-2187 547.62,-2193 547.62,-2193 547.62,-2205 547.62,-2205 547.62,-2211 541.62,-2217 535.62,-2217"/>
<text text-anchor="middle" x="514.12" y="-2197" font-family="Helvetica,Arial,sans-serif" font-size="10.00" fill="#212529">📄 alloy.nix</text>
</g>
<!-- N2&#45;&gt;N19 -->
<g id="edge21" class="edge">
<title>N2&#45;&gt;N19</title>
<path fill="none" stroke="#6c757d" d="M223.88,-3648.54C242.06,-3480.92 378,-2228 378,-2228 378,-2228 432.41,-2216.32 472.18,-2207.79"/>
<polygon fill="#6c757d" stroke="#6c757d" points="472.61,-2210.2 478.94,-2206.34 471.58,-2205.41 472.61,-2210.2"/>
</g>
<!-- N20 -->
<g id="node21" class="node">
<title>N20</title>
<path fill="#f8f9fa" stroke="#ced4da" d="M547.25,-2275C547.25,-2275 481,-2275 481,-2275 475,-2275 469,-2269 469,-2263 469,-2263 469,-2251 469,-2251 469,-2245 475,-2239 481,-2239 481,-2239 547.25,-2239 547.25,-2239 553.25,-2239 559.25,-2245 559.25,-2251 559.25,-2251 559.25,-2263 559.25,-2263 559.25,-2269 553.25,-2275 547.25,-2275"/>
<text text-anchor="middle" x="514.12" y="-2255" font-family="Helvetica,Arial,sans-serif" font-size="10.00" fill="#212529">📄 borgmatic.nix</text>
</g>
<!-- N2&#45;&gt;N20 -->
<g id="edge22" class="edge">
<title>N2&#45;&gt;N20</title>
<path fill="none" stroke="#6c757d" d="M223.96,-3648.52C242.49,-3484.64 378,-2286 378,-2286 378,-2286 422.58,-2276.43 460.53,-2268.29"/>
<polygon fill="#6c757d" stroke="#6c757d" points="460.7,-2270.76 467.03,-2266.89 459.67,-2265.97 460.7,-2270.76"/>
</g>
<!-- N21 -->
<g id="node22" class="node">
<title>N21</title>
<path fill="#f8f9fa" stroke="#ced4da" d="M534.88,-2333C534.88,-2333 493.38,-2333 493.38,-2333 487.38,-2333 481.38,-2327 481.38,-2321 481.38,-2321 481.38,-2309 481.38,-2309 481.38,-2303 487.38,-2297 493.38,-2297 493.38,-2297 534.88,-2297 534.88,-2297 540.88,-2297 546.88,-2303 546.88,-2309 546.88,-2309 546.88,-2321 546.88,-2321 546.88,-2327 540.88,-2333 534.88,-2333"/>
<text text-anchor="middle" x="514.12" y="-2313" font-family="Helvetica,Arial,sans-serif" font-size="10.00" fill="#212529">📄 diun.nix</text>
</g>
<!-- N2&#45;&gt;N21 -->
<g id="edge23" class="edge">
<title>N2&#45;&gt;N21</title>
<path fill="none" stroke="#6c757d" d="M224.02,-3648.8C242.77,-3489.9 378,-2344 378,-2344 378,-2344 433.04,-2332.19 472.86,-2323.64"/>
<polygon fill="#6c757d" stroke="#6c757d" points="473.29,-2326.05 479.62,-2322.19 472.26,-2321.26 473.29,-2326.05"/>
</g>
<!-- N22 -->
<g id="node23" class="node">
<title>N22</title>
<path fill="#f8f9fa" stroke="#ced4da" d="M542,-2391C542,-2391 486.25,-2391 486.25,-2391 480.25,-2391 474.25,-2385 474.25,-2379 474.25,-2379 474.25,-2367 474.25,-2367 474.25,-2361 480.25,-2355 486.25,-2355 486.25,-2355 542,-2355 542,-2355 548,-2355 554,-2361 554,-2367 554,-2367 554,-2379 554,-2379 554,-2385 548,-2391 542,-2391"/>
<text text-anchor="middle" x="514.12" y="-2371" font-family="Helvetica,Arial,sans-serif" font-size="10.00" fill="#212529">📄 grafana.nix</text>
</g>
<!-- N2&#45;&gt;N22 -->
<g id="edge24" class="edge">
<title>N2&#45;&gt;N22</title>
<path fill="none" stroke="#6c757d" d="M224.14,-3648.63C243.34,-3493.07 378,-2402 378,-2402 378,-2402 426.93,-2391.5 465.9,-2383.14"/>
<polygon fill="#6c757d" stroke="#6c757d" points="466.23,-2385.57 472.56,-2381.71 465.2,-2380.78 466.23,-2385.57"/>
</g>
<!-- N23 -->
<g id="node24" class="node">
<title>N23</title>
<path fill="#f8f9fa" stroke="#ced4da" d="M533.38,-2449C533.38,-2449 494.88,-2449 494.88,-2449 488.88,-2449 482.88,-2443 482.88,-2437 482.88,-2437 482.88,-2425 482.88,-2425 482.88,-2419 488.88,-2413 494.88,-2413 494.88,-2413 533.38,-2413 533.38,-2413 539.38,-2413 545.38,-2419 545.38,-2425 545.38,-2425 545.38,-2437 545.38,-2437 545.38,-2443 539.38,-2449 533.38,-2449"/>
<text text-anchor="middle" x="514.12" y="-2429" font-family="Helvetica,Arial,sans-serif" font-size="10.00" fill="#212529">📄 loki.nix</text>
</g>
<!-- N2&#45;&gt;N23 -->
<g id="edge25" class="edge">
<title>N2&#45;&gt;N23</title>
<path fill="none" stroke="#6c757d" d="M224.26,-3648.52C243.91,-3496.67 378,-2460 378,-2460 378,-2460 434.3,-2447.92 474.22,-2439.35"/>
<polygon fill="#6c757d" stroke="#6c757d" points="474.65,-2441.76 480.98,-2437.9 473.62,-2436.97 474.65,-2441.76"/>
</g>
<!-- N24 -->
<g id="node25" class="node">
<title>N24</title>
<path fill="#f8f9fa" stroke="#ced4da" d="M542,-2507C542,-2507 486.25,-2507 486.25,-2507 480.25,-2507 474.25,-2501 474.25,-2495 474.25,-2495 474.25,-2483 474.25,-2483 474.25,-2477 480.25,-2471 486.25,-2471 486.25,-2471 542,-2471 542,-2471 548,-2471 554,-2477 554,-2483 554,-2483 554,-2495 554,-2495 554,-2501 548,-2507 542,-2507"/>
<text text-anchor="middle" x="514.12" y="-2487" font-family="Helvetica,Arial,sans-serif" font-size="10.00" fill="#212529">📄 netdata.nix</text>
</g>
<!-- N2&#45;&gt;N24 -->
<g id="edge26" class="edge">
<title>N2&#45;&gt;N24</title>
<path fill="none" stroke="#6c757d" d="M224.33,-3648.95C244.19,-3502.77 378,-2518 378,-2518 378,-2518 426.93,-2507.5 465.9,-2499.14"/>
<polygon fill="#6c757d" stroke="#6c757d" points="466.23,-2501.57 472.56,-2497.71 465.2,-2496.78 466.23,-2501.57"/>
</g>
<!-- N25 -->
<g id="node26" class="node">
<title>N25</title>
<path fill="#f8f9fa" stroke="#ced4da" d="M556.25,-2565C556.25,-2565 472,-2565 472,-2565 466,-2565 460,-2559 460,-2553 460,-2553 460,-2541 460,-2541 460,-2535 466,-2529 472,-2529 472,-2529 556.25,-2529 556.25,-2529 562.25,-2529 568.25,-2535 568.25,-2541 568.25,-2541 568.25,-2553 568.25,-2553 568.25,-2559 562.25,-2565 556.25,-2565"/>
<text text-anchor="middle" x="514.12" y="-2545" font-family="Helvetica,Arial,sans-serif" font-size="10.00" fill="#212529">📄 power&#45;monitor.nix</text>
</g>
<!-- N2&#45;&gt;N25 -->
<g id="edge27" class="edge">
<title>N2&#45;&gt;N25</title>
<path fill="none" stroke="#6c757d" d="M224.52,-3648.52C245.04,-3505.16 378,-2576 378,-2576 378,-2576 415.99,-2567.85 451.68,-2560.19"/>
<polygon fill="#6c757d" stroke="#6c757d" points="451.91,-2562.64 458.24,-2558.78 450.88,-2557.85 451.91,-2562.64"/>
</g>
<!-- N26 -->
<g id="node27" class="node">
<title>N26</title>
<path fill="#f8f9fa" stroke="#ced4da" d="M551.38,-2623C551.38,-2623 476.88,-2623 476.88,-2623 470.88,-2623 464.88,-2617 464.88,-2611 464.88,-2611 464.88,-2599 464.88,-2599 464.88,-2593 470.88,-2587 476.88,-2587 476.88,-2587 551.38,-2587 551.38,-2587 557.38,-2587 563.38,-2593 563.38,-2599 563.38,-2599 563.38,-2611 563.38,-2611 563.38,-2617 557.38,-2623 551.38,-2623"/>
<text text-anchor="middle" x="514.12" y="-2603" font-family="Helvetica,Arial,sans-serif" font-size="10.00" fill="#212529">📄 prometheus.nix</text>
</g>
<!-- N2&#45;&gt;N26 -->
<g id="edge28" class="edge">
<title>N2&#45;&gt;N26</title>
<path fill="none" stroke="#6c757d" d="M224.65,-3648.63C245.6,-3510.04 378,-2634 378,-2634 378,-2634 419.44,-2625.11 456.43,-2617.17"/>
<polygon fill="#6c757d" stroke="#6c757d" points="456.91,-2619.57 463.24,-2615.71 455.89,-2614.78 456.91,-2619.57"/>
</g>
<!-- N27 -->
<g id="node28" class="node">
<title>N27</title>
<path fill="#f8f9fa" stroke="#ced4da" d="M542.75,-2681C542.75,-2681 485.5,-2681 485.5,-2681 479.5,-2681 473.5,-2675 473.5,-2669 473.5,-2669 473.5,-2657 473.5,-2657 473.5,-2651 479.5,-2645 485.5,-2645 485.5,-2645 542.75,-2645 542.75,-2645 548.75,-2645 554.75,-2651 554.75,-2657 554.75,-2657 554.75,-2669 554.75,-2669 554.75,-2675 548.75,-2681 542.75,-2681"/>
<text text-anchor="middle" x="514.12" y="-2661" font-family="Helvetica,Arial,sans-serif" font-size="10.00" fill="#212529">📄 scrutiny.nix</text>
</g>
<!-- N2&#45;&gt;N27 -->
<g id="edge29" class="edge">
<title>N2&#45;&gt;N27</title>
<path fill="none" stroke="#6c757d" d="M224.79,-3648.82C246.16,-3515.35 378,-2692 378,-2692 378,-2692 426.33,-2681.63 465.19,-2673.29"/>
<polygon fill="#6c757d" stroke="#6c757d" points="465.5,-2675.73 471.83,-2671.86 464.48,-2670.94 465.5,-2675.73"/>
</g>
<!-- N28 -->
<g id="node29" class="node">
<title>N28</title>
<path fill="#f8f9fa" stroke="#ced4da" d="M554,-2739C554,-2739 474.25,-2739 474.25,-2739 468.25,-2739 462.25,-2733 462.25,-2727 462.25,-2727 462.25,-2715 462.25,-2715 462.25,-2709 468.25,-2703 474.25,-2703 474.25,-2703 554,-2703 554,-2703 560,-2703 566,-2709 566,-2715 566,-2715 566,-2727 566,-2727 566,-2733 560,-2739 554,-2739"/>
<text text-anchor="middle" x="514.12" y="-2719" font-family="Helvetica,Arial,sans-serif" font-size="10.00" fill="#212529">📄 uptime&#45;kuma.nix</text>
</g>
<!-- N2&#45;&gt;N28 -->
<g id="edge30" class="edge">
<title>N2&#45;&gt;N28</title>
<path fill="none" stroke="#6c757d" d="M225.06,-3648.86C247.28,-3522.52 378,-2779 378,-2779 378,-2779 424.39,-2759.09 462.81,-2742.6"/>
<polygon fill="#6c757d" stroke="#6c757d" points="463.51,-2744.96 468.98,-2739.95 461.58,-2740.46 463.51,-2744.96"/>
</g>
<!-- N29 -->
<g id="node30" class="node">
<title>N29</title>
<path fill="#f8f9fa" stroke="#ced4da" d="M559.25,-2063C559.25,-2063 469,-2063 469,-2063 463,-2063 457,-2057 457,-2051 457,-2051 457,-2039 457,-2039 457,-2033 463,-2027 469,-2027 469,-2027 559.25,-2027 559.25,-2027 565.25,-2027 571.25,-2033 571.25,-2039 571.25,-2039 571.25,-2051 571.25,-2051 571.25,-2057 565.25,-2063 559.25,-2063"/>
<text text-anchor="middle" x="514.12" y="-2043" font-family="Helvetica,Arial,sans-serif" font-size="10.00" fill="#212529">📄 crafty&#45;controller.nix</text>
</g>
<!-- N2&#45;&gt;N29 -->
<g id="edge31" class="edge">
<title>N2&#45;&gt;N29</title>
<path fill="none" stroke="#6c757d" d="M223.68,-3648.56C241.07,-3471.18 378,-2074 378,-2074 378,-2074 413.63,-2066.35 448.3,-2058.91"/>
<polygon fill="#6c757d" stroke="#6c757d" points="448.79,-2061.31 455.12,-2057.45 447.76,-2056.52 448.79,-2061.31"/>
</g>
<!-- N30 -->
<g id="node31" class="node">
<title>N30</title>
<path fill="#f8f9fa" stroke="#ced4da" d="M540.5,-2121C540.5,-2121 487.75,-2121 487.75,-2121 481.75,-2121 475.75,-2115 475.75,-2109 475.75,-2109 475.75,-2097 475.75,-2097 475.75,-2091 481.75,-2085 487.75,-2085 487.75,-2085 540.5,-2085 540.5,-2085 546.5,-2085 552.5,-2091 552.5,-2097 552.5,-2097 552.5,-2109 552.5,-2109 552.5,-2115 546.5,-2121 540.5,-2121"/>
<text text-anchor="middle" x="514.12" y="-2101" font-family="Helvetica,Arial,sans-serif" font-size="10.00" fill="#212529">📄 forgejo.nix</text>
</g>
<!-- N2&#45;&gt;N30 -->
<g id="edge32" class="edge">
<title>N2&#45;&gt;N30</title>
<path fill="none" stroke="#6c757d" d="M223.79,-3648.5C241.64,-3476.37 378,-2161 378,-2161 378,-2161 428.54,-2139.31 467.8,-2122.45"/>
<polygon fill="#6c757d" stroke="#6c757d" points="468.63,-2124.77 474.09,-2119.75 466.7,-2120.26 468.63,-2124.77"/>
</g>
<!-- N31 -->
<g id="node32" class="node">
<title>N31</title>
<path fill="#f8f9fa" stroke="#ced4da" d="M548.38,-1483C548.38,-1483 479.88,-1483 479.88,-1483 473.88,-1483 467.88,-1477 467.88,-1471 467.88,-1471 467.88,-1459 467.88,-1459 467.88,-1453 473.88,-1447 479.88,-1447 479.88,-1447 548.38,-1447 548.38,-1447 554.38,-1447 560.38,-1453 560.38,-1459 560.38,-1459 560.38,-1471 560.38,-1471 560.38,-1477 554.38,-1483 548.38,-1483"/>
<text text-anchor="middle" x="514.12" y="-1463" font-family="Helvetica,Arial,sans-serif" font-size="10.00" fill="#212529">📄 homepage.nix</text>
</g>
<!-- N2&#45;&gt;N31 -->
<g id="edge33" class="edge">
<title>N2&#45;&gt;N31</title>
<path fill="none" stroke="#6c757d" d="M223.2,-3648.54C238.34,-3437.83 378,-1494 378,-1494 378,-1494 421.73,-1484.61 459.44,-1476.52"/>
<polygon fill="#6c757d" stroke="#6c757d" points="459.57,-1479 465.9,-1475.14 458.54,-1474.21 459.57,-1479"/>
</g>
<!-- N32 -->
<g id="node33" class="node">
<title>N32</title>
<path fill="#f8f9fa" stroke="#ced4da" d="M553.25,-1541C553.25,-1541 475,-1541 475,-1541 469,-1541 463,-1535 463,-1529 463,-1529 463,-1517 463,-1517 463,-1511 469,-1505 475,-1505 475,-1505 553.25,-1505 553.25,-1505 559.25,-1505 565.25,-1511 565.25,-1517 565.25,-1517 565.25,-1529 565.25,-1529 565.25,-1535 559.25,-1541 553.25,-1541"/>
<text text-anchor="middle" x="514.12" y="-1521" font-family="Helvetica,Arial,sans-serif" font-size="10.00" fill="#212529">📄 local&#45;finance.nix</text>
</g>
<!-- N2&#45;&gt;N32 -->
<g id="edge34" class="edge">
<title>N2&#45;&gt;N32</title>
<path fill="none" stroke="#6c757d" d="M223.22,-3648.72C238.48,-3442 378,-1552 378,-1552 378,-1552 418.1,-1543.39 454.61,-1535.56"/>
<polygon fill="#6c757d" stroke="#6c757d" points="455,-1537.98 461.33,-1534.12 453.97,-1533.19 455,-1537.98"/>
</g>
<!-- N33 -->
<g id="node34" class="node">
<title>N33</title>
<path fill="#f8f9fa" stroke="#ced4da" d="M533.75,-1599C533.75,-1599 494.5,-1599 494.5,-1599 488.5,-1599 482.5,-1593 482.5,-1587 482.5,-1587 482.5,-1575 482.5,-1575 482.5,-1569 488.5,-1563 494.5,-1563 494.5,-1563 533.75,-1563 533.75,-1563 539.75,-1563 545.75,-1569 545.75,-1575 545.75,-1575 545.75,-1587 545.75,-1587 545.75,-1593 539.75,-1599 533.75,-1599"/>
<text text-anchor="middle" x="514.12" y="-1579" font-family="Helvetica,Arial,sans-serif" font-size="10.00" fill="#212529">📄 n8n.nix</text>
</g>
<!-- N2&#45;&gt;N33 -->
<g id="edge35" class="edge">
<title>N2&#45;&gt;N33</title>
<path fill="none" stroke="#6c757d" d="M223.27,-3648.59C238.77,-3444.37 378,-1610 378,-1610 378,-1610 433.98,-1597.99 473.88,-1589.42"/>
<polygon fill="#6c757d" stroke="#6c757d" points="474.31,-1591.84 480.64,-1587.97 473.29,-1587.04 474.31,-1591.84"/>
</g>
<!-- N34 -->
<g id="node35" class="node">
<title>N34</title>
<path fill="#f8f9fa" stroke="#ced4da" d="M539.75,-1657C539.75,-1657 488.5,-1657 488.5,-1657 482.5,-1657 476.5,-1651 476.5,-1645 476.5,-1645 476.5,-1633 476.5,-1633 476.5,-1627 482.5,-1621 488.5,-1621 488.5,-1621 539.75,-1621 539.75,-1621 545.75,-1621 551.75,-1627 551.75,-1633 551.75,-1633 551.75,-1645 551.75,-1645 551.75,-1651 545.75,-1657 539.75,-1657"/>
<text text-anchor="middle" x="514.12" y="-1637" font-family="Helvetica,Arial,sans-serif" font-size="10.00" fill="#212529">📄 quartz.nix</text>
</g>
<!-- N2&#45;&gt;N34 -->
<g id="edge36" class="edge">
<title>N2&#45;&gt;N34</title>
<path fill="none" stroke="#6c757d" d="M223.3,-3648.8C238.92,-3448.81 378,-1668 378,-1668 378,-1668 428.72,-1657.11 468.01,-1648.68"/>
<polygon fill="#6c757d" stroke="#6c757d" points="468.39,-1651.11 474.72,-1647.24 467.36,-1646.32 468.39,-1651.11"/>
</g>
<!-- N35 -->
<g id="node36" class="node">
<title>N35</title>
<path fill="#f8f9fa" stroke="#ced4da" d="M538.25,-1715C538.25,-1715 490,-1715 490,-1715 484,-1715 478,-1709 478,-1703 478,-1703 478,-1691 478,-1691 478,-1685 484,-1679 490,-1679 490,-1679 538.25,-1679 538.25,-1679 544.25,-1679 550.25,-1685 550.25,-1691 550.25,-1691 550.25,-1703 550.25,-1703 550.25,-1709 544.25,-1715 538.25,-1715"/>
<text text-anchor="middle" x="514.12" y="-1695" font-family="Helvetica,Arial,sans-serif" font-size="10.00" fill="#212529">📄 romm.nix</text>
</g>
<!-- N2&#45;&gt;N35 -->
<g id="edge37" class="edge">
<title>N2&#45;&gt;N35</title>
<path fill="none" stroke="#6c757d" d="M223.35,-3648.72C239.2,-3451.56 378,-1726 378,-1726 378,-1726 429.94,-1714.85 469.41,-1706.38"/>
<polygon fill="#6c757d" stroke="#6c757d" points="469.81,-1708.8 476.14,-1704.94 468.78,-1704.01 469.81,-1708.8"/>
</g>
<!-- N36 -->
<g id="node37" class="node">
<title>N36</title>
<path fill="#f8f9fa" stroke="#ced4da" d="M564.88,-1773C564.88,-1773 463.38,-1773 463.38,-1773 457.38,-1773 451.38,-1767 451.38,-1761 451.38,-1761 451.38,-1749 451.38,-1749 451.38,-1743 457.38,-1737 463.38,-1737 463.38,-1737 564.88,-1737 564.88,-1737 570.88,-1737 576.88,-1743 576.88,-1749 576.88,-1749 576.88,-1761 576.88,-1761 576.88,-1767 570.88,-1773 564.88,-1773"/>
<text text-anchor="middle" x="514.12" y="-1753" font-family="Helvetica,Arial,sans-serif" font-size="10.00" fill="#212529">📄 security&#45;watchdog.nix</text>
</g>
<!-- N2&#45;&gt;N36 -->
<g id="edge38" class="edge">
<title>N2&#45;&gt;N36</title>
<path fill="none" stroke="#6c757d" d="M223.4,-3648.67C239.49,-3454.53 378,-1784 378,-1784 378,-1784 410.21,-1777.09 443.17,-1770.01"/>
<polygon fill="#6c757d" stroke="#6c757d" points="443.29,-1772.49 449.62,-1768.63 442.26,-1767.7 443.29,-1772.49"/>
</g>
<!-- N37 -->
<g id="node38" class="node">
<title>N37</title>
<path fill="#f8f9fa" stroke="#ced4da" d="M548.38,-1831C548.38,-1831 479.88,-1831 479.88,-1831 473.88,-1831 467.88,-1825 467.88,-1819 467.88,-1819 467.88,-1807 467.88,-1807 467.88,-1801 473.88,-1795 479.88,-1795 479.88,-1795 548.38,-1795 548.38,-1795 554.38,-1795 560.38,-1801 560.38,-1807 560.38,-1807 560.38,-1819 560.38,-1819 560.38,-1825 554.38,-1831 548.38,-1831"/>
<text text-anchor="middle" x="514.12" y="-1811" font-family="Helvetica,Arial,sans-serif" font-size="10.00" fill="#212529">📄 stirling&#45;pdf.nix</text>
</g>
<!-- N2&#45;&gt;N37 -->
<g id="edge39" class="edge">
<title>N2&#45;&gt;N37</title>
<path fill="none" stroke="#6c757d" d="M223.45,-3648.64C239.78,-3457.72 378,-1842 378,-1842 378,-1842 421.73,-1832.61 459.44,-1824.52"/>
<polygon fill="#6c757d" stroke="#6c757d" points="459.57,-1827 465.9,-1823.14 458.54,-1822.21 459.57,-1827"/>
</g>
<!-- N38 -->
<g id="node39" class="node">
<title>N38</title>
<path fill="#f8f9fa" stroke="#ced4da" d="M534.12,-1889C534.12,-1889 494.12,-1889 494.12,-1889 488.12,-1889 482.12,-1883 482.12,-1877 482.12,-1877 482.12,-1865 482.12,-1865 482.12,-1859 488.12,-1853 494.12,-1853 494.12,-1853 534.12,-1853 534.12,-1853 540.12,-1853 546.12,-1859 546.12,-1865 546.12,-1865 546.12,-1877 546.12,-1877 546.12,-1883 540.12,-1889 534.12,-1889"/>
<text text-anchor="middle" x="514.12" y="-1869" font-family="Helvetica,Arial,sans-serif" font-size="10.00" fill="#212529">📄 vert.nix</text>
</g>
<!-- N2&#45;&gt;N38 -->
<g id="edge40" class="edge">
<title>N2&#45;&gt;N38</title>
<path fill="none" stroke="#6c757d" d="M223.5,-3648.64C240.07,-3461.13 378,-1900 378,-1900 378,-1900 433.67,-1888.05 473.54,-1879.5"/>
<polygon fill="#6c757d" stroke="#6c757d" points="473.98,-1881.91 480.31,-1878.04 472.95,-1877.12 473.98,-1881.91"/>
</g>
<!-- N39 -->
<g id="node40" class="node">
<title>N39</title>
<path fill="#f8f9fa" stroke="#ced4da" d="M541.25,-1947C541.25,-1947 487,-1947 487,-1947 481,-1947 475,-1941 475,-1935 475,-1935 475,-1923 475,-1923 475,-1917 481,-1911 487,-1911 487,-1911 541.25,-1911 541.25,-1911 547.25,-1911 553.25,-1917 553.25,-1923 553.25,-1923 553.25,-1935 553.25,-1935 553.25,-1941 547.25,-1947 541.25,-1947"/>
<text text-anchor="middle" x="514.12" y="-1927" font-family="Helvetica,Arial,sans-serif" font-size="10.00" fill="#212529">📄 vikunja.nix</text>
</g>
<!-- N2&#45;&gt;N39 -->
<g id="edge41" class="edge">
<title>N2&#45;&gt;N39</title>
<path fill="none" stroke="#6c757d" d="M223.55,-3648.68C240.35,-3464.75 378,-1958 378,-1958 378,-1958 427.52,-1947.37 466.6,-1938.98"/>
<polygon fill="#6c757d" stroke="#6c757d" points="466.96,-1941.41 473.29,-1937.55 465.93,-1936.62 466.96,-1941.41"/>
</g>
<!-- N40 -->
<g id="node41" class="node">
<title>N40</title>
<path fill="#f8f9fa" stroke="#ced4da" d="M545.38,-2005C545.38,-2005 482.88,-2005 482.88,-2005 476.88,-2005 470.88,-1999 470.88,-1993 470.88,-1993 470.88,-1981 470.88,-1981 470.88,-1975 476.88,-1969 482.88,-1969 482.88,-1969 545.38,-1969 545.38,-1969 551.38,-1969 557.38,-1975 557.38,-1981 557.38,-1981 557.38,-1993 557.38,-1993 557.38,-1999 551.38,-2005 545.38,-2005"/>
<text text-anchor="middle" x="514.12" y="-1985" font-family="Helvetica,Arial,sans-serif" font-size="10.00" fill="#212529">📄 wanderer.nix</text>
</g>
<!-- N2&#45;&gt;N40 -->
<g id="edge42" class="edge">
<title>N2&#45;&gt;N40</title>
<path fill="none" stroke="#6c757d" d="M223.6,-3648.74C240.64,-3468.59 378,-2016 378,-2016 378,-2016 424.29,-2006.06 462.69,-1997.82"/>
<polygon fill="#6c757d" stroke="#6c757d" points="462.93,-2000.28 469.26,-1996.41 461.9,-1995.49 462.93,-2000.28"/>
</g>
<!-- N41 -->
<g id="node42" class="node">
<title>N41</title>
<path fill="#f8f9fa" stroke="#ced4da" d="M545.75,-1329C545.75,-1329 482.5,-1329 482.5,-1329 476.5,-1329 470.5,-1323 470.5,-1317 470.5,-1317 470.5,-1305 470.5,-1305 470.5,-1299 476.5,-1293 482.5,-1293 482.5,-1293 545.75,-1293 545.75,-1293 551.75,-1293 557.75,-1299 557.75,-1305 557.75,-1305 557.75,-1317 557.75,-1317 557.75,-1323 551.75,-1329 545.75,-1329"/>
<text text-anchor="middle" x="514.12" y="-1309" font-family="Helvetica,Arial,sans-serif" font-size="10.00" fill="#212529">📄 authentik.nix</text>
</g>
<!-- N2&#45;&gt;N41 -->
<g id="edge43" class="edge">
<title>N2&#45;&gt;N41</title>
<path fill="none" stroke="#6c757d" d="M223.11,-3648.61C237.76,-3430.2 378,-1340 378,-1340 378,-1340 424.01,-1330.13 462.33,-1321.9"/>
<polygon fill="#6c757d" stroke="#6c757d" points="462.56,-1324.36 468.89,-1320.49 461.53,-1319.57 462.56,-1324.36"/>
</g>
<!-- N42 -->
<g id="node43" class="node">
<title>N42</title>
<path fill="#f8f9fa" stroke="#ced4da" d="M538.62,-1387C538.62,-1387 489.62,-1387 489.62,-1387 483.62,-1387 477.62,-1381 477.62,-1375 477.62,-1375 477.62,-1363 477.62,-1363 477.62,-1357 483.62,-1351 489.62,-1351 489.62,-1351 538.62,-1351 538.62,-1351 544.62,-1351 550.62,-1357 550.62,-1363 550.62,-1363 550.62,-1375 550.62,-1375 550.62,-1381 544.62,-1387 538.62,-1387"/>
<text text-anchor="middle" x="514.12" y="-1367" font-family="Helvetica,Arial,sans-serif" font-size="10.00" fill="#212529">📄 caddy.nix</text>
</g>
<!-- N2&#45;&gt;N42 -->
<g id="edge44" class="edge">
<title>N2&#45;&gt;N42</title>
<path fill="none" stroke="#6c757d" d="M223.15,-3648.64C238.05,-3434.91 378,-1427 378,-1427 378,-1427 430.06,-1404.65 469.56,-1387.7"/>
<polygon fill="#6c757d" stroke="#6c757d" points="470.41,-1390 475.88,-1384.99 468.48,-1385.5 470.41,-1390"/>
</g>
<!-- N43 -->
<g id="node44" class="node">
<title>N43</title>
<path fill="#f8f9fa" stroke="#ced4da" d="M549.5,-1097C549.5,-1097 478.75,-1097 478.75,-1097 472.75,-1097 466.75,-1091 466.75,-1085 466.75,-1085 466.75,-1073 466.75,-1073 466.75,-1067 472.75,-1061 478.75,-1061 478.75,-1061 549.5,-1061 549.5,-1061 555.5,-1061 561.5,-1067 561.5,-1073 561.5,-1073 561.5,-1085 561.5,-1085 561.5,-1091 555.5,-1097 549.5,-1097"/>
<text text-anchor="middle" x="514.12" y="-1077" font-family="Helvetica,Arial,sans-serif" font-size="10.00" fill="#212529">📄 cloudflared.nix</text>
</g>
<!-- N2&#45;&gt;N43 -->
<g id="edge45" class="edge">
<title>N2&#45;&gt;N43</title>
<path fill="none" stroke="#6c757d" d="M223,-3648.59C237.04,-3418.45 378,-1108 378,-1108 378,-1108 421.18,-1098.73 458.72,-1090.68"/>
<polygon fill="#6c757d" stroke="#6c757d" points="458.81,-1093.16 465.14,-1089.3 457.78,-1088.37 458.81,-1093.16"/>
</g>
<!-- N44 -->
<g id="node45" class="node">
<title>N44</title>
<path fill="#f8f9fa" stroke="#ced4da" d="M569,-1155C569,-1155 459.25,-1155 459.25,-1155 453.25,-1155 447.25,-1149 447.25,-1143 447.25,-1143 447.25,-1131 447.25,-1131 447.25,-1125 453.25,-1119 459.25,-1119 459.25,-1119 569,-1119 569,-1119 575,-1119 581,-1125 581,-1131 581,-1131 581,-1143 581,-1143 581,-1149 575,-1155 569,-1155"/>
<text text-anchor="middle" x="514.12" y="-1135" font-family="Helvetica,Arial,sans-serif" font-size="10.00" fill="#212529">📄 docker&#45;socket&#45;proxy.nix</text>
</g>
<!-- N2&#45;&gt;N44 -->
<g id="edge46" class="edge">
<title>N2&#45;&gt;N44</title>
<path fill="none" stroke="#6c757d" d="M223.02,-3648.66C237.18,-3421.76 378,-1166 378,-1166 378,-1166 407.39,-1159.69 438.75,-1152.96"/>
<polygon fill="#6c757d" stroke="#6c757d" points="438.94,-1155.43 445.27,-1151.56 437.91,-1150.64 438.94,-1155.43"/>
</g>
<!-- N45 -->
<g id="node46" class="node">
<title>N45</title>
<path fill="#f8f9fa" stroke="#ced4da" d="M541.62,-1213C541.62,-1213 486.62,-1213 486.62,-1213 480.62,-1213 474.62,-1207 474.62,-1201 474.62,-1201 474.62,-1189 474.62,-1189 474.62,-1183 480.62,-1177 486.62,-1177 486.62,-1177 541.62,-1177 541.62,-1177 547.62,-1177 553.62,-1183 553.62,-1189 553.62,-1189 553.62,-1201 553.62,-1201 553.62,-1207 547.62,-1213 541.62,-1213"/>
<text text-anchor="middle" x="514.12" y="-1193" font-family="Helvetica,Arial,sans-serif" font-size="10.00" fill="#212529">📄 gluetun.nix</text>
</g>
<!-- N2&#45;&gt;N45 -->
<g id="edge47" class="edge">
<title>N2&#45;&gt;N45</title>
<path fill="none" stroke="#6c757d" d="M223.04,-3648.74C237.33,-3425.18 378,-1224 378,-1224 378,-1224 427.22,-1213.44 466.25,-1205.06"/>
<polygon fill="#6c757d" stroke="#6c757d" points="466.59,-1207.49 472.92,-1203.63 465.57,-1202.7 466.59,-1207.49"/>
</g>
<!-- N46 -->
<g id="node47" class="node">
<title>N46</title>
<path fill="#f8f9fa" stroke="#ced4da" d="M536,-1271C536,-1271 492.25,-1271 492.25,-1271 486.25,-1271 480.25,-1265 480.25,-1259 480.25,-1259 480.25,-1247 480.25,-1247 480.25,-1241 486.25,-1235 492.25,-1235 492.25,-1235 536,-1235 536,-1235 542,-1235 548,-1241 548,-1247 548,-1247 548,-1259 548,-1259 548,-1265 542,-1271 536,-1271"/>
<text text-anchor="middle" x="514.12" y="-1251" font-family="Helvetica,Arial,sans-serif" font-size="10.00" fill="#212529">📄 lldap.nix</text>
</g>
<!-- N2&#45;&gt;N46 -->
<g id="edge48" class="edge">
<title>N2&#45;&gt;N46</title>
<path fill="none" stroke="#6c757d" d="M223.06,-3648.84C237.47,-3428.71 378,-1282 378,-1282 378,-1282 432.1,-1270.39 471.83,-1261.86"/>
<polygon fill="#6c757d" stroke="#6c757d" points="472.26,-1264.28 478.59,-1260.41 471.23,-1259.49 472.26,-1264.28"/>
</g>
<!-- N51 -->
<g id="node52" class="node">
<title>N51</title>
<path fill="#f8f9fa" stroke="#ced4da" d="M540.5,-597C540.5,-597 487.75,-597 487.75,-597 481.75,-597 475.75,-591 475.75,-585 475.75,-585 475.75,-573 475.75,-573 475.75,-567 481.75,-561 487.75,-561 487.75,-561 540.5,-561 540.5,-561 546.5,-561 552.5,-567 552.5,-573 552.5,-573 552.5,-585 552.5,-585 552.5,-591 546.5,-597 540.5,-597"/>
<text text-anchor="middle" x="514.12" y="-577" font-family="Helvetica,Arial,sans-serif" font-size="10.00" fill="#212529">📄 default.nix</text>
</g>
<!-- N2&#45;&gt;N51 -->
<g id="edge49" class="edge">
<title>N2&#45;&gt;N51</title>
<path fill="none" stroke="#6c757d" d="M222.81,-3648.82C235.73,-3398.06 378,-637 378,-637 378,-637 428.54,-615.31 467.8,-598.45"/>
<polygon fill="#6c757d" stroke="#6c757d" points="468.63,-600.77 474.09,-595.75 466.7,-596.26 468.63,-600.77"/>
</g>
<!-- N56 -->
<g id="node57" class="node">
<title>N56</title>
<path fill="#f8f9fa" stroke="#ced4da" d="M536.38,-847C536.38,-847 491.88,-847 491.88,-847 485.88,-847 479.88,-841 479.88,-835 479.88,-835 479.88,-823 479.88,-823 479.88,-817 485.88,-811 491.88,-811 491.88,-811 536.38,-811 536.38,-811 542.38,-811 548.38,-817 548.38,-823 548.38,-823 548.38,-835 548.38,-835 548.38,-841 542.38,-847 536.38,-847"/>
<text text-anchor="middle" x="514.12" y="-827" font-family="Helvetica,Arial,sans-serif" font-size="10.00" fill="#212529">📄 base.nix</text>
</g>
<!-- N2&#45;&gt;N56 -->
<g id="edge50" class="edge">
<title>N2&#45;&gt;N56</title>
<path fill="none" stroke="#6c757d" d="M222.89,-3648.69C236.31,-3407.21 378,-858 378,-858 378,-858 431.47,-846.52 471.14,-838.01"/>
<polygon fill="#6c757d" stroke="#6c757d" points="471.57,-840.43 477.9,-836.56 470.54,-835.63 471.57,-840.43"/>
</g>
<!-- N57 -->
<g id="node58" class="node">
<title>N57</title>
<path fill="#f8f9fa" stroke="#ced4da" d="M539.38,-905C539.38,-905 488.88,-905 488.88,-905 482.88,-905 476.88,-899 476.88,-893 476.88,-893 476.88,-881 476.88,-881 476.88,-875 482.88,-869 488.88,-869 488.88,-869 539.38,-869 539.38,-869 545.38,-869 551.38,-875 551.38,-881 551.38,-881 551.38,-893 551.38,-893 551.38,-899 545.38,-905 539.38,-905"/>
<text text-anchor="middle" x="514.12" y="-885" font-family="Helvetica,Arial,sans-serif" font-size="10.00" fill="#212529">📄 server.nix</text>
</g>
<!-- N2&#45;&gt;N57 -->
<g id="edge51" class="edge">
<title>N2&#45;&gt;N57</title>
<path fill="none" stroke="#6c757d" d="M222.93,-3648.53C236.6,-3410.2 378,-945 378,-945 378,-945 429.45,-922.92 468.86,-906"/>
<polygon fill="#6c757d" stroke="#6c757d" points="469.7,-908.31 475.17,-903.29 467.77,-903.8 469.7,-908.31"/>
</g>
<!-- N59 -->
<g id="node60" class="node">
<title>N59</title>
<path fill="#f8f9fa" stroke="#ced4da" d="M540.5,-693C540.5,-693 487.75,-693 487.75,-693 481.75,-693 475.75,-687 475.75,-681 475.75,-681 475.75,-669 475.75,-669 475.75,-663 481.75,-657 487.75,-657 487.75,-657 540.5,-657 540.5,-657 546.5,-657 552.5,-663 552.5,-669 552.5,-669 552.5,-681 552.5,-681 552.5,-687 546.5,-693 540.5,-693"/>
<text text-anchor="middle" x="514.12" y="-673" font-family="Helvetica,Arial,sans-serif" font-size="10.00" fill="#212529">📄 default.nix</text>
</g>
<!-- N2&#45;&gt;N59 -->
<g id="edge52" class="edge">
<title>N2&#45;&gt;N59</title>
<path fill="none" stroke="#6c757d" d="M222.85,-3648.65C236.02,-3401.12 378,-733 378,-733 378,-733 428.54,-711.31 467.8,-694.45"/>
<polygon fill="#6c757d" stroke="#6c757d" points="468.63,-696.77 474.09,-691.75 466.7,-692.26 468.63,-696.77"/>
</g>
<!-- N60 -->
<g id="node61" class="node">
<title>N60</title>
<path fill="#f8f9fa" stroke="#ced4da" d="M540.5,-1001C540.5,-1001 487.75,-1001 487.75,-1001 481.75,-1001 475.75,-995 475.75,-989 475.75,-989 475.75,-977 475.75,-977 475.75,-971 481.75,-965 487.75,-965 487.75,-965 540.5,-965 540.5,-965 546.5,-965 552.5,-971 552.5,-977 552.5,-977 552.5,-989 552.5,-989 552.5,-995 546.5,-1001 540.5,-1001"/>
<text text-anchor="middle" x="514.12" y="-981" font-family="Helvetica,Arial,sans-serif" font-size="10.00" fill="#212529">📄 default.nix</text>
</g>
<!-- N2&#45;&gt;N60 -->
<g id="edge53" class="edge">
<title>N2&#45;&gt;N60</title>
<path fill="none" stroke="#6c757d" d="M222.96,-3648.83C236.75,-3416.82 378,-1041 378,-1041 378,-1041 428.54,-1019.31 467.8,-1002.45"/>
<polygon fill="#6c757d" stroke="#6c757d" points="468.63,-1004.77 474.09,-999.75 466.7,-1000.26 468.63,-1004.77"/>
</g>
<!-- N48 -->
<g id="node49" class="node">
<title>N48</title>
<path fill="#f8f9fa" stroke="#ced4da" d="M574.62,-347C574.62,-347 453.62,-347 453.62,-347 447.62,-347 441.62,-341 441.62,-335 441.62,-335 441.62,-323 441.62,-323 441.62,-317 447.62,-311 453.62,-311 453.62,-311 574.62,-311 574.62,-311 580.62,-311 586.62,-317 586.62,-323 586.62,-323 586.62,-335 586.62,-335 586.62,-341 580.62,-347 574.62,-347"/>
<text text-anchor="middle" x="514.12" y="-327" font-family="Helvetica,Arial,sans-serif" font-size="10.00" fill="#212529">📄 hardware&#45;configuration.nix</text>
</g>
<!-- N47&#45;&gt;N48 -->
<g id="edge54" class="edge">
<title>N47&#45;&gt;N48</title>
<path fill="none" stroke="#6c757d" d="M272.61,-329C316.76,-329 381.53,-329 432.73,-329"/>
<polygon fill="#6c757d" stroke="#6c757d" points="432.64,-331.45 439.64,-329 432.64,-326.55 432.64,-331.45"/>
</g>
<!-- N47&#45;&gt;N51 -->
<g id="edge55" class="edge">
<title>N47&#45;&gt;N51</title>
<path fill="none" stroke="#6c757d" d="M235.19,-347.25C272.94,-399 378,-543 378,-543 378,-543 428.12,-556.35 467.31,-566.79"/>
<polygon fill="#6c757d" stroke="#6c757d" points="466.63,-569.15 474.02,-568.58 467.89,-564.41 466.63,-569.15"/>
</g>
<!-- N52 -->
<g id="node53" class="node">
<title>N52</title>
<path fill="#f8f9fa" stroke="#ced4da" d="M540.5,-443C540.5,-443 487.75,-443 487.75,-443 481.75,-443 475.75,-437 475.75,-431 475.75,-431 475.75,-419 475.75,-419 475.75,-413 481.75,-407 487.75,-407 487.75,-407 540.5,-407 540.5,-407 546.5,-407 552.5,-413 552.5,-419 552.5,-419 552.5,-431 552.5,-431 552.5,-437 546.5,-443 540.5,-443"/>
<text text-anchor="middle" x="514.12" y="-423" font-family="Helvetica,Arial,sans-serif" font-size="10.00" fill="#212529">📄 default.nix</text>
</g>
<!-- N47&#45;&gt;N52 -->
<g id="edge56" class="edge">
<title>N47&#45;&gt;N52</title>
<path fill="none" stroke="#6c757d" d="M269.99,-347.49C315.86,-365.12 378,-389 378,-389 378,-389 428.12,-402.35 467.31,-412.79"/>
<polygon fill="#6c757d" stroke="#6c757d" points="466.63,-415.15 474.02,-414.58 467.89,-410.41 466.63,-415.15"/>
</g>
<!-- N53 -->
<g id="node54" class="node">
<title>N53</title>
<path fill="#f8f9fa" stroke="#ced4da" d="M546.12,-501C546.12,-501 482.12,-501 482.12,-501 476.12,-501 470.12,-495 470.12,-489 470.12,-489 470.12,-477 470.12,-477 470.12,-471 476.12,-465 482.12,-465 482.12,-465 546.12,-465 546.12,-465 552.12,-465 558.12,-471 558.12,-477 558.12,-477 558.12,-489 558.12,-489 558.12,-495 552.12,-501 546.12,-501"/>
<text text-anchor="middle" x="514.12" y="-481" font-family="Helvetica,Arial,sans-serif" font-size="10.00" fill="#212529">📄 minecraft.nix</text>
</g>
<!-- N47&#45;&gt;N53 -->
<g id="edge57" class="edge">
<title>N47&#45;&gt;N53</title>
<path fill="none" stroke="#6c757d" d="M244.91,-347.44C288.34,-382.22 378,-454 378,-454 378,-454 423.43,-463.75 461.61,-471.94"/>
<polygon fill="#6c757d" stroke="#6c757d" points="460.79,-474.27 468.15,-473.35 461.82,-469.48 460.79,-474.27"/>
</g>
<!-- N54 -->
<g id="node55" class="node">
<title>N54</title>
<path fill="#f8f9fa" stroke="#ced4da" d="M540.5,-155C540.5,-155 487.75,-155 487.75,-155 481.75,-155 475.75,-149 475.75,-143 475.75,-143 475.75,-131 475.75,-131 475.75,-125 481.75,-119 487.75,-119 487.75,-119 540.5,-119 540.5,-119 546.5,-119 552.5,-125 552.5,-131 552.5,-131 552.5,-143 552.5,-143 552.5,-149 546.5,-155 540.5,-155"/>
<text text-anchor="middle" x="514.12" y="-135" font-family="Helvetica,Arial,sans-serif" font-size="10.00" fill="#212529">📄 default.nix</text>
</g>
<!-- N47&#45;&gt;N54 -->
<g id="edge58" class="edge">
<title>N47&#45;&gt;N54</title>
<path fill="none" stroke="#6c757d" d="M243.26,-310.65C286.01,-273.95 378,-195 378,-195 378,-195 428.54,-173.31 467.8,-156.45"/>
<polygon fill="#6c757d" stroke="#6c757d" points="468.63,-158.77 474.09,-153.75 466.7,-154.26 468.63,-158.77"/>
</g>
<!-- N47&#45;&gt;N56 -->
<g id="edge59" class="edge">
<title>N47&#45;&gt;N56</title>
<path fill="none" stroke="#6c757d" d="M228,-347.46C256.86,-434.54 378,-800 378,-800 378,-800 431.47,-811.48 471.14,-819.99"/>
<polygon fill="#6c757d" stroke="#6c757d" points="470.54,-822.37 477.9,-821.44 471.57,-817.57 470.54,-822.37"/>
</g>
<!-- N58 -->
<g id="node59" class="node">
<title>N58</title>
<path fill="#f8f9fa" stroke="#ced4da" d="M539,-789C539,-789 489.25,-789 489.25,-789 483.25,-789 477.25,-783 477.25,-777 477.25,-777 477.25,-765 477.25,-765 477.25,-759 483.25,-753 489.25,-753 489.25,-753 539,-753 539,-753 545,-753 551,-759 551,-765 551,-765 551,-777 551,-777 551,-783 545,-789 539,-789"/>
<text text-anchor="middle" x="514.12" y="-769" font-family="Helvetica,Arial,sans-serif" font-size="10.00" fill="#212529">📄 sound.nix</text>
</g>
<!-- N47&#45;&gt;N58 -->
<g id="edge60" class="edge">
<title>N47&#45;&gt;N58</title>
<path fill="none" stroke="#6c757d" d="M228.99,-347.5C259.53,-426.93 378,-735 378,-735 378,-735 429.33,-748.67 468.71,-759.17"/>
<polygon fill="#6c757d" stroke="#6c757d" points="468.06,-761.53 475.45,-760.96 469.32,-756.79 468.06,-761.53"/>
</g>
<!-- N47&#45;&gt;N59 -->
<g id="edge61" class="edge">
<title>N47&#45;&gt;N59</title>
<path fill="none" stroke="#6c757d" d="M231.17,-347.46C264.78,-414.2 378,-639 378,-639 378,-639 428.12,-652.35 467.31,-662.79"/>
<polygon fill="#6c757d" stroke="#6c757d" points="466.63,-665.15 474.02,-664.58 467.89,-660.41 466.63,-665.15"/>
</g>
<!-- N62 -->
<g id="node63" class="node">
<title>N62</title>
<path fill="#f8f9fa" stroke="#ced4da" d="M540.5,-251C540.5,-251 487.75,-251 487.75,-251 481.75,-251 475.75,-245 475.75,-239 475.75,-239 475.75,-227 475.75,-227 475.75,-221 481.75,-215 487.75,-215 487.75,-215 540.5,-215 540.5,-215 546.5,-215 552.5,-221 552.5,-227 552.5,-227 552.5,-239 552.5,-239 552.5,-245 546.5,-251 540.5,-251"/>
<text text-anchor="middle" x="514.12" y="-231" font-family="Helvetica,Arial,sans-serif" font-size="10.00" fill="#212529">📄 default.nix</text>
</g>
<!-- N47&#45;&gt;N62 -->
<g id="edge62" class="edge">
<title>N47&#45;&gt;N62</title>
<path fill="none" stroke="#6c757d" d="M272.61,-312.28C327.64,-294.14 414.7,-265.44 467.6,-248.01"/>
<polygon fill="#6c757d" stroke="#6c757d" points="468.15,-250.4 474.03,-245.89 466.62,-245.75 468.15,-250.4"/>
</g>
<!-- N50 -->
<g id="node51" class="node">
<title>N50</title>
<path fill="#f8f9fa" stroke="#ced4da" d="M574.62,-59C574.62,-59 453.62,-59 453.62,-59 447.62,-59 441.62,-53 441.62,-47 441.62,-47 441.62,-35 441.62,-35 441.62,-29 447.62,-23 453.62,-23 453.62,-23 574.62,-23 574.62,-23 580.62,-23 586.62,-29 586.62,-35 586.62,-35 586.62,-47 586.62,-47 586.62,-53 580.62,-59 574.62,-59"/>
<text text-anchor="middle" x="514.12" y="-39" font-family="Helvetica,Arial,sans-serif" font-size="10.00" fill="#212529">📄 hardware&#45;configuration.nix</text>
</g>
<!-- N49&#45;&gt;N50 -->
<g id="edge63" class="edge">
<title>N49&#45;&gt;N50</title>
<path fill="none" stroke="#6c757d" d="M272.61,-41C316.76,-41 381.53,-41 432.73,-41"/>
<polygon fill="#6c757d" stroke="#6c757d" points="432.64,-43.45 439.64,-41 432.64,-38.55 432.64,-43.45"/>
</g>
<!-- N49&#45;&gt;N51 -->
<g id="edge64" class="edge">
<title>N49&#45;&gt;N51</title>
<path fill="none" stroke="#6c757d" d="M227.91,-59.38C246.88,-117.12 304,-291 304,-291 304,-291 378,-543 378,-543 378,-543 428.12,-556.35 467.31,-566.79"/>
<polygon fill="#6c757d" stroke="#6c757d" points="466.63,-569.15 474.02,-568.58 467.89,-564.41 466.63,-569.15"/>
</g>
<!-- N49&#45;&gt;N54 -->
<g id="edge65" class="edge">
<title>N49&#45;&gt;N54</title>
<path fill="none" stroke="#6c757d" d="M269.99,-59.49C315.86,-77.12 378,-101 378,-101 378,-101 428.12,-114.35 467.31,-124.79"/>
<polygon fill="#6c757d" stroke="#6c757d" points="466.63,-127.15 474.02,-126.58 467.89,-122.41 466.63,-127.15"/>
</g>
<!-- N49&#45;&gt;N56 -->
<g id="edge66" class="edge">
<title>N49&#45;&gt;N56</title>
<path fill="none" stroke="#6c757d" d="M227.91,-59.38C246.88,-117.12 304,-291 304,-291 304,-291 378,-800 378,-800 378,-800 431.47,-811.48 471.14,-819.99"/>
<polygon fill="#6c757d" stroke="#6c757d" points="470.54,-822.37 477.9,-821.44 471.57,-817.57 470.54,-822.37"/>
</g>
<!-- N49&#45;&gt;N58 -->
<g id="edge67" class="edge">
<title>N49&#45;&gt;N58</title>
<path fill="none" stroke="#6c757d" d="M227.91,-59.38C246.88,-117.12 304,-291 304,-291 304,-291 378,-735 378,-735 378,-735 429.33,-748.67 468.71,-759.17"/>
<polygon fill="#6c757d" stroke="#6c757d" points="468.06,-761.53 475.45,-760.96 469.32,-756.79 468.06,-761.53"/>
</g>
<!-- N49&#45;&gt;N59 -->
<g id="edge68" class="edge">
<title>N49&#45;&gt;N59</title>
<path fill="none" stroke="#6c757d" d="M227.91,-59.38C246.88,-117.12 304,-291 304,-291 304,-291 378,-639 378,-639 378,-639 428.12,-652.35 467.31,-662.79"/>
<polygon fill="#6c757d" stroke="#6c757d" points="466.63,-665.15 474.02,-664.58 467.89,-660.41 466.63,-665.15"/>
</g>
<!-- N49&#45;&gt;N62 -->
<g id="edge69" class="edge">
<title>N49&#45;&gt;N62</title>
<path fill="none" stroke="#6c757d" d="M240.09,-59.2C281.27,-100.35 378,-197 378,-197 378,-197 428.12,-210.35 467.31,-220.79"/>
<polygon fill="#6c757d" stroke="#6c757d" points="466.63,-223.15 474.02,-222.58 467.89,-218.41 466.63,-223.15"/>
</g>
<!-- N55 -->
<g id="node56" class="node">
<title>N55</title>
<path fill="#f8f9fa" stroke="#ced4da" d="M827.5,-847C827.5,-847 734.25,-847 734.25,-847 728.25,-847 722.25,-841 722.25,-835 722.25,-835 722.25,-823 722.25,-823 722.25,-817 728.25,-811 734.25,-811 734.25,-811 827.5,-811 827.5,-811 833.5,-811 839.5,-817 839.5,-823 839.5,-823 839.5,-835 839.5,-835 839.5,-841 833.5,-847 827.5,-847"/>
<text text-anchor="middle" x="780.88" y="-827" font-family="Helvetica,Arial,sans-serif" font-size="10.00" fill="#212529">📄 architecture&#45;dag.nix</text>
</g>
<!-- N56&#45;&gt;N55 -->
<g id="edge70" class="edge">
<title>N56&#45;&gt;N55</title>
<path fill="none" stroke="#6c757d" d="M548.66,-829C590,-829 661.22,-829 713.72,-829"/>
<polygon fill="#6c757d" stroke="#6c757d" points="713.46,-831.45 720.46,-829 713.46,-826.55 713.46,-831.45"/>
</g>
<!-- N61 -->
<g id="node62" class="node">
<title>N61</title>
<path fill="#f8f9fa" stroke="#ced4da" d="M804.62,-1001C804.62,-1001 757.12,-1001 757.12,-1001 751.12,-1001 745.12,-995 745.12,-989 745.12,-989 745.12,-977 745.12,-977 745.12,-971 751.12,-965 757.12,-965 757.12,-965 804.62,-965 804.62,-965 810.62,-965 816.62,-971 816.62,-977 816.62,-977 816.62,-989 816.62,-989 816.62,-995 810.62,-1001 804.62,-1001"/>
<text text-anchor="middle" x="780.88" y="-981" font-family="Helvetica,Arial,sans-serif" font-size="10.00" fill="#212529">📄 home.nix</text>
</g>
<!-- N60&#45;&gt;N61 -->
<g id="edge71" class="edge">
<title>N60&#45;&gt;N61</title>
<path fill="none" stroke="#6c757d" d="M552.78,-983C601.32,-983 685.57,-983 736.67,-983"/>
<polygon fill="#6c757d" stroke="#6c757d" points="736.37,-985.45 743.37,-983 736.37,-980.55 736.37,-985.45"/>
</g>
<!-- N63 -->
<g id="node64" class="node">
<title>N63</title>
<path fill="#f8f9fa" stroke="#ced4da" d="M804.62,-251C804.62,-251 757.12,-251 757.12,-251 751.12,-251 745.12,-245 745.12,-239 745.12,-239 745.12,-227 745.12,-227 745.12,-221 751.12,-215 757.12,-215 757.12,-215 804.62,-215 804.62,-215 810.62,-215 816.62,-221 816.62,-227 816.62,-227 816.62,-239 816.62,-239 816.62,-245 810.62,-251 804.62,-251"/>
<text text-anchor="middle" x="780.88" y="-231" font-family="Helvetica,Arial,sans-serif" font-size="10.00" fill="#212529">📄 home.nix</text>
</g>
<!-- N62&#45;&gt;N63 -->
<g id="edge72" class="edge">
<title>N62&#45;&gt;N63</title>
<path fill="none" stroke="#6c757d" d="M552.78,-233C601.32,-233 685.57,-233 736.67,-233"/>
<polygon fill="#6c757d" stroke="#6c757d" points="736.37,-235.45 743.37,-233 736.37,-230.55 736.37,-235.45"/>
</g>
</g>
</svg>
