<?xml version="1.0" encoding="UTF-8" standalone="no"?>
<!DOCTYPE svg PUBLIC "-//W3C//DTD SVG 1.1//EN"
 "http://www.w3.org/Graphics/SVG/1.1/DTD/svg11.dtd">
<!-- Generated by graphviz version 12.2.1 (0)
 -->
<!-- Title: NixOS Pages: 1 -->
<svg width="850pt" height="3980pt"
 viewBox="0.00 0.00 849.88 3980.00" xmlns="http://www.w3.org/2000/svg" xmlns:xlink="http://www.w3.org/1999/xlink">
<g id="graph0" class="graph" transform="scale(1 1) rotate(0) translate(4 3976)">
<title>NixOS</title>
<polygon fill="white" stroke="none" points="-4,4 -4,-3976 845.88,-3976 845.88,4 -4,4"/>
<g id="clust1" class="cluster">
<title>cluster_hosts_devcontainer</title>
<path fill="#e9ecef" stroke="#adb5bd" d="M158.25,-3874C158.25,-3874 283,-3874 283,-3874 289,-3874 295,-3880 295,-3886 295,-3886 295,-3952 295,-3952 295,-3958 289,-3964 283,-3964 283,-3964 158.25,-3964 158.25,-3964 152.25,-3964 146.25,-3958 146.25,-3952 146.25,-3952 146.25,-3886 146.25,-3886 146.25,-3880 152.25,-3874 158.25,-3874"/>
<text text-anchor="middle" x="220.62" y="-3948.6" font-family="Helvetica,sans-Serif" font-weight="bold" font-size="12.00" fill="#495057">📁 hosts/devcontainer</text>
</g>
<g id="clust2" class="cluster">
<title>cluster_hosts_homelab</title>
<path fill="#e9ecef" stroke="#adb5bd" d="M159.25,-3718C159.25,-3718 578.75,-3718 578.75,-3718 584.75,-3718 590.75,-3724 590.75,-3730 590.75,-3730 590.75,-3854 590.75,-3854 590.75,-3860 584.75,-3866 578.75,-3866 578.75,-3866 159.25,-3866 159.25,-3866 153.25,-3866 147.25,-3860 147.25,-3854 147.25,-3854 147.25,-3730 147.25,-3730 147.25,-3724 153.25,-3718 159.25,-3718"/>
<text text-anchor="middle" x="369" y="-3850.6" font-family="Helvetica,sans-Serif" font-weight="bold" font-size="12.00" fill="#495057">📁 hosts/homelab</text>
</g>
<g id="clust3" class="cluster">
<title>cluster_hosts_homelab_services_media</title>
<path fill="#e9ecef" stroke="#adb5bd" d="M397.5,-2866C397.5,-2866 589.75,-2866 589.75,-2866 595.75,-2866 601.75,-2872 601.75,-2878 601.75,-2878 601.75,-3698 601.75,-3698 601.75,-3704 595.75,-3710 589.75,-3710 589.75,-3710 397.5,-3710 397.5,-3710 391.5,-3710 385.5,-3704 385.5,-3698 385.5,-3698 385.5,-2878 385.5,-2878 385.5,-2872 391.5,-2866 397.5,-2866"/>
<text text-anchor="middle" x="493.62" y="-3694.6" font-family="Helvetica,sans-Serif" font-weight="bold" font-size="12.00" fill="#495057">📁 hosts/homelab/services/media</text>
</g>
<g id="clust4" class="cluster">
<title>cluster_hosts_homelab_services_monitoring</title>
<path fill="#e9ecef" stroke="#adb5bd" d="M383.62,-2246C383.62,-2246 603.62,-2246 603.62,-2246 609.62,-2246 615.62,-2252 615.62,-2258 615.62,-2258 615.62,-2846 615.62,-2846 615.62,-2852 609.62,-2858 603.62,-2858 603.62,-2858 383.62,-2858 383.62,-2858 377.62,-2858 371.62,-2852 371.62,-2846 371.62,-2846 371.62,-2258 371.62,-2258 371.62,-2252 377.62,-2246 383.62,-2246"/>
<text text-anchor="middle" x="493.62" y="-2842.6" font-family="Helvetica,sans-Serif" font-weight="bold" font-size="12.00" fill="#495057">📁 hosts/homelab/services/monitoring</text>
</g>
<g id="clust5" class="cluster">
<title>cluster_hosts_homelab_services_random</title>
<path fill="#e9ecef" stroke="#adb5bd" d="M392.62,-1452C392.62,-1452 594.62,-1452 594.62,-1452 600.62,-1452 606.62,-1458 606.62,-1464 606.62,-1464 606.62,-2226 606.62,-2226 606.62,-2232 600.62,-2238 594.62,-2238 594.62,-2238 392.62,-2238 392.62,-2238 386.62,-2238 380.62,-2232 380.62,-2226 380.62,-2226 380.62,-1464 380.62,-1464 380.62,-1458 386.62,-1452 392.62,-1452"/>
<text text-anchor="middle" x="493.62" y="-2222.6" font-family="Helvetica,sans-Serif" font-weight="bold" font-size="12.00" fill="#495057">📁 hosts/homelab/services/random</text>
</g>
<g id="clust6" class="cluster">
<title>cluster_hosts_homelab_services_security</title>
<path fill="#e9ecef" stroke="#adb5bd" d="M392.62,-1064C392.62,-1064 594.62,-1064 594.62,-1064 600.62,-1064 606.62,-1070 606.62,-1076 606.62,-1076 606.62,-1432 606.62,-1432 606.62,-1438 600.62,-1444 594.62,-1444 594.62,-1444 392.62,-1444 392.62,-1444 386.62,-1444 380.62,-1438 380.62,-1432 380.62,-1432 380.62,-1076 380.62,-1076 380.62,-1070 386.62,-1064 392.62,-1064"/>
<text text-anchor="middle" x="493.62" y="-1428.6" font-family="Helvetica,sans-Serif" font-weight="bold" font-size="12.00" fill="#495057">📁 hosts/homelab/services/security</text>
</g>
<g id="clust7" class="cluster">
<title>cluster_hosts_perso</title>
<path fill="#e9ecef" stroke="#adb5bd" d="M159.25,-302C159.25,-302 578.75,-302 578.75,-302 584.75,-302 590.75,-308 590.75,-314 590.75,-314 590.75,-380 590.75,-380 590.75,-386 584.75,-392 578.75,-392 578.75,-392 159.25,-392 159.25,-392 153.25,-392 147.25,-386 147.25,-380 147.25,-380 147.25,-314 147.25,-314 147.25,-308 153.25,-302 159.25,-302"/>
<text text-anchor="middle" x="369" y="-376.6" font-family="Helvetica,sans-Serif" font-weight="bold" font-size="12.00" fill="#495057">📁 hosts/perso</text>
</g>
<g id="clust8" class="cluster">
<title>cluster_hosts_portable</title>
<path fill="#e9ecef" stroke="#adb5bd" d="M159.25,-8C159.25,-8 578.75,-8 578.75,-8 584.75,-8 590.75,-14 590.75,-20 590.75,-20 590.75,-86 590.75,-86 590.75,-92 584.75,-98 578.75,-98 578.75,-98 159.25,-98 159.25,-98 153.25,-98 147.25,-92 147.25,-86 147.25,-86 147.25,-20 147.25,-20 147.25,-14 153.25,-8 159.25,-8"/>
<text text-anchor="middle" x="369" y="-82.6" font-family="Helvetica,sans-Serif" font-weight="bold" font-size="12.00" fill="#495057">📁 hosts/portable</text>
</g>
<g id="clust9" class="cluster">
<title>cluster_modules_dev</title>
<path fill="#e9ecef" stroke="#adb5bd" d="M446.88,-556C446.88,-556 539.38,-556 539.38,-556 545.38,-556 551.38,-562 551.38,-568 551.38,-568 551.38,-634 551.38,-634 551.38,-640 545.38,-646 539.38,-646 539.38,-646 446.88,-646 446.88,-646 440.88,-646 434.88,-640 434.88,-634 434.88,-634 434.88,-568 434.88,-568 434.88,-562 440.88,-556 446.88,-556"/>
<text text-anchor="middle" x="493.12" y="-630.6" font-family="Helvetica,sans-Serif" font-weight="bold" font-size="12.00" fill="#495057">📁 modules/dev</text>
</g>
<g id="clust10" class="cluster">
<title>cluster_modules_gaming</title>
<path fill="#e9ecef" stroke="#adb5bd" d="M438.38,-400C438.38,-400 548.88,-400 548.88,-400 554.88,-400 560.88,-406 560.88,-412 560.88,-412 560.88,-536 560.88,-536 560.88,-542 554.88,-548 548.88,-548 548.88,-548 438.38,-548 438.38,-548 432.38,-548 426.38,-542 426.38,-536 426.38,-536 426.38,-412 426.38,-412 426.38,-406 432.38,-400 438.38,-400"/>
<text text-anchor="middle" x="493.62" y="-532.6" font-family="Helvetica,sans-Serif" font-weight="bold" font-size="12.00" fill="#495057">📁 modules/gaming</text>
</g>
<g id="clust11" class="cluster">
<title>cluster_modules_hyprland</title>
<path fill="#e9ecef" stroke="#adb5bd" d="M434.62,-106C434.62,-106 552.62,-106 552.62,-106 558.62,-106 564.62,-112 564.62,-118 564.62,-118 564.62,-184 564.62,-184 564.62,-190 558.62,-196 552.62,-196 552.62,-196 434.62,-196 434.62,-196 428.62,-196 422.62,-190 422.62,-184 422.62,-184 422.62,-118 422.62,-118 422.62,-112 428.62,-106 434.62,-106"/>
<text text-anchor="middle" x="493.62" y="-180.6" font-family="Helvetica,sans-Serif" font-weight="bold" font-size="12.00" fill="#495057">📁 modules/hyprland</text>
</g>
<g id="clust12" class="cluster">
<title>cluster_modules_nixos</title>
<path fill="#e9ecef" stroke="#adb5bd" d="M449.12,-752C449.12,-752 821.88,-752 821.88,-752 827.88,-752 833.88,-758 833.88,-764 833.88,-764 833.88,-946 833.88,-946 833.88,-952 827.88,-958 821.88,-958 821.88,-958 449.12,-958 449.12,-958 443.12,-958 437.12,-952 437.12,-946 437.12,-946 437.12,-764 437.12,-764 437.12,-758 443.12,-752 449.12,-752"/>
<text text-anchor="middle" x="635.5" y="-942.6" font-family="Helvetica,sans-Serif" font-weight="bold" font-size="12.00" fill="#495057">📁 modules/nixos</text>
</g>
<g id="clust13" class="cluster">
<title>cluster_modules_terminal</title>
<path fill="#e9ecef" stroke="#adb5bd" d="M436.12,-654C436.12,-654 551.12,-654 551.12,-654 557.12,-654 563.12,-660 563.12,-666 563.12,-666 563.12,-732 563.12,-732 563.12,-738 557.12,-744 551.12,-744 551.12,-744 436.12,-744 436.12,-744 430.12,-744 424.12,-738 424.12,-732 424.12,-732 424.12,-666 424.12,-666 424.12,-660 430.12,-654 436.12,-654"/>
<text text-anchor="middle" x="493.62" y="-728.6" font-family="Helvetica,sans-Serif" font-weight="bold" font-size="12.00" fill="#495057">📁 modules/terminal</text>
</g>
<g id="clust14" class="cluster">
<title>cluster_users_arthur_homelab</title>
<path fill="#e9ecef" stroke="#adb5bd" d="M446.88,-966C446.88,-966 795.62,-966 795.62,-966 801.62,-966 807.62,-972 807.62,-978 807.62,-978 807.62,-1044 807.62,-1044 807.62,-1050 801.62,-1056 795.62,-1056 795.62,-1056 446.88,-1056 446.88,-1056 440.88,-1056 434.88,-1050 434.88,-1044 434.88,-1044 434.88,-978 434.88,-978 434.88,-972 440.88,-966 446.88,-966"/>
<text text-anchor="middle" x="621.25" y="-1040.6" font-family="Helvetica,sans-Serif" font-weight="bold" font-size="12.00" fill="#495057">📁 users/arthur&#45;homelab</text>
</g>
<g id="clust15" class="cluster">
<title>cluster_users_arthur_perso</title>
<path fill="#e9ecef" stroke="#adb5bd" d="M446.88,-204C446.88,-204 795.62,-204 795.62,-204 801.62,-204 807.62,-210 807.62,-216 807.62,-216 807.62,-282 807.62,-282 807.62,-288 801.62,-294 795.62,-294 795.62,-294 446.88,-294 446.88,-294 440.88,-294 434.88,-288 434.88,-282 434.88,-282 434.88,-216 434.88,-216 434.88,-210 440.88,-204 446.88,-204"/>
<text text-anchor="middle" x="621.25" y="-278.6" font-family="Helvetica,sans-Serif" font-weight="bold" font-size="12.00" fill="#495057">📁 users/arthur&#45;perso</text>
</g>
<!-- N0 -->
<g id="node1" class="node">
<title>N0</title>
<path fill="#f8f9fa" stroke="#ced4da" d="M63.25,-3769C63.25,-3769 12,-3769 12,-3769 6,-3769 0,-3763 0,-3757 0,-3757 0,-3745 0,-3745 0,-3739 6,-3733 12,-3733 12,-3733 63.25,-3733 63.25,-3733 69.25,-3733 75.25,-3739 75.25,-3745 75.25,-3745 75.25,-3757 75.25,-3757 75.25,-3763 69.25,-3769 63.25,-3769"/>
<text text-anchor="middle" x="37.62" y="-3748.62" font-family="Helvetica,Arial,sans-serif" font-size="10.00" fill="#212529">📄 flake.nix</text>
</g>
<!-- N1 -->
<g id="node2" class="node">
<title>N1</title>
<path fill="#f8f9fa" stroke="#ced4da" d="M251.38,-3925C251.38,-3925 188.88,-3925 188.88,-3925 182.88,-3925 176.88,-3919 176.88,-3913 176.88,-3913 176.88,-3901 176.88,-3901 176.88,-3895 182.88,-3889 188.88,-3889 188.88,-3889 251.38,-3889 251.38,-3889 257.38,-3889 263.38,-3895 263.38,-3901 263.38,-3901 263.38,-3913 263.38,-3913 263.38,-3919 257.38,-3925 251.38,-3925"/>
<text text-anchor="middle" x="220.12" y="-3904.62" font-family="Helvetica,Arial,sans-serif" font-size="10.00" fill="#212529">📄 default.nix</text>
</g>
<!-- N0&#45;&gt;N1 -->
<g id="edge1" class="edge">
<title>N0&#45;&gt;N1</title>
<path fill="none" stroke="#6c757d" d="M55.21,-3769.49C85.4,-3803.15 146.25,-3871 146.25,-3871 146.25,-3871 159.29,-3877.44 174.33,-3884.87"/>
<polygon fill="#6c757d" stroke="#6c757d" points="173.12,-3887 180.48,-3887.91 175.29,-3882.61 173.12,-3887"/>
</g>
<!-- N2 -->
<g id="node3" class="node">
<title>N2</title>
<path fill="#f8f9fa" stroke="#ced4da" d="M266,-3769C266,-3769 174.25,-3769 174.25,-3769 168.25,-3769 162.25,-3763 162.25,-3757 162.25,-3757 162.25,-3745 162.25,-3745 162.25,-3739 168.25,-3733 174.25,-3733 174.25,-3733 266,-3733 266,-3733 272,-3733 278,-3739 278,-3745 278,-3745 278,-3757 278,-3757 278,-3763 272,-3769 266,-3769"/>
<text text-anchor="middle" x="220.12" y="-3748.62" font-family="Helvetica,Arial,sans-serif" font-size="10.00" fill="#212529">📄 configuration.nix</text>
</g>
<!-- N0&#45;&gt;N2 -->
<g id="edge2" class="edge">
<title>N0&#45;&gt;N2</title>
<path fill="none" stroke="#6c757d" d="M75.59,-3751C98.02,-3751 127.29,-3751 153.54,-3751"/>
<polygon fill="#6c757d" stroke="#6c757d" points="153.43,-3753.45 160.43,-3751 153.43,-3748.55 153.43,-3753.45"/>
</g>
<!-- N3 -->
<g id="node4" class="node">
<title>N3</title>
<path fill="#f8f9fa" stroke="#ced4da" d="M257.75,-3827C257.75,-3827 182.5,-3827 182.5,-3827 176.5,-3827 170.5,-3821 170.5,-3815 170.5,-3815 170.5,-3803 170.5,-3803 170.5,-3797 176.5,-3791 182.5,-3791 182.5,-3791 257.75,-3791 257.75,-3791 263.75,-3791 269.75,-3797 269.75,-3803 269.75,-3803 269.75,-3815 269.75,-3815 269.75,-3821 263.75,-3827 257.75,-3827"/>
<text text-anchor="middle" x="220.12" y="-3806.62" font-family="Helvetica,Arial,sans-serif" font-size="10.00" fill="#212529">📄 constants.nix</text>
</g>
<!-- N0&#45;&gt;N3 -->
<g id="edge3" class="edge">
<title>N0&#45;&gt;N3</title>
<path fill="none" stroke="#6c757d" d="M75.59,-3762.88C100.57,-3770.9 134.04,-3781.66 162.38,-3790.77"/>
<polygon fill="#6c757d" stroke="#6c757d" points="161.37,-3793.01 168.78,-3792.82 162.87,-3788.35 161.37,-3793.01"/>
</g>
<!-- N48 -->
<g id="node49" class="node">
<title>N48</title>
<path fill="#f8f9fa" stroke="#ced4da" d="M266,-353C266,-353 174.25,-353 174.25,-353 168.25,-353 162.25,-347 162.25,-341 162.25,-341 162.25,-329 162.25,-329 162.25,-323 168.25,-317 174.25,-317 174.25,-317 266,-317 266,-317 272,-317 278,-323 278,-329 278,-329 278,-341 278,-341 278,-347 272,-353 266,-353"/>
<text text-anchor="middle" x="220.12" y="-332.62" font-family="Helvetica,Arial,sans-serif" font-size="10.00" fill="#212529">📄 configuration.nix</text>
</g>
<!-- N0&#45;&gt;N48 -->
<g id="edge4" class="edge">
<title>N0&#45;&gt;N48</title>
<path fill="none" stroke="#6c757d" d="M39.6,-3732.62C53.03,-3478.33 201.63,-666.04 217.72,-361.67"/>
<polygon fill="#6c757d" stroke="#6c757d" points="220.15,-362.03 218.07,-354.91 215.26,-361.77 220.15,-362.03"/>
</g>
<!-- N50 -->
<g id="node51" class="node">
<title>N50</title>
<path fill="#f8f9fa" stroke="#ced4da" d="M266,-59C266,-59 174.25,-59 174.25,-59 168.25,-59 162.25,-53 162.25,-47 162.25,-47 162.25,-35 162.25,-35 162.25,-29 168.25,-23 174.25,-23 174.25,-23 266,-23 266,-23 272,-23 278,-29 278,-35 278,-35 278,-47 278,-47 278,-53 272,-59 266,-59"/>
<text text-anchor="middle" x="220.12" y="-38.62" font-family="Helvetica,Arial,sans-serif" font-size="10.00" fill="#212529">📄 configuration.nix</text>
</g>
<!-- N0&#45;&gt;N50 -->
<g id="edge5" class="edge">
<title>N0&#45;&gt;N50</title>
<path fill="none" stroke="#6c757d" d="M39.19,-3732.83C47.57,-3463.78 146.25,-297 146.25,-297 146.25,-297 193.08,-132.48 211.66,-67.22"/>
<polygon fill="#6c757d" stroke="#6c757d" points="213.91,-68.27 213.47,-60.87 209.2,-66.93 213.91,-68.27"/>
</g>
<!-- N4 -->
<g id="node5" class="node">
<title>N4</title>
<path fill="#f8f9fa" stroke="#ced4da" d="M563.75,-3769C563.75,-3769 422.5,-3769 422.5,-3769 416.5,-3769 410.5,-3763 410.5,-3757 410.5,-3757 410.5,-3745 410.5,-3745 410.5,-3739 416.5,-3733 422.5,-3733 422.5,-3733 563.75,-3733 563.75,-3733 569.75,-3733 575.75,-3739 575.75,-3745 575.75,-3745 575.75,-3757 575.75,-3757 575.75,-3763 569.75,-3769 563.75,-3769"/>
<text text-anchor="middle" x="493.12" y="-3748.62" font-family="Helvetica,Arial,sans-serif" font-size="10.00" fill="#212529">📄 hardware&#45;configuration.nix</text>
</g>
<!-- N2&#45;&gt;N4 -->
<g id="edge6" class="edge">
<title>N2&#45;&gt;N4</title>
<path fill="none" stroke="#6c757d" d="M278.27,-3751C314.08,-3751 361.02,-3751 401.79,-3751"/>
<polygon fill="#6c757d" stroke="#6c757d" points="401.61,-3753.45 408.61,-3751 401.61,-3748.55 401.61,-3753.45"/>
</g>
<!-- N5 -->
<g id="node6" class="node">
<title>N5</title>
<path fill="#f8f9fa" stroke="#ced4da" d="M522.5,-2917C522.5,-2917 463.75,-2917 463.75,-2917 457.75,-2917 451.75,-2911 451.75,-2905 451.75,-2905 451.75,-2893 451.75,-2893 451.75,-2887 457.75,-2881 463.75,-2881 463.75,-2881 522.5,-2881 522.5,-2881 528.5,-2881 534.5,-2887 534.5,-2893 534.5,-2893 534.5,-2905 534.5,-2905 534.5,-2911 528.5,-2917 522.5,-2917"/>
<text text-anchor="middle" x="493.12" y="-2896.62" font-family="Helvetica,Arial,sans-serif" font-size="10.00" fill="#212529">📄 byparr.nix</text>
</g>
<!-- N2&#45;&gt;N5 -->
<g id="edge7" class="edge">
<title>N2&#45;&gt;N5</title>
<path fill="none" stroke="#6c757d" d="M224.48,-3732.66C246.69,-3611.22 371.62,-2928 371.62,-2928 371.62,-2928 409.98,-2918.77 443.41,-2910.72"/>
<polygon fill="#6c757d" stroke="#6c757d" points="443.63,-2913.19 449.86,-2909.17 442.48,-2908.43 443.63,-2913.19"/>
</g>
<!-- N6 -->
<g id="node7" class="node">
<title>N6</title>
<path fill="#f8f9fa" stroke="#ced4da" d="M532.62,-2975C532.62,-2975 453.62,-2975 453.62,-2975 447.62,-2975 441.62,-2969 441.62,-2963 441.62,-2963 441.62,-2951 441.62,-2951 441.62,-2945 447.62,-2939 453.62,-2939 453.62,-2939 532.62,-2939 532.62,-2939 538.62,-2939 544.62,-2945 544.62,-2951 544.62,-2951 544.62,-2963 544.62,-2963 544.62,-2969 538.62,-2975 532.62,-2975"/>
<text text-anchor="middle" x="493.12" y="-2954.62" font-family="Helvetica,Arial,sans-serif" font-size="10.00" fill="#212529">📄 cleanuparr.nix</text>
</g>
<!-- N2&#45;&gt;N6 -->
<g id="edge8" class="edge">
<title>N2&#45;&gt;N6</title>
<path fill="none" stroke="#6c757d" d="M224.7,-3732.84C247.49,-3617 371.62,-2986 371.62,-2986 371.62,-2986 402.65,-2978.53 433.21,-2971.18"/>
<polygon fill="#6c757d" stroke="#6c757d" points="433.67,-2973.59 439.9,-2969.57 432.52,-2968.82 433.67,-2973.59"/>
</g>
<!-- N7 -->
<g id="node8" class="node">
<title>N7</title>
<path fill="#f8f9fa" stroke="#ced4da" d="M557.75,-3033C557.75,-3033 428.5,-3033 428.5,-3033 422.5,-3033 416.5,-3027 416.5,-3021 416.5,-3021 416.5,-3009 416.5,-3009 416.5,-3003 422.5,-2997 428.5,-2997 428.5,-2997 557.75,-2997 557.75,-2997 563.75,-2997 569.75,-3003 569.75,-3009 569.75,-3009 569.75,-3021 569.75,-3021 569.75,-3027 563.75,-3033 557.75,-3033"/>
<text text-anchor="middle" x="493.12" y="-3012.62" font-family="Helvetica,Arial,sans-serif" font-size="10.00" fill="#212529">📄 filebrowser&#45;quantum.nix</text>
</g>
<!-- N2&#45;&gt;N7 -->
<g id="edge9" class="edge">
<title>N2&#45;&gt;N7</title>
<path fill="none" stroke="#6c757d" d="M225,-3732.81C248.55,-3622.15 371.62,-3044 371.62,-3044 371.62,-3044 387.72,-3040.13 408.14,-3035.21"/>
<polygon fill="#6c757d" stroke="#6c757d" points="408.45,-3037.66 414.68,-3033.64 407.3,-3032.89 408.45,-3037.66"/>
</g>
<!-- N8 -->
<g id="node9" class="node">
<title>N8</title>
<path fill="#f8f9fa" stroke="#ced4da" d="M525.5,-3091C525.5,-3091 460.75,-3091 460.75,-3091 454.75,-3091 448.75,-3085 448.75,-3079 448.75,-3079 448.75,-3067 448.75,-3067 448.75,-3061 454.75,-3055 460.75,-3055 460.75,-3055 525.5,-3055 525.5,-3055 531.5,-3055 537.5,-3061 537.5,-3067 537.5,-3067 537.5,-3079 537.5,-3079 537.5,-3085 531.5,-3091 525.5,-3091"/>
<text text-anchor="middle" x="493.12" y="-3070.62" font-family="Helvetica,Arial,sans-serif" font-size="10.00" fill="#212529">📄 immich.nix</text>
</g>
<!-- N2&#45;&gt;N8 -->
<g id="edge10" class="edge">
<title>N2&#45;&gt;N8</title>
<path fill="none" stroke="#6c757d" d="M225.39,-3732.62C249.88,-3627.01 371.62,-3102 371.62,-3102 371.62,-3102 407.49,-3093.37 440.09,-3085.52"/>
<polygon fill="#6c757d" stroke="#6c757d" points="440.58,-3087.93 446.81,-3083.91 439.43,-3083.16 440.58,-3087.93"/>
</g>
<!-- N9 -->
<g id="node10" class="node">
<title>N9</title>
<path fill="#f8f9fa" stroke="#ced4da" d="M523.62,-3149C523.62,-3149 462.62,-3149 462.62,-3149 456.62,-3149 450.62,-3143 450.62,-3137 450.62,-3137 450.62,-3125 450.62,-3125 450.62,-3119 456.62,-3113 462.62,-3113 462.62,-3113 523.62,-3113 523.62,-3113 529.62,-3113 535.62,-3119 535.62,-3125 535.62,-3125 535.62,-3137 535.62,-3137 535.62,-3143 529.62,-3149 523.62,-3149"/>
<text text-anchor="middle" x="493.12" y="-3128.62" font-family="Helvetica,Arial,sans-serif" font-size="10.00" fill="#212529">📄 jellyfin.nix</text>
</g>
<!-- N2&#45;&gt;N9 -->
<g id="edge11" class="edge">
<title>N2&#45;&gt;N9</title>
<path fill="none" stroke="#6c757d" d="M225.79,-3732.66C251.2,-3632.91 371.62,-3160 371.62,-3160 371.62,-3160 409.24,-3150.95 442.44,-3142.96"/>
<polygon fill="#6c757d" stroke="#6c757d" points="442.61,-3145.44 448.85,-3141.42 441.47,-3140.67 442.61,-3145.44"/>
</g>
<!-- N10 -->
<g id="node11" class="node">
<title>N10</title>
<path fill="#f8f9fa" stroke="#ced4da" d="M523.62,-3207C523.62,-3207 462.62,-3207 462.62,-3207 456.62,-3207 450.62,-3201 450.62,-3195 450.62,-3195 450.62,-3183 450.62,-3183 450.62,-3177 456.62,-3171 462.62,-3171 462.62,-3171 523.62,-3171 523.62,-3171 529.62,-3171 535.62,-3177 535.62,-3183 535.62,-3183 535.62,-3195 535.62,-3195 535.62,-3201 529.62,-3207 523.62,-3207"/>
<text text-anchor="middle" x="493.12" y="-3186.62" font-family="Helvetica,Arial,sans-serif" font-size="10.00" fill="#212529">📄 komga.nix</text>
</g>
<!-- N2&#45;&gt;N10 -->
<g id="edge12" class="edge">
<title>N2&#45;&gt;N10</title>
<path fill="none" stroke="#6c757d" d="M226.31,-3732.65C252.77,-3638.93 371.62,-3218 371.62,-3218 371.62,-3218 409.24,-3208.95 442.44,-3200.96"/>
<polygon fill="#6c757d" stroke="#6c757d" points="442.61,-3203.44 448.85,-3199.42 441.47,-3198.67 442.61,-3203.44"/>
</g>
<!-- N11 -->
<g id="node12" class="node">
<title>N11</title>
<path fill="#f8f9fa" stroke="#ced4da" d="M531.12,-3265C531.12,-3265 455.12,-3265 455.12,-3265 449.12,-3265 443.12,-3259 443.12,-3253 443.12,-3253 443.12,-3241 443.12,-3241 443.12,-3235 449.12,-3229 455.12,-3229 455.12,-3229 531.12,-3229 531.12,-3229 537.12,-3229 543.12,-3235 543.12,-3241 543.12,-3241 543.12,-3253 543.12,-3253 543.12,-3259 537.12,-3265 531.12,-3265"/>
<text text-anchor="middle" x="493.12" y="-3244.62" font-family="Helvetica,Arial,sans-serif" font-size="10.00" fill="#212529">📄 onlyoffice.nix</text>
</g>
<!-- N2&#45;&gt;N11 -->
<g id="edge13" class="edge">
<title>N2&#45;&gt;N11</title>
<path fill="none" stroke="#6c757d" d="M226.93,-3732.67C254.59,-3645.38 371.62,-3276 371.62,-3276 371.62,-3276 403.53,-3268.32 434.51,-3260.87"/>
<polygon fill="#6c757d" stroke="#6c757d" points="435.06,-3263.25 441.29,-3259.23 433.91,-3258.49 435.06,-3263.25"/>
</g>
<!-- N12 -->
<g id="node13" class="node">
<title>N12</title>
<path fill="#f8f9fa" stroke="#ced4da" d="M527,-3323C527,-3323 459.25,-3323 459.25,-3323 453.25,-3323 447.25,-3317 447.25,-3311 447.25,-3311 447.25,-3299 447.25,-3299 447.25,-3293 453.25,-3287 459.25,-3287 459.25,-3287 527,-3287 527,-3287 533,-3287 539,-3293 539,-3299 539,-3299 539,-3311 539,-3311 539,-3317 533,-3323 527,-3323"/>
<text text-anchor="middle" x="493.12" y="-3302.62" font-family="Helvetica,Arial,sans-serif" font-size="10.00" fill="#212529">📄 prowlarr.nix</text>
</g>
<!-- N2&#45;&gt;N12 -->
<g id="edge14" class="edge">
<title>N2&#45;&gt;N12</title>
<path fill="none" stroke="#6c757d" d="M227.79,-3732.54C256.91,-3651.84 371.62,-3334 371.62,-3334 371.62,-3334 406.55,-3325.59 438.8,-3317.83"/>
<polygon fill="#6c757d" stroke="#6c757d" points="439.21,-3320.26 445.44,-3316.24 438.06,-3315.49 439.21,-3320.26"/>
</g>
<!-- N13 -->
<g id="node14" class="node">
<title>N13</title>
<path fill="#f8f9fa" stroke="#ced4da" d="M533,-3381C533,-3381 453.25,-3381 453.25,-3381 447.25,-3381 441.25,-3375 441.25,-3369 441.25,-3369 441.25,-3357 441.25,-3357 441.25,-3351 447.25,-3345 453.25,-3345 453.25,-3345 533,-3345 533,-3345 539,-3345 545,-3351 545,-3357 545,-3357 545,-3369 545,-3369 545,-3375 539,-3381 533,-3381"/>
<text text-anchor="middle" x="493.12" y="-3360.62" font-family="Helvetica,Arial,sans-serif" font-size="10.00" fill="#212529">📄 qbittorrent.nix</text>
</g>
<!-- N2&#45;&gt;N13 -->
<g id="edge15" class="edge">
<title>N2&#45;&gt;N13</title>
<path fill="none" stroke="#6c757d" d="M228.8,-3732.7C259.46,-3659.55 371.62,-3392 371.62,-3392 371.62,-3392 402.43,-3384.59 432.89,-3377.26"/>
<polygon fill="#6c757d" stroke="#6c757d" points="433.32,-3379.67 439.55,-3375.65 432.17,-3374.91 433.32,-3379.67"/>
</g>
<!-- N14 -->
<g id="node15" class="node">
<title>N14</title>
<path fill="#f8f9fa" stroke="#ced4da" d="M528.12,-3439C528.12,-3439 458.12,-3439 458.12,-3439 452.12,-3439 446.12,-3433 446.12,-3427 446.12,-3427 446.12,-3415 446.12,-3415 446.12,-3409 452.12,-3403 458.12,-3403 458.12,-3403 528.12,-3403 528.12,-3403 534.12,-3403 540.12,-3409 540.12,-3415 540.12,-3415 540.12,-3427 540.12,-3427 540.12,-3433 534.12,-3439 528.12,-3439"/>
<text text-anchor="middle" x="493.12" y="-3418.62" font-family="Helvetica,Arial,sans-serif" font-size="10.00" fill="#212529">📄 recyclarr.nix</text>
</g>
<!-- N2&#45;&gt;N14 -->
<g id="edge16" class="edge">
<title>N2&#45;&gt;N14</title>
<path fill="none" stroke="#6c757d" d="M230.31,-3732.62C262.99,-3667.27 371.62,-3450 371.62,-3450 371.62,-3450 405.85,-3441.76 437.82,-3434.07"/>
<polygon fill="#6c757d" stroke="#6c757d" points="438.18,-3436.5 444.41,-3432.48 437.03,-3431.74 438.18,-3436.5"/>
</g>
<!-- N15 -->
<g id="node16" class="node">
<title>N15</title>
<path fill="#f8f9fa" stroke="#ced4da" d="M517.25,-3497C517.25,-3497 469,-3497 469,-3497 463,-3497 457,-3491 457,-3485 457,-3485 457,-3473 457,-3473 457,-3467 463,-3461 469,-3461 469,-3461 517.25,-3461 517.25,-3461 523.25,-3461 529.25,-3467 529.25,-3473 529.25,-3473 529.25,-3485 529.25,-3485 529.25,-3491 523.25,-3497 517.25,-3497"/>
<text text-anchor="middle" x="493.12" y="-3476.62" font-family="Helvetica,Arial,sans-serif" font-size="10.00" fill="#212529">📄 seer.nix</text>
</g>
<!-- N2&#45;&gt;N15 -->
<g id="edge17" class="edge">
<title>N2&#45;&gt;N15</title>
<path fill="none" stroke="#6c757d" d="M232.44,-3732.74C267.44,-3676.22 371.62,-3508 371.62,-3508 371.62,-3508 414.01,-3497.8 448.5,-3489.5"/>
<polygon fill="#6c757d" stroke="#6c757d" points="448.92,-3491.92 455.15,-3487.9 447.77,-3487.15 448.92,-3491.92"/>
</g>
<!-- N16 -->
<g id="node17" class="node">
<title>N16</title>
<path fill="#f8f9fa" stroke="#ced4da" d="M522.12,-3555C522.12,-3555 464.12,-3555 464.12,-3555 458.12,-3555 452.12,-3549 452.12,-3543 452.12,-3543 452.12,-3531 452.12,-3531 452.12,-3525 458.12,-3519 464.12,-3519 464.12,-3519 522.12,-3519 522.12,-3519 528.12,-3519 534.12,-3525 534.12,-3531 534.12,-3531 534.12,-3543 534.12,-3543 534.12,-3549 528.12,-3555 522.12,-3555"/>
<text text-anchor="middle" x="493.12" y="-3534.62" font-family="Helvetica,Arial,sans-serif" font-size="10.00" fill="#212529">📄 sonarr.nix</text>
</g>
<!-- N2&#45;&gt;N16 -->
<g id="edge18" class="edge">
<title>N2&#45;&gt;N16</title>
<path fill="none" stroke="#6c757d" d="M236.11,-3732.59C274.17,-3685.79 371.62,-3566 371.62,-3566 371.62,-3566 410.22,-3556.71 443.73,-3548.65"/>
<polygon fill="#6c757d" stroke="#6c757d" points="443.96,-3551.11 450.19,-3547.09 442.81,-3546.35 443.96,-3551.11"/>
</g>
<!-- N17 -->
<g id="node18" class="node">
<title>N17</title>
<path fill="#f8f9fa" stroke="#ced4da" d="M532.25,-3613C532.25,-3613 454,-3613 454,-3613 448,-3613 442,-3607 442,-3601 442,-3601 442,-3589 442,-3589 442,-3583 448,-3577 454,-3577 454,-3577 532.25,-3577 532.25,-3577 538.25,-3577 544.25,-3583 544.25,-3589 544.25,-3589 544.25,-3601 544.25,-3601 544.25,-3607 538.25,-3613 532.25,-3613"/>
<text text-anchor="middle" x="493.12" y="-3592.62" font-family="Helvetica,Arial,sans-serif" font-size="10.00" fill="#212529">📄 suwayomi.nix</text>
</g>
<!-- N2&#45;&gt;N17 -->
<g id="edge19" class="edge">
<title>N2&#45;&gt;N17</title>
<path fill="none" stroke="#6c757d" d="M243.01,-3732.53C284.75,-3697.31 371.62,-3624 371.62,-3624 371.62,-3624 402.87,-3616.48 433.54,-3609.1"/>
<polygon fill="#6c757d" stroke="#6c757d" points="434.02,-3611.5 440.25,-3607.48 432.87,-3606.74 434.02,-3611.5"/>
</g>
<!-- N18 -->
<g id="node19" class="node">
<title>N18</title>
<path fill="#f8f9fa" stroke="#ced4da" d="M522.88,-3671C522.88,-3671 463.38,-3671 463.38,-3671 457.38,-3671 451.38,-3665 451.38,-3659 451.38,-3659 451.38,-3647 451.38,-3647 451.38,-3641 457.38,-3635 463.38,-3635 463.38,-3635 522.88,-3635 522.88,-3635 528.88,-3635 534.88,-3641 534.88,-3647 534.88,-3647 534.88,-3659 534.88,-3659 534.88,-3665 528.88,-3671 522.88,-3671"/>
<text text-anchor="middle" x="493.12" y="-3650.62" font-family="Helvetica,Arial,sans-serif" font-size="10.00" fill="#212529">📄 tranga.nix</text>
</g>
<!-- N2&#45;&gt;N18 -->
<g id="edge20" class="edge">
<title>N2&#45;&gt;N18</title>
<path fill="none" stroke="#6c757d" d="M272.1,-3732.57C321.19,-3714.81 394.92,-3688.15 443.29,-3670.66"/>
<polygon fill="#6c757d" stroke="#6c757d" points="443.94,-3673.03 449.69,-3668.34 442.28,-3668.42 443.94,-3673.03"/>
</g>
<!-- N19 -->
<g id="node20" class="node">
<title>N19</title>
<path fill="#f8f9fa" stroke="#ced4da" d="M518.38,-2761C518.38,-2761 467.88,-2761 467.88,-2761 461.88,-2761 455.88,-2755 455.88,-2749 455.88,-2749 455.88,-2737 455.88,-2737 455.88,-2731 461.88,-2725 467.88,-2725 467.88,-2725 518.38,-2725 518.38,-2725 524.38,-2725 530.38,-2731 530.38,-2737 530.38,-2737 530.38,-2749 530.38,-2749 530.38,-2755 524.38,-2761 518.38,-2761"/>
<text text-anchor="middle" x="493.12" y="-2740.62" font-family="Helvetica,Arial,sans-serif" font-size="10.00" fill="#212529">📄 alloy.nix</text>
</g>
<!-- N2&#45;&gt;N19 -->
<g id="edge21" class="edge">
<title>N2&#45;&gt;N19</title>
<path fill="none" stroke="#6c757d" d="M223.93,-3732.75C244.53,-3598.73 371.62,-2772 371.62,-2772 371.62,-2772 413.24,-2761.99 447.56,-2753.73"/>
<polygon fill="#6c757d" stroke="#6c757d" points="447.94,-2756.15 454.17,-2752.13 446.79,-2751.39 447.94,-2756.15"/>
</g>
<!-- N20 -->
<g id="node21" class="node">
<title>N20</title>
<path fill="#f8f9fa" stroke="#ced4da" d="M531.88,-2819C531.88,-2819 454.38,-2819 454.38,-2819 448.38,-2819 442.38,-2813 442.38,-2807 442.38,-2807 442.38,-2795 442.38,-2795 442.38,-2789 448.38,-2783 454.38,-2783 454.38,-2783 531.88,-2783 531.88,-2783 537.88,-2783 543.88,-2789 543.88,-2795 543.88,-2795 543.88,-2807 543.88,-2807 543.88,-2813 537.88,-2819 531.88,-2819"/>
<text text-anchor="middle" x="493.12" y="-2798.62" font-family="Helvetica,Arial,sans-serif" font-size="10.00" fill="#212529">📄 borgmatic.nix</text>
</g>
<!-- N2&#45;&gt;N20 -->
<g id="edge22" class="edge">
<title>N2&#45;&gt;N20</title>
<path fill="none" stroke="#6c757d" d="M224.2,-3732.82C245.61,-3606.19 371.62,-2861 371.62,-2861 371.62,-2861 413.42,-2840.19 447.79,-2823.08"/>
<polygon fill="#6c757d" stroke="#6c757d" points="448.46,-2825.48 453.63,-2820.17 446.27,-2821.09 448.46,-2825.48"/>
</g>
<!-- N21 -->
<g id="node22" class="node">
<title>N21</title>
<path fill="#f8f9fa" stroke="#ced4da" d="M517.62,-2297C517.62,-2297 468.62,-2297 468.62,-2297 462.62,-2297 456.62,-2291 456.62,-2285 456.62,-2285 456.62,-2273 456.62,-2273 456.62,-2267 462.62,-2261 468.62,-2261 468.62,-2261 517.62,-2261 517.62,-2261 523.62,-2261 529.62,-2267 529.62,-2273 529.62,-2273 529.62,-2285 529.62,-2285 529.62,-2291 523.62,-2297 517.62,-2297"/>
<text text-anchor="middle" x="493.12" y="-2276.62" font-family="Helvetica,Arial,sans-serif" font-size="10.00" fill="#212529">📄 diun.nix</text>
</g>
<!-- N2&#45;&gt;N21 -->
<g id="edge23" class="edge">
<title>N2&#45;&gt;N21</title>
<path fill="none" stroke="#6c757d" d="M223.03,-3732.76C240.45,-3565.71 371.62,-2308 371.62,-2308 371.62,-2308 413.75,-2297.86 448.19,-2289.57"/>
<polygon fill="#6c757d" stroke="#6c757d" points="448.59,-2292 454.83,-2287.98 447.45,-2287.23 448.59,-2292"/>
</g>
<!-- N22 -->
<g id="node23" class="node">
<title>N22</title>
<path fill="#f8f9fa" stroke="#ced4da" d="M525.88,-2355C525.88,-2355 460.38,-2355 460.38,-2355 454.38,-2355 448.38,-2349 448.38,-2343 448.38,-2343 448.38,-2331 448.38,-2331 448.38,-2325 454.38,-2319 460.38,-2319 460.38,-2319 525.88,-2319 525.88,-2319 531.88,-2319 537.88,-2325 537.88,-2331 537.88,-2331 537.88,-2343 537.88,-2343 537.88,-2349 531.88,-2355 525.88,-2355"/>
<text text-anchor="middle" x="493.12" y="-2334.62" font-family="Helvetica,Arial,sans-serif" font-size="10.00" fill="#212529">📄 grafana.nix</text>
</g>
<!-- N2&#45;&gt;N22 -->
<g id="edge24" class="edge">
<title>N2&#45;&gt;N22</title>
<path fill="none" stroke="#6c757d" d="M223.11,-3732.73C240.86,-3569.38 371.62,-2366 371.62,-2366 371.62,-2366 407.25,-2357.43 439.76,-2349.6"/>
<polygon fill="#6c757d" stroke="#6c757d" points="440.24,-2352.01 446.47,-2347.99 439.09,-2347.24 440.24,-2352.01"/>
</g>
<!-- N23 -->
<g id="node24" class="node">
<title>N23</title>
<path fill="#f8f9fa" stroke="#ced4da" d="M516.12,-2413C516.12,-2413 470.12,-2413 470.12,-2413 464.12,-2413 458.12,-2407 458.12,-2401 458.12,-2401 458.12,-2389 458.12,-2389 458.12,-2383 464.12,-2377 470.12,-2377 470.12,-2377 516.12,-2377 516.12,-2377 522.12,-2377 528.12,-2383 528.12,-2389 528.12,-2389 528.12,-2401 528.12,-2401 528.12,-2407 522.12,-2413 516.12,-2413"/>
<text text-anchor="middle" x="493.12" y="-2392.62" font-family="Helvetica,Arial,sans-serif" font-size="10.00" fill="#212529">📄 loki.nix</text>
</g>
<!-- N2&#45;&gt;N23 -->
<g id="edge25" class="edge">
<title>N2&#45;&gt;N23</title>
<path fill="none" stroke="#6c757d" d="M223.2,-3732.75C241.27,-3573.36 371.62,-2424 371.62,-2424 371.62,-2424 415.05,-2413.55 449.76,-2405.2"/>
<polygon fill="#6c757d" stroke="#6c757d" points="450.21,-2407.61 456.45,-2403.59 449.07,-2402.84 450.21,-2407.61"/>
</g>
<!-- N24 -->
<g id="node25" class="node">
<title>N24</title>
<path fill="#f8f9fa" stroke="#ced4da" d="M525.88,-2471C525.88,-2471 460.38,-2471 460.38,-2471 454.38,-2471 448.38,-2465 448.38,-2459 448.38,-2459 448.38,-2447 448.38,-2447 448.38,-2441 454.38,-2435 460.38,-2435 460.38,-2435 525.88,-2435 525.88,-2435 531.88,-2435 537.88,-2441 537.88,-2447 537.88,-2447 537.88,-2459 537.88,-2459 537.88,-2465 531.88,-2471 525.88,-2471"/>
<text text-anchor="middle" x="493.12" y="-2450.62" font-family="Helvetica,Arial,sans-serif" font-size="10.00" fill="#212529">📄 netdata.nix</text>
</g>
<!-- N2&#45;&gt;N24 -->
<g id="edge26" class="edge">
<title>N2&#45;&gt;N24</title>
<path fill="none" stroke="#6c757d" d="M223.31,-3732.57C241.82,-3576.52 371.62,-2482 371.62,-2482 371.62,-2482 407.25,-2473.43 439.76,-2465.6"/>
<polygon fill="#6c757d" stroke="#6c757d" points="440.24,-2468.01 446.47,-2463.99 439.09,-2463.24 440.24,-2468.01"/>
</g>
<!-- N25 -->
<g id="node26" class="node">
<title>N25</title>
<path fill="#f8f9fa" stroke="#ced4da" d="M542.75,-2529C542.75,-2529 443.5,-2529 443.5,-2529 437.5,-2529 431.5,-2523 431.5,-2517 431.5,-2517 431.5,-2505 431.5,-2505 431.5,-2499 437.5,-2493 443.5,-2493 443.5,-2493 542.75,-2493 542.75,-2493 548.75,-2493 554.75,-2499 554.75,-2505 554.75,-2505 554.75,-2517 554.75,-2517 554.75,-2523 548.75,-2529 542.75,-2529"/>
<text text-anchor="middle" x="493.12" y="-2508.62" font-family="Helvetica,Arial,sans-serif" font-size="10.00" fill="#212529">📄 power&#45;monitor.nix</text>
</g>
<!-- N2&#45;&gt;N25 -->
<g id="edge27" class="edge">
<title>N2&#45;&gt;N25</title>
<path fill="none" stroke="#6c757d" d="M223.37,-3732.94C242.09,-3582.3 371.62,-2540 371.62,-2540 371.62,-2540 396.19,-2534.09 423.14,-2527.6"/>
<polygon fill="#6c757d" stroke="#6c757d" points="423.47,-2530.04 429.7,-2526.02 422.32,-2525.28 423.47,-2530.04"/>
</g>
<!-- N26 -->
<g id="node27" class="node">
<title>N26</title>
<path fill="#f8f9fa" stroke="#ced4da" d="M536.38,-2587C536.38,-2587 449.88,-2587 449.88,-2587 443.88,-2587 437.88,-2581 437.88,-2575 437.88,-2575 437.88,-2563 437.88,-2563 437.88,-2557 443.88,-2551 449.88,-2551 449.88,-2551 536.38,-2551 536.38,-2551 542.38,-2551 548.38,-2557 548.38,-2563 548.38,-2563 548.38,-2575 548.38,-2575 548.38,-2581 542.38,-2587 536.38,-2587"/>
<text text-anchor="middle" x="493.12" y="-2566.62" font-family="Helvetica,Arial,sans-serif" font-size="10.00" fill="#212529">📄 prometheus.nix</text>
</g>
<!-- N2&#45;&gt;N26 -->
<g id="edge28" class="edge">
<title>N2&#45;&gt;N26</title>
<path fill="none" stroke="#6c757d" d="M223.49,-3732.89C242.64,-3586.2 371.62,-2598 371.62,-2598 371.62,-2598 400.04,-2591.16 429.27,-2584.13"/>
<polygon fill="#6c757d" stroke="#6c757d" points="429.81,-2586.52 436.04,-2582.5 428.67,-2581.75 429.81,-2586.52"/>
</g>
<!-- N27 -->
<g id="node28" class="node">
<title>N27</title>
<path fill="#f8f9fa" stroke="#ced4da" d="M525.88,-2645C525.88,-2645 460.38,-2645 460.38,-2645 454.38,-2645 448.38,-2639 448.38,-2633 448.38,-2633 448.38,-2621 448.38,-2621 448.38,-2615 454.38,-2609 460.38,-2609 460.38,-2609 525.88,-2609 525.88,-2609 531.88,-2609 537.88,-2615 537.88,-2621 537.88,-2621 537.88,-2633 537.88,-2633 537.88,-2639 531.88,-2645 525.88,-2645"/>
<text text-anchor="middle" x="493.12" y="-2624.62" font-family="Helvetica,Arial,sans-serif" font-size="10.00" fill="#212529">📄 scrutiny.nix</text>
</g>
<!-- N2&#45;&gt;N27 -->
<g id="edge29" class="edge">
<title>N2&#45;&gt;N27</title>
<path fill="none" stroke="#6c757d" d="M223.61,-3732.91C243.18,-3590.54 371.62,-2656 371.62,-2656 371.62,-2656 407.25,-2647.43 439.76,-2639.6"/>
<polygon fill="#6c757d" stroke="#6c757d" points="440.24,-2642.01 446.47,-2637.99 439.09,-2637.24 440.24,-2642.01"/>
</g>
<!-- N28 -->
<g id="node29" class="node">
<title>N28</title>
<path fill="#f8f9fa" stroke="#ced4da" d="M539.75,-2703C539.75,-2703 446.5,-2703 446.5,-2703 440.5,-2703 434.5,-2697 434.5,-2691 434.5,-2691 434.5,-2679 434.5,-2679 434.5,-2673 440.5,-2667 446.5,-2667 446.5,-2667 539.75,-2667 539.75,-2667 545.75,-2667 551.75,-2673 551.75,-2679 551.75,-2679 551.75,-2691 551.75,-2691 551.75,-2697 545.75,-2703 539.75,-2703"/>
<text text-anchor="middle" x="493.12" y="-2682.62" font-family="Helvetica,Arial,sans-serif" font-size="10.00" fill="#212529">📄 uptime&#45;kuma.nix</text>
</g>
<!-- N2&#45;&gt;N28 -->
<g id="edge30" class="edge">
<title>N2&#45;&gt;N28</title>
<path fill="none" stroke="#6c757d" d="M223.8,-3732.56C243.99,-3593.43 371.62,-2714 371.62,-2714 371.62,-2714 398.19,-2707.61 426.37,-2700.82"/>
<polygon fill="#6c757d" stroke="#6c757d" points="426.64,-2703.28 432.87,-2699.26 425.5,-2698.52 426.64,-2703.28"/>
</g>
<!-- N29 -->
<g id="node30" class="node">
<title>N29</title>
<path fill="#f8f9fa" stroke="#ced4da" d="M545.75,-1793C545.75,-1793 440.5,-1793 440.5,-1793 434.5,-1793 428.5,-1787 428.5,-1781 428.5,-1781 428.5,-1769 428.5,-1769 428.5,-1763 434.5,-1757 440.5,-1757 440.5,-1757 545.75,-1757 545.75,-1757 551.75,-1757 557.75,-1763 557.75,-1769 557.75,-1769 557.75,-1781 557.75,-1781 557.75,-1787 551.75,-1793 545.75,-1793"/>
<text text-anchor="middle" x="493.12" y="-1772.62" font-family="Helvetica,Arial,sans-serif" font-size="10.00" fill="#212529">📄 crafty&#45;controller.nix</text>
</g>
<!-- N2&#45;&gt;N29 -->
<g id="edge31" class="edge">
<title>N2&#45;&gt;N29</title>
<path fill="none" stroke="#6c757d" d="M222.54,-3732.66C237.83,-3534.89 371.62,-1804 371.62,-1804 371.62,-1804 394.47,-1798.5 420.27,-1792.29"/>
<polygon fill="#6c757d" stroke="#6c757d" points="420.64,-1794.72 426.87,-1790.7 419.5,-1789.96 420.64,-1794.72"/>
</g>
<!-- N30 -->
<g id="node31" class="node">
<title>N30</title>
<path fill="#f8f9fa" stroke="#ced4da" d="M524.38,-1851C524.38,-1851 461.88,-1851 461.88,-1851 455.88,-1851 449.88,-1845 449.88,-1839 449.88,-1839 449.88,-1827 449.88,-1827 449.88,-1821 455.88,-1815 461.88,-1815 461.88,-1815 524.38,-1815 524.38,-1815 530.38,-1815 536.38,-1821 536.38,-1827 536.38,-1827 536.38,-1839 536.38,-1839 536.38,-1845 530.38,-1851 524.38,-1851"/>
<text text-anchor="middle" x="493.12" y="-1830.62" font-family="Helvetica,Arial,sans-serif" font-size="10.00" fill="#212529">📄 forgejo.nix</text>
</g>
<!-- N2&#45;&gt;N30 -->
<g id="edge32" class="edge">
<title>N2&#45;&gt;N30</title>
<path fill="none" stroke="#6c757d" d="M222.59,-3732.61C238.11,-3537.86 371.62,-1862 371.62,-1862 371.62,-1862 408.44,-1853.14 441.38,-1845.21"/>
<polygon fill="#6c757d" stroke="#6c757d" points="441.94,-1847.6 448.17,-1843.58 440.79,-1842.83 441.94,-1847.6"/>
</g>
<!-- N31 -->
<g id="node32" class="node">
<title>N31</title>
<path fill="#f8f9fa" stroke="#ced4da" d="M526.62,-1909C526.62,-1909 459.62,-1909 459.62,-1909 453.62,-1909 447.62,-1903 447.62,-1897 447.62,-1897 447.62,-1885 447.62,-1885 447.62,-1879 453.62,-1873 459.62,-1873 459.62,-1873 526.62,-1873 526.62,-1873 532.62,-1873 538.62,-1879 538.62,-1885 538.62,-1885 538.62,-1897 538.62,-1897 538.62,-1903 532.62,-1909 526.62,-1909"/>
<text text-anchor="middle" x="493.12" y="-1888.62" font-family="Helvetica,Arial,sans-serif" font-size="10.00" fill="#212529">📄 freshrss.nix</text>
</g>
<!-- N2&#45;&gt;N31 -->
<g id="edge33" class="edge">
<title>N2&#45;&gt;N31</title>
<path fill="none" stroke="#6c757d" d="M222.64,-3732.58C238.38,-3541.03 371.62,-1920 371.62,-1920 371.62,-1920 406.78,-1911.54 439.12,-1903.76"/>
<polygon fill="#6c757d" stroke="#6c757d" points="439.55,-1906.17 445.78,-1902.15 438.4,-1901.41 439.55,-1906.17"/>
</g>
<!-- N32 -->
<g id="node33" class="node">
<title>N32</title>
<path fill="#f8f9fa" stroke="#ced4da" d="M533,-1967C533,-1967 453.25,-1967 453.25,-1967 447.25,-1967 441.25,-1961 441.25,-1955 441.25,-1955 441.25,-1943 441.25,-1943 441.25,-1937 447.25,-1931 453.25,-1931 453.25,-1931 533,-1931 533,-1931 539,-1931 545,-1937 545,-1943 545,-1943 545,-1955 545,-1955 545,-1961 539,-1967 533,-1967"/>
<text text-anchor="middle" x="493.12" y="-1946.62" font-family="Helvetica,Arial,sans-serif" font-size="10.00" fill="#212529">📄 homepage.nix</text>
</g>
<!-- N2&#45;&gt;N32 -->
<g id="edge34" class="edge">
<title>N2&#45;&gt;N32</title>
<path fill="none" stroke="#6c757d" d="M222.69,-3732.58C238.66,-3544.43 371.62,-1978 371.62,-1978 371.62,-1978 402.43,-1970.59 432.89,-1963.26"/>
<polygon fill="#6c757d" stroke="#6c757d" points="433.32,-1965.67 439.55,-1961.65 432.17,-1960.91 433.32,-1965.67"/>
</g>
<!-- N33 -->
<g id="node34" class="node">
<title>N33</title>
<path fill="#f8f9fa" stroke="#ced4da" d="M538.25,-2025C538.25,-2025 448,-2025 448,-2025 442,-2025 436,-2019 436,-2013 436,-2013 436,-2001 436,-2001 436,-1995 442,-1989 448,-1989 448,-1989 538.25,-1989 538.25,-1989 544.25,-1989 550.25,-1995 550.25,-2001 550.25,-2001 550.25,-2013 550.25,-2013 550.25,-2019 544.25,-2025 538.25,-2025"/>
<text text-anchor="middle" x="493.12" y="-2004.62" font-family="Helvetica,Arial,sans-serif" font-size="10.00" fill="#212529">📄 local&#45;finance.nix</text>
</g>
<!-- N2&#45;&gt;N33 -->
<g id="edge35" class="edge">
<title>N2&#45;&gt;N33</title>
<path fill="none" stroke="#6c757d" d="M222.74,-3732.61C238.94,-3548.04 371.62,-2036 371.62,-2036 371.62,-2036 399,-2029.41 427.66,-2022.51"/>
<polygon fill="#6c757d" stroke="#6c757d" points="428.05,-2024.94 434.28,-2020.92 426.91,-2020.18 428.05,-2024.94"/>
</g>
<!-- N34 -->
<g id="node35" class="node">
<title>N34</title>
<path fill="#f8f9fa" stroke="#ced4da" d="M516.12,-2083C516.12,-2083 470.12,-2083 470.12,-2083 464.12,-2083 458.12,-2077 458.12,-2071 458.12,-2071 458.12,-2059 458.12,-2059 458.12,-2053 464.12,-2047 470.12,-2047 470.12,-2047 516.12,-2047 516.12,-2047 522.12,-2047 528.12,-2053 528.12,-2059 528.12,-2059 528.12,-2071 528.12,-2071 528.12,-2077 522.12,-2083 516.12,-2083"/>
<text text-anchor="middle" x="493.12" y="-2062.62" font-family="Helvetica,Arial,sans-serif" font-size="10.00" fill="#212529">📄 n8n.nix</text>
</g>
<!-- N2&#45;&gt;N34 -->
<g id="edge36" class="edge">
<title>N2&#45;&gt;N34</title>
<path fill="none" stroke="#6c757d" d="M222.79,-3732.67C239.21,-3551.87 371.62,-2094 371.62,-2094 371.62,-2094 415.05,-2083.55 449.76,-2075.2"/>
<polygon fill="#6c757d" stroke="#6c757d" points="450.21,-2077.61 456.45,-2073.59 449.07,-2072.84 450.21,-2077.61"/>
</g>
<!-- N35 -->
<g id="node36" class="node">
<title>N35</title>
<path fill="#f8f9fa" stroke="#ced4da" d="M522.5,-2141C522.5,-2141 463.75,-2141 463.75,-2141 457.75,-2141 451.75,-2135 451.75,-2129 451.75,-2129 451.75,-2117 451.75,-2117 451.75,-2111 457.75,-2105 463.75,-2105 463.75,-2105 522.5,-2105 522.5,-2105 528.5,-2105 534.5,-2111 534.5,-2117 534.5,-2117 534.5,-2129 534.5,-2129 534.5,-2135 528.5,-2141 522.5,-2141"/>
<text text-anchor="middle" x="493.12" y="-2120.62" font-family="Helvetica,Arial,sans-serif" font-size="10.00" fill="#212529">📄 quartz.nix</text>
</g>
<!-- N2&#45;&gt;N35 -->
<g id="edge37" class="edge">
<title>N2&#45;&gt;N35</title>
<path fill="none" stroke="#6c757d" d="M222.84,-3732.77C239.49,-3555.91 371.62,-2152 371.62,-2152 371.62,-2152 409.98,-2142.77 443.41,-2134.72"/>
<polygon fill="#6c757d" stroke="#6c757d" points="443.63,-2137.19 449.86,-2133.17 442.48,-2132.43 443.63,-2137.19"/>
</g>
<!-- N36 -->
<g id="node37" class="node">
<title>N36</title>
<path fill="#f8f9fa" stroke="#ced4da" d="M521.75,-2199C521.75,-2199 464.5,-2199 464.5,-2199 458.5,-2199 452.5,-2193 452.5,-2187 452.5,-2187 452.5,-2175 452.5,-2175 452.5,-2169 458.5,-2163 464.5,-2163 464.5,-2163 521.75,-2163 521.75,-2163 527.75,-2163 533.75,-2169 533.75,-2175 533.75,-2175 533.75,-2187 533.75,-2187 533.75,-2193 527.75,-2199 521.75,-2199"/>
<text text-anchor="middle" x="493.12" y="-2178.62" font-family="Helvetica,Arial,sans-serif" font-size="10.00" fill="#212529">📄 romm.nix</text>
</g>
<!-- N2&#45;&gt;N36 -->
<g id="edge38" class="edge">
<title>N2&#45;&gt;N36</title>
<path fill="none" stroke="#6c757d" d="M222.95,-3732.72C240.04,-3561.25 371.62,-2241 371.62,-2241 371.62,-2241 413.42,-2220.19 447.79,-2203.08"/>
<polygon fill="#6c757d" stroke="#6c757d" points="448.46,-2205.48 453.63,-2200.17 446.27,-2201.09 448.46,-2205.48"/>
</g>
<!-- N37 -->
<g id="node38" class="node">
<title>N37</title>
<path fill="#f8f9fa" stroke="#ced4da" d="M552.12,-1503C552.12,-1503 434.12,-1503 434.12,-1503 428.12,-1503 422.12,-1497 422.12,-1491 422.12,-1491 422.12,-1479 422.12,-1479 422.12,-1473 428.12,-1467 434.12,-1467 434.12,-1467 552.12,-1467 552.12,-1467 558.12,-1467 564.12,-1473 564.12,-1479 564.12,-1479 564.12,-1491 564.12,-1491 564.12,-1497 558.12,-1503 552.12,-1503"/>
<text text-anchor="middle" x="493.12" y="-1482.62" font-family="Helvetica,Arial,sans-serif" font-size="10.00" fill="#212529">📄 security&#45;watchdog.nix</text>
</g>
<!-- N2&#45;&gt;N37 -->
<g id="edge39" class="edge">
<title>N2&#45;&gt;N37</title>
<path fill="none" stroke="#6c757d" d="M222.36,-3732.66C236.72,-3519.22 371.62,-1514 371.62,-1514 371.62,-1514 390.58,-1509.44 413.45,-1503.93"/>
<polygon fill="#6c757d" stroke="#6c757d" points="413.98,-1506.33 420.21,-1502.31 412.83,-1501.56 413.98,-1506.33"/>
</g>
<!-- N38 -->
<g id="node39" class="node">
<title>N38</title>
<path fill="#f8f9fa" stroke="#ced4da" d="M533.38,-1561C533.38,-1561 452.88,-1561 452.88,-1561 446.88,-1561 440.88,-1555 440.88,-1549 440.88,-1549 440.88,-1537 440.88,-1537 440.88,-1531 446.88,-1525 452.88,-1525 452.88,-1525 533.38,-1525 533.38,-1525 539.38,-1525 545.38,-1531 545.38,-1537 545.38,-1537 545.38,-1549 545.38,-1549 545.38,-1555 539.38,-1561 533.38,-1561"/>
<text text-anchor="middle" x="493.12" y="-1540.62" font-family="Helvetica,Arial,sans-serif" font-size="10.00" fill="#212529">📄 stirling&#45;pdf.nix</text>
</g>
<!-- N2&#45;&gt;N38 -->
<g id="edge40" class="edge">
<title>N2&#45;&gt;N38</title>
<path fill="none" stroke="#6c757d" d="M222.38,-3732.82C236.86,-3523.21 371.62,-1572 371.62,-1572 371.62,-1572 402.21,-1564.64 432.56,-1557.33"/>
<polygon fill="#6c757d" stroke="#6c757d" points="432.97,-1559.76 439.2,-1555.74 431.82,-1554.99 432.97,-1559.76"/>
</g>
<!-- N39 -->
<g id="node40" class="node">
<title>N39</title>
<path fill="#f8f9fa" stroke="#ced4da" d="M516.88,-1619C516.88,-1619 469.38,-1619 469.38,-1619 463.38,-1619 457.38,-1613 457.38,-1607 457.38,-1607 457.38,-1595 457.38,-1595 457.38,-1589 463.38,-1583 469.38,-1583 469.38,-1583 516.88,-1583 516.88,-1583 522.88,-1583 528.88,-1589 528.88,-1595 528.88,-1595 528.88,-1607 528.88,-1607 528.88,-1613 522.88,-1619 516.88,-1619"/>
<text text-anchor="middle" x="493.12" y="-1598.62" font-family="Helvetica,Arial,sans-serif" font-size="10.00" fill="#212529">📄 vert.nix</text>
</g>
<!-- N2&#45;&gt;N39 -->
<g id="edge41" class="edge">
<title>N2&#45;&gt;N39</title>
<path fill="none" stroke="#6c757d" d="M222.43,-3732.66C237.14,-3525.36 371.62,-1630 371.62,-1630 371.62,-1630 414.27,-1619.74 448.82,-1611.42"/>
<polygon fill="#6c757d" stroke="#6c757d" points="449.24,-1613.84 455.48,-1609.82 448.1,-1609.08 449.24,-1613.84"/>
</g>
<!-- N40 -->
<g id="node41" class="node">
<title>N40</title>
<path fill="#f8f9fa" stroke="#ced4da" d="M524.75,-1677C524.75,-1677 461.5,-1677 461.5,-1677 455.5,-1677 449.5,-1671 449.5,-1665 449.5,-1665 449.5,-1653 449.5,-1653 449.5,-1647 455.5,-1641 461.5,-1641 461.5,-1641 524.75,-1641 524.75,-1641 530.75,-1641 536.75,-1647 536.75,-1653 536.75,-1653 536.75,-1665 536.75,-1665 536.75,-1671 530.75,-1677 524.75,-1677"/>
<text text-anchor="middle" x="493.12" y="-1656.62" font-family="Helvetica,Arial,sans-serif" font-size="10.00" fill="#212529">📄 vikunja.nix</text>
</g>
<!-- N2&#45;&gt;N40 -->
<g id="edge42" class="edge">
<title>N2&#45;&gt;N40</title>
<path fill="none" stroke="#6c757d" d="M222.47,-3732.54C237.41,-3527.72 371.62,-1688 371.62,-1688 371.62,-1688 408.2,-1679.2 441.05,-1671.29"/>
<polygon fill="#6c757d" stroke="#6c757d" points="441.6,-1673.68 447.83,-1669.66 440.45,-1668.92 441.6,-1673.68"/>
</g>
<!-- N41 -->
<g id="node42" class="node">
<title>N41</title>
<path fill="#f8f9fa" stroke="#ced4da" d="M529.62,-1735C529.62,-1735 456.62,-1735 456.62,-1735 450.62,-1735 444.62,-1729 444.62,-1723 444.62,-1723 444.62,-1711 444.62,-1711 444.62,-1705 450.62,-1699 456.62,-1699 456.62,-1699 529.62,-1699 529.62,-1699 535.62,-1699 541.62,-1705 541.62,-1711 541.62,-1711 541.62,-1723 541.62,-1723 541.62,-1729 535.62,-1735 529.62,-1735"/>
<text text-anchor="middle" x="493.12" y="-1714.62" font-family="Helvetica,Arial,sans-serif" font-size="10.00" fill="#212529">📄 wanderer.nix</text>
</g>
<!-- N2&#45;&gt;N41 -->
<g id="edge43" class="edge">
<title>N2&#45;&gt;N41</title>
<path fill="none" stroke="#6c757d" d="M222.5,-3732.74C237.55,-3532.15 371.62,-1746 371.62,-1746 371.62,-1746 404.71,-1738.04 436.2,-1730.46"/>
<polygon fill="#6c757d" stroke="#6c757d" points="436.45,-1732.92 442.68,-1728.9 435.3,-1728.16 436.45,-1732.92"/>
</g>
<!-- N42 -->
<g id="node43" class="node">
<title>N42</title>
<path fill="#f8f9fa" stroke="#ced4da" d="M530.38,-1231C530.38,-1231 455.88,-1231 455.88,-1231 449.88,-1231 443.88,-1225 443.88,-1219 443.88,-1219 443.88,-1207 443.88,-1207 443.88,-1201 449.88,-1195 455.88,-1195 455.88,-1195 530.38,-1195 530.38,-1195 536.38,-1195 542.38,-1201 542.38,-1207 542.38,-1207 542.38,-1219 542.38,-1219 542.38,-1225 536.38,-1231 530.38,-1231"/>
<text text-anchor="middle" x="493.12" y="-1210.62" font-family="Helvetica,Arial,sans-serif" font-size="10.00" fill="#212529">📄 authentik.nix</text>
</g>
<!-- N2&#45;&gt;N42 -->
<g id="edge44" class="edge">
<title>N2&#45;&gt;N42</title>
<path fill="none" stroke="#6c757d" d="M222.23,-3732.6C235.88,-3504.98 371.62,-1242 371.62,-1242 371.62,-1242 404.25,-1234.15 435.55,-1226.62"/>
<polygon fill="#6c757d" stroke="#6c757d" points="435.76,-1229.09 441.99,-1225.07 434.61,-1224.32 435.76,-1229.09"/>
</g>
<!-- N43 -->
<g id="node44" class="node">
<title>N43</title>
<path fill="#f8f9fa" stroke="#ced4da" d="M521,-1289C521,-1289 465.25,-1289 465.25,-1289 459.25,-1289 453.25,-1283 453.25,-1277 453.25,-1277 453.25,-1265 453.25,-1265 453.25,-1259 459.25,-1253 465.25,-1253 465.25,-1253 521,-1253 521,-1253 527,-1253 533,-1259 533,-1265 533,-1265 533,-1277 533,-1277 533,-1283 527,-1289 521,-1289"/>
<text text-anchor="middle" x="493.12" y="-1268.62" font-family="Helvetica,Arial,sans-serif" font-size="10.00" fill="#212529">📄 caddy.nix</text>
</g>
<!-- N2&#45;&gt;N43 -->
<g id="edge45" class="edge">
<title>N2&#45;&gt;N43</title>
<path fill="none" stroke="#6c757d" d="M222.25,-3732.68C236.02,-3508.39 371.62,-1300 371.62,-1300 371.62,-1300 411.21,-1290.47 445.01,-1282.34"/>
<polygon fill="#6c757d" stroke="#6c757d" points="445.3,-1284.79 451.53,-1280.77 444.15,-1280.03 445.3,-1284.79"/>
</g>
<!-- N44 -->
<g id="node45" class="node">
<title>N44</title>
<path fill="#f8f9fa" stroke="#ced4da" d="M534.12,-1347C534.12,-1347 452.12,-1347 452.12,-1347 446.12,-1347 440.12,-1341 440.12,-1335 440.12,-1335 440.12,-1323 440.12,-1323 440.12,-1317 446.12,-1311 452.12,-1311 452.12,-1311 534.12,-1311 534.12,-1311 540.12,-1311 546.12,-1317 546.12,-1323 546.12,-1323 546.12,-1335 546.12,-1335 546.12,-1341 540.12,-1347 534.12,-1347"/>
<text text-anchor="middle" x="493.12" y="-1326.62" font-family="Helvetica,Arial,sans-serif" font-size="10.00" fill="#212529">📄 cloudflared.nix</text>
</g>
<!-- N2&#45;&gt;N44 -->
<g id="edge46" class="edge">
<title>N2&#45;&gt;N44</title>
<path fill="none" stroke="#6c757d" d="M222.27,-3732.77C236.16,-3511.91 371.62,-1358 371.62,-1358 371.62,-1358 401.78,-1350.74 431.91,-1343.49"/>
<polygon fill="#6c757d" stroke="#6c757d" points="432.27,-1345.93 438.5,-1341.91 431.12,-1341.16 432.27,-1345.93"/>
</g>
<!-- N45 -->
<g id="node46" class="node">
<title>N45</title>
<path fill="#f8f9fa" stroke="#ced4da" d="M555.88,-1405C555.88,-1405 430.38,-1405 430.38,-1405 424.38,-1405 418.38,-1399 418.38,-1393 418.38,-1393 418.38,-1381 418.38,-1381 418.38,-1375 424.38,-1369 430.38,-1369 430.38,-1369 555.88,-1369 555.88,-1369 561.88,-1369 567.88,-1375 567.88,-1381 567.88,-1381 567.88,-1393 567.88,-1393 567.88,-1399 561.88,-1405 555.88,-1405"/>
<text text-anchor="middle" x="493.12" y="-1384.62" font-family="Helvetica,Arial,sans-serif" font-size="10.00" fill="#212529">📄 docker&#45;socket&#45;proxy.nix</text>
</g>
<!-- N2&#45;&gt;N45 -->
<g id="edge47" class="edge">
<title>N2&#45;&gt;N45</title>
<path fill="none" stroke="#6c757d" d="M222.31,-3732.79C236.44,-3516.54 371.62,-1447 371.62,-1447 371.62,-1447 413.42,-1426.19 447.79,-1409.08"/>
<polygon fill="#6c757d" stroke="#6c757d" points="448.46,-1411.48 453.63,-1406.17 446.27,-1407.09 448.46,-1411.48"/>
</g>
<!-- N46 -->
<g id="node47" class="node">
<title>N46</title>
<path fill="#f8f9fa" stroke="#ced4da" d="M525.5,-1115C525.5,-1115 460.75,-1115 460.75,-1115 454.75,-1115 448.75,-1109 448.75,-1103 448.75,-1103 448.75,-1091 448.75,-1091 448.75,-1085 454.75,-1079 460.75,-1079 460.75,-1079 525.5,-1079 525.5,-1079 531.5,-1079 537.5,-1085 537.5,-1091 537.5,-1091 537.5,-1103 537.5,-1103 537.5,-1109 531.5,-1115 525.5,-1115"/>
<text text-anchor="middle" x="493.12" y="-1094.62" font-family="Helvetica,Arial,sans-serif" font-size="10.00" fill="#212529">📄 gluetun.nix</text>
</g>
<!-- N2&#45;&gt;N46 -->
<g id="edge48" class="edge">
<title>N2&#45;&gt;N46</title>
<path fill="none" stroke="#6c757d" d="M222.17,-3732.84C235.46,-3500.91 371.62,-1126 371.62,-1126 371.62,-1126 407.49,-1117.37 440.09,-1109.52"/>
<polygon fill="#6c757d" stroke="#6c757d" points="440.58,-1111.93 446.81,-1107.91 439.43,-1107.16 440.58,-1111.93"/>
</g>
<!-- N47 -->
<g id="node48" class="node">
<title>N47</title>
<path fill="#f8f9fa" stroke="#ced4da" d="M519.12,-1173C519.12,-1173 467.12,-1173 467.12,-1173 461.12,-1173 455.12,-1167 455.12,-1161 455.12,-1161 455.12,-1149 455.12,-1149 455.12,-1143 461.12,-1137 467.12,-1137 467.12,-1137 519.12,-1137 519.12,-1137 525.12,-1137 531.12,-1143 531.12,-1149 531.12,-1149 531.12,-1161 531.12,-1161 531.12,-1167 525.12,-1173 519.12,-1173"/>
<text text-anchor="middle" x="493.12" y="-1152.62" font-family="Helvetica,Arial,sans-serif" font-size="10.00" fill="#212529">📄 lldap.nix</text>
</g>
<!-- N2&#45;&gt;N47 -->
<g id="edge49" class="edge">
<title>N2&#45;&gt;N47</title>
<path fill="none" stroke="#6c757d" d="M222.21,-3732.53C235.74,-3501.67 371.62,-1184 371.62,-1184 371.62,-1184 412.47,-1174.17 446.6,-1165.96"/>
<polygon fill="#6c757d" stroke="#6c757d" points="446.95,-1168.39 453.19,-1164.37 445.81,-1163.63 446.95,-1168.39"/>
</g>
<!-- N52 -->
<g id="node53" class="node">
<title>N52</title>
<path fill="#f8f9fa" stroke="#ced4da" d="M524.38,-607C524.38,-607 461.88,-607 461.88,-607 455.88,-607 449.88,-601 449.88,-595 449.88,-595 449.88,-583 449.88,-583 449.88,-577 455.88,-571 461.88,-571 461.88,-571 524.38,-571 524.38,-571 530.38,-571 536.38,-577 536.38,-583 536.38,-583 536.38,-595 536.38,-595 536.38,-601 530.38,-607 524.38,-607"/>
<text text-anchor="middle" x="493.12" y="-586.62" font-family="Helvetica,Arial,sans-serif" font-size="10.00" fill="#212529">📄 default.nix</text>
</g>
<!-- N2&#45;&gt;N52 -->
<g id="edge50" class="edge">
<title>N2&#45;&gt;N52</title>
<path fill="none" stroke="#6c757d" d="M222.01,-3732.78C234.34,-3478.56 371.62,-649 371.62,-649 371.62,-649 413.42,-628.19 447.79,-611.08"/>
<polygon fill="#6c757d" stroke="#6c757d" points="448.46,-613.48 453.63,-608.17 446.27,-609.09 448.46,-613.48"/>
</g>
<!-- N57 -->
<g id="node58" class="node">
<title>N57</title>
<path fill="#f8f9fa" stroke="#ced4da" d="M518.75,-861C518.75,-861 467.5,-861 467.5,-861 461.5,-861 455.5,-855 455.5,-849 455.5,-849 455.5,-837 455.5,-837 455.5,-831 461.5,-825 467.5,-825 467.5,-825 518.75,-825 518.75,-825 524.75,-825 530.75,-831 530.75,-837 530.75,-837 530.75,-849 530.75,-849 530.75,-855 524.75,-861 518.75,-861"/>
<text text-anchor="middle" x="493.12" y="-840.62" font-family="Helvetica,Arial,sans-serif" font-size="10.00" fill="#212529">📄 base.nix</text>
</g>
<!-- N2&#45;&gt;N57 -->
<g id="edge51" class="edge">
<title>N2&#45;&gt;N57</title>
<path fill="none" stroke="#6c757d" d="M222.09,-3732.62C234.9,-3487.42 371.62,-872 371.62,-872 371.62,-872 412.98,-862.05 447.24,-853.8"/>
<polygon fill="#6c757d" stroke="#6c757d" points="447.61,-856.23 453.84,-852.21 446.47,-851.47 447.61,-856.23"/>
</g>
<!-- N58 -->
<g id="node59" class="node">
<title>N58</title>
<path fill="#f8f9fa" stroke="#ced4da" d="M522.12,-919C522.12,-919 464.12,-919 464.12,-919 458.12,-919 452.12,-913 452.12,-907 452.12,-907 452.12,-895 452.12,-895 452.12,-889 458.12,-883 464.12,-883 464.12,-883 522.12,-883 522.12,-883 528.12,-883 534.12,-889 534.12,-895 534.12,-895 534.12,-907 534.12,-907 534.12,-913 528.12,-919 522.12,-919"/>
<text text-anchor="middle" x="493.12" y="-898.62" font-family="Helvetica,Arial,sans-serif" font-size="10.00" fill="#212529">📄 server.nix</text>
</g>
<!-- N2&#45;&gt;N58 -->
<g id="edge52" class="edge">
<title>N2&#45;&gt;N58</title>
<path fill="none" stroke="#6c757d" d="M222.11,-3732.82C235.04,-3492.97 371.62,-961 371.62,-961 371.62,-961 413.42,-940.19 447.79,-923.08"/>
<polygon fill="#6c757d" stroke="#6c757d" points="448.46,-925.48 453.63,-920.17 446.27,-921.09 448.46,-925.48"/>
</g>
<!-- N60 -->
<g id="node61" class="node">
<title>N60</title>
<path fill="#f8f9fa" stroke="#ced4da" d="M524.38,-705C524.38,-705 461.88,-705 461.88,-705 455.88,-705 449.88,-699 449.88,-693 449.88,-693 449.88,-681 449.88,-681 449.88,-675 455.88,-669 461.88,-669 461.88,-669 524.38,-669 524.38,-669 530.38,-669 536.38,-675 536.38,-681 536.38,-681 536.38,-693 536.38,-693 536.38,-699 530.38,-705 524.38,-705"/>
<text text-anchor="middle" x="493.12" y="-684.62" font-family="Helvetica,Arial,sans-serif" font-size="10.00" fill="#212529">📄 default.nix</text>
</g>
<!-- N2&#45;&gt;N60 -->
<g id="edge53" class="edge">
<title>N2&#45;&gt;N60</title>
<path fill="none" stroke="#6c757d" d="M222.05,-3732.6C234.62,-3481.57 371.62,-747 371.62,-747 371.62,-747 413.42,-726.19 447.79,-709.08"/>
<polygon fill="#6c757d" stroke="#6c757d" points="448.46,-711.48 453.63,-706.17 446.27,-707.09 448.46,-711.48"/>
</g>
<!-- N61 -->
<g id="node62" class="node">
<title>N61</title>
<path fill="#f8f9fa" stroke="#ced4da" d="M524.38,-1017C524.38,-1017 461.88,-1017 461.88,-1017 455.88,-1017 449.88,-1011 449.88,-1005 449.88,-1005 449.88,-993 449.88,-993 449.88,-987 455.88,-981 461.88,-981 461.88,-981 524.38,-981 524.38,-981 530.38,-981 536.38,-987 536.38,-993 536.38,-993 536.38,-1005 536.38,-1005 536.38,-1011 530.38,-1017 524.38,-1017"/>
<text text-anchor="middle" x="493.12" y="-996.62" font-family="Helvetica,Arial,sans-serif" font-size="10.00" fill="#212529">📄 default.nix</text>
</g>
<!-- N2&#45;&gt;N61 -->
<g id="edge54" class="edge">
<title>N2&#45;&gt;N61</title>
<path fill="none" stroke="#6c757d" d="M222.15,-3732.74C235.32,-3497.03 371.62,-1059 371.62,-1059 371.62,-1059 413.42,-1038.19 447.79,-1021.08"/>
<polygon fill="#6c757d" stroke="#6c757d" points="448.46,-1023.48 453.63,-1018.17 446.27,-1019.09 448.46,-1023.48"/>
</g>
<!-- N49 -->
<g id="node50" class="node">
<title>N49</title>
<path fill="#f8f9fa" stroke="#ced4da" d="M563.75,-353C563.75,-353 422.5,-353 422.5,-353 416.5,-353 410.5,-347 410.5,-341 410.5,-341 410.5,-329 410.5,-329 410.5,-323 416.5,-317 422.5,-317 422.5,-317 563.75,-317 563.75,-317 569.75,-317 575.75,-323 575.75,-329 575.75,-329 575.75,-341 575.75,-341 575.75,-347 569.75,-353 563.75,-353"/>
<text text-anchor="middle" x="493.12" y="-332.62" font-family="Helvetica,Arial,sans-serif" font-size="10.00" fill="#212529">📄 hardware&#45;configuration.nix</text>
</g>
<!-- N48&#45;&gt;N49 -->
<g id="edge55" class="edge">
<title>N48&#45;&gt;N49</title>
<path fill="none" stroke="#6c757d" d="M278.27,-335C314.08,-335 361.02,-335 401.79,-335"/>
<polygon fill="#6c757d" stroke="#6c757d" points="401.61,-337.45 408.61,-335 401.61,-332.55 401.61,-337.45"/>
</g>
<!-- N48&#45;&gt;N52 -->
<g id="edge56" class="edge">
<title>N48&#45;&gt;N52</title>
<path fill="none" stroke="#6c757d" d="M233.7,-353.21C269.87,-405.61 371.62,-553 371.62,-553 371.62,-553 408.76,-564.09 441.8,-573.96"/>
<polygon fill="#6c757d" stroke="#6c757d" points="440.78,-576.22 448.19,-575.87 442.19,-571.52 440.78,-576.22"/>
</g>
<!-- N53 -->
<g id="node54" class="node">
<title>N53</title>
<path fill="#f8f9fa" stroke="#ced4da" d="M524.38,-451C524.38,-451 461.88,-451 461.88,-451 455.88,-451 449.88,-445 449.88,-439 449.88,-439 449.88,-427 449.88,-427 449.88,-421 455.88,-415 461.88,-415 461.88,-415 524.38,-415 524.38,-415 530.38,-415 536.38,-421 536.38,-427 536.38,-427 536.38,-439 536.38,-439 536.38,-445 530.38,-451 524.38,-451"/>
<text text-anchor="middle" x="493.12" y="-430.62" font-family="Helvetica,Arial,sans-serif" font-size="10.00" fill="#212529">📄 default.nix</text>
</g>
<!-- N48&#45;&gt;N53 -->
<g id="edge57" class="edge">
<title>N48&#45;&gt;N53</title>
<path fill="none" stroke="#6c757d" d="M265.87,-353.43C310.24,-371.71 371.62,-397 371.62,-397 371.62,-397 408.76,-408.09 441.8,-417.96"/>
<polygon fill="#6c757d" stroke="#6c757d" points="440.78,-420.22 448.19,-419.87 442.19,-415.52 440.78,-420.22"/>
</g>
<!-- N54 -->
<g id="node55" class="node">
<title>N54</title>
<path fill="#f8f9fa" stroke="#ced4da" d="M530.38,-509C530.38,-509 455.88,-509 455.88,-509 449.88,-509 443.88,-503 443.88,-497 443.88,-497 443.88,-485 443.88,-485 443.88,-479 449.88,-473 455.88,-473 455.88,-473 530.38,-473 530.38,-473 536.38,-473 542.38,-479 542.38,-485 542.38,-485 542.38,-497 542.38,-497 542.38,-503 536.38,-509 530.38,-509"/>
<text text-anchor="middle" x="493.12" y="-488.62" font-family="Helvetica,Arial,sans-serif" font-size="10.00" fill="#212529">📄 minecraft.nix</text>
</g>
<!-- N48&#45;&gt;N54 -->
<g id="edge58" class="edge">
<title>N48&#45;&gt;N54</title>
<path fill="none" stroke="#6c757d" d="M243.01,-353.47C284.75,-388.69 371.62,-462 371.62,-462 371.62,-462 404.25,-469.85 435.55,-477.38"/>
<polygon fill="#6c757d" stroke="#6c757d" points="434.61,-479.68 441.99,-478.93 435.76,-474.91 434.61,-479.68"/>
</g>
<!-- N55 -->
<g id="node56" class="node">
<title>N55</title>
<path fill="#f8f9fa" stroke="#ced4da" d="M524.38,-157C524.38,-157 461.88,-157 461.88,-157 455.88,-157 449.88,-151 449.88,-145 449.88,-145 449.88,-133 449.88,-133 449.88,-127 455.88,-121 461.88,-121 461.88,-121 524.38,-121 524.38,-121 530.38,-121 536.38,-127 536.38,-133 536.38,-133 536.38,-145 536.38,-145 536.38,-151 530.38,-157 524.38,-157"/>
<text text-anchor="middle" x="493.12" y="-136.62" font-family="Helvetica,Arial,sans-serif" font-size="10.00" fill="#212529">📄 default.nix</text>
</g>
<!-- N48&#45;&gt;N55 -->
<g id="edge59" class="edge">
<title>N48&#45;&gt;N55</title>
<path fill="none" stroke="#6c757d" d="M241.42,-316.66C282.5,-279.54 371.62,-199 371.62,-199 371.62,-199 413.42,-178.19 447.79,-161.08"/>
<polygon fill="#6c757d" stroke="#6c757d" points="448.46,-163.48 453.63,-158.17 446.27,-159.09 448.46,-163.48"/>
</g>
<!-- N48&#45;&gt;N57 -->
<g id="edge60" class="edge">
<title>N48&#45;&gt;N57</title>
<path fill="none" stroke="#6c757d" d="M226.93,-353.48C254.59,-441.51 371.62,-814 371.62,-814 371.62,-814 412.98,-823.95 447.24,-832.2"/>
<polygon fill="#6c757d" stroke="#6c757d" points="446.47,-834.53 453.84,-833.79 447.61,-829.77 446.47,-834.53"/>
</g>
<!-- N59 -->
<g id="node60" class="node">
<title>N59</title>
<path fill="#f8f9fa" stroke="#ced4da" d="M521.75,-803C521.75,-803 464.5,-803 464.5,-803 458.5,-803 452.5,-797 452.5,-791 452.5,-791 452.5,-779 452.5,-779 452.5,-773 458.5,-767 464.5,-767 464.5,-767 521.75,-767 521.75,-767 527.75,-767 533.75,-773 533.75,-779 533.75,-779 533.75,-791 533.75,-791 533.75,-797 527.75,-803 521.75,-803"/>
<text text-anchor="middle" x="493.12" y="-782.62" font-family="Helvetica,Arial,sans-serif" font-size="10.00" fill="#212529">📄 sound.nix</text>
</g>
<!-- N48&#45;&gt;N59 -->
<g id="edge61" class="edge">
<title>N48&#45;&gt;N59</title>
<path fill="none" stroke="#6c757d" d="M227.79,-353.32C256.91,-433.44 371.62,-749 371.62,-749 371.62,-749 410.47,-760.6 444.05,-770.64"/>
<polygon fill="#6c757d" stroke="#6c757d" points="443.14,-772.92 450.55,-772.58 444.54,-768.23 443.14,-772.92"/>
</g>
<!-- N48&#45;&gt;N60 -->
<g id="edge62" class="edge">
<title>N48&#45;&gt;N60</title>
<path fill="none" stroke="#6c757d" d="M229.87,-353.36C261.99,-420.8 371.62,-651 371.62,-651 371.62,-651 408.76,-662.09 441.8,-671.96"/>
<polygon fill="#6c757d" stroke="#6c757d" points="440.78,-674.22 448.19,-673.87 442.19,-669.52 440.78,-674.22"/>
</g>
<!-- N63 -->
<g id="node64" class="node">
<title>N63</title>
<path fill="#f8f9fa" stroke="#ced4da" d="M524.38,-255C524.38,-255 461.88,-255 461.88,-255 455.88,-255 449.88,-249 449.88,-243 449.88,-243 449.88,-231 449.88,-231 449.88,-225 455.88,-219 461.88,-219 461.88,-219 524.38,-219 524.38,-219 530.38,-219 536.38,-225 536.38,-231 536.38,-231 536.38,-243 536.38,-243 536.38,-249 530.38,-255 524.38,-255"/>
<text text-anchor="middle" x="493.12" y="-234.62" font-family="Helvetica,Arial,sans-serif" font-size="10.00" fill="#212529">📄 default.nix</text>
</g>
<!-- N48&#45;&gt;N63 -->
<g id="edge63" class="edge">
<title>N48&#45;&gt;N63</title>
<path fill="none" stroke="#6c757d" d="M272.1,-316.57C320.61,-299.02 393.18,-272.78 441.56,-255.29"/>
<polygon fill="#6c757d" stroke="#6c757d" points="442.23,-257.65 447.98,-252.96 440.56,-253.04 442.23,-257.65"/>
</g>
<!-- N51 -->
<g id="node52" class="node">
<title>N51</title>
<path fill="#f8f9fa" stroke="#ced4da" d="M563.75,-59C563.75,-59 422.5,-59 422.5,-59 416.5,-59 410.5,-53 410.5,-47 410.5,-47 410.5,-35 410.5,-35 410.5,-29 416.5,-23 422.5,-23 422.5,-23 563.75,-23 563.75,-23 569.75,-23 575.75,-29 575.75,-35 575.75,-35 575.75,-47 575.75,-47 575.75,-53 569.75,-59 563.75,-59"/>
<text text-anchor="middle" x="493.12" y="-38.62" font-family="Helvetica,Arial,sans-serif" font-size="10.00" fill="#212529">📄 hardware&#45;configuration.nix</text>
</g>
<!-- N50&#45;&gt;N51 -->
<g id="edge64" class="edge">
<title>N50&#45;&gt;N51</title>
<path fill="none" stroke="#6c757d" d="M278.27,-41C314.08,-41 361.02,-41 401.79,-41"/>
<polygon fill="#6c757d" stroke="#6c757d" points="401.61,-43.45 408.61,-41 401.61,-38.55 401.61,-43.45"/>
</g>
<!-- N50&#45;&gt;N52 -->
<g id="edge65" class="edge">
<title>N50&#45;&gt;N52</title>
<path fill="none" stroke="#6c757d" d="M226.48,-59.22C253.29,-150.43 371.62,-553 371.62,-553 371.62,-553 408.76,-564.09 441.8,-573.96"/>
<polygon fill="#6c757d" stroke="#6c757d" points="440.78,-576.22 448.19,-575.87 442.19,-571.52 440.78,-576.22"/>
</g>
<!-- N50&#45;&gt;N55 -->
<g id="edge66" class="edge">
<title>N50&#45;&gt;N55</title>
<path fill="none" stroke="#6c757d" d="M265.87,-59.43C310.24,-77.71 371.62,-103 371.62,-103 371.62,-103 408.76,-114.09 441.8,-123.96"/>
<polygon fill="#6c757d" stroke="#6c757d" points="440.78,-126.22 448.19,-125.87 442.19,-121.52 440.78,-126.22"/>
</g>
<!-- N50&#45;&gt;N57 -->
<g id="edge67" class="edge">
<title>N50&#45;&gt;N57</title>
<path fill="none" stroke="#6c757d" d="M226.44,-59.41C243.38,-118.11 295,-297 295,-297 295,-297 371.62,-814 371.62,-814 371.62,-814 412.98,-823.95 447.24,-832.2"/>
<polygon fill="#6c757d" stroke="#6c757d" points="446.47,-834.53 453.84,-833.79 447.61,-829.77 446.47,-834.53"/>
</g>
<!-- N50&#45;&gt;N59 -->
<g id="edge68" class="edge">
<title>N50&#45;&gt;N59</title>
<path fill="none" stroke="#6c757d" d="M226.44,-59.41C243.38,-118.11 295,-297 295,-297 295,-297 371.62,-749 371.62,-749 371.62,-749 410.47,-760.6 444.05,-770.64"/>
<polygon fill="#6c757d" stroke="#6c757d" points="443.14,-772.92 450.55,-772.58 444.54,-768.23 443.14,-772.92"/>
</g>
<!-- N50&#45;&gt;N60 -->
<g id="edge69" class="edge">
<title>N50&#45;&gt;N60</title>
<path fill="none" stroke="#6c757d" d="M226.44,-59.41C243.38,-118.11 295,-297 295,-297 295,-297 371.62,-651 371.62,-651 371.62,-651 408.76,-662.09 441.8,-671.96"/>
<polygon fill="#6c757d" stroke="#6c757d" points="440.78,-674.22 448.19,-673.87 442.19,-669.52 440.78,-674.22"/>
</g>
<!-- N50&#45;&gt;N63 -->
<g id="edge70" class="edge">
<title>N50&#45;&gt;N63</title>
<path fill="none" stroke="#6c757d" d="M238.39,-59.35C277.92,-101.38 371.62,-201 371.62,-201 371.62,-201 408.76,-212.09 441.8,-221.96"/>
<polygon fill="#6c757d" stroke="#6c757d" points="440.78,-224.22 448.19,-223.87 442.19,-219.52 440.78,-224.22"/>
</g>
<!-- N56 -->
<g id="node57" class="node">
<title>N56</title>
<path fill="#f8f9fa" stroke="#ced4da" d="M806.88,-861C806.88,-861 698.62,-861 698.62,-861 692.62,-861 686.62,-855 686.62,-849 686.62,-849 686.62,-837 686.62,-837 686.62,-831 692.62,-825 698.62,-825 698.62,-825 806.88,-825 806.88,-825 812.88,-825 818.88,-831 818.88,-837 818.88,-837 818.88,-849 818.88,-849 818.88,-855 812.88,-861 806.88,-861"/>
<text text-anchor="middle" x="752.75" y="-840.62" font-family="Helvetica,Arial,sans-serif" font-size="10.00" fill="#212529">📄 architecture&#45;dag.nix</text>
</g>
<!-- N57&#45;&gt;N56 -->
<g id="edge71" class="edge">
<title>N57&#45;&gt;N56</title>
<path fill="none" stroke="#6c757d" d="M531.04,-843C569.16,-843 629.71,-843 677.75,-843"/>
<polygon fill="#6c757d" stroke="#6c757d" points="677.75,-845.45 684.75,-843 677.75,-840.55 677.75,-845.45"/>
</g>
<!-- N62 -->
<g id="node63" class="node">
<title>N62</title>
<path fill="#f8f9fa" stroke="#ced4da" d="M780.62,-1017C780.62,-1017 724.88,-1017 724.88,-1017 718.88,-1017 712.88,-1011 712.88,-1005 712.88,-1005 712.88,-993 712.88,-993 712.88,-987 718.88,-981 724.88,-981 724.88,-981 780.62,-981 780.62,-981 786.62,-981 792.62,-987 792.62,-993 792.62,-993 792.62,-1005 792.62,-1005 792.62,-1011 786.62,-1017 780.62,-1017"/>
<text text-anchor="middle" x="752.75" y="-996.62" font-family="Helvetica,Arial,sans-serif" font-size="10.00" fill="#212529">📄 home.nix</text>
</g>
<!-- N61&#45;&gt;N62 -->
<g id="edge72" class="edge">
<title>N61&#45;&gt;N62</title>
<path fill="none" stroke="#6c757d" d="M536.67,-999C582.78,-999 656.18,-999 704.17,-999"/>
<polygon fill="#6c757d" stroke="#6c757d" points="704.01,-1001.45 711.01,-999 704.01,-996.55 704.01,-1001.45"/>
</g>
<!-- N64 -->
<g id="node65" class="node">
<title>N64</title>
<path fill="#f8f9fa" stroke="#ced4da" d="M780.62,-255C780.62,-255 724.88,-255 724.88,-255 718.88,-255 712.88,-249 712.88,-243 712.88,-243 712.88,-231 712.88,-231 712.88,-225 718.88,-219 724.88,-219 724.88,-219 780.62,-219 780.62,-219 786.62,-219 792.62,-225 792.62,-231 792.62,-231 792.62,-243 792.62,-243 792.62,-249 786.62,-255 780.62,-255"/>
<text text-anchor="middle" x="752.75" y="-234.62" font-family="Helvetica,Arial,sans-serif" font-size="10.00" fill="#212529">📄 home.nix</text>
</g>
<!-- N63&#45;&gt;N64 -->
<g id="edge73" class="edge">
<title>N63&#45;&gt;N64</title>
<path fill="none" stroke="#6c757d" d="M536.67,-237C582.78,-237 656.18,-237 704.17,-237"/>
<polygon fill="#6c757d" stroke="#6c757d" points="704.01,-239.45 711.01,-237 704.01,-234.55 704.01,-239.45"/>
</g>
</g>
</svg>
