<?xml version="1.0" encoding="UTF-8" standalone="no"?>
<!DOCTYPE svg PUBLIC "-//W3C//DTD SVG 1.1//EN"
 "http://www.w3.org/Graphics/SVG/1.1/DTD/svg11.dtd">
<!-- Generated by graphviz version 12.2.1 (0)
 -->
<!-- Title: NixOS Pages: 1 -->
<svg width="850pt" height="3574pt"
 viewBox="0.00 0.00 849.88 3574.00" xmlns="http://www.w3.org/2000/svg" xmlns:xlink="http://www.w3.org/1999/xlink">
<g id="graph0" class="graph" transform="scale(1 1) rotate(0) translate(4 3570)">
<title>NixOS</title>
<polygon fill="white" stroke="none" points="-4,4 -4,-3570 845.88,-3570 845.88,4 -4,4"/>
<g id="clust1" class="cluster">
<title>cluster_hosts_devcontainer</title>
<path fill="#e9ecef" stroke="#adb5bd" d="M158.25,-3468C158.25,-3468 283,-3468 283,-3468 289,-3468 295,-3474 295,-3480 295,-3480 295,-3546 295,-3546 295,-3552 289,-3558 283,-3558 283,-3558 158.25,-3558 158.25,-3558 152.25,-3558 146.25,-3552 146.25,-3546 146.25,-3546 146.25,-3480 146.25,-3480 146.25,-3474 152.25,-3468 158.25,-3468"/>
<text text-anchor="middle" x="220.62" y="-3542.6" font-family="Helvetica,sans-Serif" font-weight="bold" font-size="12.00" fill="#495057">📁 hosts/devcontainer</text>
</g>
<g id="clust2" class="cluster">
<title>cluster_hosts_homelab</title>
<path fill="#e9ecef" stroke="#adb5bd" d="M159.25,-3312C159.25,-3312 578.75,-3312 578.75,-3312 584.75,-3312 590.75,-3318 590.75,-3324 590.75,-3324 590.75,-3448 590.75,-3448 590.75,-3454 584.75,-3460 578.75,-3460 578.75,-3460 159.25,-3460 159.25,-3460 153.25,-3460 147.25,-3454 147.25,-3448 147.25,-3448 147.25,-3324 147.25,-3324 147.25,-3318 153.25,-3312 159.25,-3312"/>
<text text-anchor="middle" x="369" y="-3444.6" font-family="Helvetica,sans-Serif" font-weight="bold" font-size="12.00" fill="#495057">📁 hosts/homelab</text>
</g>
<g id="clust3" class="cluster">
<title>cluster_hosts_homelab_services_media</title>
<path fill="#e9ecef" stroke="#adb5bd" d="M397.5,-2692C397.5,-2692 589.75,-2692 589.75,-2692 595.75,-2692 601.75,-2698 601.75,-2704 601.75,-2704 601.75,-3292 601.75,-3292 601.75,-3298 595.75,-3304 589.75,-3304 589.75,-3304 397.5,-3304 397.5,-3304 391.5,-3304 385.5,-3298 385.5,-3292 385.5,-3292 385.5,-2704 385.5,-2704 385.5,-2698 391.5,-2692 397.5,-2692"/>
<text text-anchor="middle" x="493.62" y="-3288.6" font-family="Helvetica,sans-Serif" font-weight="bold" font-size="12.00" fill="#495057">📁 hosts/homelab/services/media</text>
</g>
<g id="clust4" class="cluster">
<title>cluster_hosts_homelab_services_monitoring</title>
<path fill="#e9ecef" stroke="#adb5bd" d="M383.62,-2130C383.62,-2130 603.62,-2130 603.62,-2130 609.62,-2130 615.62,-2136 615.62,-2142 615.62,-2142 615.62,-2672 615.62,-2672 615.62,-2678 609.62,-2684 603.62,-2684 603.62,-2684 383.62,-2684 383.62,-2684 377.62,-2684 371.62,-2678 371.62,-2672 371.62,-2672 371.62,-2142 371.62,-2142 371.62,-2136 377.62,-2130 383.62,-2130"/>
<text text-anchor="middle" x="493.62" y="-2668.6" font-family="Helvetica,sans-Serif" font-weight="bold" font-size="12.00" fill="#495057">📁 hosts/homelab/services/monitoring</text>
</g>
<g id="clust5" class="cluster">
<title>cluster_hosts_homelab_services_random</title>
<path fill="#e9ecef" stroke="#adb5bd" d="M392.62,-1394C392.62,-1394 594.62,-1394 594.62,-1394 600.62,-1394 606.62,-1400 606.62,-1406 606.62,-1406 606.62,-2110 606.62,-2110 606.62,-2116 600.62,-2122 594.62,-2122 594.62,-2122 392.62,-2122 392.62,-2122 386.62,-2122 380.62,-2116 380.62,-2110 380.62,-2110 380.62,-1406 380.62,-1406 380.62,-1400 386.62,-1394 392.62,-1394"/>
<text text-anchor="middle" x="493.62" y="-2106.6" font-family="Helvetica,sans-Serif" font-weight="bold" font-size="12.00" fill="#495057">📁 hosts/homelab/services/random</text>
</g>
<g id="clust6" class="cluster">
<title>cluster_hosts_homelab_services_security</title>
<path fill="#e9ecef" stroke="#adb5bd" d="M392.62,-1064C392.62,-1064 594.62,-1064 594.62,-1064 600.62,-1064 606.62,-1070 606.62,-1076 606.62,-1076 606.62,-1374 606.62,-1374 606.62,-1380 600.62,-1386 594.62,-1386 594.62,-1386 392.62,-1386 392.62,-1386 386.62,-1386 380.62,-1380 380.62,-1374 380.62,-1374 380.62,-1076 380.62,-1076 380.62,-1070 386.62,-1064 392.62,-1064"/>
<text text-anchor="middle" x="493.62" y="-1370.6" font-family="Helvetica,sans-Serif" font-weight="bold" font-size="12.00" fill="#495057">📁 hosts/homelab/services/security</text>
</g>
<g id="clust7" class="cluster">
<title>cluster_hosts_perso</title>
<path fill="#e9ecef" stroke="#adb5bd" d="M159.25,-302C159.25,-302 578.75,-302 578.75,-302 584.75,-302 590.75,-308 590.75,-314 590.75,-314 590.75,-380 590.75,-380 590.75,-386 584.75,-392 578.75,-392 578.75,-392 159.25,-392 159.25,-392 153.25,-392 147.25,-386 147.25,-380 147.25,-380 147.25,-314 147.25,-314 147.25,-308 153.25,-302 159.25,-302"/>
<text text-anchor="middle" x="369" y="-376.6" font-family="Helvetica,sans-Serif" font-weight="bold" font-size="12.00" fill="#495057">📁 hosts/perso</text>
</g>
<g id="clust8" class="cluster">
<title>cluster_hosts_portable</title>
<path fill="#e9ecef" stroke="#adb5bd" d="M159.25,-8C159.25,-8 578.75,-8 578.75,-8 584.75,-8 590.75,-14 590.75,-20 590.75,-20 590.75,-86 590.75,-86 590.75,-92 584.75,-98 578.75,-98 578.75,-98 159.25,-98 159.25,-98 153.25,-98 147.25,-92 147.25,-86 147.25,-86 147.25,-20 147.25,-20 147.25,-14 153.25,-8 159.25,-8"/>
<text text-anchor="middle" x="369" y="-82.6" font-family="Helvetica,sans-Serif" font-weight="bold" font-size="12.00" fill="#495057">📁 hosts/portable</text>
</g>
<g id="clust9" class="cluster">
<title>cluster_modules_dev</title>
<path fill="#e9ecef" stroke="#adb5bd" d="M446.88,-556C446.88,-556 539.38,-556 539.38,-556 545.38,-556 551.38,-562 551.38,-568 551.38,-568 551.38,-634 551.38,-634 551.38,-640 545.38,-646 539.38,-646 539.38,-646 446.88,-646 446.88,-646 440.88,-646 434.88,-640 434.88,-634 434.88,-634 434.88,-568 434.88,-568 434.88,-562 440.88,-556 446.88,-556"/>
<text text-anchor="middle" x="493.12" y="-630.6" font-family="Helvetica,sans-Serif" font-weight="bold" font-size="12.00" fill="#495057">📁 modules/dev</text>
</g>
<g id="clust10" class="cluster">
<title>cluster_modules_gaming</title>
<path fill="#e9ecef" stroke="#adb5bd" d="M438.38,-400C438.38,-400 548.88,-400 548.88,-400 554.88,-400 560.88,-406 560.88,-412 560.88,-412 560.88,-536 560.88,-536 560.88,-542 554.88,-548 548.88,-548 548.88,-548 438.38,-548 438.38,-548 432.38,-548 426.38,-542 426.38,-536 426.38,-536 426.38,-412 426.38,-412 426.38,-406 432.38,-400 438.38,-400"/>
<text text-anchor="middle" x="493.62" y="-532.6" font-family="Helvetica,sans-Serif" font-weight="bold" font-size="12.00" fill="#495057">📁 modules/gaming</text>
</g>
<g id="clust11" class="cluster">
<title>cluster_modules_hyprland</title>
<path fill="#e9ecef" stroke="#adb5bd" d="M434.62,-106C434.62,-106 552.62,-106 552.62,-106 558.62,-106 564.62,-112 564.62,-118 564.62,-118 564.62,-184 564.62,-184 564.62,-190 558.62,-196 552.62,-196 552.62,-196 434.62,-196 434.62,-196 428.62,-196 422.62,-190 422.62,-184 422.62,-184 422.62,-118 422.62,-118 422.62,-112 428.62,-106 434.62,-106"/>
<text text-anchor="middle" x="493.62" y="-180.6" font-family="Helvetica,sans-Serif" font-weight="bold" font-size="12.00" fill="#495057">📁 modules/hyprland</text>
</g>
<g id="clust12" class="cluster">
<title>cluster_modules_nixos</title>
<path fill="#e9ecef" stroke="#adb5bd" d="M449.12,-752C449.12,-752 821.88,-752 821.88,-752 827.88,-752 833.88,-758 833.88,-764 833.88,-764 833.88,-946 833.88,-946 833.88,-952 827.88,-958 821.88,-958 821.88,-958 449.12,-958 449.12,-958 443.12,-958 437.12,-952 437.12,-946 437.12,-946 437.12,-764 437.12,-764 437.12,-758 443.12,-752 449.12,-752"/>
<text text-anchor="middle" x="635.5" y="-942.6" font-family="Helvetica,sans-Serif" font-weight="bold" font-size="12.00" fill="#495057">📁 modules/nixos</text>
</g>
<g id="clust13" class="cluster">
<title>cluster_modules_terminal</title>
<path fill="#e9ecef" stroke="#adb5bd" d="M436.12,-654C436.12,-654 551.12,-654 551.12,-654 557.12,-654 563.12,-660 563.12,-666 563.12,-666 563.12,-732 563.12,-732 563.12,-738 557.12,-744 551.12,-744 551.12,-744 436.12,-744 436.12,-744 430.12,-744 424.12,-738 424.12,-732 424.12,-732 424.12,-666 424.12,-666 424.12,-660 430.12,-654 436.12,-654"/>
<text text-anchor="middle" x="493.62" y="-728.6" font-family="Helvetica,sans-Serif" font-weight="bold" font-size="12.00" fill="#495057">📁 modules/terminal</text>
</g>
<g id="clust14" class="cluster">
<title>cluster_users_arthur_homelab</title>
<path fill="#e9ecef" stroke="#adb5bd" d="M446.88,-966C446.88,-966 795.62,-966 795.62,-966 801.62,-966 807.62,-972 807.62,-978 807.62,-978 807.62,-1044 807.62,-1044 807.62,-1050 801.62,-1056 795.62,-1056 795.62,-1056 446.88,-1056 446.88,-1056 440.88,-1056 434.88,-1050 434.88,-1044 434.88,-1044 434.88,-978 434.88,-978 434.88,-972 440.88,-966 446.88,-966"/>
<text text-anchor="middle" x="621.25" y="-1040.6" font-family="Helvetica,sans-Serif" font-weight="bold" font-size="12.00" fill="#495057">📁 users/arthur&#45;homelab</text>
</g>
<g id="clust15" class="cluster">
<title>cluster_users_arthur_perso</title>
<path fill="#e9ecef" stroke="#adb5bd" d="M446.88,-204C446.88,-204 795.62,-204 795.62,-204 801.62,-204 807.62,-210 807.62,-216 807.62,-216 807.62,-282 807.62,-282 807.62,-288 801.62,-294 795.62,-294 795.62,-294 446.88,-294 446.88,-294 440.88,-294 434.88,-288 434.88,-282 434.88,-282 434.88,-216 434.88,-216 434.88,-210 440.88,-204 446.88,-204"/>
<text text-anchor="middle" x="621.25" y="-278.6" font-family="Helvetica,sans-Serif" font-weight="bold" font-size="12.00" fill="#495057">📁 users/arthur&#45;perso</text>
</g>
<!-- N0 -->
<g id="node1" class="node">
<title>N0</title>
<path fill="#f8f9fa" stroke="#ced4da" d="M63.25,-3363C63.25,-3363 12,-3363 12,-3363 6,-3363 0,-3357 0,-3351 0,-3351 0,-3339 0,-3339 0,-3333 6,-3327 12,-3327 12,-3327 63.25,-3327 63.25,-3327 69.25,-3327 75.25,-3333 75.25,-3339 75.25,-3339 75.25,-3351 75.25,-3351 75.25,-3357 69.25,-3363 63.25,-3363"/>
<text text-anchor="middle" x="37.62" y="-3342.62" font-family="Helvetica,Arial,sans-serif" font-size="10.00" fill="#212529">📄 flake.nix</text>
</g>
<!-- N1 -->
<g id="node2" class="node">
<title>N1</title>
<path fill="#f8f9fa" stroke="#ced4da" d="M251.38,-3519C251.38,-3519 188.88,-3519 188.88,-3519 182.88,-3519 176.88,-3513 176.88,-3507 176.88,-3507 176.88,-3495 176.88,-3495 176.88,-3489 182.88,-3483 188.88,-3483 188.88,-3483 251.38,-3483 251.38,-3483 257.38,-3483 263.38,-3489 263.38,-3495 263.38,-3495 263.38,-3507 263.38,-3507 263.38,-3513 257.38,-3519 251.38,-3519"/>
<text text-anchor="middle" x="220.12" y="-3498.62" font-family="Helvetica,Arial,sans-serif" font-size="10.00" fill="#212529">📄 default.nix</text>
</g>
<!-- N0&#45;&gt;N1 -->
<g id="edge1" class="edge">
<title>N0&#45;&gt;N1</title>
<path fill="none" stroke="#6c757d" d="M55.21,-3363.49C85.4,-3397.15 146.25,-3465 146.25,-3465 146.25,-3465 159.29,-3471.44 174.33,-3478.87"/>
<polygon fill="#6c757d" stroke="#6c757d" points="173.12,-3481 180.48,-3481.91 175.29,-3476.61 173.12,-3481"/>
</g>
<!-- N2 -->
<g id="node3" class="node">
<title>N2</title>
<path fill="#f8f9fa" stroke="#ced4da" d="M266,-3363C266,-3363 174.25,-3363 174.25,-3363 168.25,-3363 162.25,-3357 162.25,-3351 162.25,-3351 162.25,-3339 162.25,-3339 162.25,-3333 168.25,-3327 174.25,-3327 174.25,-3327 266,-3327 266,-3327 272,-3327 278,-3333 278,-3339 278,-3339 278,-3351 278,-3351 278,-3357 272,-3363 266,-3363"/>
<text text-anchor="middle" x="220.12" y="-3342.62" font-family="Helvetica,Arial,sans-serif" font-size="10.00" fill="#212529">📄 configuration.nix</text>
</g>
<!-- N0&#45;&gt;N2 -->
<g id="edge2" class="edge">
<title>N0&#45;&gt;N2</title>
<path fill="none" stroke="#6c757d" d="M75.59,-3345C98.02,-3345 127.29,-3345 153.54,-3345"/>
<polygon fill="#6c757d" stroke="#6c757d" points="153.43,-3347.45 160.43,-3345 153.43,-3342.55 153.43,-3347.45"/>
</g>
<!-- N3 -->
<g id="node4" class="node">
<title>N3</title>
<path fill="#f8f9fa" stroke="#ced4da" d="M257.75,-3421C257.75,-3421 182.5,-3421 182.5,-3421 176.5,-3421 170.5,-3415 170.5,-3409 170.5,-3409 170.5,-3397 170.5,-3397 170.5,-3391 176.5,-3385 182.5,-3385 182.5,-3385 257.75,-3385 257.75,-3385 263.75,-3385 269.75,-3391 269.75,-3397 269.75,-3397 269.75,-3409 269.75,-3409 269.75,-3415 263.75,-3421 257.75,-3421"/>
<text text-anchor="middle" x="220.12" y="-3400.62" font-family="Helvetica,Arial,sans-serif" font-size="10.00" fill="#212529">📄 constants.nix</text>
</g>
<!-- N0&#45;&gt;N3 -->
<g id="edge3" class="edge">
<title>N0&#45;&gt;N3</title>
<path fill="none" stroke="#6c757d" d="M75.59,-3356.88C100.57,-3364.9 134.04,-3375.66 162.38,-3384.77"/>
<polygon fill="#6c757d" stroke="#6c757d" points="161.37,-3387.01 168.78,-3386.82 162.87,-3382.35 161.37,-3387.01"/>
</g>
<!-- N41 -->
<g id="node42" class="node">
<title>N41</title>
<path fill="#f8f9fa" stroke="#ced4da" d="M266,-353C266,-353 174.25,-353 174.25,-353 168.25,-353 162.25,-347 162.25,-341 162.25,-341 162.25,-329 162.25,-329 162.25,-323 168.25,-317 174.25,-317 174.25,-317 266,-317 266,-317 272,-317 278,-323 278,-329 278,-329 278,-341 278,-341 278,-347 272,-353 266,-353"/>
<text text-anchor="middle" x="220.12" y="-332.62" font-family="Helvetica,Arial,sans-serif" font-size="10.00" fill="#212529">📄 configuration.nix</text>
</g>
<!-- N0&#45;&gt;N41 -->
<g id="edge4" class="edge">
<title>N0&#45;&gt;N41</title>
<path fill="none" stroke="#6c757d" d="M39.73,-3326.56C53.94,-3089.64 200.54,-644.89 217.52,-361.7"/>
<polygon fill="#6c757d" stroke="#6c757d" points="219.97,-361.89 217.94,-354.76 215.08,-361.6 219.97,-361.89"/>
</g>
<!-- N43 -->
<g id="node44" class="node">
<title>N43</title>
<path fill="#f8f9fa" stroke="#ced4da" d="M266,-59C266,-59 174.25,-59 174.25,-59 168.25,-59 162.25,-53 162.25,-47 162.25,-47 162.25,-35 162.25,-35 162.25,-29 168.25,-23 174.25,-23 174.25,-23 266,-23 266,-23 272,-23 278,-29 278,-35 278,-35 278,-47 278,-47 278,-53 272,-59 266,-59"/>
<text text-anchor="middle" x="220.12" y="-38.62" font-family="Helvetica,Arial,sans-serif" font-size="10.00" fill="#212529">📄 configuration.nix</text>
</g>
<!-- N0&#45;&gt;N43 -->
<g id="edge5" class="edge">
<title>N0&#45;&gt;N43</title>
<path fill="none" stroke="#6c757d" d="M39.27,-3326.72C48.18,-3074.46 146.25,-297 146.25,-297 146.25,-297 193.08,-132.48 211.66,-67.22"/>
<polygon fill="#6c757d" stroke="#6c757d" points="213.91,-68.27 213.47,-60.87 209.2,-66.93 213.91,-68.27"/>
</g>
<!-- N4 -->
<g id="node5" class="node">
<title>N4</title>
<path fill="#f8f9fa" stroke="#ced4da" d="M563.75,-3363C563.75,-3363 422.5,-3363 422.5,-3363 416.5,-3363 410.5,-3357 410.5,-3351 410.5,-3351 410.5,-3339 410.5,-3339 410.5,-3333 416.5,-3327 422.5,-3327 422.5,-3327 563.75,-3327 563.75,-3327 569.75,-3327 575.75,-3333 575.75,-3339 575.75,-3339 575.75,-3351 575.75,-3351 575.75,-3357 569.75,-3363 563.75,-3363"/>
<text text-anchor="middle" x="493.12" y="-3342.62" font-family="Helvetica,Arial,sans-serif" font-size="10.00" fill="#212529">📄 hardware&#45;configuration.nix</text>
</g>
<!-- N2&#45;&gt;N4 -->
<g id="edge6" class="edge">
<title>N2&#45;&gt;N4</title>
<path fill="none" stroke="#6c757d" d="M278.27,-3345C314.08,-3345 361.02,-3345 401.79,-3345"/>
<polygon fill="#6c757d" stroke="#6c757d" points="401.61,-3347.45 408.61,-3345 401.61,-3342.55 401.61,-3347.45"/>
</g>
<!-- N5 -->
<g id="node6" class="node">
<title>N5</title>
<path fill="#f8f9fa" stroke="#ced4da" d="M522.5,-2859C522.5,-2859 463.75,-2859 463.75,-2859 457.75,-2859 451.75,-2853 451.75,-2847 451.75,-2847 451.75,-2835 451.75,-2835 451.75,-2829 457.75,-2823 463.75,-2823 463.75,-2823 522.5,-2823 522.5,-2823 528.5,-2823 534.5,-2829 534.5,-2835 534.5,-2835 534.5,-2847 534.5,-2847 534.5,-2853 528.5,-2859 522.5,-2859"/>
<text text-anchor="middle" x="493.12" y="-2838.62" font-family="Helvetica,Arial,sans-serif" font-size="10.00" fill="#212529">📄 byparr.nix</text>
</g>
<!-- N2&#45;&gt;N5 -->
<g id="edge7" class="edge">
<title>N2&#45;&gt;N5</title>
<path fill="none" stroke="#6c757d" d="M226.93,-3326.67C254.59,-3239.38 371.62,-2870 371.62,-2870 371.62,-2870 409.98,-2860.77 443.41,-2852.72"/>
<polygon fill="#6c757d" stroke="#6c757d" points="443.63,-2855.19 449.86,-2851.17 442.48,-2850.43 443.63,-2855.19"/>
</g>
<!-- N6 -->
<g id="node7" class="node">
<title>N6</title>
<path fill="#f8f9fa" stroke="#ced4da" d="M557.75,-2917C557.75,-2917 428.5,-2917 428.5,-2917 422.5,-2917 416.5,-2911 416.5,-2905 416.5,-2905 416.5,-2893 416.5,-2893 416.5,-2887 422.5,-2881 428.5,-2881 428.5,-2881 557.75,-2881 557.75,-2881 563.75,-2881 569.75,-2887 569.75,-2893 569.75,-2893 569.75,-2905 569.75,-2905 569.75,-2911 563.75,-2917 557.75,-2917"/>
<text text-anchor="middle" x="493.12" y="-2896.62" font-family="Helvetica,Arial,sans-serif" font-size="10.00" fill="#212529">📄 filebrowser&#45;quantum.nix</text>
</g>
<!-- N2&#45;&gt;N6 -->
<g id="edge8" class="edge">
<title>N2&#45;&gt;N6</title>
<path fill="none" stroke="#6c757d" d="M227.79,-3326.54C256.91,-3245.84 371.62,-2928 371.62,-2928 371.62,-2928 387.72,-2924.13 408.14,-2919.21"/>
<polygon fill="#6c757d" stroke="#6c757d" points="408.45,-2921.66 414.68,-2917.64 407.3,-2916.89 408.45,-2921.66"/>
</g>
<!-- N7 -->
<g id="node8" class="node">
<title>N7</title>
<path fill="#f8f9fa" stroke="#ced4da" d="M525.5,-2975C525.5,-2975 460.75,-2975 460.75,-2975 454.75,-2975 448.75,-2969 448.75,-2963 448.75,-2963 448.75,-2951 448.75,-2951 448.75,-2945 454.75,-2939 460.75,-2939 460.75,-2939 525.5,-2939 525.5,-2939 531.5,-2939 537.5,-2945 537.5,-2951 537.5,-2951 537.5,-2963 537.5,-2963 537.5,-2969 531.5,-2975 525.5,-2975"/>
<text text-anchor="middle" x="493.12" y="-2954.62" font-family="Helvetica,Arial,sans-serif" font-size="10.00" fill="#212529">📄 immich.nix</text>
</g>
<!-- N2&#45;&gt;N7 -->
<g id="edge9" class="edge">
<title>N2&#45;&gt;N7</title>
<path fill="none" stroke="#6c757d" d="M228.8,-3326.7C259.46,-3253.55 371.62,-2986 371.62,-2986 371.62,-2986 407.49,-2977.37 440.09,-2969.52"/>
<polygon fill="#6c757d" stroke="#6c757d" points="440.58,-2971.93 446.81,-2967.91 439.43,-2967.16 440.58,-2971.93"/>
</g>
<!-- N8 -->
<g id="node9" class="node">
<title>N8</title>
<path fill="#f8f9fa" stroke="#ced4da" d="M523.62,-3033C523.62,-3033 462.62,-3033 462.62,-3033 456.62,-3033 450.62,-3027 450.62,-3021 450.62,-3021 450.62,-3009 450.62,-3009 450.62,-3003 456.62,-2997 462.62,-2997 462.62,-2997 523.62,-2997 523.62,-2997 529.62,-2997 535.62,-3003 535.62,-3009 535.62,-3009 535.62,-3021 535.62,-3021 535.62,-3027 529.62,-3033 523.62,-3033"/>
<text text-anchor="middle" x="493.12" y="-3012.62" font-family="Helvetica,Arial,sans-serif" font-size="10.00" fill="#212529">📄 komga.nix</text>
</g>
<!-- N2&#45;&gt;N8 -->
<g id="edge10" class="edge">
<title>N2&#45;&gt;N8</title>
<path fill="none" stroke="#6c757d" d="M230.31,-3326.62C262.99,-3261.27 371.62,-3044 371.62,-3044 371.62,-3044 409.24,-3034.95 442.44,-3026.96"/>
<polygon fill="#6c757d" stroke="#6c757d" points="442.61,-3029.44 448.85,-3025.42 441.47,-3024.67 442.61,-3029.44"/>
</g>
<!-- N9 -->
<g id="node10" class="node">
<title>N9</title>
<path fill="#f8f9fa" stroke="#ced4da" d="M531.12,-3091C531.12,-3091 455.12,-3091 455.12,-3091 449.12,-3091 443.12,-3085 443.12,-3079 443.12,-3079 443.12,-3067 443.12,-3067 443.12,-3061 449.12,-3055 455.12,-3055 455.12,-3055 531.12,-3055 531.12,-3055 537.12,-3055 543.12,-3061 543.12,-3067 543.12,-3067 543.12,-3079 543.12,-3079 543.12,-3085 537.12,-3091 531.12,-3091"/>
<text text-anchor="middle" x="493.12" y="-3070.62" font-family="Helvetica,Arial,sans-serif" font-size="10.00" fill="#212529">📄 onlyoffice.nix</text>
</g>
<!-- N2&#45;&gt;N9 -->
<g id="edge11" class="edge">
<title>N2&#45;&gt;N9</title>
<path fill="none" stroke="#6c757d" d="M232.44,-3326.74C267.44,-3270.22 371.62,-3102 371.62,-3102 371.62,-3102 403.53,-3094.32 434.51,-3086.87"/>
<polygon fill="#6c757d" stroke="#6c757d" points="435.06,-3089.25 441.29,-3085.23 433.91,-3084.49 435.06,-3089.25"/>
</g>
<!-- N10 -->
<g id="node11" class="node">
<title>N10</title>
<path fill="#f8f9fa" stroke="#ced4da" d="M527,-3149C527,-3149 459.25,-3149 459.25,-3149 453.25,-3149 447.25,-3143 447.25,-3137 447.25,-3137 447.25,-3125 447.25,-3125 447.25,-3119 453.25,-3113 459.25,-3113 459.25,-3113 527,-3113 527,-3113 533,-3113 539,-3119 539,-3125 539,-3125 539,-3137 539,-3137 539,-3143 533,-3149 527,-3149"/>
<text text-anchor="middle" x="493.12" y="-3128.62" font-family="Helvetica,Arial,sans-serif" font-size="10.00" fill="#212529">📄 prowlarr.nix</text>
</g>
<!-- N2&#45;&gt;N10 -->
<g id="edge12" class="edge">
<title>N2&#45;&gt;N10</title>
<path fill="none" stroke="#6c757d" d="M236.11,-3326.59C274.17,-3279.79 371.62,-3160 371.62,-3160 371.62,-3160 406.55,-3151.59 438.8,-3143.83"/>
<polygon fill="#6c757d" stroke="#6c757d" points="439.21,-3146.26 445.44,-3142.24 438.06,-3141.49 439.21,-3146.26"/>
</g>
<!-- N11 -->
<g id="node12" class="node">
<title>N11</title>
<path fill="#f8f9fa" stroke="#ced4da" d="M533,-3207C533,-3207 453.25,-3207 453.25,-3207 447.25,-3207 441.25,-3201 441.25,-3195 441.25,-3195 441.25,-3183 441.25,-3183 441.25,-3177 447.25,-3171 453.25,-3171 453.25,-3171 533,-3171 533,-3171 539,-3171 545,-3177 545,-3183 545,-3183 545,-3195 545,-3195 545,-3201 539,-3207 533,-3207"/>
<text text-anchor="middle" x="493.12" y="-3186.62" font-family="Helvetica,Arial,sans-serif" font-size="10.00" fill="#212529">📄 qbittorrent.nix</text>
</g>
<!-- N2&#45;&gt;N11 -->
<g id="edge13" class="edge">
<title>N2&#45;&gt;N11</title>
<path fill="none" stroke="#6c757d" d="M243.01,-3326.53C284.75,-3291.31 371.62,-3218 371.62,-3218 371.62,-3218 402.43,-3210.59 432.89,-3203.26"/>
<polygon fill="#6c757d" stroke="#6c757d" points="433.32,-3205.67 439.55,-3201.65 432.17,-3200.91 433.32,-3205.67"/>
</g>
<!-- N12 -->
<g id="node13" class="node">
<title>N12</title>
<path fill="#f8f9fa" stroke="#ced4da" d="M522.12,-3265C522.12,-3265 464.12,-3265 464.12,-3265 458.12,-3265 452.12,-3259 452.12,-3253 452.12,-3253 452.12,-3241 452.12,-3241 452.12,-3235 458.12,-3229 464.12,-3229 464.12,-3229 522.12,-3229 522.12,-3229 528.12,-3229 534.12,-3235 534.12,-3241 534.12,-3241 534.12,-3253 534.12,-3253 534.12,-3259 528.12,-3265 522.12,-3265"/>
<text text-anchor="middle" x="493.12" y="-3244.62" font-family="Helvetica,Arial,sans-serif" font-size="10.00" fill="#212529">📄 sonarr.nix</text>
</g>
<!-- N2&#45;&gt;N12 -->
<g id="edge14" class="edge">
<title>N2&#45;&gt;N12</title>
<path fill="none" stroke="#6c757d" d="M272.1,-3326.57C321.48,-3308.71 395.8,-3281.83 444.14,-3264.35"/>
<polygon fill="#6c757d" stroke="#6c757d" points="444.79,-3266.72 450.54,-3262.04 443.13,-3262.11 444.79,-3266.72"/>
</g>
<!-- N13 -->
<g id="node14" class="node">
<title>N13</title>
<path fill="#f8f9fa" stroke="#ced4da" d="M532.25,-2743C532.25,-2743 454,-2743 454,-2743 448,-2743 442,-2737 442,-2731 442,-2731 442,-2719 442,-2719 442,-2713 448,-2707 454,-2707 454,-2707 532.25,-2707 532.25,-2707 538.25,-2707 544.25,-2713 544.25,-2719 544.25,-2719 544.25,-2731 544.25,-2731 544.25,-2737 538.25,-2743 532.25,-2743"/>
<text text-anchor="middle" x="493.12" y="-2722.62" font-family="Helvetica,Arial,sans-serif" font-size="10.00" fill="#212529">📄 suwayomi.nix</text>
</g>
<!-- N2&#45;&gt;N13 -->
<g id="edge15" class="edge">
<title>N2&#45;&gt;N13</title>
<path fill="none" stroke="#6c757d" d="M225.79,-3326.66C251.2,-3226.91 371.62,-2754 371.62,-2754 371.62,-2754 402.87,-2746.48 433.54,-2739.1"/>
<polygon fill="#6c757d" stroke="#6c757d" points="434.02,-2741.5 440.25,-2737.48 432.87,-2736.74 434.02,-2741.5"/>
</g>
<!-- N14 -->
<g id="node15" class="node">
<title>N14</title>
<path fill="#f8f9fa" stroke="#ced4da" d="M522.88,-2801C522.88,-2801 463.38,-2801 463.38,-2801 457.38,-2801 451.38,-2795 451.38,-2789 451.38,-2789 451.38,-2777 451.38,-2777 451.38,-2771 457.38,-2765 463.38,-2765 463.38,-2765 522.88,-2765 522.88,-2765 528.88,-2765 534.88,-2771 534.88,-2777 534.88,-2777 534.88,-2789 534.88,-2789 534.88,-2795 528.88,-2801 522.88,-2801"/>
<text text-anchor="middle" x="493.12" y="-2780.62" font-family="Helvetica,Arial,sans-serif" font-size="10.00" fill="#212529">📄 tranga.nix</text>
</g>
<!-- N2&#45;&gt;N14 -->
<g id="edge16" class="edge">
<title>N2&#45;&gt;N14</title>
<path fill="none" stroke="#6c757d" d="M226.31,-3326.65C252.77,-3232.93 371.62,-2812 371.62,-2812 371.62,-2812 409.73,-2802.83 443.08,-2794.8"/>
<polygon fill="#6c757d" stroke="#6c757d" points="443.29,-2797.27 449.52,-2793.25 442.14,-2792.51 443.29,-2797.27"/>
</g>
<!-- N15 -->
<g id="node16" class="node">
<title>N15</title>
<path fill="#f8f9fa" stroke="#ced4da" d="M518.38,-2239C518.38,-2239 467.88,-2239 467.88,-2239 461.88,-2239 455.88,-2233 455.88,-2227 455.88,-2227 455.88,-2215 455.88,-2215 455.88,-2209 461.88,-2203 467.88,-2203 467.88,-2203 518.38,-2203 518.38,-2203 524.38,-2203 530.38,-2209 530.38,-2215 530.38,-2215 530.38,-2227 530.38,-2227 530.38,-2233 524.38,-2239 518.38,-2239"/>
<text text-anchor="middle" x="493.12" y="-2218.62" font-family="Helvetica,Arial,sans-serif" font-size="10.00" fill="#212529">📄 alloy.nix</text>
</g>
<!-- N2&#45;&gt;N15 -->
<g id="edge17" class="edge">
<title>N2&#45;&gt;N15</title>
<path fill="none" stroke="#6c757d" d="M223.61,-3326.91C243.18,-3184.54 371.62,-2250 371.62,-2250 371.62,-2250 413.24,-2239.99 447.56,-2231.73"/>
<polygon fill="#6c757d" stroke="#6c757d" points="447.94,-2234.15 454.17,-2230.13 446.79,-2229.39 447.94,-2234.15"/>
</g>
<!-- N16 -->
<g id="node17" class="node">
<title>N16</title>
<path fill="#f8f9fa" stroke="#ced4da" d="M531.88,-2297C531.88,-2297 454.38,-2297 454.38,-2297 448.38,-2297 442.38,-2291 442.38,-2285 442.38,-2285 442.38,-2273 442.38,-2273 442.38,-2267 448.38,-2261 454.38,-2261 454.38,-2261 531.88,-2261 531.88,-2261 537.88,-2261 543.88,-2267 543.88,-2273 543.88,-2273 543.88,-2285 543.88,-2285 543.88,-2291 537.88,-2297 531.88,-2297"/>
<text text-anchor="middle" x="493.12" y="-2276.62" font-family="Helvetica,Arial,sans-serif" font-size="10.00" fill="#212529">📄 borgmatic.nix</text>
</g>
<!-- N2&#45;&gt;N16 -->
<g id="edge18" class="edge">
<title>N2&#45;&gt;N16</title>
<path fill="none" stroke="#6c757d" d="M223.8,-3326.56C243.99,-3187.43 371.62,-2308 371.62,-2308 371.62,-2308 403.09,-2300.43 433.86,-2293.02"/>
<polygon fill="#6c757d" stroke="#6c757d" points="434.37,-2295.42 440.6,-2291.4 433.22,-2290.66 434.37,-2295.42"/>
</g>
<!-- N17 -->
<g id="node18" class="node">
<title>N17</title>
<path fill="#f8f9fa" stroke="#ced4da" d="M525.88,-2355C525.88,-2355 460.38,-2355 460.38,-2355 454.38,-2355 448.38,-2349 448.38,-2343 448.38,-2343 448.38,-2331 448.38,-2331 448.38,-2325 454.38,-2319 460.38,-2319 460.38,-2319 525.88,-2319 525.88,-2319 531.88,-2319 537.88,-2325 537.88,-2331 537.88,-2331 537.88,-2343 537.88,-2343 537.88,-2349 531.88,-2355 525.88,-2355"/>
<text text-anchor="middle" x="493.12" y="-2334.62" font-family="Helvetica,Arial,sans-serif" font-size="10.00" fill="#212529">📄 grafana.nix</text>
</g>
<!-- N2&#45;&gt;N17 -->
<g id="edge19" class="edge">
<title>N2&#45;&gt;N17</title>
<path fill="none" stroke="#6c757d" d="M223.93,-3326.75C244.53,-3192.73 371.62,-2366 371.62,-2366 371.62,-2366 407.25,-2357.43 439.76,-2349.6"/>
<polygon fill="#6c757d" stroke="#6c757d" points="440.24,-2352.01 446.47,-2347.99 439.09,-2347.24 440.24,-2352.01"/>
</g>
<!-- N18 -->
<g id="node19" class="node">
<title>N18</title>
<path fill="#f8f9fa" stroke="#ced4da" d="M516.12,-2413C516.12,-2413 470.12,-2413 470.12,-2413 464.12,-2413 458.12,-2407 458.12,-2401 458.12,-2401 458.12,-2389 458.12,-2389 458.12,-2383 464.12,-2377 470.12,-2377 470.12,-2377 516.12,-2377 516.12,-2377 522.12,-2377 528.12,-2383 528.12,-2389 528.12,-2389 528.12,-2401 528.12,-2401 528.12,-2407 522.12,-2413 516.12,-2413"/>
<text text-anchor="middle" x="493.12" y="-2392.62" font-family="Helvetica,Arial,sans-serif" font-size="10.00" fill="#212529">📄 loki.nix</text>
</g>
<!-- N2&#45;&gt;N18 -->
<g id="edge20" class="edge">
<title>N2&#45;&gt;N18</title>
<path fill="none" stroke="#6c757d" d="M224.13,-3326.6C245.34,-3196.8 371.62,-2424 371.62,-2424 371.62,-2424 415.05,-2413.55 449.76,-2405.2"/>
<polygon fill="#6c757d" stroke="#6c757d" points="450.21,-2407.61 456.45,-2403.59 449.07,-2402.84 450.21,-2407.61"/>
</g>
<!-- N19 -->
<g id="node20" class="node">
<title>N19</title>
<path fill="#f8f9fa" stroke="#ced4da" d="M525.88,-2471C525.88,-2471 460.38,-2471 460.38,-2471 454.38,-2471 448.38,-2465 448.38,-2459 448.38,-2459 448.38,-2447 448.38,-2447 448.38,-2441 454.38,-2435 460.38,-2435 460.38,-2435 525.88,-2435 525.88,-2435 531.88,-2435 537.88,-2441 537.88,-2447 537.88,-2447 537.88,-2459 537.88,-2459 537.88,-2465 531.88,-2471 525.88,-2471"/>
<text text-anchor="middle" x="493.12" y="-2450.62" font-family="Helvetica,Arial,sans-serif" font-size="10.00" fill="#212529">📄 netdata.nix</text>
</g>
<!-- N2&#45;&gt;N19 -->
<g id="edge21" class="edge">
<title>N2&#45;&gt;N19</title>
<path fill="none" stroke="#6c757d" d="M224.34,-3326.58C246.15,-3201.51 371.62,-2482 371.62,-2482 371.62,-2482 407.25,-2473.43 439.76,-2465.6"/>
<polygon fill="#6c757d" stroke="#6c757d" points="440.24,-2468.01 446.47,-2463.99 439.09,-2463.24 440.24,-2468.01"/>
</g>
<!-- N20 -->
<g id="node21" class="node">
<title>N20</title>
<path fill="#f8f9fa" stroke="#ced4da" d="M542.75,-2529C542.75,-2529 443.5,-2529 443.5,-2529 437.5,-2529 431.5,-2523 431.5,-2517 431.5,-2517 431.5,-2505 431.5,-2505 431.5,-2499 437.5,-2493 443.5,-2493 443.5,-2493 542.75,-2493 542.75,-2493 548.75,-2493 554.75,-2499 554.75,-2505 554.75,-2505 554.75,-2517 554.75,-2517 554.75,-2523 548.75,-2529 542.75,-2529"/>
<text text-anchor="middle" x="493.12" y="-2508.62" font-family="Helvetica,Arial,sans-serif" font-size="10.00" fill="#212529">📄 power&#45;monitor.nix</text>
</g>
<!-- N2&#45;&gt;N20 -->
<g id="edge22" class="edge">
<title>N2&#45;&gt;N20</title>
<path fill="none" stroke="#6c757d" d="M224.55,-3326.67C246.95,-3206.85 371.62,-2540 371.62,-2540 371.62,-2540 396.19,-2534.09 423.14,-2527.6"/>
<polygon fill="#6c757d" stroke="#6c757d" points="423.47,-2530.04 429.7,-2526.02 422.32,-2525.28 423.47,-2530.04"/>
</g>
<!-- N21 -->
<g id="node22" class="node">
<title>N21</title>
<path fill="#f8f9fa" stroke="#ced4da" d="M536.38,-2587C536.38,-2587 449.88,-2587 449.88,-2587 443.88,-2587 437.88,-2581 437.88,-2575 437.88,-2575 437.88,-2563 437.88,-2563 437.88,-2557 443.88,-2551 449.88,-2551 449.88,-2551 536.38,-2551 536.38,-2551 542.38,-2551 548.38,-2557 548.38,-2563 548.38,-2563 548.38,-2575 548.38,-2575 548.38,-2581 542.38,-2587 536.38,-2587"/>
<text text-anchor="middle" x="493.12" y="-2566.62" font-family="Helvetica,Arial,sans-serif" font-size="10.00" fill="#212529">📄 prometheus.nix</text>
</g>
<!-- N2&#45;&gt;N21 -->
<g id="edge23" class="edge">
<title>N2&#45;&gt;N21</title>
<path fill="none" stroke="#6c757d" d="M224.85,-3326.53C248.02,-3211.5 371.62,-2598 371.62,-2598 371.62,-2598 400.04,-2591.16 429.27,-2584.13"/>
<polygon fill="#6c757d" stroke="#6c757d" points="429.81,-2586.52 436.04,-2582.5 428.67,-2581.75 429.81,-2586.52"/>
</g>
<!-- N22 -->
<g id="node23" class="node">
<title>N22</title>
<path fill="#f8f9fa" stroke="#ced4da" d="M525.88,-2645C525.88,-2645 460.38,-2645 460.38,-2645 454.38,-2645 448.38,-2639 448.38,-2633 448.38,-2633 448.38,-2621 448.38,-2621 448.38,-2615 454.38,-2609 460.38,-2609 460.38,-2609 525.88,-2609 525.88,-2609 531.88,-2609 537.88,-2615 537.88,-2621 537.88,-2621 537.88,-2633 537.88,-2633 537.88,-2639 531.88,-2645 525.88,-2645"/>
<text text-anchor="middle" x="493.12" y="-2624.62" font-family="Helvetica,Arial,sans-serif" font-size="10.00" fill="#212529">📄 scrutiny.nix</text>
</g>
<!-- N2&#45;&gt;N22 -->
<g id="edge24" class="edge">
<title>N2&#45;&gt;N22</title>
<path fill="none" stroke="#6c757d" d="M225.31,-3326.71C249.61,-3220.44 371.62,-2687 371.62,-2687 371.62,-2687 413.42,-2666.19 447.79,-2649.08"/>
<polygon fill="#6c757d" stroke="#6c757d" points="448.46,-2651.48 453.63,-2646.17 446.27,-2647.09 448.46,-2651.48"/>
</g>
<!-- N23 -->
<g id="node24" class="node">
<title>N23</title>
<path fill="#f8f9fa" stroke="#ced4da" d="M539.75,-2181C539.75,-2181 446.5,-2181 446.5,-2181 440.5,-2181 434.5,-2175 434.5,-2169 434.5,-2169 434.5,-2157 434.5,-2157 434.5,-2151 440.5,-2145 446.5,-2145 446.5,-2145 539.75,-2145 539.75,-2145 545.75,-2145 551.75,-2151 551.75,-2157 551.75,-2157 551.75,-2169 551.75,-2169 551.75,-2175 545.75,-2181 539.75,-2181"/>
<text text-anchor="middle" x="493.12" y="-2160.62" font-family="Helvetica,Arial,sans-serif" font-size="10.00" fill="#212529">📄 uptime&#45;kuma.nix</text>
</g>
<!-- N2&#45;&gt;N23 -->
<g id="edge25" class="edge">
<title>N2&#45;&gt;N23</title>
<path fill="none" stroke="#6c757d" d="M223.49,-3326.89C242.64,-3180.2 371.62,-2192 371.62,-2192 371.62,-2192 398.19,-2185.61 426.37,-2178.82"/>
<polygon fill="#6c757d" stroke="#6c757d" points="426.64,-2181.28 432.87,-2177.26 425.5,-2176.52 426.64,-2181.28"/>
</g>
<!-- N24 -->
<g id="node25" class="node">
<title>N24</title>
<path fill="#f8f9fa" stroke="#ced4da" d="M545.75,-2025C545.75,-2025 440.5,-2025 440.5,-2025 434.5,-2025 428.5,-2019 428.5,-2013 428.5,-2013 428.5,-2001 428.5,-2001 428.5,-1995 434.5,-1989 440.5,-1989 440.5,-1989 545.75,-1989 545.75,-1989 551.75,-1989 557.75,-1995 557.75,-2001 557.75,-2001 557.75,-2013 557.75,-2013 557.75,-2019 551.75,-2025 545.75,-2025"/>
<text text-anchor="middle" x="493.12" y="-2004.62" font-family="Helvetica,Arial,sans-serif" font-size="10.00" fill="#212529">📄 crafty&#45;controller.nix</text>
</g>
<!-- N2&#45;&gt;N24 -->
<g id="edge26" class="edge">
<title>N2&#45;&gt;N24</title>
<path fill="none" stroke="#6c757d" d="M223.2,-3326.99C241.27,-3169.77 371.62,-2036 371.62,-2036 371.62,-2036 394.47,-2030.5 420.27,-2024.29"/>
<polygon fill="#6c757d" stroke="#6c757d" points="420.64,-2026.72 426.87,-2022.7 419.5,-2021.96 420.64,-2026.72"/>
</g>
<!-- N25 -->
<g id="node26" class="node">
<title>N25</title>
<path fill="#f8f9fa" stroke="#ced4da" d="M524.38,-2083C524.38,-2083 461.88,-2083 461.88,-2083 455.88,-2083 449.88,-2077 449.88,-2071 449.88,-2071 449.88,-2059 449.88,-2059 449.88,-2053 455.88,-2047 461.88,-2047 461.88,-2047 524.38,-2047 524.38,-2047 530.38,-2047 536.38,-2053 536.38,-2059 536.38,-2059 536.38,-2071 536.38,-2071 536.38,-2077 530.38,-2083 524.38,-2083"/>
<text text-anchor="middle" x="493.12" y="-2062.62" font-family="Helvetica,Arial,sans-serif" font-size="10.00" fill="#212529">📄 forgejo.nix</text>
</g>
<!-- N2&#45;&gt;N25 -->
<g id="edge27" class="edge">
<title>N2&#45;&gt;N25</title>
<path fill="none" stroke="#6c757d" d="M223.37,-3326.81C242.09,-3175.04 371.62,-2125 371.62,-2125 371.62,-2125 413.42,-2104.19 447.79,-2087.08"/>
<polygon fill="#6c757d" stroke="#6c757d" points="448.46,-2089.48 453.63,-2084.17 446.27,-2085.09 448.46,-2089.48"/>
</g>
<!-- N26 -->
<g id="node27" class="node">
<title>N26</title>
<path fill="#f8f9fa" stroke="#ced4da" d="M533,-1445C533,-1445 453.25,-1445 453.25,-1445 447.25,-1445 441.25,-1439 441.25,-1433 441.25,-1433 441.25,-1421 441.25,-1421 441.25,-1415 447.25,-1409 453.25,-1409 453.25,-1409 533,-1409 533,-1409 539,-1409 545,-1415 545,-1421 545,-1421 545,-1433 545,-1433 545,-1439 539,-1445 533,-1445"/>
<text text-anchor="middle" x="493.12" y="-1424.62" font-family="Helvetica,Arial,sans-serif" font-size="10.00" fill="#212529">📄 homepage.nix</text>
</g>
<!-- N2&#45;&gt;N26 -->
<g id="edge28" class="edge">
<title>N2&#45;&gt;N26</title>
<path fill="none" stroke="#6c757d" d="M222.59,-3326.61C238.11,-3131.86 371.62,-1456 371.62,-1456 371.62,-1456 402.43,-1448.59 432.89,-1441.26"/>
<polygon fill="#6c757d" stroke="#6c757d" points="433.32,-1443.67 439.55,-1439.65 432.17,-1438.91 433.32,-1443.67"/>
</g>
<!-- N27 -->
<g id="node28" class="node">
<title>N27</title>
<path fill="#f8f9fa" stroke="#ced4da" d="M538.25,-1503C538.25,-1503 448,-1503 448,-1503 442,-1503 436,-1497 436,-1491 436,-1491 436,-1479 436,-1479 436,-1473 442,-1467 448,-1467 448,-1467 538.25,-1467 538.25,-1467 544.25,-1467 550.25,-1473 550.25,-1479 550.25,-1479 550.25,-1491 550.25,-1491 550.25,-1497 544.25,-1503 538.25,-1503"/>
<text text-anchor="middle" x="493.12" y="-1482.62" font-family="Helvetica,Arial,sans-serif" font-size="10.00" fill="#212529">📄 local&#45;finance.nix</text>
</g>
<!-- N2&#45;&gt;N27 -->
<g id="edge29" class="edge">
<title>N2&#45;&gt;N27</title>
<path fill="none" stroke="#6c757d" d="M222.64,-3326.58C238.38,-3135.03 371.62,-1514 371.62,-1514 371.62,-1514 399,-1507.41 427.66,-1500.51"/>
<polygon fill="#6c757d" stroke="#6c757d" points="428.05,-1502.94 434.28,-1498.92 426.91,-1498.18 428.05,-1502.94"/>
</g>
<!-- N28 -->
<g id="node29" class="node">
<title>N28</title>
<path fill="#f8f9fa" stroke="#ced4da" d="M516.12,-1561C516.12,-1561 470.12,-1561 470.12,-1561 464.12,-1561 458.12,-1555 458.12,-1549 458.12,-1549 458.12,-1537 458.12,-1537 458.12,-1531 464.12,-1525 470.12,-1525 470.12,-1525 516.12,-1525 516.12,-1525 522.12,-1525 528.12,-1531 528.12,-1537 528.12,-1537 528.12,-1549 528.12,-1549 528.12,-1555 522.12,-1561 516.12,-1561"/>
<text text-anchor="middle" x="493.12" y="-1540.62" font-family="Helvetica,Arial,sans-serif" font-size="10.00" fill="#212529">📄 n8n.nix</text>
</g>
<!-- N2&#45;&gt;N28 -->
<g id="edge30" class="edge">
<title>N2&#45;&gt;N28</title>
<path fill="none" stroke="#6c757d" d="M222.69,-3326.58C238.66,-3138.43 371.62,-1572 371.62,-1572 371.62,-1572 415.05,-1561.55 449.76,-1553.2"/>
<polygon fill="#6c757d" stroke="#6c757d" points="450.21,-1555.61 456.45,-1551.59 449.07,-1550.84 450.21,-1555.61"/>
</g>
<!-- N29 -->
<g id="node30" class="node">
<title>N29</title>
<path fill="#f8f9fa" stroke="#ced4da" d="M522.5,-1619C522.5,-1619 463.75,-1619 463.75,-1619 457.75,-1619 451.75,-1613 451.75,-1607 451.75,-1607 451.75,-1595 451.75,-1595 451.75,-1589 457.75,-1583 463.75,-1583 463.75,-1583 522.5,-1583 522.5,-1583 528.5,-1583 534.5,-1589 534.5,-1595 534.5,-1595 534.5,-1607 534.5,-1607 534.5,-1613 528.5,-1619 522.5,-1619"/>
<text text-anchor="middle" x="493.12" y="-1598.62" font-family="Helvetica,Arial,sans-serif" font-size="10.00" fill="#212529">📄 quartz.nix</text>
</g>
<!-- N2&#45;&gt;N29 -->
<g id="edge31" class="edge">
<title>N2&#45;&gt;N29</title>
<path fill="none" stroke="#6c757d" d="M222.74,-3326.61C238.94,-3142.04 371.62,-1630 371.62,-1630 371.62,-1630 409.98,-1620.77 443.41,-1612.72"/>
<polygon fill="#6c757d" stroke="#6c757d" points="443.63,-1615.19 449.86,-1611.17 442.48,-1610.43 443.63,-1615.19"/>
</g>
<!-- N30 -->
<g id="node31" class="node">
<title>N30</title>
<path fill="#f8f9fa" stroke="#ced4da" d="M521.75,-1677C521.75,-1677 464.5,-1677 464.5,-1677 458.5,-1677 452.5,-1671 452.5,-1665 452.5,-1665 452.5,-1653 452.5,-1653 452.5,-1647 458.5,-1641 464.5,-1641 464.5,-1641 521.75,-1641 521.75,-1641 527.75,-1641 533.75,-1647 533.75,-1653 533.75,-1653 533.75,-1665 533.75,-1665 533.75,-1671 527.75,-1677 521.75,-1677"/>
<text text-anchor="middle" x="493.12" y="-1656.62" font-family="Helvetica,Arial,sans-serif" font-size="10.00" fill="#212529">📄 romm.nix</text>
</g>
<!-- N2&#45;&gt;N30 -->
<g id="edge32" class="edge">
<title>N2&#45;&gt;N30</title>
<path fill="none" stroke="#6c757d" d="M222.79,-3326.67C239.21,-3145.87 371.62,-1688 371.62,-1688 371.62,-1688 410.47,-1678.65 444.05,-1670.57"/>
<polygon fill="#6c757d" stroke="#6c757d" points="444.3,-1673.03 450.53,-1669.01 443.15,-1668.27 444.3,-1673.03"/>
</g>
<!-- N31 -->
<g id="node32" class="node">
<title>N31</title>
<path fill="#f8f9fa" stroke="#ced4da" d="M552.12,-1735C552.12,-1735 434.12,-1735 434.12,-1735 428.12,-1735 422.12,-1729 422.12,-1723 422.12,-1723 422.12,-1711 422.12,-1711 422.12,-1705 428.12,-1699 434.12,-1699 434.12,-1699 552.12,-1699 552.12,-1699 558.12,-1699 564.12,-1705 564.12,-1711 564.12,-1711 564.12,-1723 564.12,-1723 564.12,-1729 558.12,-1735 552.12,-1735"/>
<text text-anchor="middle" x="493.12" y="-1714.62" font-family="Helvetica,Arial,sans-serif" font-size="10.00" fill="#212529">📄 security&#45;watchdog.nix</text>
</g>
<!-- N2&#45;&gt;N31 -->
<g id="edge33" class="edge">
<title>N2&#45;&gt;N31</title>
<path fill="none" stroke="#6c757d" d="M222.84,-3326.77C239.49,-3149.91 371.62,-1746 371.62,-1746 371.62,-1746 390.58,-1741.44 413.45,-1735.93"/>
<polygon fill="#6c757d" stroke="#6c757d" points="413.98,-1738.33 420.21,-1734.31 412.83,-1733.56 413.98,-1738.33"/>
</g>
<!-- N32 -->
<g id="node33" class="node">
<title>N32</title>
<path fill="#f8f9fa" stroke="#ced4da" d="M533.38,-1793C533.38,-1793 452.88,-1793 452.88,-1793 446.88,-1793 440.88,-1787 440.88,-1781 440.88,-1781 440.88,-1769 440.88,-1769 440.88,-1763 446.88,-1757 452.88,-1757 452.88,-1757 533.38,-1757 533.38,-1757 539.38,-1757 545.38,-1763 545.38,-1769 545.38,-1769 545.38,-1781 545.38,-1781 545.38,-1787 539.38,-1793 533.38,-1793"/>
<text text-anchor="middle" x="493.12" y="-1772.62" font-family="Helvetica,Arial,sans-serif" font-size="10.00" fill="#212529">📄 stirling&#45;pdf.nix</text>
</g>
<!-- N2&#45;&gt;N32 -->
<g id="edge34" class="edge">
<title>N2&#45;&gt;N32</title>
<path fill="none" stroke="#6c757d" d="M222.92,-3326.62C239.9,-3152.76 371.62,-1804 371.62,-1804 371.62,-1804 402.21,-1796.64 432.56,-1789.33"/>
<polygon fill="#6c757d" stroke="#6c757d" points="432.97,-1791.76 439.2,-1787.74 431.82,-1786.99 432.97,-1791.76"/>
</g>
<!-- N33 -->
<g id="node34" class="node">
<title>N33</title>
<path fill="#f8f9fa" stroke="#ced4da" d="M516.88,-1851C516.88,-1851 469.38,-1851 469.38,-1851 463.38,-1851 457.38,-1845 457.38,-1839 457.38,-1839 457.38,-1827 457.38,-1827 457.38,-1821 463.38,-1815 469.38,-1815 469.38,-1815 516.88,-1815 516.88,-1815 522.88,-1815 528.88,-1821 528.88,-1827 528.88,-1827 528.88,-1839 528.88,-1839 528.88,-1845 522.88,-1851 516.88,-1851"/>
<text text-anchor="middle" x="493.12" y="-1830.62" font-family="Helvetica,Arial,sans-serif" font-size="10.00" fill="#212529">📄 vert.nix</text>
</g>
<!-- N2&#45;&gt;N33 -->
<g id="edge35" class="edge">
<title>N2&#45;&gt;N33</title>
<path fill="none" stroke="#6c757d" d="M223,-3326.52C240.31,-3155.93 371.62,-1862 371.62,-1862 371.62,-1862 414.27,-1851.74 448.82,-1843.42"/>
<polygon fill="#6c757d" stroke="#6c757d" points="449.24,-1845.84 455.48,-1841.82 448.1,-1841.08 449.24,-1845.84"/>
</g>
<!-- N34 -->
<g id="node35" class="node">
<title>N34</title>
<path fill="#f8f9fa" stroke="#ced4da" d="M524.75,-1909C524.75,-1909 461.5,-1909 461.5,-1909 455.5,-1909 449.5,-1903 449.5,-1897 449.5,-1897 449.5,-1885 449.5,-1885 449.5,-1879 455.5,-1873 461.5,-1873 461.5,-1873 524.75,-1873 524.75,-1873 530.75,-1873 536.75,-1879 536.75,-1885 536.75,-1885 536.75,-1897 536.75,-1897 536.75,-1903 530.75,-1909 524.75,-1909"/>
<text text-anchor="middle" x="493.12" y="-1888.62" font-family="Helvetica,Arial,sans-serif" font-size="10.00" fill="#212529">📄 vikunja.nix</text>
</g>
<!-- N2&#45;&gt;N34 -->
<g id="edge36" class="edge">
<title>N2&#45;&gt;N34</title>
<path fill="none" stroke="#6c757d" d="M223.06,-3326.72C240.59,-3160.73 371.62,-1920 371.62,-1920 371.62,-1920 408.2,-1911.2 441.05,-1903.29"/>
<polygon fill="#6c757d" stroke="#6c757d" points="441.6,-1905.68 447.83,-1901.66 440.45,-1900.92 441.6,-1905.68"/>
</g>
<!-- N35 -->
<g id="node36" class="node">
<title>N35</title>
<path fill="#f8f9fa" stroke="#ced4da" d="M529.62,-1967C529.62,-1967 456.62,-1967 456.62,-1967 450.62,-1967 444.62,-1961 444.62,-1955 444.62,-1955 444.62,-1943 444.62,-1943 444.62,-1937 450.62,-1931 456.62,-1931 456.62,-1931 529.62,-1931 529.62,-1931 535.62,-1931 541.62,-1937 541.62,-1943 541.62,-1943 541.62,-1955 541.62,-1955 541.62,-1961 535.62,-1967 529.62,-1967"/>
<text text-anchor="middle" x="493.12" y="-1946.62" font-family="Helvetica,Arial,sans-serif" font-size="10.00" fill="#212529">📄 wanderer.nix</text>
</g>
<!-- N2&#45;&gt;N35 -->
<g id="edge37" class="edge">
<title>N2&#45;&gt;N35</title>
<path fill="none" stroke="#6c757d" d="M223.14,-3326.71C241,-3164.49 371.62,-1978 371.62,-1978 371.62,-1978 404.71,-1970.04 436.2,-1962.46"/>
<polygon fill="#6c757d" stroke="#6c757d" points="436.45,-1964.92 442.68,-1960.9 435.3,-1960.16 436.45,-1964.92"/>
</g>
<!-- N36 -->
<g id="node37" class="node">
<title>N36</title>
<path fill="#f8f9fa" stroke="#ced4da" d="M530.38,-1231C530.38,-1231 455.88,-1231 455.88,-1231 449.88,-1231 443.88,-1225 443.88,-1219 443.88,-1219 443.88,-1207 443.88,-1207 443.88,-1201 449.88,-1195 455.88,-1195 455.88,-1195 530.38,-1195 530.38,-1195 536.38,-1195 542.38,-1201 542.38,-1207 542.38,-1207 542.38,-1219 542.38,-1219 542.38,-1225 536.38,-1231 530.38,-1231"/>
<text text-anchor="middle" x="493.12" y="-1210.62" font-family="Helvetica,Arial,sans-serif" font-size="10.00" fill="#212529">📄 authentik.nix</text>
</g>
<!-- N2&#45;&gt;N36 -->
<g id="edge38" class="edge">
<title>N2&#45;&gt;N36</title>
<path fill="none" stroke="#6c757d" d="M222.43,-3326.82C237.14,-3121.27 371.62,-1242 371.62,-1242 371.62,-1242 404.25,-1234.15 435.55,-1226.62"/>
<polygon fill="#6c757d" stroke="#6c757d" points="435.76,-1229.09 441.99,-1225.07 434.61,-1224.32 435.76,-1229.09"/>
</g>
<!-- N37 -->
<g id="node38" class="node">
<title>N37</title>
<path fill="#f8f9fa" stroke="#ced4da" d="M521,-1289C521,-1289 465.25,-1289 465.25,-1289 459.25,-1289 453.25,-1283 453.25,-1277 453.25,-1277 453.25,-1265 453.25,-1265 453.25,-1259 459.25,-1253 465.25,-1253 465.25,-1253 521,-1253 521,-1253 527,-1253 533,-1259 533,-1265 533,-1265 533,-1277 533,-1277 533,-1283 527,-1289 521,-1289"/>
<text text-anchor="middle" x="493.12" y="-1268.62" font-family="Helvetica,Arial,sans-serif" font-size="10.00" fill="#212529">📄 caddy.nix</text>
</g>
<!-- N2&#45;&gt;N37 -->
<g id="edge39" class="edge">
<title>N2&#45;&gt;N37</title>
<path fill="none" stroke="#6c757d" d="M222.47,-3326.7C237.41,-3123.67 371.62,-1300 371.62,-1300 371.62,-1300 411.21,-1290.47 445.01,-1282.34"/>
<polygon fill="#6c757d" stroke="#6c757d" points="445.3,-1284.79 451.53,-1280.77 444.15,-1280.03 445.3,-1284.79"/>
</g>
<!-- N38 -->
<g id="node39" class="node">
<title>N38</title>
<path fill="#f8f9fa" stroke="#ced4da" d="M534.12,-1347C534.12,-1347 452.12,-1347 452.12,-1347 446.12,-1347 440.12,-1341 440.12,-1335 440.12,-1335 440.12,-1323 440.12,-1323 440.12,-1317 446.12,-1311 452.12,-1311 452.12,-1311 534.12,-1311 534.12,-1311 540.12,-1311 546.12,-1317 546.12,-1323 546.12,-1323 546.12,-1335 546.12,-1335 546.12,-1341 540.12,-1347 534.12,-1347"/>
<text text-anchor="middle" x="493.12" y="-1326.62" font-family="Helvetica,Arial,sans-serif" font-size="10.00" fill="#212529">📄 cloudflared.nix</text>
</g>
<!-- N2&#45;&gt;N38 -->
<g id="edge40" class="edge">
<title>N2&#45;&gt;N38</title>
<path fill="none" stroke="#6c757d" d="M222.54,-3326.58C237.83,-3127.9 371.62,-1389 371.62,-1389 371.62,-1389 413.42,-1368.19 447.79,-1351.08"/>
<polygon fill="#6c757d" stroke="#6c757d" points="448.46,-1353.48 453.63,-1348.17 446.27,-1349.09 448.46,-1353.48"/>
</g>
<!-- N39 -->
<g id="node40" class="node">
<title>N39</title>
<path fill="#f8f9fa" stroke="#ced4da" d="M555.88,-1115C555.88,-1115 430.38,-1115 430.38,-1115 424.38,-1115 418.38,-1109 418.38,-1103 418.38,-1103 418.38,-1091 418.38,-1091 418.38,-1085 424.38,-1079 430.38,-1079 430.38,-1079 555.88,-1079 555.88,-1079 561.88,-1079 567.88,-1085 567.88,-1091 567.88,-1091 567.88,-1103 567.88,-1103 567.88,-1109 561.88,-1115 555.88,-1115"/>
<text text-anchor="middle" x="493.12" y="-1094.62" font-family="Helvetica,Arial,sans-serif" font-size="10.00" fill="#212529">📄 docker&#45;socket&#45;proxy.nix</text>
</g>
<!-- N2&#45;&gt;N39 -->
<g id="edge41" class="edge">
<title>N2&#45;&gt;N39</title>
<path fill="none" stroke="#6c757d" d="M222.36,-3326.81C236.72,-3115.08 371.62,-1126 371.62,-1126 371.62,-1126 388.79,-1121.87 410.17,-1116.72"/>
<polygon fill="#6c757d" stroke="#6c757d" points="410.51,-1119.16 416.74,-1115.14 409.36,-1114.4 410.51,-1119.16"/>
</g>
<!-- N40 -->
<g id="node41" class="node">
<title>N40</title>
<path fill="#f8f9fa" stroke="#ced4da" d="M519.12,-1173C519.12,-1173 467.12,-1173 467.12,-1173 461.12,-1173 455.12,-1167 455.12,-1161 455.12,-1161 455.12,-1149 455.12,-1149 455.12,-1143 461.12,-1137 467.12,-1137 467.12,-1137 519.12,-1137 519.12,-1137 525.12,-1137 531.12,-1143 531.12,-1149 531.12,-1149 531.12,-1161 531.12,-1161 531.12,-1167 525.12,-1173 519.12,-1173"/>
<text text-anchor="middle" x="493.12" y="-1152.62" font-family="Helvetica,Arial,sans-serif" font-size="10.00" fill="#212529">📄 lldap.nix</text>
</g>
<!-- N2&#45;&gt;N40 -->
<g id="edge42" class="edge">
<title>N2&#45;&gt;N40</title>
<path fill="none" stroke="#6c757d" d="M222.4,-3326.64C237,-3117.1 371.62,-1184 371.62,-1184 371.62,-1184 412.47,-1174.17 446.6,-1165.96"/>
<polygon fill="#6c757d" stroke="#6c757d" points="446.95,-1168.39 453.19,-1164.37 445.81,-1163.63 446.95,-1168.39"/>
</g>
<!-- N45 -->
<g id="node46" class="node">
<title>N45</title>
<path fill="#f8f9fa" stroke="#ced4da" d="M524.38,-607C524.38,-607 461.88,-607 461.88,-607 455.88,-607 449.88,-601 449.88,-595 449.88,-595 449.88,-583 449.88,-583 449.88,-577 455.88,-571 461.88,-571 461.88,-571 524.38,-571 524.38,-571 530.38,-571 536.38,-577 536.38,-583 536.38,-583 536.38,-595 536.38,-595 536.38,-601 530.38,-607 524.38,-607"/>
<text text-anchor="middle" x="493.12" y="-586.62" font-family="Helvetica,Arial,sans-serif" font-size="10.00" fill="#212529">📄 default.nix</text>
</g>
<!-- N2&#45;&gt;N45 -->
<g id="edge43" class="edge">
<title>N2&#45;&gt;N45</title>
<path fill="none" stroke="#6c757d" d="M222.15,-3326.71C235.32,-3090.65 371.62,-649 371.62,-649 371.62,-649 413.42,-628.19 447.79,-611.08"/>
<polygon fill="#6c757d" stroke="#6c757d" points="448.46,-613.48 453.63,-608.17 446.27,-609.09 448.46,-613.48"/>
</g>
<!-- N50 -->
<g id="node51" class="node">
<title>N50</title>
<path fill="#f8f9fa" stroke="#ced4da" d="M518.75,-861C518.75,-861 467.5,-861 467.5,-861 461.5,-861 455.5,-855 455.5,-849 455.5,-849 455.5,-837 455.5,-837 455.5,-831 461.5,-825 467.5,-825 467.5,-825 518.75,-825 518.75,-825 524.75,-825 530.75,-831 530.75,-837 530.75,-837 530.75,-849 530.75,-849 530.75,-855 524.75,-861 518.75,-861"/>
<text text-anchor="middle" x="493.12" y="-840.62" font-family="Helvetica,Arial,sans-serif" font-size="10.00" fill="#212529">📄 base.nix</text>
</g>
<!-- N2&#45;&gt;N50 -->
<g id="edge44" class="edge">
<title>N2&#45;&gt;N50</title>
<path fill="none" stroke="#6c757d" d="M222.25,-3326.52C236.02,-3100.21 371.62,-872 371.62,-872 371.62,-872 412.98,-862.05 447.24,-853.8"/>
<polygon fill="#6c757d" stroke="#6c757d" points="447.61,-856.23 453.84,-852.21 446.47,-851.47 447.61,-856.23"/>
</g>
<!-- N51 -->
<g id="node52" class="node">
<title>N51</title>
<path fill="#f8f9fa" stroke="#ced4da" d="M522.12,-919C522.12,-919 464.12,-919 464.12,-919 458.12,-919 452.12,-913 452.12,-907 452.12,-907 452.12,-895 452.12,-895 452.12,-889 458.12,-883 464.12,-883 464.12,-883 522.12,-883 522.12,-883 528.12,-883 534.12,-889 534.12,-895 534.12,-895 534.12,-907 534.12,-907 534.12,-913 528.12,-919 522.12,-919"/>
<text text-anchor="middle" x="493.12" y="-898.62" font-family="Helvetica,Arial,sans-serif" font-size="10.00" fill="#212529">📄 server.nix</text>
</g>
<!-- N2&#45;&gt;N51 -->
<g id="edge45" class="edge">
<title>N2&#45;&gt;N51</title>
<path fill="none" stroke="#6c757d" d="M222.29,-3326.5C236.3,-3104.61 371.62,-961 371.62,-961 371.62,-961 413.42,-940.19 447.79,-923.08"/>
<polygon fill="#6c757d" stroke="#6c757d" points="448.46,-925.48 453.63,-920.17 446.27,-921.09 448.46,-925.48"/>
</g>
<!-- N53 -->
<g id="node54" class="node">
<title>N53</title>
<path fill="#f8f9fa" stroke="#ced4da" d="M524.38,-705C524.38,-705 461.88,-705 461.88,-705 455.88,-705 449.88,-699 449.88,-693 449.88,-693 449.88,-681 449.88,-681 449.88,-675 455.88,-669 461.88,-669 461.88,-669 524.38,-669 524.38,-669 530.38,-669 536.38,-675 536.38,-681 536.38,-681 536.38,-693 536.38,-693 536.38,-699 530.38,-705 524.38,-705"/>
<text text-anchor="middle" x="493.12" y="-684.62" font-family="Helvetica,Arial,sans-serif" font-size="10.00" fill="#212529">📄 default.nix</text>
</g>
<!-- N2&#45;&gt;N53 -->
<g id="edge46" class="edge">
<title>N2&#45;&gt;N53</title>
<path fill="none" stroke="#6c757d" d="M222.19,-3326.67C235.6,-3095.07 371.62,-747 371.62,-747 371.62,-747 413.42,-726.19 447.79,-709.08"/>
<polygon fill="#6c757d" stroke="#6c757d" points="448.46,-711.48 453.63,-706.17 446.27,-707.09 448.46,-711.48"/>
</g>
<!-- N54 -->
<g id="node55" class="node">
<title>N54</title>
<path fill="#f8f9fa" stroke="#ced4da" d="M524.38,-1017C524.38,-1017 461.88,-1017 461.88,-1017 455.88,-1017 449.88,-1011 449.88,-1005 449.88,-1005 449.88,-993 449.88,-993 449.88,-987 455.88,-981 461.88,-981 461.88,-981 524.38,-981 524.38,-981 530.38,-981 536.38,-987 536.38,-993 536.38,-993 536.38,-1005 536.38,-1005 536.38,-1011 530.38,-1017 524.38,-1017"/>
<text text-anchor="middle" x="493.12" y="-996.62" font-family="Helvetica,Arial,sans-serif" font-size="10.00" fill="#212529">📄 default.nix</text>
</g>
<!-- N2&#45;&gt;N54 -->
<g id="edge47" class="edge">
<title>N2&#45;&gt;N54</title>
<path fill="none" stroke="#6c757d" d="M222.34,-3326.6C236.58,-3110.26 371.62,-1059 371.62,-1059 371.62,-1059 413.42,-1038.19 447.79,-1021.08"/>
<polygon fill="#6c757d" stroke="#6c757d" points="448.46,-1023.48 453.63,-1018.17 446.27,-1019.09 448.46,-1023.48"/>
</g>
<!-- N42 -->
<g id="node43" class="node">
<title>N42</title>
<path fill="#f8f9fa" stroke="#ced4da" d="M563.75,-353C563.75,-353 422.5,-353 422.5,-353 416.5,-353 410.5,-347 410.5,-341 410.5,-341 410.5,-329 410.5,-329 410.5,-323 416.5,-317 422.5,-317 422.5,-317 563.75,-317 563.75,-317 569.75,-317 575.75,-323 575.75,-329 575.75,-329 575.75,-341 575.75,-341 575.75,-347 569.75,-353 563.75,-353"/>
<text text-anchor="middle" x="493.12" y="-332.62" font-family="Helvetica,Arial,sans-serif" font-size="10.00" fill="#212529">📄 hardware&#45;configuration.nix</text>
</g>
<!-- N41&#45;&gt;N42 -->
<g id="edge48" class="edge">
<title>N41&#45;&gt;N42</title>
<path fill="none" stroke="#6c757d" d="M278.27,-335C314.08,-335 361.02,-335 401.79,-335"/>
<polygon fill="#6c757d" stroke="#6c757d" points="401.61,-337.45 408.61,-335 401.61,-332.55 401.61,-337.45"/>
</g>
<!-- N41&#45;&gt;N45 -->
<g id="edge49" class="edge">
<title>N41&#45;&gt;N45</title>
<path fill="none" stroke="#6c757d" d="M233.7,-353.21C269.87,-405.61 371.62,-553 371.62,-553 371.62,-553 408.76,-564.09 441.8,-573.96"/>
<polygon fill="#6c757d" stroke="#6c757d" points="440.78,-576.22 448.19,-575.87 442.19,-571.52 440.78,-576.22"/>
</g>
<!-- N46 -->
<g id="node47" class="node">
<title>N46</title>
<path fill="#f8f9fa" stroke="#ced4da" d="M524.38,-451C524.38,-451 461.88,-451 461.88,-451 455.88,-451 449.88,-445 449.88,-439 449.88,-439 449.88,-427 449.88,-427 449.88,-421 455.88,-415 461.88,-415 461.88,-415 524.38,-415 524.38,-415 530.38,-415 536.38,-421 536.38,-427 536.38,-427 536.38,-439 536.38,-439 536.38,-445 530.38,-451 524.38,-451"/>
<text text-anchor="middle" x="493.12" y="-430.62" font-family="Helvetica,Arial,sans-serif" font-size="10.00" fill="#212529">📄 default.nix</text>
</g>
<!-- N41&#45;&gt;N46 -->
<g id="edge50" class="edge">
<title>N41&#45;&gt;N46</title>
<path fill="none" stroke="#6c757d" d="M265.87,-353.43C310.24,-371.71 371.62,-397 371.62,-397 371.62,-397 408.76,-408.09 441.8,-417.96"/>
<polygon fill="#6c757d" stroke="#6c757d" points="440.78,-420.22 448.19,-419.87 442.19,-415.52 440.78,-420.22"/>
</g>
<!-- N47 -->
<g id="node48" class="node">
<title>N47</title>
<path fill="#f8f9fa" stroke="#ced4da" d="M530.38,-509C530.38,-509 455.88,-509 455.88,-509 449.88,-509 443.88,-503 443.88,-497 443.88,-497 443.88,-485 443.88,-485 443.88,-479 449.88,-473 455.88,-473 455.88,-473 530.38,-473 530.38,-473 536.38,-473 542.38,-479 542.38,-485 542.38,-485 542.38,-497 542.38,-497 542.38,-503 536.38,-509 530.38,-509"/>
<text text-anchor="middle" x="493.12" y="-488.62" font-family="Helvetica,Arial,sans-serif" font-size="10.00" fill="#212529">📄 minecraft.nix</text>
</g>
<!-- N41&#45;&gt;N47 -->
<g id="edge51" class="edge">
<title>N41&#45;&gt;N47</title>
<path fill="none" stroke="#6c757d" d="M243.01,-353.47C284.75,-388.69 371.62,-462 371.62,-462 371.62,-462 404.25,-469.85 435.55,-477.38"/>
<polygon fill="#6c757d" stroke="#6c757d" points="434.61,-479.68 441.99,-478.93 435.76,-474.91 434.61,-479.68"/>
</g>
<!-- N48 -->
<g id="node49" class="node">
<title>N48</title>
<path fill="#f8f9fa" stroke="#ced4da" d="M524.38,-157C524.38,-157 461.88,-157 461.88,-157 455.88,-157 449.88,-151 449.88,-145 449.88,-145 449.88,-133 449.88,-133 449.88,-127 455.88,-121 461.88,-121 461.88,-121 524.38,-121 524.38,-121 530.38,-121 536.38,-127 536.38,-133 536.38,-133 536.38,-145 536.38,-145 536.38,-151 530.38,-157 524.38,-157"/>
<text text-anchor="middle" x="493.12" y="-136.62" font-family="Helvetica,Arial,sans-serif" font-size="10.00" fill="#212529">📄 default.nix</text>
</g>
<!-- N41&#45;&gt;N48 -->
<g id="edge52" class="edge">
<title>N41&#45;&gt;N48</title>
<path fill="none" stroke="#6c757d" d="M241.42,-316.66C282.5,-279.54 371.62,-199 371.62,-199 371.62,-199 413.42,-178.19 447.79,-161.08"/>
<polygon fill="#6c757d" stroke="#6c757d" points="448.46,-163.48 453.63,-158.17 446.27,-159.09 448.46,-163.48"/>
</g>
<!-- N41&#45;&gt;N50 -->
<g id="edge53" class="edge">
<title>N41&#45;&gt;N50</title>
<path fill="none" stroke="#6c757d" d="M226.93,-353.48C254.59,-441.51 371.62,-814 371.62,-814 371.62,-814 412.98,-823.95 447.24,-832.2"/>
<polygon fill="#6c757d" stroke="#6c757d" points="446.47,-834.53 453.84,-833.79 447.61,-829.77 446.47,-834.53"/>
</g>
<!-- N52 -->
<g id="node53" class="node">
<title>N52</title>
<path fill="#f8f9fa" stroke="#ced4da" d="M521.75,-803C521.75,-803 464.5,-803 464.5,-803 458.5,-803 452.5,-797 452.5,-791 452.5,-791 452.5,-779 452.5,-779 452.5,-773 458.5,-767 464.5,-767 464.5,-767 521.75,-767 521.75,-767 527.75,-767 533.75,-773 533.75,-779 533.75,-779 533.75,-791 533.75,-791 533.75,-797 527.75,-803 521.75,-803"/>
<text text-anchor="middle" x="493.12" y="-782.62" font-family="Helvetica,Arial,sans-serif" font-size="10.00" fill="#212529">📄 sound.nix</text>
</g>
<!-- N41&#45;&gt;N52 -->
<g id="edge54" class="edge">
<title>N41&#45;&gt;N52</title>
<path fill="none" stroke="#6c757d" d="M227.79,-353.32C256.91,-433.44 371.62,-749 371.62,-749 371.62,-749 410.47,-760.6 444.05,-770.64"/>
<polygon fill="#6c757d" stroke="#6c757d" points="443.14,-772.92 450.55,-772.58 444.54,-768.23 443.14,-772.92"/>
</g>
<!-- N41&#45;&gt;N53 -->
<g id="edge55" class="edge">
<title>N41&#45;&gt;N53</title>
<path fill="none" stroke="#6c757d" d="M229.87,-353.36C261.99,-420.8 371.62,-651 371.62,-651 371.62,-651 408.76,-662.09 441.8,-671.96"/>
<polygon fill="#6c757d" stroke="#6c757d" points="440.78,-674.22 448.19,-673.87 442.19,-669.52 440.78,-674.22"/>
</g>
<!-- N56 -->
<g id="node57" class="node">
<title>N56</title>
<path fill="#f8f9fa" stroke="#ced4da" d="M524.38,-255C524.38,-255 461.88,-255 461.88,-255 455.88,-255 449.88,-249 449.88,-243 449.88,-243 449.88,-231 449.88,-231 449.88,-225 455.88,-219 461.88,-219 461.88,-219 524.38,-219 524.38,-219 530.38,-219 536.38,-225 536.38,-231 536.38,-231 536.38,-243 536.38,-243 536.38,-249 530.38,-255 524.38,-255"/>
<text text-anchor="middle" x="493.12" y="-234.62" font-family="Helvetica,Arial,sans-serif" font-size="10.00" fill="#212529">📄 default.nix</text>
</g>
<!-- N41&#45;&gt;N56 -->
<g id="edge56" class="edge">
<title>N41&#45;&gt;N56</title>
<path fill="none" stroke="#6c757d" d="M272.1,-316.57C320.61,-299.02 393.18,-272.78 441.56,-255.29"/>
<polygon fill="#6c757d" stroke="#6c757d" points="442.23,-257.65 447.98,-252.96 440.56,-253.04 442.23,-257.65"/>
</g>
<!-- N44 -->
<g id="node45" class="node">
<title>N44</title>
<path fill="#f8f9fa" stroke="#ced4da" d="M563.75,-59C563.75,-59 422.5,-59 422.5,-59 416.5,-59 410.5,-53 410.5,-47 410.5,-47 410.5,-35 410.5,-35 410.5,-29 416.5,-23 422.5,-23 422.5,-23 563.75,-23 563.75,-23 569.75,-23 575.75,-29 575.75,-35 575.75,-35 575.75,-47 575.75,-47 575.75,-53 569.75,-59 563.75,-59"/>
<text text-anchor="middle" x="493.12" y="-38.62" font-family="Helvetica,Arial,sans-serif" font-size="10.00" fill="#212529">📄 hardware&#45;configuration.nix</text>
</g>
<!-- N43&#45;&gt;N44 -->
<g id="edge57" class="edge">
<title>N43&#45;&gt;N44</title>
<path fill="none" stroke="#6c757d" d="M278.27,-41C314.08,-41 361.02,-41 401.79,-41"/>
<polygon fill="#6c757d" stroke="#6c757d" points="401.61,-43.45 408.61,-41 401.61,-38.55 401.61,-43.45"/>
</g>
<!-- N43&#45;&gt;N45 -->
<g id="edge58" class="edge">
<title>N43&#45;&gt;N45</title>
<path fill="none" stroke="#6c757d" d="M226.48,-59.22C253.29,-150.43 371.62,-553 371.62,-553 371.62,-553 408.76,-564.09 441.8,-573.96"/>
<polygon fill="#6c757d" stroke="#6c757d" points="440.78,-576.22 448.19,-575.87 442.19,-571.52 440.78,-576.22"/>
</g>
<!-- N43&#45;&gt;N48 -->
<g id="edge59" class="edge">
<title>N43&#45;&gt;N48</title>
<path fill="none" stroke="#6c757d" d="M265.87,-59.43C310.24,-77.71 371.62,-103 371.62,-103 371.62,-103 408.76,-114.09 441.8,-123.96"/>
<polygon fill="#6c757d" stroke="#6c757d" points="440.78,-126.22 448.19,-125.87 442.19,-121.52 440.78,-126.22"/>
</g>
<!-- N43&#45;&gt;N50 -->
<g id="edge60" class="edge">
<title>N43&#45;&gt;N50</title>
<path fill="none" stroke="#6c757d" d="M226.44,-59.41C243.38,-118.11 295,-297 295,-297 295,-297 371.62,-814 371.62,-814 371.62,-814 412.98,-823.95 447.24,-832.2"/>
<polygon fill="#6c757d" stroke="#6c757d" points="446.47,-834.53 453.84,-833.79 447.61,-829.77 446.47,-834.53"/>
</g>
<!-- N43&#45;&gt;N52 -->
<g id="edge61" class="edge">
<title>N43&#45;&gt;N52</title>
<path fill="none" stroke="#6c757d" d="M226.44,-59.41C243.38,-118.11 295,-297 295,-297 295,-297 371.62,-749 371.62,-749 371.62,-749 410.47,-760.6 444.05,-770.64"/>
<polygon fill="#6c757d" stroke="#6c757d" points="443.14,-772.92 450.55,-772.58 444.54,-768.23 443.14,-772.92"/>
</g>
<!-- N43&#45;&gt;N53 -->
<g id="edge62" class="edge">
<title>N43&#45;&gt;N53</title>
<path fill="none" stroke="#6c757d" d="M226.44,-59.41C243.38,-118.11 295,-297 295,-297 295,-297 371.62,-651 371.62,-651 371.62,-651 408.76,-662.09 441.8,-671.96"/>
<polygon fill="#6c757d" stroke="#6c757d" points="440.78,-674.22 448.19,-673.87 442.19,-669.52 440.78,-674.22"/>
</g>
<!-- N43&#45;&gt;N56 -->
<g id="edge63" class="edge">
<title>N43&#45;&gt;N56</title>
<path fill="none" stroke="#6c757d" d="M238.39,-59.35C277.92,-101.38 371.62,-201 371.62,-201 371.62,-201 408.76,-212.09 441.8,-221.96"/>
<polygon fill="#6c757d" stroke="#6c757d" points="440.78,-224.22 448.19,-223.87 442.19,-219.52 440.78,-224.22"/>
</g>
<!-- N49 -->
<g id="node50" class="node">
<title>N49</title>
<path fill="#f8f9fa" stroke="#ced4da" d="M806.88,-861C806.88,-861 698.62,-861 698.62,-861 692.62,-861 686.62,-855 686.62,-849 686.62,-849 686.62,-837 686.62,-837 686.62,-831 692.62,-825 698.62,-825 698.62,-825 806.88,-825 806.88,-825 812.88,-825 818.88,-831 818.88,-837 818.88,-837 818.88,-849 818.88,-849 818.88,-855 812.88,-861 806.88,-861"/>
<text text-anchor="middle" x="752.75" y="-840.62" font-family="Helvetica,Arial,sans-serif" font-size="10.00" fill="#212529">📄 architecture&#45;dag.nix</text>
</g>
<!-- N50&#45;&gt;N49 -->
<g id="edge64" class="edge">
<title>N50&#45;&gt;N49</title>
<path fill="none" stroke="#6c757d" d="M531.04,-843C569.16,-843 629.71,-843 677.75,-843"/>
<polygon fill="#6c757d" stroke="#6c757d" points="677.75,-845.45 684.75,-843 677.75,-840.55 677.75,-845.45"/>
</g>
<!-- N55 -->
<g id="node56" class="node">
<title>N55</title>
<path fill="#f8f9fa" stroke="#ced4da" d="M780.62,-1017C780.62,-1017 724.88,-1017 724.88,-1017 718.88,-1017 712.88,-1011 712.88,-1005 712.88,-1005 712.88,-993 712.88,-993 712.88,-987 718.88,-981 724.88,-981 724.88,-981 780.62,-981 780.62,-981 786.62,-981 792.62,-987 792.62,-993 792.62,-993 792.62,-1005 792.62,-1005 792.62,-1011 786.62,-1017 780.62,-1017"/>
<text text-anchor="middle" x="752.75" y="-996.62" font-family="Helvetica,Arial,sans-serif" font-size="10.00" fill="#212529">📄 home.nix</text>
</g>
<!-- N54&#45;&gt;N55 -->
<g id="edge65" class="edge">
<title>N54&#45;&gt;N55</title>
<path fill="none" stroke="#6c757d" d="M536.67,-999C582.78,-999 656.18,-999 704.17,-999"/>
<polygon fill="#6c757d" stroke="#6c757d" points="704.01,-1001.45 711.01,-999 704.01,-996.55 704.01,-1001.45"/>
</g>
<!-- N57 -->
<g id="node58" class="node">
<title>N57</title>
<path fill="#f8f9fa" stroke="#ced4da" d="M780.62,-255C780.62,-255 724.88,-255 724.88,-255 718.88,-255 712.88,-249 712.88,-243 712.88,-243 712.88,-231 712.88,-231 712.88,-225 718.88,-219 724.88,-219 724.88,-219 780.62,-219 780.62,-219 786.62,-219 792.62,-225 792.62,-231 792.62,-231 792.62,-243 792.62,-243 792.62,-249 786.62,-255 780.62,-255"/>
<text text-anchor="middle" x="752.75" y="-234.62" font-family="Helvetica,Arial,sans-serif" font-size="10.00" fill="#212529">📄 home.nix</text>
</g>
<!-- N56&#45;&gt;N57 -->
<g id="edge66" class="edge">
<title>N56&#45;&gt;N57</title>
<path fill="none" stroke="#6c757d" d="M536.67,-237C582.78,-237 656.18,-237 704.17,-237"/>
<polygon fill="#6c757d" stroke="#6c757d" points="704.01,-239.45 711.01,-237 704.01,-234.55 704.01,-239.45"/>
</g>
</g>
</svg>
