<?xml version="1.0" encoding="UTF-8" standalone="no"?>
<!DOCTYPE svg PUBLIC "-//W3C//DTD SVG 1.1//EN"
 "http://www.w3.org/Graphics/SVG/1.1/DTD/svg11.dtd">
<!-- Generated by graphviz version 12.2.1 (0)
 -->
<!-- Title: NixOS Pages: 1 -->
<svg width="850pt" height="3632pt"
 viewBox="0.00 0.00 849.88 3632.00" xmlns="http://www.w3.org/2000/svg" xmlns:xlink="http://www.w3.org/1999/xlink">
<g id="graph0" class="graph" transform="scale(1 1) rotate(0) translate(4 3628)">
<title>NixOS</title>
<polygon fill="white" stroke="none" points="-4,4 -4,-3628 845.88,-3628 845.88,4 -4,4"/>
<g id="clust1" class="cluster">
<title>cluster_hosts_devcontainer</title>
<path fill="#e9ecef" stroke="#adb5bd" d="M158.25,-3526C158.25,-3526 283,-3526 283,-3526 289,-3526 295,-3532 295,-3538 295,-3538 295,-3604 295,-3604 295,-3610 289,-3616 283,-3616 283,-3616 158.25,-3616 158.25,-3616 152.25,-3616 146.25,-3610 146.25,-3604 146.25,-3604 146.25,-3538 146.25,-3538 146.25,-3532 152.25,-3526 158.25,-3526"/>
<text text-anchor="middle" x="220.62" y="-3600.6" font-family="Helvetica,sans-Serif" font-weight="bold" font-size="12.00" fill="#495057">📁 hosts/devcontainer</text>
</g>
<g id="clust2" class="cluster">
<title>cluster_hosts_homelab</title>
<path fill="#e9ecef" stroke="#adb5bd" d="M159.25,-3370C159.25,-3370 578.75,-3370 578.75,-3370 584.75,-3370 590.75,-3376 590.75,-3382 590.75,-3382 590.75,-3506 590.75,-3506 590.75,-3512 584.75,-3518 578.75,-3518 578.75,-3518 159.25,-3518 159.25,-3518 153.25,-3518 147.25,-3512 147.25,-3506 147.25,-3506 147.25,-3382 147.25,-3382 147.25,-3376 153.25,-3370 159.25,-3370"/>
<text text-anchor="middle" x="369" y="-3502.6" font-family="Helvetica,sans-Serif" font-weight="bold" font-size="12.00" fill="#495057">📁 hosts/homelab</text>
</g>
<g id="clust3" class="cluster">
<title>cluster_hosts_homelab_services_media</title>
<path fill="#e9ecef" stroke="#adb5bd" d="M397.5,-2750C397.5,-2750 589.75,-2750 589.75,-2750 595.75,-2750 601.75,-2756 601.75,-2762 601.75,-2762 601.75,-3350 601.75,-3350 601.75,-3356 595.75,-3362 589.75,-3362 589.75,-3362 397.5,-3362 397.5,-3362 391.5,-3362 385.5,-3356 385.5,-3350 385.5,-3350 385.5,-2762 385.5,-2762 385.5,-2756 391.5,-2750 397.5,-2750"/>
<text text-anchor="middle" x="493.62" y="-3346.6" font-family="Helvetica,sans-Serif" font-weight="bold" font-size="12.00" fill="#495057">📁 hosts/homelab/services/media</text>
</g>
<g id="clust4" class="cluster">
<title>cluster_hosts_homelab_services_monitoring</title>
<path fill="#e9ecef" stroke="#adb5bd" d="M383.62,-2188C383.62,-2188 603.62,-2188 603.62,-2188 609.62,-2188 615.62,-2194 615.62,-2200 615.62,-2200 615.62,-2730 615.62,-2730 615.62,-2736 609.62,-2742 603.62,-2742 603.62,-2742 383.62,-2742 383.62,-2742 377.62,-2742 371.62,-2736 371.62,-2730 371.62,-2730 371.62,-2200 371.62,-2200 371.62,-2194 377.62,-2188 383.62,-2188"/>
<text text-anchor="middle" x="493.62" y="-2726.6" font-family="Helvetica,sans-Serif" font-weight="bold" font-size="12.00" fill="#495057">📁 hosts/homelab/services/monitoring</text>
</g>
<g id="clust5" class="cluster">
<title>cluster_hosts_homelab_services_random</title>
<path fill="#e9ecef" stroke="#adb5bd" d="M392.62,-1452C392.62,-1452 594.62,-1452 594.62,-1452 600.62,-1452 606.62,-1458 606.62,-1464 606.62,-1464 606.62,-2168 606.62,-2168 606.62,-2174 600.62,-2180 594.62,-2180 594.62,-2180 392.62,-2180 392.62,-2180 386.62,-2180 380.62,-2174 380.62,-2168 380.62,-2168 380.62,-1464 380.62,-1464 380.62,-1458 386.62,-1452 392.62,-1452"/>
<text text-anchor="middle" x="493.62" y="-2164.6" font-family="Helvetica,sans-Serif" font-weight="bold" font-size="12.00" fill="#495057">📁 hosts/homelab/services/random</text>
</g>
<g id="clust6" class="cluster">
<title>cluster_hosts_homelab_services_security</title>
<path fill="#e9ecef" stroke="#adb5bd" d="M392.62,-1064C392.62,-1064 594.62,-1064 594.62,-1064 600.62,-1064 606.62,-1070 606.62,-1076 606.62,-1076 606.62,-1432 606.62,-1432 606.62,-1438 600.62,-1444 594.62,-1444 594.62,-1444 392.62,-1444 392.62,-1444 386.62,-1444 380.62,-1438 380.62,-1432 380.62,-1432 380.62,-1076 380.62,-1076 380.62,-1070 386.62,-1064 392.62,-1064"/>
<text text-anchor="middle" x="493.62" y="-1428.6" font-family="Helvetica,sans-Serif" font-weight="bold" font-size="12.00" fill="#495057">📁 hosts/homelab/services/security</text>
</g>
<g id="clust7" class="cluster">
<title>cluster_hosts_perso</title>
<path fill="#e9ecef" stroke="#adb5bd" d="M159.25,-302C159.25,-302 578.75,-302 578.75,-302 584.75,-302 590.75,-308 590.75,-314 590.75,-314 590.75,-380 590.75,-380 590.75,-386 584.75,-392 578.75,-392 578.75,-392 159.25,-392 159.25,-392 153.25,-392 147.25,-386 147.25,-380 147.25,-380 147.25,-314 147.25,-314 147.25,-308 153.25,-302 159.25,-302"/>
<text text-anchor="middle" x="369" y="-376.6" font-family="Helvetica,sans-Serif" font-weight="bold" font-size="12.00" fill="#495057">📁 hosts/perso</text>
</g>
<g id="clust8" class="cluster">
<title>cluster_hosts_portable</title>
<path fill="#e9ecef" stroke="#adb5bd" d="M159.25,-8C159.25,-8 578.75,-8 578.75,-8 584.75,-8 590.75,-14 590.75,-20 590.75,-20 590.75,-86 590.75,-86 590.75,-92 584.75,-98 578.75,-98 578.75,-98 159.25,-98 159.25,-98 153.25,-98 147.25,-92 147.25,-86 147.25,-86 147.25,-20 147.25,-20 147.25,-14 153.25,-8 159.25,-8"/>
<text text-anchor="middle" x="369" y="-82.6" font-family="Helvetica,sans-Serif" font-weight="bold" font-size="12.00" fill="#495057">📁 hosts/portable</text>
</g>
<g id="clust9" class="cluster">
<title>cluster_modules_dev</title>
<path fill="#e9ecef" stroke="#adb5bd" d="M446.88,-556C446.88,-556 539.38,-556 539.38,-556 545.38,-556 551.38,-562 551.38,-568 551.38,-568 551.38,-634 551.38,-634 551.38,-640 545.38,-646 539.38,-646 539.38,-646 446.88,-646 446.88,-646 440.88,-646 434.88,-640 434.88,-634 434.88,-634 434.88,-568 434.88,-568 434.88,-562 440.88,-556 446.88,-556"/>
<text text-anchor="middle" x="493.12" y="-630.6" font-family="Helvetica,sans-Serif" font-weight="bold" font-size="12.00" fill="#495057">📁 modules/dev</text>
</g>
<g id="clust10" class="cluster">
<title>cluster_modules_gaming</title>
<path fill="#e9ecef" stroke="#adb5bd" d="M438.38,-400C438.38,-400 548.88,-400 548.88,-400 554.88,-400 560.88,-406 560.88,-412 560.88,-412 560.88,-536 560.88,-536 560.88,-542 554.88,-548 548.88,-548 548.88,-548 438.38,-548 438.38,-548 432.38,-548 426.38,-542 426.38,-536 426.38,-536 426.38,-412 426.38,-412 426.38,-406 432.38,-400 438.38,-400"/>
<text text-anchor="middle" x="493.62" y="-532.6" font-family="Helvetica,sans-Serif" font-weight="bold" font-size="12.00" fill="#495057">📁 modules/gaming</text>
</g>
<g id="clust11" class="cluster">
<title>cluster_modules_hyprland</title>
<path fill="#e9ecef" stroke="#adb5bd" d="M434.62,-106C434.62,-106 552.62,-106 552.62,-106 558.62,-106 564.62,-112 564.62,-118 564.62,-118 564.62,-184 564.62,-184 564.62,-190 558.62,-196 552.62,-196 552.62,-196 434.62,-196 434.62,-196 428.62,-196 422.62,-190 422.62,-184 422.62,-184 422.62,-118 422.62,-118 422.62,-112 428.62,-106 434.62,-106"/>
<text text-anchor="middle" x="493.62" y="-180.6" font-family="Helvetica,sans-Serif" font-weight="bold" font-size="12.00" fill="#495057">📁 modules/hyprland</text>
</g>
<g id="clust12" class="cluster">
<title>cluster_modules_nixos</title>
<path fill="#e9ecef" stroke="#adb5bd" d="M449.12,-752C449.12,-752 821.88,-752 821.88,-752 827.88,-752 833.88,-758 833.88,-764 833.88,-764 833.88,-946 833.88,-946 833.88,-952 827.88,-958 821.88,-958 821.88,-958 449.12,-958 449.12,-958 443.12,-958 437.12,-952 437.12,-946 437.12,-946 437.12,-764 437.12,-764 437.12,-758 443.12,-752 449.12,-752"/>
<text text-anchor="middle" x="635.5" y="-942.6" font-family="Helvetica,sans-Serif" font-weight="bold" font-size="12.00" fill="#495057">📁 modules/nixos</text>
</g>
<g id="clust13" class="cluster">
<title>cluster_modules_terminal</title>
<path fill="#e9ecef" stroke="#adb5bd" d="M436.12,-654C436.12,-654 551.12,-654 551.12,-654 557.12,-654 563.12,-660 563.12,-666 563.12,-666 563.12,-732 563.12,-732 563.12,-738 557.12,-744 551.12,-744 551.12,-744 436.12,-744 436.12,-744 430.12,-744 424.12,-738 424.12,-732 424.12,-732 424.12,-666 424.12,-666 424.12,-660 430.12,-654 436.12,-654"/>
<text text-anchor="middle" x="493.62" y="-728.6" font-family="Helvetica,sans-Serif" font-weight="bold" font-size="12.00" fill="#495057">📁 modules/terminal</text>
</g>
<g id="clust14" class="cluster">
<title>cluster_users_arthur_homelab</title>
<path fill="#e9ecef" stroke="#adb5bd" d="M446.88,-966C446.88,-966 795.62,-966 795.62,-966 801.62,-966 807.62,-972 807.62,-978 807.62,-978 807.62,-1044 807.62,-1044 807.62,-1050 801.62,-1056 795.62,-1056 795.62,-1056 446.88,-1056 446.88,-1056 440.88,-1056 434.88,-1050 434.88,-1044 434.88,-1044 434.88,-978 434.88,-978 434.88,-972 440.88,-966 446.88,-966"/>
<text text-anchor="middle" x="621.25" y="-1040.6" font-family="Helvetica,sans-Serif" font-weight="bold" font-size="12.00" fill="#495057">📁 users/arthur&#45;homelab</text>
</g>
<g id="clust15" class="cluster">
<title>cluster_users_arthur_perso</title>
<path fill="#e9ecef" stroke="#adb5bd" d="M446.88,-204C446.88,-204 795.62,-204 795.62,-204 801.62,-204 807.62,-210 807.62,-216 807.62,-216 807.62,-282 807.62,-282 807.62,-288 801.62,-294 795.62,-294 795.62,-294 446.88,-294 446.88,-294 440.88,-294 434.88,-288 434.88,-282 434.88,-282 434.88,-216 434.88,-216 434.88,-210 440.88,-204 446.88,-204"/>
<text text-anchor="middle" x="621.25" y="-278.6" font-family="Helvetica,sans-Serif" font-weight="bold" font-size="12.00" fill="#495057">📁 users/arthur&#45;perso</text>
</g>
<!-- N0 -->
<g id="node1" class="node">
<title>N0</title>
<path fill="#f8f9fa" stroke="#ced4da" d="M63.25,-3421C63.25,-3421 12,-3421 12,-3421 6,-3421 0,-3415 0,-3409 0,-3409 0,-3397 0,-3397 0,-3391 6,-3385 12,-3385 12,-3385 63.25,-3385 63.25,-3385 69.25,-3385 75.25,-3391 75.25,-3397 75.25,-3397 75.25,-3409 75.25,-3409 75.25,-3415 69.25,-3421 63.25,-3421"/>
<text text-anchor="middle" x="37.62" y="-3400.62" font-family="Helvetica,Arial,sans-serif" font-size="10.00" fill="#212529">📄 flake.nix</text>
</g>
<!-- N1 -->
<g id="node2" class="node">
<title>N1</title>
<path fill="#f8f9fa" stroke="#ced4da" d="M251.38,-3577C251.38,-3577 188.88,-3577 188.88,-3577 182.88,-3577 176.88,-3571 176.88,-3565 176.88,-3565 176.88,-3553 176.88,-3553 176.88,-3547 182.88,-3541 188.88,-3541 188.88,-3541 251.38,-3541 251.38,-3541 257.38,-3541 263.38,-3547 263.38,-3553 263.38,-3553 263.38,-3565 263.38,-3565 263.38,-3571 257.38,-3577 251.38,-3577"/>
<text text-anchor="middle" x="220.12" y="-3556.62" font-family="Helvetica,Arial,sans-serif" font-size="10.00" fill="#212529">📄 default.nix</text>
</g>
<!-- N0&#45;&gt;N1 -->
<g id="edge1" class="edge">
<title>N0&#45;&gt;N1</title>
<path fill="none" stroke="#6c757d" d="M55.21,-3421.49C85.4,-3455.15 146.25,-3523 146.25,-3523 146.25,-3523 159.29,-3529.44 174.33,-3536.87"/>
<polygon fill="#6c757d" stroke="#6c757d" points="173.12,-3539 180.48,-3539.91 175.29,-3534.61 173.12,-3539"/>
</g>
<!-- N2 -->
<g id="node3" class="node">
<title>N2</title>
<path fill="#f8f9fa" stroke="#ced4da" d="M266,-3421C266,-3421 174.25,-3421 174.25,-3421 168.25,-3421 162.25,-3415 162.25,-3409 162.25,-3409 162.25,-3397 162.25,-3397 162.25,-3391 168.25,-3385 174.25,-3385 174.25,-3385 266,-3385 266,-3385 272,-3385 278,-3391 278,-3397 278,-3397 278,-3409 278,-3409 278,-3415 272,-3421 266,-3421"/>
<text text-anchor="middle" x="220.12" y="-3400.62" font-family="Helvetica,Arial,sans-serif" font-size="10.00" fill="#212529">📄 configuration.nix</text>
</g>
<!-- N0&#45;&gt;N2 -->
<g id="edge2" class="edge">
<title>N0&#45;&gt;N2</title>
<path fill="none" stroke="#6c757d" d="M75.59,-3403C98.02,-3403 127.29,-3403 153.54,-3403"/>
<polygon fill="#6c757d" stroke="#6c757d" points="153.43,-3405.45 160.43,-3403 153.43,-3400.55 153.43,-3405.45"/>
</g>
<!-- N3 -->
<g id="node4" class="node">
<title>N3</title>
<path fill="#f8f9fa" stroke="#ced4da" d="M257.75,-3479C257.75,-3479 182.5,-3479 182.5,-3479 176.5,-3479 170.5,-3473 170.5,-3467 170.5,-3467 170.5,-3455 170.5,-3455 170.5,-3449 176.5,-3443 182.5,-3443 182.5,-3443 257.75,-3443 257.75,-3443 263.75,-3443 269.75,-3449 269.75,-3455 269.75,-3455 269.75,-3467 269.75,-3467 269.75,-3473 263.75,-3479 257.75,-3479"/>
<text text-anchor="middle" x="220.12" y="-3458.62" font-family="Helvetica,Arial,sans-serif" font-size="10.00" fill="#212529">📄 constants.nix</text>
</g>
<!-- N0&#45;&gt;N3 -->
<g id="edge3" class="edge">
<title>N0&#45;&gt;N3</title>
<path fill="none" stroke="#6c757d" d="M75.59,-3414.88C100.57,-3422.9 134.04,-3433.66 162.38,-3442.77"/>
<polygon fill="#6c757d" stroke="#6c757d" points="161.37,-3445.01 168.78,-3444.82 162.87,-3440.35 161.37,-3445.01"/>
</g>
<!-- N42 -->
<g id="node43" class="node">
<title>N42</title>
<path fill="#f8f9fa" stroke="#ced4da" d="M266,-353C266,-353 174.25,-353 174.25,-353 168.25,-353 162.25,-347 162.25,-341 162.25,-341 162.25,-329 162.25,-329 162.25,-323 168.25,-317 174.25,-317 174.25,-317 266,-317 266,-317 272,-317 278,-323 278,-329 278,-329 278,-341 278,-341 278,-347 272,-353 266,-353"/>
<text text-anchor="middle" x="220.12" y="-332.62" font-family="Helvetica,Arial,sans-serif" font-size="10.00" fill="#212529">📄 configuration.nix</text>
</g>
<!-- N0&#45;&gt;N42 -->
<g id="edge4" class="edge">
<title>N0&#45;&gt;N42</title>
<path fill="none" stroke="#6c757d" d="M39.71,-3384.6C53.79,-3145.2 200.82,-646.15 217.57,-361.38"/>
<polygon fill="#6c757d" stroke="#6c757d" points="220,-361.89 217.96,-354.76 215.11,-361.6 220,-361.89"/>
</g>
<!-- N44 -->
<g id="node45" class="node">
<title>N44</title>
<path fill="#f8f9fa" stroke="#ced4da" d="M266,-59C266,-59 174.25,-59 174.25,-59 168.25,-59 162.25,-53 162.25,-47 162.25,-47 162.25,-35 162.25,-35 162.25,-29 168.25,-23 174.25,-23 174.25,-23 266,-23 266,-23 272,-23 278,-29 278,-35 278,-35 278,-47 278,-47 278,-53 272,-59 266,-59"/>
<text text-anchor="middle" x="220.12" y="-38.62" font-family="Helvetica,Arial,sans-serif" font-size="10.00" fill="#212529">📄 configuration.nix</text>
</g>
<!-- N0&#45;&gt;N44 -->
<g id="edge5" class="edge">
<title>N0&#45;&gt;N44</title>
<path fill="none" stroke="#6c757d" d="M39.26,-3384.76C48.08,-3130.21 146.25,-297 146.25,-297 146.25,-297 193.08,-132.48 211.66,-67.22"/>
<polygon fill="#6c757d" stroke="#6c757d" points="213.91,-68.27 213.47,-60.87 209.2,-66.93 213.91,-68.27"/>
</g>
<!-- N4 -->
<g id="node5" class="node">
<title>N4</title>
<path fill="#f8f9fa" stroke="#ced4da" d="M563.75,-3421C563.75,-3421 422.5,-3421 422.5,-3421 416.5,-3421 410.5,-3415 410.5,-3409 410.5,-3409 410.5,-3397 410.5,-3397 410.5,-3391 416.5,-3385 422.5,-3385 422.5,-3385 563.75,-3385 563.75,-3385 569.75,-3385 575.75,-3391 575.75,-3397 575.75,-3397 575.75,-3409 575.75,-3409 575.75,-3415 569.75,-3421 563.75,-3421"/>
<text text-anchor="middle" x="493.12" y="-3400.62" font-family="Helvetica,Arial,sans-serif" font-size="10.00" fill="#212529">📄 hardware&#45;configuration.nix</text>
</g>
<!-- N2&#45;&gt;N4 -->
<g id="edge6" class="edge">
<title>N2&#45;&gt;N4</title>
<path fill="none" stroke="#6c757d" d="M278.27,-3403C314.08,-3403 361.02,-3403 401.79,-3403"/>
<polygon fill="#6c757d" stroke="#6c757d" points="401.61,-3405.45 408.61,-3403 401.61,-3400.55 401.61,-3405.45"/>
</g>
<!-- N5 -->
<g id="node6" class="node">
<title>N5</title>
<path fill="#f8f9fa" stroke="#ced4da" d="M522.5,-2801C522.5,-2801 463.75,-2801 463.75,-2801 457.75,-2801 451.75,-2795 451.75,-2789 451.75,-2789 451.75,-2777 451.75,-2777 451.75,-2771 457.75,-2765 463.75,-2765 463.75,-2765 522.5,-2765 522.5,-2765 528.5,-2765 534.5,-2771 534.5,-2777 534.5,-2777 534.5,-2789 534.5,-2789 534.5,-2795 528.5,-2801 522.5,-2801"/>
<text text-anchor="middle" x="493.12" y="-2780.62" font-family="Helvetica,Arial,sans-serif" font-size="10.00" fill="#212529">📄 byparr.nix</text>
</g>
<!-- N2&#45;&gt;N5 -->
<g id="edge7" class="edge">
<title>N2&#45;&gt;N5</title>
<path fill="none" stroke="#6c757d" d="M225.79,-3384.66C251.2,-3284.91 371.62,-2812 371.62,-2812 371.62,-2812 409.98,-2802.77 443.41,-2794.72"/>
<polygon fill="#6c757d" stroke="#6c757d" points="443.63,-2797.19 449.86,-2793.17 442.48,-2792.43 443.63,-2797.19"/>
</g>
<!-- N6 -->
<g id="node7" class="node">
<title>N6</title>
<path fill="#f8f9fa" stroke="#ced4da" d="M557.75,-2859C557.75,-2859 428.5,-2859 428.5,-2859 422.5,-2859 416.5,-2853 416.5,-2847 416.5,-2847 416.5,-2835 416.5,-2835 416.5,-2829 422.5,-2823 428.5,-2823 428.5,-2823 557.75,-2823 557.75,-2823 563.75,-2823 569.75,-2829 569.75,-2835 569.75,-2835 569.75,-2847 569.75,-2847 569.75,-2853 563.75,-2859 557.75,-2859"/>
<text text-anchor="middle" x="493.12" y="-2838.62" font-family="Helvetica,Arial,sans-serif" font-size="10.00" fill="#212529">📄 filebrowser&#45;quantum.nix</text>
</g>
<!-- N2&#45;&gt;N6 -->
<g id="edge8" class="edge">
<title>N2&#45;&gt;N6</title>
<path fill="none" stroke="#6c757d" d="M226.31,-3384.65C252.77,-3290.93 371.62,-2870 371.62,-2870 371.62,-2870 387.72,-2866.13 408.14,-2861.21"/>
<polygon fill="#6c757d" stroke="#6c757d" points="408.45,-2863.66 414.68,-2859.64 407.3,-2858.89 408.45,-2863.66"/>
</g>
<!-- N7 -->
<g id="node8" class="node">
<title>N7</title>
<path fill="#f8f9fa" stroke="#ced4da" d="M525.5,-2917C525.5,-2917 460.75,-2917 460.75,-2917 454.75,-2917 448.75,-2911 448.75,-2905 448.75,-2905 448.75,-2893 448.75,-2893 448.75,-2887 454.75,-2881 460.75,-2881 460.75,-2881 525.5,-2881 525.5,-2881 531.5,-2881 537.5,-2887 537.5,-2893 537.5,-2893 537.5,-2905 537.5,-2905 537.5,-2911 531.5,-2917 525.5,-2917"/>
<text text-anchor="middle" x="493.12" y="-2896.62" font-family="Helvetica,Arial,sans-serif" font-size="10.00" fill="#212529">📄 immich.nix</text>
</g>
<!-- N2&#45;&gt;N7 -->
<g id="edge9" class="edge">
<title>N2&#45;&gt;N7</title>
<path fill="none" stroke="#6c757d" d="M226.93,-3384.67C254.59,-3297.38 371.62,-2928 371.62,-2928 371.62,-2928 407.49,-2919.37 440.09,-2911.52"/>
<polygon fill="#6c757d" stroke="#6c757d" points="440.58,-2913.93 446.81,-2909.91 439.43,-2909.16 440.58,-2913.93"/>
</g>
<!-- N8 -->
<g id="node9" class="node">
<title>N8</title>
<path fill="#f8f9fa" stroke="#ced4da" d="M523.62,-2975C523.62,-2975 462.62,-2975 462.62,-2975 456.62,-2975 450.62,-2969 450.62,-2963 450.62,-2963 450.62,-2951 450.62,-2951 450.62,-2945 456.62,-2939 462.62,-2939 462.62,-2939 523.62,-2939 523.62,-2939 529.62,-2939 535.62,-2945 535.62,-2951 535.62,-2951 535.62,-2963 535.62,-2963 535.62,-2969 529.62,-2975 523.62,-2975"/>
<text text-anchor="middle" x="493.12" y="-2954.62" font-family="Helvetica,Arial,sans-serif" font-size="10.00" fill="#212529">📄 komga.nix</text>
</g>
<!-- N2&#45;&gt;N8 -->
<g id="edge10" class="edge">
<title>N2&#45;&gt;N8</title>
<path fill="none" stroke="#6c757d" d="M227.79,-3384.54C256.91,-3303.84 371.62,-2986 371.62,-2986 371.62,-2986 409.24,-2976.95 442.44,-2968.96"/>
<polygon fill="#6c757d" stroke="#6c757d" points="442.61,-2971.44 448.85,-2967.42 441.47,-2966.67 442.61,-2971.44"/>
</g>
<!-- N9 -->
<g id="node10" class="node">
<title>N9</title>
<path fill="#f8f9fa" stroke="#ced4da" d="M531.12,-3033C531.12,-3033 455.12,-3033 455.12,-3033 449.12,-3033 443.12,-3027 443.12,-3021 443.12,-3021 443.12,-3009 443.12,-3009 443.12,-3003 449.12,-2997 455.12,-2997 455.12,-2997 531.12,-2997 531.12,-2997 537.12,-2997 543.12,-3003 543.12,-3009 543.12,-3009 543.12,-3021 543.12,-3021 543.12,-3027 537.12,-3033 531.12,-3033"/>
<text text-anchor="middle" x="493.12" y="-3012.62" font-family="Helvetica,Arial,sans-serif" font-size="10.00" fill="#212529">📄 onlyoffice.nix</text>
</g>
<!-- N2&#45;&gt;N9 -->
<g id="edge11" class="edge">
<title>N2&#45;&gt;N9</title>
<path fill="none" stroke="#6c757d" d="M228.8,-3384.7C259.46,-3311.55 371.62,-3044 371.62,-3044 371.62,-3044 403.53,-3036.32 434.51,-3028.87"/>
<polygon fill="#6c757d" stroke="#6c757d" points="435.06,-3031.25 441.29,-3027.23 433.91,-3026.49 435.06,-3031.25"/>
</g>
<!-- N10 -->
<g id="node11" class="node">
<title>N10</title>
<path fill="#f8f9fa" stroke="#ced4da" d="M527,-3091C527,-3091 459.25,-3091 459.25,-3091 453.25,-3091 447.25,-3085 447.25,-3079 447.25,-3079 447.25,-3067 447.25,-3067 447.25,-3061 453.25,-3055 459.25,-3055 459.25,-3055 527,-3055 527,-3055 533,-3055 539,-3061 539,-3067 539,-3067 539,-3079 539,-3079 539,-3085 533,-3091 527,-3091"/>
<text text-anchor="middle" x="493.12" y="-3070.62" font-family="Helvetica,Arial,sans-serif" font-size="10.00" fill="#212529">📄 prowlarr.nix</text>
</g>
<!-- N2&#45;&gt;N10 -->
<g id="edge12" class="edge">
<title>N2&#45;&gt;N10</title>
<path fill="none" stroke="#6c757d" d="M230.31,-3384.62C262.99,-3319.27 371.62,-3102 371.62,-3102 371.62,-3102 406.55,-3093.59 438.8,-3085.83"/>
<polygon fill="#6c757d" stroke="#6c757d" points="439.21,-3088.26 445.44,-3084.24 438.06,-3083.49 439.21,-3088.26"/>
</g>
<!-- N11 -->
<g id="node12" class="node">
<title>N11</title>
<path fill="#f8f9fa" stroke="#ced4da" d="M533,-3149C533,-3149 453.25,-3149 453.25,-3149 447.25,-3149 441.25,-3143 441.25,-3137 441.25,-3137 441.25,-3125 441.25,-3125 441.25,-3119 447.25,-3113 453.25,-3113 453.25,-3113 533,-3113 533,-3113 539,-3113 545,-3119 545,-3125 545,-3125 545,-3137 545,-3137 545,-3143 539,-3149 533,-3149"/>
<text text-anchor="middle" x="493.12" y="-3128.62" font-family="Helvetica,Arial,sans-serif" font-size="10.00" fill="#212529">📄 qbittorrent.nix</text>
</g>
<!-- N2&#45;&gt;N11 -->
<g id="edge13" class="edge">
<title>N2&#45;&gt;N11</title>
<path fill="none" stroke="#6c757d" d="M232.44,-3384.74C267.44,-3328.22 371.62,-3160 371.62,-3160 371.62,-3160 402.43,-3152.59 432.89,-3145.26"/>
<polygon fill="#6c757d" stroke="#6c757d" points="433.32,-3147.67 439.55,-3143.65 432.17,-3142.91 433.32,-3147.67"/>
</g>
<!-- N12 -->
<g id="node13" class="node">
<title>N12</title>
<path fill="#f8f9fa" stroke="#ced4da" d="M522.12,-3207C522.12,-3207 464.12,-3207 464.12,-3207 458.12,-3207 452.12,-3201 452.12,-3195 452.12,-3195 452.12,-3183 452.12,-3183 452.12,-3177 458.12,-3171 464.12,-3171 464.12,-3171 522.12,-3171 522.12,-3171 528.12,-3171 534.12,-3177 534.12,-3183 534.12,-3183 534.12,-3195 534.12,-3195 534.12,-3201 528.12,-3207 522.12,-3207"/>
<text text-anchor="middle" x="493.12" y="-3186.62" font-family="Helvetica,Arial,sans-serif" font-size="10.00" fill="#212529">📄 sonarr.nix</text>
</g>
<!-- N2&#45;&gt;N12 -->
<g id="edge14" class="edge">
<title>N2&#45;&gt;N12</title>
<path fill="none" stroke="#6c757d" d="M236.11,-3384.59C274.17,-3337.79 371.62,-3218 371.62,-3218 371.62,-3218 410.22,-3208.71 443.73,-3200.65"/>
<polygon fill="#6c757d" stroke="#6c757d" points="443.96,-3203.11 450.19,-3199.09 442.81,-3198.35 443.96,-3203.11"/>
</g>
<!-- N13 -->
<g id="node14" class="node">
<title>N13</title>
<path fill="#f8f9fa" stroke="#ced4da" d="M532.25,-3265C532.25,-3265 454,-3265 454,-3265 448,-3265 442,-3259 442,-3253 442,-3253 442,-3241 442,-3241 442,-3235 448,-3229 454,-3229 454,-3229 532.25,-3229 532.25,-3229 538.25,-3229 544.25,-3235 544.25,-3241 544.25,-3241 544.25,-3253 544.25,-3253 544.25,-3259 538.25,-3265 532.25,-3265"/>
<text text-anchor="middle" x="493.12" y="-3244.62" font-family="Helvetica,Arial,sans-serif" font-size="10.00" fill="#212529">📄 suwayomi.nix</text>
</g>
<!-- N2&#45;&gt;N13 -->
<g id="edge15" class="edge">
<title>N2&#45;&gt;N13</title>
<path fill="none" stroke="#6c757d" d="M243.01,-3384.53C284.75,-3349.31 371.62,-3276 371.62,-3276 371.62,-3276 402.87,-3268.48 433.54,-3261.1"/>
<polygon fill="#6c757d" stroke="#6c757d" points="434.02,-3263.5 440.25,-3259.48 432.87,-3258.74 434.02,-3263.5"/>
</g>
<!-- N14 -->
<g id="node15" class="node">
<title>N14</title>
<path fill="#f8f9fa" stroke="#ced4da" d="M522.88,-3323C522.88,-3323 463.38,-3323 463.38,-3323 457.38,-3323 451.38,-3317 451.38,-3311 451.38,-3311 451.38,-3299 451.38,-3299 451.38,-3293 457.38,-3287 463.38,-3287 463.38,-3287 522.88,-3287 522.88,-3287 528.88,-3287 534.88,-3293 534.88,-3299 534.88,-3299 534.88,-3311 534.88,-3311 534.88,-3317 528.88,-3323 522.88,-3323"/>
<text text-anchor="middle" x="493.12" y="-3302.62" font-family="Helvetica,Arial,sans-serif" font-size="10.00" fill="#212529">📄 tranga.nix</text>
</g>
<!-- N2&#45;&gt;N14 -->
<g id="edge16" class="edge">
<title>N2&#45;&gt;N14</title>
<path fill="none" stroke="#6c757d" d="M272.1,-3384.57C321.19,-3366.81 394.92,-3340.15 443.29,-3322.66"/>
<polygon fill="#6c757d" stroke="#6c757d" points="443.94,-3325.03 449.69,-3320.34 442.28,-3320.42 443.94,-3325.03"/>
</g>
<!-- N15 -->
<g id="node16" class="node">
<title>N15</title>
<path fill="#f8f9fa" stroke="#ced4da" d="M518.38,-2703C518.38,-2703 467.88,-2703 467.88,-2703 461.88,-2703 455.88,-2697 455.88,-2691 455.88,-2691 455.88,-2679 455.88,-2679 455.88,-2673 461.88,-2667 467.88,-2667 467.88,-2667 518.38,-2667 518.38,-2667 524.38,-2667 530.38,-2673 530.38,-2679 530.38,-2679 530.38,-2691 530.38,-2691 530.38,-2697 524.38,-2703 518.38,-2703"/>
<text text-anchor="middle" x="493.12" y="-2682.62" font-family="Helvetica,Arial,sans-serif" font-size="10.00" fill="#212529">📄 alloy.nix</text>
</g>
<!-- N2&#45;&gt;N15 -->
<g id="edge17" class="edge">
<title>N2&#45;&gt;N15</title>
<path fill="none" stroke="#6c757d" d="M225.31,-3384.71C249.61,-3278.44 371.62,-2745 371.62,-2745 371.62,-2745 413.94,-2723.93 448.42,-2706.76"/>
<polygon fill="#6c757d" stroke="#6c757d" points="449.12,-2709.15 454.29,-2703.84 446.93,-2704.77 449.12,-2709.15"/>
</g>
<!-- N16 -->
<g id="node17" class="node">
<title>N16</title>
<path fill="#f8f9fa" stroke="#ced4da" d="M531.88,-2239C531.88,-2239 454.38,-2239 454.38,-2239 448.38,-2239 442.38,-2233 442.38,-2227 442.38,-2227 442.38,-2215 442.38,-2215 442.38,-2209 448.38,-2203 454.38,-2203 454.38,-2203 531.88,-2203 531.88,-2203 537.88,-2203 543.88,-2209 543.88,-2215 543.88,-2215 543.88,-2227 543.88,-2227 543.88,-2233 537.88,-2239 531.88,-2239"/>
<text text-anchor="middle" x="493.12" y="-2218.62" font-family="Helvetica,Arial,sans-serif" font-size="10.00" fill="#212529">📄 borgmatic.nix</text>
</g>
<!-- N2&#45;&gt;N16 -->
<g id="edge18" class="edge">
<title>N2&#45;&gt;N16</title>
<path fill="none" stroke="#6c757d" d="M223.49,-3384.89C242.64,-3238.2 371.62,-2250 371.62,-2250 371.62,-2250 403.09,-2242.43 433.86,-2235.02"/>
<polygon fill="#6c757d" stroke="#6c757d" points="434.37,-2237.42 440.6,-2233.4 433.22,-2232.66 434.37,-2237.42"/>
</g>
<!-- N17 -->
<g id="node18" class="node">
<title>N17</title>
<path fill="#f8f9fa" stroke="#ced4da" d="M525.88,-2297C525.88,-2297 460.38,-2297 460.38,-2297 454.38,-2297 448.38,-2291 448.38,-2285 448.38,-2285 448.38,-2273 448.38,-2273 448.38,-2267 454.38,-2261 460.38,-2261 460.38,-2261 525.88,-2261 525.88,-2261 531.88,-2261 537.88,-2267 537.88,-2273 537.88,-2273 537.88,-2285 537.88,-2285 537.88,-2291 531.88,-2297 525.88,-2297"/>
<text text-anchor="middle" x="493.12" y="-2276.62" font-family="Helvetica,Arial,sans-serif" font-size="10.00" fill="#212529">📄 grafana.nix</text>
</g>
<!-- N2&#45;&gt;N17 -->
<g id="edge19" class="edge">
<title>N2&#45;&gt;N17</title>
<path fill="none" stroke="#6c757d" d="M223.61,-3384.91C243.18,-3242.54 371.62,-2308 371.62,-2308 371.62,-2308 407.25,-2299.43 439.76,-2291.6"/>
<polygon fill="#6c757d" stroke="#6c757d" points="440.24,-2294.01 446.47,-2289.99 439.09,-2289.24 440.24,-2294.01"/>
</g>
<!-- N18 -->
<g id="node19" class="node">
<title>N18</title>
<path fill="#f8f9fa" stroke="#ced4da" d="M516.12,-2355C516.12,-2355 470.12,-2355 470.12,-2355 464.12,-2355 458.12,-2349 458.12,-2343 458.12,-2343 458.12,-2331 458.12,-2331 458.12,-2325 464.12,-2319 470.12,-2319 470.12,-2319 516.12,-2319 516.12,-2319 522.12,-2319 528.12,-2325 528.12,-2331 528.12,-2331 528.12,-2343 528.12,-2343 528.12,-2349 522.12,-2355 516.12,-2355"/>
<text text-anchor="middle" x="493.12" y="-2334.62" font-family="Helvetica,Arial,sans-serif" font-size="10.00" fill="#212529">📄 loki.nix</text>
</g>
<!-- N2&#45;&gt;N18 -->
<g id="edge20" class="edge">
<title>N2&#45;&gt;N18</title>
<path fill="none" stroke="#6c757d" d="M223.8,-3384.56C243.99,-3245.43 371.62,-2366 371.62,-2366 371.62,-2366 415.05,-2355.55 449.76,-2347.2"/>
<polygon fill="#6c757d" stroke="#6c757d" points="450.21,-2349.61 456.45,-2345.59 449.07,-2344.84 450.21,-2349.61"/>
</g>
<!-- N19 -->
<g id="node20" class="node">
<title>N19</title>
<path fill="#f8f9fa" stroke="#ced4da" d="M525.88,-2413C525.88,-2413 460.38,-2413 460.38,-2413 454.38,-2413 448.38,-2407 448.38,-2401 448.38,-2401 448.38,-2389 448.38,-2389 448.38,-2383 454.38,-2377 460.38,-2377 460.38,-2377 525.88,-2377 525.88,-2377 531.88,-2377 537.88,-2383 537.88,-2389 537.88,-2389 537.88,-2401 537.88,-2401 537.88,-2407 531.88,-2413 525.88,-2413"/>
<text text-anchor="middle" x="493.12" y="-2392.62" font-family="Helvetica,Arial,sans-serif" font-size="10.00" fill="#212529">📄 netdata.nix</text>
</g>
<!-- N2&#45;&gt;N19 -->
<g id="edge21" class="edge">
<title>N2&#45;&gt;N19</title>
<path fill="none" stroke="#6c757d" d="M223.93,-3384.75C244.53,-3250.73 371.62,-2424 371.62,-2424 371.62,-2424 407.25,-2415.43 439.76,-2407.6"/>
<polygon fill="#6c757d" stroke="#6c757d" points="440.24,-2410.01 446.47,-2405.99 439.09,-2405.24 440.24,-2410.01"/>
</g>
<!-- N20 -->
<g id="node21" class="node">
<title>N20</title>
<path fill="#f8f9fa" stroke="#ced4da" d="M542.75,-2471C542.75,-2471 443.5,-2471 443.5,-2471 437.5,-2471 431.5,-2465 431.5,-2459 431.5,-2459 431.5,-2447 431.5,-2447 431.5,-2441 437.5,-2435 443.5,-2435 443.5,-2435 542.75,-2435 542.75,-2435 548.75,-2435 554.75,-2441 554.75,-2447 554.75,-2447 554.75,-2459 554.75,-2459 554.75,-2465 548.75,-2471 542.75,-2471"/>
<text text-anchor="middle" x="493.12" y="-2450.62" font-family="Helvetica,Arial,sans-serif" font-size="10.00" fill="#212529">📄 power&#45;monitor.nix</text>
</g>
<!-- N2&#45;&gt;N20 -->
<g id="edge22" class="edge">
<title>N2&#45;&gt;N20</title>
<path fill="none" stroke="#6c757d" d="M224.13,-3384.6C245.34,-3254.8 371.62,-2482 371.62,-2482 371.62,-2482 396.19,-2476.09 423.14,-2469.6"/>
<polygon fill="#6c757d" stroke="#6c757d" points="423.47,-2472.04 429.7,-2468.02 422.32,-2467.28 423.47,-2472.04"/>
</g>
<!-- N21 -->
<g id="node22" class="node">
<title>N21</title>
<path fill="#f8f9fa" stroke="#ced4da" d="M536.38,-2529C536.38,-2529 449.88,-2529 449.88,-2529 443.88,-2529 437.88,-2523 437.88,-2517 437.88,-2517 437.88,-2505 437.88,-2505 437.88,-2499 443.88,-2493 449.88,-2493 449.88,-2493 536.38,-2493 536.38,-2493 542.38,-2493 548.38,-2499 548.38,-2505 548.38,-2505 548.38,-2517 548.38,-2517 548.38,-2523 542.38,-2529 536.38,-2529"/>
<text text-anchor="middle" x="493.12" y="-2508.62" font-family="Helvetica,Arial,sans-serif" font-size="10.00" fill="#212529">📄 prometheus.nix</text>
</g>
<!-- N2&#45;&gt;N21 -->
<g id="edge23" class="edge">
<title>N2&#45;&gt;N21</title>
<path fill="none" stroke="#6c757d" d="M224.34,-3384.58C246.15,-3259.51 371.62,-2540 371.62,-2540 371.62,-2540 400.04,-2533.16 429.27,-2526.13"/>
<polygon fill="#6c757d" stroke="#6c757d" points="429.81,-2528.52 436.04,-2524.5 428.67,-2523.75 429.81,-2528.52"/>
</g>
<!-- N22 -->
<g id="node23" class="node">
<title>N22</title>
<path fill="#f8f9fa" stroke="#ced4da" d="M525.88,-2587C525.88,-2587 460.38,-2587 460.38,-2587 454.38,-2587 448.38,-2581 448.38,-2575 448.38,-2575 448.38,-2563 448.38,-2563 448.38,-2557 454.38,-2551 460.38,-2551 460.38,-2551 525.88,-2551 525.88,-2551 531.88,-2551 537.88,-2557 537.88,-2563 537.88,-2563 537.88,-2575 537.88,-2575 537.88,-2581 531.88,-2587 525.88,-2587"/>
<text text-anchor="middle" x="493.12" y="-2566.62" font-family="Helvetica,Arial,sans-serif" font-size="10.00" fill="#212529">📄 scrutiny.nix</text>
</g>
<!-- N2&#45;&gt;N22 -->
<g id="edge24" class="edge">
<title>N2&#45;&gt;N22</title>
<path fill="none" stroke="#6c757d" d="M224.55,-3384.67C246.95,-3264.85 371.62,-2598 371.62,-2598 371.62,-2598 407.25,-2589.43 439.76,-2581.6"/>
<polygon fill="#6c757d" stroke="#6c757d" points="440.24,-2584.01 446.47,-2579.99 439.09,-2579.24 440.24,-2584.01"/>
</g>
<!-- N23 -->
<g id="node24" class="node">
<title>N23</title>
<path fill="#f8f9fa" stroke="#ced4da" d="M539.75,-2645C539.75,-2645 446.5,-2645 446.5,-2645 440.5,-2645 434.5,-2639 434.5,-2633 434.5,-2633 434.5,-2621 434.5,-2621 434.5,-2615 440.5,-2609 446.5,-2609 446.5,-2609 539.75,-2609 539.75,-2609 545.75,-2609 551.75,-2615 551.75,-2621 551.75,-2621 551.75,-2633 551.75,-2633 551.75,-2639 545.75,-2645 539.75,-2645"/>
<text text-anchor="middle" x="493.12" y="-2624.62" font-family="Helvetica,Arial,sans-serif" font-size="10.00" fill="#212529">📄 uptime&#45;kuma.nix</text>
</g>
<!-- N2&#45;&gt;N23 -->
<g id="edge25" class="edge">
<title>N2&#45;&gt;N23</title>
<path fill="none" stroke="#6c757d" d="M224.85,-3384.53C248.02,-3269.5 371.62,-2656 371.62,-2656 371.62,-2656 398.19,-2649.61 426.37,-2642.82"/>
<polygon fill="#6c757d" stroke="#6c757d" points="426.64,-2645.28 432.87,-2641.26 425.5,-2640.52 426.64,-2645.28"/>
</g>
<!-- N24 -->
<g id="node25" class="node">
<title>N24</title>
<path fill="#f8f9fa" stroke="#ced4da" d="M545.75,-1967C545.75,-1967 440.5,-1967 440.5,-1967 434.5,-1967 428.5,-1961 428.5,-1955 428.5,-1955 428.5,-1943 428.5,-1943 428.5,-1937 434.5,-1931 440.5,-1931 440.5,-1931 545.75,-1931 545.75,-1931 551.75,-1931 557.75,-1937 557.75,-1943 557.75,-1943 557.75,-1955 557.75,-1955 557.75,-1961 551.75,-1967 545.75,-1967"/>
<text text-anchor="middle" x="493.12" y="-1946.62" font-family="Helvetica,Arial,sans-serif" font-size="10.00" fill="#212529">📄 crafty&#45;controller.nix</text>
</g>
<!-- N2&#45;&gt;N24 -->
<g id="edge26" class="edge">
<title>N2&#45;&gt;N24</title>
<path fill="none" stroke="#6c757d" d="M223.06,-3384.72C240.59,-3218.73 371.62,-1978 371.62,-1978 371.62,-1978 394.47,-1972.5 420.27,-1966.29"/>
<polygon fill="#6c757d" stroke="#6c757d" points="420.64,-1968.72 426.87,-1964.7 419.5,-1963.96 420.64,-1968.72"/>
</g>
<!-- N25 -->
<g id="node26" class="node">
<title>N25</title>
<path fill="#f8f9fa" stroke="#ced4da" d="M524.38,-2025C524.38,-2025 461.88,-2025 461.88,-2025 455.88,-2025 449.88,-2019 449.88,-2013 449.88,-2013 449.88,-2001 449.88,-2001 449.88,-1995 455.88,-1989 461.88,-1989 461.88,-1989 524.38,-1989 524.38,-1989 530.38,-1989 536.38,-1995 536.38,-2001 536.38,-2001 536.38,-2013 536.38,-2013 536.38,-2019 530.38,-2025 524.38,-2025"/>
<text text-anchor="middle" x="493.12" y="-2004.62" font-family="Helvetica,Arial,sans-serif" font-size="10.00" fill="#212529">📄 forgejo.nix</text>
</g>
<!-- N2&#45;&gt;N25 -->
<g id="edge27" class="edge">
<title>N2&#45;&gt;N25</title>
<path fill="none" stroke="#6c757d" d="M223.14,-3384.71C241,-3222.49 371.62,-2036 371.62,-2036 371.62,-2036 408.44,-2027.14 441.38,-2019.21"/>
<polygon fill="#6c757d" stroke="#6c757d" points="441.94,-2021.6 448.17,-2017.58 440.79,-2016.83 441.94,-2021.6"/>
</g>
<!-- N26 -->
<g id="node27" class="node">
<title>N26</title>
<path fill="#f8f9fa" stroke="#ced4da" d="M533,-2083C533,-2083 453.25,-2083 453.25,-2083 447.25,-2083 441.25,-2077 441.25,-2071 441.25,-2071 441.25,-2059 441.25,-2059 441.25,-2053 447.25,-2047 453.25,-2047 453.25,-2047 533,-2047 533,-2047 539,-2047 545,-2053 545,-2059 545,-2059 545,-2071 545,-2071 545,-2077 539,-2083 533,-2083"/>
<text text-anchor="middle" x="493.12" y="-2062.62" font-family="Helvetica,Arial,sans-serif" font-size="10.00" fill="#212529">📄 homepage.nix</text>
</g>
<!-- N2&#45;&gt;N26 -->
<g id="edge28" class="edge">
<title>N2&#45;&gt;N26</title>
<path fill="none" stroke="#6c757d" d="M223.2,-3384.99C241.27,-3227.77 371.62,-2094 371.62,-2094 371.62,-2094 402.43,-2086.59 432.89,-2079.26"/>
<polygon fill="#6c757d" stroke="#6c757d" points="433.32,-2081.67 439.55,-2077.65 432.17,-2076.91 433.32,-2081.67"/>
</g>
<!-- N27 -->
<g id="node28" class="node">
<title>N27</title>
<path fill="#f8f9fa" stroke="#ced4da" d="M538.25,-2141C538.25,-2141 448,-2141 448,-2141 442,-2141 436,-2135 436,-2129 436,-2129 436,-2117 436,-2117 436,-2111 442,-2105 448,-2105 448,-2105 538.25,-2105 538.25,-2105 544.25,-2105 550.25,-2111 550.25,-2117 550.25,-2117 550.25,-2129 550.25,-2129 550.25,-2135 544.25,-2141 538.25,-2141"/>
<text text-anchor="middle" x="493.12" y="-2120.62" font-family="Helvetica,Arial,sans-serif" font-size="10.00" fill="#212529">📄 local&#45;finance.nix</text>
</g>
<!-- N2&#45;&gt;N27 -->
<g id="edge29" class="edge">
<title>N2&#45;&gt;N27</title>
<path fill="none" stroke="#6c757d" d="M223.37,-3384.81C242.09,-3233.04 371.62,-2183 371.62,-2183 371.62,-2183 413.42,-2162.19 447.79,-2145.08"/>
<polygon fill="#6c757d" stroke="#6c757d" points="448.46,-2147.48 453.63,-2142.17 446.27,-2143.09 448.46,-2147.48"/>
</g>
<!-- N28 -->
<g id="node29" class="node">
<title>N28</title>
<path fill="#f8f9fa" stroke="#ced4da" d="M516.12,-1503C516.12,-1503 470.12,-1503 470.12,-1503 464.12,-1503 458.12,-1497 458.12,-1491 458.12,-1491 458.12,-1479 458.12,-1479 458.12,-1473 464.12,-1467 470.12,-1467 470.12,-1467 516.12,-1467 516.12,-1467 522.12,-1467 528.12,-1473 528.12,-1479 528.12,-1479 528.12,-1491 528.12,-1491 528.12,-1497 522.12,-1503 516.12,-1503"/>
<text text-anchor="middle" x="493.12" y="-1482.62" font-family="Helvetica,Arial,sans-serif" font-size="10.00" fill="#212529">📄 n8n.nix</text>
</g>
<!-- N2&#45;&gt;N28 -->
<g id="edge30" class="edge">
<title>N2&#45;&gt;N28</title>
<path fill="none" stroke="#6c757d" d="M222.59,-3384.61C238.11,-3189.86 371.62,-1514 371.62,-1514 371.62,-1514 415.05,-1503.55 449.76,-1495.2"/>
<polygon fill="#6c757d" stroke="#6c757d" points="450.21,-1497.61 456.45,-1493.59 449.07,-1492.84 450.21,-1497.61"/>
</g>
<!-- N29 -->
<g id="node30" class="node">
<title>N29</title>
<path fill="#f8f9fa" stroke="#ced4da" d="M522.5,-1561C522.5,-1561 463.75,-1561 463.75,-1561 457.75,-1561 451.75,-1555 451.75,-1549 451.75,-1549 451.75,-1537 451.75,-1537 451.75,-1531 457.75,-1525 463.75,-1525 463.75,-1525 522.5,-1525 522.5,-1525 528.5,-1525 534.5,-1531 534.5,-1537 534.5,-1537 534.5,-1549 534.5,-1549 534.5,-1555 528.5,-1561 522.5,-1561"/>
<text text-anchor="middle" x="493.12" y="-1540.62" font-family="Helvetica,Arial,sans-serif" font-size="10.00" fill="#212529">📄 quartz.nix</text>
</g>
<!-- N2&#45;&gt;N29 -->
<g id="edge31" class="edge">
<title>N2&#45;&gt;N29</title>
<path fill="none" stroke="#6c757d" d="M222.64,-3384.58C238.38,-3193.03 371.62,-1572 371.62,-1572 371.62,-1572 409.98,-1562.77 443.41,-1554.72"/>
<polygon fill="#6c757d" stroke="#6c757d" points="443.63,-1557.19 449.86,-1553.17 442.48,-1552.43 443.63,-1557.19"/>
</g>
<!-- N30 -->
<g id="node31" class="node">
<title>N30</title>
<path fill="#f8f9fa" stroke="#ced4da" d="M521.75,-1619C521.75,-1619 464.5,-1619 464.5,-1619 458.5,-1619 452.5,-1613 452.5,-1607 452.5,-1607 452.5,-1595 452.5,-1595 452.5,-1589 458.5,-1583 464.5,-1583 464.5,-1583 521.75,-1583 521.75,-1583 527.75,-1583 533.75,-1589 533.75,-1595 533.75,-1595 533.75,-1607 533.75,-1607 533.75,-1613 527.75,-1619 521.75,-1619"/>
<text text-anchor="middle" x="493.12" y="-1598.62" font-family="Helvetica,Arial,sans-serif" font-size="10.00" fill="#212529">📄 romm.nix</text>
</g>
<!-- N2&#45;&gt;N30 -->
<g id="edge32" class="edge">
<title>N2&#45;&gt;N30</title>
<path fill="none" stroke="#6c757d" d="M222.69,-3384.58C238.66,-3196.43 371.62,-1630 371.62,-1630 371.62,-1630 410.47,-1620.65 444.05,-1612.57"/>
<polygon fill="#6c757d" stroke="#6c757d" points="444.3,-1615.03 450.53,-1611.01 443.15,-1610.27 444.3,-1615.03"/>
</g>
<!-- N31 -->
<g id="node32" class="node">
<title>N31</title>
<path fill="#f8f9fa" stroke="#ced4da" d="M552.12,-1677C552.12,-1677 434.12,-1677 434.12,-1677 428.12,-1677 422.12,-1671 422.12,-1665 422.12,-1665 422.12,-1653 422.12,-1653 422.12,-1647 428.12,-1641 434.12,-1641 434.12,-1641 552.12,-1641 552.12,-1641 558.12,-1641 564.12,-1647 564.12,-1653 564.12,-1653 564.12,-1665 564.12,-1665 564.12,-1671 558.12,-1677 552.12,-1677"/>
<text text-anchor="middle" x="493.12" y="-1656.62" font-family="Helvetica,Arial,sans-serif" font-size="10.00" fill="#212529">📄 security&#45;watchdog.nix</text>
</g>
<!-- N2&#45;&gt;N31 -->
<g id="edge33" class="edge">
<title>N2&#45;&gt;N31</title>
<path fill="none" stroke="#6c757d" d="M222.74,-3384.61C238.94,-3200.04 371.62,-1688 371.62,-1688 371.62,-1688 390.58,-1683.44 413.45,-1677.93"/>
<polygon fill="#6c757d" stroke="#6c757d" points="413.98,-1680.33 420.21,-1676.31 412.83,-1675.56 413.98,-1680.33"/>
</g>
<!-- N32 -->
<g id="node33" class="node">
<title>N32</title>
<path fill="#f8f9fa" stroke="#ced4da" d="M533.38,-1735C533.38,-1735 452.88,-1735 452.88,-1735 446.88,-1735 440.88,-1729 440.88,-1723 440.88,-1723 440.88,-1711 440.88,-1711 440.88,-1705 446.88,-1699 452.88,-1699 452.88,-1699 533.38,-1699 533.38,-1699 539.38,-1699 545.38,-1705 545.38,-1711 545.38,-1711 545.38,-1723 545.38,-1723 545.38,-1729 539.38,-1735 533.38,-1735"/>
<text text-anchor="middle" x="493.12" y="-1714.62" font-family="Helvetica,Arial,sans-serif" font-size="10.00" fill="#212529">📄 stirling&#45;pdf.nix</text>
</g>
<!-- N2&#45;&gt;N32 -->
<g id="edge34" class="edge">
<title>N2&#45;&gt;N32</title>
<path fill="none" stroke="#6c757d" d="M222.79,-3384.67C239.21,-3203.87 371.62,-1746 371.62,-1746 371.62,-1746 402.21,-1738.64 432.56,-1731.33"/>
<polygon fill="#6c757d" stroke="#6c757d" points="432.97,-1733.76 439.2,-1729.74 431.82,-1728.99 432.97,-1733.76"/>
</g>
<!-- N33 -->
<g id="node34" class="node">
<title>N33</title>
<path fill="#f8f9fa" stroke="#ced4da" d="M516.88,-1793C516.88,-1793 469.38,-1793 469.38,-1793 463.38,-1793 457.38,-1787 457.38,-1781 457.38,-1781 457.38,-1769 457.38,-1769 457.38,-1763 463.38,-1757 469.38,-1757 469.38,-1757 516.88,-1757 516.88,-1757 522.88,-1757 528.88,-1763 528.88,-1769 528.88,-1769 528.88,-1781 528.88,-1781 528.88,-1787 522.88,-1793 516.88,-1793"/>
<text text-anchor="middle" x="493.12" y="-1772.62" font-family="Helvetica,Arial,sans-serif" font-size="10.00" fill="#212529">📄 vert.nix</text>
</g>
<!-- N2&#45;&gt;N33 -->
<g id="edge35" class="edge">
<title>N2&#45;&gt;N33</title>
<path fill="none" stroke="#6c757d" d="M222.84,-3384.77C239.49,-3207.91 371.62,-1804 371.62,-1804 371.62,-1804 414.27,-1793.74 448.82,-1785.42"/>
<polygon fill="#6c757d" stroke="#6c757d" points="449.24,-1787.84 455.48,-1783.82 448.1,-1783.08 449.24,-1787.84"/>
</g>
<!-- N34 -->
<g id="node35" class="node">
<title>N34</title>
<path fill="#f8f9fa" stroke="#ced4da" d="M524.75,-1851C524.75,-1851 461.5,-1851 461.5,-1851 455.5,-1851 449.5,-1845 449.5,-1839 449.5,-1839 449.5,-1827 449.5,-1827 449.5,-1821 455.5,-1815 461.5,-1815 461.5,-1815 524.75,-1815 524.75,-1815 530.75,-1815 536.75,-1821 536.75,-1827 536.75,-1827 536.75,-1839 536.75,-1839 536.75,-1845 530.75,-1851 524.75,-1851"/>
<text text-anchor="middle" x="493.12" y="-1830.62" font-family="Helvetica,Arial,sans-serif" font-size="10.00" fill="#212529">📄 vikunja.nix</text>
</g>
<!-- N2&#45;&gt;N34 -->
<g id="edge36" class="edge">
<title>N2&#45;&gt;N34</title>
<path fill="none" stroke="#6c757d" d="M222.92,-3384.62C239.9,-3210.76 371.62,-1862 371.62,-1862 371.62,-1862 408.2,-1853.2 441.05,-1845.29"/>
<polygon fill="#6c757d" stroke="#6c757d" points="441.6,-1847.68 447.83,-1843.66 440.45,-1842.92 441.6,-1847.68"/>
</g>
<!-- N35 -->
<g id="node36" class="node">
<title>N35</title>
<path fill="#f8f9fa" stroke="#ced4da" d="M529.62,-1909C529.62,-1909 456.62,-1909 456.62,-1909 450.62,-1909 444.62,-1903 444.62,-1897 444.62,-1897 444.62,-1885 444.62,-1885 444.62,-1879 450.62,-1873 456.62,-1873 456.62,-1873 529.62,-1873 529.62,-1873 535.62,-1873 541.62,-1879 541.62,-1885 541.62,-1885 541.62,-1897 541.62,-1897 541.62,-1903 535.62,-1909 529.62,-1909"/>
<text text-anchor="middle" x="493.12" y="-1888.62" font-family="Helvetica,Arial,sans-serif" font-size="10.00" fill="#212529">📄 wanderer.nix</text>
</g>
<!-- N2&#45;&gt;N35 -->
<g id="edge37" class="edge">
<title>N2&#45;&gt;N35</title>
<path fill="none" stroke="#6c757d" d="M223,-3384.52C240.31,-3213.93 371.62,-1920 371.62,-1920 371.62,-1920 404.71,-1912.04 436.2,-1904.46"/>
<polygon fill="#6c757d" stroke="#6c757d" points="436.45,-1906.92 442.68,-1902.9 435.3,-1902.16 436.45,-1906.92"/>
</g>
<!-- N36 -->
<g id="node37" class="node">
<title>N36</title>
<path fill="#f8f9fa" stroke="#ced4da" d="M530.38,-1231C530.38,-1231 455.88,-1231 455.88,-1231 449.88,-1231 443.88,-1225 443.88,-1219 443.88,-1219 443.88,-1207 443.88,-1207 443.88,-1201 449.88,-1195 455.88,-1195 455.88,-1195 530.38,-1195 530.38,-1195 536.38,-1195 542.38,-1201 542.38,-1207 542.38,-1207 542.38,-1219 542.38,-1219 542.38,-1225 536.38,-1231 530.38,-1231"/>
<text text-anchor="middle" x="493.12" y="-1210.62" font-family="Helvetica,Arial,sans-serif" font-size="10.00" fill="#212529">📄 authentik.nix</text>
</g>
<!-- N2&#45;&gt;N36 -->
<g id="edge38" class="edge">
<title>N2&#45;&gt;N36</title>
<path fill="none" stroke="#6c757d" d="M222.4,-3384.64C237,-3175.1 371.62,-1242 371.62,-1242 371.62,-1242 404.25,-1234.15 435.55,-1226.62"/>
<polygon fill="#6c757d" stroke="#6c757d" points="435.76,-1229.09 441.99,-1225.07 434.61,-1224.32 435.76,-1229.09"/>
</g>
<!-- N37 -->
<g id="node38" class="node">
<title>N37</title>
<path fill="#f8f9fa" stroke="#ced4da" d="M521,-1289C521,-1289 465.25,-1289 465.25,-1289 459.25,-1289 453.25,-1283 453.25,-1277 453.25,-1277 453.25,-1265 453.25,-1265 453.25,-1259 459.25,-1253 465.25,-1253 465.25,-1253 521,-1253 521,-1253 527,-1253 533,-1259 533,-1265 533,-1265 533,-1277 533,-1277 533,-1283 527,-1289 521,-1289"/>
<text text-anchor="middle" x="493.12" y="-1268.62" font-family="Helvetica,Arial,sans-serif" font-size="10.00" fill="#212529">📄 caddy.nix</text>
</g>
<!-- N2&#45;&gt;N37 -->
<g id="edge39" class="edge">
<title>N2&#45;&gt;N37</title>
<path fill="none" stroke="#6c757d" d="M222.43,-3384.82C237.14,-3179.27 371.62,-1300 371.62,-1300 371.62,-1300 411.21,-1290.47 445.01,-1282.34"/>
<polygon fill="#6c757d" stroke="#6c757d" points="445.3,-1284.79 451.53,-1280.77 444.15,-1280.03 445.3,-1284.79"/>
</g>
<!-- N38 -->
<g id="node39" class="node">
<title>N38</title>
<path fill="#f8f9fa" stroke="#ced4da" d="M534.12,-1347C534.12,-1347 452.12,-1347 452.12,-1347 446.12,-1347 440.12,-1341 440.12,-1335 440.12,-1335 440.12,-1323 440.12,-1323 440.12,-1317 446.12,-1311 452.12,-1311 452.12,-1311 534.12,-1311 534.12,-1311 540.12,-1311 546.12,-1317 546.12,-1323 546.12,-1323 546.12,-1335 546.12,-1335 546.12,-1341 540.12,-1347 534.12,-1347"/>
<text text-anchor="middle" x="493.12" y="-1326.62" font-family="Helvetica,Arial,sans-serif" font-size="10.00" fill="#212529">📄 cloudflared.nix</text>
</g>
<!-- N2&#45;&gt;N38 -->
<g id="edge40" class="edge">
<title>N2&#45;&gt;N38</title>
<path fill="none" stroke="#6c757d" d="M222.47,-3384.7C237.41,-3181.67 371.62,-1358 371.62,-1358 371.62,-1358 401.78,-1350.74 431.91,-1343.49"/>
<polygon fill="#6c757d" stroke="#6c757d" points="432.27,-1345.93 438.5,-1341.91 431.12,-1341.16 432.27,-1345.93"/>
</g>
<!-- N39 -->
<g id="node40" class="node">
<title>N39</title>
<path fill="#f8f9fa" stroke="#ced4da" d="M555.88,-1405C555.88,-1405 430.38,-1405 430.38,-1405 424.38,-1405 418.38,-1399 418.38,-1393 418.38,-1393 418.38,-1381 418.38,-1381 418.38,-1375 424.38,-1369 430.38,-1369 430.38,-1369 555.88,-1369 555.88,-1369 561.88,-1369 567.88,-1375 567.88,-1381 567.88,-1381 567.88,-1393 567.88,-1393 567.88,-1399 561.88,-1405 555.88,-1405"/>
<text text-anchor="middle" x="493.12" y="-1384.62" font-family="Helvetica,Arial,sans-serif" font-size="10.00" fill="#212529">📄 docker&#45;socket&#45;proxy.nix</text>
</g>
<!-- N2&#45;&gt;N39 -->
<g id="edge41" class="edge">
<title>N2&#45;&gt;N39</title>
<path fill="none" stroke="#6c757d" d="M222.54,-3384.58C237.83,-3185.9 371.62,-1447 371.62,-1447 371.62,-1447 413.42,-1426.19 447.79,-1409.08"/>
<polygon fill="#6c757d" stroke="#6c757d" points="448.46,-1411.48 453.63,-1406.17 446.27,-1407.09 448.46,-1411.48"/>
</g>
<!-- N40 -->
<g id="node41" class="node">
<title>N40</title>
<path fill="#f8f9fa" stroke="#ced4da" d="M525.5,-1115C525.5,-1115 460.75,-1115 460.75,-1115 454.75,-1115 448.75,-1109 448.75,-1103 448.75,-1103 448.75,-1091 448.75,-1091 448.75,-1085 454.75,-1079 460.75,-1079 460.75,-1079 525.5,-1079 525.5,-1079 531.5,-1079 537.5,-1085 537.5,-1091 537.5,-1091 537.5,-1103 537.5,-1103 537.5,-1109 531.5,-1115 525.5,-1115"/>
<text text-anchor="middle" x="493.12" y="-1094.62" font-family="Helvetica,Arial,sans-serif" font-size="10.00" fill="#212529">📄 gluetun.nix</text>
</g>
<!-- N2&#45;&gt;N40 -->
<g id="edge42" class="edge">
<title>N2&#45;&gt;N40</title>
<path fill="none" stroke="#6c757d" d="M222.34,-3384.67C236.58,-3169.18 371.62,-1126 371.62,-1126 371.62,-1126 407.49,-1117.37 440.09,-1109.52"/>
<polygon fill="#6c757d" stroke="#6c757d" points="440.58,-1111.93 446.81,-1107.91 439.43,-1107.16 440.58,-1111.93"/>
</g>
<!-- N41 -->
<g id="node42" class="node">
<title>N41</title>
<path fill="#f8f9fa" stroke="#ced4da" d="M519.12,-1173C519.12,-1173 467.12,-1173 467.12,-1173 461.12,-1173 455.12,-1167 455.12,-1161 455.12,-1161 455.12,-1149 455.12,-1149 455.12,-1143 461.12,-1137 467.12,-1137 467.12,-1137 519.12,-1137 519.12,-1137 525.12,-1137 531.12,-1143 531.12,-1149 531.12,-1149 531.12,-1161 531.12,-1161 531.12,-1167 525.12,-1173 519.12,-1173"/>
<text text-anchor="middle" x="493.12" y="-1152.62" font-family="Helvetica,Arial,sans-serif" font-size="10.00" fill="#212529">📄 lldap.nix</text>
</g>
<!-- N2&#45;&gt;N41 -->
<g id="edge43" class="edge">
<title>N2&#45;&gt;N41</title>
<path fill="none" stroke="#6c757d" d="M222.36,-3384.81C236.72,-3173.08 371.62,-1184 371.62,-1184 371.62,-1184 412.47,-1174.17 446.6,-1165.96"/>
<polygon fill="#6c757d" stroke="#6c757d" points="446.95,-1168.39 453.19,-1164.37 445.81,-1163.63 446.95,-1168.39"/>
</g>
<!-- N46 -->
<g id="node47" class="node">
<title>N46</title>
<path fill="#f8f9fa" stroke="#ced4da" d="M524.38,-607C524.38,-607 461.88,-607 461.88,-607 455.88,-607 449.88,-601 449.88,-595 449.88,-595 449.88,-583 449.88,-583 449.88,-577 455.88,-571 461.88,-571 461.88,-571 524.38,-571 524.38,-571 530.38,-571 536.38,-577 536.38,-583 536.38,-583 536.38,-595 536.38,-595 536.38,-601 530.38,-607 524.38,-607"/>
<text text-anchor="middle" x="493.12" y="-586.62" font-family="Helvetica,Arial,sans-serif" font-size="10.00" fill="#212529">📄 default.nix</text>
</g>
<!-- N2&#45;&gt;N46 -->
<g id="edge44" class="edge">
<title>N2&#45;&gt;N46</title>
<path fill="none" stroke="#6c757d" d="M222.13,-3384.69C235.18,-3145.74 371.62,-649 371.62,-649 371.62,-649 413.42,-628.19 447.79,-611.08"/>
<polygon fill="#6c757d" stroke="#6c757d" points="448.46,-613.48 453.63,-608.17 446.27,-609.09 448.46,-613.48"/>
</g>
<!-- N51 -->
<g id="node52" class="node">
<title>N51</title>
<path fill="#f8f9fa" stroke="#ced4da" d="M518.75,-861C518.75,-861 467.5,-861 467.5,-861 461.5,-861 455.5,-855 455.5,-849 455.5,-849 455.5,-837 455.5,-837 455.5,-831 461.5,-825 467.5,-825 467.5,-825 518.75,-825 518.75,-825 524.75,-825 530.75,-831 530.75,-837 530.75,-837 530.75,-849 530.75,-849 530.75,-855 524.75,-861 518.75,-861"/>
<text text-anchor="middle" x="493.12" y="-840.62" font-family="Helvetica,Arial,sans-serif" font-size="10.00" fill="#212529">📄 base.nix</text>
</g>
<!-- N2&#45;&gt;N51 -->
<g id="edge45" class="edge">
<title>N2&#45;&gt;N51</title>
<path fill="none" stroke="#6c757d" d="M222.21,-3384.79C235.74,-3157.17 371.62,-872 371.62,-872 371.62,-872 412.98,-862.05 447.24,-853.8"/>
<polygon fill="#6c757d" stroke="#6c757d" points="447.61,-856.23 453.84,-852.21 446.47,-851.47 447.61,-856.23"/>
</g>
<!-- N52 -->
<g id="node53" class="node">
<title>N52</title>
<path fill="#f8f9fa" stroke="#ced4da" d="M522.12,-919C522.12,-919 464.12,-919 464.12,-919 458.12,-919 452.12,-913 452.12,-907 452.12,-907 452.12,-895 452.12,-895 452.12,-889 458.12,-883 464.12,-883 464.12,-883 522.12,-883 522.12,-883 528.12,-883 534.12,-889 534.12,-895 534.12,-895 534.12,-907 534.12,-907 534.12,-913 528.12,-919 522.12,-919"/>
<text text-anchor="middle" x="493.12" y="-898.62" font-family="Helvetica,Arial,sans-serif" font-size="10.00" fill="#212529">📄 server.nix</text>
</g>
<!-- N2&#45;&gt;N52 -->
<g id="edge46" class="edge">
<title>N2&#45;&gt;N52</title>
<path fill="none" stroke="#6c757d" d="M222.25,-3384.75C236.02,-3161.28 371.62,-961 371.62,-961 371.62,-961 413.42,-940.19 447.79,-923.08"/>
<polygon fill="#6c757d" stroke="#6c757d" points="448.46,-925.48 453.63,-920.17 446.27,-921.09 448.46,-925.48"/>
</g>
<!-- N54 -->
<g id="node55" class="node">
<title>N54</title>
<path fill="#f8f9fa" stroke="#ced4da" d="M524.38,-705C524.38,-705 461.88,-705 461.88,-705 455.88,-705 449.88,-699 449.88,-693 449.88,-693 449.88,-681 449.88,-681 449.88,-675 455.88,-669 461.88,-669 461.88,-669 524.38,-669 524.38,-669 530.38,-669 536.38,-675 536.38,-681 536.38,-681 536.38,-693 536.38,-693 536.38,-699 530.38,-705 524.38,-705"/>
<text text-anchor="middle" x="493.12" y="-684.62" font-family="Helvetica,Arial,sans-serif" font-size="10.00" fill="#212529">📄 default.nix</text>
</g>
<!-- N2&#45;&gt;N54 -->
<g id="edge47" class="edge">
<title>N2&#45;&gt;N54</title>
<path fill="none" stroke="#6c757d" d="M222.17,-3384.62C235.46,-3149.96 371.62,-747 371.62,-747 371.62,-747 413.42,-726.19 447.79,-709.08"/>
<polygon fill="#6c757d" stroke="#6c757d" points="448.46,-711.48 453.63,-706.17 446.27,-707.09 448.46,-711.48"/>
</g>
<!-- N55 -->
<g id="node56" class="node">
<title>N55</title>
<path fill="#f8f9fa" stroke="#ced4da" d="M524.38,-1017C524.38,-1017 461.88,-1017 461.88,-1017 455.88,-1017 449.88,-1011 449.88,-1005 449.88,-1005 449.88,-993 449.88,-993 449.88,-987 455.88,-981 461.88,-981 461.88,-981 524.38,-981 524.38,-981 530.38,-981 536.38,-987 536.38,-993 536.38,-993 536.38,-1005 536.38,-1005 536.38,-1011 530.38,-1017 524.38,-1017"/>
<text text-anchor="middle" x="493.12" y="-996.62" font-family="Helvetica,Arial,sans-serif" font-size="10.00" fill="#212529">📄 default.nix</text>
</g>
<!-- N2&#45;&gt;N55 -->
<g id="edge48" class="edge">
<title>N2&#45;&gt;N55</title>
<path fill="none" stroke="#6c757d" d="M222.29,-3384.81C236.3,-3166.64 371.62,-1059 371.62,-1059 371.62,-1059 413.42,-1038.19 447.79,-1021.08"/>
<polygon fill="#6c757d" stroke="#6c757d" points="448.46,-1023.48 453.63,-1018.17 446.27,-1019.09 448.46,-1023.48"/>
</g>
<!-- N43 -->
<g id="node44" class="node">
<title>N43</title>
<path fill="#f8f9fa" stroke="#ced4da" d="M563.75,-353C563.75,-353 422.5,-353 422.5,-353 416.5,-353 410.5,-347 410.5,-341 410.5,-341 410.5,-329 410.5,-329 410.5,-323 416.5,-317 422.5,-317 422.5,-317 563.75,-317 563.75,-317 569.75,-317 575.75,-323 575.75,-329 575.75,-329 575.75,-341 575.75,-341 575.75,-347 569.75,-353 563.75,-353"/>
<text text-anchor="middle" x="493.12" y="-332.62" font-family="Helvetica,Arial,sans-serif" font-size="10.00" fill="#212529">📄 hardware&#45;configuration.nix</text>
</g>
<!-- N42&#45;&gt;N43 -->
<g id="edge49" class="edge">
<title>N42&#45;&gt;N43</title>
<path fill="none" stroke="#6c757d" d="M278.27,-335C314.08,-335 361.02,-335 401.79,-335"/>
<polygon fill="#6c757d" stroke="#6c757d" points="401.61,-337.45 408.61,-335 401.61,-332.55 401.61,-337.45"/>
</g>
<!-- N42&#45;&gt;N46 -->
<g id="edge50" class="edge">
<title>N42&#45;&gt;N46</title>
<path fill="none" stroke="#6c757d" d="M233.7,-353.21C269.87,-405.61 371.62,-553 371.62,-553 371.62,-553 408.76,-564.09 441.8,-573.96"/>
<polygon fill="#6c757d" stroke="#6c757d" points="440.78,-576.22 448.19,-575.87 442.19,-571.52 440.78,-576.22"/>
</g>
<!-- N47 -->
<g id="node48" class="node">
<title>N47</title>
<path fill="#f8f9fa" stroke="#ced4da" d="M524.38,-451C524.38,-451 461.88,-451 461.88,-451 455.88,-451 449.88,-445 449.88,-439 449.88,-439 449.88,-427 449.88,-427 449.88,-421 455.88,-415 461.88,-415 461.88,-415 524.38,-415 524.38,-415 530.38,-415 536.38,-421 536.38,-427 536.38,-427 536.38,-439 536.38,-439 536.38,-445 530.38,-451 524.38,-451"/>
<text text-anchor="middle" x="493.12" y="-430.62" font-family="Helvetica,Arial,sans-serif" font-size="10.00" fill="#212529">📄 default.nix</text>
</g>
<!-- N42&#45;&gt;N47 -->
<g id="edge51" class="edge">
<title>N42&#45;&gt;N47</title>
<path fill="none" stroke="#6c757d" d="M265.87,-353.43C310.24,-371.71 371.62,-397 371.62,-397 371.62,-397 408.76,-408.09 441.8,-417.96"/>
<polygon fill="#6c757d" stroke="#6c757d" points="440.78,-420.22 448.19,-419.87 442.19,-415.52 440.78,-420.22"/>
</g>
<!-- N48 -->
<g id="node49" class="node">
<title>N48</title>
<path fill="#f8f9fa" stroke="#ced4da" d="M530.38,-509C530.38,-509 455.88,-509 455.88,-509 449.88,-509 443.88,-503 443.88,-497 443.88,-497 443.88,-485 443.88,-485 443.88,-479 449.88,-473 455.88,-473 455.88,-473 530.38,-473 530.38,-473 536.38,-473 542.38,-479 542.38,-485 542.38,-485 542.38,-497 542.38,-497 542.38,-503 536.38,-509 530.38,-509"/>
<text text-anchor="middle" x="493.12" y="-488.62" font-family="Helvetica,Arial,sans-serif" font-size="10.00" fill="#212529">📄 minecraft.nix</text>
</g>
<!-- N42&#45;&gt;N48 -->
<g id="edge52" class="edge">
<title>N42&#45;&gt;N48</title>
<path fill="none" stroke="#6c757d" d="M243.01,-353.47C284.75,-388.69 371.62,-462 371.62,-462 371.62,-462 404.25,-469.85 435.55,-477.38"/>
<polygon fill="#6c757d" stroke="#6c757d" points="434.61,-479.68 441.99,-478.93 435.76,-474.91 434.61,-479.68"/>
</g>
<!-- N49 -->
<g id="node50" class="node">
<title>N49</title>
<path fill="#f8f9fa" stroke="#ced4da" d="M524.38,-157C524.38,-157 461.88,-157 461.88,-157 455.88,-157 449.88,-151 449.88,-145 449.88,-145 449.88,-133 449.88,-133 449.88,-127 455.88,-121 461.88,-121 461.88,-121 524.38,-121 524.38,-121 530.38,-121 536.38,-127 536.38,-133 536.38,-133 536.38,-145 536.38,-145 536.38,-151 530.38,-157 524.38,-157"/>
<text text-anchor="middle" x="493.12" y="-136.62" font-family="Helvetica,Arial,sans-serif" font-size="10.00" fill="#212529">📄 default.nix</text>
</g>
<!-- N42&#45;&gt;N49 -->
<g id="edge53" class="edge">
<title>N42&#45;&gt;N49</title>
<path fill="none" stroke="#6c757d" d="M241.42,-316.66C282.5,-279.54 371.62,-199 371.62,-199 371.62,-199 413.42,-178.19 447.79,-161.08"/>
<polygon fill="#6c757d" stroke="#6c757d" points="448.46,-163.48 453.63,-158.17 446.27,-159.09 448.46,-163.48"/>
</g>
<!-- N42&#45;&gt;N51 -->
<g id="edge54" class="edge">
<title>N42&#45;&gt;N51</title>
<path fill="none" stroke="#6c757d" d="M226.93,-353.48C254.59,-441.51 371.62,-814 371.62,-814 371.62,-814 412.98,-823.95 447.24,-832.2"/>
<polygon fill="#6c757d" stroke="#6c757d" points="446.47,-834.53 453.84,-833.79 447.61,-829.77 446.47,-834.53"/>
</g>
<!-- N53 -->
<g id="node54" class="node">
<title>N53</title>
<path fill="#f8f9fa" stroke="#ced4da" d="M521.75,-803C521.75,-803 464.5,-803 464.5,-803 458.5,-803 452.5,-797 452.5,-791 452.5,-791 452.5,-779 452.5,-779 452.5,-773 458.5,-767 464.5,-767 464.5,-767 521.75,-767 521.75,-767 527.75,-767 533.75,-773 533.75,-779 533.75,-779 533.75,-791 533.75,-791 533.75,-797 527.75,-803 521.75,-803"/>
<text text-anchor="middle" x="493.12" y="-782.62" font-family="Helvetica,Arial,sans-serif" font-size="10.00" fill="#212529">📄 sound.nix</text>
</g>
<!-- N42&#45;&gt;N53 -->
<g id="edge55" class="edge">
<title>N42&#45;&gt;N53</title>
<path fill="none" stroke="#6c757d" d="M227.79,-353.32C256.91,-433.44 371.62,-749 371.62,-749 371.62,-749 410.47,-760.6 444.05,-770.64"/>
<polygon fill="#6c757d" stroke="#6c757d" points="443.14,-772.92 450.55,-772.58 444.54,-768.23 443.14,-772.92"/>
</g>
<!-- N42&#45;&gt;N54 -->
<g id="edge56" class="edge">
<title>N42&#45;&gt;N54</title>
<path fill="none" stroke="#6c757d" d="M229.87,-353.36C261.99,-420.8 371.62,-651 371.62,-651 371.62,-651 408.76,-662.09 441.8,-671.96"/>
<polygon fill="#6c757d" stroke="#6c757d" points="440.78,-674.22 448.19,-673.87 442.19,-669.52 440.78,-674.22"/>
</g>
<!-- N57 -->
<g id="node58" class="node">
<title>N57</title>
<path fill="#f8f9fa" stroke="#ced4da" d="M524.38,-255C524.38,-255 461.88,-255 461.88,-255 455.88,-255 449.88,-249 449.88,-243 449.88,-243 449.88,-231 449.88,-231 449.88,-225 455.88,-219 461.88,-219 461.88,-219 524.38,-219 524.38,-219 530.38,-219 536.38,-225 536.38,-231 536.38,-231 536.38,-243 536.38,-243 536.38,-249 530.38,-255 524.38,-255"/>
<text text-anchor="middle" x="493.12" y="-234.62" font-family="Helvetica,Arial,sans-serif" font-size="10.00" fill="#212529">📄 default.nix</text>
</g>
<!-- N42&#45;&gt;N57 -->
<g id="edge57" class="edge">
<title>N42&#45;&gt;N57</title>
<path fill="none" stroke="#6c757d" d="M272.1,-316.57C320.61,-299.02 393.18,-272.78 441.56,-255.29"/>
<polygon fill="#6c757d" stroke="#6c757d" points="442.23,-257.65 447.98,-252.96 440.56,-253.04 442.23,-257.65"/>
</g>
<!-- N45 -->
<g id="node46" class="node">
<title>N45</title>
<path fill="#f8f9fa" stroke="#ced4da" d="M563.75,-59C563.75,-59 422.5,-59 422.5,-59 416.5,-59 410.5,-53 410.5,-47 410.5,-47 410.5,-35 410.5,-35 410.5,-29 416.5,-23 422.5,-23 422.5,-23 563.75,-23 563.75,-23 569.75,-23 575.75,-29 575.75,-35 575.75,-35 575.75,-47 575.75,-47 575.75,-53 569.75,-59 563.75,-59"/>
<text text-anchor="middle" x="493.12" y="-38.62" font-family="Helvetica,Arial,sans-serif" font-size="10.00" fill="#212529">📄 hardware&#45;configuration.nix</text>
</g>
<!-- N44&#45;&gt;N45 -->
<g id="edge58" class="edge">
<title>N44&#45;&gt;N45</title>
<path fill="none" stroke="#6c757d" d="M278.27,-41C314.08,-41 361.02,-41 401.79,-41"/>
<polygon fill="#6c757d" stroke="#6c757d" points="401.61,-43.45 408.61,-41 401.61,-38.55 401.61,-43.45"/>
</g>
<!-- N44&#45;&gt;N46 -->
<g id="edge59" class="edge">
<title>N44&#45;&gt;N46</title>
<path fill="none" stroke="#6c757d" d="M226.48,-59.22C253.29,-150.43 371.62,-553 371.62,-553 371.62,-553 408.76,-564.09 441.8,-573.96"/>
<polygon fill="#6c757d" stroke="#6c757d" points="440.78,-576.22 448.19,-575.87 442.19,-571.52 440.78,-576.22"/>
</g>
<!-- N44&#45;&gt;N49 -->
<g id="edge60" class="edge">
<title>N44&#45;&gt;N49</title>
<path fill="none" stroke="#6c757d" d="M265.87,-59.43C310.24,-77.71 371.62,-103 371.62,-103 371.62,-103 408.76,-114.09 441.8,-123.96"/>
<polygon fill="#6c757d" stroke="#6c757d" points="440.78,-126.22 448.19,-125.87 442.19,-121.52 440.78,-126.22"/>
</g>
<!-- N44&#45;&gt;N51 -->
<g id="edge61" class="edge">
<title>N44&#45;&gt;N51</title>
<path fill="none" stroke="#6c757d" d="M226.44,-59.41C243.38,-118.11 295,-297 295,-297 295,-297 371.62,-814 371.62,-814 371.62,-814 412.98,-823.95 447.24,-832.2"/>
<polygon fill="#6c757d" stroke="#6c757d" points="446.47,-834.53 453.84,-833.79 447.61,-829.77 446.47,-834.53"/>
</g>
<!-- N44&#45;&gt;N53 -->
<g id="edge62" class="edge">
<title>N44&#45;&gt;N53</title>
<path fill="none" stroke="#6c757d" d="M226.44,-59.41C243.38,-118.11 295,-297 295,-297 295,-297 371.62,-749 371.62,-749 371.62,-749 410.47,-760.6 444.05,-770.64"/>
<polygon fill="#6c757d" stroke="#6c757d" points="443.14,-772.92 450.55,-772.58 444.54,-768.23 443.14,-772.92"/>
</g>
<!-- N44&#45;&gt;N54 -->
<g id="edge63" class="edge">
<title>N44&#45;&gt;N54</title>
<path fill="none" stroke="#6c757d" d="M226.44,-59.41C243.38,-118.11 295,-297 295,-297 295,-297 371.62,-651 371.62,-651 371.62,-651 408.76,-662.09 441.8,-671.96"/>
<polygon fill="#6c757d" stroke="#6c757d" points="440.78,-674.22 448.19,-673.87 442.19,-669.52 440.78,-674.22"/>
</g>
<!-- N44&#45;&gt;N57 -->
<g id="edge64" class="edge">
<title>N44&#45;&gt;N57</title>
<path fill="none" stroke="#6c757d" d="M238.39,-59.35C277.92,-101.38 371.62,-201 371.62,-201 371.62,-201 408.76,-212.09 441.8,-221.96"/>
<polygon fill="#6c757d" stroke="#6c757d" points="440.78,-224.22 448.19,-223.87 442.19,-219.52 440.78,-224.22"/>
</g>
<!-- N50 -->
<g id="node51" class="node">
<title>N50</title>
<path fill="#f8f9fa" stroke="#ced4da" d="M806.88,-861C806.88,-861 698.62,-861 698.62,-861 692.62,-861 686.62,-855 686.62,-849 686.62,-849 686.62,-837 686.62,-837 686.62,-831 692.62,-825 698.62,-825 698.62,-825 806.88,-825 806.88,-825 812.88,-825 818.88,-831 818.88,-837 818.88,-837 818.88,-849 818.88,-849 818.88,-855 812.88,-861 806.88,-861"/>
<text text-anchor="middle" x="752.75" y="-840.62" font-family="Helvetica,Arial,sans-serif" font-size="10.00" fill="#212529">📄 architecture&#45;dag.nix</text>
</g>
<!-- N51&#45;&gt;N50 -->
<g id="edge65" class="edge">
<title>N51&#45;&gt;N50</title>
<path fill="none" stroke="#6c757d" d="M531.04,-843C569.16,-843 629.71,-843 677.75,-843"/>
<polygon fill="#6c757d" stroke="#6c757d" points="677.75,-845.45 684.75,-843 677.75,-840.55 677.75,-845.45"/>
</g>
<!-- N56 -->
<g id="node57" class="node">
<title>N56</title>
<path fill="#f8f9fa" stroke="#ced4da" d="M780.62,-1017C780.62,-1017 724.88,-1017 724.88,-1017 718.88,-1017 712.88,-1011 712.88,-1005 712.88,-1005 712.88,-993 712.88,-993 712.88,-987 718.88,-981 724.88,-981 724.88,-981 780.62,-981 780.62,-981 786.62,-981 792.62,-987 792.62,-993 792.62,-993 792.62,-1005 792.62,-1005 792.62,-1011 786.62,-1017 780.62,-1017"/>
<text text-anchor="middle" x="752.75" y="-996.62" font-family="Helvetica,Arial,sans-serif" font-size="10.00" fill="#212529">📄 home.nix</text>
</g>
<!-- N55&#45;&gt;N56 -->
<g id="edge66" class="edge">
<title>N55&#45;&gt;N56</title>
<path fill="none" stroke="#6c757d" d="M536.67,-999C582.78,-999 656.18,-999 704.17,-999"/>
<polygon fill="#6c757d" stroke="#6c757d" points="704.01,-1001.45 711.01,-999 704.01,-996.55 704.01,-1001.45"/>
</g>
<!-- N58 -->
<g id="node59" class="node">
<title>N58</title>
<path fill="#f8f9fa" stroke="#ced4da" d="M780.62,-255C780.62,-255 724.88,-255 724.88,-255 718.88,-255 712.88,-249 712.88,-243 712.88,-243 712.88,-231 712.88,-231 712.88,-225 718.88,-219 724.88,-219 724.88,-219 780.62,-219 780.62,-219 786.62,-219 792.62,-225 792.62,-231 792.62,-231 792.62,-243 792.62,-243 792.62,-249 786.62,-255 780.62,-255"/>
<text text-anchor="middle" x="752.75" y="-234.62" font-family="Helvetica,Arial,sans-serif" font-size="10.00" fill="#212529">📄 home.nix</text>
</g>
<!-- N57&#45;&gt;N58 -->
<g id="edge67" class="edge">
<title>N57&#45;&gt;N58</title>
<path fill="none" stroke="#6c757d" d="M536.67,-237C582.78,-237 656.18,-237 704.17,-237"/>
<polygon fill="#6c757d" stroke="#6c757d" points="704.01,-239.45 711.01,-237 704.01,-234.55 704.01,-239.45"/>
</g>
</g>
</svg>
