<?xml version="1.0" encoding="UTF-8" standalone="no"?>
<!DOCTYPE svg PUBLIC "-//W3C//DTD SVG 1.1//EN"
 "http://www.w3.org/Graphics/SVG/1.1/DTD/svg11.dtd">
<!-- Generated by graphviz version 12.2.1 (0)
 -->
<!-- Title: NixOS Pages: 1 -->
<svg width="850pt" height="4038pt"
 viewBox="0.00 0.00 849.88 4038.00" xmlns="http://www.w3.org/2000/svg" xmlns:xlink="http://www.w3.org/1999/xlink">
<g id="graph0" class="graph" transform="scale(1 1) rotate(0) translate(4 4034)">
<title>NixOS</title>
<polygon fill="white" stroke="none" points="-4,4 -4,-4034 845.88,-4034 845.88,4 -4,4"/>
<g id="clust1" class="cluster">
<title>cluster_hosts_devcontainer</title>
<path fill="#e9ecef" stroke="#adb5bd" d="M158.25,-3932C158.25,-3932 283,-3932 283,-3932 289,-3932 295,-3938 295,-3944 295,-3944 295,-4010 295,-4010 295,-4016 289,-4022 283,-4022 283,-4022 158.25,-4022 158.25,-4022 152.25,-4022 146.25,-4016 146.25,-4010 146.25,-4010 146.25,-3944 146.25,-3944 146.25,-3938 152.25,-3932 158.25,-3932"/>
<text text-anchor="middle" x="220.62" y="-4006.6" font-family="Helvetica,sans-Serif" font-weight="bold" font-size="12.00" fill="#495057">📁 hosts/devcontainer</text>
</g>
<g id="clust2" class="cluster">
<title>cluster_hosts_homelab</title>
<path fill="#e9ecef" stroke="#adb5bd" d="M159.25,-3776C159.25,-3776 578.75,-3776 578.75,-3776 584.75,-3776 590.75,-3782 590.75,-3788 590.75,-3788 590.75,-3912 590.75,-3912 590.75,-3918 584.75,-3924 578.75,-3924 578.75,-3924 159.25,-3924 159.25,-3924 153.25,-3924 147.25,-3918 147.25,-3912 147.25,-3912 147.25,-3788 147.25,-3788 147.25,-3782 153.25,-3776 159.25,-3776"/>
<text text-anchor="middle" x="369" y="-3908.6" font-family="Helvetica,sans-Serif" font-weight="bold" font-size="12.00" fill="#495057">📁 hosts/homelab</text>
</g>
<g id="clust3" class="cluster">
<title>cluster_hosts_homelab_services_media</title>
<path fill="#e9ecef" stroke="#adb5bd" d="M397.5,-2924C397.5,-2924 589.75,-2924 589.75,-2924 595.75,-2924 601.75,-2930 601.75,-2936 601.75,-2936 601.75,-3756 601.75,-3756 601.75,-3762 595.75,-3768 589.75,-3768 589.75,-3768 397.5,-3768 397.5,-3768 391.5,-3768 385.5,-3762 385.5,-3756 385.5,-3756 385.5,-2936 385.5,-2936 385.5,-2930 391.5,-2924 397.5,-2924"/>
<text text-anchor="middle" x="493.62" y="-3752.6" font-family="Helvetica,sans-Serif" font-weight="bold" font-size="12.00" fill="#495057">📁 hosts/homelab/services/media</text>
</g>
<g id="clust4" class="cluster">
<title>cluster_hosts_homelab_services_monitoring</title>
<path fill="#e9ecef" stroke="#adb5bd" d="M383.62,-2304C383.62,-2304 603.62,-2304 603.62,-2304 609.62,-2304 615.62,-2310 615.62,-2316 615.62,-2316 615.62,-2904 615.62,-2904 615.62,-2910 609.62,-2916 603.62,-2916 603.62,-2916 383.62,-2916 383.62,-2916 377.62,-2916 371.62,-2910 371.62,-2904 371.62,-2904 371.62,-2316 371.62,-2316 371.62,-2310 377.62,-2304 383.62,-2304"/>
<text text-anchor="middle" x="493.62" y="-2900.6" font-family="Helvetica,sans-Serif" font-weight="bold" font-size="12.00" fill="#495057">📁 hosts/homelab/services/monitoring</text>
</g>
<g id="clust5" class="cluster">
<title>cluster_hosts_homelab_services_random</title>
<path fill="#e9ecef" stroke="#adb5bd" d="M392.62,-1452C392.62,-1452 594.62,-1452 594.62,-1452 600.62,-1452 606.62,-1458 606.62,-1464 606.62,-1464 606.62,-2284 606.62,-2284 606.62,-2290 600.62,-2296 594.62,-2296 594.62,-2296 392.62,-2296 392.62,-2296 386.62,-2296 380.62,-2290 380.62,-2284 380.62,-2284 380.62,-1464 380.62,-1464 380.62,-1458 386.62,-1452 392.62,-1452"/>
<text text-anchor="middle" x="493.62" y="-2280.6" font-family="Helvetica,sans-Serif" font-weight="bold" font-size="12.00" fill="#495057">📁 hosts/homelab/services/random</text>
</g>
<g id="clust6" class="cluster">
<title>cluster_hosts_homelab_services_security</title>
<path fill="#e9ecef" stroke="#adb5bd" d="M392.62,-1064C392.62,-1064 594.62,-1064 594.62,-1064 600.62,-1064 606.62,-1070 606.62,-1076 606.62,-1076 606.62,-1432 606.62,-1432 606.62,-1438 600.62,-1444 594.62,-1444 594.62,-1444 392.62,-1444 392.62,-1444 386.62,-1444 380.62,-1438 380.62,-1432 380.62,-1432 380.62,-1076 380.62,-1076 380.62,-1070 386.62,-1064 392.62,-1064"/>
<text text-anchor="middle" x="493.62" y="-1428.6" font-family="Helvetica,sans-Serif" font-weight="bold" font-size="12.00" fill="#495057">📁 hosts/homelab/services/security</text>
</g>
<g id="clust7" class="cluster">
<title>cluster_hosts_perso</title>
<path fill="#e9ecef" stroke="#adb5bd" d="M159.25,-302C159.25,-302 578.75,-302 578.75,-302 584.75,-302 590.75,-308 590.75,-314 590.75,-314 590.75,-380 590.75,-380 590.75,-386 584.75,-392 578.75,-392 578.75,-392 159.25,-392 159.25,-392 153.25,-392 147.25,-386 147.25,-380 147.25,-380 147.25,-314 147.25,-314 147.25,-308 153.25,-302 159.25,-302"/>
<text text-anchor="middle" x="369" y="-376.6" font-family="Helvetica,sans-Serif" font-weight="bold" font-size="12.00" fill="#495057">📁 hosts/perso</text>
</g>
<g id="clust8" class="cluster">
<title>cluster_hosts_portable</title>
<path fill="#e9ecef" stroke="#adb5bd" d="M159.25,-8C159.25,-8 578.75,-8 578.75,-8 584.75,-8 590.75,-14 590.75,-20 590.75,-20 590.75,-86 590.75,-86 590.75,-92 584.75,-98 578.75,-98 578.75,-98 159.25,-98 159.25,-98 153.25,-98 147.25,-92 147.25,-86 147.25,-86 147.25,-20 147.25,-20 147.25,-14 153.25,-8 159.25,-8"/>
<text text-anchor="middle" x="369" y="-82.6" font-family="Helvetica,sans-Serif" font-weight="bold" font-size="12.00" fill="#495057">📁 hosts/portable</text>
</g>
<g id="clust9" class="cluster">
<title>cluster_modules_dev</title>
<path fill="#e9ecef" stroke="#adb5bd" d="M446.88,-556C446.88,-556 539.38,-556 539.38,-556 545.38,-556 551.38,-562 551.38,-568 551.38,-568 551.38,-634 551.38,-634 551.38,-640 545.38,-646 539.38,-646 539.38,-646 446.88,-646 446.88,-646 440.88,-646 434.88,-640 434.88,-634 434.88,-634 434.88,-568 434.88,-568 434.88,-562 440.88,-556 446.88,-556"/>
<text text-anchor="middle" x="493.12" y="-630.6" font-family="Helvetica,sans-Serif" font-weight="bold" font-size="12.00" fill="#495057">📁 modules/dev</text>
</g>
<g id="clust10" class="cluster">
<title>cluster_modules_gaming</title>
<path fill="#e9ecef" stroke="#adb5bd" d="M438.38,-400C438.38,-400 548.88,-400 548.88,-400 554.88,-400 560.88,-406 560.88,-412 560.88,-412 560.88,-536 560.88,-536 560.88,-542 554.88,-548 548.88,-548 548.88,-548 438.38,-548 438.38,-548 432.38,-548 426.38,-542 426.38,-536 426.38,-536 426.38,-412 426.38,-412 426.38,-406 432.38,-400 438.38,-400"/>
<text text-anchor="middle" x="493.62" y="-532.6" font-family="Helvetica,sans-Serif" font-weight="bold" font-size="12.00" fill="#495057">📁 modules/gaming</text>
</g>
<g id="clust11" class="cluster">
<title>cluster_modules_hyprland</title>
<path fill="#e9ecef" stroke="#adb5bd" d="M434.62,-106C434.62,-106 552.62,-106 552.62,-106 558.62,-106 564.62,-112 564.62,-118 564.62,-118 564.62,-184 564.62,-184 564.62,-190 558.62,-196 552.62,-196 552.62,-196 434.62,-196 434.62,-196 428.62,-196 422.62,-190 422.62,-184 422.62,-184 422.62,-118 422.62,-118 422.62,-112 428.62,-106 434.62,-106"/>
<text text-anchor="middle" x="493.62" y="-180.6" font-family="Helvetica,sans-Serif" font-weight="bold" font-size="12.00" fill="#495057">📁 modules/hyprland</text>
</g>
<g id="clust12" class="cluster">
<title>cluster_modules_nixos</title>
<path fill="#e9ecef" stroke="#adb5bd" d="M449.12,-752C449.12,-752 821.88,-752 821.88,-752 827.88,-752 833.88,-758 833.88,-764 833.88,-764 833.88,-946 833.88,-946 833.88,-952 827.88,-958 821.88,-958 821.88,-958 449.12,-958 449.12,-958 443.12,-958 437.12,-952 437.12,-946 437.12,-946 437.12,-764 437.12,-764 437.12,-758 443.12,-752 449.12,-752"/>
<text text-anchor="middle" x="635.5" y="-942.6" font-family="Helvetica,sans-Serif" font-weight="bold" font-size="12.00" fill="#495057">📁 modules/nixos</text>
</g>
<g id="clust13" class="cluster">
<title>cluster_modules_terminal</title>
<path fill="#e9ecef" stroke="#adb5bd" d="M436.12,-654C436.12,-654 551.12,-654 551.12,-654 557.12,-654 563.12,-660 563.12,-666 563.12,-666 563.12,-732 563.12,-732 563.12,-738 557.12,-744 551.12,-744 551.12,-744 436.12,-744 436.12,-744 430.12,-744 424.12,-738 424.12,-732 424.12,-732 424.12,-666 424.12,-666 424.12,-660 430.12,-654 436.12,-654"/>
<text text-anchor="middle" x="493.62" y="-728.6" font-family="Helvetica,sans-Serif" font-weight="bold" font-size="12.00" fill="#495057">📁 modules/terminal</text>
</g>
<g id="clust14" class="cluster">
<title>cluster_users_arthur_homelab</title>
<path fill="#e9ecef" stroke="#adb5bd" d="M446.88,-966C446.88,-966 795.62,-966 795.62,-966 801.62,-966 807.62,-972 807.62,-978 807.62,-978 807.62,-1044 807.62,-1044 807.62,-1050 801.62,-1056 795.62,-1056 795.62,-1056 446.88,-1056 446.88,-1056 440.88,-1056 434.88,-1050 434.88,-1044 434.88,-1044 434.88,-978 434.88,-978 434.88,-972 440.88,-966 446.88,-966"/>
<text text-anchor="middle" x="621.25" y="-1040.6" font-family="Helvetica,sans-Serif" font-weight="bold" font-size="12.00" fill="#495057">📁 users/arthur&#45;homelab</text>
</g>
<g id="clust15" class="cluster">
<title>cluster_users_arthur_perso</title>
<path fill="#e9ecef" stroke="#adb5bd" d="M446.88,-204C446.88,-204 795.62,-204 795.62,-204 801.62,-204 807.62,-210 807.62,-216 807.62,-216 807.62,-282 807.62,-282 807.62,-288 801.62,-294 795.62,-294 795.62,-294 446.88,-294 446.88,-294 440.88,-294 434.88,-288 434.88,-282 434.88,-282 434.88,-216 434.88,-216 434.88,-210 440.88,-204 446.88,-204"/>
<text text-anchor="middle" x="621.25" y="-278.6" font-family="Helvetica,sans-Serif" font-weight="bold" font-size="12.00" fill="#495057">📁 users/arthur&#45;perso</text>
</g>
<!-- N0 -->
<g id="node1" class="node">
<title>N0</title>
<path fill="#f8f9fa" stroke="#ced4da" d="M63.25,-3827C63.25,-3827 12,-3827 12,-3827 6,-3827 0,-3821 0,-3815 0,-3815 0,-3803 0,-3803 0,-3797 6,-3791 12,-3791 12,-3791 63.25,-3791 63.25,-3791 69.25,-3791 75.25,-3797 75.25,-3803 75.25,-3803 75.25,-3815 75.25,-3815 75.25,-3821 69.25,-3827 63.25,-3827"/>
<text text-anchor="middle" x="37.62" y="-3806.62" font-family="Helvetica,Arial,sans-serif" font-size="10.00" fill="#212529">📄 flake.nix</text>
</g>
<!-- N1 -->
<g id="node2" class="node">
<title>N1</title>
<path fill="#f8f9fa" stroke="#ced4da" d="M251.38,-3983C251.38,-3983 188.88,-3983 188.88,-3983 182.88,-3983 176.88,-3977 176.88,-3971 176.88,-3971 176.88,-3959 176.88,-3959 176.88,-3953 182.88,-3947 188.88,-3947 188.88,-3947 251.38,-3947 251.38,-3947 257.38,-3947 263.38,-3953 263.38,-3959 263.38,-3959 263.38,-3971 263.38,-3971 263.38,-3977 257.38,-3983 251.38,-3983"/>
<text text-anchor="middle" x="220.12" y="-3962.62" font-family="Helvetica,Arial,sans-serif" font-size="10.00" fill="#212529">📄 default.nix</text>
</g>
<!-- N0&#45;&gt;N1 -->
<g id="edge1" class="edge">
<title>N0&#45;&gt;N1</title>
<path fill="none" stroke="#6c757d" d="M55.21,-3827.49C85.4,-3861.15 146.25,-3929 146.25,-3929 146.25,-3929 159.29,-3935.44 174.33,-3942.87"/>
<polygon fill="#6c757d" stroke="#6c757d" points="173.12,-3945 180.48,-3945.91 175.29,-3940.61 173.12,-3945"/>
</g>
<!-- N2 -->
<g id="node3" class="node">
<title>N2</title>
<path fill="#f8f9fa" stroke="#ced4da" d="M266,-3827C266,-3827 174.25,-3827 174.25,-3827 168.25,-3827 162.25,-3821 162.25,-3815 162.25,-3815 162.25,-3803 162.25,-3803 162.25,-3797 168.25,-3791 174.25,-3791 174.25,-3791 266,-3791 266,-3791 272,-3791 278,-3797 278,-3803 278,-3803 278,-3815 278,-3815 278,-3821 272,-3827 266,-3827"/>
<text text-anchor="middle" x="220.12" y="-3806.62" font-family="Helvetica,Arial,sans-serif" font-size="10.00" fill="#212529">📄 configuration.nix</text>
</g>
<!-- N0&#45;&gt;N2 -->
<g id="edge2" class="edge">
<title>N0&#45;&gt;N2</title>
<path fill="none" stroke="#6c757d" d="M75.59,-3809C98.02,-3809 127.29,-3809 153.54,-3809"/>
<polygon fill="#6c757d" stroke="#6c757d" points="153.43,-3811.45 160.43,-3809 153.43,-3806.55 153.43,-3811.45"/>
</g>
<!-- N3 -->
<g id="node4" class="node">
<title>N3</title>
<path fill="#f8f9fa" stroke="#ced4da" d="M257.75,-3885C257.75,-3885 182.5,-3885 182.5,-3885 176.5,-3885 170.5,-3879 170.5,-3873 170.5,-3873 170.5,-3861 170.5,-3861 170.5,-3855 176.5,-3849 182.5,-3849 182.5,-3849 257.75,-3849 257.75,-3849 263.75,-3849 269.75,-3855 269.75,-3861 269.75,-3861 269.75,-3873 269.75,-3873 269.75,-3879 263.75,-3885 257.75,-3885"/>
<text text-anchor="middle" x="220.12" y="-3864.62" font-family="Helvetica,Arial,sans-serif" font-size="10.00" fill="#212529">📄 constants.nix</text>
</g>
<!-- N0&#45;&gt;N3 -->
<g id="edge3" class="edge">
<title>N0&#45;&gt;N3</title>
<path fill="none" stroke="#6c757d" d="M75.59,-3820.88C100.57,-3828.9 134.04,-3839.66 162.38,-3848.77"/>
<polygon fill="#6c757d" stroke="#6c757d" points="161.37,-3851.01 168.78,-3850.82 162.87,-3846.35 161.37,-3851.01"/>
</g>
<!-- N49 -->
<g id="node50" class="node">
<title>N49</title>
<path fill="#f8f9fa" stroke="#ced4da" d="M266,-353C266,-353 174.25,-353 174.25,-353 168.25,-353 162.25,-347 162.25,-341 162.25,-341 162.25,-329 162.25,-329 162.25,-323 168.25,-317 174.25,-317 174.25,-317 266,-317 266,-317 272,-317 278,-323 278,-329 278,-329 278,-341 278,-341 278,-347 272,-353 266,-353"/>
<text text-anchor="middle" x="220.12" y="-332.62" font-family="Helvetica,Arial,sans-serif" font-size="10.00" fill="#212529">📄 configuration.nix</text>
</g>
<!-- N0&#45;&gt;N49 -->
<g id="edge4" class="edge">
<title>N0&#45;&gt;N49</title>
<path fill="none" stroke="#6c757d" d="M39.57,-3790.73C52.88,-3534.66 201.77,-669.07 217.74,-361.67"/>
<polygon fill="#6c757d" stroke="#6c757d" points="220.18,-361.96 218.09,-354.84 215.28,-361.71 220.18,-361.96"/>
</g>
<!-- N51 -->
<g id="node52" class="node">
<title>N51</title>
<path fill="#f8f9fa" stroke="#ced4da" d="M266,-59C266,-59 174.25,-59 174.25,-59 168.25,-59 162.25,-53 162.25,-47 162.25,-47 162.25,-35 162.25,-35 162.25,-29 168.25,-23 174.25,-23 174.25,-23 266,-23 266,-23 272,-23 278,-29 278,-35 278,-35 278,-47 278,-47 278,-53 272,-59 266,-59"/>
<text text-anchor="middle" x="220.12" y="-38.62" font-family="Helvetica,Arial,sans-serif" font-size="10.00" fill="#212529">📄 configuration.nix</text>
</g>
<!-- N0&#45;&gt;N51 -->
<g id="edge5" class="edge">
<title>N0&#45;&gt;N51</title>
<path fill="none" stroke="#6c757d" d="M39.19,-3790.53C47.57,-3516.95 146.25,-297 146.25,-297 146.25,-297 193.08,-132.48 211.66,-67.22"/>
<polygon fill="#6c757d" stroke="#6c757d" points="213.91,-68.27 213.47,-60.87 209.2,-66.93 213.91,-68.27"/>
</g>
<!-- N4 -->
<g id="node5" class="node">
<title>N4</title>
<path fill="#f8f9fa" stroke="#ced4da" d="M563.75,-3827C563.75,-3827 422.5,-3827 422.5,-3827 416.5,-3827 410.5,-3821 410.5,-3815 410.5,-3815 410.5,-3803 410.5,-3803 410.5,-3797 416.5,-3791 422.5,-3791 422.5,-3791 563.75,-3791 563.75,-3791 569.75,-3791 575.75,-3797 575.75,-3803 575.75,-3803 575.75,-3815 575.75,-3815 575.75,-3821 569.75,-3827 563.75,-3827"/>
<text text-anchor="middle" x="493.12" y="-3806.62" font-family="Helvetica,Arial,sans-serif" font-size="10.00" fill="#212529">📄 hardware&#45;configuration.nix</text>
</g>
<!-- N2&#45;&gt;N4 -->
<g id="edge6" class="edge">
<title>N2&#45;&gt;N4</title>
<path fill="none" stroke="#6c757d" d="M278.27,-3809C314.08,-3809 361.02,-3809 401.79,-3809"/>
<polygon fill="#6c757d" stroke="#6c757d" points="401.61,-3811.45 408.61,-3809 401.61,-3806.55 401.61,-3811.45"/>
</g>
<!-- N5 -->
<g id="node6" class="node">
<title>N5</title>
<path fill="#f8f9fa" stroke="#ced4da" d="M522.5,-3671C522.5,-3671 463.75,-3671 463.75,-3671 457.75,-3671 451.75,-3665 451.75,-3659 451.75,-3659 451.75,-3647 451.75,-3647 451.75,-3641 457.75,-3635 463.75,-3635 463.75,-3635 522.5,-3635 522.5,-3635 528.5,-3635 534.5,-3641 534.5,-3647 534.5,-3647 534.5,-3659 534.5,-3659 534.5,-3665 528.5,-3671 522.5,-3671"/>
<text text-anchor="middle" x="493.12" y="-3650.62" font-family="Helvetica,Arial,sans-serif" font-size="10.00" fill="#212529">📄 byparr.nix</text>
</g>
<!-- N2&#45;&gt;N5 -->
<g id="edge7" class="edge">
<title>N2&#45;&gt;N5</title>
<path fill="none" stroke="#6c757d" d="M243.01,-3790.53C284.75,-3755.31 371.62,-3682 371.62,-3682 371.62,-3682 409.98,-3672.77 443.41,-3664.72"/>
<polygon fill="#6c757d" stroke="#6c757d" points="443.63,-3667.19 449.86,-3663.17 442.48,-3662.43 443.63,-3667.19"/>
</g>
<!-- N6 -->
<g id="node7" class="node">
<title>N6</title>
<path fill="#f8f9fa" stroke="#ced4da" d="M532.62,-3729C532.62,-3729 453.62,-3729 453.62,-3729 447.62,-3729 441.62,-3723 441.62,-3717 441.62,-3717 441.62,-3705 441.62,-3705 441.62,-3699 447.62,-3693 453.62,-3693 453.62,-3693 532.62,-3693 532.62,-3693 538.62,-3693 544.62,-3699 544.62,-3705 544.62,-3705 544.62,-3717 544.62,-3717 544.62,-3723 538.62,-3729 532.62,-3729"/>
<text text-anchor="middle" x="493.12" y="-3708.62" font-family="Helvetica,Arial,sans-serif" font-size="10.00" fill="#212529">📄 cleanuparr.nix</text>
</g>
<!-- N2&#45;&gt;N6 -->
<g id="edge8" class="edge">
<title>N2&#45;&gt;N6</title>
<path fill="none" stroke="#6c757d" d="M272.1,-3790.57C317.99,-3773.97 385.43,-3749.58 433.53,-3732.19"/>
<polygon fill="#6c757d" stroke="#6c757d" points="434.21,-3734.55 439.96,-3729.87 432.54,-3729.94 434.21,-3734.55"/>
</g>
<!-- N7 -->
<g id="node8" class="node">
<title>N7</title>
<path fill="#f8f9fa" stroke="#ced4da" d="M557.75,-2975C557.75,-2975 428.5,-2975 428.5,-2975 422.5,-2975 416.5,-2969 416.5,-2963 416.5,-2963 416.5,-2951 416.5,-2951 416.5,-2945 422.5,-2939 428.5,-2939 428.5,-2939 557.75,-2939 557.75,-2939 563.75,-2939 569.75,-2945 569.75,-2951 569.75,-2951 569.75,-2963 569.75,-2963 569.75,-2969 563.75,-2975 557.75,-2975"/>
<text text-anchor="middle" x="493.12" y="-2954.62" font-family="Helvetica,Arial,sans-serif" font-size="10.00" fill="#212529">📄 filebrowser&#45;quantum.nix</text>
</g>
<!-- N2&#45;&gt;N7 -->
<g id="edge9" class="edge">
<title>N2&#45;&gt;N7</title>
<path fill="none" stroke="#6c757d" d="M224.48,-3790.66C246.69,-3669.22 371.62,-2986 371.62,-2986 371.62,-2986 387.72,-2982.13 408.14,-2977.21"/>
<polygon fill="#6c757d" stroke="#6c757d" points="408.45,-2979.66 414.68,-2975.64 407.3,-2974.89 408.45,-2979.66"/>
</g>
<!-- N8 -->
<g id="node9" class="node">
<title>N8</title>
<path fill="#f8f9fa" stroke="#ced4da" d="M525.5,-3033C525.5,-3033 460.75,-3033 460.75,-3033 454.75,-3033 448.75,-3027 448.75,-3021 448.75,-3021 448.75,-3009 448.75,-3009 448.75,-3003 454.75,-2997 460.75,-2997 460.75,-2997 525.5,-2997 525.5,-2997 531.5,-2997 537.5,-3003 537.5,-3009 537.5,-3009 537.5,-3021 537.5,-3021 537.5,-3027 531.5,-3033 525.5,-3033"/>
<text text-anchor="middle" x="493.12" y="-3012.62" font-family="Helvetica,Arial,sans-serif" font-size="10.00" fill="#212529">📄 immich.nix</text>
</g>
<!-- N2&#45;&gt;N8 -->
<g id="edge10" class="edge">
<title>N2&#45;&gt;N8</title>
<path fill="none" stroke="#6c757d" d="M224.7,-3790.84C247.49,-3675 371.62,-3044 371.62,-3044 371.62,-3044 407.49,-3035.37 440.09,-3027.52"/>
<polygon fill="#6c757d" stroke="#6c757d" points="440.58,-3029.93 446.81,-3025.91 439.43,-3025.16 440.58,-3029.93"/>
</g>
<!-- N9 -->
<g id="node10" class="node">
<title>N9</title>
<path fill="#f8f9fa" stroke="#ced4da" d="M523.62,-3091C523.62,-3091 462.62,-3091 462.62,-3091 456.62,-3091 450.62,-3085 450.62,-3079 450.62,-3079 450.62,-3067 450.62,-3067 450.62,-3061 456.62,-3055 462.62,-3055 462.62,-3055 523.62,-3055 523.62,-3055 529.62,-3055 535.62,-3061 535.62,-3067 535.62,-3067 535.62,-3079 535.62,-3079 535.62,-3085 529.62,-3091 523.62,-3091"/>
<text text-anchor="middle" x="493.12" y="-3070.62" font-family="Helvetica,Arial,sans-serif" font-size="10.00" fill="#212529">📄 jellyfin.nix</text>
</g>
<!-- N2&#45;&gt;N9 -->
<g id="edge11" class="edge">
<title>N2&#45;&gt;N9</title>
<path fill="none" stroke="#6c757d" d="M225,-3790.81C248.55,-3680.15 371.62,-3102 371.62,-3102 371.62,-3102 409.24,-3092.95 442.44,-3084.96"/>
<polygon fill="#6c757d" stroke="#6c757d" points="442.61,-3087.44 448.85,-3083.42 441.47,-3082.67 442.61,-3087.44"/>
</g>
<!-- N10 -->
<g id="node11" class="node">
<title>N10</title>
<path fill="#f8f9fa" stroke="#ced4da" d="M523.62,-3149C523.62,-3149 462.62,-3149 462.62,-3149 456.62,-3149 450.62,-3143 450.62,-3137 450.62,-3137 450.62,-3125 450.62,-3125 450.62,-3119 456.62,-3113 462.62,-3113 462.62,-3113 523.62,-3113 523.62,-3113 529.62,-3113 535.62,-3119 535.62,-3125 535.62,-3125 535.62,-3137 535.62,-3137 535.62,-3143 529.62,-3149 523.62,-3149"/>
<text text-anchor="middle" x="493.12" y="-3128.62" font-family="Helvetica,Arial,sans-serif" font-size="10.00" fill="#212529">📄 komga.nix</text>
</g>
<!-- N2&#45;&gt;N10 -->
<g id="edge12" class="edge">
<title>N2&#45;&gt;N10</title>
<path fill="none" stroke="#6c757d" d="M225.39,-3790.62C249.88,-3685.01 371.62,-3160 371.62,-3160 371.62,-3160 409.24,-3150.95 442.44,-3142.96"/>
<polygon fill="#6c757d" stroke="#6c757d" points="442.61,-3145.44 448.85,-3141.42 441.47,-3140.67 442.61,-3145.44"/>
</g>
<!-- N11 -->
<g id="node12" class="node">
<title>N11</title>
<path fill="#f8f9fa" stroke="#ced4da" d="M531.12,-3207C531.12,-3207 455.12,-3207 455.12,-3207 449.12,-3207 443.12,-3201 443.12,-3195 443.12,-3195 443.12,-3183 443.12,-3183 443.12,-3177 449.12,-3171 455.12,-3171 455.12,-3171 531.12,-3171 531.12,-3171 537.12,-3171 543.12,-3177 543.12,-3183 543.12,-3183 543.12,-3195 543.12,-3195 543.12,-3201 537.12,-3207 531.12,-3207"/>
<text text-anchor="middle" x="493.12" y="-3186.62" font-family="Helvetica,Arial,sans-serif" font-size="10.00" fill="#212529">📄 onlyoffice.nix</text>
</g>
<!-- N2&#45;&gt;N11 -->
<g id="edge13" class="edge">
<title>N2&#45;&gt;N11</title>
<path fill="none" stroke="#6c757d" d="M225.79,-3790.66C251.2,-3690.91 371.62,-3218 371.62,-3218 371.62,-3218 403.53,-3210.32 434.51,-3202.87"/>
<polygon fill="#6c757d" stroke="#6c757d" points="435.06,-3205.25 441.29,-3201.23 433.91,-3200.49 435.06,-3205.25"/>
</g>
<!-- N12 -->
<g id="node13" class="node">
<title>N12</title>
<path fill="#f8f9fa" stroke="#ced4da" d="M527,-3265C527,-3265 459.25,-3265 459.25,-3265 453.25,-3265 447.25,-3259 447.25,-3253 447.25,-3253 447.25,-3241 447.25,-3241 447.25,-3235 453.25,-3229 459.25,-3229 459.25,-3229 527,-3229 527,-3229 533,-3229 539,-3235 539,-3241 539,-3241 539,-3253 539,-3253 539,-3259 533,-3265 527,-3265"/>
<text text-anchor="middle" x="493.12" y="-3244.62" font-family="Helvetica,Arial,sans-serif" font-size="10.00" fill="#212529">📄 prowlarr.nix</text>
</g>
<!-- N2&#45;&gt;N12 -->
<g id="edge14" class="edge">
<title>N2&#45;&gt;N12</title>
<path fill="none" stroke="#6c757d" d="M226.31,-3790.65C252.77,-3696.93 371.62,-3276 371.62,-3276 371.62,-3276 406.55,-3267.59 438.8,-3259.83"/>
<polygon fill="#6c757d" stroke="#6c757d" points="439.21,-3262.26 445.44,-3258.24 438.06,-3257.49 439.21,-3262.26"/>
</g>
<!-- N13 -->
<g id="node14" class="node">
<title>N13</title>
<path fill="#f8f9fa" stroke="#ced4da" d="M533,-3323C533,-3323 453.25,-3323 453.25,-3323 447.25,-3323 441.25,-3317 441.25,-3311 441.25,-3311 441.25,-3299 441.25,-3299 441.25,-3293 447.25,-3287 453.25,-3287 453.25,-3287 533,-3287 533,-3287 539,-3287 545,-3293 545,-3299 545,-3299 545,-3311 545,-3311 545,-3317 539,-3323 533,-3323"/>
<text text-anchor="middle" x="493.12" y="-3302.62" font-family="Helvetica,Arial,sans-serif" font-size="10.00" fill="#212529">📄 qbittorrent.nix</text>
</g>
<!-- N2&#45;&gt;N13 -->
<g id="edge15" class="edge">
<title>N2&#45;&gt;N13</title>
<path fill="none" stroke="#6c757d" d="M226.93,-3790.67C254.59,-3703.38 371.62,-3334 371.62,-3334 371.62,-3334 402.43,-3326.59 432.89,-3319.26"/>
<polygon fill="#6c757d" stroke="#6c757d" points="433.32,-3321.67 439.55,-3317.65 432.17,-3316.91 433.32,-3321.67"/>
</g>
<!-- N14 -->
<g id="node15" class="node">
<title>N14</title>
<path fill="#f8f9fa" stroke="#ced4da" d="M528.12,-3381C528.12,-3381 458.12,-3381 458.12,-3381 452.12,-3381 446.12,-3375 446.12,-3369 446.12,-3369 446.12,-3357 446.12,-3357 446.12,-3351 452.12,-3345 458.12,-3345 458.12,-3345 528.12,-3345 528.12,-3345 534.12,-3345 540.12,-3351 540.12,-3357 540.12,-3357 540.12,-3369 540.12,-3369 540.12,-3375 534.12,-3381 528.12,-3381"/>
<text text-anchor="middle" x="493.12" y="-3360.62" font-family="Helvetica,Arial,sans-serif" font-size="10.00" fill="#212529">📄 recyclarr.nix</text>
</g>
<!-- N2&#45;&gt;N14 -->
<g id="edge16" class="edge">
<title>N2&#45;&gt;N14</title>
<path fill="none" stroke="#6c757d" d="M227.79,-3790.54C256.91,-3709.84 371.62,-3392 371.62,-3392 371.62,-3392 405.85,-3383.76 437.82,-3376.07"/>
<polygon fill="#6c757d" stroke="#6c757d" points="438.18,-3378.5 444.41,-3374.48 437.03,-3373.74 438.18,-3378.5"/>
</g>
<!-- N15 -->
<g id="node16" class="node">
<title>N15</title>
<path fill="#f8f9fa" stroke="#ced4da" d="M517.25,-3439C517.25,-3439 469,-3439 469,-3439 463,-3439 457,-3433 457,-3427 457,-3427 457,-3415 457,-3415 457,-3409 463,-3403 469,-3403 469,-3403 517.25,-3403 517.25,-3403 523.25,-3403 529.25,-3409 529.25,-3415 529.25,-3415 529.25,-3427 529.25,-3427 529.25,-3433 523.25,-3439 517.25,-3439"/>
<text text-anchor="middle" x="493.12" y="-3418.62" font-family="Helvetica,Arial,sans-serif" font-size="10.00" fill="#212529">📄 seer.nix</text>
</g>
<!-- N2&#45;&gt;N15 -->
<g id="edge17" class="edge">
<title>N2&#45;&gt;N15</title>
<path fill="none" stroke="#6c757d" d="M228.8,-3790.7C259.46,-3717.55 371.62,-3450 371.62,-3450 371.62,-3450 414.01,-3439.8 448.5,-3431.5"/>
<polygon fill="#6c757d" stroke="#6c757d" points="448.92,-3433.92 455.15,-3429.9 447.77,-3429.15 448.92,-3433.92"/>
</g>
<!-- N16 -->
<g id="node17" class="node">
<title>N16</title>
<path fill="#f8f9fa" stroke="#ced4da" d="M522.12,-3497C522.12,-3497 464.12,-3497 464.12,-3497 458.12,-3497 452.12,-3491 452.12,-3485 452.12,-3485 452.12,-3473 452.12,-3473 452.12,-3467 458.12,-3461 464.12,-3461 464.12,-3461 522.12,-3461 522.12,-3461 528.12,-3461 534.12,-3467 534.12,-3473 534.12,-3473 534.12,-3485 534.12,-3485 534.12,-3491 528.12,-3497 522.12,-3497"/>
<text text-anchor="middle" x="493.12" y="-3476.62" font-family="Helvetica,Arial,sans-serif" font-size="10.00" fill="#212529">📄 sonarr.nix</text>
</g>
<!-- N2&#45;&gt;N16 -->
<g id="edge18" class="edge">
<title>N2&#45;&gt;N16</title>
<path fill="none" stroke="#6c757d" d="M230.31,-3790.62C262.99,-3725.27 371.62,-3508 371.62,-3508 371.62,-3508 410.22,-3498.71 443.73,-3490.65"/>
<polygon fill="#6c757d" stroke="#6c757d" points="443.96,-3493.11 450.19,-3489.09 442.81,-3488.35 443.96,-3493.11"/>
</g>
<!-- N17 -->
<g id="node18" class="node">
<title>N17</title>
<path fill="#f8f9fa" stroke="#ced4da" d="M532.25,-3555C532.25,-3555 454,-3555 454,-3555 448,-3555 442,-3549 442,-3543 442,-3543 442,-3531 442,-3531 442,-3525 448,-3519 454,-3519 454,-3519 532.25,-3519 532.25,-3519 538.25,-3519 544.25,-3525 544.25,-3531 544.25,-3531 544.25,-3543 544.25,-3543 544.25,-3549 538.25,-3555 532.25,-3555"/>
<text text-anchor="middle" x="493.12" y="-3534.62" font-family="Helvetica,Arial,sans-serif" font-size="10.00" fill="#212529">📄 suwayomi.nix</text>
</g>
<!-- N2&#45;&gt;N17 -->
<g id="edge19" class="edge">
<title>N2&#45;&gt;N17</title>
<path fill="none" stroke="#6c757d" d="M232.44,-3790.74C267.44,-3734.22 371.62,-3566 371.62,-3566 371.62,-3566 402.87,-3558.48 433.54,-3551.1"/>
<polygon fill="#6c757d" stroke="#6c757d" points="434.02,-3553.5 440.25,-3549.48 432.87,-3548.74 434.02,-3553.5"/>
</g>
<!-- N18 -->
<g id="node19" class="node">
<title>N18</title>
<path fill="#f8f9fa" stroke="#ced4da" d="M522.88,-3613C522.88,-3613 463.38,-3613 463.38,-3613 457.38,-3613 451.38,-3607 451.38,-3601 451.38,-3601 451.38,-3589 451.38,-3589 451.38,-3583 457.38,-3577 463.38,-3577 463.38,-3577 522.88,-3577 522.88,-3577 528.88,-3577 534.88,-3583 534.88,-3589 534.88,-3589 534.88,-3601 534.88,-3601 534.88,-3607 528.88,-3613 522.88,-3613"/>
<text text-anchor="middle" x="493.12" y="-3592.62" font-family="Helvetica,Arial,sans-serif" font-size="10.00" fill="#212529">📄 tranga.nix</text>
</g>
<!-- N2&#45;&gt;N18 -->
<g id="edge20" class="edge">
<title>N2&#45;&gt;N18</title>
<path fill="none" stroke="#6c757d" d="M236.11,-3790.59C274.17,-3743.79 371.62,-3624 371.62,-3624 371.62,-3624 409.73,-3614.83 443.08,-3606.8"/>
<polygon fill="#6c757d" stroke="#6c757d" points="443.29,-3609.27 449.52,-3605.25 442.14,-3604.51 443.29,-3609.27"/>
</g>
<!-- N19 -->
<g id="node20" class="node">
<title>N19</title>
<path fill="#f8f9fa" stroke="#ced4da" d="M518.38,-2703C518.38,-2703 467.88,-2703 467.88,-2703 461.88,-2703 455.88,-2697 455.88,-2691 455.88,-2691 455.88,-2679 455.88,-2679 455.88,-2673 461.88,-2667 467.88,-2667 467.88,-2667 518.38,-2667 518.38,-2667 524.38,-2667 530.38,-2673 530.38,-2679 530.38,-2679 530.38,-2691 530.38,-2691 530.38,-2697 524.38,-2703 518.38,-2703"/>
<text text-anchor="middle" x="493.12" y="-2682.62" font-family="Helvetica,Arial,sans-serif" font-size="10.00" fill="#212529">📄 alloy.nix</text>
</g>
<!-- N2&#45;&gt;N19 -->
<g id="edge21" class="edge">
<title>N2&#45;&gt;N19</title>
<path fill="none" stroke="#6c757d" d="M223.61,-3790.91C243.18,-3648.54 371.62,-2714 371.62,-2714 371.62,-2714 413.24,-2703.99 447.56,-2695.73"/>
<polygon fill="#6c757d" stroke="#6c757d" points="447.94,-2698.15 454.17,-2694.13 446.79,-2693.39 447.94,-2698.15"/>
</g>
<!-- N20 -->
<g id="node21" class="node">
<title>N20</title>
<path fill="#f8f9fa" stroke="#ced4da" d="M531.88,-2761C531.88,-2761 454.38,-2761 454.38,-2761 448.38,-2761 442.38,-2755 442.38,-2749 442.38,-2749 442.38,-2737 442.38,-2737 442.38,-2731 448.38,-2725 454.38,-2725 454.38,-2725 531.88,-2725 531.88,-2725 537.88,-2725 543.88,-2731 543.88,-2737 543.88,-2737 543.88,-2749 543.88,-2749 543.88,-2755 537.88,-2761 531.88,-2761"/>
<text text-anchor="middle" x="493.12" y="-2740.62" font-family="Helvetica,Arial,sans-serif" font-size="10.00" fill="#212529">📄 borgmatic.nix</text>
</g>
<!-- N2&#45;&gt;N20 -->
<g id="edge22" class="edge">
<title>N2&#45;&gt;N20</title>
<path fill="none" stroke="#6c757d" d="M223.8,-3790.56C243.99,-3651.43 371.62,-2772 371.62,-2772 371.62,-2772 403.09,-2764.43 433.86,-2757.02"/>
<polygon fill="#6c757d" stroke="#6c757d" points="434.37,-2759.42 440.6,-2755.4 433.22,-2754.66 434.37,-2759.42"/>
</g>
<!-- N21 -->
<g id="node22" class="node">
<title>N21</title>
<path fill="#f8f9fa" stroke="#ced4da" d="M517.62,-2819C517.62,-2819 468.62,-2819 468.62,-2819 462.62,-2819 456.62,-2813 456.62,-2807 456.62,-2807 456.62,-2795 456.62,-2795 456.62,-2789 462.62,-2783 468.62,-2783 468.62,-2783 517.62,-2783 517.62,-2783 523.62,-2783 529.62,-2789 529.62,-2795 529.62,-2795 529.62,-2807 529.62,-2807 529.62,-2813 523.62,-2819 517.62,-2819"/>
<text text-anchor="middle" x="493.12" y="-2798.62" font-family="Helvetica,Arial,sans-serif" font-size="10.00" fill="#212529">📄 diun.nix</text>
</g>
<!-- N2&#45;&gt;N21 -->
<g id="edge23" class="edge">
<title>N2&#45;&gt;N21</title>
<path fill="none" stroke="#6c757d" d="M223.93,-3790.75C244.53,-3656.73 371.62,-2830 371.62,-2830 371.62,-2830 413.75,-2819.86 448.19,-2811.57"/>
<polygon fill="#6c757d" stroke="#6c757d" points="448.59,-2814 454.83,-2809.98 447.45,-2809.23 448.59,-2814"/>
</g>
<!-- N22 -->
<g id="node23" class="node">
<title>N22</title>
<path fill="#f8f9fa" stroke="#ced4da" d="M525.88,-2877C525.88,-2877 460.38,-2877 460.38,-2877 454.38,-2877 448.38,-2871 448.38,-2865 448.38,-2865 448.38,-2853 448.38,-2853 448.38,-2847 454.38,-2841 460.38,-2841 460.38,-2841 525.88,-2841 525.88,-2841 531.88,-2841 537.88,-2847 537.88,-2853 537.88,-2853 537.88,-2865 537.88,-2865 537.88,-2871 531.88,-2877 525.88,-2877"/>
<text text-anchor="middle" x="493.12" y="-2856.62" font-family="Helvetica,Arial,sans-serif" font-size="10.00" fill="#212529">📄 grafana.nix</text>
</g>
<!-- N2&#45;&gt;N22 -->
<g id="edge24" class="edge">
<title>N2&#45;&gt;N22</title>
<path fill="none" stroke="#6c757d" d="M224.2,-3790.82C245.61,-3664.19 371.62,-2919 371.62,-2919 371.62,-2919 413.42,-2898.19 447.79,-2881.08"/>
<polygon fill="#6c757d" stroke="#6c757d" points="448.46,-2883.48 453.63,-2878.17 446.27,-2879.09 448.46,-2883.48"/>
</g>
<!-- N23 -->
<g id="node24" class="node">
<title>N23</title>
<path fill="#f8f9fa" stroke="#ced4da" d="M516.12,-2355C516.12,-2355 470.12,-2355 470.12,-2355 464.12,-2355 458.12,-2349 458.12,-2343 458.12,-2343 458.12,-2331 458.12,-2331 458.12,-2325 464.12,-2319 470.12,-2319 470.12,-2319 516.12,-2319 516.12,-2319 522.12,-2319 528.12,-2325 528.12,-2331 528.12,-2331 528.12,-2343 528.12,-2343 528.12,-2349 522.12,-2355 516.12,-2355"/>
<text text-anchor="middle" x="493.12" y="-2334.62" font-family="Helvetica,Arial,sans-serif" font-size="10.00" fill="#212529">📄 loki.nix</text>
</g>
<!-- N2&#45;&gt;N23 -->
<g id="edge25" class="edge">
<title>N2&#45;&gt;N23</title>
<path fill="none" stroke="#6c757d" d="M223.03,-3790.76C240.45,-3623.71 371.62,-2366 371.62,-2366 371.62,-2366 415.05,-2355.55 449.76,-2347.2"/>
<polygon fill="#6c757d" stroke="#6c757d" points="450.21,-2349.61 456.45,-2345.59 449.07,-2344.84 450.21,-2349.61"/>
</g>
<!-- N24 -->
<g id="node25" class="node">
<title>N24</title>
<path fill="#f8f9fa" stroke="#ced4da" d="M525.88,-2413C525.88,-2413 460.38,-2413 460.38,-2413 454.38,-2413 448.38,-2407 448.38,-2401 448.38,-2401 448.38,-2389 448.38,-2389 448.38,-2383 454.38,-2377 460.38,-2377 460.38,-2377 525.88,-2377 525.88,-2377 531.88,-2377 537.88,-2383 537.88,-2389 537.88,-2389 537.88,-2401 537.88,-2401 537.88,-2407 531.88,-2413 525.88,-2413"/>
<text text-anchor="middle" x="493.12" y="-2392.62" font-family="Helvetica,Arial,sans-serif" font-size="10.00" fill="#212529">📄 netdata.nix</text>
</g>
<!-- N2&#45;&gt;N24 -->
<g id="edge26" class="edge">
<title>N2&#45;&gt;N24</title>
<path fill="none" stroke="#6c757d" d="M223.11,-3790.73C240.86,-3627.38 371.62,-2424 371.62,-2424 371.62,-2424 407.25,-2415.43 439.76,-2407.6"/>
<polygon fill="#6c757d" stroke="#6c757d" points="440.24,-2410.01 446.47,-2405.99 439.09,-2405.24 440.24,-2410.01"/>
</g>
<!-- N25 -->
<g id="node26" class="node">
<title>N25</title>
<path fill="#f8f9fa" stroke="#ced4da" d="M542.75,-2471C542.75,-2471 443.5,-2471 443.5,-2471 437.5,-2471 431.5,-2465 431.5,-2459 431.5,-2459 431.5,-2447 431.5,-2447 431.5,-2441 437.5,-2435 443.5,-2435 443.5,-2435 542.75,-2435 542.75,-2435 548.75,-2435 554.75,-2441 554.75,-2447 554.75,-2447 554.75,-2459 554.75,-2459 554.75,-2465 548.75,-2471 542.75,-2471"/>
<text text-anchor="middle" x="493.12" y="-2450.62" font-family="Helvetica,Arial,sans-serif" font-size="10.00" fill="#212529">📄 power&#45;monitor.nix</text>
</g>
<!-- N2&#45;&gt;N25 -->
<g id="edge27" class="edge">
<title>N2&#45;&gt;N25</title>
<path fill="none" stroke="#6c757d" d="M223.2,-3790.75C241.27,-3631.36 371.62,-2482 371.62,-2482 371.62,-2482 396.19,-2476.09 423.14,-2469.6"/>
<polygon fill="#6c757d" stroke="#6c757d" points="423.47,-2472.04 429.7,-2468.02 422.32,-2467.28 423.47,-2472.04"/>
</g>
<!-- N26 -->
<g id="node27" class="node">
<title>N26</title>
<path fill="#f8f9fa" stroke="#ced4da" d="M536.38,-2529C536.38,-2529 449.88,-2529 449.88,-2529 443.88,-2529 437.88,-2523 437.88,-2517 437.88,-2517 437.88,-2505 437.88,-2505 437.88,-2499 443.88,-2493 449.88,-2493 449.88,-2493 536.38,-2493 536.38,-2493 542.38,-2493 548.38,-2499 548.38,-2505 548.38,-2505 548.38,-2517 548.38,-2517 548.38,-2523 542.38,-2529 536.38,-2529"/>
<text text-anchor="middle" x="493.12" y="-2508.62" font-family="Helvetica,Arial,sans-serif" font-size="10.00" fill="#212529">📄 prometheus.nix</text>
</g>
<!-- N2&#45;&gt;N26 -->
<g id="edge28" class="edge">
<title>N2&#45;&gt;N26</title>
<path fill="none" stroke="#6c757d" d="M223.31,-3790.57C241.82,-3634.52 371.62,-2540 371.62,-2540 371.62,-2540 400.04,-2533.16 429.27,-2526.13"/>
<polygon fill="#6c757d" stroke="#6c757d" points="429.81,-2528.52 436.04,-2524.5 428.67,-2523.75 429.81,-2528.52"/>
</g>
<!-- N27 -->
<g id="node28" class="node">
<title>N27</title>
<path fill="#f8f9fa" stroke="#ced4da" d="M525.88,-2587C525.88,-2587 460.38,-2587 460.38,-2587 454.38,-2587 448.38,-2581 448.38,-2575 448.38,-2575 448.38,-2563 448.38,-2563 448.38,-2557 454.38,-2551 460.38,-2551 460.38,-2551 525.88,-2551 525.88,-2551 531.88,-2551 537.88,-2557 537.88,-2563 537.88,-2563 537.88,-2575 537.88,-2575 537.88,-2581 531.88,-2587 525.88,-2587"/>
<text text-anchor="middle" x="493.12" y="-2566.62" font-family="Helvetica,Arial,sans-serif" font-size="10.00" fill="#212529">📄 scrutiny.nix</text>
</g>
<!-- N2&#45;&gt;N27 -->
<g id="edge29" class="edge">
<title>N2&#45;&gt;N27</title>
<path fill="none" stroke="#6c757d" d="M223.37,-3790.94C242.09,-3640.3 371.62,-2598 371.62,-2598 371.62,-2598 407.25,-2589.43 439.76,-2581.6"/>
<polygon fill="#6c757d" stroke="#6c757d" points="440.24,-2584.01 446.47,-2579.99 439.09,-2579.24 440.24,-2584.01"/>
</g>
<!-- N28 -->
<g id="node29" class="node">
<title>N28</title>
<path fill="#f8f9fa" stroke="#ced4da" d="M539.75,-2645C539.75,-2645 446.5,-2645 446.5,-2645 440.5,-2645 434.5,-2639 434.5,-2633 434.5,-2633 434.5,-2621 434.5,-2621 434.5,-2615 440.5,-2609 446.5,-2609 446.5,-2609 539.75,-2609 539.75,-2609 545.75,-2609 551.75,-2615 551.75,-2621 551.75,-2621 551.75,-2633 551.75,-2633 551.75,-2639 545.75,-2645 539.75,-2645"/>
<text text-anchor="middle" x="493.12" y="-2624.62" font-family="Helvetica,Arial,sans-serif" font-size="10.00" fill="#212529">📄 uptime&#45;kuma.nix</text>
</g>
<!-- N2&#45;&gt;N28 -->
<g id="edge30" class="edge">
<title>N2&#45;&gt;N28</title>
<path fill="none" stroke="#6c757d" d="M223.49,-3790.89C242.64,-3644.2 371.62,-2656 371.62,-2656 371.62,-2656 398.19,-2649.61 426.37,-2642.82"/>
<polygon fill="#6c757d" stroke="#6c757d" points="426.64,-2645.28 432.87,-2641.26 425.5,-2640.52 426.64,-2645.28"/>
</g>
<!-- N29 -->
<g id="node30" class="node">
<title>N29</title>
<path fill="#f8f9fa" stroke="#ced4da" d="M545.75,-2199C545.75,-2199 440.5,-2199 440.5,-2199 434.5,-2199 428.5,-2193 428.5,-2187 428.5,-2187 428.5,-2175 428.5,-2175 428.5,-2169 434.5,-2163 440.5,-2163 440.5,-2163 545.75,-2163 545.75,-2163 551.75,-2163 557.75,-2169 557.75,-2175 557.75,-2175 557.75,-2187 557.75,-2187 557.75,-2193 551.75,-2199 545.75,-2199"/>
<text text-anchor="middle" x="493.12" y="-2178.62" font-family="Helvetica,Arial,sans-serif" font-size="10.00" fill="#212529">📄 crafty&#45;controller.nix</text>
</g>
<!-- N2&#45;&gt;N29 -->
<g id="edge31" class="edge">
<title>N2&#45;&gt;N29</title>
<path fill="none" stroke="#6c757d" d="M222.84,-3790.77C239.49,-3613.91 371.62,-2210 371.62,-2210 371.62,-2210 394.47,-2204.5 420.27,-2198.29"/>
<polygon fill="#6c757d" stroke="#6c757d" points="420.64,-2200.72 426.87,-2196.7 419.5,-2195.96 420.64,-2200.72"/>
</g>
<!-- N30 -->
<g id="node31" class="node">
<title>N30</title>
<path fill="#f8f9fa" stroke="#ced4da" d="M522.88,-2257C522.88,-2257 463.38,-2257 463.38,-2257 457.38,-2257 451.38,-2251 451.38,-2245 451.38,-2245 451.38,-2233 451.38,-2233 451.38,-2227 457.38,-2221 463.38,-2221 463.38,-2221 522.88,-2221 522.88,-2221 528.88,-2221 534.88,-2227 534.88,-2233 534.88,-2233 534.88,-2245 534.88,-2245 534.88,-2251 528.88,-2257 522.88,-2257"/>
<text text-anchor="middle" x="493.12" y="-2236.62" font-family="Helvetica,Arial,sans-serif" font-size="10.00" fill="#212529">📄 firefox.nix</text>
</g>
<!-- N2&#45;&gt;N30 -->
<g id="edge32" class="edge">
<title>N2&#45;&gt;N30</title>
<path fill="none" stroke="#6c757d" d="M222.95,-3790.72C240.04,-3619.25 371.62,-2299 371.62,-2299 371.62,-2299 413.42,-2278.19 447.79,-2261.08"/>
<polygon fill="#6c757d" stroke="#6c757d" points="448.46,-2263.48 453.63,-2258.17 446.27,-2259.09 448.46,-2263.48"/>
</g>
<!-- N31 -->
<g id="node32" class="node">
<title>N31</title>
<path fill="#f8f9fa" stroke="#ced4da" d="M524.38,-1503C524.38,-1503 461.88,-1503 461.88,-1503 455.88,-1503 449.88,-1497 449.88,-1491 449.88,-1491 449.88,-1479 449.88,-1479 449.88,-1473 455.88,-1467 461.88,-1467 461.88,-1467 524.38,-1467 524.38,-1467 530.38,-1467 536.38,-1473 536.38,-1479 536.38,-1479 536.38,-1491 536.38,-1491 536.38,-1497 530.38,-1503 524.38,-1503"/>
<text text-anchor="middle" x="493.12" y="-1482.62" font-family="Helvetica,Arial,sans-serif" font-size="10.00" fill="#212529">📄 forgejo.nix</text>
</g>
<!-- N2&#45;&gt;N31 -->
<g id="edge33" class="edge">
<title>N2&#45;&gt;N31</title>
<path fill="none" stroke="#6c757d" d="M222.34,-3790.53C236.58,-3573.33 371.62,-1514 371.62,-1514 371.62,-1514 408.44,-1505.14 441.38,-1497.21"/>
<polygon fill="#6c757d" stroke="#6c757d" points="441.94,-1499.6 448.17,-1495.58 440.79,-1494.83 441.94,-1499.6"/>
</g>
<!-- N32 -->
<g id="node33" class="node">
<title>N32</title>
<path fill="#f8f9fa" stroke="#ced4da" d="M526.62,-1561C526.62,-1561 459.62,-1561 459.62,-1561 453.62,-1561 447.62,-1555 447.62,-1549 447.62,-1549 447.62,-1537 447.62,-1537 447.62,-1531 453.62,-1525 459.62,-1525 459.62,-1525 526.62,-1525 526.62,-1525 532.62,-1525 538.62,-1531 538.62,-1537 538.62,-1537 538.62,-1549 538.62,-1549 538.62,-1555 532.62,-1561 526.62,-1561"/>
<text text-anchor="middle" x="493.12" y="-1540.62" font-family="Helvetica,Arial,sans-serif" font-size="10.00" fill="#212529">📄 freshrss.nix</text>
</g>
<!-- N2&#45;&gt;N32 -->
<g id="edge34" class="edge">
<title>N2&#45;&gt;N32</title>
<path fill="none" stroke="#6c757d" d="M222.36,-3790.66C236.72,-3577.22 371.62,-1572 371.62,-1572 371.62,-1572 406.78,-1563.54 439.12,-1555.76"/>
<polygon fill="#6c757d" stroke="#6c757d" points="439.55,-1558.17 445.78,-1554.15 438.4,-1553.41 439.55,-1558.17"/>
</g>
<!-- N33 -->
<g id="node34" class="node">
<title>N33</title>
<path fill="#f8f9fa" stroke="#ced4da" d="M533,-1619C533,-1619 453.25,-1619 453.25,-1619 447.25,-1619 441.25,-1613 441.25,-1607 441.25,-1607 441.25,-1595 441.25,-1595 441.25,-1589 447.25,-1583 453.25,-1583 453.25,-1583 533,-1583 533,-1583 539,-1583 545,-1589 545,-1595 545,-1595 545,-1607 545,-1607 545,-1613 539,-1619 533,-1619"/>
<text text-anchor="middle" x="493.12" y="-1598.62" font-family="Helvetica,Arial,sans-serif" font-size="10.00" fill="#212529">📄 homepage.nix</text>
</g>
<!-- N2&#45;&gt;N33 -->
<g id="edge35" class="edge">
<title>N2&#45;&gt;N33</title>
<path fill="none" stroke="#6c757d" d="M222.38,-3790.82C236.86,-3581.21 371.62,-1630 371.62,-1630 371.62,-1630 402.43,-1622.59 432.89,-1615.26"/>
<polygon fill="#6c757d" stroke="#6c757d" points="433.32,-1617.67 439.55,-1613.65 432.17,-1612.91 433.32,-1617.67"/>
</g>
<!-- N34 -->
<g id="node35" class="node">
<title>N34</title>
<path fill="#f8f9fa" stroke="#ced4da" d="M538.25,-1677C538.25,-1677 448,-1677 448,-1677 442,-1677 436,-1671 436,-1665 436,-1665 436,-1653 436,-1653 436,-1647 442,-1641 448,-1641 448,-1641 538.25,-1641 538.25,-1641 544.25,-1641 550.25,-1647 550.25,-1653 550.25,-1653 550.25,-1665 550.25,-1665 550.25,-1671 544.25,-1677 538.25,-1677"/>
<text text-anchor="middle" x="493.12" y="-1656.62" font-family="Helvetica,Arial,sans-serif" font-size="10.00" fill="#212529">📄 local&#45;finance.nix</text>
</g>
<!-- N2&#45;&gt;N34 -->
<g id="edge36" class="edge">
<title>N2&#45;&gt;N34</title>
<path fill="none" stroke="#6c757d" d="M222.43,-3790.66C237.14,-3583.36 371.62,-1688 371.62,-1688 371.62,-1688 399,-1681.41 427.66,-1674.51"/>
<polygon fill="#6c757d" stroke="#6c757d" points="428.05,-1676.94 434.28,-1672.92 426.91,-1672.18 428.05,-1676.94"/>
</g>
<!-- N35 -->
<g id="node36" class="node">
<title>N35</title>
<path fill="#f8f9fa" stroke="#ced4da" d="M516.12,-1735C516.12,-1735 470.12,-1735 470.12,-1735 464.12,-1735 458.12,-1729 458.12,-1723 458.12,-1723 458.12,-1711 458.12,-1711 458.12,-1705 464.12,-1699 470.12,-1699 470.12,-1699 516.12,-1699 516.12,-1699 522.12,-1699 528.12,-1705 528.12,-1711 528.12,-1711 528.12,-1723 528.12,-1723 528.12,-1729 522.12,-1735 516.12,-1735"/>
<text text-anchor="middle" x="493.12" y="-1714.62" font-family="Helvetica,Arial,sans-serif" font-size="10.00" fill="#212529">📄 n8n.nix</text>
</g>
<!-- N2&#45;&gt;N35 -->
<g id="edge37" class="edge">
<title>N2&#45;&gt;N35</title>
<path fill="none" stroke="#6c757d" d="M222.47,-3790.54C237.41,-3585.72 371.62,-1746 371.62,-1746 371.62,-1746 415.05,-1735.55 449.76,-1727.2"/>
<polygon fill="#6c757d" stroke="#6c757d" points="450.21,-1729.61 456.45,-1725.59 449.07,-1724.84 450.21,-1729.61"/>
</g>
<!-- N36 -->
<g id="node37" class="node">
<title>N36</title>
<path fill="#f8f9fa" stroke="#ced4da" d="M522.5,-1793C522.5,-1793 463.75,-1793 463.75,-1793 457.75,-1793 451.75,-1787 451.75,-1781 451.75,-1781 451.75,-1769 451.75,-1769 451.75,-1763 457.75,-1757 463.75,-1757 463.75,-1757 522.5,-1757 522.5,-1757 528.5,-1757 534.5,-1763 534.5,-1769 534.5,-1769 534.5,-1781 534.5,-1781 534.5,-1787 528.5,-1793 522.5,-1793"/>
<text text-anchor="middle" x="493.12" y="-1772.62" font-family="Helvetica,Arial,sans-serif" font-size="10.00" fill="#212529">📄 quartz.nix</text>
</g>
<!-- N2&#45;&gt;N36 -->
<g id="edge38" class="edge">
<title>N2&#45;&gt;N36</title>
<path fill="none" stroke="#6c757d" d="M222.5,-3790.74C237.55,-3590.15 371.62,-1804 371.62,-1804 371.62,-1804 409.98,-1794.77 443.41,-1786.72"/>
<polygon fill="#6c757d" stroke="#6c757d" points="443.63,-1789.19 449.86,-1785.17 442.48,-1784.43 443.63,-1789.19"/>
</g>
<!-- N37 -->
<g id="node38" class="node">
<title>N37</title>
<path fill="#f8f9fa" stroke="#ced4da" d="M521.75,-1851C521.75,-1851 464.5,-1851 464.5,-1851 458.5,-1851 452.5,-1845 452.5,-1839 452.5,-1839 452.5,-1827 452.5,-1827 452.5,-1821 458.5,-1815 464.5,-1815 464.5,-1815 521.75,-1815 521.75,-1815 527.75,-1815 533.75,-1821 533.75,-1827 533.75,-1827 533.75,-1839 533.75,-1839 533.75,-1845 527.75,-1851 521.75,-1851"/>
<text text-anchor="middle" x="493.12" y="-1830.62" font-family="Helvetica,Arial,sans-serif" font-size="10.00" fill="#212529">📄 romm.nix</text>
</g>
<!-- N2&#45;&gt;N37 -->
<g id="edge39" class="edge">
<title>N2&#45;&gt;N37</title>
<path fill="none" stroke="#6c757d" d="M222.54,-3790.66C237.83,-3592.89 371.62,-1862 371.62,-1862 371.62,-1862 410.47,-1852.65 444.05,-1844.57"/>
<polygon fill="#6c757d" stroke="#6c757d" points="444.3,-1847.03 450.53,-1843.01 443.15,-1842.27 444.3,-1847.03"/>
</g>
<!-- N38 -->
<g id="node39" class="node">
<title>N38</title>
<path fill="#f8f9fa" stroke="#ced4da" d="M552.12,-1909C552.12,-1909 434.12,-1909 434.12,-1909 428.12,-1909 422.12,-1903 422.12,-1897 422.12,-1897 422.12,-1885 422.12,-1885 422.12,-1879 428.12,-1873 434.12,-1873 434.12,-1873 552.12,-1873 552.12,-1873 558.12,-1873 564.12,-1879 564.12,-1885 564.12,-1885 564.12,-1897 564.12,-1897 564.12,-1903 558.12,-1909 552.12,-1909"/>
<text text-anchor="middle" x="493.12" y="-1888.62" font-family="Helvetica,Arial,sans-serif" font-size="10.00" fill="#212529">📄 security&#45;watchdog.nix</text>
</g>
<!-- N2&#45;&gt;N38 -->
<g id="edge40" class="edge">
<title>N2&#45;&gt;N38</title>
<path fill="none" stroke="#6c757d" d="M222.59,-3790.61C238.11,-3595.86 371.62,-1920 371.62,-1920 371.62,-1920 390.58,-1915.44 413.45,-1909.93"/>
<polygon fill="#6c757d" stroke="#6c757d" points="413.98,-1912.33 420.21,-1908.31 412.83,-1907.56 413.98,-1912.33"/>
</g>
<!-- N39 -->
<g id="node40" class="node">
<title>N39</title>
<path fill="#f8f9fa" stroke="#ced4da" d="M533.38,-1967C533.38,-1967 452.88,-1967 452.88,-1967 446.88,-1967 440.88,-1961 440.88,-1955 440.88,-1955 440.88,-1943 440.88,-1943 440.88,-1937 446.88,-1931 452.88,-1931 452.88,-1931 533.38,-1931 533.38,-1931 539.38,-1931 545.38,-1937 545.38,-1943 545.38,-1943 545.38,-1955 545.38,-1955 545.38,-1961 539.38,-1967 533.38,-1967"/>
<text text-anchor="middle" x="493.12" y="-1946.62" font-family="Helvetica,Arial,sans-serif" font-size="10.00" fill="#212529">📄 stirling&#45;pdf.nix</text>
</g>
<!-- N2&#45;&gt;N39 -->
<g id="edge41" class="edge">
<title>N2&#45;&gt;N39</title>
<path fill="none" stroke="#6c757d" d="M222.64,-3790.58C238.38,-3599.03 371.62,-1978 371.62,-1978 371.62,-1978 402.21,-1970.64 432.56,-1963.33"/>
<polygon fill="#6c757d" stroke="#6c757d" points="432.97,-1965.76 439.2,-1961.74 431.82,-1960.99 432.97,-1965.76"/>
</g>
<!-- N40 -->
<g id="node41" class="node">
<title>N40</title>
<path fill="#f8f9fa" stroke="#ced4da" d="M516.88,-2025C516.88,-2025 469.38,-2025 469.38,-2025 463.38,-2025 457.38,-2019 457.38,-2013 457.38,-2013 457.38,-2001 457.38,-2001 457.38,-1995 463.38,-1989 469.38,-1989 469.38,-1989 516.88,-1989 516.88,-1989 522.88,-1989 528.88,-1995 528.88,-2001 528.88,-2001 528.88,-2013 528.88,-2013 528.88,-2019 522.88,-2025 516.88,-2025"/>
<text text-anchor="middle" x="493.12" y="-2004.62" font-family="Helvetica,Arial,sans-serif" font-size="10.00" fill="#212529">📄 vert.nix</text>
</g>
<!-- N2&#45;&gt;N40 -->
<g id="edge42" class="edge">
<title>N2&#45;&gt;N40</title>
<path fill="none" stroke="#6c757d" d="M222.69,-3790.58C238.66,-3602.43 371.62,-2036 371.62,-2036 371.62,-2036 414.27,-2025.74 448.82,-2017.42"/>
<polygon fill="#6c757d" stroke="#6c757d" points="449.24,-2019.84 455.48,-2015.82 448.1,-2015.08 449.24,-2019.84"/>
</g>
<!-- N41 -->
<g id="node42" class="node">
<title>N41</title>
<path fill="#f8f9fa" stroke="#ced4da" d="M524.75,-2083C524.75,-2083 461.5,-2083 461.5,-2083 455.5,-2083 449.5,-2077 449.5,-2071 449.5,-2071 449.5,-2059 449.5,-2059 449.5,-2053 455.5,-2047 461.5,-2047 461.5,-2047 524.75,-2047 524.75,-2047 530.75,-2047 536.75,-2053 536.75,-2059 536.75,-2059 536.75,-2071 536.75,-2071 536.75,-2077 530.75,-2083 524.75,-2083"/>
<text text-anchor="middle" x="493.12" y="-2062.62" font-family="Helvetica,Arial,sans-serif" font-size="10.00" fill="#212529">📄 vikunja.nix</text>
</g>
<!-- N2&#45;&gt;N41 -->
<g id="edge43" class="edge">
<title>N2&#45;&gt;N41</title>
<path fill="none" stroke="#6c757d" d="M222.74,-3790.61C238.94,-3606.04 371.62,-2094 371.62,-2094 371.62,-2094 408.2,-2085.2 441.05,-2077.29"/>
<polygon fill="#6c757d" stroke="#6c757d" points="441.6,-2079.68 447.83,-2075.66 440.45,-2074.92 441.6,-2079.68"/>
</g>
<!-- N42 -->
<g id="node43" class="node">
<title>N42</title>
<path fill="#f8f9fa" stroke="#ced4da" d="M529.62,-2141C529.62,-2141 456.62,-2141 456.62,-2141 450.62,-2141 444.62,-2135 444.62,-2129 444.62,-2129 444.62,-2117 444.62,-2117 444.62,-2111 450.62,-2105 456.62,-2105 456.62,-2105 529.62,-2105 529.62,-2105 535.62,-2105 541.62,-2111 541.62,-2117 541.62,-2117 541.62,-2129 541.62,-2129 541.62,-2135 535.62,-2141 529.62,-2141"/>
<text text-anchor="middle" x="493.12" y="-2120.62" font-family="Helvetica,Arial,sans-serif" font-size="10.00" fill="#212529">📄 wanderer.nix</text>
</g>
<!-- N2&#45;&gt;N42 -->
<g id="edge44" class="edge">
<title>N2&#45;&gt;N42</title>
<path fill="none" stroke="#6c757d" d="M222.79,-3790.67C239.21,-3609.87 371.62,-2152 371.62,-2152 371.62,-2152 404.71,-2144.04 436.2,-2136.46"/>
<polygon fill="#6c757d" stroke="#6c757d" points="436.45,-2138.92 442.68,-2134.9 435.3,-2134.16 436.45,-2138.92"/>
</g>
<!-- N43 -->
<g id="node44" class="node">
<title>N43</title>
<path fill="#f8f9fa" stroke="#ced4da" d="M530.38,-1115C530.38,-1115 455.88,-1115 455.88,-1115 449.88,-1115 443.88,-1109 443.88,-1103 443.88,-1103 443.88,-1091 443.88,-1091 443.88,-1085 449.88,-1079 455.88,-1079 455.88,-1079 530.38,-1079 530.38,-1079 536.38,-1079 542.38,-1085 542.38,-1091 542.38,-1091 542.38,-1103 542.38,-1103 542.38,-1109 536.38,-1115 530.38,-1115"/>
<text text-anchor="middle" x="493.12" y="-1094.62" font-family="Helvetica,Arial,sans-serif" font-size="10.00" fill="#212529">📄 authentik.nix</text>
</g>
<!-- N2&#45;&gt;N43 -->
<g id="edge45" class="edge">
<title>N2&#45;&gt;N43</title>
<path fill="none" stroke="#6c757d" d="M222.15,-3790.8C235.32,-3555.88 371.62,-1126 371.62,-1126 371.62,-1126 404.25,-1118.15 435.55,-1110.62"/>
<polygon fill="#6c757d" stroke="#6c757d" points="435.76,-1113.09 441.99,-1109.07 434.61,-1108.32 435.76,-1113.09"/>
</g>
<!-- N44 -->
<g id="node45" class="node">
<title>N44</title>
<path fill="#f8f9fa" stroke="#ced4da" d="M521,-1173C521,-1173 465.25,-1173 465.25,-1173 459.25,-1173 453.25,-1167 453.25,-1161 453.25,-1161 453.25,-1149 453.25,-1149 453.25,-1143 459.25,-1137 465.25,-1137 465.25,-1137 521,-1137 521,-1137 527,-1137 533,-1143 533,-1149 533,-1149 533,-1161 533,-1161 533,-1167 527,-1173 521,-1173"/>
<text text-anchor="middle" x="493.12" y="-1152.62" font-family="Helvetica,Arial,sans-serif" font-size="10.00" fill="#212529">📄 caddy.nix</text>
</g>
<!-- N2&#45;&gt;N44 -->
<g id="edge46" class="edge">
<title>N2&#45;&gt;N44</title>
<path fill="none" stroke="#6c757d" d="M222.17,-3790.84C235.46,-3558.91 371.62,-1184 371.62,-1184 371.62,-1184 411.21,-1174.47 445.01,-1166.34"/>
<polygon fill="#6c757d" stroke="#6c757d" points="445.3,-1168.79 451.53,-1164.77 444.15,-1164.03 445.3,-1168.79"/>
</g>
<!-- N45 -->
<g id="node46" class="node">
<title>N45</title>
<path fill="#f8f9fa" stroke="#ced4da" d="M534.12,-1231C534.12,-1231 452.12,-1231 452.12,-1231 446.12,-1231 440.12,-1225 440.12,-1219 440.12,-1219 440.12,-1207 440.12,-1207 440.12,-1201 446.12,-1195 452.12,-1195 452.12,-1195 534.12,-1195 534.12,-1195 540.12,-1195 546.12,-1201 546.12,-1207 546.12,-1207 546.12,-1219 546.12,-1219 546.12,-1225 540.12,-1231 534.12,-1231"/>
<text text-anchor="middle" x="493.12" y="-1210.62" font-family="Helvetica,Arial,sans-serif" font-size="10.00" fill="#212529">📄 cloudflared.nix</text>
</g>
<!-- N2&#45;&gt;N45 -->
<g id="edge47" class="edge">
<title>N2&#45;&gt;N45</title>
<path fill="none" stroke="#6c757d" d="M222.21,-3790.53C235.74,-3559.67 371.62,-1242 371.62,-1242 371.62,-1242 401.78,-1234.74 431.91,-1227.49"/>
<polygon fill="#6c757d" stroke="#6c757d" points="432.27,-1229.93 438.5,-1225.91 431.12,-1225.16 432.27,-1229.93"/>
</g>
<!-- N46 -->
<g id="node47" class="node">
<title>N46</title>
<path fill="#f8f9fa" stroke="#ced4da" d="M555.88,-1289C555.88,-1289 430.38,-1289 430.38,-1289 424.38,-1289 418.38,-1283 418.38,-1277 418.38,-1277 418.38,-1265 418.38,-1265 418.38,-1259 424.38,-1253 430.38,-1253 430.38,-1253 555.88,-1253 555.88,-1253 561.88,-1253 567.88,-1259 567.88,-1265 567.88,-1265 567.88,-1277 567.88,-1277 567.88,-1283 561.88,-1289 555.88,-1289"/>
<text text-anchor="middle" x="493.12" y="-1268.62" font-family="Helvetica,Arial,sans-serif" font-size="10.00" fill="#212529">📄 docker&#45;socket&#45;proxy.nix</text>
</g>
<!-- N2&#45;&gt;N46 -->
<g id="edge48" class="edge">
<title>N2&#45;&gt;N46</title>
<path fill="none" stroke="#6c757d" d="M222.23,-3790.6C235.88,-3562.98 371.62,-1300 371.62,-1300 371.62,-1300 388.79,-1295.87 410.17,-1290.72"/>
<polygon fill="#6c757d" stroke="#6c757d" points="410.51,-1293.16 416.74,-1289.14 409.36,-1288.4 410.51,-1293.16"/>
</g>
<!-- N47 -->
<g id="node48" class="node">
<title>N47</title>
<path fill="#f8f9fa" stroke="#ced4da" d="M525.5,-1347C525.5,-1347 460.75,-1347 460.75,-1347 454.75,-1347 448.75,-1341 448.75,-1335 448.75,-1335 448.75,-1323 448.75,-1323 448.75,-1317 454.75,-1311 460.75,-1311 460.75,-1311 525.5,-1311 525.5,-1311 531.5,-1311 537.5,-1317 537.5,-1323 537.5,-1323 537.5,-1335 537.5,-1335 537.5,-1341 531.5,-1347 525.5,-1347"/>
<text text-anchor="middle" x="493.12" y="-1326.62" font-family="Helvetica,Arial,sans-serif" font-size="10.00" fill="#212529">📄 gluetun.nix</text>
</g>
<!-- N2&#45;&gt;N47 -->
<g id="edge49" class="edge">
<title>N2&#45;&gt;N47</title>
<path fill="none" stroke="#6c757d" d="M222.25,-3790.68C236.02,-3566.39 371.62,-1358 371.62,-1358 371.62,-1358 407.49,-1349.37 440.09,-1341.52"/>
<polygon fill="#6c757d" stroke="#6c757d" points="440.58,-1343.93 446.81,-1339.91 439.43,-1339.16 440.58,-1343.93"/>
</g>
<!-- N48 -->
<g id="node49" class="node">
<title>N48</title>
<path fill="#f8f9fa" stroke="#ced4da" d="M519.12,-1405C519.12,-1405 467.12,-1405 467.12,-1405 461.12,-1405 455.12,-1399 455.12,-1393 455.12,-1393 455.12,-1381 455.12,-1381 455.12,-1375 461.12,-1369 467.12,-1369 467.12,-1369 519.12,-1369 519.12,-1369 525.12,-1369 531.12,-1375 531.12,-1381 531.12,-1381 531.12,-1393 531.12,-1393 531.12,-1399 525.12,-1405 519.12,-1405"/>
<text text-anchor="middle" x="493.12" y="-1384.62" font-family="Helvetica,Arial,sans-serif" font-size="10.00" fill="#212529">📄 lldap.nix</text>
</g>
<!-- N2&#45;&gt;N48 -->
<g id="edge50" class="edge">
<title>N2&#45;&gt;N48</title>
<path fill="none" stroke="#6c757d" d="M222.29,-3790.67C236.3,-3570.82 371.62,-1447 371.62,-1447 371.62,-1447 413.42,-1426.19 447.79,-1409.08"/>
<polygon fill="#6c757d" stroke="#6c757d" points="448.46,-1411.48 453.63,-1406.17 446.27,-1407.09 448.46,-1411.48"/>
</g>
<!-- N53 -->
<g id="node54" class="node">
<title>N53</title>
<path fill="#f8f9fa" stroke="#ced4da" d="M524.38,-607C524.38,-607 461.88,-607 461.88,-607 455.88,-607 449.88,-601 449.88,-595 449.88,-595 449.88,-583 449.88,-583 449.88,-577 455.88,-571 461.88,-571 461.88,-571 524.38,-571 524.38,-571 530.38,-571 536.38,-577 536.38,-583 536.38,-583 536.38,-595 536.38,-595 536.38,-601 530.38,-607 524.38,-607"/>
<text text-anchor="middle" x="493.12" y="-586.62" font-family="Helvetica,Arial,sans-serif" font-size="10.00" fill="#212529">📄 default.nix</text>
</g>
<!-- N2&#45;&gt;N53 -->
<g id="edge51" class="edge">
<title>N2&#45;&gt;N53</title>
<path fill="none" stroke="#6c757d" d="M221.99,-3790.84C234.2,-3534.42 371.62,-649 371.62,-649 371.62,-649 413.42,-628.19 447.79,-611.08"/>
<polygon fill="#6c757d" stroke="#6c757d" points="448.46,-613.48 453.63,-608.17 446.27,-609.09 448.46,-613.48"/>
</g>
<!-- N58 -->
<g id="node59" class="node">
<title>N58</title>
<path fill="#f8f9fa" stroke="#ced4da" d="M518.75,-861C518.75,-861 467.5,-861 467.5,-861 461.5,-861 455.5,-855 455.5,-849 455.5,-849 455.5,-837 455.5,-837 455.5,-831 461.5,-825 467.5,-825 467.5,-825 518.75,-825 518.75,-825 524.75,-825 530.75,-831 530.75,-837 530.75,-837 530.75,-849 530.75,-849 530.75,-855 524.75,-861 518.75,-861"/>
<text text-anchor="middle" x="493.12" y="-840.62" font-family="Helvetica,Arial,sans-serif" font-size="10.00" fill="#212529">📄 base.nix</text>
</g>
<!-- N2&#45;&gt;N58 -->
<g id="edge52" class="edge">
<title>N2&#45;&gt;N58</title>
<path fill="none" stroke="#6c757d" d="M222.07,-3790.63C234.76,-3542.84 371.62,-872 371.62,-872 371.62,-872 412.98,-862.05 447.24,-853.8"/>
<polygon fill="#6c757d" stroke="#6c757d" points="447.61,-856.23 453.84,-852.21 446.47,-851.47 447.61,-856.23"/>
</g>
<!-- N59 -->
<g id="node60" class="node">
<title>N59</title>
<path fill="#f8f9fa" stroke="#ced4da" d="M522.12,-919C522.12,-919 464.12,-919 464.12,-919 458.12,-919 452.12,-913 452.12,-907 452.12,-907 452.12,-895 452.12,-895 452.12,-889 458.12,-883 464.12,-883 464.12,-883 522.12,-883 522.12,-883 528.12,-883 534.12,-889 534.12,-895 534.12,-895 534.12,-907 534.12,-907 534.12,-913 528.12,-919 522.12,-919"/>
<text text-anchor="middle" x="493.12" y="-898.62" font-family="Helvetica,Arial,sans-serif" font-size="10.00" fill="#212529">📄 server.nix</text>
</g>
<!-- N2&#45;&gt;N59 -->
<g id="edge53" class="edge">
<title>N2&#45;&gt;N59</title>
<path fill="none" stroke="#6c757d" d="M222.09,-3790.81C234.9,-3548.26 371.62,-961 371.62,-961 371.62,-961 413.42,-940.19 447.79,-923.08"/>
<polygon fill="#6c757d" stroke="#6c757d" points="448.46,-925.48 453.63,-920.17 446.27,-921.09 448.46,-925.48"/>
</g>
<!-- N61 -->
<g id="node62" class="node">
<title>N61</title>
<path fill="#f8f9fa" stroke="#ced4da" d="M524.38,-705C524.38,-705 461.88,-705 461.88,-705 455.88,-705 449.88,-699 449.88,-693 449.88,-693 449.88,-681 449.88,-681 449.88,-675 455.88,-669 461.88,-669 461.88,-669 524.38,-669 524.38,-669 530.38,-669 536.38,-675 536.38,-681 536.38,-681 536.38,-693 536.38,-693 536.38,-699 530.38,-705 524.38,-705"/>
<text text-anchor="middle" x="493.12" y="-684.62" font-family="Helvetica,Arial,sans-serif" font-size="10.00" fill="#212529">📄 default.nix</text>
</g>
<!-- N2&#45;&gt;N61 -->
<g id="edge54" class="edge">
<title>N2&#45;&gt;N61</title>
<path fill="none" stroke="#6c757d" d="M222.03,-3790.63C234.48,-3537.22 371.62,-747 371.62,-747 371.62,-747 413.42,-726.19 447.79,-709.08"/>
<polygon fill="#6c757d" stroke="#6c757d" points="448.46,-711.48 453.63,-706.17 446.27,-707.09 448.46,-711.48"/>
</g>
<!-- N62 -->
<g id="node63" class="node">
<title>N62</title>
<path fill="#f8f9fa" stroke="#ced4da" d="M524.38,-1017C524.38,-1017 461.88,-1017 461.88,-1017 455.88,-1017 449.88,-1011 449.88,-1005 449.88,-1005 449.88,-993 449.88,-993 449.88,-987 455.88,-981 461.88,-981 461.88,-981 524.38,-981 524.38,-981 530.38,-981 536.38,-987 536.38,-993 536.38,-993 536.38,-1005 536.38,-1005 536.38,-1011 530.38,-1017 524.38,-1017"/>
<text text-anchor="middle" x="493.12" y="-996.62" font-family="Helvetica,Arial,sans-serif" font-size="10.00" fill="#212529">📄 default.nix</text>
</g>
<!-- N2&#45;&gt;N62 -->
<g id="edge55" class="edge">
<title>N2&#45;&gt;N62</title>
<path fill="none" stroke="#6c757d" d="M222.13,-3790.71C235.18,-3552.11 371.62,-1059 371.62,-1059 371.62,-1059 413.42,-1038.19 447.79,-1021.08"/>
<polygon fill="#6c757d" stroke="#6c757d" points="448.46,-1023.48 453.63,-1018.17 446.27,-1019.09 448.46,-1023.48"/>
</g>
<!-- N50 -->
<g id="node51" class="node">
<title>N50</title>
<path fill="#f8f9fa" stroke="#ced4da" d="M563.75,-353C563.75,-353 422.5,-353 422.5,-353 416.5,-353 410.5,-347 410.5,-341 410.5,-341 410.5,-329 410.5,-329 410.5,-323 416.5,-317 422.5,-317 422.5,-317 563.75,-317 563.75,-317 569.75,-317 575.75,-323 575.75,-329 575.75,-329 575.75,-341 575.75,-341 575.75,-347 569.75,-353 563.75,-353"/>
<text text-anchor="middle" x="493.12" y="-332.62" font-family="Helvetica,Arial,sans-serif" font-size="10.00" fill="#212529">📄 hardware&#45;configuration.nix</text>
</g>
<!-- N49&#45;&gt;N50 -->
<g id="edge56" class="edge">
<title>N49&#45;&gt;N50</title>
<path fill="none" stroke="#6c757d" d="M278.27,-335C314.08,-335 361.02,-335 401.79,-335"/>
<polygon fill="#6c757d" stroke="#6c757d" points="401.61,-337.45 408.61,-335 401.61,-332.55 401.61,-337.45"/>
</g>
<!-- N49&#45;&gt;N53 -->
<g id="edge57" class="edge">
<title>N49&#45;&gt;N53</title>
<path fill="none" stroke="#6c757d" d="M233.7,-353.21C269.87,-405.61 371.62,-553 371.62,-553 371.62,-553 408.76,-564.09 441.8,-573.96"/>
<polygon fill="#6c757d" stroke="#6c757d" points="440.78,-576.22 448.19,-575.87 442.19,-571.52 440.78,-576.22"/>
</g>
<!-- N54 -->
<g id="node55" class="node">
<title>N54</title>
<path fill="#f8f9fa" stroke="#ced4da" d="M524.38,-451C524.38,-451 461.88,-451 461.88,-451 455.88,-451 449.88,-445 449.88,-439 449.88,-439 449.88,-427 449.88,-427 449.88,-421 455.88,-415 461.88,-415 461.88,-415 524.38,-415 524.38,-415 530.38,-415 536.38,-421 536.38,-427 536.38,-427 536.38,-439 536.38,-439 536.38,-445 530.38,-451 524.38,-451"/>
<text text-anchor="middle" x="493.12" y="-430.62" font-family="Helvetica,Arial,sans-serif" font-size="10.00" fill="#212529">📄 default.nix</text>
</g>
<!-- N49&#45;&gt;N54 -->
<g id="edge58" class="edge">
<title>N49&#45;&gt;N54</title>
<path fill="none" stroke="#6c757d" d="M265.87,-353.43C310.24,-371.71 371.62,-397 371.62,-397 371.62,-397 408.76,-408.09 441.8,-417.96"/>
<polygon fill="#6c757d" stroke="#6c757d" points="440.78,-420.22 448.19,-419.87 442.19,-415.52 440.78,-420.22"/>
</g>
<!-- N55 -->
<g id="node56" class="node">
<title>N55</title>
<path fill="#f8f9fa" stroke="#ced4da" d="M530.38,-509C530.38,-509 455.88,-509 455.88,-509 449.88,-509 443.88,-503 443.88,-497 443.88,-497 443.88,-485 443.88,-485 443.88,-479 449.88,-473 455.88,-473 455.88,-473 530.38,-473 530.38,-473 536.38,-473 542.38,-479 542.38,-485 542.38,-485 542.38,-497 542.38,-497 542.38,-503 536.38,-509 530.38,-509"/>
<text text-anchor="middle" x="493.12" y="-488.62" font-family="Helvetica,Arial,sans-serif" font-size="10.00" fill="#212529">📄 minecraft.nix</text>
</g>
<!-- N49&#45;&gt;N55 -->
<g id="edge59" class="edge">
<title>N49&#45;&gt;N55</title>
<path fill="none" stroke="#6c757d" d="M243.01,-353.47C284.75,-388.69 371.62,-462 371.62,-462 371.62,-462 404.25,-469.85 435.55,-477.38"/>
<polygon fill="#6c757d" stroke="#6c757d" points="434.61,-479.68 441.99,-478.93 435.76,-474.91 434.61,-479.68"/>
</g>
<!-- N56 -->
<g id="node57" class="node">
<title>N56</title>
<path fill="#f8f9fa" stroke="#ced4da" d="M524.38,-157C524.38,-157 461.88,-157 461.88,-157 455.88,-157 449.88,-151 449.88,-145 449.88,-145 449.88,-133 449.88,-133 449.88,-127 455.88,-121 461.88,-121 461.88,-121 524.38,-121 524.38,-121 530.38,-121 536.38,-127 536.38,-133 536.38,-133 536.38,-145 536.38,-145 536.38,-151 530.38,-157 524.38,-157"/>
<text text-anchor="middle" x="493.12" y="-136.62" font-family="Helvetica,Arial,sans-serif" font-size="10.00" fill="#212529">📄 default.nix</text>
</g>
<!-- N49&#45;&gt;N56 -->
<g id="edge60" class="edge">
<title>N49&#45;&gt;N56</title>
<path fill="none" stroke="#6c757d" d="M241.42,-316.66C282.5,-279.54 371.62,-199 371.62,-199 371.62,-199 413.42,-178.19 447.79,-161.08"/>
<polygon fill="#6c757d" stroke="#6c757d" points="448.46,-163.48 453.63,-158.17 446.27,-159.09 448.46,-163.48"/>
</g>
<!-- N49&#45;&gt;N58 -->
<g id="edge61" class="edge">
<title>N49&#45;&gt;N58</title>
<path fill="none" stroke="#6c757d" d="M226.93,-353.48C254.59,-441.51 371.62,-814 371.62,-814 371.62,-814 412.98,-823.95 447.24,-832.2"/>
<polygon fill="#6c757d" stroke="#6c757d" points="446.47,-834.53 453.84,-833.79 447.61,-829.77 446.47,-834.53"/>
</g>
<!-- N60 -->
<g id="node61" class="node">
<title>N60</title>
<path fill="#f8f9fa" stroke="#ced4da" d="M521.75,-803C521.75,-803 464.5,-803 464.5,-803 458.5,-803 452.5,-797 452.5,-791 452.5,-791 452.5,-779 452.5,-779 452.5,-773 458.5,-767 464.5,-767 464.5,-767 521.75,-767 521.75,-767 527.75,-767 533.75,-773 533.75,-779 533.75,-779 533.75,-791 533.75,-791 533.75,-797 527.75,-803 521.75,-803"/>
<text text-anchor="middle" x="493.12" y="-782.62" font-family="Helvetica,Arial,sans-serif" font-size="10.00" fill="#212529">📄 sound.nix</text>
</g>
<!-- N49&#45;&gt;N60 -->
<g id="edge62" class="edge">
<title>N49&#45;&gt;N60</title>
<path fill="none" stroke="#6c757d" d="M227.79,-353.32C256.91,-433.44 371.62,-749 371.62,-749 371.62,-749 410.47,-760.6 444.05,-770.64"/>
<polygon fill="#6c757d" stroke="#6c757d" points="443.14,-772.92 450.55,-772.58 444.54,-768.23 443.14,-772.92"/>
</g>
<!-- N49&#45;&gt;N61 -->
<g id="edge63" class="edge">
<title>N49&#45;&gt;N61</title>
<path fill="none" stroke="#6c757d" d="M229.87,-353.36C261.99,-420.8 371.62,-651 371.62,-651 371.62,-651 408.76,-662.09 441.8,-671.96"/>
<polygon fill="#6c757d" stroke="#6c757d" points="440.78,-674.22 448.19,-673.87 442.19,-669.52 440.78,-674.22"/>
</g>
<!-- N64 -->
<g id="node65" class="node">
<title>N64</title>
<path fill="#f8f9fa" stroke="#ced4da" d="M524.38,-255C524.38,-255 461.88,-255 461.88,-255 455.88,-255 449.88,-249 449.88,-243 449.88,-243 449.88,-231 449.88,-231 449.88,-225 455.88,-219 461.88,-219 461.88,-219 524.38,-219 524.38,-219 530.38,-219 536.38,-225 536.38,-231 536.38,-231 536.38,-243 536.38,-243 536.38,-249 530.38,-255 524.38,-255"/>
<text text-anchor="middle" x="493.12" y="-234.62" font-family="Helvetica,Arial,sans-serif" font-size="10.00" fill="#212529">📄 default.nix</text>
</g>
<!-- N49&#45;&gt;N64 -->
<g id="edge64" class="edge">
<title>N49&#45;&gt;N64</title>
<path fill="none" stroke="#6c757d" d="M272.1,-316.57C320.61,-299.02 393.18,-272.78 441.56,-255.29"/>
<polygon fill="#6c757d" stroke="#6c757d" points="442.23,-257.65 447.98,-252.96 440.56,-253.04 442.23,-257.65"/>
</g>
<!-- N52 -->
<g id="node53" class="node">
<title>N52</title>
<path fill="#f8f9fa" stroke="#ced4da" d="M563.75,-59C563.75,-59 422.5,-59 422.5,-59 416.5,-59 410.5,-53 410.5,-47 410.5,-47 410.5,-35 410.5,-35 410.5,-29 416.5,-23 422.5,-23 422.5,-23 563.75,-23 563.75,-23 569.75,-23 575.75,-29 575.75,-35 575.75,-35 575.75,-47 575.75,-47 575.75,-53 569.75,-59 563.75,-59"/>
<text text-anchor="middle" x="493.12" y="-38.62" font-family="Helvetica,Arial,sans-serif" font-size="10.00" fill="#212529">📄 hardware&#45;configuration.nix</text>
</g>
<!-- N51&#45;&gt;N52 -->
<g id="edge65" class="edge">
<title>N51&#45;&gt;N52</title>
<path fill="none" stroke="#6c757d" d="M278.27,-41C314.08,-41 361.02,-41 401.79,-41"/>
<polygon fill="#6c757d" stroke="#6c757d" points="401.61,-43.45 408.61,-41 401.61,-38.55 401.61,-43.45"/>
</g>
<!-- N51&#45;&gt;N53 -->
<g id="edge66" class="edge">
<title>N51&#45;&gt;N53</title>
<path fill="none" stroke="#6c757d" d="M226.48,-59.22C253.29,-150.43 371.62,-553 371.62,-553 371.62,-553 408.76,-564.09 441.8,-573.96"/>
<polygon fill="#6c757d" stroke="#6c757d" points="440.78,-576.22 448.19,-575.87 442.19,-571.52 440.78,-576.22"/>
</g>
<!-- N51&#45;&gt;N56 -->
<g id="edge67" class="edge">
<title>N51&#45;&gt;N56</title>
<path fill="none" stroke="#6c757d" d="M265.87,-59.43C310.24,-77.71 371.62,-103 371.62,-103 371.62,-103 408.76,-114.09 441.8,-123.96"/>
<polygon fill="#6c757d" stroke="#6c757d" points="440.78,-126.22 448.19,-125.87 442.19,-121.52 440.78,-126.22"/>
</g>
<!-- N51&#45;&gt;N58 -->
<g id="edge68" class="edge">
<title>N51&#45;&gt;N58</title>
<path fill="none" stroke="#6c757d" d="M226.44,-59.41C243.38,-118.11 295,-297 295,-297 295,-297 371.62,-814 371.62,-814 371.62,-814 412.98,-823.95 447.24,-832.2"/>
<polygon fill="#6c757d" stroke="#6c757d" points="446.47,-834.53 453.84,-833.79 447.61,-829.77 446.47,-834.53"/>
</g>
<!-- N51&#45;&gt;N60 -->
<g id="edge69" class="edge">
<title>N51&#45;&gt;N60</title>
<path fill="none" stroke="#6c757d" d="M226.44,-59.41C243.38,-118.11 295,-297 295,-297 295,-297 371.62,-749 371.62,-749 371.62,-749 410.47,-760.6 444.05,-770.64"/>
<polygon fill="#6c757d" stroke="#6c757d" points="443.14,-772.92 450.55,-772.58 444.54,-768.23 443.14,-772.92"/>
</g>
<!-- N51&#45;&gt;N61 -->
<g id="edge70" class="edge">
<title>N51&#45;&gt;N61</title>
<path fill="none" stroke="#6c757d" d="M226.44,-59.41C243.38,-118.11 295,-297 295,-297 295,-297 371.62,-651 371.62,-651 371.62,-651 408.76,-662.09 441.8,-671.96"/>
<polygon fill="#6c757d" stroke="#6c757d" points="440.78,-674.22 448.19,-673.87 442.19,-669.52 440.78,-674.22"/>
</g>
<!-- N51&#45;&gt;N64 -->
<g id="edge71" class="edge">
<title>N51&#45;&gt;N64</title>
<path fill="none" stroke="#6c757d" d="M238.39,-59.35C277.92,-101.38 371.62,-201 371.62,-201 371.62,-201 408.76,-212.09 441.8,-221.96"/>
<polygon fill="#6c757d" stroke="#6c757d" points="440.78,-224.22 448.19,-223.87 442.19,-219.52 440.78,-224.22"/>
</g>
<!-- N57 -->
<g id="node58" class="node">
<title>N57</title>
<path fill="#f8f9fa" stroke="#ced4da" d="M806.88,-861C806.88,-861 698.62,-861 698.62,-861 692.62,-861 686.62,-855 686.62,-849 686.62,-849 686.62,-837 686.62,-837 686.62,-831 692.62,-825 698.62,-825 698.62,-825 806.88,-825 806.88,-825 812.88,-825 818.88,-831 818.88,-837 818.88,-837 818.88,-849 818.88,-849 818.88,-855 812.88,-861 806.88,-861"/>
<text text-anchor="middle" x="752.75" y="-840.62" font-family="Helvetica,Arial,sans-serif" font-size="10.00" fill="#212529">📄 architecture&#45;dag.nix</text>
</g>
<!-- N58&#45;&gt;N57 -->
<g id="edge72" class="edge">
<title>N58&#45;&gt;N57</title>
<path fill="none" stroke="#6c757d" d="M531.04,-843C569.16,-843 629.71,-843 677.75,-843"/>
<polygon fill="#6c757d" stroke="#6c757d" points="677.75,-845.45 684.75,-843 677.75,-840.55 677.75,-845.45"/>
</g>
<!-- N63 -->
<g id="node64" class="node">
<title>N63</title>
<path fill="#f8f9fa" stroke="#ced4da" d="M780.62,-1017C780.62,-1017 724.88,-1017 724.88,-1017 718.88,-1017 712.88,-1011 712.88,-1005 712.88,-1005 712.88,-993 712.88,-993 712.88,-987 718.88,-981 724.88,-981 724.88,-981 780.62,-981 780.62,-981 786.62,-981 792.62,-987 792.62,-993 792.62,-993 792.62,-1005 792.62,-1005 792.62,-1011 786.62,-1017 780.62,-1017"/>
<text text-anchor="middle" x="752.75" y="-996.62" font-family="Helvetica,Arial,sans-serif" font-size="10.00" fill="#212529">📄 home.nix</text>
</g>
<!-- N62&#45;&gt;N63 -->
<g id="edge73" class="edge">
<title>N62&#45;&gt;N63</title>
<path fill="none" stroke="#6c757d" d="M536.67,-999C582.78,-999 656.18,-999 704.17,-999"/>
<polygon fill="#6c757d" stroke="#6c757d" points="704.01,-1001.45 711.01,-999 704.01,-996.55 704.01,-1001.45"/>
</g>
<!-- N65 -->
<g id="node66" class="node">
<title>N65</title>
<path fill="#f8f9fa" stroke="#ced4da" d="M780.62,-255C780.62,-255 724.88,-255 724.88,-255 718.88,-255 712.88,-249 712.88,-243 712.88,-243 712.88,-231 712.88,-231 712.88,-225 718.88,-219 724.88,-219 724.88,-219 780.62,-219 780.62,-219 786.62,-219 792.62,-225 792.62,-231 792.62,-231 792.62,-243 792.62,-243 792.62,-249 786.62,-255 780.62,-255"/>
<text text-anchor="middle" x="752.75" y="-234.62" font-family="Helvetica,Arial,sans-serif" font-size="10.00" fill="#212529">📄 home.nix</text>
</g>
<!-- N64&#45;&gt;N65 -->
<g id="edge74" class="edge">
<title>N64&#45;&gt;N65</title>
<path fill="none" stroke="#6c757d" d="M536.67,-237C582.78,-237 656.18,-237 704.17,-237"/>
<polygon fill="#6c757d" stroke="#6c757d" points="704.01,-239.45 711.01,-237 704.01,-234.55 704.01,-239.45"/>
</g>
</g>
</svg>
