<?xml version="1.0" encoding="UTF-8" standalone="no"?>
<!DOCTYPE svg PUBLIC "-//W3C//DTD SVG 1.1//EN"
 "http://www.w3.org/Graphics/SVG/1.1/DTD/svg11.dtd">
<!-- Generated by graphviz version 12.2.1 (0)
 -->
<!-- Title: NixOS Pages: 1 -->
<svg width="850pt" height="4038pt"
 viewBox="0.00 0.00 849.88 4038.00" xmlns="http://www.w3.org/2000/svg" xmlns:xlink="http://www.w3.org/1999/xlink">
<g id="graph0" class="graph" transform="scale(1 1) rotate(0) translate(4 4034)">
<title>NixOS</title>
<polygon fill="white" stroke="none" points="-4,4 -4,-4034 845.88,-4034 845.88,4 -4,4"/>
<g id="clust1" class="cluster">
<title>cluster_hosts_devcontainer</title>
<path fill="#e9ecef" stroke="#adb5bd" d="M158.25,-3932C158.25,-3932 283,-3932 283,-3932 289,-3932 295,-3938 295,-3944 295,-3944 295,-4010 295,-4010 295,-4016 289,-4022 283,-4022 283,-4022 158.25,-4022 158.25,-4022 152.25,-4022 146.25,-4016 146.25,-4010 146.25,-4010 146.25,-3944 146.25,-3944 146.25,-3938 152.25,-3932 158.25,-3932"/>
<text text-anchor="middle" x="220.62" y="-4006.6" font-family="Helvetica,sans-Serif" font-weight="bold" font-size="12.00" fill="#495057">📁 hosts/devcontainer</text>
</g>
<g id="clust2" class="cluster">
<title>cluster_hosts_homelab</title>
<path fill="#e9ecef" stroke="#adb5bd" d="M159.25,-3776C159.25,-3776 578.75,-3776 578.75,-3776 584.75,-3776 590.75,-3782 590.75,-3788 590.75,-3788 590.75,-3912 590.75,-3912 590.75,-3918 584.75,-3924 578.75,-3924 578.75,-3924 159.25,-3924 159.25,-3924 153.25,-3924 147.25,-3918 147.25,-3912 147.25,-3912 147.25,-3788 147.25,-3788 147.25,-3782 153.25,-3776 159.25,-3776"/>
<text text-anchor="middle" x="369" y="-3908.6" font-family="Helvetica,sans-Serif" font-weight="bold" font-size="12.00" fill="#495057">📁 hosts/homelab</text>
</g>
<g id="clust3" class="cluster">
<title>cluster_hosts_homelab_services_media</title>
<path fill="#e9ecef" stroke="#adb5bd" d="M397.5,-2866C397.5,-2866 589.75,-2866 589.75,-2866 595.75,-2866 601.75,-2872 601.75,-2878 601.75,-2878 601.75,-3756 601.75,-3756 601.75,-3762 595.75,-3768 589.75,-3768 589.75,-3768 397.5,-3768 397.5,-3768 391.5,-3768 385.5,-3762 385.5,-3756 385.5,-3756 385.5,-2878 385.5,-2878 385.5,-2872 391.5,-2866 397.5,-2866"/>
<text text-anchor="middle" x="493.62" y="-3752.6" font-family="Helvetica,sans-Serif" font-weight="bold" font-size="12.00" fill="#495057">📁 hosts/homelab/services/media</text>
</g>
<g id="clust4" class="cluster">
<title>cluster_hosts_homelab_services_monitoring</title>
<path fill="#e9ecef" stroke="#adb5bd" d="M383.62,-2246C383.62,-2246 603.62,-2246 603.62,-2246 609.62,-2246 615.62,-2252 615.62,-2258 615.62,-2258 615.62,-2846 615.62,-2846 615.62,-2852 609.62,-2858 603.62,-2858 603.62,-2858 383.62,-2858 383.62,-2858 377.62,-2858 371.62,-2852 371.62,-2846 371.62,-2846 371.62,-2258 371.62,-2258 371.62,-2252 377.62,-2246 383.62,-2246"/>
<text text-anchor="middle" x="493.62" y="-2842.6" font-family="Helvetica,sans-Serif" font-weight="bold" font-size="12.00" fill="#495057">📁 hosts/homelab/services/monitoring</text>
</g>
<g id="clust5" class="cluster">
<title>cluster_hosts_homelab_services_random</title>
<path fill="#e9ecef" stroke="#adb5bd" d="M392.62,-1452C392.62,-1452 594.62,-1452 594.62,-1452 600.62,-1452 606.62,-1458 606.62,-1464 606.62,-1464 606.62,-2226 606.62,-2226 606.62,-2232 600.62,-2238 594.62,-2238 594.62,-2238 392.62,-2238 392.62,-2238 386.62,-2238 380.62,-2232 380.62,-2226 380.62,-2226 380.62,-1464 380.62,-1464 380.62,-1458 386.62,-1452 392.62,-1452"/>
<text text-anchor="middle" x="493.62" y="-2222.6" font-family="Helvetica,sans-Serif" font-weight="bold" font-size="12.00" fill="#495057">📁 hosts/homelab/services/random</text>
</g>
<g id="clust6" class="cluster">
<title>cluster_hosts_homelab_services_security</title>
<path fill="#e9ecef" stroke="#adb5bd" d="M392.62,-1064C392.62,-1064 594.62,-1064 594.62,-1064 600.62,-1064 606.62,-1070 606.62,-1076 606.62,-1076 606.62,-1432 606.62,-1432 606.62,-1438 600.62,-1444 594.62,-1444 594.62,-1444 392.62,-1444 392.62,-1444 386.62,-1444 380.62,-1438 380.62,-1432 380.62,-1432 380.62,-1076 380.62,-1076 380.62,-1070 386.62,-1064 392.62,-1064"/>
<text text-anchor="middle" x="493.62" y="-1428.6" font-family="Helvetica,sans-Serif" font-weight="bold" font-size="12.00" fill="#495057">📁 hosts/homelab/services/security</text>
</g>
<g id="clust7" class="cluster">
<title>cluster_hosts_perso</title>
<path fill="#e9ecef" stroke="#adb5bd" d="M159.25,-302C159.25,-302 578.75,-302 578.75,-302 584.75,-302 590.75,-308 590.75,-314 590.75,-314 590.75,-380 590.75,-380 590.75,-386 584.75,-392 578.75,-392 578.75,-392 159.25,-392 159.25,-392 153.25,-392 147.25,-386 147.25,-380 147.25,-380 147.25,-314 147.25,-314 147.25,-308 153.25,-302 159.25,-302"/>
<text text-anchor="middle" x="369" y="-376.6" font-family="Helvetica,sans-Serif" font-weight="bold" font-size="12.00" fill="#495057">📁 hosts/perso</text>
</g>
<g id="clust8" class="cluster">
<title>cluster_hosts_portable</title>
<path fill="#e9ecef" stroke="#adb5bd" d="M159.25,-8C159.25,-8 578.75,-8 578.75,-8 584.75,-8 590.75,-14 590.75,-20 590.75,-20 590.75,-86 590.75,-86 590.75,-92 584.75,-98 578.75,-98 578.75,-98 159.25,-98 159.25,-98 153.25,-98 147.25,-92 147.25,-86 147.25,-86 147.25,-20 147.25,-20 147.25,-14 153.25,-8 159.25,-8"/>
<text text-anchor="middle" x="369" y="-82.6" font-family="Helvetica,sans-Serif" font-weight="bold" font-size="12.00" fill="#495057">📁 hosts/portable</text>
</g>
<g id="clust9" class="cluster">
<title>cluster_modules_dev</title>
<path fill="#e9ecef" stroke="#adb5bd" d="M446.88,-556C446.88,-556 539.38,-556 539.38,-556 545.38,-556 551.38,-562 551.38,-568 551.38,-568 551.38,-634 551.38,-634 551.38,-640 545.38,-646 539.38,-646 539.38,-646 446.88,-646 446.88,-646 440.88,-646 434.88,-640 434.88,-634 434.88,-634 434.88,-568 434.88,-568 434.88,-562 440.88,-556 446.88,-556"/>
<text text-anchor="middle" x="493.12" y="-630.6" font-family="Helvetica,sans-Serif" font-weight="bold" font-size="12.00" fill="#495057">📁 modules/dev</text>
</g>
<g id="clust10" class="cluster">
<title>cluster_modules_gaming</title>
<path fill="#e9ecef" stroke="#adb5bd" d="M438.38,-400C438.38,-400 548.88,-400 548.88,-400 554.88,-400 560.88,-406 560.88,-412 560.88,-412 560.88,-536 560.88,-536 560.88,-542 554.88,-548 548.88,-548 548.88,-548 438.38,-548 438.38,-548 432.38,-548 426.38,-542 426.38,-536 426.38,-536 426.38,-412 426.38,-412 426.38,-406 432.38,-400 438.38,-400"/>
<text text-anchor="middle" x="493.62" y="-532.6" font-family="Helvetica,sans-Serif" font-weight="bold" font-size="12.00" fill="#495057">📁 modules/gaming</text>
</g>
<g id="clust11" class="cluster">
<title>cluster_modules_hyprland</title>
<path fill="#e9ecef" stroke="#adb5bd" d="M434.62,-106C434.62,-106 552.62,-106 552.62,-106 558.62,-106 564.62,-112 564.62,-118 564.62,-118 564.62,-184 564.62,-184 564.62,-190 558.62,-196 552.62,-196 552.62,-196 434.62,-196 434.62,-196 428.62,-196 422.62,-190 422.62,-184 422.62,-184 422.62,-118 422.62,-118 422.62,-112 428.62,-106 434.62,-106"/>
<text text-anchor="middle" x="493.62" y="-180.6" font-family="Helvetica,sans-Serif" font-weight="bold" font-size="12.00" fill="#495057">📁 modules/hyprland</text>
</g>
<g id="clust12" class="cluster">
<title>cluster_modules_nixos</title>
<path fill="#e9ecef" stroke="#adb5bd" d="M449.12,-752C449.12,-752 821.88,-752 821.88,-752 827.88,-752 833.88,-758 833.88,-764 833.88,-764 833.88,-946 833.88,-946 833.88,-952 827.88,-958 821.88,-958 821.88,-958 449.12,-958 449.12,-958 443.12,-958 437.12,-952 437.12,-946 437.12,-946 437.12,-764 437.12,-764 437.12,-758 443.12,-752 449.12,-752"/>
<text text-anchor="middle" x="635.5" y="-942.6" font-family="Helvetica,sans-Serif" font-weight="bold" font-size="12.00" fill="#495057">📁 modules/nixos</text>
</g>
<g id="clust13" class="cluster">
<title>cluster_modules_terminal</title>
<path fill="#e9ecef" stroke="#adb5bd" d="M436.12,-654C436.12,-654 551.12,-654 551.12,-654 557.12,-654 563.12,-660 563.12,-666 563.12,-666 563.12,-732 563.12,-732 563.12,-738 557.12,-744 551.12,-744 551.12,-744 436.12,-744 436.12,-744 430.12,-744 424.12,-738 424.12,-732 424.12,-732 424.12,-666 424.12,-666 424.12,-660 430.12,-654 436.12,-654"/>
<text text-anchor="middle" x="493.62" y="-728.6" font-family="Helvetica,sans-Serif" font-weight="bold" font-size="12.00" fill="#495057">📁 modules/terminal</text>
</g>
<g id="clust14" class="cluster">
<title>cluster_users_arthur_homelab</title>
<path fill="#e9ecef" stroke="#adb5bd" d="M446.88,-966C446.88,-966 795.62,-966 795.62,-966 801.62,-966 807.62,-972 807.62,-978 807.62,-978 807.62,-1044 807.62,-1044 807.62,-1050 801.62,-1056 795.62,-1056 795.62,-1056 446.88,-1056 446.88,-1056 440.88,-1056 434.88,-1050 434.88,-1044 434.88,-1044 434.88,-978 434.88,-978 434.88,-972 440.88,-966 446.88,-966"/>
<text text-anchor="middle" x="621.25" y="-1040.6" font-family="Helvetica,sans-Serif" font-weight="bold" font-size="12.00" fill="#495057">📁 users/arthur&#45;homelab</text>
</g>
<g id="clust15" class="cluster">
<title>cluster_users_arthur_perso</title>
<path fill="#e9ecef" stroke="#adb5bd" d="M446.88,-204C446.88,-204 795.62,-204 795.62,-204 801.62,-204 807.62,-210 807.62,-216 807.62,-216 807.62,-282 807.62,-282 807.62,-288 801.62,-294 795.62,-294 795.62,-294 446.88,-294 446.88,-294 440.88,-294 434.88,-288 434.88,-282 434.88,-282 434.88,-216 434.88,-216 434.88,-210 440.88,-204 446.88,-204"/>
<text text-anchor="middle" x="621.25" y="-278.6" font-family="Helvetica,sans-Serif" font-weight="bold" font-size="12.00" fill="#495057">📁 users/arthur&#45;perso</text>
</g>
<!-- N0 -->
<g id="node1" class="node">
<title>N0</title>
<path fill="#f8f9fa" stroke="#ced4da" d="M63.25,-3827C63.25,-3827 12,-3827 12,-3827 6,-3827 0,-3821 0,-3815 0,-3815 0,-3803 0,-3803 0,-3797 6,-3791 12,-3791 12,-3791 63.25,-3791 63.25,-3791 69.25,-3791 75.25,-3797 75.25,-3803 75.25,-3803 75.25,-3815 75.25,-3815 75.25,-3821 69.25,-3827 63.25,-3827"/>
<text text-anchor="middle" x="37.62" y="-3806.62" font-family="Helvetica,Arial,sans-serif" font-size="10.00" fill="#212529">📄 flake.nix</text>
</g>
<!-- N1 -->
<g id="node2" class="node">
<title>N1</title>
<path fill="#f8f9fa" stroke="#ced4da" d="M251.38,-3983C251.38,-3983 188.88,-3983 188.88,-3983 182.88,-3983 176.88,-3977 176.88,-3971 176.88,-3971 176.88,-3959 176.88,-3959 176.88,-3953 182.88,-3947 188.88,-3947 188.88,-3947 251.38,-3947 251.38,-3947 257.38,-3947 263.38,-3953 263.38,-3959 263.38,-3959 263.38,-3971 263.38,-3971 263.38,-3977 257.38,-3983 251.38,-3983"/>
<text text-anchor="middle" x="220.12" y="-3962.62" font-family="Helvetica,Arial,sans-serif" font-size="10.00" fill="#212529">📄 default.nix</text>
</g>
<!-- N0&#45;&gt;N1 -->
<g id="edge1" class="edge">
<title>N0&#45;&gt;N1</title>
<path fill="none" stroke="#6c757d" d="M55.21,-3827.49C85.4,-3861.15 146.25,-3929 146.25,-3929 146.25,-3929 159.29,-3935.44 174.33,-3942.87"/>
<polygon fill="#6c757d" stroke="#6c757d" points="173.12,-3945 180.48,-3945.91 175.29,-3940.61 173.12,-3945"/>
</g>
<!-- N2 -->
<g id="node3" class="node">
<title>N2</title>
<path fill="#f8f9fa" stroke="#ced4da" d="M266,-3827C266,-3827 174.25,-3827 174.25,-3827 168.25,-3827 162.25,-3821 162.25,-3815 162.25,-3815 162.25,-3803 162.25,-3803 162.25,-3797 168.25,-3791 174.25,-3791 174.25,-3791 266,-3791 266,-3791 272,-3791 278,-3797 278,-3803 278,-3803 278,-3815 278,-3815 278,-3821 272,-3827 266,-3827"/>
<text text-anchor="middle" x="220.12" y="-3806.62" font-family="Helvetica,Arial,sans-serif" font-size="10.00" fill="#212529">📄 configuration.nix</text>
</g>
<!-- N0&#45;&gt;N2 -->
<g id="edge2" class="edge">
<title>N0&#45;&gt;N2</title>
<path fill="none" stroke="#6c757d" d="M75.59,-3809C98.02,-3809 127.29,-3809 153.54,-3809"/>
<polygon fill="#6c757d" stroke="#6c757d" points="153.43,-3811.45 160.43,-3809 153.43,-3806.55 153.43,-3811.45"/>
</g>
<!-- N3 -->
<g id="node4" class="node">
<title>N3</title>
<path fill="#f8f9fa" stroke="#ced4da" d="M257.75,-3885C257.75,-3885 182.5,-3885 182.5,-3885 176.5,-3885 170.5,-3879 170.5,-3873 170.5,-3873 170.5,-3861 170.5,-3861 170.5,-3855 176.5,-3849 182.5,-3849 182.5,-3849 257.75,-3849 257.75,-3849 263.75,-3849 269.75,-3855 269.75,-3861 269.75,-3861 269.75,-3873 269.75,-3873 269.75,-3879 263.75,-3885 257.75,-3885"/>
<text text-anchor="middle" x="220.12" y="-3864.62" font-family="Helvetica,Arial,sans-serif" font-size="10.00" fill="#212529">📄 constants.nix</text>
</g>
<!-- N0&#45;&gt;N3 -->
<g id="edge3" class="edge">
<title>N0&#45;&gt;N3</title>
<path fill="none" stroke="#6c757d" d="M75.59,-3820.88C100.57,-3828.9 134.04,-3839.66 162.38,-3848.77"/>
<polygon fill="#6c757d" stroke="#6c757d" points="161.37,-3851.01 168.78,-3850.82 162.87,-3846.35 161.37,-3851.01"/>
</g>
<!-- N49 -->
<g id="node50" class="node">
<title>N49</title>
<path fill="#f8f9fa" stroke="#ced4da" d="M266,-353C266,-353 174.25,-353 174.25,-353 168.25,-353 162.25,-347 162.25,-341 162.25,-341 162.25,-329 162.25,-329 162.25,-323 168.25,-317 174.25,-317 174.25,-317 266,-317 266,-317 272,-317 278,-323 278,-329 278,-329 278,-341 278,-341 278,-347 272,-353 266,-353"/>
<text text-anchor="middle" x="220.12" y="-332.62" font-family="Helvetica,Arial,sans-serif" font-size="10.00" fill="#212529">📄 configuration.nix</text>
</g>
<!-- N0&#45;&gt;N49 -->
<g id="edge4" class="edge">
<title>N0&#45;&gt;N49</title>
<path fill="none" stroke="#6c757d" d="M39.57,-3790.73C52.88,-3534.66 201.77,-669.07 217.74,-361.67"/>
<polygon fill="#6c757d" stroke="#6c757d" points="220.18,-361.96 218.09,-354.84 215.28,-361.71 220.18,-361.96"/>
</g>
<!-- N51 -->
<g id="node52" class="node">
<title>N51</title>
<path fill="#f8f9fa" stroke="#ced4da" d="M266,-59C266,-59 174.25,-59 174.25,-59 168.25,-59 162.25,-53 162.25,-47 162.25,-47 162.25,-35 162.25,-35 162.25,-29 168.25,-23 174.25,-23 174.25,-23 266,-23 266,-23 272,-23 278,-29 278,-35 278,-35 278,-47 278,-47 278,-53 272,-59 266,-59"/>
<text text-anchor="middle" x="220.12" y="-38.62" font-family="Helvetica,Arial,sans-serif" font-size="10.00" fill="#212529">📄 configuration.nix</text>
</g>
<!-- N0&#45;&gt;N51 -->
<g id="edge5" class="edge">
<title>N0&#45;&gt;N51</title>
<path fill="none" stroke="#6c757d" d="M39.19,-3790.53C47.57,-3516.95 146.25,-297 146.25,-297 146.25,-297 193.08,-132.48 211.66,-67.22"/>
<polygon fill="#6c757d" stroke="#6c757d" points="213.91,-68.27 213.47,-60.87 209.2,-66.93 213.91,-68.27"/>
</g>
<!-- N4 -->
<g id="node5" class="node">
<title>N4</title>
<path fill="#f8f9fa" stroke="#ced4da" d="M563.75,-3827C563.75,-3827 422.5,-3827 422.5,-3827 416.5,-3827 410.5,-3821 410.5,-3815 410.5,-3815 410.5,-3803 410.5,-3803 410.5,-3797 416.5,-3791 422.5,-3791 422.5,-3791 563.75,-3791 563.75,-3791 569.75,-3791 575.75,-3797 575.75,-3803 575.75,-3803 575.75,-3815 575.75,-3815 575.75,-3821 569.75,-3827 563.75,-3827"/>
<text text-anchor="middle" x="493.12" y="-3806.62" font-family="Helvetica,Arial,sans-serif" font-size="10.00" fill="#212529">📄 hardware&#45;configuration.nix</text>
</g>
<!-- N2&#45;&gt;N4 -->
<g id="edge6" class="edge">
<title>N2&#45;&gt;N4</title>
<path fill="none" stroke="#6c757d" d="M278.27,-3809C314.08,-3809 361.02,-3809 401.79,-3809"/>
<polygon fill="#6c757d" stroke="#6c757d" points="401.61,-3811.45 408.61,-3809 401.61,-3806.55 401.61,-3811.45"/>
</g>
<!-- N5 -->
<g id="node6" class="node">
<title>N5</title>
<path fill="#f8f9fa" stroke="#ced4da" d="M522.5,-3265C522.5,-3265 463.75,-3265 463.75,-3265 457.75,-3265 451.75,-3259 451.75,-3253 451.75,-3253 451.75,-3241 451.75,-3241 451.75,-3235 457.75,-3229 463.75,-3229 463.75,-3229 522.5,-3229 522.5,-3229 528.5,-3229 534.5,-3235 534.5,-3241 534.5,-3241 534.5,-3253 534.5,-3253 534.5,-3259 528.5,-3265 522.5,-3265"/>
<text text-anchor="middle" x="493.12" y="-3244.62" font-family="Helvetica,Arial,sans-serif" font-size="10.00" fill="#212529">📄 ariang.nix</text>
</g>
<!-- N2&#45;&gt;N5 -->
<g id="edge7" class="edge">
<title>N2&#45;&gt;N5</title>
<path fill="none" stroke="#6c757d" d="M226.31,-3790.65C252.77,-3696.93 371.62,-3276 371.62,-3276 371.62,-3276 409.98,-3266.77 443.41,-3258.72"/>
<polygon fill="#6c757d" stroke="#6c757d" points="443.63,-3261.19 449.86,-3257.17 442.48,-3256.43 443.63,-3261.19"/>
</g>
<!-- N6 -->
<g id="node7" class="node">
<title>N6</title>
<path fill="#f8f9fa" stroke="#ced4da" d="M522.5,-3323C522.5,-3323 463.75,-3323 463.75,-3323 457.75,-3323 451.75,-3317 451.75,-3311 451.75,-3311 451.75,-3299 451.75,-3299 451.75,-3293 457.75,-3287 463.75,-3287 463.75,-3287 522.5,-3287 522.5,-3287 528.5,-3287 534.5,-3293 534.5,-3299 534.5,-3299 534.5,-3311 534.5,-3311 534.5,-3317 528.5,-3323 522.5,-3323"/>
<text text-anchor="middle" x="493.12" y="-3302.62" font-family="Helvetica,Arial,sans-serif" font-size="10.00" fill="#212529">📄 byparr.nix</text>
</g>
<!-- N2&#45;&gt;N6 -->
<g id="edge8" class="edge">
<title>N2&#45;&gt;N6</title>
<path fill="none" stroke="#6c757d" d="M226.93,-3790.67C254.59,-3703.38 371.62,-3334 371.62,-3334 371.62,-3334 409.98,-3324.77 443.41,-3316.72"/>
<polygon fill="#6c757d" stroke="#6c757d" points="443.63,-3319.19 449.86,-3315.17 442.48,-3314.43 443.63,-3319.19"/>
</g>
<!-- N7 -->
<g id="node8" class="node">
<title>N7</title>
<path fill="#f8f9fa" stroke="#ced4da" d="M532.62,-3381C532.62,-3381 453.62,-3381 453.62,-3381 447.62,-3381 441.62,-3375 441.62,-3369 441.62,-3369 441.62,-3357 441.62,-3357 441.62,-3351 447.62,-3345 453.62,-3345 453.62,-3345 532.62,-3345 532.62,-3345 538.62,-3345 544.62,-3351 544.62,-3357 544.62,-3357 544.62,-3369 544.62,-3369 544.62,-3375 538.62,-3381 532.62,-3381"/>
<text text-anchor="middle" x="493.12" y="-3360.62" font-family="Helvetica,Arial,sans-serif" font-size="10.00" fill="#212529">📄 cleanuparr.nix</text>
</g>
<!-- N2&#45;&gt;N7 -->
<g id="edge9" class="edge">
<title>N2&#45;&gt;N7</title>
<path fill="none" stroke="#6c757d" d="M227.79,-3790.54C256.91,-3709.84 371.62,-3392 371.62,-3392 371.62,-3392 402.65,-3384.53 433.21,-3377.18"/>
<polygon fill="#6c757d" stroke="#6c757d" points="433.67,-3379.59 439.9,-3375.57 432.52,-3374.82 433.67,-3379.59"/>
</g>
<!-- N8 -->
<g id="node9" class="node">
<title>N8</title>
<path fill="#f8f9fa" stroke="#ced4da" d="M557.75,-3439C557.75,-3439 428.5,-3439 428.5,-3439 422.5,-3439 416.5,-3433 416.5,-3427 416.5,-3427 416.5,-3415 416.5,-3415 416.5,-3409 422.5,-3403 428.5,-3403 428.5,-3403 557.75,-3403 557.75,-3403 563.75,-3403 569.75,-3409 569.75,-3415 569.75,-3415 569.75,-3427 569.75,-3427 569.75,-3433 563.75,-3439 557.75,-3439"/>
<text text-anchor="middle" x="493.12" y="-3418.62" font-family="Helvetica,Arial,sans-serif" font-size="10.00" fill="#212529">📄 filebrowser&#45;quantum.nix</text>
</g>
<!-- N2&#45;&gt;N8 -->
<g id="edge10" class="edge">
<title>N2&#45;&gt;N8</title>
<path fill="none" stroke="#6c757d" d="M228.8,-3790.7C259.46,-3717.55 371.62,-3450 371.62,-3450 371.62,-3450 387.72,-3446.13 408.14,-3441.21"/>
<polygon fill="#6c757d" stroke="#6c757d" points="408.45,-3443.66 414.68,-3439.64 407.3,-3438.89 408.45,-3443.66"/>
</g>
<!-- N9 -->
<g id="node10" class="node">
<title>N9</title>
<path fill="#f8f9fa" stroke="#ced4da" d="M525.5,-3497C525.5,-3497 460.75,-3497 460.75,-3497 454.75,-3497 448.75,-3491 448.75,-3485 448.75,-3485 448.75,-3473 448.75,-3473 448.75,-3467 454.75,-3461 460.75,-3461 460.75,-3461 525.5,-3461 525.5,-3461 531.5,-3461 537.5,-3467 537.5,-3473 537.5,-3473 537.5,-3485 537.5,-3485 537.5,-3491 531.5,-3497 525.5,-3497"/>
<text text-anchor="middle" x="493.12" y="-3476.62" font-family="Helvetica,Arial,sans-serif" font-size="10.00" fill="#212529">📄 immich.nix</text>
</g>
<!-- N2&#45;&gt;N9 -->
<g id="edge11" class="edge">
<title>N2&#45;&gt;N9</title>
<path fill="none" stroke="#6c757d" d="M230.31,-3790.62C262.99,-3725.27 371.62,-3508 371.62,-3508 371.62,-3508 407.49,-3499.37 440.09,-3491.52"/>
<polygon fill="#6c757d" stroke="#6c757d" points="440.58,-3493.93 446.81,-3489.91 439.43,-3489.16 440.58,-3493.93"/>
</g>
<!-- N10 -->
<g id="node11" class="node">
<title>N10</title>
<path fill="#f8f9fa" stroke="#ced4da" d="M523.62,-3555C523.62,-3555 462.62,-3555 462.62,-3555 456.62,-3555 450.62,-3549 450.62,-3543 450.62,-3543 450.62,-3531 450.62,-3531 450.62,-3525 456.62,-3519 462.62,-3519 462.62,-3519 523.62,-3519 523.62,-3519 529.62,-3519 535.62,-3525 535.62,-3531 535.62,-3531 535.62,-3543 535.62,-3543 535.62,-3549 529.62,-3555 523.62,-3555"/>
<text text-anchor="middle" x="493.12" y="-3534.62" font-family="Helvetica,Arial,sans-serif" font-size="10.00" fill="#212529">📄 jellyfin.nix</text>
</g>
<!-- N2&#45;&gt;N10 -->
<g id="edge12" class="edge">
<title>N2&#45;&gt;N10</title>
<path fill="none" stroke="#6c757d" d="M232.44,-3790.74C267.44,-3734.22 371.62,-3566 371.62,-3566 371.62,-3566 409.24,-3556.95 442.44,-3548.96"/>
<polygon fill="#6c757d" stroke="#6c757d" points="442.61,-3551.44 448.85,-3547.42 441.47,-3546.67 442.61,-3551.44"/>
</g>
<!-- N11 -->
<g id="node12" class="node">
<title>N11</title>
<path fill="#f8f9fa" stroke="#ced4da" d="M523.62,-3613C523.62,-3613 462.62,-3613 462.62,-3613 456.62,-3613 450.62,-3607 450.62,-3601 450.62,-3601 450.62,-3589 450.62,-3589 450.62,-3583 456.62,-3577 462.62,-3577 462.62,-3577 523.62,-3577 523.62,-3577 529.62,-3577 535.62,-3583 535.62,-3589 535.62,-3589 535.62,-3601 535.62,-3601 535.62,-3607 529.62,-3613 523.62,-3613"/>
<text text-anchor="middle" x="493.12" y="-3592.62" font-family="Helvetica,Arial,sans-serif" font-size="10.00" fill="#212529">📄 komga.nix</text>
</g>
<!-- N2&#45;&gt;N11 -->
<g id="edge13" class="edge">
<title>N2&#45;&gt;N11</title>
<path fill="none" stroke="#6c757d" d="M236.11,-3790.59C274.17,-3743.79 371.62,-3624 371.62,-3624 371.62,-3624 409.24,-3614.95 442.44,-3606.96"/>
<polygon fill="#6c757d" stroke="#6c757d" points="442.61,-3609.44 448.85,-3605.42 441.47,-3604.67 442.61,-3609.44"/>
</g>
<!-- N12 -->
<g id="node13" class="node">
<title>N12</title>
<path fill="#f8f9fa" stroke="#ced4da" d="M531.12,-3671C531.12,-3671 455.12,-3671 455.12,-3671 449.12,-3671 443.12,-3665 443.12,-3659 443.12,-3659 443.12,-3647 443.12,-3647 443.12,-3641 449.12,-3635 455.12,-3635 455.12,-3635 531.12,-3635 531.12,-3635 537.12,-3635 543.12,-3641 543.12,-3647 543.12,-3647 543.12,-3659 543.12,-3659 543.12,-3665 537.12,-3671 531.12,-3671"/>
<text text-anchor="middle" x="493.12" y="-3650.62" font-family="Helvetica,Arial,sans-serif" font-size="10.00" fill="#212529">📄 onlyoffice.nix</text>
</g>
<!-- N2&#45;&gt;N12 -->
<g id="edge14" class="edge">
<title>N2&#45;&gt;N12</title>
<path fill="none" stroke="#6c757d" d="M243.01,-3790.53C284.75,-3755.31 371.62,-3682 371.62,-3682 371.62,-3682 403.53,-3674.32 434.51,-3666.87"/>
<polygon fill="#6c757d" stroke="#6c757d" points="435.06,-3669.25 441.29,-3665.23 433.91,-3664.49 435.06,-3669.25"/>
</g>
<!-- N13 -->
<g id="node14" class="node">
<title>N13</title>
<path fill="#f8f9fa" stroke="#ced4da" d="M527,-3729C527,-3729 459.25,-3729 459.25,-3729 453.25,-3729 447.25,-3723 447.25,-3717 447.25,-3717 447.25,-3705 447.25,-3705 447.25,-3699 453.25,-3693 459.25,-3693 459.25,-3693 527,-3693 527,-3693 533,-3693 539,-3699 539,-3705 539,-3705 539,-3717 539,-3717 539,-3723 533,-3729 527,-3729"/>
<text text-anchor="middle" x="493.12" y="-3708.62" font-family="Helvetica,Arial,sans-serif" font-size="10.00" fill="#212529">📄 prowlarr.nix</text>
</g>
<!-- N2&#45;&gt;N13 -->
<g id="edge15" class="edge">
<title>N2&#45;&gt;N13</title>
<path fill="none" stroke="#6c757d" d="M272.1,-3790.57C319.74,-3773.34 390.58,-3747.72 438.93,-3730.24"/>
<polygon fill="#6c757d" stroke="#6c757d" points="439.61,-3732.6 445.36,-3727.91 437.95,-3727.99 439.61,-3732.6"/>
</g>
<!-- N14 -->
<g id="node15" class="node">
<title>N14</title>
<path fill="#f8f9fa" stroke="#ced4da" d="M533,-2917C533,-2917 453.25,-2917 453.25,-2917 447.25,-2917 441.25,-2911 441.25,-2905 441.25,-2905 441.25,-2893 441.25,-2893 441.25,-2887 447.25,-2881 453.25,-2881 453.25,-2881 533,-2881 533,-2881 539,-2881 545,-2887 545,-2893 545,-2893 545,-2905 545,-2905 545,-2911 539,-2917 533,-2917"/>
<text text-anchor="middle" x="493.12" y="-2896.62" font-family="Helvetica,Arial,sans-serif" font-size="10.00" fill="#212529">📄 qbittorrent.nix</text>
</g>
<!-- N2&#45;&gt;N14 -->
<g id="edge16" class="edge">
<title>N2&#45;&gt;N14</title>
<path fill="none" stroke="#6c757d" d="M224.27,-3790.6C245.88,-3664.08 371.62,-2928 371.62,-2928 371.62,-2928 402.43,-2920.59 432.89,-2913.26"/>
<polygon fill="#6c757d" stroke="#6c757d" points="433.32,-2915.67 439.55,-2911.65 432.17,-2910.91 433.32,-2915.67"/>
</g>
<!-- N15 -->
<g id="node16" class="node">
<title>N15</title>
<path fill="#f8f9fa" stroke="#ced4da" d="M528.12,-2975C528.12,-2975 458.12,-2975 458.12,-2975 452.12,-2975 446.12,-2969 446.12,-2963 446.12,-2963 446.12,-2951 446.12,-2951 446.12,-2945 452.12,-2939 458.12,-2939 458.12,-2939 528.12,-2939 528.12,-2939 534.12,-2939 540.12,-2945 540.12,-2951 540.12,-2951 540.12,-2963 540.12,-2963 540.12,-2969 534.12,-2975 528.12,-2975"/>
<text text-anchor="middle" x="493.12" y="-2954.62" font-family="Helvetica,Arial,sans-serif" font-size="10.00" fill="#212529">📄 recyclarr.nix</text>
</g>
<!-- N2&#45;&gt;N15 -->
<g id="edge17" class="edge">
<title>N2&#45;&gt;N15</title>
<path fill="none" stroke="#6c757d" d="M224.48,-3790.66C246.69,-3669.22 371.62,-2986 371.62,-2986 371.62,-2986 405.85,-2977.76 437.82,-2970.07"/>
<polygon fill="#6c757d" stroke="#6c757d" points="438.18,-2972.5 444.41,-2968.48 437.03,-2967.74 438.18,-2972.5"/>
</g>
<!-- N16 -->
<g id="node17" class="node">
<title>N16</title>
<path fill="#f8f9fa" stroke="#ced4da" d="M517.25,-3033C517.25,-3033 469,-3033 469,-3033 463,-3033 457,-3027 457,-3021 457,-3021 457,-3009 457,-3009 457,-3003 463,-2997 469,-2997 469,-2997 517.25,-2997 517.25,-2997 523.25,-2997 529.25,-3003 529.25,-3009 529.25,-3009 529.25,-3021 529.25,-3021 529.25,-3027 523.25,-3033 517.25,-3033"/>
<text text-anchor="middle" x="493.12" y="-3012.62" font-family="Helvetica,Arial,sans-serif" font-size="10.00" fill="#212529">📄 seer.nix</text>
</g>
<!-- N2&#45;&gt;N16 -->
<g id="edge18" class="edge">
<title>N2&#45;&gt;N16</title>
<path fill="none" stroke="#6c757d" d="M224.7,-3790.84C247.49,-3675 371.62,-3044 371.62,-3044 371.62,-3044 414.01,-3033.8 448.5,-3025.5"/>
<polygon fill="#6c757d" stroke="#6c757d" points="448.92,-3027.92 455.15,-3023.9 447.77,-3023.15 448.92,-3027.92"/>
</g>
<!-- N17 -->
<g id="node18" class="node">
<title>N17</title>
<path fill="#f8f9fa" stroke="#ced4da" d="M522.12,-3091C522.12,-3091 464.12,-3091 464.12,-3091 458.12,-3091 452.12,-3085 452.12,-3079 452.12,-3079 452.12,-3067 452.12,-3067 452.12,-3061 458.12,-3055 464.12,-3055 464.12,-3055 522.12,-3055 522.12,-3055 528.12,-3055 534.12,-3061 534.12,-3067 534.12,-3067 534.12,-3079 534.12,-3079 534.12,-3085 528.12,-3091 522.12,-3091"/>
<text text-anchor="middle" x="493.12" y="-3070.62" font-family="Helvetica,Arial,sans-serif" font-size="10.00" fill="#212529">📄 sonarr.nix</text>
</g>
<!-- N2&#45;&gt;N17 -->
<g id="edge19" class="edge">
<title>N2&#45;&gt;N17</title>
<path fill="none" stroke="#6c757d" d="M225,-3790.81C248.55,-3680.15 371.62,-3102 371.62,-3102 371.62,-3102 410.22,-3092.71 443.73,-3084.65"/>
<polygon fill="#6c757d" stroke="#6c757d" points="443.96,-3087.11 450.19,-3083.09 442.81,-3082.35 443.96,-3087.11"/>
</g>
<!-- N18 -->
<g id="node19" class="node">
<title>N18</title>
<path fill="#f8f9fa" stroke="#ced4da" d="M532.25,-3149C532.25,-3149 454,-3149 454,-3149 448,-3149 442,-3143 442,-3137 442,-3137 442,-3125 442,-3125 442,-3119 448,-3113 454,-3113 454,-3113 532.25,-3113 532.25,-3113 538.25,-3113 544.25,-3119 544.25,-3125 544.25,-3125 544.25,-3137 544.25,-3137 544.25,-3143 538.25,-3149 532.25,-3149"/>
<text text-anchor="middle" x="493.12" y="-3128.62" font-family="Helvetica,Arial,sans-serif" font-size="10.00" fill="#212529">📄 suwayomi.nix</text>
</g>
<!-- N2&#45;&gt;N18 -->
<g id="edge20" class="edge">
<title>N2&#45;&gt;N18</title>
<path fill="none" stroke="#6c757d" d="M225.39,-3790.62C249.88,-3685.01 371.62,-3160 371.62,-3160 371.62,-3160 402.87,-3152.48 433.54,-3145.1"/>
<polygon fill="#6c757d" stroke="#6c757d" points="434.02,-3147.5 440.25,-3143.48 432.87,-3142.74 434.02,-3147.5"/>
</g>
<!-- N19 -->
<g id="node20" class="node">
<title>N19</title>
<path fill="#f8f9fa" stroke="#ced4da" d="M522.88,-3207C522.88,-3207 463.38,-3207 463.38,-3207 457.38,-3207 451.38,-3201 451.38,-3195 451.38,-3195 451.38,-3183 451.38,-3183 451.38,-3177 457.38,-3171 463.38,-3171 463.38,-3171 522.88,-3171 522.88,-3171 528.88,-3171 534.88,-3177 534.88,-3183 534.88,-3183 534.88,-3195 534.88,-3195 534.88,-3201 528.88,-3207 522.88,-3207"/>
<text text-anchor="middle" x="493.12" y="-3186.62" font-family="Helvetica,Arial,sans-serif" font-size="10.00" fill="#212529">📄 tranga.nix</text>
</g>
<!-- N2&#45;&gt;N19 -->
<g id="edge21" class="edge">
<title>N2&#45;&gt;N19</title>
<path fill="none" stroke="#6c757d" d="M225.79,-3790.66C251.2,-3690.91 371.62,-3218 371.62,-3218 371.62,-3218 409.73,-3208.83 443.08,-3200.8"/>
<polygon fill="#6c757d" stroke="#6c757d" points="443.29,-3203.27 449.52,-3199.25 442.14,-3198.51 443.29,-3203.27"/>
</g>
<!-- N20 -->
<g id="node21" class="node">
<title>N20</title>
<path fill="#f8f9fa" stroke="#ced4da" d="M518.38,-2645C518.38,-2645 467.88,-2645 467.88,-2645 461.88,-2645 455.88,-2639 455.88,-2633 455.88,-2633 455.88,-2621 455.88,-2621 455.88,-2615 461.88,-2609 467.88,-2609 467.88,-2609 518.38,-2609 518.38,-2609 524.38,-2609 530.38,-2615 530.38,-2621 530.38,-2621 530.38,-2633 530.38,-2633 530.38,-2639 524.38,-2645 518.38,-2645"/>
<text text-anchor="middle" x="493.12" y="-2624.62" font-family="Helvetica,Arial,sans-serif" font-size="10.00" fill="#212529">📄 alloy.nix</text>
</g>
<!-- N2&#45;&gt;N20 -->
<g id="edge22" class="edge">
<title>N2&#45;&gt;N20</title>
<path fill="none" stroke="#6c757d" d="M223.49,-3790.89C242.64,-3644.2 371.62,-2656 371.62,-2656 371.62,-2656 413.24,-2645.99 447.56,-2637.73"/>
<polygon fill="#6c757d" stroke="#6c757d" points="447.94,-2640.15 454.17,-2636.13 446.79,-2635.39 447.94,-2640.15"/>
</g>
<!-- N21 -->
<g id="node22" class="node">
<title>N21</title>
<path fill="#f8f9fa" stroke="#ced4da" d="M531.88,-2703C531.88,-2703 454.38,-2703 454.38,-2703 448.38,-2703 442.38,-2697 442.38,-2691 442.38,-2691 442.38,-2679 442.38,-2679 442.38,-2673 448.38,-2667 454.38,-2667 454.38,-2667 531.88,-2667 531.88,-2667 537.88,-2667 543.88,-2673 543.88,-2679 543.88,-2679 543.88,-2691 543.88,-2691 543.88,-2697 537.88,-2703 531.88,-2703"/>
<text text-anchor="middle" x="493.12" y="-2682.62" font-family="Helvetica,Arial,sans-serif" font-size="10.00" fill="#212529">📄 borgmatic.nix</text>
</g>
<!-- N2&#45;&gt;N21 -->
<g id="edge23" class="edge">
<title>N2&#45;&gt;N21</title>
<path fill="none" stroke="#6c757d" d="M223.61,-3790.91C243.18,-3648.54 371.62,-2714 371.62,-2714 371.62,-2714 403.09,-2706.43 433.86,-2699.02"/>
<polygon fill="#6c757d" stroke="#6c757d" points="434.37,-2701.42 440.6,-2697.4 433.22,-2696.66 434.37,-2701.42"/>
</g>
<!-- N22 -->
<g id="node23" class="node">
<title>N22</title>
<path fill="#f8f9fa" stroke="#ced4da" d="M517.62,-2761C517.62,-2761 468.62,-2761 468.62,-2761 462.62,-2761 456.62,-2755 456.62,-2749 456.62,-2749 456.62,-2737 456.62,-2737 456.62,-2731 462.62,-2725 468.62,-2725 468.62,-2725 517.62,-2725 517.62,-2725 523.62,-2725 529.62,-2731 529.62,-2737 529.62,-2737 529.62,-2749 529.62,-2749 529.62,-2755 523.62,-2761 517.62,-2761"/>
<text text-anchor="middle" x="493.12" y="-2740.62" font-family="Helvetica,Arial,sans-serif" font-size="10.00" fill="#212529">📄 diun.nix</text>
</g>
<!-- N2&#45;&gt;N22 -->
<g id="edge24" class="edge">
<title>N2&#45;&gt;N22</title>
<path fill="none" stroke="#6c757d" d="M223.8,-3790.56C243.99,-3651.43 371.62,-2772 371.62,-2772 371.62,-2772 413.75,-2761.86 448.19,-2753.57"/>
<polygon fill="#6c757d" stroke="#6c757d" points="448.59,-2756 454.83,-2751.98 447.45,-2751.23 448.59,-2756"/>
</g>
<!-- N23 -->
<g id="node24" class="node">
<title>N23</title>
<path fill="#f8f9fa" stroke="#ced4da" d="M525.88,-2819C525.88,-2819 460.38,-2819 460.38,-2819 454.38,-2819 448.38,-2813 448.38,-2807 448.38,-2807 448.38,-2795 448.38,-2795 448.38,-2789 454.38,-2783 460.38,-2783 460.38,-2783 525.88,-2783 525.88,-2783 531.88,-2783 537.88,-2789 537.88,-2795 537.88,-2795 537.88,-2807 537.88,-2807 537.88,-2813 531.88,-2819 525.88,-2819"/>
<text text-anchor="middle" x="493.12" y="-2798.62" font-family="Helvetica,Arial,sans-serif" font-size="10.00" fill="#212529">📄 grafana.nix</text>
</g>
<!-- N2&#45;&gt;N23 -->
<g id="edge25" class="edge">
<title>N2&#45;&gt;N23</title>
<path fill="none" stroke="#6c757d" d="M224,-3790.91C244.8,-3659.85 371.62,-2861 371.62,-2861 371.62,-2861 413.42,-2840.19 447.79,-2823.08"/>
<polygon fill="#6c757d" stroke="#6c757d" points="448.46,-2825.48 453.63,-2820.17 446.27,-2821.09 448.46,-2825.48"/>
</g>
<!-- N24 -->
<g id="node25" class="node">
<title>N24</title>
<path fill="#f8f9fa" stroke="#ced4da" d="M516.12,-2297C516.12,-2297 470.12,-2297 470.12,-2297 464.12,-2297 458.12,-2291 458.12,-2285 458.12,-2285 458.12,-2273 458.12,-2273 458.12,-2267 464.12,-2261 470.12,-2261 470.12,-2261 516.12,-2261 516.12,-2261 522.12,-2261 528.12,-2267 528.12,-2273 528.12,-2273 528.12,-2285 528.12,-2285 528.12,-2291 522.12,-2297 516.12,-2297"/>
<text text-anchor="middle" x="493.12" y="-2276.62" font-family="Helvetica,Arial,sans-serif" font-size="10.00" fill="#212529">📄 loki.nix</text>
</g>
<!-- N2&#45;&gt;N24 -->
<g id="edge26" class="edge">
<title>N2&#45;&gt;N24</title>
<path fill="none" stroke="#6c757d" d="M222.97,-3790.56C240.18,-3619.01 371.62,-2308 371.62,-2308 371.62,-2308 415.05,-2297.55 449.76,-2289.2"/>
<polygon fill="#6c757d" stroke="#6c757d" points="450.21,-2291.61 456.45,-2287.59 449.07,-2286.84 450.21,-2291.61"/>
</g>
<!-- N25 -->
<g id="node26" class="node">
<title>N25</title>
<path fill="#f8f9fa" stroke="#ced4da" d="M525.88,-2355C525.88,-2355 460.38,-2355 460.38,-2355 454.38,-2355 448.38,-2349 448.38,-2343 448.38,-2343 448.38,-2331 448.38,-2331 448.38,-2325 454.38,-2319 460.38,-2319 460.38,-2319 525.88,-2319 525.88,-2319 531.88,-2319 537.88,-2325 537.88,-2331 537.88,-2331 537.88,-2343 537.88,-2343 537.88,-2349 531.88,-2355 525.88,-2355"/>
<text text-anchor="middle" x="493.12" y="-2334.62" font-family="Helvetica,Arial,sans-serif" font-size="10.00" fill="#212529">📄 netdata.nix</text>
</g>
<!-- N2&#45;&gt;N25 -->
<g id="edge27" class="edge">
<title>N2&#45;&gt;N25</title>
<path fill="none" stroke="#6c757d" d="M223.03,-3790.76C240.45,-3623.71 371.62,-2366 371.62,-2366 371.62,-2366 407.25,-2357.43 439.76,-2349.6"/>
<polygon fill="#6c757d" stroke="#6c757d" points="440.24,-2352.01 446.47,-2347.99 439.09,-2347.24 440.24,-2352.01"/>
</g>
<!-- N26 -->
<g id="node27" class="node">
<title>N26</title>
<path fill="#f8f9fa" stroke="#ced4da" d="M542.75,-2413C542.75,-2413 443.5,-2413 443.5,-2413 437.5,-2413 431.5,-2407 431.5,-2401 431.5,-2401 431.5,-2389 431.5,-2389 431.5,-2383 437.5,-2377 443.5,-2377 443.5,-2377 542.75,-2377 542.75,-2377 548.75,-2377 554.75,-2383 554.75,-2389 554.75,-2389 554.75,-2401 554.75,-2401 554.75,-2407 548.75,-2413 542.75,-2413"/>
<text text-anchor="middle" x="493.12" y="-2392.62" font-family="Helvetica,Arial,sans-serif" font-size="10.00" fill="#212529">📄 power&#45;monitor.nix</text>
</g>
<!-- N2&#45;&gt;N26 -->
<g id="edge28" class="edge">
<title>N2&#45;&gt;N26</title>
<path fill="none" stroke="#6c757d" d="M223.11,-3790.73C240.86,-3627.38 371.62,-2424 371.62,-2424 371.62,-2424 396.19,-2418.09 423.14,-2411.6"/>
<polygon fill="#6c757d" stroke="#6c757d" points="423.47,-2414.04 429.7,-2410.02 422.32,-2409.28 423.47,-2414.04"/>
</g>
<!-- N27 -->
<g id="node28" class="node">
<title>N27</title>
<path fill="#f8f9fa" stroke="#ced4da" d="M536.38,-2471C536.38,-2471 449.88,-2471 449.88,-2471 443.88,-2471 437.88,-2465 437.88,-2459 437.88,-2459 437.88,-2447 437.88,-2447 437.88,-2441 443.88,-2435 449.88,-2435 449.88,-2435 536.38,-2435 536.38,-2435 542.38,-2435 548.38,-2441 548.38,-2447 548.38,-2447 548.38,-2459 548.38,-2459 548.38,-2465 542.38,-2471 536.38,-2471"/>
<text text-anchor="middle" x="493.12" y="-2450.62" font-family="Helvetica,Arial,sans-serif" font-size="10.00" fill="#212529">📄 prometheus.nix</text>
</g>
<!-- N2&#45;&gt;N27 -->
<g id="edge29" class="edge">
<title>N2&#45;&gt;N27</title>
<path fill="none" stroke="#6c757d" d="M223.2,-3790.75C241.27,-3631.36 371.62,-2482 371.62,-2482 371.62,-2482 400.04,-2475.16 429.27,-2468.13"/>
<polygon fill="#6c757d" stroke="#6c757d" points="429.81,-2470.52 436.04,-2466.5 428.67,-2465.75 429.81,-2470.52"/>
</g>
<!-- N28 -->
<g id="node29" class="node">
<title>N28</title>
<path fill="#f8f9fa" stroke="#ced4da" d="M525.88,-2529C525.88,-2529 460.38,-2529 460.38,-2529 454.38,-2529 448.38,-2523 448.38,-2517 448.38,-2517 448.38,-2505 448.38,-2505 448.38,-2499 454.38,-2493 460.38,-2493 460.38,-2493 525.88,-2493 525.88,-2493 531.88,-2493 537.88,-2499 537.88,-2505 537.88,-2505 537.88,-2517 537.88,-2517 537.88,-2523 531.88,-2529 525.88,-2529"/>
<text text-anchor="middle" x="493.12" y="-2508.62" font-family="Helvetica,Arial,sans-serif" font-size="10.00" fill="#212529">📄 scrutiny.nix</text>
</g>
<!-- N2&#45;&gt;N28 -->
<g id="edge30" class="edge">
<title>N2&#45;&gt;N28</title>
<path fill="none" stroke="#6c757d" d="M223.31,-3790.57C241.82,-3634.52 371.62,-2540 371.62,-2540 371.62,-2540 407.25,-2531.43 439.76,-2523.6"/>
<polygon fill="#6c757d" stroke="#6c757d" points="440.24,-2526.01 446.47,-2521.99 439.09,-2521.24 440.24,-2526.01"/>
</g>
<!-- N29 -->
<g id="node30" class="node">
<title>N29</title>
<path fill="#f8f9fa" stroke="#ced4da" d="M539.75,-2587C539.75,-2587 446.5,-2587 446.5,-2587 440.5,-2587 434.5,-2581 434.5,-2575 434.5,-2575 434.5,-2563 434.5,-2563 434.5,-2557 440.5,-2551 446.5,-2551 446.5,-2551 539.75,-2551 539.75,-2551 545.75,-2551 551.75,-2557 551.75,-2563 551.75,-2563 551.75,-2575 551.75,-2575 551.75,-2581 545.75,-2587 539.75,-2587"/>
<text text-anchor="middle" x="493.12" y="-2566.62" font-family="Helvetica,Arial,sans-serif" font-size="10.00" fill="#212529">📄 uptime&#45;kuma.nix</text>
</g>
<!-- N2&#45;&gt;N29 -->
<g id="edge31" class="edge">
<title>N2&#45;&gt;N29</title>
<path fill="none" stroke="#6c757d" d="M223.37,-3790.94C242.09,-3640.3 371.62,-2598 371.62,-2598 371.62,-2598 398.19,-2591.61 426.37,-2584.82"/>
<polygon fill="#6c757d" stroke="#6c757d" points="426.64,-2587.28 432.87,-2583.26 425.5,-2582.52 426.64,-2587.28"/>
</g>
<!-- N30 -->
<g id="node31" class="node">
<title>N30</title>
<path fill="#f8f9fa" stroke="#ced4da" d="M545.75,-1677C545.75,-1677 440.5,-1677 440.5,-1677 434.5,-1677 428.5,-1671 428.5,-1665 428.5,-1665 428.5,-1653 428.5,-1653 428.5,-1647 434.5,-1641 440.5,-1641 440.5,-1641 545.75,-1641 545.75,-1641 551.75,-1641 557.75,-1647 557.75,-1653 557.75,-1653 557.75,-1665 557.75,-1665 557.75,-1671 551.75,-1677 545.75,-1677"/>
<text text-anchor="middle" x="493.12" y="-1656.62" font-family="Helvetica,Arial,sans-serif" font-size="10.00" fill="#212529">📄 crafty&#45;controller.nix</text>
</g>
<!-- N2&#45;&gt;N30 -->
<g id="edge32" class="edge">
<title>N2&#45;&gt;N30</title>
<path fill="none" stroke="#6c757d" d="M222.43,-3790.66C237.14,-3583.36 371.62,-1688 371.62,-1688 371.62,-1688 394.47,-1682.5 420.27,-1676.29"/>
<polygon fill="#6c757d" stroke="#6c757d" points="420.64,-1678.72 426.87,-1674.7 419.5,-1673.96 420.64,-1678.72"/>
</g>
<!-- N31 -->
<g id="node32" class="node">
<title>N31</title>
<path fill="#f8f9fa" stroke="#ced4da" d="M524.38,-1735C524.38,-1735 461.88,-1735 461.88,-1735 455.88,-1735 449.88,-1729 449.88,-1723 449.88,-1723 449.88,-1711 449.88,-1711 449.88,-1705 455.88,-1699 461.88,-1699 461.88,-1699 524.38,-1699 524.38,-1699 530.38,-1699 536.38,-1705 536.38,-1711 536.38,-1711 536.38,-1723 536.38,-1723 536.38,-1729 530.38,-1735 524.38,-1735"/>
<text text-anchor="middle" x="493.12" y="-1714.62" font-family="Helvetica,Arial,sans-serif" font-size="10.00" fill="#212529">📄 forgejo.nix</text>
</g>
<!-- N2&#45;&gt;N31 -->
<g id="edge33" class="edge">
<title>N2&#45;&gt;N31</title>
<path fill="none" stroke="#6c757d" d="M222.47,-3790.54C237.41,-3585.72 371.62,-1746 371.62,-1746 371.62,-1746 408.44,-1737.14 441.38,-1729.21"/>
<polygon fill="#6c757d" stroke="#6c757d" points="441.94,-1731.6 448.17,-1727.58 440.79,-1726.83 441.94,-1731.6"/>
</g>
<!-- N32 -->
<g id="node33" class="node">
<title>N32</title>
<path fill="#f8f9fa" stroke="#ced4da" d="M526.62,-1793C526.62,-1793 459.62,-1793 459.62,-1793 453.62,-1793 447.62,-1787 447.62,-1781 447.62,-1781 447.62,-1769 447.62,-1769 447.62,-1763 453.62,-1757 459.62,-1757 459.62,-1757 526.62,-1757 526.62,-1757 532.62,-1757 538.62,-1763 538.62,-1769 538.62,-1769 538.62,-1781 538.62,-1781 538.62,-1787 532.62,-1793 526.62,-1793"/>
<text text-anchor="middle" x="493.12" y="-1772.62" font-family="Helvetica,Arial,sans-serif" font-size="10.00" fill="#212529">📄 freshrss.nix</text>
</g>
<!-- N2&#45;&gt;N32 -->
<g id="edge34" class="edge">
<title>N2&#45;&gt;N32</title>
<path fill="none" stroke="#6c757d" d="M222.5,-3790.74C237.55,-3590.15 371.62,-1804 371.62,-1804 371.62,-1804 406.78,-1795.54 439.12,-1787.76"/>
<polygon fill="#6c757d" stroke="#6c757d" points="439.55,-1790.17 445.78,-1786.15 438.4,-1785.41 439.55,-1790.17"/>
</g>
<!-- N33 -->
<g id="node34" class="node">
<title>N33</title>
<path fill="#f8f9fa" stroke="#ced4da" d="M533,-1851C533,-1851 453.25,-1851 453.25,-1851 447.25,-1851 441.25,-1845 441.25,-1839 441.25,-1839 441.25,-1827 441.25,-1827 441.25,-1821 447.25,-1815 453.25,-1815 453.25,-1815 533,-1815 533,-1815 539,-1815 545,-1821 545,-1827 545,-1827 545,-1839 545,-1839 545,-1845 539,-1851 533,-1851"/>
<text text-anchor="middle" x="493.12" y="-1830.62" font-family="Helvetica,Arial,sans-serif" font-size="10.00" fill="#212529">📄 homepage.nix</text>
</g>
<!-- N2&#45;&gt;N33 -->
<g id="edge35" class="edge">
<title>N2&#45;&gt;N33</title>
<path fill="none" stroke="#6c757d" d="M222.54,-3790.66C237.83,-3592.89 371.62,-1862 371.62,-1862 371.62,-1862 402.43,-1854.59 432.89,-1847.26"/>
<polygon fill="#6c757d" stroke="#6c757d" points="433.32,-1849.67 439.55,-1845.65 432.17,-1844.91 433.32,-1849.67"/>
</g>
<!-- N34 -->
<g id="node35" class="node">
<title>N34</title>
<path fill="#f8f9fa" stroke="#ced4da" d="M538.25,-1909C538.25,-1909 448,-1909 448,-1909 442,-1909 436,-1903 436,-1897 436,-1897 436,-1885 436,-1885 436,-1879 442,-1873 448,-1873 448,-1873 538.25,-1873 538.25,-1873 544.25,-1873 550.25,-1879 550.25,-1885 550.25,-1885 550.25,-1897 550.25,-1897 550.25,-1903 544.25,-1909 538.25,-1909"/>
<text text-anchor="middle" x="493.12" y="-1888.62" font-family="Helvetica,Arial,sans-serif" font-size="10.00" fill="#212529">📄 local&#45;finance.nix</text>
</g>
<!-- N2&#45;&gt;N34 -->
<g id="edge36" class="edge">
<title>N2&#45;&gt;N34</title>
<path fill="none" stroke="#6c757d" d="M222.59,-3790.61C238.11,-3595.86 371.62,-1920 371.62,-1920 371.62,-1920 399,-1913.41 427.66,-1906.51"/>
<polygon fill="#6c757d" stroke="#6c757d" points="428.05,-1908.94 434.28,-1904.92 426.91,-1904.18 428.05,-1908.94"/>
</g>
<!-- N35 -->
<g id="node36" class="node">
<title>N35</title>
<path fill="#f8f9fa" stroke="#ced4da" d="M516.12,-1967C516.12,-1967 470.12,-1967 470.12,-1967 464.12,-1967 458.12,-1961 458.12,-1955 458.12,-1955 458.12,-1943 458.12,-1943 458.12,-1937 464.12,-1931 470.12,-1931 470.12,-1931 516.12,-1931 516.12,-1931 522.12,-1931 528.12,-1937 528.12,-1943 528.12,-1943 528.12,-1955 528.12,-1955 528.12,-1961 522.12,-1967 516.12,-1967"/>
<text text-anchor="middle" x="493.12" y="-1946.62" font-family="Helvetica,Arial,sans-serif" font-size="10.00" fill="#212529">📄 n8n.nix</text>
</g>
<!-- N2&#45;&gt;N35 -->
<g id="edge37" class="edge">
<title>N2&#45;&gt;N35</title>
<path fill="none" stroke="#6c757d" d="M222.64,-3790.58C238.38,-3599.03 371.62,-1978 371.62,-1978 371.62,-1978 415.05,-1967.55 449.76,-1959.2"/>
<polygon fill="#6c757d" stroke="#6c757d" points="450.21,-1961.61 456.45,-1957.59 449.07,-1956.84 450.21,-1961.61"/>
</g>
<!-- N36 -->
<g id="node37" class="node">
<title>N36</title>
<path fill="#f8f9fa" stroke="#ced4da" d="M522.5,-2025C522.5,-2025 463.75,-2025 463.75,-2025 457.75,-2025 451.75,-2019 451.75,-2013 451.75,-2013 451.75,-2001 451.75,-2001 451.75,-1995 457.75,-1989 463.75,-1989 463.75,-1989 522.5,-1989 522.5,-1989 528.5,-1989 534.5,-1995 534.5,-2001 534.5,-2001 534.5,-2013 534.5,-2013 534.5,-2019 528.5,-2025 522.5,-2025"/>
<text text-anchor="middle" x="493.12" y="-2004.62" font-family="Helvetica,Arial,sans-serif" font-size="10.00" fill="#212529">📄 quartz.nix</text>
</g>
<!-- N2&#45;&gt;N36 -->
<g id="edge38" class="edge">
<title>N2&#45;&gt;N36</title>
<path fill="none" stroke="#6c757d" d="M222.69,-3790.58C238.66,-3602.43 371.62,-2036 371.62,-2036 371.62,-2036 409.98,-2026.77 443.41,-2018.72"/>
<polygon fill="#6c757d" stroke="#6c757d" points="443.63,-2021.19 449.86,-2017.17 442.48,-2016.43 443.63,-2021.19"/>
</g>
<!-- N37 -->
<g id="node38" class="node">
<title>N37</title>
<path fill="#f8f9fa" stroke="#ced4da" d="M521.75,-2083C521.75,-2083 464.5,-2083 464.5,-2083 458.5,-2083 452.5,-2077 452.5,-2071 452.5,-2071 452.5,-2059 452.5,-2059 452.5,-2053 458.5,-2047 464.5,-2047 464.5,-2047 521.75,-2047 521.75,-2047 527.75,-2047 533.75,-2053 533.75,-2059 533.75,-2059 533.75,-2071 533.75,-2071 533.75,-2077 527.75,-2083 521.75,-2083"/>
<text text-anchor="middle" x="493.12" y="-2062.62" font-family="Helvetica,Arial,sans-serif" font-size="10.00" fill="#212529">📄 romm.nix</text>
</g>
<!-- N2&#45;&gt;N37 -->
<g id="edge39" class="edge">
<title>N2&#45;&gt;N37</title>
<path fill="none" stroke="#6c757d" d="M222.74,-3790.61C238.94,-3606.04 371.62,-2094 371.62,-2094 371.62,-2094 410.47,-2084.65 444.05,-2076.57"/>
<polygon fill="#6c757d" stroke="#6c757d" points="444.3,-2079.03 450.53,-2075.01 443.15,-2074.27 444.3,-2079.03"/>
</g>
<!-- N38 -->
<g id="node39" class="node">
<title>N38</title>
<path fill="#f8f9fa" stroke="#ced4da" d="M552.12,-2141C552.12,-2141 434.12,-2141 434.12,-2141 428.12,-2141 422.12,-2135 422.12,-2129 422.12,-2129 422.12,-2117 422.12,-2117 422.12,-2111 428.12,-2105 434.12,-2105 434.12,-2105 552.12,-2105 552.12,-2105 558.12,-2105 564.12,-2111 564.12,-2117 564.12,-2117 564.12,-2129 564.12,-2129 564.12,-2135 558.12,-2141 552.12,-2141"/>
<text text-anchor="middle" x="493.12" y="-2120.62" font-family="Helvetica,Arial,sans-serif" font-size="10.00" fill="#212529">📄 security&#45;watchdog.nix</text>
</g>
<!-- N2&#45;&gt;N38 -->
<g id="edge40" class="edge">
<title>N2&#45;&gt;N38</title>
<path fill="none" stroke="#6c757d" d="M222.79,-3790.67C239.21,-3609.87 371.62,-2152 371.62,-2152 371.62,-2152 390.58,-2147.44 413.45,-2141.93"/>
<polygon fill="#6c757d" stroke="#6c757d" points="413.98,-2144.33 420.21,-2140.31 412.83,-2139.56 413.98,-2144.33"/>
</g>
<!-- N39 -->
<g id="node40" class="node">
<title>N39</title>
<path fill="#f8f9fa" stroke="#ced4da" d="M533.38,-2199C533.38,-2199 452.88,-2199 452.88,-2199 446.88,-2199 440.88,-2193 440.88,-2187 440.88,-2187 440.88,-2175 440.88,-2175 440.88,-2169 446.88,-2163 452.88,-2163 452.88,-2163 533.38,-2163 533.38,-2163 539.38,-2163 545.38,-2169 545.38,-2175 545.38,-2175 545.38,-2187 545.38,-2187 545.38,-2193 539.38,-2199 533.38,-2199"/>
<text text-anchor="middle" x="493.12" y="-2178.62" font-family="Helvetica,Arial,sans-serif" font-size="10.00" fill="#212529">📄 stirling&#45;pdf.nix</text>
</g>
<!-- N2&#45;&gt;N39 -->
<g id="edge41" class="edge">
<title>N2&#45;&gt;N39</title>
<path fill="none" stroke="#6c757d" d="M222.89,-3790.57C239.76,-3614.82 371.62,-2241 371.62,-2241 371.62,-2241 413.42,-2220.19 447.79,-2203.08"/>
<polygon fill="#6c757d" stroke="#6c757d" points="448.46,-2205.48 453.63,-2200.17 446.27,-2201.09 448.46,-2205.48"/>
</g>
<!-- N40 -->
<g id="node41" class="node">
<title>N40</title>
<path fill="#f8f9fa" stroke="#ced4da" d="M516.88,-1503C516.88,-1503 469.38,-1503 469.38,-1503 463.38,-1503 457.38,-1497 457.38,-1491 457.38,-1491 457.38,-1479 457.38,-1479 457.38,-1473 463.38,-1467 469.38,-1467 469.38,-1467 516.88,-1467 516.88,-1467 522.88,-1467 528.88,-1473 528.88,-1479 528.88,-1479 528.88,-1491 528.88,-1491 528.88,-1497 522.88,-1503 516.88,-1503"/>
<text text-anchor="middle" x="493.12" y="-1482.62" font-family="Helvetica,Arial,sans-serif" font-size="10.00" fill="#212529">📄 vert.nix</text>
</g>
<!-- N2&#45;&gt;N40 -->
<g id="edge42" class="edge">
<title>N2&#45;&gt;N40</title>
<path fill="none" stroke="#6c757d" d="M222.34,-3790.53C236.58,-3573.33 371.62,-1514 371.62,-1514 371.62,-1514 414.27,-1503.74 448.82,-1495.42"/>
<polygon fill="#6c757d" stroke="#6c757d" points="449.24,-1497.84 455.48,-1493.82 448.1,-1493.08 449.24,-1497.84"/>
</g>
<!-- N41 -->
<g id="node42" class="node">
<title>N41</title>
<path fill="#f8f9fa" stroke="#ced4da" d="M524.75,-1561C524.75,-1561 461.5,-1561 461.5,-1561 455.5,-1561 449.5,-1555 449.5,-1549 449.5,-1549 449.5,-1537 449.5,-1537 449.5,-1531 455.5,-1525 461.5,-1525 461.5,-1525 524.75,-1525 524.75,-1525 530.75,-1525 536.75,-1531 536.75,-1537 536.75,-1537 536.75,-1549 536.75,-1549 536.75,-1555 530.75,-1561 524.75,-1561"/>
<text text-anchor="middle" x="493.12" y="-1540.62" font-family="Helvetica,Arial,sans-serif" font-size="10.00" fill="#212529">📄 vikunja.nix</text>
</g>
<!-- N2&#45;&gt;N41 -->
<g id="edge43" class="edge">
<title>N2&#45;&gt;N41</title>
<path fill="none" stroke="#6c757d" d="M222.36,-3790.66C236.72,-3577.22 371.62,-1572 371.62,-1572 371.62,-1572 408.2,-1563.2 441.05,-1555.29"/>
<polygon fill="#6c757d" stroke="#6c757d" points="441.6,-1557.68 447.83,-1553.66 440.45,-1552.92 441.6,-1557.68"/>
</g>
<!-- N42 -->
<g id="node43" class="node">
<title>N42</title>
<path fill="#f8f9fa" stroke="#ced4da" d="M529.62,-1619C529.62,-1619 456.62,-1619 456.62,-1619 450.62,-1619 444.62,-1613 444.62,-1607 444.62,-1607 444.62,-1595 444.62,-1595 444.62,-1589 450.62,-1583 456.62,-1583 456.62,-1583 529.62,-1583 529.62,-1583 535.62,-1583 541.62,-1589 541.62,-1595 541.62,-1595 541.62,-1607 541.62,-1607 541.62,-1613 535.62,-1619 529.62,-1619"/>
<text text-anchor="middle" x="493.12" y="-1598.62" font-family="Helvetica,Arial,sans-serif" font-size="10.00" fill="#212529">📄 wanderer.nix</text>
</g>
<!-- N2&#45;&gt;N42 -->
<g id="edge44" class="edge">
<title>N2&#45;&gt;N42</title>
<path fill="none" stroke="#6c757d" d="M222.38,-3790.82C236.86,-3581.21 371.62,-1630 371.62,-1630 371.62,-1630 404.71,-1622.04 436.2,-1614.46"/>
<polygon fill="#6c757d" stroke="#6c757d" points="436.45,-1616.92 442.68,-1612.9 435.3,-1612.16 436.45,-1616.92"/>
</g>
<!-- N43 -->
<g id="node44" class="node">
<title>N43</title>
<path fill="#f8f9fa" stroke="#ced4da" d="M530.38,-1115C530.38,-1115 455.88,-1115 455.88,-1115 449.88,-1115 443.88,-1109 443.88,-1103 443.88,-1103 443.88,-1091 443.88,-1091 443.88,-1085 449.88,-1079 455.88,-1079 455.88,-1079 530.38,-1079 530.38,-1079 536.38,-1079 542.38,-1085 542.38,-1091 542.38,-1091 542.38,-1103 542.38,-1103 542.38,-1109 536.38,-1115 530.38,-1115"/>
<text text-anchor="middle" x="493.12" y="-1094.62" font-family="Helvetica,Arial,sans-serif" font-size="10.00" fill="#212529">📄 authentik.nix</text>
</g>
<!-- N2&#45;&gt;N43 -->
<g id="edge45" class="edge">
<title>N2&#45;&gt;N43</title>
<path fill="none" stroke="#6c757d" d="M222.15,-3790.8C235.32,-3555.88 371.62,-1126 371.62,-1126 371.62,-1126 404.25,-1118.15 435.55,-1110.62"/>
<polygon fill="#6c757d" stroke="#6c757d" points="435.76,-1113.09 441.99,-1109.07 434.61,-1108.32 435.76,-1113.09"/>
</g>
<!-- N44 -->
<g id="node45" class="node">
<title>N44</title>
<path fill="#f8f9fa" stroke="#ced4da" d="M521,-1173C521,-1173 465.25,-1173 465.25,-1173 459.25,-1173 453.25,-1167 453.25,-1161 453.25,-1161 453.25,-1149 453.25,-1149 453.25,-1143 459.25,-1137 465.25,-1137 465.25,-1137 521,-1137 521,-1137 527,-1137 533,-1143 533,-1149 533,-1149 533,-1161 533,-1161 533,-1167 527,-1173 521,-1173"/>
<text text-anchor="middle" x="493.12" y="-1152.62" font-family="Helvetica,Arial,sans-serif" font-size="10.00" fill="#212529">📄 caddy.nix</text>
</g>
<!-- N2&#45;&gt;N44 -->
<g id="edge46" class="edge">
<title>N2&#45;&gt;N44</title>
<path fill="none" stroke="#6c757d" d="M222.17,-3790.84C235.46,-3558.91 371.62,-1184 371.62,-1184 371.62,-1184 411.21,-1174.47 445.01,-1166.34"/>
<polygon fill="#6c757d" stroke="#6c757d" points="445.3,-1168.79 451.53,-1164.77 444.15,-1164.03 445.3,-1168.79"/>
</g>
<!-- N45 -->
<g id="node46" class="node">
<title>N45</title>
<path fill="#f8f9fa" stroke="#ced4da" d="M534.12,-1231C534.12,-1231 452.12,-1231 452.12,-1231 446.12,-1231 440.12,-1225 440.12,-1219 440.12,-1219 440.12,-1207 440.12,-1207 440.12,-1201 446.12,-1195 452.12,-1195 452.12,-1195 534.12,-1195 534.12,-1195 540.12,-1195 546.12,-1201 546.12,-1207 546.12,-1207 546.12,-1219 546.12,-1219 546.12,-1225 540.12,-1231 534.12,-1231"/>
<text text-anchor="middle" x="493.12" y="-1210.62" font-family="Helvetica,Arial,sans-serif" font-size="10.00" fill="#212529">📄 cloudflared.nix</text>
</g>
<!-- N2&#45;&gt;N45 -->
<g id="edge47" class="edge">
<title>N2&#45;&gt;N45</title>
<path fill="none" stroke="#6c757d" d="M222.21,-3790.53C235.74,-3559.67 371.62,-1242 371.62,-1242 371.62,-1242 401.78,-1234.74 431.91,-1227.49"/>
<polygon fill="#6c757d" stroke="#6c757d" points="432.27,-1229.93 438.5,-1225.91 431.12,-1225.16 432.27,-1229.93"/>
</g>
<!-- N46 -->
<g id="node47" class="node">
<title>N46</title>
<path fill="#f8f9fa" stroke="#ced4da" d="M555.88,-1289C555.88,-1289 430.38,-1289 430.38,-1289 424.38,-1289 418.38,-1283 418.38,-1277 418.38,-1277 418.38,-1265 418.38,-1265 418.38,-1259 424.38,-1253 430.38,-1253 430.38,-1253 555.88,-1253 555.88,-1253 561.88,-1253 567.88,-1259 567.88,-1265 567.88,-1265 567.88,-1277 567.88,-1277 567.88,-1283 561.88,-1289 555.88,-1289"/>
<text text-anchor="middle" x="493.12" y="-1268.62" font-family="Helvetica,Arial,sans-serif" font-size="10.00" fill="#212529">📄 docker&#45;socket&#45;proxy.nix</text>
</g>
<!-- N2&#45;&gt;N46 -->
<g id="edge48" class="edge">
<title>N2&#45;&gt;N46</title>
<path fill="none" stroke="#6c757d" d="M222.23,-3790.6C235.88,-3562.98 371.62,-1300 371.62,-1300 371.62,-1300 388.79,-1295.87 410.17,-1290.72"/>
<polygon fill="#6c757d" stroke="#6c757d" points="410.51,-1293.16 416.74,-1289.14 409.36,-1288.4 410.51,-1293.16"/>
</g>
<!-- N47 -->
<g id="node48" class="node">
<title>N47</title>
<path fill="#f8f9fa" stroke="#ced4da" d="M525.5,-1347C525.5,-1347 460.75,-1347 460.75,-1347 454.75,-1347 448.75,-1341 448.75,-1335 448.75,-1335 448.75,-1323 448.75,-1323 448.75,-1317 454.75,-1311 460.75,-1311 460.75,-1311 525.5,-1311 525.5,-1311 531.5,-1311 537.5,-1317 537.5,-1323 537.5,-1323 537.5,-1335 537.5,-1335 537.5,-1341 531.5,-1347 525.5,-1347"/>
<text text-anchor="middle" x="493.12" y="-1326.62" font-family="Helvetica,Arial,sans-serif" font-size="10.00" fill="#212529">📄 gluetun.nix</text>
</g>
<!-- N2&#45;&gt;N47 -->
<g id="edge49" class="edge">
<title>N2&#45;&gt;N47</title>
<path fill="none" stroke="#6c757d" d="M222.25,-3790.68C236.02,-3566.39 371.62,-1358 371.62,-1358 371.62,-1358 407.49,-1349.37 440.09,-1341.52"/>
<polygon fill="#6c757d" stroke="#6c757d" points="440.58,-1343.93 446.81,-1339.91 439.43,-1339.16 440.58,-1343.93"/>
</g>
<!-- N48 -->
<g id="node49" class="node">
<title>N48</title>
<path fill="#f8f9fa" stroke="#ced4da" d="M519.12,-1405C519.12,-1405 467.12,-1405 467.12,-1405 461.12,-1405 455.12,-1399 455.12,-1393 455.12,-1393 455.12,-1381 455.12,-1381 455.12,-1375 461.12,-1369 467.12,-1369 467.12,-1369 519.12,-1369 519.12,-1369 525.12,-1369 531.12,-1375 531.12,-1381 531.12,-1381 531.12,-1393 531.12,-1393 531.12,-1399 525.12,-1405 519.12,-1405"/>
<text text-anchor="middle" x="493.12" y="-1384.62" font-family="Helvetica,Arial,sans-serif" font-size="10.00" fill="#212529">📄 lldap.nix</text>
</g>
<!-- N2&#45;&gt;N48 -->
<g id="edge50" class="edge">
<title>N2&#45;&gt;N48</title>
<path fill="none" stroke="#6c757d" d="M222.29,-3790.67C236.3,-3570.82 371.62,-1447 371.62,-1447 371.62,-1447 413.42,-1426.19 447.79,-1409.08"/>
<polygon fill="#6c757d" stroke="#6c757d" points="448.46,-1411.48 453.63,-1406.17 446.27,-1407.09 448.46,-1411.48"/>
</g>
<!-- N53 -->
<g id="node54" class="node">
<title>N53</title>
<path fill="#f8f9fa" stroke="#ced4da" d="M524.38,-607C524.38,-607 461.88,-607 461.88,-607 455.88,-607 449.88,-601 449.88,-595 449.88,-595 449.88,-583 449.88,-583 449.88,-577 455.88,-571 461.88,-571 461.88,-571 524.38,-571 524.38,-571 530.38,-571 536.38,-577 536.38,-583 536.38,-583 536.38,-595 536.38,-595 536.38,-601 530.38,-607 524.38,-607"/>
<text text-anchor="middle" x="493.12" y="-586.62" font-family="Helvetica,Arial,sans-serif" font-size="10.00" fill="#212529">📄 default.nix</text>
</g>
<!-- N2&#45;&gt;N53 -->
<g id="edge51" class="edge">
<title>N2&#45;&gt;N53</title>
<path fill="none" stroke="#6c757d" d="M221.99,-3790.84C234.2,-3534.42 371.62,-649 371.62,-649 371.62,-649 413.42,-628.19 447.79,-611.08"/>
<polygon fill="#6c757d" stroke="#6c757d" points="448.46,-613.48 453.63,-608.17 446.27,-609.09 448.46,-613.48"/>
</g>
<!-- N58 -->
<g id="node59" class="node">
<title>N58</title>
<path fill="#f8f9fa" stroke="#ced4da" d="M518.75,-861C518.75,-861 467.5,-861 467.5,-861 461.5,-861 455.5,-855 455.5,-849 455.5,-849 455.5,-837 455.5,-837 455.5,-831 461.5,-825 467.5,-825 467.5,-825 518.75,-825 518.75,-825 524.75,-825 530.75,-831 530.75,-837 530.75,-837 530.75,-849 530.75,-849 530.75,-855 524.75,-861 518.75,-861"/>
<text text-anchor="middle" x="493.12" y="-840.62" font-family="Helvetica,Arial,sans-serif" font-size="10.00" fill="#212529">📄 base.nix</text>
</g>
<!-- N2&#45;&gt;N58 -->
<g id="edge52" class="edge">
<title>N2&#45;&gt;N58</title>
<path fill="none" stroke="#6c757d" d="M222.07,-3790.63C234.76,-3542.84 371.62,-872 371.62,-872 371.62,-872 412.98,-862.05 447.24,-853.8"/>
<polygon fill="#6c757d" stroke="#6c757d" points="447.61,-856.23 453.84,-852.21 446.47,-851.47 447.61,-856.23"/>
</g>
<!-- N59 -->
<g id="node60" class="node">
<title>N59</title>
<path fill="#f8f9fa" stroke="#ced4da" d="M522.12,-919C522.12,-919 464.12,-919 464.12,-919 458.12,-919 452.12,-913 452.12,-907 452.12,-907 452.12,-895 452.12,-895 452.12,-889 458.12,-883 464.12,-883 464.12,-883 522.12,-883 522.12,-883 528.12,-883 534.12,-889 534.12,-895 534.12,-895 534.12,-907 534.12,-907 534.12,-913 528.12,-919 522.12,-919"/>
<text text-anchor="middle" x="493.12" y="-898.62" font-family="Helvetica,Arial,sans-serif" font-size="10.00" fill="#212529">📄 server.nix</text>
</g>
<!-- N2&#45;&gt;N59 -->
<g id="edge53" class="edge">
<title>N2&#45;&gt;N59</title>
<path fill="none" stroke="#6c757d" d="M222.09,-3790.81C234.9,-3548.26 371.62,-961 371.62,-961 371.62,-961 413.42,-940.19 447.79,-923.08"/>
<polygon fill="#6c757d" stroke="#6c757d" points="448.46,-925.48 453.63,-920.17 446.27,-921.09 448.46,-925.48"/>
</g>
<!-- N61 -->
<g id="node62" class="node">
<title>N61</title>
<path fill="#f8f9fa" stroke="#ced4da" d="M524.38,-705C524.38,-705 461.88,-705 461.88,-705 455.88,-705 449.88,-699 449.88,-693 449.88,-693 449.88,-681 449.88,-681 449.88,-675 455.88,-669 461.88,-669 461.88,-669 524.38,-669 524.38,-669 530.38,-669 536.38,-675 536.38,-681 536.38,-681 536.38,-693 536.38,-693 536.38,-699 530.38,-705 524.38,-705"/>
<text text-anchor="middle" x="493.12" y="-684.62" font-family="Helvetica,Arial,sans-serif" font-size="10.00" fill="#212529">📄 default.nix</text>
</g>
<!-- N2&#45;&gt;N61 -->
<g id="edge54" class="edge">
<title>N2&#45;&gt;N61</title>
<path fill="none" stroke="#6c757d" d="M222.03,-3790.63C234.48,-3537.22 371.62,-747 371.62,-747 371.62,-747 413.42,-726.19 447.79,-709.08"/>
<polygon fill="#6c757d" stroke="#6c757d" points="448.46,-711.48 453.63,-706.17 446.27,-707.09 448.46,-711.48"/>
</g>
<!-- N62 -->
<g id="node63" class="node">
<title>N62</title>
<path fill="#f8f9fa" stroke="#ced4da" d="M524.38,-1017C524.38,-1017 461.88,-1017 461.88,-1017 455.88,-1017 449.88,-1011 449.88,-1005 449.88,-1005 449.88,-993 449.88,-993 449.88,-987 455.88,-981 461.88,-981 461.88,-981 524.38,-981 524.38,-981 530.38,-981 536.38,-987 536.38,-993 536.38,-993 536.38,-1005 536.38,-1005 536.38,-1011 530.38,-1017 524.38,-1017"/>
<text text-anchor="middle" x="493.12" y="-996.62" font-family="Helvetica,Arial,sans-serif" font-size="10.00" fill="#212529">📄 default.nix</text>
</g>
<!-- N2&#45;&gt;N62 -->
<g id="edge55" class="edge">
<title>N2&#45;&gt;N62</title>
<path fill="none" stroke="#6c757d" d="M222.13,-3790.71C235.18,-3552.11 371.62,-1059 371.62,-1059 371.62,-1059 413.42,-1038.19 447.79,-1021.08"/>
<polygon fill="#6c757d" stroke="#6c757d" points="448.46,-1023.48 453.63,-1018.17 446.27,-1019.09 448.46,-1023.48"/>
</g>
<!-- N50 -->
<g id="node51" class="node">
<title>N50</title>
<path fill="#f8f9fa" stroke="#ced4da" d="M563.75,-353C563.75,-353 422.5,-353 422.5,-353 416.5,-353 410.5,-347 410.5,-341 410.5,-341 410.5,-329 410.5,-329 410.5,-323 416.5,-317 422.5,-317 422.5,-317 563.75,-317 563.75,-317 569.75,-317 575.75,-323 575.75,-329 575.75,-329 575.75,-341 575.75,-341 575.75,-347 569.75,-353 563.75,-353"/>
<text text-anchor="middle" x="493.12" y="-332.62" font-family="Helvetica,Arial,sans-serif" font-size="10.00" fill="#212529">📄 hardware&#45;configuration.nix</text>
</g>
<!-- N49&#45;&gt;N50 -->
<g id="edge56" class="edge">
<title>N49&#45;&gt;N50</title>
<path fill="none" stroke="#6c757d" d="M278.27,-335C314.08,-335 361.02,-335 401.79,-335"/>
<polygon fill="#6c757d" stroke="#6c757d" points="401.61,-337.45 408.61,-335 401.61,-332.55 401.61,-337.45"/>
</g>
<!-- N49&#45;&gt;N53 -->
<g id="edge57" class="edge">
<title>N49&#45;&gt;N53</title>
<path fill="none" stroke="#6c757d" d="M233.7,-353.21C269.87,-405.61 371.62,-553 371.62,-553 371.62,-553 408.76,-564.09 441.8,-573.96"/>
<polygon fill="#6c757d" stroke="#6c757d" points="440.78,-576.22 448.19,-575.87 442.19,-571.52 440.78,-576.22"/>
</g>
<!-- N54 -->
<g id="node55" class="node">
<title>N54</title>
<path fill="#f8f9fa" stroke="#ced4da" d="M524.38,-451C524.38,-451 461.88,-451 461.88,-451 455.88,-451 449.88,-445 449.88,-439 449.88,-439 449.88,-427 449.88,-427 449.88,-421 455.88,-415 461.88,-415 461.88,-415 524.38,-415 524.38,-415 530.38,-415 536.38,-421 536.38,-427 536.38,-427 536.38,-439 536.38,-439 536.38,-445 530.38,-451 524.38,-451"/>
<text text-anchor="middle" x="493.12" y="-430.62" font-family="Helvetica,Arial,sans-serif" font-size="10.00" fill="#212529">📄 default.nix</text>
</g>
<!-- N49&#45;&gt;N54 -->
<g id="edge58" class="edge">
<title>N49&#45;&gt;N54</title>
<path fill="none" stroke="#6c757d" d="M265.87,-353.43C310.24,-371.71 371.62,-397 371.62,-397 371.62,-397 408.76,-408.09 441.8,-417.96"/>
<polygon fill="#6c757d" stroke="#6c757d" points="440.78,-420.22 448.19,-419.87 442.19,-415.52 440.78,-420.22"/>
</g>
<!-- N55 -->
<g id="node56" class="node">
<title>N55</title>
<path fill="#f8f9fa" stroke="#ced4da" d="M530.38,-509C530.38,-509 455.88,-509 455.88,-509 449.88,-509 443.88,-503 443.88,-497 443.88,-497 443.88,-485 443.88,-485 443.88,-479 449.88,-473 455.88,-473 455.88,-473 530.38,-473 530.38,-473 536.38,-473 542.38,-479 542.38,-485 542.38,-485 542.38,-497 542.38,-497 542.38,-503 536.38,-509 530.38,-509"/>
<text text-anchor="middle" x="493.12" y="-488.62" font-family="Helvetica,Arial,sans-serif" font-size="10.00" fill="#212529">📄 minecraft.nix</text>
</g>
<!-- N49&#45;&gt;N55 -->
<g id="edge59" class="edge">
<title>N49&#45;&gt;N55</title>
<path fill="none" stroke="#6c757d" d="M243.01,-353.47C284.75,-388.69 371.62,-462 371.62,-462 371.62,-462 404.25,-469.85 435.55,-477.38"/>
<polygon fill="#6c757d" stroke="#6c757d" points="434.61,-479.68 441.99,-478.93 435.76,-474.91 434.61,-479.68"/>
</g>
<!-- N56 -->
<g id="node57" class="node">
<title>N56</title>
<path fill="#f8f9fa" stroke="#ced4da" d="M524.38,-157C524.38,-157 461.88,-157 461.88,-157 455.88,-157 449.88,-151 449.88,-145 449.88,-145 449.88,-133 449.88,-133 449.88,-127 455.88,-121 461.88,-121 461.88,-121 524.38,-121 524.38,-121 530.38,-121 536.38,-127 536.38,-133 536.38,-133 536.38,-145 536.38,-145 536.38,-151 530.38,-157 524.38,-157"/>
<text text-anchor="middle" x="493.12" y="-136.62" font-family="Helvetica,Arial,sans-serif" font-size="10.00" fill="#212529">📄 default.nix</text>
</g>
<!-- N49&#45;&gt;N56 -->
<g id="edge60" class="edge">
<title>N49&#45;&gt;N56</title>
<path fill="none" stroke="#6c757d" d="M241.42,-316.66C282.5,-279.54 371.62,-199 371.62,-199 371.62,-199 413.42,-178.19 447.79,-161.08"/>
<polygon fill="#6c757d" stroke="#6c757d" points="448.46,-163.48 453.63,-158.17 446.27,-159.09 448.46,-163.48"/>
</g>
<!-- N49&#45;&gt;N58 -->
<g id="edge61" class="edge">
<title>N49&#45;&gt;N58</title>
<path fill="none" stroke="#6c757d" d="M226.93,-353.48C254.59,-441.51 371.62,-814 371.62,-814 371.62,-814 412.98,-823.95 447.24,-832.2"/>
<polygon fill="#6c757d" stroke="#6c757d" points="446.47,-834.53 453.84,-833.79 447.61,-829.77 446.47,-834.53"/>
</g>
<!-- N60 -->
<g id="node61" class="node">
<title>N60</title>
<path fill="#f8f9fa" stroke="#ced4da" d="M521.75,-803C521.75,-803 464.5,-803 464.5,-803 458.5,-803 452.5,-797 452.5,-791 452.5,-791 452.5,-779 452.5,-779 452.5,-773 458.5,-767 464.5,-767 464.5,-767 521.75,-767 521.75,-767 527.75,-767 533.75,-773 533.75,-779 533.75,-779 533.75,-791 533.75,-791 533.75,-797 527.75,-803 521.75,-803"/>
<text text-anchor="middle" x="493.12" y="-782.62" font-family="Helvetica,Arial,sans-serif" font-size="10.00" fill="#212529">📄 sound.nix</text>
</g>
<!-- N49&#45;&gt;N60 -->
<g id="edge62" class="edge">
<title>N49&#45;&gt;N60</title>
<path fill="none" stroke="#6c757d" d="M227.79,-353.32C256.91,-433.44 371.62,-749 371.62,-749 371.62,-749 410.47,-760.6 444.05,-770.64"/>
<polygon fill="#6c757d" stroke="#6c757d" points="443.14,-772.92 450.55,-772.58 444.54,-768.23 443.14,-772.92"/>
</g>
<!-- N49&#45;&gt;N61 -->
<g id="edge63" class="edge">
<title>N49&#45;&gt;N61</title>
<path fill="none" stroke="#6c757d" d="M229.87,-353.36C261.99,-420.8 371.62,-651 371.62,-651 371.62,-651 408.76,-662.09 441.8,-671.96"/>
<polygon fill="#6c757d" stroke="#6c757d" points="440.78,-674.22 448.19,-673.87 442.19,-669.52 440.78,-674.22"/>
</g>
<!-- N64 -->
<g id="node65" class="node">
<title>N64</title>
<path fill="#f8f9fa" stroke="#ced4da" d="M524.38,-255C524.38,-255 461.88,-255 461.88,-255 455.88,-255 449.88,-249 449.88,-243 449.88,-243 449.88,-231 449.88,-231 449.88,-225 455.88,-219 461.88,-219 461.88,-219 524.38,-219 524.38,-219 530.38,-219 536.38,-225 536.38,-231 536.38,-231 536.38,-243 536.38,-243 536.38,-249 530.38,-255 524.38,-255"/>
<text text-anchor="middle" x="493.12" y="-234.62" font-family="Helvetica,Arial,sans-serif" font-size="10.00" fill="#212529">📄 default.nix</text>
</g>
<!-- N49&#45;&gt;N64 -->
<g id="edge64" class="edge">
<title>N49&#45;&gt;N64</title>
<path fill="none" stroke="#6c757d" d="M272.1,-316.57C320.61,-299.02 393.18,-272.78 441.56,-255.29"/>
<polygon fill="#6c757d" stroke="#6c757d" points="442.23,-257.65 447.98,-252.96 440.56,-253.04 442.23,-257.65"/>
</g>
<!-- N52 -->
<g id="node53" class="node">
<title>N52</title>
<path fill="#f8f9fa" stroke="#ced4da" d="M563.75,-59C563.75,-59 422.5,-59 422.5,-59 416.5,-59 410.5,-53 410.5,-47 410.5,-47 410.5,-35 410.5,-35 410.5,-29 416.5,-23 422.5,-23 422.5,-23 563.75,-23 563.75,-23 569.75,-23 575.75,-29 575.75,-35 575.75,-35 575.75,-47 575.75,-47 575.75,-53 569.75,-59 563.75,-59"/>
<text text-anchor="middle" x="493.12" y="-38.62" font-family="Helvetica,Arial,sans-serif" font-size="10.00" fill="#212529">📄 hardware&#45;configuration.nix</text>
</g>
<!-- N51&#45;&gt;N52 -->
<g id="edge65" class="edge">
<title>N51&#45;&gt;N52</title>
<path fill="none" stroke="#6c757d" d="M278.27,-41C314.08,-41 361.02,-41 401.79,-41"/>
<polygon fill="#6c757d" stroke="#6c757d" points="401.61,-43.45 408.61,-41 401.61,-38.55 401.61,-43.45"/>
</g>
<!-- N51&#45;&gt;N53 -->
<g id="edge66" class="edge">
<title>N51&#45;&gt;N53</title>
<path fill="none" stroke="#6c757d" d="M226.48,-59.22C253.29,-150.43 371.62,-553 371.62,-553 371.62,-553 408.76,-564.09 441.8,-573.96"/>
<polygon fill="#6c757d" stroke="#6c757d" points="440.78,-576.22 448.19,-575.87 442.19,-571.52 440.78,-576.22"/>
</g>
<!-- N51&#45;&gt;N56 -->
<g id="edge67" class="edge">
<title>N51&#45;&gt;N56</title>
<path fill="none" stroke="#6c757d" d="M265.87,-59.43C310.24,-77.71 371.62,-103 371.62,-103 371.62,-103 408.76,-114.09 441.8,-123.96"/>
<polygon fill="#6c757d" stroke="#6c757d" points="440.78,-126.22 448.19,-125.87 442.19,-121.52 440.78,-126.22"/>
</g>
<!-- N51&#45;&gt;N58 -->
<g id="edge68" class="edge">
<title>N51&#45;&gt;N58</title>
<path fill="none" stroke="#6c757d" d="M226.44,-59.41C243.38,-118.11 295,-297 295,-297 295,-297 371.62,-814 371.62,-814 371.62,-814 412.98,-823.95 447.24,-832.2"/>
<polygon fill="#6c757d" stroke="#6c757d" points="446.47,-834.53 453.84,-833.79 447.61,-829.77 446.47,-834.53"/>
</g>
<!-- N51&#45;&gt;N60 -->
<g id="edge69" class="edge">
<title>N51&#45;&gt;N60</title>
<path fill="none" stroke="#6c757d" d="M226.44,-59.41C243.38,-118.11 295,-297 295,-297 295,-297 371.62,-749 371.62,-749 371.62,-749 410.47,-760.6 444.05,-770.64"/>
<polygon fill="#6c757d" stroke="#6c757d" points="443.14,-772.92 450.55,-772.58 444.54,-768.23 443.14,-772.92"/>
</g>
<!-- N51&#45;&gt;N61 -->
<g id="edge70" class="edge">
<title>N51&#45;&gt;N61</title>
<path fill="none" stroke="#6c757d" d="M226.44,-59.41C243.38,-118.11 295,-297 295,-297 295,-297 371.62,-651 371.62,-651 371.62,-651 408.76,-662.09 441.8,-671.96"/>
<polygon fill="#6c757d" stroke="#6c757d" points="440.78,-674.22 448.19,-673.87 442.19,-669.52 440.78,-674.22"/>
</g>
<!-- N51&#45;&gt;N64 -->
<g id="edge71" class="edge">
<title>N51&#45;&gt;N64</title>
<path fill="none" stroke="#6c757d" d="M238.39,-59.35C277.92,-101.38 371.62,-201 371.62,-201 371.62,-201 408.76,-212.09 441.8,-221.96"/>
<polygon fill="#6c757d" stroke="#6c757d" points="440.78,-224.22 448.19,-223.87 442.19,-219.52 440.78,-224.22"/>
</g>
<!-- N57 -->
<g id="node58" class="node">
<title>N57</title>
<path fill="#f8f9fa" stroke="#ced4da" d="M806.88,-861C806.88,-861 698.62,-861 698.62,-861 692.62,-861 686.62,-855 686.62,-849 686.62,-849 686.62,-837 686.62,-837 686.62,-831 692.62,-825 698.62,-825 698.62,-825 806.88,-825 806.88,-825 812.88,-825 818.88,-831 818.88,-837 818.88,-837 818.88,-849 818.88,-849 818.88,-855 812.88,-861 806.88,-861"/>
<text text-anchor="middle" x="752.75" y="-840.62" font-family="Helvetica,Arial,sans-serif" font-size="10.00" fill="#212529">📄 architecture&#45;dag.nix</text>
</g>
<!-- N58&#45;&gt;N57 -->
<g id="edge72" class="edge">
<title>N58&#45;&gt;N57</title>
<path fill="none" stroke="#6c757d" d="M531.04,-843C569.16,-843 629.71,-843 677.75,-843"/>
<polygon fill="#6c757d" stroke="#6c757d" points="677.75,-845.45 684.75,-843 677.75,-840.55 677.75,-845.45"/>
</g>
<!-- N63 -->
<g id="node64" class="node">
<title>N63</title>
<path fill="#f8f9fa" stroke="#ced4da" d="M780.62,-1017C780.62,-1017 724.88,-1017 724.88,-1017 718.88,-1017 712.88,-1011 712.88,-1005 712.88,-1005 712.88,-993 712.88,-993 712.88,-987 718.88,-981 724.88,-981 724.88,-981 780.62,-981 780.62,-981 786.62,-981 792.62,-987 792.62,-993 792.62,-993 792.62,-1005 792.62,-1005 792.62,-1011 786.62,-1017 780.62,-1017"/>
<text text-anchor="middle" x="752.75" y="-996.62" font-family="Helvetica,Arial,sans-serif" font-size="10.00" fill="#212529">📄 home.nix</text>
</g>
<!-- N62&#45;&gt;N63 -->
<g id="edge73" class="edge">
<title>N62&#45;&gt;N63</title>
<path fill="none" stroke="#6c757d" d="M536.67,-999C582.78,-999 656.18,-999 704.17,-999"/>
<polygon fill="#6c757d" stroke="#6c757d" points="704.01,-1001.45 711.01,-999 704.01,-996.55 704.01,-1001.45"/>
</g>
<!-- N65 -->
<g id="node66" class="node">
<title>N65</title>
<path fill="#f8f9fa" stroke="#ced4da" d="M780.62,-255C780.62,-255 724.88,-255 724.88,-255 718.88,-255 712.88,-249 712.88,-243 712.88,-243 712.88,-231 712.88,-231 712.88,-225 718.88,-219 724.88,-219 724.88,-219 780.62,-219 780.62,-219 786.62,-219 792.62,-225 792.62,-231 792.62,-231 792.62,-243 792.62,-243 792.62,-249 786.62,-255 780.62,-255"/>
<text text-anchor="middle" x="752.75" y="-234.62" font-family="Helvetica,Arial,sans-serif" font-size="10.00" fill="#212529">📄 home.nix</text>
</g>
<!-- N64&#45;&gt;N65 -->
<g id="edge74" class="edge">
<title>N64&#45;&gt;N65</title>
<path fill="none" stroke="#6c757d" d="M536.67,-237C582.78,-237 656.18,-237 704.17,-237"/>
<polygon fill="#6c757d" stroke="#6c757d" points="704.01,-239.45 711.01,-237 704.01,-234.55 704.01,-239.45"/>
</g>
</g>
</svg>
