<?xml version="1.0" encoding="UTF-8" standalone="no"?>
<!DOCTYPE svg PUBLIC "-//W3C//DTD SVG 1.1//EN"
 "http://www.w3.org/Graphics/SVG/1.1/DTD/svg11.dtd">
<!-- Generated by graphviz version 12.2.1 (0)
 -->
<!-- Title: NixOS Pages: 1 -->
<svg width="850pt" height="4096pt"
 viewBox="0.00 0.00 849.88 4096.00" xmlns="http://www.w3.org/2000/svg" xmlns:xlink="http://www.w3.org/1999/xlink">
<g id="graph0" class="graph" transform="scale(1 1) rotate(0) translate(4 4092)">
<title>NixOS</title>
<polygon fill="white" stroke="none" points="-4,4 -4,-4092 845.88,-4092 845.88,4 -4,4"/>
<g id="clust1" class="cluster">
<title>cluster_hosts_devcontainer</title>
<path fill="#e9ecef" stroke="#adb5bd" d="M158.25,-3990C158.25,-3990 283,-3990 283,-3990 289,-3990 295,-3996 295,-4002 295,-4002 295,-4068 295,-4068 295,-4074 289,-4080 283,-4080 283,-4080 158.25,-4080 158.25,-4080 152.25,-4080 146.25,-4074 146.25,-4068 146.25,-4068 146.25,-4002 146.25,-4002 146.25,-3996 152.25,-3990 158.25,-3990"/>
<text text-anchor="middle" x="220.62" y="-4064.6" font-family="Helvetica,sans-Serif" font-weight="bold" font-size="12.00" fill="#495057">📁 hosts/devcontainer</text>
</g>
<g id="clust2" class="cluster">
<title>cluster_hosts_homelab</title>
<path fill="#e9ecef" stroke="#adb5bd" d="M159.25,-3834C159.25,-3834 578.75,-3834 578.75,-3834 584.75,-3834 590.75,-3840 590.75,-3846 590.75,-3846 590.75,-3970 590.75,-3970 590.75,-3976 584.75,-3982 578.75,-3982 578.75,-3982 159.25,-3982 159.25,-3982 153.25,-3982 147.25,-3976 147.25,-3970 147.25,-3970 147.25,-3846 147.25,-3846 147.25,-3840 153.25,-3834 159.25,-3834"/>
<text text-anchor="middle" x="369" y="-3966.6" font-family="Helvetica,sans-Serif" font-weight="bold" font-size="12.00" fill="#495057">📁 hosts/homelab</text>
</g>
<g id="clust3" class="cluster">
<title>cluster_hosts_homelab_services_media</title>
<path fill="#e9ecef" stroke="#adb5bd" d="M397.5,-2924C397.5,-2924 589.75,-2924 589.75,-2924 595.75,-2924 601.75,-2930 601.75,-2936 601.75,-2936 601.75,-3814 601.75,-3814 601.75,-3820 595.75,-3826 589.75,-3826 589.75,-3826 397.5,-3826 397.5,-3826 391.5,-3826 385.5,-3820 385.5,-3814 385.5,-3814 385.5,-2936 385.5,-2936 385.5,-2930 391.5,-2924 397.5,-2924"/>
<text text-anchor="middle" x="493.62" y="-3810.6" font-family="Helvetica,sans-Serif" font-weight="bold" font-size="12.00" fill="#495057">📁 hosts/homelab/services/media</text>
</g>
<g id="clust4" class="cluster">
<title>cluster_hosts_homelab_services_monitoring</title>
<path fill="#e9ecef" stroke="#adb5bd" d="M383.62,-2304C383.62,-2304 603.62,-2304 603.62,-2304 609.62,-2304 615.62,-2310 615.62,-2316 615.62,-2316 615.62,-2904 615.62,-2904 615.62,-2910 609.62,-2916 603.62,-2916 603.62,-2916 383.62,-2916 383.62,-2916 377.62,-2916 371.62,-2910 371.62,-2904 371.62,-2904 371.62,-2316 371.62,-2316 371.62,-2310 377.62,-2304 383.62,-2304"/>
<text text-anchor="middle" x="493.62" y="-2900.6" font-family="Helvetica,sans-Serif" font-weight="bold" font-size="12.00" fill="#495057">📁 hosts/homelab/services/monitoring</text>
</g>
<g id="clust5" class="cluster">
<title>cluster_hosts_homelab_services_random</title>
<path fill="#e9ecef" stroke="#adb5bd" d="M392.62,-1452C392.62,-1452 594.62,-1452 594.62,-1452 600.62,-1452 606.62,-1458 606.62,-1464 606.62,-1464 606.62,-2284 606.62,-2284 606.62,-2290 600.62,-2296 594.62,-2296 594.62,-2296 392.62,-2296 392.62,-2296 386.62,-2296 380.62,-2290 380.62,-2284 380.62,-2284 380.62,-1464 380.62,-1464 380.62,-1458 386.62,-1452 392.62,-1452"/>
<text text-anchor="middle" x="493.62" y="-2280.6" font-family="Helvetica,sans-Serif" font-weight="bold" font-size="12.00" fill="#495057">📁 hosts/homelab/services/random</text>
</g>
<g id="clust6" class="cluster">
<title>cluster_hosts_homelab_services_security</title>
<path fill="#e9ecef" stroke="#adb5bd" d="M392.62,-1064C392.62,-1064 594.62,-1064 594.62,-1064 600.62,-1064 606.62,-1070 606.62,-1076 606.62,-1076 606.62,-1432 606.62,-1432 606.62,-1438 600.62,-1444 594.62,-1444 594.62,-1444 392.62,-1444 392.62,-1444 386.62,-1444 380.62,-1438 380.62,-1432 380.62,-1432 380.62,-1076 380.62,-1076 380.62,-1070 386.62,-1064 392.62,-1064"/>
<text text-anchor="middle" x="493.62" y="-1428.6" font-family="Helvetica,sans-Serif" font-weight="bold" font-size="12.00" fill="#495057">📁 hosts/homelab/services/security</text>
</g>
<g id="clust7" class="cluster">
<title>cluster_hosts_perso</title>
<path fill="#e9ecef" stroke="#adb5bd" d="M159.25,-302C159.25,-302 578.75,-302 578.75,-302 584.75,-302 590.75,-308 590.75,-314 590.75,-314 590.75,-380 590.75,-380 590.75,-386 584.75,-392 578.75,-392 578.75,-392 159.25,-392 159.25,-392 153.25,-392 147.25,-386 147.25,-380 147.25,-380 147.25,-314 147.25,-314 147.25,-308 153.25,-302 159.25,-302"/>
<text text-anchor="middle" x="369" y="-376.6" font-family="Helvetica,sans-Serif" font-weight="bold" font-size="12.00" fill="#495057">📁 hosts/perso</text>
</g>
<g id="clust8" class="cluster">
<title>cluster_hosts_portable</title>
<path fill="#e9ecef" stroke="#adb5bd" d="M159.25,-8C159.25,-8 578.75,-8 578.75,-8 584.75,-8 590.75,-14 590.75,-20 590.75,-20 590.75,-86 590.75,-86 590.75,-92 584.75,-98 578.75,-98 578.75,-98 159.25,-98 159.25,-98 153.25,-98 147.25,-92 147.25,-86 147.25,-86 147.25,-20 147.25,-20 147.25,-14 153.25,-8 159.25,-8"/>
<text text-anchor="middle" x="369" y="-82.6" font-family="Helvetica,sans-Serif" font-weight="bold" font-size="12.00" fill="#495057">📁 hosts/portable</text>
</g>
<g id="clust9" class="cluster">
<title>cluster_modules_dev</title>
<path fill="#e9ecef" stroke="#adb5bd" d="M446.88,-556C446.88,-556 539.38,-556 539.38,-556 545.38,-556 551.38,-562 551.38,-568 551.38,-568 551.38,-634 551.38,-634 551.38,-640 545.38,-646 539.38,-646 539.38,-646 446.88,-646 446.88,-646 440.88,-646 434.88,-640 434.88,-634 434.88,-634 434.88,-568 434.88,-568 434.88,-562 440.88,-556 446.88,-556"/>
<text text-anchor="middle" x="493.12" y="-630.6" font-family="Helvetica,sans-Serif" font-weight="bold" font-size="12.00" fill="#495057">📁 modules/dev</text>
</g>
<g id="clust10" class="cluster">
<title>cluster_modules_gaming</title>
<path fill="#e9ecef" stroke="#adb5bd" d="M438.38,-400C438.38,-400 548.88,-400 548.88,-400 554.88,-400 560.88,-406 560.88,-412 560.88,-412 560.88,-536 560.88,-536 560.88,-542 554.88,-548 548.88,-548 548.88,-548 438.38,-548 438.38,-548 432.38,-548 426.38,-542 426.38,-536 426.38,-536 426.38,-412 426.38,-412 426.38,-406 432.38,-400 438.38,-400"/>
<text text-anchor="middle" x="493.62" y="-532.6" font-family="Helvetica,sans-Serif" font-weight="bold" font-size="12.00" fill="#495057">📁 modules/gaming</text>
</g>
<g id="clust11" class="cluster">
<title>cluster_modules_hyprland</title>
<path fill="#e9ecef" stroke="#adb5bd" d="M434.62,-106C434.62,-106 552.62,-106 552.62,-106 558.62,-106 564.62,-112 564.62,-118 564.62,-118 564.62,-184 564.62,-184 564.62,-190 558.62,-196 552.62,-196 552.62,-196 434.62,-196 434.62,-196 428.62,-196 422.62,-190 422.62,-184 422.62,-184 422.62,-118 422.62,-118 422.62,-112 428.62,-106 434.62,-106"/>
<text text-anchor="middle" x="493.62" y="-180.6" font-family="Helvetica,sans-Serif" font-weight="bold" font-size="12.00" fill="#495057">📁 modules/hyprland</text>
</g>
<g id="clust12" class="cluster">
<title>cluster_modules_nixos</title>
<path fill="#e9ecef" stroke="#adb5bd" d="M449.12,-752C449.12,-752 821.88,-752 821.88,-752 827.88,-752 833.88,-758 833.88,-764 833.88,-764 833.88,-946 833.88,-946 833.88,-952 827.88,-958 821.88,-958 821.88,-958 449.12,-958 449.12,-958 443.12,-958 437.12,-952 437.12,-946 437.12,-946 437.12,-764 437.12,-764 437.12,-758 443.12,-752 449.12,-752"/>
<text text-anchor="middle" x="635.5" y="-942.6" font-family="Helvetica,sans-Serif" font-weight="bold" font-size="12.00" fill="#495057">📁 modules/nixos</text>
</g>
<g id="clust13" class="cluster">
<title>cluster_modules_terminal</title>
<path fill="#e9ecef" stroke="#adb5bd" d="M436.12,-654C436.12,-654 551.12,-654 551.12,-654 557.12,-654 563.12,-660 563.12,-666 563.12,-666 563.12,-732 563.12,-732 563.12,-738 557.12,-744 551.12,-744 551.12,-744 436.12,-744 436.12,-744 430.12,-744 424.12,-738 424.12,-732 424.12,-732 424.12,-666 424.12,-666 424.12,-660 430.12,-654 436.12,-654"/>
<text text-anchor="middle" x="493.62" y="-728.6" font-family="Helvetica,sans-Serif" font-weight="bold" font-size="12.00" fill="#495057">📁 modules/terminal</text>
</g>
<g id="clust14" class="cluster">
<title>cluster_users_arthur_homelab</title>
<path fill="#e9ecef" stroke="#adb5bd" d="M446.88,-966C446.88,-966 795.62,-966 795.62,-966 801.62,-966 807.62,-972 807.62,-978 807.62,-978 807.62,-1044 807.62,-1044 807.62,-1050 801.62,-1056 795.62,-1056 795.62,-1056 446.88,-1056 446.88,-1056 440.88,-1056 434.88,-1050 434.88,-1044 434.88,-1044 434.88,-978 434.88,-978 434.88,-972 440.88,-966 446.88,-966"/>
<text text-anchor="middle" x="621.25" y="-1040.6" font-family="Helvetica,sans-Serif" font-weight="bold" font-size="12.00" fill="#495057">📁 users/arthur&#45;homelab</text>
</g>
<g id="clust15" class="cluster">
<title>cluster_users_arthur_perso</title>
<path fill="#e9ecef" stroke="#adb5bd" d="M446.88,-204C446.88,-204 795.62,-204 795.62,-204 801.62,-204 807.62,-210 807.62,-216 807.62,-216 807.62,-282 807.62,-282 807.62,-288 801.62,-294 795.62,-294 795.62,-294 446.88,-294 446.88,-294 440.88,-294 434.88,-288 434.88,-282 434.88,-282 434.88,-216 434.88,-216 434.88,-210 440.88,-204 446.88,-204"/>
<text text-anchor="middle" x="621.25" y="-278.6" font-family="Helvetica,sans-Serif" font-weight="bold" font-size="12.00" fill="#495057">📁 users/arthur&#45;perso</text>
</g>
<!-- N0 -->
<g id="node1" class="node">
<title>N0</title>
<path fill="#f8f9fa" stroke="#ced4da" d="M63.25,-3885C63.25,-3885 12,-3885 12,-3885 6,-3885 0,-3879 0,-3873 0,-3873 0,-3861 0,-3861 0,-3855 6,-3849 12,-3849 12,-3849 63.25,-3849 63.25,-3849 69.25,-3849 75.25,-3855 75.25,-3861 75.25,-3861 75.25,-3873 75.25,-3873 75.25,-3879 69.25,-3885 63.25,-3885"/>
<text text-anchor="middle" x="37.62" y="-3864.62" font-family="Helvetica,Arial,sans-serif" font-size="10.00" fill="#212529">📄 flake.nix</text>
</g>
<!-- N1 -->
<g id="node2" class="node">
<title>N1</title>
<path fill="#f8f9fa" stroke="#ced4da" d="M251.38,-4041C251.38,-4041 188.88,-4041 188.88,-4041 182.88,-4041 176.88,-4035 176.88,-4029 176.88,-4029 176.88,-4017 176.88,-4017 176.88,-4011 182.88,-4005 188.88,-4005 188.88,-4005 251.38,-4005 251.38,-4005 257.38,-4005 263.38,-4011 263.38,-4017 263.38,-4017 263.38,-4029 263.38,-4029 263.38,-4035 257.38,-4041 251.38,-4041"/>
<text text-anchor="middle" x="220.12" y="-4020.62" font-family="Helvetica,Arial,sans-serif" font-size="10.00" fill="#212529">📄 default.nix</text>
</g>
<!-- N0&#45;&gt;N1 -->
<g id="edge1" class="edge">
<title>N0&#45;&gt;N1</title>
<path fill="none" stroke="#6c757d" d="M55.21,-3885.49C85.4,-3919.15 146.25,-3987 146.25,-3987 146.25,-3987 159.29,-3993.44 174.33,-4000.87"/>
<polygon fill="#6c757d" stroke="#6c757d" points="173.12,-4003 180.48,-4003.91 175.29,-3998.61 173.12,-4003"/>
</g>
<!-- N2 -->
<g id="node3" class="node">
<title>N2</title>
<path fill="#f8f9fa" stroke="#ced4da" d="M266,-3885C266,-3885 174.25,-3885 174.25,-3885 168.25,-3885 162.25,-3879 162.25,-3873 162.25,-3873 162.25,-3861 162.25,-3861 162.25,-3855 168.25,-3849 174.25,-3849 174.25,-3849 266,-3849 266,-3849 272,-3849 278,-3855 278,-3861 278,-3861 278,-3873 278,-3873 278,-3879 272,-3885 266,-3885"/>
<text text-anchor="middle" x="220.12" y="-3864.62" font-family="Helvetica,Arial,sans-serif" font-size="10.00" fill="#212529">📄 configuration.nix</text>
</g>
<!-- N0&#45;&gt;N2 -->
<g id="edge2" class="edge">
<title>N0&#45;&gt;N2</title>
<path fill="none" stroke="#6c757d" d="M75.59,-3867C98.02,-3867 127.29,-3867 153.54,-3867"/>
<polygon fill="#6c757d" stroke="#6c757d" points="153.43,-3869.45 160.43,-3867 153.43,-3864.55 153.43,-3869.45"/>
</g>
<!-- N3 -->
<g id="node4" class="node">
<title>N3</title>
<path fill="#f8f9fa" stroke="#ced4da" d="M257.75,-3943C257.75,-3943 182.5,-3943 182.5,-3943 176.5,-3943 170.5,-3937 170.5,-3931 170.5,-3931 170.5,-3919 170.5,-3919 170.5,-3913 176.5,-3907 182.5,-3907 182.5,-3907 257.75,-3907 257.75,-3907 263.75,-3907 269.75,-3913 269.75,-3919 269.75,-3919 269.75,-3931 269.75,-3931 269.75,-3937 263.75,-3943 257.75,-3943"/>
<text text-anchor="middle" x="220.12" y="-3922.62" font-family="Helvetica,Arial,sans-serif" font-size="10.00" fill="#212529">📄 constants.nix</text>
</g>
<!-- N0&#45;&gt;N3 -->
<g id="edge3" class="edge">
<title>N0&#45;&gt;N3</title>
<path fill="none" stroke="#6c757d" d="M75.59,-3878.88C100.57,-3886.9 134.04,-3897.66 162.38,-3906.77"/>
<polygon fill="#6c757d" stroke="#6c757d" points="161.37,-3909.01 168.78,-3908.82 162.87,-3904.35 161.37,-3909.01"/>
</g>
<!-- N50 -->
<g id="node51" class="node">
<title>N50</title>
<path fill="#f8f9fa" stroke="#ced4da" d="M266,-353C266,-353 174.25,-353 174.25,-353 168.25,-353 162.25,-347 162.25,-341 162.25,-341 162.25,-329 162.25,-329 162.25,-323 168.25,-317 174.25,-317 174.25,-317 266,-317 266,-317 272,-317 278,-323 278,-329 278,-329 278,-341 278,-341 278,-347 272,-353 266,-353"/>
<text text-anchor="middle" x="220.12" y="-332.62" font-family="Helvetica,Arial,sans-serif" font-size="10.00" fill="#212529">📄 configuration.nix</text>
</g>
<!-- N0&#45;&gt;N50 -->
<g id="edge4" class="edge">
<title>N0&#45;&gt;N50</title>
<path fill="none" stroke="#6c757d" d="M39.55,-3848.84C52.72,-3591.1 201.9,-672.01 217.76,-361.67"/>
<polygon fill="#6c757d" stroke="#6c757d" points="220.2,-361.88 218.11,-354.76 215.31,-361.63 220.2,-361.88"/>
</g>
<!-- N52 -->
<g id="node53" class="node">
<title>N52</title>
<path fill="#f8f9fa" stroke="#ced4da" d="M266,-59C266,-59 174.25,-59 174.25,-59 168.25,-59 162.25,-53 162.25,-47 162.25,-47 162.25,-35 162.25,-35 162.25,-29 168.25,-23 174.25,-23 174.25,-23 266,-23 266,-23 272,-23 278,-29 278,-35 278,-35 278,-47 278,-47 278,-53 272,-59 266,-59"/>
<text text-anchor="middle" x="220.12" y="-38.62" font-family="Helvetica,Arial,sans-serif" font-size="10.00" fill="#212529">📄 configuration.nix</text>
</g>
<!-- N0&#45;&gt;N52 -->
<g id="edge5" class="edge">
<title>N0&#45;&gt;N52</title>
<path fill="none" stroke="#6c757d" d="M39.18,-3848.64C47.47,-3573.47 146.25,-297 146.25,-297 146.25,-297 193.08,-132.48 211.66,-67.22"/>
<polygon fill="#6c757d" stroke="#6c757d" points="213.91,-68.27 213.47,-60.87 209.2,-66.93 213.91,-68.27"/>
</g>
<!-- N4 -->
<g id="node5" class="node">
<title>N4</title>
<path fill="#f8f9fa" stroke="#ced4da" d="M563.75,-3885C563.75,-3885 422.5,-3885 422.5,-3885 416.5,-3885 410.5,-3879 410.5,-3873 410.5,-3873 410.5,-3861 410.5,-3861 410.5,-3855 416.5,-3849 422.5,-3849 422.5,-3849 563.75,-3849 563.75,-3849 569.75,-3849 575.75,-3855 575.75,-3861 575.75,-3861 575.75,-3873 575.75,-3873 575.75,-3879 569.75,-3885 563.75,-3885"/>
<text text-anchor="middle" x="493.12" y="-3864.62" font-family="Helvetica,Arial,sans-serif" font-size="10.00" fill="#212529">📄 hardware&#45;configuration.nix</text>
</g>
<!-- N2&#45;&gt;N4 -->
<g id="edge6" class="edge">
<title>N2&#45;&gt;N4</title>
<path fill="none" stroke="#6c757d" d="M278.27,-3867C314.08,-3867 361.02,-3867 401.79,-3867"/>
<polygon fill="#6c757d" stroke="#6c757d" points="401.61,-3869.45 408.61,-3867 401.61,-3864.55 401.61,-3869.45"/>
</g>
<!-- N5 -->
<g id="node6" class="node">
<title>N5</title>
<path fill="#f8f9fa" stroke="#ced4da" d="M522.5,-3207C522.5,-3207 463.75,-3207 463.75,-3207 457.75,-3207 451.75,-3201 451.75,-3195 451.75,-3195 451.75,-3183 451.75,-3183 451.75,-3177 457.75,-3171 463.75,-3171 463.75,-3171 522.5,-3171 522.5,-3171 528.5,-3171 534.5,-3177 534.5,-3183 534.5,-3183 534.5,-3195 534.5,-3195 534.5,-3201 528.5,-3207 522.5,-3207"/>
<text text-anchor="middle" x="493.12" y="-3186.62" font-family="Helvetica,Arial,sans-serif" font-size="10.00" fill="#212529">📄 ariang.nix</text>
</g>
<!-- N2&#45;&gt;N5 -->
<g id="edge7" class="edge">
<title>N2&#45;&gt;N5</title>
<path fill="none" stroke="#6c757d" d="M225.39,-3848.62C249.88,-3743.01 371.62,-3218 371.62,-3218 371.62,-3218 409.98,-3208.77 443.41,-3200.72"/>
<polygon fill="#6c757d" stroke="#6c757d" points="443.63,-3203.19 449.86,-3199.17 442.48,-3198.43 443.63,-3203.19"/>
</g>
<!-- N6 -->
<g id="node7" class="node">
<title>N6</title>
<path fill="#f8f9fa" stroke="#ced4da" d="M522.5,-3265C522.5,-3265 463.75,-3265 463.75,-3265 457.75,-3265 451.75,-3259 451.75,-3253 451.75,-3253 451.75,-3241 451.75,-3241 451.75,-3235 457.75,-3229 463.75,-3229 463.75,-3229 522.5,-3229 522.5,-3229 528.5,-3229 534.5,-3235 534.5,-3241 534.5,-3241 534.5,-3253 534.5,-3253 534.5,-3259 528.5,-3265 522.5,-3265"/>
<text text-anchor="middle" x="493.12" y="-3244.62" font-family="Helvetica,Arial,sans-serif" font-size="10.00" fill="#212529">📄 byparr.nix</text>
</g>
<!-- N2&#45;&gt;N6 -->
<g id="edge8" class="edge">
<title>N2&#45;&gt;N6</title>
<path fill="none" stroke="#6c757d" d="M225.79,-3848.66C251.2,-3748.91 371.62,-3276 371.62,-3276 371.62,-3276 409.98,-3266.77 443.41,-3258.72"/>
<polygon fill="#6c757d" stroke="#6c757d" points="443.63,-3261.19 449.86,-3257.17 442.48,-3256.43 443.63,-3261.19"/>
</g>
<!-- N7 -->
<g id="node8" class="node">
<title>N7</title>
<path fill="#f8f9fa" stroke="#ced4da" d="M532.62,-3323C532.62,-3323 453.62,-3323 453.62,-3323 447.62,-3323 441.62,-3317 441.62,-3311 441.62,-3311 441.62,-3299 441.62,-3299 441.62,-3293 447.62,-3287 453.62,-3287 453.62,-3287 532.62,-3287 532.62,-3287 538.62,-3287 544.62,-3293 544.62,-3299 544.62,-3299 544.62,-3311 544.62,-3311 544.62,-3317 538.62,-3323 532.62,-3323"/>
<text text-anchor="middle" x="493.12" y="-3302.62" font-family="Helvetica,Arial,sans-serif" font-size="10.00" fill="#212529">📄 cleanuparr.nix</text>
</g>
<!-- N2&#45;&gt;N7 -->
<g id="edge9" class="edge">
<title>N2&#45;&gt;N7</title>
<path fill="none" stroke="#6c757d" d="M226.31,-3848.65C252.77,-3754.93 371.62,-3334 371.62,-3334 371.62,-3334 402.65,-3326.53 433.21,-3319.18"/>
<polygon fill="#6c757d" stroke="#6c757d" points="433.67,-3321.59 439.9,-3317.57 432.52,-3316.82 433.67,-3321.59"/>
</g>
<!-- N8 -->
<g id="node9" class="node">
<title>N8</title>
<path fill="#f8f9fa" stroke="#ced4da" d="M557.75,-3381C557.75,-3381 428.5,-3381 428.5,-3381 422.5,-3381 416.5,-3375 416.5,-3369 416.5,-3369 416.5,-3357 416.5,-3357 416.5,-3351 422.5,-3345 428.5,-3345 428.5,-3345 557.75,-3345 557.75,-3345 563.75,-3345 569.75,-3351 569.75,-3357 569.75,-3357 569.75,-3369 569.75,-3369 569.75,-3375 563.75,-3381 557.75,-3381"/>
<text text-anchor="middle" x="493.12" y="-3360.62" font-family="Helvetica,Arial,sans-serif" font-size="10.00" fill="#212529">📄 filebrowser&#45;quantum.nix</text>
</g>
<!-- N2&#45;&gt;N8 -->
<g id="edge10" class="edge">
<title>N2&#45;&gt;N8</title>
<path fill="none" stroke="#6c757d" d="M226.93,-3848.67C254.59,-3761.38 371.62,-3392 371.62,-3392 371.62,-3392 387.72,-3388.13 408.14,-3383.21"/>
<polygon fill="#6c757d" stroke="#6c757d" points="408.45,-3385.66 414.68,-3381.64 407.3,-3380.89 408.45,-3385.66"/>
</g>
<!-- N9 -->
<g id="node10" class="node">
<title>N9</title>
<path fill="#f8f9fa" stroke="#ced4da" d="M525.5,-3439C525.5,-3439 460.75,-3439 460.75,-3439 454.75,-3439 448.75,-3433 448.75,-3427 448.75,-3427 448.75,-3415 448.75,-3415 448.75,-3409 454.75,-3403 460.75,-3403 460.75,-3403 525.5,-3403 525.5,-3403 531.5,-3403 537.5,-3409 537.5,-3415 537.5,-3415 537.5,-3427 537.5,-3427 537.5,-3433 531.5,-3439 525.5,-3439"/>
<text text-anchor="middle" x="493.12" y="-3418.62" font-family="Helvetica,Arial,sans-serif" font-size="10.00" fill="#212529">📄 immich.nix</text>
</g>
<!-- N2&#45;&gt;N9 -->
<g id="edge11" class="edge">
<title>N2&#45;&gt;N9</title>
<path fill="none" stroke="#6c757d" d="M227.79,-3848.54C256.91,-3767.84 371.62,-3450 371.62,-3450 371.62,-3450 407.49,-3441.37 440.09,-3433.52"/>
<polygon fill="#6c757d" stroke="#6c757d" points="440.58,-3435.93 446.81,-3431.91 439.43,-3431.16 440.58,-3435.93"/>
</g>
<!-- N10 -->
<g id="node11" class="node">
<title>N10</title>
<path fill="#f8f9fa" stroke="#ced4da" d="M523.62,-3497C523.62,-3497 462.62,-3497 462.62,-3497 456.62,-3497 450.62,-3491 450.62,-3485 450.62,-3485 450.62,-3473 450.62,-3473 450.62,-3467 456.62,-3461 462.62,-3461 462.62,-3461 523.62,-3461 523.62,-3461 529.62,-3461 535.62,-3467 535.62,-3473 535.62,-3473 535.62,-3485 535.62,-3485 535.62,-3491 529.62,-3497 523.62,-3497"/>
<text text-anchor="middle" x="493.12" y="-3476.62" font-family="Helvetica,Arial,sans-serif" font-size="10.00" fill="#212529">📄 jellyfin.nix</text>
</g>
<!-- N2&#45;&gt;N10 -->
<g id="edge12" class="edge">
<title>N2&#45;&gt;N10</title>
<path fill="none" stroke="#6c757d" d="M228.8,-3848.7C259.46,-3775.55 371.62,-3508 371.62,-3508 371.62,-3508 409.24,-3498.95 442.44,-3490.96"/>
<polygon fill="#6c757d" stroke="#6c757d" points="442.61,-3493.44 448.85,-3489.42 441.47,-3488.67 442.61,-3493.44"/>
</g>
<!-- N11 -->
<g id="node12" class="node">
<title>N11</title>
<path fill="#f8f9fa" stroke="#ced4da" d="M523.62,-3555C523.62,-3555 462.62,-3555 462.62,-3555 456.62,-3555 450.62,-3549 450.62,-3543 450.62,-3543 450.62,-3531 450.62,-3531 450.62,-3525 456.62,-3519 462.62,-3519 462.62,-3519 523.62,-3519 523.62,-3519 529.62,-3519 535.62,-3525 535.62,-3531 535.62,-3531 535.62,-3543 535.62,-3543 535.62,-3549 529.62,-3555 523.62,-3555"/>
<text text-anchor="middle" x="493.12" y="-3534.62" font-family="Helvetica,Arial,sans-serif" font-size="10.00" fill="#212529">📄 komga.nix</text>
</g>
<!-- N2&#45;&gt;N11 -->
<g id="edge13" class="edge">
<title>N2&#45;&gt;N11</title>
<path fill="none" stroke="#6c757d" d="M230.31,-3848.62C262.99,-3783.27 371.62,-3566 371.62,-3566 371.62,-3566 409.24,-3556.95 442.44,-3548.96"/>
<polygon fill="#6c757d" stroke="#6c757d" points="442.61,-3551.44 448.85,-3547.42 441.47,-3546.67 442.61,-3551.44"/>
</g>
<!-- N12 -->
<g id="node13" class="node">
<title>N12</title>
<path fill="#f8f9fa" stroke="#ced4da" d="M531.12,-3613C531.12,-3613 455.12,-3613 455.12,-3613 449.12,-3613 443.12,-3607 443.12,-3601 443.12,-3601 443.12,-3589 443.12,-3589 443.12,-3583 449.12,-3577 455.12,-3577 455.12,-3577 531.12,-3577 531.12,-3577 537.12,-3577 543.12,-3583 543.12,-3589 543.12,-3589 543.12,-3601 543.12,-3601 543.12,-3607 537.12,-3613 531.12,-3613"/>
<text text-anchor="middle" x="493.12" y="-3592.62" font-family="Helvetica,Arial,sans-serif" font-size="10.00" fill="#212529">📄 onlyoffice.nix</text>
</g>
<!-- N2&#45;&gt;N12 -->
<g id="edge14" class="edge">
<title>N2&#45;&gt;N12</title>
<path fill="none" stroke="#6c757d" d="M232.44,-3848.74C267.44,-3792.22 371.62,-3624 371.62,-3624 371.62,-3624 403.53,-3616.32 434.51,-3608.87"/>
<polygon fill="#6c757d" stroke="#6c757d" points="435.06,-3611.25 441.29,-3607.23 433.91,-3606.49 435.06,-3611.25"/>
</g>
<!-- N13 -->
<g id="node14" class="node">
<title>N13</title>
<path fill="#f8f9fa" stroke="#ced4da" d="M527,-3671C527,-3671 459.25,-3671 459.25,-3671 453.25,-3671 447.25,-3665 447.25,-3659 447.25,-3659 447.25,-3647 447.25,-3647 447.25,-3641 453.25,-3635 459.25,-3635 459.25,-3635 527,-3635 527,-3635 533,-3635 539,-3641 539,-3647 539,-3647 539,-3659 539,-3659 539,-3665 533,-3671 527,-3671"/>
<text text-anchor="middle" x="493.12" y="-3650.62" font-family="Helvetica,Arial,sans-serif" font-size="10.00" fill="#212529">📄 prowlarr.nix</text>
</g>
<!-- N2&#45;&gt;N13 -->
<g id="edge15" class="edge">
<title>N2&#45;&gt;N13</title>
<path fill="none" stroke="#6c757d" d="M236.11,-3848.59C274.17,-3801.79 371.62,-3682 371.62,-3682 371.62,-3682 406.55,-3673.59 438.8,-3665.83"/>
<polygon fill="#6c757d" stroke="#6c757d" points="439.21,-3668.26 445.44,-3664.24 438.06,-3663.49 439.21,-3668.26"/>
</g>
<!-- N14 -->
<g id="node15" class="node">
<title>N14</title>
<path fill="#f8f9fa" stroke="#ced4da" d="M533,-3729C533,-3729 453.25,-3729 453.25,-3729 447.25,-3729 441.25,-3723 441.25,-3717 441.25,-3717 441.25,-3705 441.25,-3705 441.25,-3699 447.25,-3693 453.25,-3693 453.25,-3693 533,-3693 533,-3693 539,-3693 545,-3699 545,-3705 545,-3705 545,-3717 545,-3717 545,-3723 539,-3729 533,-3729"/>
<text text-anchor="middle" x="493.12" y="-3708.62" font-family="Helvetica,Arial,sans-serif" font-size="10.00" fill="#212529">📄 qbittorrent.nix</text>
</g>
<!-- N2&#45;&gt;N14 -->
<g id="edge16" class="edge">
<title>N2&#45;&gt;N14</title>
<path fill="none" stroke="#6c757d" d="M243.01,-3848.53C284.75,-3813.31 371.62,-3740 371.62,-3740 371.62,-3740 402.43,-3732.59 432.89,-3725.26"/>
<polygon fill="#6c757d" stroke="#6c757d" points="433.32,-3727.67 439.55,-3723.65 432.17,-3722.91 433.32,-3727.67"/>
</g>
<!-- N15 -->
<g id="node16" class="node">
<title>N15</title>
<path fill="#f8f9fa" stroke="#ced4da" d="M528.12,-3787C528.12,-3787 458.12,-3787 458.12,-3787 452.12,-3787 446.12,-3781 446.12,-3775 446.12,-3775 446.12,-3763 446.12,-3763 446.12,-3757 452.12,-3751 458.12,-3751 458.12,-3751 528.12,-3751 528.12,-3751 534.12,-3751 540.12,-3757 540.12,-3763 540.12,-3763 540.12,-3775 540.12,-3775 540.12,-3781 534.12,-3787 528.12,-3787"/>
<text text-anchor="middle" x="493.12" y="-3766.62" font-family="Helvetica,Arial,sans-serif" font-size="10.00" fill="#212529">📄 recyclarr.nix</text>
</g>
<!-- N2&#45;&gt;N15 -->
<g id="edge17" class="edge">
<title>N2&#45;&gt;N15</title>
<path fill="none" stroke="#6c757d" d="M272.1,-3848.57C319.45,-3831.44 389.72,-3806.03 438.04,-3788.56"/>
<polygon fill="#6c757d" stroke="#6c757d" points="438.73,-3790.92 444.48,-3786.23 437.06,-3786.31 438.73,-3790.92"/>
</g>
<!-- N16 -->
<g id="node17" class="node">
<title>N16</title>
<path fill="#f8f9fa" stroke="#ced4da" d="M517.25,-2975C517.25,-2975 469,-2975 469,-2975 463,-2975 457,-2969 457,-2963 457,-2963 457,-2951 457,-2951 457,-2945 463,-2939 469,-2939 469,-2939 517.25,-2939 517.25,-2939 523.25,-2939 529.25,-2945 529.25,-2951 529.25,-2951 529.25,-2963 529.25,-2963 529.25,-2969 523.25,-2975 517.25,-2975"/>
<text text-anchor="middle" x="493.12" y="-2954.62" font-family="Helvetica,Arial,sans-serif" font-size="10.00" fill="#212529">📄 seer.nix</text>
</g>
<!-- N2&#45;&gt;N16 -->
<g id="edge18" class="edge">
<title>N2&#45;&gt;N16</title>
<path fill="none" stroke="#6c757d" d="M224.27,-3848.6C245.88,-3722.08 371.62,-2986 371.62,-2986 371.62,-2986 414.01,-2975.8 448.5,-2967.5"/>
<polygon fill="#6c757d" stroke="#6c757d" points="448.92,-2969.92 455.15,-2965.9 447.77,-2965.15 448.92,-2969.92"/>
</g>
<!-- N17 -->
<g id="node18" class="node">
<title>N17</title>
<path fill="#f8f9fa" stroke="#ced4da" d="M522.12,-3033C522.12,-3033 464.12,-3033 464.12,-3033 458.12,-3033 452.12,-3027 452.12,-3021 452.12,-3021 452.12,-3009 452.12,-3009 452.12,-3003 458.12,-2997 464.12,-2997 464.12,-2997 522.12,-2997 522.12,-2997 528.12,-2997 534.12,-3003 534.12,-3009 534.12,-3009 534.12,-3021 534.12,-3021 534.12,-3027 528.12,-3033 522.12,-3033"/>
<text text-anchor="middle" x="493.12" y="-3012.62" font-family="Helvetica,Arial,sans-serif" font-size="10.00" fill="#212529">📄 sonarr.nix</text>
</g>
<!-- N2&#45;&gt;N17 -->
<g id="edge19" class="edge">
<title>N2&#45;&gt;N17</title>
<path fill="none" stroke="#6c757d" d="M224.48,-3848.66C246.69,-3727.22 371.62,-3044 371.62,-3044 371.62,-3044 410.22,-3034.71 443.73,-3026.65"/>
<polygon fill="#6c757d" stroke="#6c757d" points="443.96,-3029.11 450.19,-3025.09 442.81,-3024.35 443.96,-3029.11"/>
</g>
<!-- N18 -->
<g id="node19" class="node">
<title>N18</title>
<path fill="#f8f9fa" stroke="#ced4da" d="M532.25,-3091C532.25,-3091 454,-3091 454,-3091 448,-3091 442,-3085 442,-3079 442,-3079 442,-3067 442,-3067 442,-3061 448,-3055 454,-3055 454,-3055 532.25,-3055 532.25,-3055 538.25,-3055 544.25,-3061 544.25,-3067 544.25,-3067 544.25,-3079 544.25,-3079 544.25,-3085 538.25,-3091 532.25,-3091"/>
<text text-anchor="middle" x="493.12" y="-3070.62" font-family="Helvetica,Arial,sans-serif" font-size="10.00" fill="#212529">📄 suwayomi.nix</text>
</g>
<!-- N2&#45;&gt;N18 -->
<g id="edge20" class="edge">
<title>N2&#45;&gt;N18</title>
<path fill="none" stroke="#6c757d" d="M224.7,-3848.84C247.49,-3733 371.62,-3102 371.62,-3102 371.62,-3102 402.87,-3094.48 433.54,-3087.1"/>
<polygon fill="#6c757d" stroke="#6c757d" points="434.02,-3089.5 440.25,-3085.48 432.87,-3084.74 434.02,-3089.5"/>
</g>
<!-- N19 -->
<g id="node20" class="node">
<title>N19</title>
<path fill="#f8f9fa" stroke="#ced4da" d="M522.88,-3149C522.88,-3149 463.38,-3149 463.38,-3149 457.38,-3149 451.38,-3143 451.38,-3137 451.38,-3137 451.38,-3125 451.38,-3125 451.38,-3119 457.38,-3113 463.38,-3113 463.38,-3113 522.88,-3113 522.88,-3113 528.88,-3113 534.88,-3119 534.88,-3125 534.88,-3125 534.88,-3137 534.88,-3137 534.88,-3143 528.88,-3149 522.88,-3149"/>
<text text-anchor="middle" x="493.12" y="-3128.62" font-family="Helvetica,Arial,sans-serif" font-size="10.00" fill="#212529">📄 tranga.nix</text>
</g>
<!-- N2&#45;&gt;N19 -->
<g id="edge21" class="edge">
<title>N2&#45;&gt;N19</title>
<path fill="none" stroke="#6c757d" d="M225,-3848.81C248.55,-3738.15 371.62,-3160 371.62,-3160 371.62,-3160 409.73,-3150.83 443.08,-3142.8"/>
<polygon fill="#6c757d" stroke="#6c757d" points="443.29,-3145.27 449.52,-3141.25 442.14,-3140.51 443.29,-3145.27"/>
</g>
<!-- N20 -->
<g id="node21" class="node">
<title>N20</title>
<path fill="#f8f9fa" stroke="#ced4da" d="M518.38,-2587C518.38,-2587 467.88,-2587 467.88,-2587 461.88,-2587 455.88,-2581 455.88,-2575 455.88,-2575 455.88,-2563 455.88,-2563 455.88,-2557 461.88,-2551 467.88,-2551 467.88,-2551 518.38,-2551 518.38,-2551 524.38,-2551 530.38,-2557 530.38,-2563 530.38,-2563 530.38,-2575 530.38,-2575 530.38,-2581 524.38,-2587 518.38,-2587"/>
<text text-anchor="middle" x="493.12" y="-2566.62" font-family="Helvetica,Arial,sans-serif" font-size="10.00" fill="#212529">📄 alloy.nix</text>
</g>
<!-- N2&#45;&gt;N20 -->
<g id="edge22" class="edge">
<title>N2&#45;&gt;N20</title>
<path fill="none" stroke="#6c757d" d="M223.31,-3848.57C241.82,-3692.52 371.62,-2598 371.62,-2598 371.62,-2598 413.24,-2587.99 447.56,-2579.73"/>
<polygon fill="#6c757d" stroke="#6c757d" points="447.94,-2582.15 454.17,-2578.13 446.79,-2577.39 447.94,-2582.15"/>
</g>
<!-- N21 -->
<g id="node22" class="node">
<title>N21</title>
<path fill="#f8f9fa" stroke="#ced4da" d="M531.88,-2645C531.88,-2645 454.38,-2645 454.38,-2645 448.38,-2645 442.38,-2639 442.38,-2633 442.38,-2633 442.38,-2621 442.38,-2621 442.38,-2615 448.38,-2609 454.38,-2609 454.38,-2609 531.88,-2609 531.88,-2609 537.88,-2609 543.88,-2615 543.88,-2621 543.88,-2621 543.88,-2633 543.88,-2633 543.88,-2639 537.88,-2645 531.88,-2645"/>
<text text-anchor="middle" x="493.12" y="-2624.62" font-family="Helvetica,Arial,sans-serif" font-size="10.00" fill="#212529">📄 borgmatic.nix</text>
</g>
<!-- N2&#45;&gt;N21 -->
<g id="edge23" class="edge">
<title>N2&#45;&gt;N21</title>
<path fill="none" stroke="#6c757d" d="M223.37,-3848.94C242.09,-3698.3 371.62,-2656 371.62,-2656 371.62,-2656 403.09,-2648.43 433.86,-2641.02"/>
<polygon fill="#6c757d" stroke="#6c757d" points="434.37,-2643.42 440.6,-2639.4 433.22,-2638.66 434.37,-2643.42"/>
</g>
<!-- N22 -->
<g id="node23" class="node">
<title>N22</title>
<path fill="#f8f9fa" stroke="#ced4da" d="M517.62,-2703C517.62,-2703 468.62,-2703 468.62,-2703 462.62,-2703 456.62,-2697 456.62,-2691 456.62,-2691 456.62,-2679 456.62,-2679 456.62,-2673 462.62,-2667 468.62,-2667 468.62,-2667 517.62,-2667 517.62,-2667 523.62,-2667 529.62,-2673 529.62,-2679 529.62,-2679 529.62,-2691 529.62,-2691 529.62,-2697 523.62,-2703 517.62,-2703"/>
<text text-anchor="middle" x="493.12" y="-2682.62" font-family="Helvetica,Arial,sans-serif" font-size="10.00" fill="#212529">📄 diun.nix</text>
</g>
<!-- N2&#45;&gt;N22 -->
<g id="edge24" class="edge">
<title>N2&#45;&gt;N22</title>
<path fill="none" stroke="#6c757d" d="M223.49,-3848.89C242.64,-3702.2 371.62,-2714 371.62,-2714 371.62,-2714 413.75,-2703.86 448.19,-2695.57"/>
<polygon fill="#6c757d" stroke="#6c757d" points="448.59,-2698 454.83,-2693.98 447.45,-2693.23 448.59,-2698"/>
</g>
<!-- N23 -->
<g id="node24" class="node">
<title>N23</title>
<path fill="#f8f9fa" stroke="#ced4da" d="M525.88,-2761C525.88,-2761 460.38,-2761 460.38,-2761 454.38,-2761 448.38,-2755 448.38,-2749 448.38,-2749 448.38,-2737 448.38,-2737 448.38,-2731 454.38,-2725 460.38,-2725 460.38,-2725 525.88,-2725 525.88,-2725 531.88,-2725 537.88,-2731 537.88,-2737 537.88,-2737 537.88,-2749 537.88,-2749 537.88,-2755 531.88,-2761 525.88,-2761"/>
<text text-anchor="middle" x="493.12" y="-2740.62" font-family="Helvetica,Arial,sans-serif" font-size="10.00" fill="#212529">📄 grafana.nix</text>
</g>
<!-- N2&#45;&gt;N23 -->
<g id="edge25" class="edge">
<title>N2&#45;&gt;N23</title>
<path fill="none" stroke="#6c757d" d="M223.61,-3848.91C243.18,-3706.54 371.62,-2772 371.62,-2772 371.62,-2772 407.25,-2763.43 439.76,-2755.6"/>
<polygon fill="#6c757d" stroke="#6c757d" points="440.24,-2758.01 446.47,-2753.99 439.09,-2753.24 440.24,-2758.01"/>
</g>
<!-- N24 -->
<g id="node25" class="node">
<title>N24</title>
<path fill="#f8f9fa" stroke="#ced4da" d="M516.12,-2819C516.12,-2819 470.12,-2819 470.12,-2819 464.12,-2819 458.12,-2813 458.12,-2807 458.12,-2807 458.12,-2795 458.12,-2795 458.12,-2789 464.12,-2783 470.12,-2783 470.12,-2783 516.12,-2783 516.12,-2783 522.12,-2783 528.12,-2789 528.12,-2795 528.12,-2795 528.12,-2807 528.12,-2807 528.12,-2813 522.12,-2819 516.12,-2819"/>
<text text-anchor="middle" x="493.12" y="-2798.62" font-family="Helvetica,Arial,sans-serif" font-size="10.00" fill="#212529">📄 loki.nix</text>
</g>
<!-- N2&#45;&gt;N24 -->
<g id="edge26" class="edge">
<title>N2&#45;&gt;N24</title>
<path fill="none" stroke="#6c757d" d="M223.8,-3848.56C243.99,-3709.43 371.62,-2830 371.62,-2830 371.62,-2830 415.05,-2819.55 449.76,-2811.2"/>
<polygon fill="#6c757d" stroke="#6c757d" points="450.21,-2813.61 456.45,-2809.59 449.07,-2808.84 450.21,-2813.61"/>
</g>
<!-- N25 -->
<g id="node26" class="node">
<title>N25</title>
<path fill="#f8f9fa" stroke="#ced4da" d="M525.88,-2877C525.88,-2877 460.38,-2877 460.38,-2877 454.38,-2877 448.38,-2871 448.38,-2865 448.38,-2865 448.38,-2853 448.38,-2853 448.38,-2847 454.38,-2841 460.38,-2841 460.38,-2841 525.88,-2841 525.88,-2841 531.88,-2841 537.88,-2847 537.88,-2853 537.88,-2853 537.88,-2865 537.88,-2865 537.88,-2871 531.88,-2877 525.88,-2877"/>
<text text-anchor="middle" x="493.12" y="-2856.62" font-family="Helvetica,Arial,sans-serif" font-size="10.00" fill="#212529">📄 netdata.nix</text>
</g>
<!-- N2&#45;&gt;N25 -->
<g id="edge27" class="edge">
<title>N2&#45;&gt;N25</title>
<path fill="none" stroke="#6c757d" d="M224,-3848.91C244.8,-3717.85 371.62,-2919 371.62,-2919 371.62,-2919 413.42,-2898.19 447.79,-2881.08"/>
<polygon fill="#6c757d" stroke="#6c757d" points="448.46,-2883.48 453.63,-2878.17 446.27,-2879.09 448.46,-2883.48"/>
</g>
<!-- N26 -->
<g id="node27" class="node">
<title>N26</title>
<path fill="#f8f9fa" stroke="#ced4da" d="M542.75,-2355C542.75,-2355 443.5,-2355 443.5,-2355 437.5,-2355 431.5,-2349 431.5,-2343 431.5,-2343 431.5,-2331 431.5,-2331 431.5,-2325 437.5,-2319 443.5,-2319 443.5,-2319 542.75,-2319 542.75,-2319 548.75,-2319 554.75,-2325 554.75,-2331 554.75,-2331 554.75,-2343 554.75,-2343 554.75,-2349 548.75,-2355 542.75,-2355"/>
<text text-anchor="middle" x="493.12" y="-2334.62" font-family="Helvetica,Arial,sans-serif" font-size="10.00" fill="#212529">📄 power&#45;monitor.nix</text>
</g>
<!-- N2&#45;&gt;N26 -->
<g id="edge28" class="edge">
<title>N2&#45;&gt;N26</title>
<path fill="none" stroke="#6c757d" d="M222.97,-3848.56C240.18,-3677.01 371.62,-2366 371.62,-2366 371.62,-2366 396.19,-2360.09 423.14,-2353.6"/>
<polygon fill="#6c757d" stroke="#6c757d" points="423.47,-2356.04 429.7,-2352.02 422.32,-2351.28 423.47,-2356.04"/>
</g>
<!-- N27 -->
<g id="node28" class="node">
<title>N27</title>
<path fill="#f8f9fa" stroke="#ced4da" d="M536.38,-2413C536.38,-2413 449.88,-2413 449.88,-2413 443.88,-2413 437.88,-2407 437.88,-2401 437.88,-2401 437.88,-2389 437.88,-2389 437.88,-2383 443.88,-2377 449.88,-2377 449.88,-2377 536.38,-2377 536.38,-2377 542.38,-2377 548.38,-2383 548.38,-2389 548.38,-2389 548.38,-2401 548.38,-2401 548.38,-2407 542.38,-2413 536.38,-2413"/>
<text text-anchor="middle" x="493.12" y="-2392.62" font-family="Helvetica,Arial,sans-serif" font-size="10.00" fill="#212529">📄 prometheus.nix</text>
</g>
<!-- N2&#45;&gt;N27 -->
<g id="edge29" class="edge">
<title>N2&#45;&gt;N27</title>
<path fill="none" stroke="#6c757d" d="M223.03,-3848.76C240.45,-3681.71 371.62,-2424 371.62,-2424 371.62,-2424 400.04,-2417.16 429.27,-2410.13"/>
<polygon fill="#6c757d" stroke="#6c757d" points="429.81,-2412.52 436.04,-2408.5 428.67,-2407.75 429.81,-2412.52"/>
</g>
<!-- N28 -->
<g id="node29" class="node">
<title>N28</title>
<path fill="#f8f9fa" stroke="#ced4da" d="M525.88,-2471C525.88,-2471 460.38,-2471 460.38,-2471 454.38,-2471 448.38,-2465 448.38,-2459 448.38,-2459 448.38,-2447 448.38,-2447 448.38,-2441 454.38,-2435 460.38,-2435 460.38,-2435 525.88,-2435 525.88,-2435 531.88,-2435 537.88,-2441 537.88,-2447 537.88,-2447 537.88,-2459 537.88,-2459 537.88,-2465 531.88,-2471 525.88,-2471"/>
<text text-anchor="middle" x="493.12" y="-2450.62" font-family="Helvetica,Arial,sans-serif" font-size="10.00" fill="#212529">📄 scrutiny.nix</text>
</g>
<!-- N2&#45;&gt;N28 -->
<g id="edge30" class="edge">
<title>N2&#45;&gt;N28</title>
<path fill="none" stroke="#6c757d" d="M223.11,-3848.73C240.86,-3685.38 371.62,-2482 371.62,-2482 371.62,-2482 407.25,-2473.43 439.76,-2465.6"/>
<polygon fill="#6c757d" stroke="#6c757d" points="440.24,-2468.01 446.47,-2463.99 439.09,-2463.24 440.24,-2468.01"/>
</g>
<!-- N29 -->
<g id="node30" class="node">
<title>N29</title>
<path fill="#f8f9fa" stroke="#ced4da" d="M539.75,-2529C539.75,-2529 446.5,-2529 446.5,-2529 440.5,-2529 434.5,-2523 434.5,-2517 434.5,-2517 434.5,-2505 434.5,-2505 434.5,-2499 440.5,-2493 446.5,-2493 446.5,-2493 539.75,-2493 539.75,-2493 545.75,-2493 551.75,-2499 551.75,-2505 551.75,-2505 551.75,-2517 551.75,-2517 551.75,-2523 545.75,-2529 539.75,-2529"/>
<text text-anchor="middle" x="493.12" y="-2508.62" font-family="Helvetica,Arial,sans-serif" font-size="10.00" fill="#212529">📄 uptime&#45;kuma.nix</text>
</g>
<!-- N2&#45;&gt;N29 -->
<g id="edge31" class="edge">
<title>N2&#45;&gt;N29</title>
<path fill="none" stroke="#6c757d" d="M223.2,-3848.75C241.27,-3689.36 371.62,-2540 371.62,-2540 371.62,-2540 398.19,-2533.61 426.37,-2526.82"/>
<polygon fill="#6c757d" stroke="#6c757d" points="426.64,-2529.28 432.87,-2525.26 425.5,-2524.52 426.64,-2529.28"/>
</g>
<!-- N30 -->
<g id="node31" class="node">
<title>N30</title>
<path fill="#f8f9fa" stroke="#ced4da" d="M545.75,-2083C545.75,-2083 440.5,-2083 440.5,-2083 434.5,-2083 428.5,-2077 428.5,-2071 428.5,-2071 428.5,-2059 428.5,-2059 428.5,-2053 434.5,-2047 440.5,-2047 440.5,-2047 545.75,-2047 545.75,-2047 551.75,-2047 557.75,-2053 557.75,-2059 557.75,-2059 557.75,-2071 557.75,-2071 557.75,-2077 551.75,-2083 545.75,-2083"/>
<text text-anchor="middle" x="493.12" y="-2062.62" font-family="Helvetica,Arial,sans-serif" font-size="10.00" fill="#212529">📄 crafty&#45;controller.nix</text>
</g>
<!-- N2&#45;&gt;N30 -->
<g id="edge32" class="edge">
<title>N2&#45;&gt;N30</title>
<path fill="none" stroke="#6c757d" d="M222.69,-3848.58C238.66,-3660.43 371.62,-2094 371.62,-2094 371.62,-2094 394.47,-2088.5 420.27,-2082.29"/>
<polygon fill="#6c757d" stroke="#6c757d" points="420.64,-2084.72 426.87,-2080.7 419.5,-2079.96 420.64,-2084.72"/>
</g>
<!-- N31 -->
<g id="node32" class="node">
<title>N31</title>
<path fill="#f8f9fa" stroke="#ced4da" d="M522.88,-2141C522.88,-2141 463.38,-2141 463.38,-2141 457.38,-2141 451.38,-2135 451.38,-2129 451.38,-2129 451.38,-2117 451.38,-2117 451.38,-2111 457.38,-2105 463.38,-2105 463.38,-2105 522.88,-2105 522.88,-2105 528.88,-2105 534.88,-2111 534.88,-2117 534.88,-2117 534.88,-2129 534.88,-2129 534.88,-2135 528.88,-2141 522.88,-2141"/>
<text text-anchor="middle" x="493.12" y="-2120.62" font-family="Helvetica,Arial,sans-serif" font-size="10.00" fill="#212529">📄 firefox.nix</text>
</g>
<!-- N2&#45;&gt;N31 -->
<g id="edge33" class="edge">
<title>N2&#45;&gt;N31</title>
<path fill="none" stroke="#6c757d" d="M222.74,-3848.61C238.94,-3664.04 371.62,-2152 371.62,-2152 371.62,-2152 409.73,-2142.83 443.08,-2134.8"/>
<polygon fill="#6c757d" stroke="#6c757d" points="443.29,-2137.27 449.52,-2133.25 442.14,-2132.51 443.29,-2137.27"/>
</g>
<!-- N32 -->
<g id="node33" class="node">
<title>N32</title>
<path fill="#f8f9fa" stroke="#ced4da" d="M524.38,-2199C524.38,-2199 461.88,-2199 461.88,-2199 455.88,-2199 449.88,-2193 449.88,-2187 449.88,-2187 449.88,-2175 449.88,-2175 449.88,-2169 455.88,-2163 461.88,-2163 461.88,-2163 524.38,-2163 524.38,-2163 530.38,-2163 536.38,-2169 536.38,-2175 536.38,-2175 536.38,-2187 536.38,-2187 536.38,-2193 530.38,-2199 524.38,-2199"/>
<text text-anchor="middle" x="493.12" y="-2178.62" font-family="Helvetica,Arial,sans-serif" font-size="10.00" fill="#212529">📄 forgejo.nix</text>
</g>
<!-- N2&#45;&gt;N32 -->
<g id="edge34" class="edge">
<title>N2&#45;&gt;N32</title>
<path fill="none" stroke="#6c757d" d="M222.79,-3848.67C239.21,-3667.87 371.62,-2210 371.62,-2210 371.62,-2210 408.44,-2201.14 441.38,-2193.21"/>
<polygon fill="#6c757d" stroke="#6c757d" points="441.94,-2195.6 448.17,-2191.58 440.79,-2190.83 441.94,-2195.6"/>
</g>
<!-- N33 -->
<g id="node34" class="node">
<title>N33</title>
<path fill="#f8f9fa" stroke="#ced4da" d="M526.62,-2257C526.62,-2257 459.62,-2257 459.62,-2257 453.62,-2257 447.62,-2251 447.62,-2245 447.62,-2245 447.62,-2233 447.62,-2233 447.62,-2227 453.62,-2221 459.62,-2221 459.62,-2221 526.62,-2221 526.62,-2221 532.62,-2221 538.62,-2227 538.62,-2233 538.62,-2233 538.62,-2245 538.62,-2245 538.62,-2251 532.62,-2257 526.62,-2257"/>
<text text-anchor="middle" x="493.12" y="-2236.62" font-family="Helvetica,Arial,sans-serif" font-size="10.00" fill="#212529">📄 freshrss.nix</text>
</g>
<!-- N2&#45;&gt;N33 -->
<g id="edge35" class="edge">
<title>N2&#45;&gt;N33</title>
<path fill="none" stroke="#6c757d" d="M222.89,-3848.57C239.76,-3672.82 371.62,-2299 371.62,-2299 371.62,-2299 413.42,-2278.19 447.79,-2261.08"/>
<polygon fill="#6c757d" stroke="#6c757d" points="448.46,-2263.48 453.63,-2258.17 446.27,-2259.09 448.46,-2263.48"/>
</g>
<!-- N34 -->
<g id="node35" class="node">
<title>N34</title>
<path fill="#f8f9fa" stroke="#ced4da" d="M533,-1503C533,-1503 453.25,-1503 453.25,-1503 447.25,-1503 441.25,-1497 441.25,-1491 441.25,-1491 441.25,-1479 441.25,-1479 441.25,-1473 447.25,-1467 453.25,-1467 453.25,-1467 533,-1467 533,-1467 539,-1467 545,-1473 545,-1479 545,-1479 545,-1491 545,-1491 545,-1497 539,-1503 533,-1503"/>
<text text-anchor="middle" x="493.12" y="-1482.62" font-family="Helvetica,Arial,sans-serif" font-size="10.00" fill="#212529">📄 homepage.nix</text>
</g>
<!-- N2&#45;&gt;N34 -->
<g id="edge36" class="edge">
<title>N2&#45;&gt;N34</title>
<path fill="none" stroke="#6c757d" d="M222.29,-3848.74C236.3,-3629.73 371.62,-1514 371.62,-1514 371.62,-1514 402.43,-1506.59 432.89,-1499.26"/>
<polygon fill="#6c757d" stroke="#6c757d" points="433.32,-1501.67 439.55,-1497.65 432.17,-1496.91 433.32,-1501.67"/>
</g>
<!-- N35 -->
<g id="node36" class="node">
<title>N35</title>
<path fill="#f8f9fa" stroke="#ced4da" d="M538.25,-1561C538.25,-1561 448,-1561 448,-1561 442,-1561 436,-1555 436,-1549 436,-1549 436,-1537 436,-1537 436,-1531 442,-1525 448,-1525 448,-1525 538.25,-1525 538.25,-1525 544.25,-1525 550.25,-1531 550.25,-1537 550.25,-1537 550.25,-1549 550.25,-1549 550.25,-1555 544.25,-1561 538.25,-1561"/>
<text text-anchor="middle" x="493.12" y="-1540.62" font-family="Helvetica,Arial,sans-serif" font-size="10.00" fill="#212529">📄 local&#45;finance.nix</text>
</g>
<!-- N2&#45;&gt;N35 -->
<g id="edge37" class="edge">
<title>N2&#45;&gt;N35</title>
<path fill="none" stroke="#6c757d" d="M222.34,-3848.53C236.58,-3631.33 371.62,-1572 371.62,-1572 371.62,-1572 399,-1565.41 427.66,-1558.51"/>
<polygon fill="#6c757d" stroke="#6c757d" points="428.05,-1560.94 434.28,-1556.92 426.91,-1556.18 428.05,-1560.94"/>
</g>
<!-- N36 -->
<g id="node37" class="node">
<title>N36</title>
<path fill="#f8f9fa" stroke="#ced4da" d="M516.12,-1619C516.12,-1619 470.12,-1619 470.12,-1619 464.12,-1619 458.12,-1613 458.12,-1607 458.12,-1607 458.12,-1595 458.12,-1595 458.12,-1589 464.12,-1583 470.12,-1583 470.12,-1583 516.12,-1583 516.12,-1583 522.12,-1583 528.12,-1589 528.12,-1595 528.12,-1595 528.12,-1607 528.12,-1607 528.12,-1613 522.12,-1619 516.12,-1619"/>
<text text-anchor="middle" x="493.12" y="-1598.62" font-family="Helvetica,Arial,sans-serif" font-size="10.00" fill="#212529">📄 n8n.nix</text>
</g>
<!-- N2&#45;&gt;N36 -->
<g id="edge38" class="edge">
<title>N2&#45;&gt;N36</title>
<path fill="none" stroke="#6c757d" d="M222.36,-3848.66C236.72,-3635.22 371.62,-1630 371.62,-1630 371.62,-1630 415.05,-1619.55 449.76,-1611.2"/>
<polygon fill="#6c757d" stroke="#6c757d" points="450.21,-1613.61 456.45,-1609.59 449.07,-1608.84 450.21,-1613.61"/>
</g>
<!-- N37 -->
<g id="node38" class="node">
<title>N37</title>
<path fill="#f8f9fa" stroke="#ced4da" d="M522.5,-1677C522.5,-1677 463.75,-1677 463.75,-1677 457.75,-1677 451.75,-1671 451.75,-1665 451.75,-1665 451.75,-1653 451.75,-1653 451.75,-1647 457.75,-1641 463.75,-1641 463.75,-1641 522.5,-1641 522.5,-1641 528.5,-1641 534.5,-1647 534.5,-1653 534.5,-1653 534.5,-1665 534.5,-1665 534.5,-1671 528.5,-1677 522.5,-1677"/>
<text text-anchor="middle" x="493.12" y="-1656.62" font-family="Helvetica,Arial,sans-serif" font-size="10.00" fill="#212529">📄 quartz.nix</text>
</g>
<!-- N2&#45;&gt;N37 -->
<g id="edge39" class="edge">
<title>N2&#45;&gt;N37</title>
<path fill="none" stroke="#6c757d" d="M222.38,-3848.82C236.86,-3639.21 371.62,-1688 371.62,-1688 371.62,-1688 409.98,-1678.77 443.41,-1670.72"/>
<polygon fill="#6c757d" stroke="#6c757d" points="443.63,-1673.19 449.86,-1669.17 442.48,-1668.43 443.63,-1673.19"/>
</g>
<!-- N38 -->
<g id="node39" class="node">
<title>N38</title>
<path fill="#f8f9fa" stroke="#ced4da" d="M521.75,-1735C521.75,-1735 464.5,-1735 464.5,-1735 458.5,-1735 452.5,-1729 452.5,-1723 452.5,-1723 452.5,-1711 452.5,-1711 452.5,-1705 458.5,-1699 464.5,-1699 464.5,-1699 521.75,-1699 521.75,-1699 527.75,-1699 533.75,-1705 533.75,-1711 533.75,-1711 533.75,-1723 533.75,-1723 533.75,-1729 527.75,-1735 521.75,-1735"/>
<text text-anchor="middle" x="493.12" y="-1714.62" font-family="Helvetica,Arial,sans-serif" font-size="10.00" fill="#212529">📄 romm.nix</text>
</g>
<!-- N2&#45;&gt;N38 -->
<g id="edge40" class="edge">
<title>N2&#45;&gt;N38</title>
<path fill="none" stroke="#6c757d" d="M222.43,-3848.66C237.14,-3641.36 371.62,-1746 371.62,-1746 371.62,-1746 410.47,-1736.65 444.05,-1728.57"/>
<polygon fill="#6c757d" stroke="#6c757d" points="444.3,-1731.03 450.53,-1727.01 443.15,-1726.27 444.3,-1731.03"/>
</g>
<!-- N39 -->
<g id="node40" class="node">
<title>N39</title>
<path fill="#f8f9fa" stroke="#ced4da" d="M552.12,-1793C552.12,-1793 434.12,-1793 434.12,-1793 428.12,-1793 422.12,-1787 422.12,-1781 422.12,-1781 422.12,-1769 422.12,-1769 422.12,-1763 428.12,-1757 434.12,-1757 434.12,-1757 552.12,-1757 552.12,-1757 558.12,-1757 564.12,-1763 564.12,-1769 564.12,-1769 564.12,-1781 564.12,-1781 564.12,-1787 558.12,-1793 552.12,-1793"/>
<text text-anchor="middle" x="493.12" y="-1772.62" font-family="Helvetica,Arial,sans-serif" font-size="10.00" fill="#212529">📄 security&#45;watchdog.nix</text>
</g>
<!-- N2&#45;&gt;N39 -->
<g id="edge41" class="edge">
<title>N2&#45;&gt;N39</title>
<path fill="none" stroke="#6c757d" d="M222.47,-3848.54C237.41,-3643.72 371.62,-1804 371.62,-1804 371.62,-1804 390.58,-1799.44 413.45,-1793.93"/>
<polygon fill="#6c757d" stroke="#6c757d" points="413.98,-1796.33 420.21,-1792.31 412.83,-1791.56 413.98,-1796.33"/>
</g>
<!-- N40 -->
<g id="node41" class="node">
<title>N40</title>
<path fill="#f8f9fa" stroke="#ced4da" d="M533.38,-1851C533.38,-1851 452.88,-1851 452.88,-1851 446.88,-1851 440.88,-1845 440.88,-1839 440.88,-1839 440.88,-1827 440.88,-1827 440.88,-1821 446.88,-1815 452.88,-1815 452.88,-1815 533.38,-1815 533.38,-1815 539.38,-1815 545.38,-1821 545.38,-1827 545.38,-1827 545.38,-1839 545.38,-1839 545.38,-1845 539.38,-1851 533.38,-1851"/>
<text text-anchor="middle" x="493.12" y="-1830.62" font-family="Helvetica,Arial,sans-serif" font-size="10.00" fill="#212529">📄 stirling&#45;pdf.nix</text>
</g>
<!-- N2&#45;&gt;N40 -->
<g id="edge42" class="edge">
<title>N2&#45;&gt;N40</title>
<path fill="none" stroke="#6c757d" d="M222.5,-3848.74C237.55,-3648.15 371.62,-1862 371.62,-1862 371.62,-1862 402.21,-1854.64 432.56,-1847.33"/>
<polygon fill="#6c757d" stroke="#6c757d" points="432.97,-1849.76 439.2,-1845.74 431.82,-1844.99 432.97,-1849.76"/>
</g>
<!-- N41 -->
<g id="node42" class="node">
<title>N41</title>
<path fill="#f8f9fa" stroke="#ced4da" d="M516.88,-1909C516.88,-1909 469.38,-1909 469.38,-1909 463.38,-1909 457.38,-1903 457.38,-1897 457.38,-1897 457.38,-1885 457.38,-1885 457.38,-1879 463.38,-1873 469.38,-1873 469.38,-1873 516.88,-1873 516.88,-1873 522.88,-1873 528.88,-1879 528.88,-1885 528.88,-1885 528.88,-1897 528.88,-1897 528.88,-1903 522.88,-1909 516.88,-1909"/>
<text text-anchor="middle" x="493.12" y="-1888.62" font-family="Helvetica,Arial,sans-serif" font-size="10.00" fill="#212529">📄 vert.nix</text>
</g>
<!-- N2&#45;&gt;N41 -->
<g id="edge43" class="edge">
<title>N2&#45;&gt;N41</title>
<path fill="none" stroke="#6c757d" d="M222.54,-3848.66C237.83,-3650.89 371.62,-1920 371.62,-1920 371.62,-1920 414.27,-1909.74 448.82,-1901.42"/>
<polygon fill="#6c757d" stroke="#6c757d" points="449.24,-1903.84 455.48,-1899.82 448.1,-1899.08 449.24,-1903.84"/>
</g>
<!-- N42 -->
<g id="node43" class="node">
<title>N42</title>
<path fill="#f8f9fa" stroke="#ced4da" d="M524.75,-1967C524.75,-1967 461.5,-1967 461.5,-1967 455.5,-1967 449.5,-1961 449.5,-1955 449.5,-1955 449.5,-1943 449.5,-1943 449.5,-1937 455.5,-1931 461.5,-1931 461.5,-1931 524.75,-1931 524.75,-1931 530.75,-1931 536.75,-1937 536.75,-1943 536.75,-1943 536.75,-1955 536.75,-1955 536.75,-1961 530.75,-1967 524.75,-1967"/>
<text text-anchor="middle" x="493.12" y="-1946.62" font-family="Helvetica,Arial,sans-serif" font-size="10.00" fill="#212529">📄 vikunja.nix</text>
</g>
<!-- N2&#45;&gt;N42 -->
<g id="edge44" class="edge">
<title>N2&#45;&gt;N42</title>
<path fill="none" stroke="#6c757d" d="M222.59,-3848.61C238.11,-3653.86 371.62,-1978 371.62,-1978 371.62,-1978 408.2,-1969.2 441.05,-1961.29"/>
<polygon fill="#6c757d" stroke="#6c757d" points="441.6,-1963.68 447.83,-1959.66 440.45,-1958.92 441.6,-1963.68"/>
</g>
<!-- N43 -->
<g id="node44" class="node">
<title>N43</title>
<path fill="#f8f9fa" stroke="#ced4da" d="M529.62,-2025C529.62,-2025 456.62,-2025 456.62,-2025 450.62,-2025 444.62,-2019 444.62,-2013 444.62,-2013 444.62,-2001 444.62,-2001 444.62,-1995 450.62,-1989 456.62,-1989 456.62,-1989 529.62,-1989 529.62,-1989 535.62,-1989 541.62,-1995 541.62,-2001 541.62,-2001 541.62,-2013 541.62,-2013 541.62,-2019 535.62,-2025 529.62,-2025"/>
<text text-anchor="middle" x="493.12" y="-2004.62" font-family="Helvetica,Arial,sans-serif" font-size="10.00" fill="#212529">📄 wanderer.nix</text>
</g>
<!-- N2&#45;&gt;N43 -->
<g id="edge45" class="edge">
<title>N2&#45;&gt;N43</title>
<path fill="none" stroke="#6c757d" d="M222.64,-3848.58C238.38,-3657.03 371.62,-2036 371.62,-2036 371.62,-2036 404.71,-2028.04 436.2,-2020.46"/>
<polygon fill="#6c757d" stroke="#6c757d" points="436.45,-2022.92 442.68,-2018.9 435.3,-2018.16 436.45,-2022.92"/>
</g>
<!-- N44 -->
<g id="node45" class="node">
<title>N44</title>
<path fill="#f8f9fa" stroke="#ced4da" d="M530.38,-1347C530.38,-1347 455.88,-1347 455.88,-1347 449.88,-1347 443.88,-1341 443.88,-1335 443.88,-1335 443.88,-1323 443.88,-1323 443.88,-1317 449.88,-1311 455.88,-1311 455.88,-1311 530.38,-1311 530.38,-1311 536.38,-1311 542.38,-1317 542.38,-1323 542.38,-1323 542.38,-1335 542.38,-1335 542.38,-1341 536.38,-1347 530.38,-1347"/>
<text text-anchor="middle" x="493.12" y="-1326.62" font-family="Helvetica,Arial,sans-serif" font-size="10.00" fill="#212529">📄 authentik.nix</text>
</g>
<!-- N2&#45;&gt;N44 -->
<g id="edge46" class="edge">
<title>N2&#45;&gt;N44</title>
<path fill="none" stroke="#6c757d" d="M222.23,-3848.6C235.88,-3620.98 371.62,-1358 371.62,-1358 371.62,-1358 404.25,-1350.15 435.55,-1342.62"/>
<polygon fill="#6c757d" stroke="#6c757d" points="435.76,-1345.09 441.99,-1341.07 434.61,-1340.32 435.76,-1345.09"/>
</g>
<!-- N45 -->
<g id="node46" class="node">
<title>N45</title>
<path fill="#f8f9fa" stroke="#ced4da" d="M521,-1405C521,-1405 465.25,-1405 465.25,-1405 459.25,-1405 453.25,-1399 453.25,-1393 453.25,-1393 453.25,-1381 453.25,-1381 453.25,-1375 459.25,-1369 465.25,-1369 465.25,-1369 521,-1369 521,-1369 527,-1369 533,-1375 533,-1381 533,-1381 533,-1393 533,-1393 533,-1399 527,-1405 521,-1405"/>
<text text-anchor="middle" x="493.12" y="-1384.62" font-family="Helvetica,Arial,sans-serif" font-size="10.00" fill="#212529">📄 caddy.nix</text>
</g>
<!-- N2&#45;&gt;N45 -->
<g id="edge47" class="edge">
<title>N2&#45;&gt;N45</title>
<path fill="none" stroke="#6c757d" d="M222.27,-3848.57C236.16,-3625.22 371.62,-1447 371.62,-1447 371.62,-1447 413.42,-1426.19 447.79,-1409.08"/>
<polygon fill="#6c757d" stroke="#6c757d" points="448.46,-1411.48 453.63,-1406.17 446.27,-1407.09 448.46,-1411.48"/>
</g>
<!-- N46 -->
<g id="node47" class="node">
<title>N46</title>
<path fill="#f8f9fa" stroke="#ced4da" d="M534.12,-1115C534.12,-1115 452.12,-1115 452.12,-1115 446.12,-1115 440.12,-1109 440.12,-1103 440.12,-1103 440.12,-1091 440.12,-1091 440.12,-1085 446.12,-1079 452.12,-1079 452.12,-1079 534.12,-1079 534.12,-1079 540.12,-1079 546.12,-1085 546.12,-1091 546.12,-1091 546.12,-1103 546.12,-1103 546.12,-1109 540.12,-1115 534.12,-1115"/>
<text text-anchor="middle" x="493.12" y="-1094.62" font-family="Helvetica,Arial,sans-serif" font-size="10.00" fill="#212529">📄 cloudflared.nix</text>
</g>
<!-- N2&#45;&gt;N46 -->
<g id="edge48" class="edge">
<title>N2&#45;&gt;N46</title>
<path fill="none" stroke="#6c757d" d="M222.13,-3848.77C235.18,-3610.95 371.62,-1126 371.62,-1126 371.62,-1126 401.78,-1118.74 431.91,-1111.49"/>
<polygon fill="#6c757d" stroke="#6c757d" points="432.27,-1113.93 438.5,-1109.91 431.12,-1109.16 432.27,-1113.93"/>
</g>
<!-- N47 -->
<g id="node48" class="node">
<title>N47</title>
<path fill="#f8f9fa" stroke="#ced4da" d="M555.88,-1173C555.88,-1173 430.38,-1173 430.38,-1173 424.38,-1173 418.38,-1167 418.38,-1161 418.38,-1161 418.38,-1149 418.38,-1149 418.38,-1143 424.38,-1137 430.38,-1137 430.38,-1137 555.88,-1137 555.88,-1137 561.88,-1137 567.88,-1143 567.88,-1149 567.88,-1149 567.88,-1161 567.88,-1161 567.88,-1167 561.88,-1173 555.88,-1173"/>
<text text-anchor="middle" x="493.12" y="-1152.62" font-family="Helvetica,Arial,sans-serif" font-size="10.00" fill="#212529">📄 docker&#45;socket&#45;proxy.nix</text>
</g>
<!-- N2&#45;&gt;N47 -->
<g id="edge49" class="edge">
<title>N2&#45;&gt;N47</title>
<path fill="none" stroke="#6c757d" d="M222.15,-3848.8C235.32,-3613.88 371.62,-1184 371.62,-1184 371.62,-1184 388.79,-1179.87 410.17,-1174.72"/>
<polygon fill="#6c757d" stroke="#6c757d" points="410.51,-1177.16 416.74,-1173.14 409.36,-1172.4 410.51,-1177.16"/>
</g>
<!-- N48 -->
<g id="node49" class="node">
<title>N48</title>
<path fill="#f8f9fa" stroke="#ced4da" d="M525.5,-1231C525.5,-1231 460.75,-1231 460.75,-1231 454.75,-1231 448.75,-1225 448.75,-1219 448.75,-1219 448.75,-1207 448.75,-1207 448.75,-1201 454.75,-1195 460.75,-1195 460.75,-1195 525.5,-1195 525.5,-1195 531.5,-1195 537.5,-1201 537.5,-1207 537.5,-1207 537.5,-1219 537.5,-1219 537.5,-1225 531.5,-1231 525.5,-1231"/>
<text text-anchor="middle" x="493.12" y="-1210.62" font-family="Helvetica,Arial,sans-serif" font-size="10.00" fill="#212529">📄 gluetun.nix</text>
</g>
<!-- N2&#45;&gt;N48 -->
<g id="edge50" class="edge">
<title>N2&#45;&gt;N48</title>
<path fill="none" stroke="#6c757d" d="M222.17,-3848.84C235.46,-3616.91 371.62,-1242 371.62,-1242 371.62,-1242 407.49,-1233.37 440.09,-1225.52"/>
<polygon fill="#6c757d" stroke="#6c757d" points="440.58,-1227.93 446.81,-1223.91 439.43,-1223.16 440.58,-1227.93"/>
</g>
<!-- N49 -->
<g id="node50" class="node">
<title>N49</title>
<path fill="#f8f9fa" stroke="#ced4da" d="M519.12,-1289C519.12,-1289 467.12,-1289 467.12,-1289 461.12,-1289 455.12,-1283 455.12,-1277 455.12,-1277 455.12,-1265 455.12,-1265 455.12,-1259 461.12,-1253 467.12,-1253 467.12,-1253 519.12,-1253 519.12,-1253 525.12,-1253 531.12,-1259 531.12,-1265 531.12,-1265 531.12,-1277 531.12,-1277 531.12,-1283 525.12,-1289 519.12,-1289"/>
<text text-anchor="middle" x="493.12" y="-1268.62" font-family="Helvetica,Arial,sans-serif" font-size="10.00" fill="#212529">📄 lldap.nix</text>
</g>
<!-- N2&#45;&gt;N49 -->
<g id="edge51" class="edge">
<title>N2&#45;&gt;N49</title>
<path fill="none" stroke="#6c757d" d="M222.21,-3848.53C235.74,-3617.67 371.62,-1300 371.62,-1300 371.62,-1300 412.47,-1290.17 446.6,-1281.96"/>
<polygon fill="#6c757d" stroke="#6c757d" points="446.95,-1284.39 453.19,-1280.37 445.81,-1279.63 446.95,-1284.39"/>
</g>
<!-- N54 -->
<g id="node55" class="node">
<title>N54</title>
<path fill="#f8f9fa" stroke="#ced4da" d="M524.38,-607C524.38,-607 461.88,-607 461.88,-607 455.88,-607 449.88,-601 449.88,-595 449.88,-595 449.88,-583 449.88,-583 449.88,-577 455.88,-571 461.88,-571 461.88,-571 524.38,-571 524.38,-571 530.38,-571 536.38,-577 536.38,-583 536.38,-583 536.38,-595 536.38,-595 536.38,-601 530.38,-607 524.38,-607"/>
<text text-anchor="middle" x="493.12" y="-586.62" font-family="Helvetica,Arial,sans-serif" font-size="10.00" fill="#212529">📄 default.nix</text>
</g>
<!-- N2&#45;&gt;N54 -->
<g id="edge52" class="edge">
<title>N2&#45;&gt;N54</title>
<path fill="none" stroke="#6c757d" d="M221.99,-3848.5C234.2,-3587.38 371.62,-649 371.62,-649 371.62,-649 413.42,-628.19 447.79,-611.08"/>
<polygon fill="#6c757d" stroke="#6c757d" points="448.46,-613.48 453.63,-608.17 446.27,-609.09 448.46,-613.48"/>
</g>
<!-- N59 -->
<g id="node60" class="node">
<title>N59</title>
<path fill="#f8f9fa" stroke="#ced4da" d="M518.75,-861C518.75,-861 467.5,-861 467.5,-861 461.5,-861 455.5,-855 455.5,-849 455.5,-849 455.5,-837 455.5,-837 455.5,-831 461.5,-825 467.5,-825 467.5,-825 518.75,-825 518.75,-825 524.75,-825 530.75,-831 530.75,-837 530.75,-837 530.75,-849 530.75,-849 530.75,-855 524.75,-861 518.75,-861"/>
<text text-anchor="middle" x="493.12" y="-840.62" font-family="Helvetica,Arial,sans-serif" font-size="10.00" fill="#212529">📄 base.nix</text>
</g>
<!-- N2&#45;&gt;N59 -->
<g id="edge53" class="edge">
<title>N2&#45;&gt;N59</title>
<path fill="none" stroke="#6c757d" d="M222.05,-3848.65C234.62,-3598.38 371.62,-872 371.62,-872 371.62,-872 412.98,-862.05 447.24,-853.8"/>
<polygon fill="#6c757d" stroke="#6c757d" points="447.61,-856.23 453.84,-852.21 446.47,-851.47 447.61,-856.23"/>
</g>
<!-- N60 -->
<g id="node61" class="node">
<title>N60</title>
<path fill="#f8f9fa" stroke="#ced4da" d="M522.12,-919C522.12,-919 464.12,-919 464.12,-919 458.12,-919 452.12,-913 452.12,-907 452.12,-907 452.12,-895 452.12,-895 452.12,-889 458.12,-883 464.12,-883 464.12,-883 522.12,-883 522.12,-883 528.12,-883 534.12,-889 534.12,-895 534.12,-895 534.12,-907 534.12,-907 534.12,-913 528.12,-919 522.12,-919"/>
<text text-anchor="middle" x="493.12" y="-898.62" font-family="Helvetica,Arial,sans-serif" font-size="10.00" fill="#212529">📄 server.nix</text>
</g>
<!-- N2&#45;&gt;N60 -->
<g id="edge54" class="edge">
<title>N2&#45;&gt;N60</title>
<path fill="none" stroke="#6c757d" d="M222.07,-3848.82C234.76,-3603.65 371.62,-961 371.62,-961 371.62,-961 413.42,-940.19 447.79,-923.08"/>
<polygon fill="#6c757d" stroke="#6c757d" points="448.46,-925.48 453.63,-920.17 446.27,-921.09 448.46,-925.48"/>
</g>
<!-- N62 -->
<g id="node63" class="node">
<title>N62</title>
<path fill="#f8f9fa" stroke="#ced4da" d="M524.38,-705C524.38,-705 461.88,-705 461.88,-705 455.88,-705 449.88,-699 449.88,-693 449.88,-693 449.88,-681 449.88,-681 449.88,-675 455.88,-669 461.88,-669 461.88,-669 524.38,-669 524.38,-669 530.38,-669 536.38,-675 536.38,-681 536.38,-681 536.38,-693 536.38,-693 536.38,-699 530.38,-705 524.38,-705"/>
<text text-anchor="middle" x="493.12" y="-684.62" font-family="Helvetica,Arial,sans-serif" font-size="10.00" fill="#212529">📄 default.nix</text>
</g>
<!-- N2&#45;&gt;N62 -->
<g id="edge55" class="edge">
<title>N2&#45;&gt;N62</title>
<path fill="none" stroke="#6c757d" d="M222.01,-3848.68C234.34,-3592.98 371.62,-747 371.62,-747 371.62,-747 413.42,-726.19 447.79,-709.08"/>
<polygon fill="#6c757d" stroke="#6c757d" points="448.46,-711.48 453.63,-706.17 446.27,-707.09 448.46,-711.48"/>
</g>
<!-- N63 -->
<g id="node64" class="node">
<title>N63</title>
<path fill="#f8f9fa" stroke="#ced4da" d="M524.38,-1017C524.38,-1017 461.88,-1017 461.88,-1017 455.88,-1017 449.88,-1011 449.88,-1005 449.88,-1005 449.88,-993 449.88,-993 449.88,-987 455.88,-981 461.88,-981 461.88,-981 524.38,-981 524.38,-981 530.38,-981 536.38,-987 536.38,-993 536.38,-993 536.38,-1005 536.38,-1005 536.38,-1011 530.38,-1017 524.38,-1017"/>
<text text-anchor="middle" x="493.12" y="-996.62" font-family="Helvetica,Arial,sans-serif" font-size="10.00" fill="#212529">📄 default.nix</text>
</g>
<!-- N2&#45;&gt;N63 -->
<g id="edge56" class="edge">
<title>N2&#45;&gt;N63</title>
<path fill="none" stroke="#6c757d" d="M222.11,-3848.7C235.04,-3607.31 371.62,-1059 371.62,-1059 371.62,-1059 413.42,-1038.19 447.79,-1021.08"/>
<polygon fill="#6c757d" stroke="#6c757d" points="448.46,-1023.48 453.63,-1018.17 446.27,-1019.09 448.46,-1023.48"/>
</g>
<!-- N51 -->
<g id="node52" class="node">
<title>N51</title>
<path fill="#f8f9fa" stroke="#ced4da" d="M563.75,-353C563.75,-353 422.5,-353 422.5,-353 416.5,-353 410.5,-347 410.5,-341 410.5,-341 410.5,-329 410.5,-329 410.5,-323 416.5,-317 422.5,-317 422.5,-317 563.75,-317 563.75,-317 569.75,-317 575.75,-323 575.75,-329 575.75,-329 575.75,-341 575.75,-341 575.75,-347 569.75,-353 563.75,-353"/>
<text text-anchor="middle" x="493.12" y="-332.62" font-family="Helvetica,Arial,sans-serif" font-size="10.00" fill="#212529">📄 hardware&#45;configuration.nix</text>
</g>
<!-- N50&#45;&gt;N51 -->
<g id="edge57" class="edge">
<title>N50&#45;&gt;N51</title>
<path fill="none" stroke="#6c757d" d="M278.27,-335C314.08,-335 361.02,-335 401.79,-335"/>
<polygon fill="#6c757d" stroke="#6c757d" points="401.61,-337.45 408.61,-335 401.61,-332.55 401.61,-337.45"/>
</g>
<!-- N50&#45;&gt;N54 -->
<g id="edge58" class="edge">
<title>N50&#45;&gt;N54</title>
<path fill="none" stroke="#6c757d" d="M233.7,-353.21C269.87,-405.61 371.62,-553 371.62,-553 371.62,-553 408.76,-564.09 441.8,-573.96"/>
<polygon fill="#6c757d" stroke="#6c757d" points="440.78,-576.22 448.19,-575.87 442.19,-571.52 440.78,-576.22"/>
</g>
<!-- N55 -->
<g id="node56" class="node">
<title>N55</title>
<path fill="#f8f9fa" stroke="#ced4da" d="M524.38,-451C524.38,-451 461.88,-451 461.88,-451 455.88,-451 449.88,-445 449.88,-439 449.88,-439 449.88,-427 449.88,-427 449.88,-421 455.88,-415 461.88,-415 461.88,-415 524.38,-415 524.38,-415 530.38,-415 536.38,-421 536.38,-427 536.38,-427 536.38,-439 536.38,-439 536.38,-445 530.38,-451 524.38,-451"/>
<text text-anchor="middle" x="493.12" y="-430.62" font-family="Helvetica,Arial,sans-serif" font-size="10.00" fill="#212529">📄 default.nix</text>
</g>
<!-- N50&#45;&gt;N55 -->
<g id="edge59" class="edge">
<title>N50&#45;&gt;N55</title>
<path fill="none" stroke="#6c757d" d="M265.87,-353.43C310.24,-371.71 371.62,-397 371.62,-397 371.62,-397 408.76,-408.09 441.8,-417.96"/>
<polygon fill="#6c757d" stroke="#6c757d" points="440.78,-420.22 448.19,-419.87 442.19,-415.52 440.78,-420.22"/>
</g>
<!-- N56 -->
<g id="node57" class="node">
<title>N56</title>
<path fill="#f8f9fa" stroke="#ced4da" d="M530.38,-509C530.38,-509 455.88,-509 455.88,-509 449.88,-509 443.88,-503 443.88,-497 443.88,-497 443.88,-485 443.88,-485 443.88,-479 449.88,-473 455.88,-473 455.88,-473 530.38,-473 530.38,-473 536.38,-473 542.38,-479 542.38,-485 542.38,-485 542.38,-497 542.38,-497 542.38,-503 536.38,-509 530.38,-509"/>
<text text-anchor="middle" x="493.12" y="-488.62" font-family="Helvetica,Arial,sans-serif" font-size="10.00" fill="#212529">📄 minecraft.nix</text>
</g>
<!-- N50&#45;&gt;N56 -->
<g id="edge60" class="edge">
<title>N50&#45;&gt;N56</title>
<path fill="none" stroke="#6c757d" d="M243.01,-353.47C284.75,-388.69 371.62,-462 371.62,-462 371.62,-462 404.25,-469.85 435.55,-477.38"/>
<polygon fill="#6c757d" stroke="#6c757d" points="434.61,-479.68 441.99,-478.93 435.76,-474.91 434.61,-479.68"/>
</g>
<!-- N57 -->
<g id="node58" class="node">
<title>N57</title>
<path fill="#f8f9fa" stroke="#ced4da" d="M524.38,-157C524.38,-157 461.88,-157 461.88,-157 455.88,-157 449.88,-151 449.88,-145 449.88,-145 449.88,-133 449.88,-133 449.88,-127 455.88,-121 461.88,-121 461.88,-121 524.38,-121 524.38,-121 530.38,-121 536.38,-127 536.38,-133 536.38,-133 536.38,-145 536.38,-145 536.38,-151 530.38,-157 524.38,-157"/>
<text text-anchor="middle" x="493.12" y="-136.62" font-family="Helvetica,Arial,sans-serif" font-size="10.00" fill="#212529">📄 default.nix</text>
</g>
<!-- N50&#45;&gt;N57 -->
<g id="edge61" class="edge">
<title>N50&#45;&gt;N57</title>
<path fill="none" stroke="#6c757d" d="M241.42,-316.66C282.5,-279.54 371.62,-199 371.62,-199 371.62,-199 413.42,-178.19 447.79,-161.08"/>
<polygon fill="#6c757d" stroke="#6c757d" points="448.46,-163.48 453.63,-158.17 446.27,-159.09 448.46,-163.48"/>
</g>
<!-- N50&#45;&gt;N59 -->
<g id="edge62" class="edge">
<title>N50&#45;&gt;N59</title>
<path fill="none" stroke="#6c757d" d="M226.93,-353.48C254.59,-441.51 371.62,-814 371.62,-814 371.62,-814 412.98,-823.95 447.24,-832.2"/>
<polygon fill="#6c757d" stroke="#6c757d" points="446.47,-834.53 453.84,-833.79 447.61,-829.77 446.47,-834.53"/>
</g>
<!-- N61 -->
<g id="node62" class="node">
<title>N61</title>
<path fill="#f8f9fa" stroke="#ced4da" d="M521.75,-803C521.75,-803 464.5,-803 464.5,-803 458.5,-803 452.5,-797 452.5,-791 452.5,-791 452.5,-779 452.5,-779 452.5,-773 458.5,-767 464.5,-767 464.5,-767 521.75,-767 521.75,-767 527.75,-767 533.75,-773 533.75,-779 533.75,-779 533.75,-791 533.75,-791 533.75,-797 527.75,-803 521.75,-803"/>
<text text-anchor="middle" x="493.12" y="-782.62" font-family="Helvetica,Arial,sans-serif" font-size="10.00" fill="#212529">📄 sound.nix</text>
</g>
<!-- N50&#45;&gt;N61 -->
<g id="edge63" class="edge">
<title>N50&#45;&gt;N61</title>
<path fill="none" stroke="#6c757d" d="M227.79,-353.32C256.91,-433.44 371.62,-749 371.62,-749 371.62,-749 410.47,-760.6 444.05,-770.64"/>
<polygon fill="#6c757d" stroke="#6c757d" points="443.14,-772.92 450.55,-772.58 444.54,-768.23 443.14,-772.92"/>
</g>
<!-- N50&#45;&gt;N62 -->
<g id="edge64" class="edge">
<title>N50&#45;&gt;N62</title>
<path fill="none" stroke="#6c757d" d="M229.87,-353.36C261.99,-420.8 371.62,-651 371.62,-651 371.62,-651 408.76,-662.09 441.8,-671.96"/>
<polygon fill="#6c757d" stroke="#6c757d" points="440.78,-674.22 448.19,-673.87 442.19,-669.52 440.78,-674.22"/>
</g>
<!-- N65 -->
<g id="node66" class="node">
<title>N65</title>
<path fill="#f8f9fa" stroke="#ced4da" d="M524.38,-255C524.38,-255 461.88,-255 461.88,-255 455.88,-255 449.88,-249 449.88,-243 449.88,-243 449.88,-231 449.88,-231 449.88,-225 455.88,-219 461.88,-219 461.88,-219 524.38,-219 524.38,-219 530.38,-219 536.38,-225 536.38,-231 536.38,-231 536.38,-243 536.38,-243 536.38,-249 530.38,-255 524.38,-255"/>
<text text-anchor="middle" x="493.12" y="-234.62" font-family="Helvetica,Arial,sans-serif" font-size="10.00" fill="#212529">📄 default.nix</text>
</g>
<!-- N50&#45;&gt;N65 -->
<g id="edge65" class="edge">
<title>N50&#45;&gt;N65</title>
<path fill="none" stroke="#6c757d" d="M272.1,-316.57C320.61,-299.02 393.18,-272.78 441.56,-255.29"/>
<polygon fill="#6c757d" stroke="#6c757d" points="442.23,-257.65 447.98,-252.96 440.56,-253.04 442.23,-257.65"/>
</g>
<!-- N53 -->
<g id="node54" class="node">
<title>N53</title>
<path fill="#f8f9fa" stroke="#ced4da" d="M563.75,-59C563.75,-59 422.5,-59 422.5,-59 416.5,-59 410.5,-53 410.5,-47 410.5,-47 410.5,-35 410.5,-35 410.5,-29 416.5,-23 422.5,-23 422.5,-23 563.75,-23 563.75,-23 569.75,-23 575.75,-29 575.75,-35 575.75,-35 575.75,-47 575.75,-47 575.75,-53 569.75,-59 563.75,-59"/>
<text text-anchor="middle" x="493.12" y="-38.62" font-family="Helvetica,Arial,sans-serif" font-size="10.00" fill="#212529">📄 hardware&#45;configuration.nix</text>
</g>
<!-- N52&#45;&gt;N53 -->
<g id="edge66" class="edge">
<title>N52&#45;&gt;N53</title>
<path fill="none" stroke="#6c757d" d="M278.27,-41C314.08,-41 361.02,-41 401.79,-41"/>
<polygon fill="#6c757d" stroke="#6c757d" points="401.61,-43.45 408.61,-41 401.61,-38.55 401.61,-43.45"/>
</g>
<!-- N52&#45;&gt;N54 -->
<g id="edge67" class="edge">
<title>N52&#45;&gt;N54</title>
<path fill="none" stroke="#6c757d" d="M226.48,-59.22C253.29,-150.43 371.62,-553 371.62,-553 371.62,-553 408.76,-564.09 441.8,-573.96"/>
<polygon fill="#6c757d" stroke="#6c757d" points="440.78,-576.22 448.19,-575.87 442.19,-571.52 440.78,-576.22"/>
</g>
<!-- N52&#45;&gt;N57 -->
<g id="edge68" class="edge">
<title>N52&#45;&gt;N57</title>
<path fill="none" stroke="#6c757d" d="M265.87,-59.43C310.24,-77.71 371.62,-103 371.62,-103 371.62,-103 408.76,-114.09 441.8,-123.96"/>
<polygon fill="#6c757d" stroke="#6c757d" points="440.78,-126.22 448.19,-125.87 442.19,-121.52 440.78,-126.22"/>
</g>
<!-- N52&#45;&gt;N59 -->
<g id="edge69" class="edge">
<title>N52&#45;&gt;N59</title>
<path fill="none" stroke="#6c757d" d="M226.44,-59.41C243.38,-118.11 295,-297 295,-297 295,-297 371.62,-814 371.62,-814 371.62,-814 412.98,-823.95 447.24,-832.2"/>
<polygon fill="#6c757d" stroke="#6c757d" points="446.47,-834.53 453.84,-833.79 447.61,-829.77 446.47,-834.53"/>
</g>
<!-- N52&#45;&gt;N61 -->
<g id="edge70" class="edge">
<title>N52&#45;&gt;N61</title>
<path fill="none" stroke="#6c757d" d="M226.44,-59.41C243.38,-118.11 295,-297 295,-297 295,-297 371.62,-749 371.62,-749 371.62,-749 410.47,-760.6 444.05,-770.64"/>
<polygon fill="#6c757d" stroke="#6c757d" points="443.14,-772.92 450.55,-772.58 444.54,-768.23 443.14,-772.92"/>
</g>
<!-- N52&#45;&gt;N62 -->
<g id="edge71" class="edge">
<title>N52&#45;&gt;N62</title>
<path fill="none" stroke="#6c757d" d="M226.44,-59.41C243.38,-118.11 295,-297 295,-297 295,-297 371.62,-651 371.62,-651 371.62,-651 408.76,-662.09 441.8,-671.96"/>
<polygon fill="#6c757d" stroke="#6c757d" points="440.78,-674.22 448.19,-673.87 442.19,-669.52 440.78,-674.22"/>
</g>
<!-- N52&#45;&gt;N65 -->
<g id="edge72" class="edge">
<title>N52&#45;&gt;N65</title>
<path fill="none" stroke="#6c757d" d="M238.39,-59.35C277.92,-101.38 371.62,-201 371.62,-201 371.62,-201 408.76,-212.09 441.8,-221.96"/>
<polygon fill="#6c757d" stroke="#6c757d" points="440.78,-224.22 448.19,-223.87 442.19,-219.52 440.78,-224.22"/>
</g>
<!-- N58 -->
<g id="node59" class="node">
<title>N58</title>
<path fill="#f8f9fa" stroke="#ced4da" d="M806.88,-861C806.88,-861 698.62,-861 698.62,-861 692.62,-861 686.62,-855 686.62,-849 686.62,-849 686.62,-837 686.62,-837 686.62,-831 692.62,-825 698.62,-825 698.62,-825 806.88,-825 806.88,-825 812.88,-825 818.88,-831 818.88,-837 818.88,-837 818.88,-849 818.88,-849 818.88,-855 812.88,-861 806.88,-861"/>
<text text-anchor="middle" x="752.75" y="-840.62" font-family="Helvetica,Arial,sans-serif" font-size="10.00" fill="#212529">📄 architecture&#45;dag.nix</text>
</g>
<!-- N59&#45;&gt;N58 -->
<g id="edge73" class="edge">
<title>N59&#45;&gt;N58</title>
<path fill="none" stroke="#6c757d" d="M531.04,-843C569.16,-843 629.71,-843 677.75,-843"/>
<polygon fill="#6c757d" stroke="#6c757d" points="677.75,-845.45 684.75,-843 677.75,-840.55 677.75,-845.45"/>
</g>
<!-- N64 -->
<g id="node65" class="node">
<title>N64</title>
<path fill="#f8f9fa" stroke="#ced4da" d="M780.62,-1017C780.62,-1017 724.88,-1017 724.88,-1017 718.88,-1017 712.88,-1011 712.88,-1005 712.88,-1005 712.88,-993 712.88,-993 712.88,-987 718.88,-981 724.88,-981 724.88,-981 780.62,-981 780.62,-981 786.62,-981 792.62,-987 792.62,-993 792.62,-993 792.62,-1005 792.62,-1005 792.62,-1011 786.62,-1017 780.62,-1017"/>
<text text-anchor="middle" x="752.75" y="-996.62" font-family="Helvetica,Arial,sans-serif" font-size="10.00" fill="#212529">📄 home.nix</text>
</g>
<!-- N63&#45;&gt;N64 -->
<g id="edge74" class="edge">
<title>N63&#45;&gt;N64</title>
<path fill="none" stroke="#6c757d" d="M536.67,-999C582.78,-999 656.18,-999 704.17,-999"/>
<polygon fill="#6c757d" stroke="#6c757d" points="704.01,-1001.45 711.01,-999 704.01,-996.55 704.01,-1001.45"/>
</g>
<!-- N66 -->
<g id="node67" class="node">
<title>N66</title>
<path fill="#f8f9fa" stroke="#ced4da" d="M780.62,-255C780.62,-255 724.88,-255 724.88,-255 718.88,-255 712.88,-249 712.88,-243 712.88,-243 712.88,-231 712.88,-231 712.88,-225 718.88,-219 724.88,-219 724.88,-219 780.62,-219 780.62,-219 786.62,-219 792.62,-225 792.62,-231 792.62,-231 792.62,-243 792.62,-243 792.62,-249 786.62,-255 780.62,-255"/>
<text text-anchor="middle" x="752.75" y="-234.62" font-family="Helvetica,Arial,sans-serif" font-size="10.00" fill="#212529">📄 home.nix</text>
</g>
<!-- N65&#45;&gt;N66 -->
<g id="edge75" class="edge">
<title>N65&#45;&gt;N66</title>
<path fill="none" stroke="#6c757d" d="M536.67,-237C582.78,-237 656.18,-237 704.17,-237"/>
<polygon fill="#6c757d" stroke="#6c757d" points="704.01,-239.45 711.01,-237 704.01,-234.55 704.01,-239.45"/>
</g>
</g>
</svg>
